<svg xmlns="http://www.w3.org/2000/svg" xmlns:xlink="http://www.w3.org/1999/xlink" width="65" height="65" viewBox="0 0 65 65">
  <defs>
    <clipPath id="clip-path">
      <path id="path9156" d="M0-682.665H47.708v47.709H0Z" transform="translate(0 682.665)"/>
    </clipPath>
  </defs>
  <g id="Grupo_991468" data-name="Grupo 991468" transform="translate(-180 -4703)">
    <rect id="Rectángulo_33792" data-name="Rectángulo 33792" width="65" height="65" rx="5" transform="translate(180 4703)" fill="#465fc4"/>
    <g id="Grupo_80313" data-name="Grupo 80313" transform="translate(185.692 4713.843)">
      <g id="Grupo_80111" data-name="Grupo 80111" transform="translate(24.464)">
        <path id="Trazado_113526" data-name="Trazado 113526" d="M289.532,1037.3l-17.138-17.138a.856.856,0,0,1,0-1.21h0a.856.856,0,0,1,1.211,0l17.138,17.138a.856.856,0,0,1,0,1.211h0A.857.857,0,0,1,289.532,1037.3Z" transform="translate(-272.143 -1018.7)" fill="#ffc721"/>
      </g>
      <g id="Grupo_80112" data-name="Grupo 80112" transform="translate(32.873 2.294)">
        <path id="Trazado_113527" data-name="Trazado 113527" d="M343.678,1044.286l-6.434-6.434a.857.857,0,0,1,0-1.211h0a.856.856,0,0,1,1.211,0l6.433,6.433a.856.856,0,0,1,0,1.211h0A.856.856,0,0,1,343.678,1044.286Z" transform="translate(-336.993 -1036.39)" fill="#ffc721"/>
      </g>
      <g id="Grupo_80113" data-name="Grupo 80113" transform="translate(18.349)">
        <path id="Trazado_113528" data-name="Trazado 113528" d="M248.493,1043.414l-23.253-23.253a.855.855,0,0,1,0-1.21h0a.856.856,0,0,1,1.211,0L249.7,1042.2a.856.856,0,0,1,0,1.211h0A.856.856,0,0,1,248.493,1043.414Z" transform="translate(-224.989 -1018.7)" fill="#ffc721"/>
      </g>
      <g id="Grupo_80114" data-name="Grupo 80114" transform="translate(13.51 1.276)">
        <path id="Trazado_113529" data-name="Trazado 113529" d="M214.741,1056.815,187.926,1030a.856.856,0,0,1,0-1.211h0a.855.855,0,0,1,1.211,0l26.816,26.816a.856.856,0,0,1,0,1.211h0A.856.856,0,0,1,214.741,1056.815Z" transform="translate(-187.675 -1028.537)" fill="#ffc721"/>
      </g>
      <g id="Grupo_80115" data-name="Grupo 80115" transform="translate(9.488 3.369)">
        <path id="Trazado_113530" data-name="Trazado 113530" d="M185.658,1074.883l-28.744-28.744a.856.856,0,0,1,0-1.211h0a.856.856,0,0,1,1.211,0l28.745,28.745a.856.856,0,0,1,0,1.211h0A.856.856,0,0,1,185.658,1074.883Z" transform="translate(-156.663 -1044.677)" fill="#ffc721"/>
      </g>
      <g id="Grupo_80116" data-name="Grupo 80116" transform="translate(6.119 6.119)">
        <path id="Trazado_113531" data-name="Trazado 113531" d="M160.3,1096.71l-29.363-29.363a.857.857,0,0,1,0-1.211h0a.857.857,0,0,1,1.211,0l29.363,29.364a.857.857,0,0,1,0,1.211h0A.857.857,0,0,1,160.3,1096.71Z" transform="translate(-130.686 -1065.885)" fill="#ffc721"/>
      </g>
      <g id="Grupo_80117" data-name="Grupo 80117" transform="translate(3.369 9.488)">
        <path id="Trazado_113532" data-name="Trazado 113532" d="M138.474,1122.069l-28.745-28.745a.856.856,0,0,1,0-1.21h0a.856.856,0,0,1,1.211,0l28.744,28.744a.856.856,0,0,1,0,1.211h0A.856.856,0,0,1,138.474,1122.069Z" transform="translate(-109.478 -1091.863)" fill="#ffc721"/>
      </g>
      <g id="Grupo_80118" data-name="Grupo 80118" transform="translate(1.276 13.51)">
        <path id="Trazado_113533" data-name="Trazado 113533" d="M120.4,1151.153l-26.816-26.816a.856.856,0,0,1,0-1.211h0a.855.855,0,0,1,1.211,0l26.816,26.816a.856.856,0,0,1,0,1.211h0A.855.855,0,0,1,120.4,1151.153Z" transform="translate(-93.336 -1122.875)" fill="#ffc721"/>
      </g>
      <g id="Grupo_80119" data-name="Grupo 80119" transform="translate(0 18.349)">
        <path id="Trazado_113534" data-name="Trazado 113534" d="M107,1184.9,83.75,1161.651a.855.855,0,0,1,0-1.211h0a.855.855,0,0,1,1.211,0l23.253,23.253a.855.855,0,0,1,0,1.211h0A.856.856,0,0,1,107,1184.9Z" transform="translate(-83.499 -1160.189)" fill="#ffc721"/>
      </g>
      <g id="Grupo_80120" data-name="Grupo 80120" transform="translate(0 24.464)">
        <path id="Trazado_113535" data-name="Trazado 113535" d="M100.888,1225.943,83.75,1208.8a.856.856,0,0,1,0-1.211h0a.856.856,0,0,1,1.211,0l17.138,17.138a.857.857,0,0,1,0,1.211h0A.856.856,0,0,1,100.888,1225.943Z" transform="translate(-83.499 -1207.343)" fill="#ffc721"/>
      </g>
      <g id="Grupo_80121" data-name="Grupo 80121" transform="translate(2.294 32.873)">
        <path id="Trazado_113536" data-name="Trazado 113536" d="M107.875,1280.088l-6.433-6.434a.856.856,0,0,1,0-1.211h0a.857.857,0,0,1,1.211,0l6.434,6.434a.856.856,0,0,1,0,1.211h0A.856.856,0,0,1,107.875,1280.088Z" transform="translate(-101.191 -1272.193)" fill="#ffc721"/>
      </g>
    </g>
    <g id="g9150" transform="translate(189.809 5395.199)">
      <g id="g9152" transform="translate(0 -682.665)">
        <g id="g9154" clip-path="url(#clip-path)">
          <g id="g9160" transform="translate(39.556 12.723)">
            <path id="path9162" d="M-3.773,0h-.006l-.277.163v4.8h4.2l.23-.2V4.151A4.164,4.164,0,0,0-3.773,0" transform="translate(4.056)" fill="#ffa90f"/>
          </g>
          <g id="g9164" transform="translate(12.069 0.699)">
            <path id="path9166" d="M-295.614-8.891l-.3-.668h-20.375a1.539,1.539,0,0,0-1.539,1.539v2.657l.64.525H-300.1L-294.5.614V7.556h3.991l.444-.324V-3.708l-.692-.306Z" transform="translate(317.826 9.559)" fill="#62ddfc"/>
          </g>
          <g id="g9168" transform="translate(12.069 0.699)">
            <path id="path9170" d="M-63.546-20.489a1.539,1.539,0,0,1,1.539-1.539h-4.775a1.539,1.539,0,0,0-1.539,1.539v2.658l.64.524h4.775l-.64-.524Z" transform="translate(68.321 22.028)" fill="#00d2fc"/>
          </g>
          <g id="g9172" transform="translate(3.718 12.723)">
            <path id="path9174" d="M-55.335,0h-.085a4.085,4.085,0,0,0-4.073,4.073v.693l.4.111h4.069V.262Z" transform="translate(59.493)" fill="#ffa90f"/>
          </g>
          <g id="g9176" transform="translate(33.983 0.699)">
            <path id="path9178" d="M0,0V4.311A1.539,1.539,0,0,0,1.539,5.85H5.85Z" fill="#00d2fc"/>
          </g>
          <g id="g9180" transform="translate(7.876 4.896)">
            <path id="path9182" d="M-296.435-11.734l-.359-.882h-20.375a1.539,1.539,0,0,0-1.539,1.539V-.022l.6.6h25.5l1.658-.6V-6.765l-.864-.4Z" transform="translate(318.709 12.616)" fill="#dbedff"/>
          </g>
          <g id="g9184" transform="translate(7.876 4.896)">
            <path id="path9186" d="M-63.546-20.489a1.539,1.539,0,0,1,1.539-1.539h-4.775a1.539,1.539,0,0,0-1.539,1.539V-9.434l.6.6h4.775l-.6-.6Z" transform="translate(68.321 22.028)" fill="#b5dcff"/>
          </g>
          <g id="g9188" transform="translate(29.79 4.896)">
            <path id="path9190" d="M0,0V4.311A1.539,1.539,0,0,0,1.539,5.851H5.85Z" fill="#b5dcff"/>
          </g>
          <g id="g9192" transform="translate(33.983 0.699)">
            <path id="path9194" d="M-33.484-57.377v-1.8L-36-61.688v4.311a1.539,1.539,0,0,0,1.539,1.539h2.516a1.539,1.539,0,0,1-1.539-1.539" transform="translate(36 61.688)" fill="#00c2fb"/>
          </g>
          <g id="g9196" transform="translate(29.79 4.896)">
            <path id="path9198" d="M-33.484-57.377v-1.8L-36-61.688v4.311a1.539,1.539,0,0,0,1.539,1.539h2.516a1.539,1.539,0,0,1-1.539-1.539" transform="translate(36 61.688)" fill="#8bcaff"/>
          </g>
          <g id="g9200" transform="translate(3.718 17.489)">
            <path id="path9202" d="M-535.995,0h-40.273V28.283a1.238,1.238,0,0,0,1.238,1.238h37.8a1.238,1.238,0,0,0,1.238-1.238Z" transform="translate(576.268)" fill="#ffd086"/>
          </g>
          <g id="g9204" transform="translate(3.718 17.489)">
            <path id="path9206" d="M-79-376.419V-404.7h-5.936v28.283a1.238,1.238,0,0,0,1.238,1.238h5.936A1.238,1.238,0,0,1-79-376.419" transform="translate(84.933 404.702)" fill="#ffc365"/>
          </g>
          <g id="g9208" transform="translate(23.855 29.822)">
            <path id="path9210" d="M-207.923,0h-14.831a.792.792,0,0,0-.792.792V12.466a.792.792,0,0,0,.792.792h14.831a.792.792,0,0,0,.792-.792V.792A.792.792,0,0,0-207.923,0" transform="translate(223.546)" fill="#dbedff"/>
          </g>
          <g id="g9212" transform="translate(23.855 29.822)">
            <path id="path9214" d="M-49.532-165.908v-11.674a.792.792,0,0,1,.792-.792h-3.722a.792.792,0,0,0-.792.792v11.674a.792.792,0,0,0,.792.792h3.722a.792.792,0,0,1-.792-.792" transform="translate(53.253 178.374)" fill="#b5dcff"/>
          </g>
          <g id="g9216" transform="translate(3.718 12.723)">
            <path id="path9218" d="M-55.335,0h-.085a4.085,4.085,0,0,0-4.073,4.073v.693h4.158Z" transform="translate(59.493)" fill="none" stroke="#000" stroke-linecap="round" stroke-linejoin="round" stroke-miterlimit="10" stroke-width="1"/>
          </g>
          <g id="g9220" transform="translate(39.833 12.723)">
            <path id="path9222" d="M-.084,0H-.091V4.766H4.067V4.151A4.164,4.164,0,0,0-.084,0Z" transform="translate(0.091)" fill="none" stroke="#000" stroke-linecap="round" stroke-linejoin="round" stroke-miterlimit="10" stroke-width="1"/>
          </g>
          <g id="g9224" transform="translate(12.068 0.699)">
            <path id="path9226" d="M-20.489,0a1.539,1.539,0,0,0-1.539,1.539V4.2H-4.306l5.851,5.851V16.79H5.737V5.85L-.113,0Z" transform="translate(22.028)" fill="none" stroke="#000" stroke-linecap="round" stroke-linejoin="round" stroke-miterlimit="10" stroke-width="1"/>
          </g>
          <g id="g9228" transform="translate(7.875 4.896)">
            <path id="path9230" d="M-291.66,0h-20.375a1.539,1.539,0,0,0-1.539,1.539V12.594h27.765V5.851Z" transform="translate(313.574)" fill="none" stroke="#000" stroke-linecap="round" stroke-linejoin="round" stroke-miterlimit="10" stroke-width="1"/>
          </g>
          <g id="g9232" transform="translate(29.79 4.896)">
            <path id="path9234" d="M0,0V4.311A1.539,1.539,0,0,0,1.539,5.851H5.851Z" fill="none" stroke="#000" stroke-linecap="round" stroke-linejoin="round" stroke-miterlimit="10" stroke-width="1"/>
          </g>
          <g id="g9236" transform="translate(33.983 0.699)">
            <path id="path9238" d="M0,0V4.311A1.539,1.539,0,0,0,1.539,5.85H5.851Z" fill="none" stroke="#000" stroke-linecap="round" stroke-linejoin="round" stroke-miterlimit="10" stroke-width="1"/>
          </g>
          <g id="g9240" transform="translate(27.123 40.312)">
            <path id="path9242" d="M0,0H9.877" fill="none" stroke="#000" stroke-linecap="round" stroke-linejoin="round" stroke-miterlimit="10" stroke-width="1"/>
          </g>
          <g id="g9244" transform="translate(27.123 37.738)">
            <path id="path9246" d="M0,0H9.877" fill="none" stroke="#000" stroke-linecap="round" stroke-linejoin="round" stroke-miterlimit="10" stroke-width="1"/>
          </g>
          <g id="g9248" transform="translate(27.123 35.164)">
            <path id="path9250" d="M0,0H9.877" fill="none" stroke="#000" stroke-linecap="round" stroke-linejoin="round" stroke-miterlimit="10" stroke-width="1"/>
          </g>
          <g id="g9252" transform="translate(27.123 32.59)">
            <path id="path9254" d="M0,0H9.877" fill="none" stroke="#000" stroke-linecap="round" stroke-linejoin="round" stroke-miterlimit="10" stroke-width="1"/>
          </g>
          <g id="g9256" transform="translate(11.749 14.64)">
            <path id="path9258" d="M0,0H19.225" fill="none" stroke="#000" stroke-linecap="round" stroke-linejoin="round" stroke-miterlimit="10" stroke-width="1"/>
          </g>
          <g id="g9260" transform="translate(11.749 12.066)">
            <path id="path9262" d="M0,0H16.181" fill="none" stroke="#000" stroke-linecap="round" stroke-linejoin="round" stroke-miterlimit="10" stroke-width="1"/>
          </g>
          <g id="g9264" transform="translate(23.854 29.822)">
            <path id="path9266" d="M-87.53,0h-5.785a.792.792,0,0,0-.792.792V12.466a.792.792,0,0,0,.792.792h14.831a.792.792,0,0,0,.792-.792V.792A.792.792,0,0,0-78.484,0h-5.785" transform="translate(94.106)" fill="none" stroke="#000" stroke-linecap="round" stroke-linejoin="round" stroke-miterlimit="10" stroke-width="1"/>
          </g>
          <g id="g9268" transform="translate(3.718 17.489)">
            <path id="path9270" d="M-535.995-164.663v-12.372h-40.273v28.283a1.238,1.238,0,0,0,1.238,1.238h37.8a1.238,1.238,0,0,0,1.237-1.238V-161.4" transform="translate(576.268 177.036)" fill="none" stroke="#000" stroke-linecap="round" stroke-linejoin="round" stroke-miterlimit="10" stroke-width="1"/>
          </g>
        </g>
      </g>
    </g>
    <g id="Elipse_4731" data-name="Elipse 4731" transform="translate(187.647 4750.594)" fill="none" stroke="#f9931f" stroke-width="4">
      <ellipse cx="6.563" cy="6.563" rx="6.563" ry="6.563" stroke="none"/>
      <ellipse cx="6.563" cy="6.563" rx="4.563" ry="4.563" fill="none"/>
    </g>
  </g>
</svg>
