<svg xmlns="http://www.w3.org/2000/svg" width="65" height="65" viewBox="0 0 65 65">
  <g id="Grupo_989866" data-name="Grupo 989866" transform="translate(-180 -4703)">
    <rect id="Rectángulo_33792" data-name="Rectángulo 33792" width="65" height="65" rx="5" transform="translate(180 4703)" fill="#465fc4"/>
    <g id="Grupo_80313" data-name="Grupo 80313" transform="translate(185.692 4713.843)">
      <g id="Grupo_80111" data-name="Grupo 80111" transform="translate(24.464)">
        <path id="Trazado_113526" data-name="Trazado 113526" d="M289.532,1037.3l-17.138-17.138a.856.856,0,0,1,0-1.21h0a.856.856,0,0,1,1.211,0l17.138,17.138a.856.856,0,0,1,0,1.211h0A.857.857,0,0,1,289.532,1037.3Z" transform="translate(-272.143 -1018.7)" fill="#ffc721"/>
      </g>
      <g id="Grupo_80112" data-name="Grupo 80112" transform="translate(32.873 2.294)">
        <path id="Trazado_113527" data-name="Trazado 113527" d="M343.678,1044.286l-6.434-6.434a.857.857,0,0,1,0-1.211h0a.856.856,0,0,1,1.211,0l6.433,6.433a.856.856,0,0,1,0,1.211h0A.856.856,0,0,1,343.678,1044.286Z" transform="translate(-336.993 -1036.39)" fill="#ffc721"/>
      </g>
      <g id="Grupo_80113" data-name="Grupo 80113" transform="translate(18.349)">
        <path id="Trazado_113528" data-name="Trazado 113528" d="M248.493,1043.414l-23.253-23.253a.855.855,0,0,1,0-1.21h0a.856.856,0,0,1,1.211,0L249.7,1042.2a.856.856,0,0,1,0,1.211h0A.856.856,0,0,1,248.493,1043.414Z" transform="translate(-224.989 -1018.7)" fill="#ffc721"/>
      </g>
      <g id="Grupo_80114" data-name="Grupo 80114" transform="translate(13.51 1.276)">
        <path id="Trazado_113529" data-name="Trazado 113529" d="M214.741,1056.815,187.926,1030a.856.856,0,0,1,0-1.211h0a.855.855,0,0,1,1.211,0l26.816,26.816a.856.856,0,0,1,0,1.211h0A.856.856,0,0,1,214.741,1056.815Z" transform="translate(-187.675 -1028.537)" fill="#ffc721"/>
      </g>
      <g id="Grupo_80115" data-name="Grupo 80115" transform="translate(9.488 3.369)">
        <path id="Trazado_113530" data-name="Trazado 113530" d="M185.658,1074.883l-28.744-28.744a.856.856,0,0,1,0-1.211h0a.856.856,0,0,1,1.211,0l28.745,28.745a.856.856,0,0,1,0,1.211h0A.856.856,0,0,1,185.658,1074.883Z" transform="translate(-156.663 -1044.677)" fill="#ffc721"/>
      </g>
      <g id="Grupo_80116" data-name="Grupo 80116" transform="translate(6.119 6.119)">
        <path id="Trazado_113531" data-name="Trazado 113531" d="M160.3,1096.71l-29.363-29.363a.857.857,0,0,1,0-1.211h0a.857.857,0,0,1,1.211,0l29.363,29.364a.857.857,0,0,1,0,1.211h0A.857.857,0,0,1,160.3,1096.71Z" transform="translate(-130.686 -1065.885)" fill="#ffc721"/>
      </g>
      <g id="Grupo_80117" data-name="Grupo 80117" transform="translate(3.369 9.488)">
        <path id="Trazado_113532" data-name="Trazado 113532" d="M138.474,1122.069l-28.745-28.745a.856.856,0,0,1,0-1.21h0a.856.856,0,0,1,1.211,0l28.744,28.744a.856.856,0,0,1,0,1.211h0A.856.856,0,0,1,138.474,1122.069Z" transform="translate(-109.478 -1091.863)" fill="#ffc721"/>
      </g>
      <g id="Grupo_80118" data-name="Grupo 80118" transform="translate(1.276 13.51)">
        <path id="Trazado_113533" data-name="Trazado 113533" d="M120.4,1151.153l-26.816-26.816a.856.856,0,0,1,0-1.211h0a.855.855,0,0,1,1.211,0l26.816,26.816a.856.856,0,0,1,0,1.211h0A.855.855,0,0,1,120.4,1151.153Z" transform="translate(-93.336 -1122.875)" fill="#ffc721"/>
      </g>
      <g id="Grupo_80119" data-name="Grupo 80119" transform="translate(0 18.349)">
        <path id="Trazado_113534" data-name="Trazado 113534" d="M107,1184.9,83.75,1161.651a.855.855,0,0,1,0-1.211h0a.855.855,0,0,1,1.211,0l23.253,23.253a.855.855,0,0,1,0,1.211h0A.856.856,0,0,1,107,1184.9Z" transform="translate(-83.499 -1160.189)" fill="#ffc721"/>
      </g>
      <g id="Grupo_80120" data-name="Grupo 80120" transform="translate(0 24.464)">
        <path id="Trazado_113535" data-name="Trazado 113535" d="M100.888,1225.943,83.75,1208.8a.856.856,0,0,1,0-1.211h0a.856.856,0,0,1,1.211,0l17.138,17.138a.857.857,0,0,1,0,1.211h0A.856.856,0,0,1,100.888,1225.943Z" transform="translate(-83.499 -1207.343)" fill="#ffc721"/>
      </g>
      <g id="Grupo_80121" data-name="Grupo 80121" transform="translate(2.294 32.873)">
        <path id="Trazado_113536" data-name="Trazado 113536" d="M107.875,1280.088l-6.433-6.434a.856.856,0,0,1,0-1.211h0a.857.857,0,0,1,1.211,0l6.434,6.434a.856.856,0,0,1,0,1.211h0A.856.856,0,0,1,107.875,1280.088Z" transform="translate(-101.191 -1272.193)" fill="#ffc721"/>
      </g>
    </g>
    <g id="Grupo_989971" data-name="Grupo 989971" transform="translate(6905 13101.77)">
      <g id="evaluacion_2_" data-name="evaluacion (2)" transform="translate(-6711.05 -8390.75)">
        <g id="Grupo_989945" data-name="Grupo 989945" transform="translate(0.585 0)">
          <g id="Grupo_989919" data-name="Grupo 989919" transform="translate(0 3.854)">
            <path id="Trazado_625313" data-name="Trazado 625313" d="M36.954,6.94H10.612A3.084,3.084,0,0,0,7.53,10.022v38.35a3.084,3.084,0,0,0,3.082,3.082H36.961a3.084,3.084,0,0,0,3.082-3.082V10.03a3.087,3.087,0,0,0-3.09-3.09Z" transform="translate(-7.53 -6.94)" fill="#e2e2e2"/>
          </g>
          <g id="Grupo_989920" data-name="Grupo 989920" transform="translate(3.254 19.553)">
            <path id="Trazado_625314" data-name="Trazado 625314" d="M11.7,27.06h6.468v6.468H11.7Z" transform="translate(-11.7 -27.06)" fill="#ef4a51"/>
          </g>
          <g id="Grupo_989921" data-name="Grupo 989921" transform="translate(3.254 28.823)">
            <path id="Trazado_625315" data-name="Trazado 625315" d="M11.7,38.94h6.468v6.468H11.7Z" transform="translate(-11.7 -38.94)" fill="#ffab03"/>
          </g>
          <g id="Grupo_989922" data-name="Grupo 989922" transform="translate(3.254 38.1)">
            <path id="Trazado_625316" data-name="Trazado 625316" d="M11.7,50.83h6.468V57.3H11.7Z" transform="translate(-11.7 -50.83)" fill="#7cb5e8"/>
          </g>
          <g id="Grupo_989923" data-name="Grupo 989923" transform="translate(3.254 38.1)">
            <path id="Trazado_625317" data-name="Trazado 625317" d="M11.7,50.83h6.468V57.3H11.7Z" transform="translate(-11.7 -50.83)" fill="#7cb5e8"/>
          </g>
          <g id="Grupo_989924" data-name="Grupo 989924" transform="translate(5.594 38.1)" opacity="0.3">
            <path id="Trazado_625318" data-name="Trazado 625318" d="M14.7,53.4a1.565,1.565,0,0,0,1.561,1.561h2.567V50.83H14.7Z" transform="translate(-14.7 -50.83)" fill="#fff"/>
          </g>
          <g id="Grupo_989925" data-name="Grupo 989925" transform="translate(5.594 28.823)" opacity="0.3">
            <path id="Trazado_625319" data-name="Trazado 625319" d="M14.7,41.507a1.565,1.565,0,0,0,1.561,1.561h2.567V38.94H14.7Z" transform="translate(-14.7 -38.94)" fill="#fff"/>
          </g>
          <g id="Grupo_989926" data-name="Grupo 989926" transform="translate(5.594 19.546)" opacity="0.3">
            <path id="Trazado_625320" data-name="Trazado 625320" d="M14.7,29.617a1.565,1.565,0,0,0,1.561,1.561h2.567V27.05H14.7Z" transform="translate(-14.7 -27.05)" fill="#fff"/>
          </g>
          <g id="Grupo_989927" data-name="Grupo 989927" transform="translate(10.627 3.854)" opacity="0.3">
            <path id="Trazado_625321" data-name="Trazado 625321" d="M39.946,6.94H21.15v9.808A12.914,12.914,0,0,0,34.063,29.661h8.973V10.03a3.087,3.087,0,0,0-3.09-3.09Z" transform="translate(-21.15 -6.94)" fill="#fff"/>
          </g>
          <g id="Grupo_989928" data-name="Grupo 989928" transform="translate(17.665 3.862)" opacity="0.5">
            <path id="Trazado_625322" data-name="Trazado 625322" d="M41.929,6.95H30.17a3.187,3.187,0,0,0,3.183,3.183h8.474v6.2a3.187,3.187,0,0,0,3.183,3.183h.008v-9.48A3.085,3.085,0,0,0,41.929,6.95Z" transform="translate(-30.17 -6.95)" fill="#fff"/>
          </g>
          <g id="Grupo_989929" data-name="Grupo 989929" transform="translate(16.542 17.595)">
            <circle id="Elipse_4989" data-name="Elipse 4989" cx="10.034" cy="10.034" r="10.034" transform="translate(0)" fill="#fff"/>
          </g>
          <g id="Grupo_989930" data-name="Grupo 989930" transform="translate(19.089 20.146)">
            <path id="Trazado_625323" data-name="Trazado 625323" d="M39.482,42.8a7.491,7.491,0,1,0-5.3-2.193A7.442,7.442,0,0,0,39.482,42.8Z" transform="translate(-31.995 -27.82)" fill="#7cb5e8"/>
          </g>
          <g id="Grupo_989931" data-name="Grupo 989931" transform="translate(21.524 20.139)" opacity="0.3">
            <path id="Trazado_625324" data-name="Trazado 625324" d="M40.167,27.81a7.439,7.439,0,0,0-3.933,1.124A7.486,7.486,0,0,0,46.542,39.241,7.486,7.486,0,0,0,40.167,27.81Z" transform="translate(-35.116 -27.81)" fill="#fff"/>
          </g>
          <g id="Grupo_989932" data-name="Grupo 989932" transform="translate(34.175 35.221)">
            <path id="Trazado_625325" data-name="Trazado 625325" d="M53.913,47.585l-2.138,2.138a2.3,2.3,0,0,1-.445.336l5.907,5.907a2.063,2.063,0,0,0,2.918-2.918L54.248,47.14A2.081,2.081,0,0,1,53.913,47.585Z" transform="translate(-51.33 -47.14)" fill="#ef4a51"/>
          </g>
          <g id="Grupo_989933" data-name="Grupo 989933" transform="translate(35.369 35.229)" opacity="0.3">
            <path id="Trazado_625326" data-name="Trazado 625326" d="M54.584,47.15a2.559,2.559,0,0,1-.336.445L52.86,48.984,57.581,53.7a2.067,2.067,0,0,0,2.918,0,2.507,2.507,0,0,0,.265-.32,2.063,2.063,0,0,0-.265-.32Z" transform="translate(-52.86 -47.15)" fill="#e2e2e2"/>
          </g>
          <g id="Grupo_989934" data-name="Grupo 989934" transform="translate(30.407 31.46)">
            <path id="Trazado_625327" data-name="Trazado 625327" d="M49.769,45.589a9.835,9.835,0,0,0,2.177-3.269l.905.905a2.341,2.341,0,0,1,0,3.308l-2.138,2.138a2.341,2.341,0,0,1-3.308,0l-.905-.905a10.162,10.162,0,0,0,3.269-2.177Z" transform="translate(-46.5 -42.32)" fill="#4e6575"/>
          </g>
          <g id="Grupo_989935" data-name="Grupo 989935" transform="translate(31.499 31.452)" opacity="0.3">
            <path id="Trazado_625328" data-name="Trazado 625328" d="M51.013,47.054l2.138-2.138a2.349,2.349,0,0,0,.538-.85,2.349,2.349,0,0,0-.538-.85l-.905-.905a10.162,10.162,0,0,1-2.177,3.269A9.856,9.856,0,0,1,47.9,47.218a2.34,2.34,0,0,0,3.113-.164Z" transform="translate(-47.9 -42.31)" fill="#e2e2e2"/>
          </g>
          <g id="Grupo_989938" data-name="Grupo 989938" transform="translate(12.656 6.195)">
            <g id="Grupo_989936" data-name="Grupo 989936">
              <path id="Trazado_625329" data-name="Trazado 625329" d="M27.347,9.94l1.116,2.255,2.489.359-1.8,1.756.421,2.481-2.224-1.17-2.224,1.17.421-2.481L23.75,12.554l2.481-.359Z" transform="translate(-23.75 -9.94)" fill="#ffab03"/>
            </g>
            <g id="Grupo_989937" data-name="Grupo 989937" transform="translate(1.873)" opacity="0.3">
              <path id="Trazado_625330" data-name="Trazado 625330" d="M28.99,12.195,27.874,9.94l-1.116,2.255-.609.086a3.615,3.615,0,0,0,3.488,2.708c.047,0,.094-.016.14-.016l-.117-.663,1.8-1.756Z" transform="translate(-26.15 -9.94)" fill="#fff"/>
            </g>
          </g>
          <g id="Grupo_989941" data-name="Grupo 989941" transform="translate(4.791 8.942)">
            <g id="Grupo_989939" data-name="Grupo 989939">
              <path id="Trazado_625331" data-name="Trazado 625331" d="M17.275,13.46l1.108,2.255,2.489.359-1.8,1.756.429,2.481-2.224-1.17-2.232,1.17.429-2.481-1.8-1.756,2.489-.359Z" transform="translate(-13.67 -13.46)" fill="#ffab03"/>
            </g>
            <g id="Grupo_989940" data-name="Grupo 989940" transform="translate(1.873)" opacity="0.3">
              <path id="Trazado_625332" data-name="Trazado 625332" d="M18.91,15.715,17.794,13.46l-1.116,2.255-.609.086a3.615,3.615,0,0,0,3.488,2.708c.047,0,.094-.016.14-.016l-.117-.663,1.8-1.756Z" transform="translate(-16.07 -13.46)" fill="#fff"/>
            </g>
          </g>
          <g id="Grupo_989944" data-name="Grupo 989944" transform="translate(20.513 8.942)">
            <g id="Grupo_989942" data-name="Grupo 989942">
              <path id="Trazado_625333" data-name="Trazado 625333" d="M37.425,13.46l1.108,2.255,2.489.359-1.8,1.756.429,2.481-2.224-1.17-2.232,1.17.429-2.481-1.8-1.756,2.489-.359Z" transform="translate(-33.82 -13.46)" fill="#ffab03"/>
            </g>
            <g id="Grupo_989943" data-name="Grupo 989943" transform="translate(1.873)" opacity="0.3">
              <path id="Trazado_625334" data-name="Trazado 625334" d="M39.06,15.715,37.944,13.46l-1.116,2.255-.609.086a3.615,3.615,0,0,0,3.488,2.708c.047,0,.094-.016.14-.016l-.117-.663,1.8-1.756Z" transform="translate(-36.22 -13.46)" fill="#fff"/>
            </g>
          </g>
        </g>
        <g id="Grupo_989968" data-name="Grupo 989968" transform="translate(0 3.277)">
          <g id="Grupo_989946" data-name="Grupo 989946" transform="translate(16.547 13.746)">
            <path id="Trazado_625335" data-name="Trazado 625335" d="M38.6,45.043a10.612,10.612,0,1,1,7.506-3.105A10.593,10.593,0,0,1,38.6,45.043Zm0-20.061a9.441,9.441,0,1,0,6.679,2.762A9.416,9.416,0,0,0,38.6,24.982Z" transform="translate(-27.988 -23.818)"/>
          </g>
          <g id="Grupo_989947" data-name="Grupo 989947" transform="translate(19.078 16.284)">
            <path id="Trazado_625336" data-name="Trazado 625336" d="M39.314,43.221a8.08,8.08,0,0,1-7.178-11.79.585.585,0,1,1,1.038.538,6.894,6.894,0,1,0,1.248-1.709.585.585,0,0,1-.827-.827,8.077,8.077,0,1,1,5.719,13.787Z" transform="translate(-31.231 -27.07)"/>
          </g>
          <g id="Grupo_989948" data-name="Grupo 989948" transform="translate(34.178 31.369)">
            <path id="Trazado_625337" data-name="Trazado 625337" d="M58.532,57a2.6,2.6,0,0,1-1.873-.78l-5.907-5.907a.58.58,0,0,1-.164-.484.6.6,0,0,1,.273-.429,1.7,1.7,0,0,0,.328-.25l2.138-2.138a1.637,1.637,0,0,0,.25-.328.585.585,0,0,1,.913-.117L60.4,52.479A2.653,2.653,0,0,1,58.532,57ZM52.04,49.959l5.446,5.446a1.508,1.508,0,0,0,2.091,0,1.479,1.479,0,0,0,0-2.091l-5.446-5.446Z" transform="translate(-50.584 -46.404)"/>
          </g>
          <g id="Grupo_989949" data-name="Grupo 989949" transform="translate(30.398 27.586)">
            <path id="Trazado_625338" data-name="Trazado 625338" d="M48.884,49.767a2.9,2.9,0,0,1-2.068-.858L45.911,48a.6.6,0,0,1-.164-.531.6.6,0,0,1,.351-.429,9.451,9.451,0,0,0,5.126-5.126.6.6,0,0,1,.429-.351.583.583,0,0,1,.531.164l.905.905a2.929,2.929,0,0,1,0,4.135l-2.138,2.138a2.891,2.891,0,0,1-2.068.858Zm-1.545-1.99.312.312a1.8,1.8,0,0,0,2.481,0l2.138-2.138a1.752,1.752,0,0,0,0-2.481l-.312-.312a10.871,10.871,0,0,1-1.943,2.676A10.35,10.35,0,0,1,47.339,47.778Z" transform="translate(-45.739 -41.555)"/>
          </g>
          <g id="Grupo_989950" data-name="Grupo 989950" transform="translate(13.366 37.882)">
            <path id="Trazado_625339" data-name="Trazado 625339" d="M30.737,55.92H24.5a.585.585,0,0,1,0-1.17h6.242a.585.585,0,0,1,0,1.17Z" transform="translate(-23.91 -54.75)"/>
          </g>
          <g id="Grupo_989951" data-name="Grupo 989951" transform="translate(22.472 37.882)">
            <path id="Trazado_625340" data-name="Trazado 625340" d="M37.648,55.92H36.165a.585.585,0,0,1,0-1.17h1.482a.585.585,0,1,1,0,1.17Z" transform="translate(-35.58 -54.75)"/>
          </g>
          <g id="Grupo_989952" data-name="Grupo 989952" transform="translate(13.366 40.706)">
            <path id="Trazado_625341" data-name="Trazado 625341" d="M30.737,59.54H24.5a.585.585,0,0,1,0-1.17h6.242a.585.585,0,0,1,0,1.17Z" transform="translate(-23.91 -58.37)"/>
          </g>
          <g id="Grupo_989953" data-name="Grupo 989953" transform="translate(22.472 40.706)">
            <path id="Trazado_625342" data-name="Trazado 625342" d="M37.648,59.54H36.165a.585.585,0,0,1,0-1.17h1.482a.585.585,0,0,1,0,1.17Z" transform="translate(-35.58 -58.37)"/>
          </g>
          <g id="Grupo_989954" data-name="Grupo 989954" transform="translate(0 6.944)">
            <path id="Trazado_625343" data-name="Trazado 625343" d="M36.789,53.84H10.447A3.673,3.673,0,0,1,6.78,50.173V15.685a.585.585,0,0,1,1.17,0V50.173a2.5,2.5,0,0,0,2.5,2.5H36.8a2.5,2.5,0,0,0,2.5-2.5V44.906a.585.585,0,1,1,1.17,0v5.267A3.675,3.675,0,0,1,36.789,53.84Z" transform="translate(-6.78 -15.1)"/>
          </g>
          <g id="Grupo_989955" data-name="Grupo 989955">
            <path id="Trazado_625344" data-name="Trazado 625344" d="M39.879,21.173a.589.589,0,0,1-.585-.585V9.867a2.5,2.5,0,0,0-2.5-2.5H10.447a2.5,2.5,0,0,0-2.5,2.5v1.124a.585.585,0,1,1-1.17,0V9.867A3.673,3.673,0,0,1,10.447,6.2H36.8a3.673,3.673,0,0,1,3.667,3.667V20.6A.583.583,0,0,1,39.879,21.173Z" transform="translate(-6.78 -6.2)"/>
          </g>
          <g id="Grupo_989958" data-name="Grupo 989958" transform="translate(4.786 5.109)">
            <path id="Trazado_625347" data-name="Trazado 625347" d="M14.877,20.739a.6.6,0,0,1-.343-.109.583.583,0,0,1-.234-.57l.375-2.177L13.09,16.346a.592.592,0,0,1-.148-.6.584.584,0,0,1,.476-.4l2.185-.32.975-1.982a.607.607,0,0,1,1.046,0l.975,1.982,2.185.32a.585.585,0,0,1,.328,1l-1.584,1.537.375,2.177a.576.576,0,0,1-.234.57.587.587,0,0,1-.616.047L17.1,19.647l-1.951,1.03a.665.665,0,0,1-.273.062ZM17.109,18.4a.569.569,0,0,1,.273.07l1.178.616-.226-1.311a.579.579,0,0,1,.172-.515l.952-.929-1.319-.2a.583.583,0,0,1-.437-.32l-.585-1.194-.585,1.194a.6.6,0,0,1-.437.32l-1.319.2.952.929a.579.579,0,0,1,.172.515l-.226,1.311,1.178-.616a.472.472,0,0,1,.257-.07Z" transform="translate(-12.913 -12.748)"/>
          </g>
          <g id="Grupo_989959" data-name="Grupo 989959" transform="translate(12.651 2.362)">
            <path id="Trazado_625348" data-name="Trazado 625348" d="M24.957,17.219a.6.6,0,0,1-.343-.109.583.583,0,0,1-.234-.57l.375-2.177L23.17,12.826a.592.592,0,0,1-.148-.6.584.584,0,0,1,.476-.4l2.185-.32.975-1.982a.607.607,0,0,1,1.046,0l.975,1.982,2.185.32a.585.585,0,0,1,.328,1l-1.584,1.537.375,2.177a.576.576,0,0,1-.234.57.587.587,0,0,1-.616.047l-1.951-1.03-1.951,1.03a.665.665,0,0,1-.273.062Zm2.224-2.341a.569.569,0,0,1,.273.07l1.178.616-.226-1.311a.579.579,0,0,1,.172-.515l.952-.929-1.319-.2a.583.583,0,0,1-.437-.32L27.189,11.1,26.6,12.3a.6.6,0,0,1-.437.32l-1.319.2.952.929a.579.579,0,0,1,.172.515l-.226,1.311,1.178-.616a.472.472,0,0,1,.257-.07Z" transform="translate(-22.993 -9.227)"/>
          </g>
          <g id="Grupo_989960" data-name="Grupo 989960" transform="translate(20.508 5.109)">
            <path id="Trazado_625349" data-name="Trazado 625349" d="M35.027,20.739a.6.6,0,0,1-.343-.109.583.583,0,0,1-.234-.57l.375-2.177L33.24,16.346a.592.592,0,0,1-.148-.6.584.584,0,0,1,.476-.4l2.185-.32.975-1.982a.607.607,0,0,1,1.046,0l.975,1.982,2.185.32a.585.585,0,0,1,.328,1l-1.584,1.537.375,2.177a.576.576,0,0,1-.234.57.587.587,0,0,1-.616.047l-1.951-1.03L35.3,20.677a.665.665,0,0,1-.273.062ZM37.259,18.4a.569.569,0,0,1,.273.07l1.178.616-.234-1.311a.579.579,0,0,1,.172-.515l.952-.929-1.319-.2a.583.583,0,0,1-.437-.32l-.585-1.194-.585,1.194a.6.6,0,0,1-.437.32l-1.319.2.952.929a.579.579,0,0,1,.172.515l-.226,1.311,1.178-.616A.519.519,0,0,1,37.259,18.4Z" transform="translate(-33.063 -12.748)"/>
          </g>
          <g id="Grupo_989961" data-name="Grupo 989961" transform="translate(3.254 15.683)">
            <path id="Trazado_625350" data-name="Trazado 625350" d="M18,33.939H11.535a.589.589,0,0,1-.585-.585V26.885a.589.589,0,0,1,.585-.585H18a.589.589,0,0,1,.585.585v4.643a.585.585,0,0,1-1.17,0v-4.05h-5.3v5.3H18a.589.589,0,0,1,.585.585A.578.578,0,0,1,18,33.939Z" transform="translate(-10.95 -26.3)"/>
          </g>
          <g id="Grupo_989962" data-name="Grupo 989962" transform="translate(5.058 17.948)">
            <path id="Trazado_625351" data-name="Trazado 625351" d="M14.774,32.314a.579.579,0,0,1-.414-.172l-.929-.929a.585.585,0,0,1,.827-.827l.507.507,1.522-1.522a.585.585,0,0,1,.827.827L15.18,32.134a.529.529,0,0,1-.406.179Z" transform="translate(-13.262 -29.202)"/>
          </g>
          <g id="Grupo_989963" data-name="Grupo 989963" transform="translate(3.254 24.961)">
            <path id="Trazado_625352" data-name="Trazado 625352" d="M18,45.829H11.535a.589.589,0,0,1-.585-.585V38.775a.589.589,0,0,1,.585-.585H18a.589.589,0,0,1,.585.585v6.468A.58.58,0,0,1,18,45.829Zm-5.883-1.17h5.3v-5.3h-5.3Z" transform="translate(-10.95 -38.19)"/>
          </g>
          <g id="Grupo_989964" data-name="Grupo 989964" transform="translate(5.058 27.225)">
            <path id="Trazado_625353" data-name="Trazado 625353" d="M14.774,44.2a.585.585,0,0,1-.414-.172l-.929-.929a.585.585,0,0,1,.827-.827l.507.507,1.522-1.522a.585.585,0,0,1,.827.827L15.18,44.024A.532.532,0,0,1,14.774,44.2Z" transform="translate(-13.262 -41.092)"/>
          </g>
          <g id="Grupo_989965" data-name="Grupo 989965" transform="translate(3.254 34.238)">
            <path id="Trazado_625354" data-name="Trazado 625354" d="M18,57.719H13.338a.585.585,0,1,1,0-1.17h4.081v-5.3h-5.3v5.883a.585.585,0,0,1-1.17,0V50.665a.589.589,0,0,1,.585-.585H18a.589.589,0,0,1,.585.585v6.468A.584.584,0,0,1,18,57.719Z" transform="translate(-10.95 -50.08)"/>
          </g>
          <g id="Grupo_989966" data-name="Grupo 989966" transform="translate(5.058 36.503)">
            <path id="Trazado_625355" data-name="Trazado 625355" d="M14.774,56.094a.585.585,0,0,1-.414-.172l-.929-.929a.585.585,0,1,1,.827-.827l.507.507,1.522-1.522a.585.585,0,0,1,.827.827L15.18,55.914A.532.532,0,0,1,14.774,56.094Z" transform="translate(-13.262 -52.982)"/>
          </g>
        </g>
      </g>
      <g id="Grupo_989971-2" data-name="Grupo 989971" transform="translate(-6688.668 -8368.181)">
        <path id="Trazado_625359" data-name="Trazado 625359" d="M193.284,72.371h-1.152a.967.967,0,0,1-.967-.966V70.253a.967.967,0,0,0-.966-.967h-1.45a.967.967,0,0,0-.966.967V71.4a.966.966,0,0,1-.967.966h-1.152a.966.966,0,0,0-.966.966v1.45a.966.966,0,0,0,.966.966h1.152a.967.967,0,0,1,.967.966v1.152a.966.966,0,0,0,.966.966h1.45a.966.966,0,0,0,.966-.966V76.72a.967.967,0,0,1,.967-.966h1.152a.967.967,0,0,0,.966-.966v-1.45A.966.966,0,0,0,193.284,72.371Z" transform="translate(-184.697 -69.286)" fill="#93e291"/>
        <path id="Trazado_625366" data-name="Trazado 625366" d="M193.287,72.371h-1.152a.966.966,0,0,1-.966-.966V70.253a.967.967,0,0,0-.967-.967h-1.45a.966.966,0,0,0-.966.967V71.4a.966.966,0,0,1-.966.966h-1.152a.966.966,0,0,0-.966.966v1.45a.966.966,0,0,0,.966.966h1.152a.966.966,0,0,1,.966.966v1.152a.966.966,0,0,0,.966.966h1.45a.966.966,0,0,0,.967-.966V76.72a.966.966,0,0,1,.966-.966h1.152a.966.966,0,0,0,.966-.966v-1.45A.966.966,0,0,0,193.287,72.371Z" transform="translate(-184.699 -69.286)" fill="none" stroke="#000" stroke-linecap="round" stroke-linejoin="round" stroke-miterlimit="10" stroke-width="0.8"/>
      </g>
    </g>
    <g id="Elipse_4731" data-name="Elipse 4731" transform="translate(187.647 4750.594)" fill="none" stroke="#f9931f" stroke-width="4">
      <ellipse cx="6.563" cy="6.563" rx="6.563" ry="6.563" stroke="none"/>
      <ellipse cx="6.563" cy="6.563" rx="4.563" ry="4.563" fill="none"/>
    </g>
  </g>
</svg>
