<svg xmlns="http://www.w3.org/2000/svg" xmlns:xlink="http://www.w3.org/1999/xlink" width="65" height="65" viewBox="0 0 65 65">
  <defs>
    <clipPath id="clip-path">
      <rect id="Rect치ngulo_345063" data-name="Rect치ngulo 345063" width="21" height="26" transform="translate(0.437 -0.313)" fill="#fff" stroke="#707070" stroke-width="1"/>
    </clipPath>
  </defs>
  <g id="Grupo_989867" data-name="Grupo 989867" transform="translate(-180 -4703)">
    <rect id="Rect치ngulo_33792" data-name="Rect치ngulo 33792" width="65" height="65" rx="5" transform="translate(180 4703)" fill="#465fc4"/>
    <g id="Grupo_80313" data-name="Grupo 80313" transform="translate(185.692 4713.843)">
      <g id="Grupo_80111" data-name="Grupo 80111" transform="translate(24.464)">
        <path id="Trazado_113526" data-name="Trazado 113526" d="M289.532,1037.3l-17.138-17.138a.856.856,0,0,1,0-1.21h0a.856.856,0,0,1,1.211,0l17.138,17.138a.856.856,0,0,1,0,1.211h0A.857.857,0,0,1,289.532,1037.3Z" transform="translate(-272.143 -1018.7)" fill="#ffc721"/>
      </g>
      <g id="Grupo_80112" data-name="Grupo 80112" transform="translate(32.873 2.294)">
        <path id="Trazado_113527" data-name="Trazado 113527" d="M343.678,1044.286l-6.434-6.434a.857.857,0,0,1,0-1.211h0a.856.856,0,0,1,1.211,0l6.433,6.433a.856.856,0,0,1,0,1.211h0A.856.856,0,0,1,343.678,1044.286Z" transform="translate(-336.993 -1036.39)" fill="#ffc721"/>
      </g>
      <g id="Grupo_80113" data-name="Grupo 80113" transform="translate(18.349)">
        <path id="Trazado_113528" data-name="Trazado 113528" d="M248.493,1043.414l-23.253-23.253a.855.855,0,0,1,0-1.21h0a.856.856,0,0,1,1.211,0L249.7,1042.2a.856.856,0,0,1,0,1.211h0A.856.856,0,0,1,248.493,1043.414Z" transform="translate(-224.989 -1018.7)" fill="#ffc721"/>
      </g>
      <g id="Grupo_80114" data-name="Grupo 80114" transform="translate(13.51 1.276)">
        <path id="Trazado_113529" data-name="Trazado 113529" d="M214.741,1056.815,187.926,1030a.856.856,0,0,1,0-1.211h0a.855.855,0,0,1,1.211,0l26.816,26.816a.856.856,0,0,1,0,1.211h0A.856.856,0,0,1,214.741,1056.815Z" transform="translate(-187.675 -1028.537)" fill="#ffc721"/>
      </g>
      <g id="Grupo_80115" data-name="Grupo 80115" transform="translate(9.488 3.369)">
        <path id="Trazado_113530" data-name="Trazado 113530" d="M185.658,1074.883l-28.744-28.744a.856.856,0,0,1,0-1.211h0a.856.856,0,0,1,1.211,0l28.745,28.745a.856.856,0,0,1,0,1.211h0A.856.856,0,0,1,185.658,1074.883Z" transform="translate(-156.663 -1044.677)" fill="#ffc721"/>
      </g>
      <g id="Grupo_80116" data-name="Grupo 80116" transform="translate(6.119 6.119)">
        <path id="Trazado_113531" data-name="Trazado 113531" d="M160.3,1096.71l-29.363-29.363a.857.857,0,0,1,0-1.211h0a.857.857,0,0,1,1.211,0l29.363,29.364a.857.857,0,0,1,0,1.211h0A.857.857,0,0,1,160.3,1096.71Z" transform="translate(-130.686 -1065.885)" fill="#ffc721"/>
      </g>
      <g id="Grupo_80117" data-name="Grupo 80117" transform="translate(3.369 9.488)">
        <path id="Trazado_113532" data-name="Trazado 113532" d="M138.474,1122.069l-28.745-28.745a.856.856,0,0,1,0-1.21h0a.856.856,0,0,1,1.211,0l28.744,28.744a.856.856,0,0,1,0,1.211h0A.856.856,0,0,1,138.474,1122.069Z" transform="translate(-109.478 -1091.863)" fill="#ffc721"/>
      </g>
      <g id="Grupo_80118" data-name="Grupo 80118" transform="translate(1.276 13.51)">
        <path id="Trazado_113533" data-name="Trazado 113533" d="M120.4,1151.153l-26.816-26.816a.856.856,0,0,1,0-1.211h0a.855.855,0,0,1,1.211,0l26.816,26.816a.856.856,0,0,1,0,1.211h0A.855.855,0,0,1,120.4,1151.153Z" transform="translate(-93.336 -1122.875)" fill="#ffc721"/>
      </g>
      <g id="Grupo_80119" data-name="Grupo 80119" transform="translate(0 18.349)">
        <path id="Trazado_113534" data-name="Trazado 113534" d="M107,1184.9,83.75,1161.651a.855.855,0,0,1,0-1.211h0a.855.855,0,0,1,1.211,0l23.253,23.253a.855.855,0,0,1,0,1.211h0A.856.856,0,0,1,107,1184.9Z" transform="translate(-83.499 -1160.189)" fill="#ffc721"/>
      </g>
      <g id="Grupo_80120" data-name="Grupo 80120" transform="translate(0 24.464)">
        <path id="Trazado_113535" data-name="Trazado 113535" d="M100.888,1225.943,83.75,1208.8a.856.856,0,0,1,0-1.211h0a.856.856,0,0,1,1.211,0l17.138,17.138a.857.857,0,0,1,0,1.211h0A.856.856,0,0,1,100.888,1225.943Z" transform="translate(-83.499 -1207.343)" fill="#ffc721"/>
      </g>
      <g id="Grupo_80121" data-name="Grupo 80121" transform="translate(2.294 32.873)">
        <path id="Trazado_113536" data-name="Trazado 113536" d="M107.875,1280.088l-6.433-6.434a.856.856,0,0,1,0-1.211h0a.857.857,0,0,1,1.211,0l6.434,6.434a.856.856,0,0,1,0,1.211h0A.856.856,0,0,1,107.875,1280.088Z" transform="translate(-101.191 -1272.193)" fill="#ffc721"/>
      </g>
    </g>
    <g id="Elipse_4731" data-name="Elipse 4731" transform="translate(187.647 4750.594)" fill="none" stroke="#f9931f" stroke-width="4">
      <ellipse cx="6.563" cy="6.563" rx="6.563" ry="6.563" stroke="none"/>
      <ellipse cx="6.563" cy="6.563" rx="4.563" ry="4.563" fill="none"/>
    </g>
    <g id="Grupo_991469" data-name="Grupo 991469" transform="translate(6516 12795)">
      <g id="proceso_2_" data-name="proceso (2)" transform="translate(-6324 -8084)">
        <g id="Grupo_991479" data-name="Grupo 991479" transform="translate(1.153 0.713)">
          <g id="Grupo_991469-2" data-name="Grupo 991469" transform="translate(7.838 31.353)">
            <path id="Trazado_678981" data-name="Trazado 678981" d="M14,46h8.551a4.279,4.279,0,0,1-4.275,4.275A4.282,4.282,0,0,1,14,46Z" transform="translate(-14 -46)" fill="#aab2bd"/>
          </g>
          <g id="Grupo_991470" data-name="Grupo 991470" transform="translate(6.413 28.503)">
            <path id="Trazado_678982" data-name="Trazado 678982" d="M21.976,42A1.429,1.429,0,0,1,23.4,43.425a1.436,1.436,0,0,1-1.425,1.425H13.425A1.429,1.429,0,0,1,12,43.425,1.436,1.436,0,0,1,13.425,42Z" transform="translate(-12 -42)" fill="#ccd1d9"/>
          </g>
          <g id="Grupo_991471" data-name="Grupo 991471" transform="translate(6.413 25.653)">
            <path id="Trazado_678983" data-name="Trazado 678983" d="M21.976,38A1.429,1.429,0,0,1,23.4,39.425a1.436,1.436,0,0,1-1.425,1.425H13.425A1.429,1.429,0,0,1,12,39.425,1.436,1.436,0,0,1,13.425,38Z" transform="translate(-12 -38)" fill="#ccd1d9"/>
          </g>
          <g id="Grupo_991472" data-name="Grupo 991472" transform="translate(0.713)">
            <path id="Trazado_678984" data-name="Trazado 678984" d="M26.8,13.4v.264a11.407,11.407,0,0,1-3.342,8.066L21.187,24a5.156,5.156,0,0,0-1.511,3.648H11.126A5.156,5.156,0,0,0,9.615,24L7.342,21.731A11.407,11.407,0,0,1,4,13.665V13.4a11.4,11.4,0,1,1,22.8,0Z" transform="translate(-4 -2)" fill="#ffeaa7"/>
          </g>
          <g id="Grupo_991473" data-name="Grupo 991473" transform="translate(3.563 2.85)">
            <path id="Trazado_678985" data-name="Trazado 678985" d="M25.1,12.413v4.275l-1.14.406a8.25,8.25,0,0,1-.378.9l.527,1.09-3.028,3.028-1.09-.527a8.25,8.25,0,0,1-.9.378l-.406,1.14H14.413l-.406-1.14a8.25,8.25,0,0,1-.9-.378l-1.09.527L8.99,19.083l.527-1.09a8.25,8.25,0,0,1-.378-.9L8,16.689V12.413l1.14-.406a8.25,8.25,0,0,1,.378-.9l-.527-1.09L12.019,6.99l1.09.527a8.25,8.25,0,0,1,.9-.378L14.413,6h4.275l.406,1.14a8.25,8.25,0,0,1,.9.378l1.09-.527,3.028,3.028-.527,1.09a8.25,8.25,0,0,1,.378.9Zm-3.563,2.138a4.988,4.988,0,1,0-4.988,4.988A4.984,4.984,0,0,0,21.539,14.551Z" transform="translate(-8 -6)" fill="#a0d468"/>
          </g>
          <g id="Grupo_991474" data-name="Grupo 991474" transform="translate(7.126 6.413)">
            <path id="Trazado_678986" data-name="Trazado 678986" d="M17.988,11A4.988,4.988,0,1,1,13,15.988,4.984,4.984,0,0,1,17.988,11Zm2.138,4.988a2.138,2.138,0,1,0-2.138,2.138A2.135,2.135,0,0,0,20.126,15.988Z" transform="translate(-13 -11)" fill="#b4dd7f"/>
          </g>
          <g id="Grupo_991475" data-name="Grupo 991475" transform="translate(0 29.928)">
            <path id="Trazado_678987" data-name="Trazado 678987" d="M5.85,44,8.7,49.7H3Z" transform="translate(-3 -44)" fill="#87ff6e"/>
          </g>
          <g id="Grupo_991476" data-name="Grupo 991476" transform="translate(28.503 17.102)">
            <path id="Trazado_678988" data-name="Trazado 678988" d="M51.7,26l-2.85,5.7L46,26h5.7Z" transform="translate(-46 -26)" fill="#ff826e"/>
          </g>
        </g>
        <g id="Grupo_991480" data-name="Grupo 991480" transform="translate(0 0)">
          <path id="Trazado_678994" data-name="Trazado 678994" d="M23.68,21.945a12.037,12.037,0,0,0,3.548-8.566v-.266A12.114,12.114,0,1,0,3,13.114v.266a12.037,12.037,0,0,0,3.548,8.566L8.822,24.22A4.418,4.418,0,0,1,10.085,26.8a2.12,2.12,0,0,0-.829,3.419,2.117,2.117,0,0,0,.908,3.444,4.985,4.985,0,0,0,9.9,0,2.117,2.117,0,0,0,.908-3.444,2.12,2.12,0,0,0-.829-3.419,4.41,4.41,0,0,1,1.263-2.577Zm-4.29,6.132a.713.713,0,0,1,0,1.425H10.838a.713.713,0,1,1,0-1.425Zm-4.275,8.551a3.57,3.57,0,0,1-3.491-2.85H18.6A3.57,3.57,0,0,1,15.114,36.629Zm4.275-4.275H10.838a.713.713,0,1,1,0-1.425h8.551a.713.713,0,1,1,0,1.425Zm-.665-5.7H11.5a5.824,5.824,0,0,0-1.672-3.44L7.556,20.938A10.622,10.622,0,0,1,4.425,13.38v-.266a10.689,10.689,0,0,1,21.377,0v.266a10.621,10.621,0,0,1-3.131,7.558L20.4,23.212A5.824,5.824,0,0,0,18.724,26.653Z" transform="translate(-1.847 -1)"/>
          <path id="Trazado_678995" data-name="Trazado 678995" d="M44.382,20.976l4,8.006,4-8.006H49.1V13.138A2.14,2.14,0,0,0,46.96,11H44.822v1.425H46.96a.714.714,0,0,1,.713.713v7.838Zm4,4.82-1.7-3.395h3.395Z" transform="translate(-15.879 -3.874)"/>
          <path id="Trazado_678996" data-name="Trazado 678996" d="M41,11h1.425v1.425H41Z" transform="translate(-14.907 -3.874)"/>
          <path id="Trazado_678997" data-name="Trazado 678997" d="M9.388,49.77l-4-8.006-4,8.006H4.673v3.563A2.14,2.14,0,0,0,6.81,55.471H8.948V54.046H6.81a.714.714,0,0,1-.713-.713V49.77Zm-4-4.82,1.7,3.395H3.688Z" transform="translate(-1.382 -12.717)"/>
          <path id="Trazado_678998" data-name="Trazado 678998" d="M18,59h1.425v1.425H18Z" transform="translate(-6.158 -17.671)"/>
          <path id="Trazado_678999" data-name="Trazado 678999" d="M14,59h1.425v1.425H14Z" transform="translate(-5.009 -17.671)"/>
          <path id="Trazado_679000" data-name="Trazado 679000" d="M22,59h1.425v1.425H22Z" transform="translate(-7.308 -17.671)"/>
          <path id="Trazado_679001" data-name="Trazado 679001" d="M17.7,10a5.7,5.7,0,1,0,5.7,5.7A5.707,5.707,0,0,0,17.7,10Zm0,9.976A4.275,4.275,0,1,1,21.976,15.7,4.28,4.28,0,0,1,17.7,19.976Z" transform="translate(-4.434 -3.587)"/>
          <path id="Trazado_679002" data-name="Trazado 679002" d="M18.85,14a2.85,2.85,0,1,0,2.85,2.85A2.853,2.853,0,0,0,18.85,14Zm0,4.275a1.425,1.425,0,1,1,1.425-1.425A1.427,1.427,0,0,1,18.85,18.275Z" transform="translate(-5.584 -4.737)"/>
          <path id="Trazado_679003" data-name="Trazado 679003" d="M24.086,17.7c.049-.111.1-.223.14-.336l1.3-.459V11.622l-1.3-.46q-.066-.168-.14-.336l.6-1.246L20.945,5.845l-1.246.6c-.111-.049-.223-.1-.336-.14L18.906,5H13.622l-.46,1.3q-.168.066-.336.14l-1.245-.6L7.845,9.582l.6,1.246c-.049.111-.1.223-.14.336L7,11.621V16.9l1.3.46q.066.168.14.336l-.6,1.245,3.737,3.737,1.246-.6c.111.049.223.1.336.14l.458,1.3H18.9l.46-1.3q.168-.066.336-.14l1.246.6,3.737-3.737ZM23,16.573a6.967,6.967,0,0,1-.341.817l-.152.31.455.951-2.31,2.31-.951-.455-.31.152a7.091,7.091,0,0,1-.817.341l-.326.112-.35.991H14.63l-.35-.992L13.953,21a6.967,6.967,0,0,1-.817-.341l-.31-.152-.951.455-2.31-2.31.455-.951-.152-.31a7.091,7.091,0,0,1-.341-.817l-.112-.326-.99-.349V12.63l.992-.35.112-.326a6.967,6.967,0,0,1,.341-.817l.152-.31-.455-.951,2.31-2.31.951.455.31-.152a7.091,7.091,0,0,1,.817-.341l.326-.112.349-.99H17.9l.35.992.326.112a6.967,6.967,0,0,1,.817.341l.31.152.951-.455,2.31,2.31-.455.951.152.31a7.091,7.091,0,0,1,.341.817l.112.326.99.349V15.9l-.992.35Z" transform="translate(-2.997 -2.15)"/>
        </g>
      </g>
      <g id="Enmascarar_grupo_990933" data-name="Enmascarar grupo 990933" transform="translate(-6302.437 -8058.687)" clip-path="url(#clip-path)">
        <g id="gestion-del-cambio" transform="translate(-24.702 -20.616)">
          <g id="Grupo_991483" data-name="Grupo 991483" transform="translate(0.699 0.699)">
            <g id="Grupo_991481" data-name="Grupo 991481">
              <path id="Trazado_679004" data-name="Trazado 679004" d="M20.721,9.842a9.219,9.219,0,0,1,3.364,1.394l.4-.18,1.389-.617.772.772.772.772-.617,1.389-.18.4a9.217,9.217,0,0,1,1.395,3.365l.412.158,1.419.546V20.03l-1.419.546-.412.159A9.218,9.218,0,0,1,26.627,24.1l.18.4.617,1.389-.772.772-.772.772L24.49,26.82l-.4-.179a9.217,9.217,0,0,1-3.365,1.395l-.158.412-.546,1.419H17.832l-.546-1.419-.159-.412a9.217,9.217,0,0,1-3.364-1.394l-.4.18-1.389.617-.772-.772-.772-.772.617-1.389.179-.4a9.217,9.217,0,0,1-1.395-3.365l-.412-.158L8,20.03V17.846L9.416,17.3l.412-.159a9.217,9.217,0,0,1,1.394-3.364l-.18-.4-.617-1.389.772-.772.772-.772,1.389.617.4.18a9.219,9.219,0,0,1,3.364-1.394l.159-.412.546-1.419h2.184l.546,1.419Zm-1.8,3.961a5.136,5.136,0,1,0,5.136,5.136A5.136,5.136,0,0,0,18.924,13.8Z" transform="translate(-7.997 -8.011)" fill="#eceff1" fill-rule="evenodd"/>
              <path id="Trazado_679005" data-name="Trazado 679005" d="M134.8,9.843a9.219,9.219,0,0,1,3.364,1.394l.4-.18,1.389-.617.772.772.772.772-.617,1.389-.18.4a9.217,9.217,0,0,1,1.395,3.365l.412.158,1.419.546v2.184l-1.419.546-.412.159A9.218,9.218,0,0,1,140.7,24.1l.18.4.617,1.389-.772.772-.772.772-1.389-.617-.4-.179a9.217,9.217,0,0,1-3.365,1.395l-.158.412-.546,1.419H133V24.075A5.136,5.136,0,0,0,133,13.8V8.012h1.092l.546,1.419Z" transform="translate(-122.072 -8.012)" fill="#d1d1d6" fill-rule="evenodd"/>
            </g>
            <g id="Grupo_991482" data-name="Grupo 991482" transform="translate(26.193 21.505)">
              <path id="Trazado_679006" data-name="Trazado 679006" d="M365.489,254.012c2.133,0,3.863,1.216,3.863,4.019s-1.729,5.077-3.863,5.077-3.863-2.273-3.863-5.077S363.355,254.012,365.489,254.012Z" transform="translate(-356.905 -254.012)" fill="#f6dccd" fill-rule="evenodd"/>
              <path id="Trazado_679007" data-name="Trazado 679007" d="M405.811,254.012c2.133,0,3.863,1.216,3.863,4.019s-1.729,5.077-3.863,5.077Z" transform="translate(-397.228 -254.012)" fill="#f1cbbc" fill-rule="evenodd"/>
              <path id="Trazado_679008" data-name="Trazado 679008" d="M308.934,379.811h14.544a1.314,1.314,0,0,0,1.311-1.311v-6.486c0-1.91-1.7-2.995-3.637-3.475a19.879,19.879,0,0,0-9.893,0c-1.931.5-3.637,1.564-3.637,3.475V378.5A1.314,1.314,0,0,0,308.934,379.811Z" transform="translate(-307.623 -357.956)" fill="#57aaf3" fill-rule="evenodd"/>
              <path id="Trazado_679009" data-name="Trazado 679009" d="M405.811,379.813h7.272a1.314,1.314,0,0,0,1.311-1.311v-6.486c0-1.91-1.7-2.995-3.637-3.475a20.677,20.677,0,0,0-4.946-.625Z" transform="translate(-397.228 -357.959)" fill="#459cea" fill-rule="evenodd"/>
            </g>
          </g>
          <path id="Trazado_679010" data-name="Trazado 679010" d="M21.8,36.321H13.319a1,1,0,0,1-1-1V29.392L13.83,31.3a.7.7,0,1,0,1.1-.866l-2.755-3.494a.7.7,0,0,0-1.1,0L8.319,30.437a.7.7,0,0,0,1.1.866l1.507-1.911v5.933a2.4,2.4,0,0,0,2.394,2.394H21.8a.7.7,0,0,0,0-1.4Zm18.359,1.047a.7.7,0,0,0-.7.7v6a.7.7,0,0,0,1.4,0v-6A.7.7,0,0,0,40.155,37.368Zm-9.366,0a.7.7,0,0,0-.7.7v6a.7.7,0,1,0,1.4,0v-6A.7.7,0,0,0,30.789,37.368Zm4.683-6.754c1.744,0,3.164-1.963,3.164-4.377,0-2.888-1.982-3.32-3.164-3.32s-3.163.432-3.163,3.32C32.309,28.651,33.729,30.614,35.472,30.614Zm9.283,5.661v7.8a.7.7,0,0,1-1.4,0v-7.8c0-1.763-1.946-2.509-3.106-2.8a19.3,19.3,0,0,0-9.55,0c-1.419.365-3.111,1.146-3.111,2.8v7.8a.7.7,0,0,1-1.4,0v-7.8c0-1.988,1.477-3.463,4.162-4.152a20.384,20.384,0,0,1,3.339-.569,5.973,5.973,0,0,1-2.78-5.317c0-2.91,1.747-4.718,4.561-4.718s4.563,1.809,4.563,4.719a5.971,5.971,0,0,1-2.79,5.323,21.771,21.771,0,0,1,3.343.561C43.236,32.779,44.755,34.293,44.755,36.276ZM16.06,11.64a4.437,4.437,0,1,0-4.436,4.436A4.441,4.441,0,0,0,16.06,11.64Zm1.4,0a5.835,5.835,0,1,1-5.835-5.835,5.842,5.842,0,0,1,5.835,5.835Zm4.393-.612v1.224l-1.382.532a.7.7,0,0,0-.435.518,8.5,8.5,0,0,1-1.289,3.109.7.7,0,0,0-.059.673l.6,1.355-.865.865-1.354-.6a.7.7,0,0,0-.674.059,8.472,8.472,0,0,1-3.109,1.29.7.7,0,0,0-.518.434l-.532,1.382H11.012l-.532-1.382a.7.7,0,0,0-.518-.435,8.477,8.477,0,0,1-3.109-1.289.7.7,0,0,0-.673-.059l-1.355.6-.866-.864.6-1.355a.7.7,0,0,0-.059-.674A8.462,8.462,0,0,1,3.213,13.3a.7.7,0,0,0-.436-.518L1.4,12.252V11.028L2.778,10.5a.7.7,0,0,0,.436-.518A8.469,8.469,0,0,1,4.5,6.87.7.7,0,0,0,4.56,6.2l-.6-1.355.866-.865,1.355.6a.7.7,0,0,0,.673-.059A8.492,8.492,0,0,1,9.962,3.23.7.7,0,0,0,10.48,2.8l.532-1.383h1.224L12.768,2.8a.7.7,0,0,0,.518.435,8.48,8.48,0,0,1,3.108,1.289.7.7,0,0,0,.674.059l1.355-.6.865.865-.6,1.354a.7.7,0,0,0,.059.674,8.478,8.478,0,0,1,1.289,3.109.7.7,0,0,0,.435.518Zm1.4-.48v2.184a.7.7,0,0,1-.449.653l-1.478.569a9.839,9.839,0,0,1-1.205,2.908l.643,1.45a.7.7,0,0,1-.144.778l-1.545,1.545a.7.7,0,0,1-.778.145l-1.449-.643a9.855,9.855,0,0,1-2.908,1.205l-.569,1.479a.7.7,0,0,1-.653.447H10.532a.7.7,0,0,1-.653-.447L9.31,21.34A9.82,9.82,0,0,1,6.4,20.135l-1.449.644a.7.7,0,0,1-.778-.145L2.63,19.089a.7.7,0,0,1-.144-.778l.643-1.449a9.881,9.881,0,0,1-1.206-2.908L.446,13.385A.7.7,0,0,1,0,12.732V10.548A.7.7,0,0,1,.446,9.9l1.478-.569A9.86,9.86,0,0,1,3.129,6.419L2.486,4.97a.7.7,0,0,1,.144-.778L4.175,2.647A.7.7,0,0,1,4.953,2.5L6.4,3.146A9.855,9.855,0,0,1,9.31,1.94L9.879.462a.7.7,0,0,1,.653-.448h2.184a.7.7,0,0,1,.653.448l.569,1.478a9.864,9.864,0,0,1,2.908,1.205l1.45-.643a.7.7,0,0,1,.778.144l1.545,1.545a.7.7,0,0,1,.144.778l-.643,1.448a9.869,9.869,0,0,1,1.206,2.909L22.8,9.9a.7.7,0,0,1,.449.653ZM33.778,8.9H25.3a.7.7,0,1,1,0-1.4h8.479A2.4,2.4,0,0,1,36.172,9.9v5.934l1.507-1.911a.7.7,0,0,1,1.1.866L36.022,18.28a.7.7,0,0,1-1.1,0l-2.755-3.493a.7.7,0,0,1,1.1-.866l1.507,1.911V9.9a1,1,0,0,0-.995-.995Z" transform="translate(0.003 -0.014)" fill-rule="evenodd"/>
        </g>
      </g>
    </g>
  </g>
</svg>
