<svg id="hand-hands-clean-protect-protection" xmlns="http://www.w3.org/2000/svg" width="60.402" height="60.001" viewBox="0 0 60.402 60.001">
  <path id="Trazado_116608" data-name="Trazado 116608" d="M49,33.4c.49-.26.8-.4.8-.4l6-10.39a3,3,0,1,1,5.2,3L55,36v4L50,50V61H30V50l-.1-.21,1-1.03A13.615,13.615,0,0,0,35,39V29h2V6a3,3,0,0,1,6,0v6a3,3,0,0,1,6,0Z" transform="translate(-1.998 -1.999)" fill="#ffc477"/>
  <path id="Trazado_116609" data-name="Trazado 116609" d="M61.4,24.11a3.012,3.012,0,0,1-.4,1.5L55,36v4L50,50V61H47V50l5-10V36l6-10.39a3.006,3.006,0,0,0-1.1-4.1,3,3,0,0,1,4.5,2.6Z" transform="translate(-1.998 -1.999)" fill="#ffa733"/>
  <path id="Trazado_116610" data-name="Trazado 116610" d="M37,12V29H35V27l-4-1.5V12a3,3,0,0,1,6,0Z" transform="translate(-1.998 -1.999)" fill="#ffc477"/>
  <path id="Trazado_116611" data-name="Trazado 116611" d="M35,27V39a13.615,13.615,0,0,1-4.1,9.76l-1,1.03L19,61,7.1,48.76A13.615,13.615,0,0,1,3,39V27l16-6Z" transform="translate(-1.998 -1.999)" fill="#898890"/>
  <path id="Trazado_116612" data-name="Trazado 116612" d="M31,30v8.86a9.992,9.992,0,0,1-2.931,7.071L19,55,9.93,45.93A9.991,9.991,0,0,1,7,38.86V30l12-5Z" transform="translate(-1.998 -1.999)" fill="#fee9ab"/>
  <path id="Trazado_116613" data-name="Trazado 116613" d="M31,30v8.86a9.992,9.992,0,0,1-2.931,7.071L19,55l-2-2,7.07-7.07A9.991,9.991,0,0,0,27,38.86V30L17,25.83,19,25Z" transform="translate(-1.998 -1.999)" fill="#ffde55"/>
  <path id="Trazado_116614" data-name="Trazado 116614" d="M31,18v7.5l-6-2.25V18a3,3,0,0,1,6,0Z" transform="translate(-1.998 -1.999)" fill="#ffc477"/>
  <path id="Trazado_116615" data-name="Trazado 116615" d="M15,9l-4.59,1.41L9,15,7.59,10.41,3,9,7.59,7.59,9,3l1.41,4.59Z" transform="translate(-1.998 -1.999)" fill="#ffcd00"/>
  <path id="Trazado_116616" data-name="Trazado 116616" d="M49,12V33H46V12a2.993,2.993,0,0,0-.88-2.12,3.3,3.3,0,0,0-.62-.48A3,3,0,0,1,49,12Z" transform="translate(-1.998 -1.999)" fill="#ffa733"/>
  <path id="Trazado_116617" data-name="Trazado 116617" d="M32,30a1,1,0,0,0-.615-.923l-12-5a1.007,1.007,0,0,0-.77,0l-12,5A1,1,0,0,0,6,30v8.858a10.931,10.931,0,0,0,3.222,7.778l9.071,9.071a1,1,0,0,0,1.414,0l9.071-9.071A10.931,10.931,0,0,0,32,38.858Zm-2,8.858a8.945,8.945,0,0,1-2.636,6.364L19,53.586l-8.364-8.364A8.945,8.945,0,0,1,8,38.858V30.667l11-4.584,11,4.584Z" transform="translate(-1.998 -1.999)"/>
  <path id="Trazado_116618" data-name="Trazado 116618" d="M16.172,38.757l-1.414,1.414,3.535,3.536a1,1,0,0,0,1.414,0l8.485-8.485-1.414-1.414L19,41.586Z" transform="translate(-1.998 -1.999)"/>
  <path id="Trazado_116619" data-name="Trazado 116619" d="M60.4,20.64a4.006,4.006,0,0,0-5.47,1.47L50,30.65V12a4,4,0,0,0-4-4,3.906,3.906,0,0,0-2,.56V6a4,4,0,0,0-8,0V8.55A3.953,3.953,0,0,0,34,8a4,4,0,0,0-4,4v2.55A3.953,3.953,0,0,0,28,14a4,4,0,0,0-4,4v3.81l-4.65-1.75a1.051,1.051,0,0,0-.7,0l-16,6A1.007,1.007,0,0,0,2,27V39A14.538,14.538,0,0,0,6.39,49.46L18.28,61.7a1.014,1.014,0,0,0,1.44,0L29,52.15V61a1,1,0,0,0,1,1H50a1,1,0,0,0,1-1V50.24l4.89-9.79A1,1,0,0,0,56,40V36.27l5.87-10.16a4.019,4.019,0,0,0-1.47-5.47ZM32,12a2,2,0,0,1,4,0V27a1.007,1.007,0,0,0-.65-.94L32,24.81Zm-6,6a2,2,0,1,1,4,0v6.06l-4-1.5ZM19,59.57,7.82,48.06a.01.01,0,0,1-.01-.01A12.582,12.582,0,0,1,4,39V27.69l15-5.62,15,5.62V39a12.591,12.591,0,0,1-3.82,9.06ZM60.13,25.11l-6,10.39A1.063,1.063,0,0,0,54,36v3.76l-4.89,9.79A1,1,0,0,0,49,50V60H31V50.09l.61-.63A14.538,14.538,0,0,0,36,39V29h2V6a2,2,0,0,1,4,0V29h2V12a2,2,0,0,1,4,0V32.8c-2.42,1.33-7,4.36-7,8.2h2c0-3.09,5.21-6.17,7.22-7.09a1.049,1.049,0,0,0,.45-.41l6-10.39a2,2,0,0,1,3.73,1A1.949,1.949,0,0,1,60.13,25.11Z" transform="translate(-1.998 -1.999)"/>
  <path id="Trazado_116620" data-name="Trazado 116620" d="M2.7,9.956l4.081,1.258,1.258,4.08a1,1,0,0,0,1.912,0l1.258-4.08L15.3,9.956a1,1,0,0,0,0-1.912L11.214,6.786,9.956,2.706a1,1,0,0,0-1.912,0L6.786,6.786,2.7,8.044a1,1,0,0,0,0,1.912ZM7.881,8.542a1,1,0,0,0,.661-.662L9,6.394,9.458,7.88a1,1,0,0,0,.661.662L11.606,9l-1.487.458a1,1,0,0,0-.661.662L9,11.606,8.542,10.12a1,1,0,0,0-.661-.662L6.394,9Z" transform="translate(-1.998 -1.999)"/>
  <path id="Trazado_116621" data-name="Trazado 116621" d="M58,2h2V4H58Z" transform="translate(-1.998 -1.999)"/>
  <path id="Trazado_116622" data-name="Trazado 116622" d="M56,4h2V6H56Z" transform="translate(-1.998 -1.999)"/>
  <path id="Trazado_116623" data-name="Trazado 116623" d="M60,4h2V6H60Z" transform="translate(-1.998 -1.999)"/>
  <path id="Trazado_116624" data-name="Trazado 116624" d="M58,6h2V8H58Z" transform="translate(-1.998 -1.999)"/>
  <path id="Trazado_116625" data-name="Trazado 116625" d="M25,2h2V4H25Z" transform="translate(-1.998 -1.999)"/>
  <path id="Trazado_116626" data-name="Trazado 116626" d="M23,4h2V6H23Z" transform="translate(-1.998 -1.999)"/>
  <path id="Trazado_116627" data-name="Trazado 116627" d="M27,4h2V6H27Z" transform="translate(-1.998 -1.999)"/>
  <path id="Trazado_116628" data-name="Trazado 116628" d="M25,6h2V8H25Z" transform="translate(-1.998 -1.999)"/>
  <path id="Trazado_116629" data-name="Trazado 116629" d="M18,12h2v2H18Z" transform="translate(-1.998 -1.999)"/>
  <path id="Trazado_116630" data-name="Trazado 116630" d="M16,14h2v2H16Z" transform="translate(-1.998 -1.999)"/>
  <path id="Trazado_116631" data-name="Trazado 116631" d="M20,14h2v2H20Z" transform="translate(-1.998 -1.999)"/>
  <path id="Trazado_116632" data-name="Trazado 116632" d="M18,16h2v2H18Z" transform="translate(-1.998 -1.999)"/>
  <path id="Trazado_116633" data-name="Trazado 116633" d="M54,12h2v2H54Z" transform="translate(-1.998 -1.999)"/>
  <path id="Trazado_116634" data-name="Trazado 116634" d="M52,14h2v2H52Z" transform="translate(-1.998 -1.999)"/>
  <path id="Trazado_116635" data-name="Trazado 116635" d="M56,14h2v2H56Z" transform="translate(-1.998 -1.999)"/>
  <path id="Trazado_116636" data-name="Trazado 116636" d="M54,16h2v2H54Z" transform="translate(-1.998 -1.999)"/>
</svg>
