<svg xmlns="http://www.w3.org/2000/svg" xmlns:xlink="http://www.w3.org/1999/xlink" width="65" height="65" viewBox="0 0 65 65">
  <defs>
    <clipPath id="clip-path">
      <path id="path873" d="M0-682.665H50.2v50.2H0Z" transform="translate(0 682.665)"/>
    </clipPath>
  </defs>
  <g id="Grupo_83549" data-name="Grupo 83549" transform="translate(-180 -4703)">
    <rect id="Rectángulo_33792" data-name="Rectángulo 33792" width="65" height="65" rx="5" transform="translate(180 4703)" fill="#465fc4"/>
    <g id="Grupo_989868" data-name="Grupo 989868" transform="translate(1.309 -3.12)">
      <g id="Grupo_80313" data-name="Grupo 80313" transform="translate(185.691 4713.843)">
        <g id="Grupo_80111" data-name="Grupo 80111" transform="translate(24.464)">
          <path id="Trazado_113526" data-name="Trazado 113526" d="M289.532,1037.3l-17.138-17.138a.856.856,0,0,1,0-1.21h0a.856.856,0,0,1,1.211,0l17.138,17.138a.856.856,0,0,1,0,1.211h0A.857.857,0,0,1,289.532,1037.3Z" transform="translate(-272.143 -1018.7)" fill="#ffc721"/>
        </g>
        <g id="Grupo_80112" data-name="Grupo 80112" transform="translate(32.873 2.294)">
          <path id="Trazado_113527" data-name="Trazado 113527" d="M343.678,1044.286l-6.434-6.434a.857.857,0,0,1,0-1.211h0a.856.856,0,0,1,1.211,0l6.433,6.433a.856.856,0,0,1,0,1.211h0A.856.856,0,0,1,343.678,1044.286Z" transform="translate(-336.993 -1036.39)" fill="#ffc721"/>
        </g>
        <g id="Grupo_80113" data-name="Grupo 80113" transform="translate(18.349)">
          <path id="Trazado_113528" data-name="Trazado 113528" d="M248.493,1043.414l-23.253-23.253a.855.855,0,0,1,0-1.21h0a.856.856,0,0,1,1.211,0L249.7,1042.2a.856.856,0,0,1,0,1.211h0A.856.856,0,0,1,248.493,1043.414Z" transform="translate(-224.989 -1018.7)" fill="#ffc721"/>
        </g>
        <g id="Grupo_80114" data-name="Grupo 80114" transform="translate(13.51 1.276)">
          <path id="Trazado_113529" data-name="Trazado 113529" d="M214.741,1056.815,187.926,1030a.856.856,0,0,1,0-1.211h0a.855.855,0,0,1,1.211,0l26.816,26.816a.856.856,0,0,1,0,1.211h0A.856.856,0,0,1,214.741,1056.815Z" transform="translate(-187.675 -1028.537)" fill="#ffc721"/>
        </g>
        <g id="Grupo_80115" data-name="Grupo 80115" transform="translate(9.488 3.369)">
          <path id="Trazado_113530" data-name="Trazado 113530" d="M185.658,1074.883l-28.744-28.744a.856.856,0,0,1,0-1.211h0a.856.856,0,0,1,1.211,0l28.745,28.745a.856.856,0,0,1,0,1.211h0A.856.856,0,0,1,185.658,1074.883Z" transform="translate(-156.663 -1044.677)" fill="#ffc721"/>
        </g>
        <g id="Grupo_80116" data-name="Grupo 80116" transform="translate(6.119 6.119)">
          <path id="Trazado_113531" data-name="Trazado 113531" d="M160.3,1096.71l-29.363-29.363a.857.857,0,0,1,0-1.211h0a.857.857,0,0,1,1.211,0l29.363,29.364a.857.857,0,0,1,0,1.211h0A.857.857,0,0,1,160.3,1096.71Z" transform="translate(-130.686 -1065.885)" fill="#ffc721"/>
        </g>
        <g id="Grupo_80117" data-name="Grupo 80117" transform="translate(3.369 9.488)">
          <path id="Trazado_113532" data-name="Trazado 113532" d="M138.474,1122.069l-28.745-28.745a.856.856,0,0,1,0-1.21h0a.856.856,0,0,1,1.211,0l28.744,28.744a.856.856,0,0,1,0,1.211h0A.856.856,0,0,1,138.474,1122.069Z" transform="translate(-109.478 -1091.863)" fill="#ffc721"/>
        </g>
        <g id="Grupo_80118" data-name="Grupo 80118" transform="translate(1.276 13.51)">
          <path id="Trazado_113533" data-name="Trazado 113533" d="M120.4,1151.153l-26.816-26.816a.856.856,0,0,1,0-1.211h0a.855.855,0,0,1,1.211,0l26.816,26.816a.856.856,0,0,1,0,1.211h0A.855.855,0,0,1,120.4,1151.153Z" transform="translate(-93.336 -1122.875)" fill="#ffc721"/>
        </g>
        <g id="Grupo_80119" data-name="Grupo 80119" transform="translate(0 18.349)">
          <path id="Trazado_113534" data-name="Trazado 113534" d="M107,1184.9,83.75,1161.651a.855.855,0,0,1,0-1.211h0a.855.855,0,0,1,1.211,0l23.253,23.253a.855.855,0,0,1,0,1.211h0A.856.856,0,0,1,107,1184.9Z" transform="translate(-83.499 -1160.189)" fill="#ffc721"/>
        </g>
        <g id="Grupo_80120" data-name="Grupo 80120" transform="translate(0 24.464)">
          <path id="Trazado_113535" data-name="Trazado 113535" d="M100.888,1225.943,83.75,1208.8a.856.856,0,0,1,0-1.211h0a.856.856,0,0,1,1.211,0l17.138,17.138a.857.857,0,0,1,0,1.211h0A.856.856,0,0,1,100.888,1225.943Z" transform="translate(-83.499 -1207.343)" fill="#ffc721"/>
        </g>
        <g id="Grupo_80121" data-name="Grupo 80121" transform="translate(2.294 32.873)">
          <path id="Trazado_113536" data-name="Trazado 113536" d="M107.875,1280.088l-6.433-6.434a.856.856,0,0,1,0-1.211h0a.857.857,0,0,1,1.211,0l6.434,6.434a.856.856,0,0,1,0,1.211h0A.856.856,0,0,1,107.875,1280.088Z" transform="translate(-101.191 -1272.193)" fill="#ffc721"/>
        </g>
      </g>
      <g id="g867" transform="translate(187.399 5396.184)">
        <g id="g869" transform="translate(0 -682.665)">
          <g id="g871" clip-path="url(#clip-path)">
            <g id="g877" transform="translate(0.735 26.005)">
              <path id="path879" d="M0-165.515H20.335v-6.907a5.083,5.083,0,0,0-3.614-4.865l-4.52-1.366H8.133l-4.52,1.366A5.083,5.083,0,0,0,0-172.422Z" transform="translate(0 178.653)" fill="#62a4fb"/>
            </g>
            <g id="g881" transform="translate(7.867 27.014)">
              <path id="path883" d="M0-108.215a8.3,8.3,0,0,1,6.335-8.08l2.075-.51,1.18.356a5.083,5.083,0,0,1,3.614,4.866v6.906H0Z" transform="translate(0 116.805)" fill="#5392f9"/>
            </g>
            <g id="g885" transform="translate(8.869 22.636)">
              <path id="path887" d="M-25.618-68.066h0A2.033,2.033,0,0,0-23.585-70.1v-3.37l-4.067.007V-70.1a2.033,2.033,0,0,0,2.033,2.033" transform="translate(27.652 73.469)" fill="#ea9b58"/>
            </g>
            <g id="g889" transform="translate(5.819 10.598)">
              <path id="path891" d="M-128.09-64.038v3.132a5.133,5.133,0,0,1-5.016,5.158,5.083,5.083,0,0,1-5.151-5.083v-3.208a5.083,5.083,0,0,1,5.084-5.083,5.083,5.083,0,0,1,5.084,5.083" transform="translate(138.257 69.121)" fill="#fed2a4"/>
            </g>
            <g id="g893" transform="translate(29.132 26.005)">
              <path id="path895" d="M-102.473,0l-4.52,1.365a5.083,5.083,0,0,0-3.614,4.866v6.906h20.335V6.231a5.083,5.083,0,0,0-3.614-4.866L-98.406,0Z" transform="translate(110.606)" fill="#62a4fb"/>
            </g>
            <g id="g897" transform="translate(29.132 27.014)">
              <path id="path899" d="M-166.336-108.215a8.3,8.3,0,0,0-6.335-8.08l-2.075-.51-1.18.356a5.083,5.083,0,0,0-3.614,4.866v6.906h13.2Z" transform="translate(179.54 116.805)" fill="#5392f9"/>
            </g>
            <g id="g901" transform="translate(37.266 22.636)">
              <path id="path903" d="M-25.617-68.066h0A2.033,2.033,0,0,1-27.651-70.1v-3.37l4.067.007V-70.1a2.033,2.033,0,0,1-2.033,2.033" transform="translate(27.651 73.469)" fill="#ea9b58"/>
            </g>
            <g id="g905" transform="translate(34.216 10.598)">
              <path id="path907" d="M0-64.038v3.132a5.133,5.133,0,0,0,5.016,5.158,5.083,5.083,0,0,0,5.151-5.083v-3.208a5.083,5.083,0,0,0-5.084-5.083A5.083,5.083,0,0,0,0-64.038" transform="translate(0 69.121)" fill="#fed2a4"/>
            </g>
            <g id="g909" transform="translate(10.244 28.073)">
              <path id="path911" d="M-147.244,0l-7.163,1.76a5.943,5.943,0,0,0-4.524,5.771v8.316h29.714V7.532a5.943,5.943,0,0,0-4.525-5.771L-140.9,0Z" transform="translate(158.932)" fill="#e6f7fe"/>
            </g>
            <g id="g913" transform="translate(22.761 30.054)">
              <path id="path915" d="M-44.012-63.779l1.186-2.785-2.34-2.278-2.34,2.278,1.186,2.785Z" transform="translate(47.505 68.841)" fill="#de5791"/>
            </g>
            <g id="g917" transform="translate(22.761 35.116)">
              <path id="path919" d="M-44.012,0l1.186,2.785h-4.679L-46.319,0Z" transform="translate(47.505)" fill="#e175a5"/>
            </g>
            <g id="g921" transform="translate(33.738 29.416)">
              <path id="path923" d="M-21.368-5.251l-1.7-.417a5.943,5.943,0,0,1,3.249,5.3V8.836h2.971V.52a5.943,5.943,0,0,0-4.525-5.771" transform="translate(23.064 5.668)" fill="#d3effd"/>
            </g>
            <g id="g925" transform="translate(21.932 22.724)">
              <path id="path927" d="M-79.861-67.383-83.03-65.4l-3.17-1.981v-5.349h6.339Z" transform="translate(86.2 72.732)" fill="#ffbd86"/>
            </g>
            <g id="g929" transform="translate(21.932 22.724)">
              <path id="path931" d="M0-31.813a8.077,8.077,0,0,0,3.17.644,8.077,8.077,0,0,0,3.17-.644v-2.525H0Z" transform="translate(0 34.339)" fill="#ea9b58"/>
            </g>
            <g id="g933" transform="translate(19.158 10.059)">
              <path id="path935" d="M0,0V7.712a5.943,5.943,0,1,0,11.886,0V0Z" fill="#fed2a4"/>
            </g>
            <g id="g937" transform="translate(23.813 10.059)">
              <path id="path939" d="M-58.649,0V7.712a5.944,5.944,0,0,1-4.655,5.8,5.959,5.959,0,0,0,1.288.142,5.943,5.943,0,0,0,5.943-5.943V0Z" transform="translate(63.304 0)" fill="#ffbd86"/>
            </g>
            <g id="g941" transform="translate(15.989 0.735)">
              <path id="path943" d="M0-114.8v5.349H3.17l.807-1.273a2.377,2.377,0,0,1,2.008-1.1H8.235a4.754,4.754,0,0,0,3.781-1.872l.464-.609a3.676,3.676,0,0,0,.833,1.45,5.009,5.009,0,0,0,1.742,1.031v2.377h3.17V-114.8a9.112,9.112,0,0,0-9.112-9.112A9.112,9.112,0,0,0,0-114.8" transform="translate(0 123.913)" fill="#e69642"/>
            </g>
            <g id="g945" transform="translate(23.796 2.412)">
              <path id="path947" d="M-82.821,0A17.2,17.2,0,0,1-85.7,6.568a17.685,17.685,0,0,1-3.691,3.839h.427a4.755,4.755,0,0,0,3.781-1.872l.464-.609a3.676,3.676,0,0,0,.833,1.45,5.008,5.008,0,0,0,1.742,1.031v2.377h3.17V7.435A9.1,9.1,0,0,0-82.821,0" transform="translate(89.394)" fill="#e38523"/>
            </g>
            <g id="g949" transform="translate(31.044 12.819)">
              <path id="path951" d="M-19.966-59.9h-1.585v-4.754h1.585a1.585,1.585,0,0,1,1.585,1.585v1.585A1.585,1.585,0,0,1-19.966-59.9" transform="translate(21.551 64.651)" fill="#f6a96c"/>
            </g>
            <g id="g953" transform="translate(15.989 12.819)">
              <path id="path955" d="M-19.965-59.9h1.585v-4.754h-1.585a1.585,1.585,0,0,0-1.585,1.585v1.585A1.585,1.585,0,0,0-19.965-59.9" transform="translate(21.549 64.651)" fill="#f6a96c"/>
            </g>
            <g id="g957" transform="translate(18.649 25.894)">
              <path id="path959" d="M-41.351,0l-3.282,2.986,1.985,4.071a.792.792,0,0,0,1.265.221l3.2-3.117-3.17-1.981Z" transform="translate(44.633)" fill="#b2e5fb"/>
            </g>
            <g id="g961" transform="translate(25.101 25.894)">
              <path id="path963" d="M-39.93,0l3.282,2.986-1.985,4.071a.792.792,0,0,1-1.265.221L-43.1,4.16l3.17-1.981Z" transform="translate(43.1)" fill="#b2e5fb"/>
            </g>
            <g id="g965" transform="translate(17.926 35.116)">
              <path id="path967" d="M-180.794-90.4a7.175,7.175,0,0,1-7.175,7.175,7.175,7.175,0,0,1-7.175-7.175,7.175,7.175,0,0,1,7.175-7.175,7.175,7.175,0,0,1,7.175,7.175" transform="translate(195.145 97.573)" fill="#f7e365"/>
            </g>
            <g id="g969" transform="translate(19.213 36.403)">
              <path id="path971" d="M-125.817,0a7.14,7.14,0,0,1,1.287,4.1,7.175,7.175,0,0,1-7.175,7.175,7.141,7.141,0,0,1-4.1-1.287,7.166,7.166,0,0,0,5.888,3.077,7.175,7.175,0,0,0,7.175-7.175A7.165,7.165,0,0,0-125.817,0" transform="translate(135.804)" fill="#f3d332"/>
            </g>
            <g id="g973" transform="translate(21.093 38.145)">
              <path id="path975" d="M-46.656-88.619l-1.392.6a.769.769,0,0,1-1.07-.778l.141-1.509a.769.769,0,0,0-.188-.579l-1-1.138a.769.769,0,0,1,.409-1.258l1.479-.333a.769.769,0,0,0,.493-.358l.773-1.3a.769.769,0,0,1,1.323,0l.773,1.3a.769.769,0,0,0,.493.358l1.479.333a.769.769,0,0,1,.409,1.258l-1,1.138a.769.769,0,0,0-.188.579l.141,1.509a.769.769,0,0,1-1.07.778l-1.392-.6a.769.769,0,0,0-.609,0" transform="translate(50.359 95.653)" fill="#e69642"/>
            </g>
            <g id="g977" transform="translate(0.735 36.832)">
              <path id="path979" d="M0,0V2.311H9.509" fill="none" stroke="#000" stroke-linecap="round" stroke-linejoin="round" stroke-miterlimit="10" stroke-width="1"/>
            </g>
            <g id="g981" transform="translate(0.735 26.005)">
              <path id="path983" d="M0-93.165v-1.164a5.085,5.085,0,0,1,3.613-4.866l4.52-1.365" transform="translate(0 100.56)" fill="none" stroke="#000" stroke-linecap="round" stroke-linejoin="round" stroke-miterlimit="10" stroke-width="1"/>
            </g>
            <g id="g985" transform="translate(12.936 26.005)">
              <path id="path987" d="M0,0,4.521,1.365a5.068,5.068,0,0,1,1.79.966" fill="none" stroke="#000" stroke-linecap="round" stroke-linejoin="round" stroke-miterlimit="10" stroke-width="1"/>
            </g>
            <g id="g989" transform="translate(8.869 23.626)">
              <path id="path991" d="M0-.094V2.278a2.033,2.033,0,0,0,4.067,0V-.1" transform="translate(0 0.101)" fill="none" stroke="#000" stroke-linecap="round" stroke-linejoin="round" stroke-miterlimit="10" stroke-width="1"/>
            </g>
            <g id="g993" transform="translate(5.819 10.598)">
              <path id="path995" d="M-128.09-64.038v3.132a5.133,5.133,0,0,1-5.016,5.158,5.083,5.083,0,0,1-5.151-5.083v-3.208a5.083,5.083,0,0,1,5.084-5.083A5.083,5.083,0,0,1-128.09-64.038Z" transform="translate(138.257 69.121)" fill="none" stroke="#000" stroke-linecap="round" stroke-linejoin="round" stroke-miterlimit="10" stroke-width="1"/>
            </g>
            <g id="g997" transform="translate(5.552 35.974)">
              <path id="path999" d="M0-39.93V-43.1" transform="translate(0 43.1)" fill="none" stroke="#000" stroke-linecap="round" stroke-linejoin="round" stroke-miterlimit="10" stroke-width="1"/>
            </g>
            <g id="g1001" transform="translate(39.958 36.818)">
              <path id="path1003" d="M-119.8,0V2.325h-9.509" transform="translate(129.306)" fill="none" stroke="#000" stroke-linecap="round" stroke-linejoin="round" stroke-miterlimit="10" stroke-width="1"/>
            </g>
            <g id="g1005" transform="translate(41.334 26.005)">
              <path id="path1007" d="M0,0,4.52,1.365A5.085,5.085,0,0,1,8.133,6.231v1.15" fill="none" stroke="#000" stroke-linecap="round" stroke-linejoin="round" stroke-miterlimit="10" stroke-width="1"/>
            </g>
            <g id="g1009" transform="translate(30.956 26.005)">
              <path id="path1011" d="M0-29.361a5.068,5.068,0,0,1,1.79-.966L6.31-31.692" transform="translate(0 31.692)" fill="none" stroke="#000" stroke-linecap="round" stroke-linejoin="round" stroke-miterlimit="10" stroke-width="1"/>
            </g>
            <g id="g1013" transform="translate(37.266 23.626)">
              <path id="path1015" d="M-51.237-.094V2.278A2.033,2.033,0,0,1-53.27,4.311,2.033,2.033,0,0,1-55.3,2.278V-.1" transform="translate(55.304 0.101)" fill="none" stroke="#000" stroke-linecap="round" stroke-linejoin="round" stroke-miterlimit="10" stroke-width="1"/>
            </g>
            <g id="g1017" transform="translate(34.216 10.598)">
              <path id="path1019" d="M0-64.038v3.132a5.133,5.133,0,0,0,5.016,5.158,5.083,5.083,0,0,0,5.151-5.083v-3.208a5.083,5.083,0,0,0-5.084-5.083A5.083,5.083,0,0,0,0-64.038Z" transform="translate(0 69.121)" fill="none" stroke="#000" stroke-linecap="round" stroke-linejoin="round" stroke-miterlimit="10" stroke-width="1"/>
            </g>
            <g id="g1021" transform="translate(44.651 35.974)">
              <path id="path1023" d="M0-39.93V-43.1" transform="translate(0 43.1)" fill="none" stroke="#000" stroke-linecap="round" stroke-linejoin="round" stroke-miterlimit="10" stroke-width="1"/>
            </g>
            <g id="g1025" transform="translate(22.761 32.331)">
              <path id="path1027" d="M0,0,1.186,2.785H3.493L4.679,0" fill="none" stroke="#000" stroke-linecap="round" stroke-linejoin="round" stroke-miterlimit="10" stroke-width="1"/>
            </g>
            <g id="g1029" transform="translate(10.244 28.879)">
              <path id="path1031" d="M-99.105-189.492h-7.867v-8.316a5.942,5.942,0,0,1,4.524-5.771l3.881-.954" transform="translate(106.972 204.533)" fill="none" stroke="#000" stroke-linecap="round" stroke-linejoin="round" stroke-miterlimit="10" stroke-width="1"/>
            </g>
            <g id="g1033" transform="translate(31.553 28.879)">
              <path id="path1035" d="M0,0,3.881.954A5.942,5.942,0,0,1,8.4,6.725v8.316H.538" fill="none" stroke="#000" stroke-linecap="round" stroke-linejoin="round" stroke-miterlimit="10" stroke-width="1"/>
            </g>
            <g id="g1037" transform="translate(21.932 22.823)">
              <path id="path1039" d="M0,0V3.07" fill="none" stroke="#000" stroke-linecap="round" stroke-linejoin="round" stroke-miterlimit="10" stroke-width="1"/>
            </g>
            <g id="g1041" transform="translate(28.271 22.823)">
              <path id="path1043" d="M0-38.683v-3.07" transform="translate(0 41.753)" fill="none" stroke="#000" stroke-linecap="round" stroke-linejoin="round" stroke-miterlimit="10" stroke-width="1"/>
            </g>
            <g id="g1045" transform="translate(19.158 10.338)">
              <path id="path1047" d="M0-61.2l.807-1.273a2.377,2.377,0,0,1,2.008-1.1H5.065a4.755,4.755,0,0,0,3.781-1.872l.464-.609a3.676,3.676,0,0,0,.833,1.45,5.008,5.008,0,0,0,1.742,1.031" transform="translate(0 66.063)" fill="none" stroke="#000" stroke-linecap="round" stroke-linejoin="round" stroke-miterlimit="10" stroke-width="1"/>
            </g>
            <g id="g1049" transform="translate(15.989 0.735)">
              <path id="path1051" d="M-229.6-172.2v-4.556a9.112,9.112,0,0,0-9.112-9.112,9.112,9.112,0,0,0-9.112,9.112v4.556" transform="translate(247.825 185.869)" fill="none" stroke="#000" stroke-linecap="round" stroke-linejoin="round" stroke-miterlimit="10" stroke-width="1"/>
            </g>
            <g id="g1053" transform="translate(31.044 12.819)">
              <path id="path1055" d="M0-59.9H1.585A1.585,1.585,0,0,0,3.17-61.481v-1.585a1.585,1.585,0,0,0-1.585-1.585H0" transform="translate(0 64.651)" fill="none" stroke="#000" stroke-linecap="round" stroke-linejoin="round" stroke-miterlimit="10" stroke-width="1"/>
            </g>
            <g id="g1057" transform="translate(15.989 12.819)">
              <path id="path1059" d="M-39.93-59.9h-1.585A1.585,1.585,0,0,1-43.1-61.481v-1.585a1.585,1.585,0,0,1,1.585-1.585h1.585" transform="translate(43.1 64.651)" fill="none" stroke="#000" stroke-linecap="round" stroke-linejoin="round" stroke-miterlimit="10" stroke-width="1"/>
            </g>
            <g id="g1061" transform="translate(19.158 12.819)">
              <path id="path1063" d="M0,0V4.952a5.943,5.943,0,1,0,11.886,0V0" fill="none" stroke="#000" stroke-linecap="round" stroke-linejoin="round" stroke-miterlimit="10" stroke-width="1"/>
            </g>
            <g id="g1065" transform="translate(18.649 25.894)">
              <path id="path1067" d="M-41.351,0l-3.282,2.986,1.985,4.071a.792.792,0,0,0,1.265.221l3.2-3.117-3.17-1.981Z" transform="translate(44.633)" fill="none" stroke="#000" stroke-linecap="round" stroke-linejoin="round" stroke-miterlimit="10" stroke-width="1"/>
            </g>
            <g id="g1069" transform="translate(25.101 25.894)">
              <path id="path1071" d="M-39.93,0l3.282,2.986-1.985,4.071a.792.792,0,0,1-1.265.221L-43.1,4.16l3.17-1.981Z" transform="translate(43.1)" fill="none" stroke="#000" stroke-linecap="round" stroke-linejoin="round" stroke-miterlimit="10" stroke-width="1"/>
            </g>
            <g id="g1073" transform="translate(28.469 8.599)">
              <path id="path1075" d="M0-21.915l1.176-1.74" transform="translate(0 23.655)" fill="none" stroke="#000" stroke-linecap="round" stroke-linejoin="round" stroke-miterlimit="10" stroke-width="1"/>
            </g>
            <g id="g1077" transform="translate(35.303 40.11)">
              <path id="path1079" d="M0-48.007v-3.17l.641-.641" transform="translate(0 51.817)" fill="none" stroke="#000" stroke-linecap="round" stroke-linejoin="round" stroke-miterlimit="10" stroke-width="1"/>
            </g>
            <g id="g1081" transform="translate(14.258 40.11)">
              <path id="path1083" d="M-8.076-48.007v-3.17l-.641-.641" transform="translate(8.717 51.817)" fill="none" stroke="#000" stroke-linecap="round" stroke-linejoin="round" stroke-miterlimit="10" stroke-width="1"/>
            </g>
            <g id="g1085" transform="translate(17.926 35.116)">
              <path id="path1087" d="M-164-37.9a7.143,7.143,0,0,1,1.333,4.167,7.175,7.175,0,0,1-7.175,7.175,7.175,7.175,0,0,1-7.175-7.175,7.175,7.175,0,0,1,7.175-7.175,7.16,7.16,0,0,1,3.262.781" transform="translate(177.013 40.907)" fill="none" stroke="#000" stroke-linecap="round" stroke-linejoin="round" stroke-miterlimit="10" stroke-width="1"/>
            </g>
            <g id="g1089" transform="translate(21.093 38.145)">
              <path id="path1091" d="M-46.656-88.619l-1.392.6a.769.769,0,0,1-1.07-.778l.141-1.509a.769.769,0,0,0-.188-.579l-1-1.138a.769.769,0,0,1,.409-1.258l1.479-.333a.769.769,0,0,0,.493-.358l.773-1.3a.769.769,0,0,1,1.323,0l.773,1.3a.769.769,0,0,0,.493.358l1.479.333a.769.769,0,0,1,.409,1.258l-1,1.138a.769.769,0,0,0-.188.579l.141,1.509a.769.769,0,0,1-1.07.778l-1.392-.6A.769.769,0,0,0-46.656-88.619Z" transform="translate(50.359 95.653)" fill="none" stroke="#000" stroke-linecap="round" stroke-linejoin="round" stroke-miterlimit="10" stroke-width="1"/>
            </g>
          </g>
        </g>
      </g>
      <g id="Elipse_4731" data-name="Elipse 4731" transform="translate(187.647 4750.594)" fill="none" stroke="#f9931f" stroke-width="4">
        <ellipse cx="6.563" cy="6.563" rx="6.563" ry="6.563" stroke="none"/>
        <ellipse cx="6.563" cy="6.563" rx="4.563" ry="4.563" fill="none"/>
      </g>
    </g>
  </g>
</svg>
