<svg xmlns="http://www.w3.org/2000/svg" xmlns:xlink="http://www.w3.org/1999/xlink" width="123" height="119.377" viewBox="0 0 123 119.377">
  <defs>
    <clipPath id="clip-path">
      <rect id="Rectángulo_34096" data-name="Rectángulo 34096" width="103.743" height="91.731" fill="none"/>
    </clipPath>
  </defs>
  <g id="Grupo_84392" data-name="Grupo 84392" transform="translate(-529 -567.675)">
    <g id="Grupo_80147" data-name="Grupo 80147" transform="translate(582.031 626.445) rotate(90)">
      <g id="Grupo_80123" data-name="Grupo 80123" transform="translate(34.23 26.655)">
        <path id="Trazado_113537" data-name="Trazado 113537" d="M24.331.351.351,24.331a1.2,1.2,0,0,0,0,1.694h0a1.2,1.2,0,0,0,1.695,0l23.98-23.98a1.2,1.2,0,0,0,0-1.694h0A1.2,1.2,0,0,0,24.331.351Z" fill="#ffc721"/>
      </g>
      <g id="Grupo_80124" data-name="Grupo 80124" transform="translate(45.997 38.422)">
        <path id="Trazado_113538" data-name="Trazado 113538" d="M9.353.351l-9,9a1.2,1.2,0,0,0,0,1.694h0a1.2,1.2,0,0,0,1.694,0l9-9a1.2,1.2,0,0,0,0-1.694h0A1.2,1.2,0,0,0,9.353.351Z" fill="#ffc721"/>
      </g>
      <g id="Grupo_80125" data-name="Grupo 80125" transform="translate(25.673 18.098)">
        <path id="Trazado_113539" data-name="Trazado 113539" d="M32.887.351.351,32.887a1.2,1.2,0,0,0,0,1.694h0a1.2,1.2,0,0,0,1.694,0L34.582,2.045a1.2,1.2,0,0,0,0-1.694h0A1.2,1.2,0,0,0,32.887.351Z" fill="#ffc721"/>
      </g>
      <g id="Grupo_80126" data-name="Grupo 80126" transform="translate(18.902 11.328)">
        <path id="Trazado_113540" data-name="Trazado 113540" d="M37.873.351.351,37.873a1.2,1.2,0,0,0,0,1.694h0a1.2,1.2,0,0,0,1.694,0L39.568,2.045a1.2,1.2,0,0,0,0-1.694h0A1.2,1.2,0,0,0,37.873.351Z" fill="#ffc721"/>
      </g>
      <g id="Grupo_80127" data-name="Grupo 80127" transform="translate(13.275 5.7)">
        <path id="Trazado_113541" data-name="Trazado 113541" d="M40.573.351.351,40.572a1.2,1.2,0,0,0,0,1.695h0a1.2,1.2,0,0,0,1.694,0L42.267,2.045a1.2,1.2,0,0,0,0-1.694h0A1.2,1.2,0,0,0,40.573.351Z" fill="#ffc721"/>
      </g>
      <g id="Grupo_80128" data-name="Grupo 80128" transform="translate(8.561 0.986)">
        <path id="Trazado_113542" data-name="Trazado 113542" d="M41.438.351.351,41.437a1.2,1.2,0,0,0,0,1.695h0a1.2,1.2,0,0,0,1.695,0L43.132,2.045a1.2,1.2,0,0,0,0-1.694h0A1.2,1.2,0,0,0,41.438.351Z" fill="#ffc721"/>
      </g>
      <g id="Grupo_80129" data-name="Grupo 80129" transform="translate(4.711 0)">
        <path id="Trazado_113543" data-name="Trazado 113543" d="M41.453,0H38.064L.354,37.709A1.2,1.2,0,0,0,1.2,39.758a1.208,1.208,0,0,0,.842-.352Z" fill="#ffc721"/>
      </g>
      <g id="Grupo_80130" data-name="Grupo 80130" transform="translate(1.782 0)">
        <path id="Trazado_113544" data-name="Trazado 113544" d="M35.823,0H32.436L.35,32.085A1.2,1.2,0,0,0,1.2,34.128a1.178,1.178,0,0,0,.848-.351Z" fill="#ffc721"/>
      </g>
      <g id="Grupo_80131" data-name="Grupo 80131" transform="translate(0 0)">
        <path id="Trazado_113545" data-name="Trazado 113545" d="M29.048,0H25.66L.35,25.309A1.2,1.2,0,0,0,1.2,27.358a1.209,1.209,0,0,0,.842-.351Z" fill="#ffc721"/>
      </g>
      <g id="Grupo_80132" data-name="Grupo 80132">
        <path id="Trazado_113546" data-name="Trazado 113546" d="M20.49,0H17.108L.35,16.758A1.2,1.2,0,0,0,1.2,18.8a1.209,1.209,0,0,0,.842-.351Z" fill="#ffc721"/>
      </g>
      <g id="Grupo_80133" data-name="Grupo 80133" transform="translate(3.207 0)">
        <path id="Trazado_113547" data-name="Trazado 113547" d="M8.724,0H5.343L.354,4.988A1.2,1.2,0,0,0,1.2,7.03a1.184,1.184,0,0,0,.843-.351Z" fill="#ffc721"/>
      </g>
    </g>
    <g id="Elipse_4718" data-name="Elipse 4718" transform="translate(607.999 567.675)" fill="none" stroke="#9aeccd" stroke-width="10">
      <circle cx="22" cy="22" r="22" stroke="none"/>
      <circle cx="22" cy="22" r="17" fill="none"/>
    </g>
    <g id="Grupo_84218" data-name="Grupo 84218" transform="translate(537.693 579.952)">
      <g id="Grupo_84217" data-name="Grupo 84217" clip-path="url(#clip-path)">
        <path id="Trazado_115304" data-name="Trazado 115304" d="M45.713,3.555.963,81.065A7.111,7.111,0,0,0,7.121,91.731h89.5a7.109,7.109,0,0,0,6.158-10.666L58.029,3.555a7.111,7.111,0,0,0-12.317,0" transform="translate(0 0)" fill="#ffc207"/>
        <path id="Trazado_115305" data-name="Trazado 115305" d="M55.892,7.721a2.5,2.5,0,0,0-4.326,0L6.816,85.23a2.5,2.5,0,0,0,2.163,3.747h89.5a2.438,2.438,0,0,0,1.921-.9,2.467,2.467,0,0,0,.242-2.849Z" transform="translate(-1.858 -1.859)" fill="#f2d820"/>
        <path id="Trazado_115306" data-name="Trazado 115306" d="M6.875,87.82,51.566,10.413a2.5,2.5,0,0,1,4.326,0l44.693,77.41a2.442,2.442,0,0,0,.057-2.592L55.892,7.721a2.5,2.5,0,0,0-4.326,0L6.816,85.23a2.417,2.417,0,0,0,0,2.5c.016.029.039.061.058.092" transform="translate(-1.858 -1.859)" fill="#ef8f1d"/>
        <path id="Trazado_115307" data-name="Trazado 115307" d="M97.242,90.812H7.741a5.573,5.573,0,0,1-4.826-8.36L47.665,4.944a5.574,5.574,0,0,1,9.654,0l44.75,77.509a5.547,5.547,0,0,1-.527,6.336,5.461,5.461,0,0,1-4.3,2.024M52.492,3.694A4,4,0,0,0,49,5.712L4.248,83.222a4.036,4.036,0,0,0,3.494,6.053h89.5a3.951,3.951,0,0,0,3.11-1.461,4.021,4.021,0,0,0,.384-4.592L55.987,5.712a4,4,0,0,0-3.495-2.018" transform="translate(-0.62 -0.62)" fill="#2a3035"/>
        <path id="Trazado_115308" data-name="Trazado 115308" d="M73.59,99.906H66.655a3.115,3.115,0,0,0-3.116,3.116v6.935a3.117,3.117,0,0,0,3.116,3.115H73.59a3.117,3.117,0,0,0,3.116-3.115v-6.935a3.116,3.116,0,0,0-3.116-3.116" transform="translate(-18.251 -28.697)" fill="#f2d820"/>
        <path id="Trazado_115309" data-name="Trazado 115309" d="M64.36,76.6h0a3.113,3.113,0,0,0,2.068.785H72.86a3.1,3.1,0,0,0,3.114-3.009l1.438-41.632A3.115,3.115,0,0,0,74.3,29.519H64.991a3.114,3.114,0,0,0-3.113,3.224l1.439,41.63A3.124,3.124,0,0,0,64.36,76.6" transform="translate(-17.773 -8.479)" fill="#f2d820"/>
        <path id="Trazado_115310" data-name="Trazado 115310" d="M65.472,74.94,64.033,33.309a1.579,1.579,0,0,1,1.577-1.633h9.309A1.578,1.578,0,0,1,76.5,33.309L75.057,74.94a1.578,1.578,0,0,1-1.577,1.523H67.049a1.578,1.578,0,0,1-1.577-1.523m1.325,17h6.935a1.578,1.578,0,0,0,1.578-1.578V83.424a1.577,1.577,0,0,0-1.578-1.578H66.8a1.576,1.576,0,0,0-1.578,1.578v6.935A1.578,1.578,0,0,0,66.8,91.937" transform="translate(-18.392 -9.099)"/>
      </g>
    </g>
  </g>
</svg>
