<svg xmlns="http://www.w3.org/2000/svg" width="65" height="65" viewBox="0 0 65 65">
  <g id="Grupo_83549" data-name="Grupo 83549" transform="translate(-180 -4703)">
    <rect id="Rectángulo_33792" data-name="Rectángulo 33792" width="65" height="65" rx="5" transform="translate(180 4703)" fill="#465fc4"/>
    <g id="Grupo_80313" data-name="Grupo 80313" transform="translate(185.692 4713.843)">
      <g id="Grupo_80111" data-name="Grupo 80111" transform="translate(24.464)">
        <path id="Trazado_113526" data-name="Trazado 113526" d="M289.532,1037.3l-17.138-17.138a.856.856,0,0,1,0-1.21h0a.856.856,0,0,1,1.211,0l17.138,17.138a.856.856,0,0,1,0,1.211h0A.857.857,0,0,1,289.532,1037.3Z" transform="translate(-272.143 -1018.7)" fill="#ffc721"/>
      </g>
      <g id="Grupo_80112" data-name="Grupo 80112" transform="translate(32.873 2.294)">
        <path id="Trazado_113527" data-name="Trazado 113527" d="M343.678,1044.286l-6.434-6.434a.857.857,0,0,1,0-1.211h0a.856.856,0,0,1,1.211,0l6.433,6.433a.856.856,0,0,1,0,1.211h0A.856.856,0,0,1,343.678,1044.286Z" transform="translate(-336.993 -1036.39)" fill="#ffc721"/>
      </g>
      <g id="Grupo_80113" data-name="Grupo 80113" transform="translate(18.349)">
        <path id="Trazado_113528" data-name="Trazado 113528" d="M248.493,1043.414l-23.253-23.253a.855.855,0,0,1,0-1.21h0a.856.856,0,0,1,1.211,0L249.7,1042.2a.856.856,0,0,1,0,1.211h0A.856.856,0,0,1,248.493,1043.414Z" transform="translate(-224.989 -1018.7)" fill="#ffc721"/>
      </g>
      <g id="Grupo_80114" data-name="Grupo 80114" transform="translate(13.51 1.276)">
        <path id="Trazado_113529" data-name="Trazado 113529" d="M214.741,1056.815,187.926,1030a.856.856,0,0,1,0-1.211h0a.855.855,0,0,1,1.211,0l26.816,26.816a.856.856,0,0,1,0,1.211h0A.856.856,0,0,1,214.741,1056.815Z" transform="translate(-187.675 -1028.537)" fill="#ffc721"/>
      </g>
      <g id="Grupo_80115" data-name="Grupo 80115" transform="translate(9.488 3.369)">
        <path id="Trazado_113530" data-name="Trazado 113530" d="M185.658,1074.883l-28.744-28.744a.856.856,0,0,1,0-1.211h0a.856.856,0,0,1,1.211,0l28.745,28.745a.856.856,0,0,1,0,1.211h0A.856.856,0,0,1,185.658,1074.883Z" transform="translate(-156.663 -1044.677)" fill="#ffc721"/>
      </g>
      <g id="Grupo_80116" data-name="Grupo 80116" transform="translate(6.119 6.119)">
        <path id="Trazado_113531" data-name="Trazado 113531" d="M160.3,1096.71l-29.363-29.363a.857.857,0,0,1,0-1.211h0a.857.857,0,0,1,1.211,0l29.363,29.364a.857.857,0,0,1,0,1.211h0A.857.857,0,0,1,160.3,1096.71Z" transform="translate(-130.686 -1065.885)" fill="#ffc721"/>
      </g>
      <g id="Grupo_80117" data-name="Grupo 80117" transform="translate(3.369 9.488)">
        <path id="Trazado_113532" data-name="Trazado 113532" d="M138.474,1122.069l-28.745-28.745a.856.856,0,0,1,0-1.21h0a.856.856,0,0,1,1.211,0l28.744,28.744a.856.856,0,0,1,0,1.211h0A.856.856,0,0,1,138.474,1122.069Z" transform="translate(-109.478 -1091.863)" fill="#ffc721"/>
      </g>
      <g id="Grupo_80118" data-name="Grupo 80118" transform="translate(1.276 13.51)">
        <path id="Trazado_113533" data-name="Trazado 113533" d="M120.4,1151.153l-26.816-26.816a.856.856,0,0,1,0-1.211h0a.855.855,0,0,1,1.211,0l26.816,26.816a.856.856,0,0,1,0,1.211h0A.855.855,0,0,1,120.4,1151.153Z" transform="translate(-93.336 -1122.875)" fill="#ffc721"/>
      </g>
      <g id="Grupo_80119" data-name="Grupo 80119" transform="translate(0 18.349)">
        <path id="Trazado_113534" data-name="Trazado 113534" d="M107,1184.9,83.75,1161.651a.855.855,0,0,1,0-1.211h0a.855.855,0,0,1,1.211,0l23.253,23.253a.855.855,0,0,1,0,1.211h0A.856.856,0,0,1,107,1184.9Z" transform="translate(-83.499 -1160.189)" fill="#ffc721"/>
      </g>
      <g id="Grupo_80120" data-name="Grupo 80120" transform="translate(0 24.464)">
        <path id="Trazado_113535" data-name="Trazado 113535" d="M100.888,1225.943,83.75,1208.8a.856.856,0,0,1,0-1.211h0a.856.856,0,0,1,1.211,0l17.138,17.138a.857.857,0,0,1,0,1.211h0A.856.856,0,0,1,100.888,1225.943Z" transform="translate(-83.499 -1207.343)" fill="#ffc721"/>
      </g>
      <g id="Grupo_80121" data-name="Grupo 80121" transform="translate(2.294 32.873)">
        <path id="Trazado_113536" data-name="Trazado 113536" d="M107.875,1280.088l-6.433-6.434a.856.856,0,0,1,0-1.211h0a.857.857,0,0,1,1.211,0l6.434,6.434a.856.856,0,0,1,0,1.211h0A.856.856,0,0,1,107.875,1280.088Z" transform="translate(-101.191 -1272.193)" fill="#ffc721"/>
      </g>
    </g>
    <g id="capacitacion_2_" data-name="capacitacion (2)" transform="translate(188 4710.131)">
      <rect id="Rectángulo_344187" data-name="Rectángulo 344187" width="9" height="11" rx="4.5" transform="translate(40 21.737)" fill="#5a5b5d"/>
      <path id="Trazado_625281" data-name="Trazado 625281" d="M50.071,33H55.5v3.144l2.254,2.817A4.717,4.717,0,0,1,50,35.358V33.786A4.717,4.717,0,0,1,50.071,33Z" transform="translate(-10.482 -6.845)" fill="#a55e21"/>
      <path id="Trazado_625282" data-name="Trazado 625282" d="M50,46.717a4.717,4.717,0,0,1,9.433,0V57.722H50Z" transform="translate(-10.482 -8.77)" fill="#e2a02c"/>
      <path id="Trazado_625283" data-name="Trazado 625283" d="M50,46.887a4.834,4.834,0,0,1,4.217-4.861,4.688,4.688,0,0,1,2.951.667,4.691,4.691,0,0,1,.693,2.452v3.144A7.861,7.861,0,0,1,50,56.149Z" transform="translate(-10.482 -8.77)" fill="#fcc533"/>
      <path id="Trazado_625284" data-name="Trazado 625284" d="M11.433,46.717a4.717,4.717,0,0,0-9.433,0V57.722h9.433Z" transform="translate(-0.214 -8.77)" fill="#307cbd"/>
      <path id="Trazado_625285" data-name="Trazado 625285" d="M11.861,46.887a4.834,4.834,0,0,0-4.217-4.861,4.688,4.688,0,0,0-2.951.667A4.691,4.691,0,0,0,4,45.144v3.144a7.861,7.861,0,0,0,7.861,7.861Z" transform="translate(-0.642 -8.77)" fill="#77addb"/>
      <path id="Trazado_625286" data-name="Trazado 625286" d="M42.871,57.294H13L17.717,40H38.155Z" transform="translate(-2.567 -8.343)" fill="#c2c3c5"/>
      <path id="Trazado_625287" data-name="Trazado 625287" d="M19.288,40,15,55.722H42.871L38.583,40Z" transform="translate(-2.995 -8.343)" fill="#dcdddf"/>
      <path id="Trazado_625288" data-name="Trazado 625288" d="M2,2H36.588V25.583H2Z" transform="translate(-0.214 -0.214)" fill="#c2c3c5"/>
      <path id="Trazado_625289" data-name="Trazado 625289" d="M4,4H35.443V24.438H4Z" transform="translate(-0.642 -0.642)" fill="#fcfcfc"/>
      <path id="Trazado_625290" data-name="Trazado 625290" d="M25,13.287V9.93A3.93,3.93,0,0,1,28.93,6h3.93a1.572,1.572,0,0,1,1.572,1.572,1.572,1.572,0,0,1,1.572,1.572v4.143Z" transform="translate(-5.134 -1.07)" fill="#d6902b"/>
      <path id="Trazado_625291" data-name="Trazado 625291" d="M36.433,9.144a1.572,1.572,0,0,0-1.572-1.572A1.572,1.572,0,0,0,33.289,6h-3.93a3.875,3.875,0,0,0-1.268.228A3.906,3.906,0,0,0,27,8.931a3.357,3.357,0,0,0,3.357,3.357h6.076Z" transform="translate(-5.562 -1.07)" fill="#e2a02c"/>
      <path id="Trazado_625292" data-name="Trazado 625292" d="M36.369,34.866V27.791a4.9,4.9,0,0,0-3.837-4.783l-3.238-.719h-5.5a4.136,4.136,0,0,1-2.751-1.045l-5.267-4.683A2.225,2.225,0,0,0,14.3,16h-.079a2.223,2.223,0,0,0-1.569,3.8l8.782,8.782v6.289Z" transform="translate(-2.353 -3.209)" fill="#6eab50"/>
      <path id="Trazado_625293" data-name="Trazado 625293" d="M32.959,23.045l-3.238-.719h-5.5a4.136,4.136,0,0,1-2.751-1.045L16.2,16.6a2.22,2.22,0,0,0-.721-.425,2.215,2.215,0,0,0-.832,3.659l8.785,8.782V34.9H36.8V27.828a4.9,4.9,0,0,0-3.837-4.783Z" transform="translate(-2.78 -3.246)" fill="#79b856"/>
      <path id="Trazado_625294" data-name="Trazado 625294" d="M38,30h1.572v7.861H38Z" transform="translate(-7.915 -6.204)" fill="#649240"/>
      <path id="Trazado_625295" data-name="Trazado 625295" d="M5.458,13.182,4.2,12.238,8.917,5.95a.786.786,0,0,1,1.034-.2l3.4,2.044,3.5-3.5,1.112,1.112-3.93,3.93a.786.786,0,0,1-.961.118l-3.322-2Z" transform="translate(-0.685 -0.705)" fill="#dc4a4a"/>
      <path id="Trazado_625296" data-name="Trazado 625296" d="M31.572,25,30,31.289l1.572,2.358,1.572-2.358Z" transform="translate(-6.204 -5.134)" fill="#dcdddf"/>
      <rect id="Rectángulo_344188" data-name="Rectángulo 344188" width="9" height="11" rx="4.5" transform="translate(11 32.737) rotate(180)" fill="#5a5b5d"/>
      <path id="Trazado_625297" data-name="Trazado 625297" d="M0,0H4.717V2.358A2.358,2.358,0,1,1,0,2.358Z" transform="translate(8.861 41.09) rotate(180)" fill="#307cbd"/>
      <path id="Trazado_625298" data-name="Trazado 625298" d="M9.717,52a1.572,1.572,0,0,0,1.572,1.572h4.717a1.572,1.572,0,1,1,0,3.144H9.717A4.717,4.717,0,0,1,5,52" transform="translate(-0.856 -10.91)" fill="#fee2d6"/>
      <path id="Trazado_625299" data-name="Trazado 625299" d="M11.819,33H6.387v3.144L4.133,38.962a4.717,4.717,0,0,0,7.756-3.6V33.786A4.716,4.716,0,0,0,11.819,33Z" transform="translate(-0.67 -6.845)" fill="#fee2d6"/>
      <path id="Trazado_625300" data-name="Trazado 625300" d="M55.358,46a2.358,2.358,0,0,1,2.358,2.358v2.358H53V48.358A2.358,2.358,0,0,1,55.358,46Z" transform="translate(-11.124 -9.626)" fill="#e2a02c"/>
      <path id="Trazado_625301" data-name="Trazado 625301" d="M50.861,52a1.572,1.572,0,0,1-1.572,1.572H44.572a1.572,1.572,0,0,0,0,3.144h6.289A4.717,4.717,0,0,0,55.577,52" transform="translate(-8.984 -10.91)" fill="#a55e21"/>
      <g id="Grupo_989916" data-name="Grupo 989916" transform="translate(19.08 8.861)">
        <path id="Trazado_625302" data-name="Trazado 625302" d="M34.861,13.358v2.358a3.93,3.93,0,0,1-7.861,0V13.358h2.231A3.449,3.449,0,0,0,32.5,11Z" transform="translate(-24.642 -11)" fill="#e1b2ab"/>
        <path id="Trazado_625303" data-name="Trazado 625303" d="M26.358,15h-.786a1.572,1.572,0,0,0,0,3.144h1.114" transform="translate(-24 -11.856)" fill="#e1b2ab"/>
        <path id="Trazado_625304" data-name="Trazado 625304" d="M36.911,15H37.7a1.572,1.572,0,0,1,0,3.144H36.583" transform="translate(-26.692 -11.856)" fill="#e1b2ab"/>
        <path id="Trazado_625305" data-name="Trazado 625305" d="M29.3,21.21l.549,2.193,1.572.786L33,23.4l.549-2.193" transform="translate(-25.134 -13.184)" fill="#e1b2ab"/>
      </g>
      <path id="Trazado_625306" data-name="Trazado 625306" d="M29.6,22.384l.314,1.27,1.572.786,1.572-.786.314-1.27a3.93,3.93,0,0,1-3.779,0Z" transform="translate(-6.116 -4.574)" fill="#fee2d6"/>
      <path id="Trazado_625307" data-name="Trazado 625307" d="M29.231,14.358H27V15.93a3.93,3.93,0,0,0,7.861,0V14.358L32.5,12A3.449,3.449,0,0,1,29.231,14.358Z" transform="translate(-5.562 -2.353)" fill="#fee2d6"/>
      <path id="Trazado_625308" data-name="Trazado 625308" d="M15.772,16.561A2.225,2.225,0,0,0,14.3,16H14.22a2.223,2.223,0,0,0-1.572,3.8l.924.921,3.237-3.237Z" transform="translate(-2.352 -3.209)" fill="#fee2d6"/>
      <path id="Trazado_625309" data-name="Trazado 625309" d="M9.749,7.459l3.322,1.994a.786.786,0,0,0,.961-.118l3.93-3.93L16.85,4.293l-3.5,3.5L9.95,5.746a.786.786,0,0,0-1.034.2L4.2,12.238l1.258.943Z" transform="translate(-0.685 -0.704)"/>
      <path id="Trazado_625310" data-name="Trazado 625310" d="M44.235,21.438a5.509,5.509,0,0,0-5.5,5.5v1.572a5.5,5.5,0,0,0,2.683,4.717,5.5,5.5,0,0,0-2.683,4.717V40.2l-2.386-8.748a.786.786,0,0,0-.759-.579H34.8V26.155h1.572a.786.786,0,0,0,.786-.786V1.786A.786.786,0,0,0,36.374,1H1.786A.786.786,0,0,0,1,1.786V25.369a.773.773,0,0,0,.127.4A5.5,5.5,0,0,0,1,26.941v1.572A5.5,5.5,0,0,0,3.683,33.23,5.5,5.5,0,0,0,1,37.946V48.951a.786.786,0,0,0,.786.786H48.951a.786.786,0,0,0,.786-.786V37.946a5.5,5.5,0,0,0-2.683-4.717,5.5,5.5,0,0,0,2.683-4.717V26.941A5.509,5.509,0,0,0,44.235,21.438ZM42.518,41.876h3.21a3.938,3.938,0,0,1-3.852,3.144H35.588a.786.786,0,0,1,0-1.572H40.3a2.358,2.358,0,0,0,2.214-1.572ZM45.807,40.3H42.663V38.732a1.572,1.572,0,0,1,3.144,0ZM37.56,41.876H35.588a2.358,2.358,0,0,0,0,4.717h3.258l.429,1.572H11.462l.429-1.572H15.15a2.358,2.358,0,1,0,0-4.717H13.177l2.573-9.433H34.987ZM8.075,40.3H4.93V38.732a1.572,1.572,0,0,1,3.144,0Zm.145,1.572a2.358,2.358,0,0,0,2.214,1.572H15.15a.786.786,0,1,1,0,1.572H8.861a3.938,3.938,0,0,1-3.852-3.144Zm3.723-15.722h6.352v4.717H15.15a.786.786,0,0,0-.759.58L12.005,40.2V37.946a5.5,5.5,0,0,0-2.683-4.717,5.5,5.5,0,0,0,2.683-4.717V26.941a5.523,5.523,0,0,0-.063-.786Zm19.715,4.717V23.8H30.085v7.075H19.866v-5.5a.786.786,0,0,0-.23-.556l-7.305-7.305,2.157-2.157,3.681,3.272a4.918,4.918,0,0,0,3.269,1.243h2.173l.842.421-1.415,5.676a.786.786,0,0,0,.108.629l1.572,2.358a.786.786,0,0,0,1.308,0L27.6,26.593a.786.786,0,0,0,.108-.629l-1.415-5.676.759-.38,2.965.66a4.088,4.088,0,0,1,3.214,4.015v6.289Zm-20.8-14.84a1.428,1.428,0,0,1-.421-1.016,1.457,1.457,0,0,1,1.513-1.438,1.434,1.434,0,0,1,.954.363l.41.364L11.219,16.4Zm9.8-3.24v.786a4.717,4.717,0,0,0,.071.786h-.071a.786.786,0,1,1,0-1.572Zm.786-2.358a.786.786,0,0,0-.786.786V8.861A3.144,3.144,0,0,1,23.8,5.717h3.93a.786.786,0,0,1,.786.786.786.786,0,0,0,.786.786.786.786,0,0,1,.786.786v3.144a.786.786,0,0,0-.23-.556L27.5,8.305a.786.786,0,0,0-1.3.307,2.659,2.659,0,0,1-2.526,1.821Zm8.647,3.144v-.786a.786.786,0,1,1,0,1.572h-.071A4.716,4.716,0,0,0,30.085,13.577Zm-7.861-1.572h1.445a4.228,4.228,0,0,0,3.482-1.823l1.362,1.362v2.033a3.144,3.144,0,1,1-6.289,0Zm3.144,6.289a4.679,4.679,0,0,0,.985-.105l-.087.35-.9.449-.9-.449-.087-.35a4.68,4.68,0,0,0,.985.105Zm0,4.813.725,2.9-.725,1.09-.725-1.088ZM2.572,2.572H35.588v22.01H34.8a5.653,5.653,0,0,0-4.452-5.551l-2.45-.544.284-1.137a4.747,4.747,0,0,0,1.264-1.415h.638a2.35,2.35,0,0,0,1.572-4.1V8.075a2.365,2.365,0,0,0-1.674-2.258,2.363,2.363,0,0,0-2.257-1.673H23.8A4.721,4.721,0,0,0,19.08,8.861v2.971a2.35,2.35,0,0,0,1.572,4.1h.638a4.747,4.747,0,0,0,1.264,1.415l.236.943H21.438a3.344,3.344,0,0,1-2.225-.846l-5.267-4.683a3.056,3.056,0,0,0-2.076-.76,3.009,3.009,0,0,0-2.128,5.138l7.44,7.44H11.467A5.489,5.489,0,0,0,2.572,23.1Zm0,25.941V26.941A3.93,3.93,0,0,1,10.1,25.369H5.717a.786.786,0,0,0-.786.786v2.868L3.416,30.917a3.892,3.892,0,0,1-.843-2.4Zm2.044,3.424L6.334,29.79A.786.786,0,0,0,6.5,29.3V26.941h3.93v1.572a3.935,3.935,0,0,1-3.93,3.93,3.879,3.879,0,0,1-1.887-.506ZM2.572,37.946a3.93,3.93,0,0,1,7.861,0v3.93a.786.786,0,0,1-.786-.786V38.732a3.144,3.144,0,1,0-6.289,0V41.09a5.509,5.509,0,0,0,5.5,5.5h1.4l-.428,1.572H2.572Zm45.593,0V48.165H40.9l-.428-1.572h1.4a5.509,5.509,0,0,0,5.5-5.5V38.732a3.144,3.144,0,1,0-6.289,0V41.09a.786.786,0,0,1-.786.786v-3.93a3.93,3.93,0,0,1,7.861,0ZM40.3,28.513V26.941h3.93V29.3a.786.786,0,0,0,.172.491l1.718,2.147a3.878,3.878,0,0,1-1.891.506,3.935,3.935,0,0,1-3.93-3.93Zm7.861,0a3.892,3.892,0,0,1-.843,2.4l-1.515-1.894V26.155a.786.786,0,0,0-.786-.786H40.638a3.93,3.93,0,0,1,7.528,1.572Z" transform="translate(0)"/>
    </g>
    <g id="Elipse_4731" data-name="Elipse 4731" transform="translate(187.647 4750.594)" fill="none" stroke="#f9931f" stroke-width="4">
      <ellipse cx="6.563" cy="6.563" rx="6.563" ry="6.563" stroke="none"/>
      <ellipse cx="6.563" cy="6.563" rx="4.563" ry="4.563" fill="none"/>
    </g>
  </g>
</svg>
