<svg xmlns="http://www.w3.org/2000/svg" width="65" height="65" viewBox="0 0 65 65">
  <g id="Grupo_83549" data-name="Grupo 83549" transform="translate(-180 -4703)">
    <rect id="Rectángulo_33792" data-name="Rectángulo 33792" width="65" height="65" rx="5" transform="translate(180 4703)" fill="#465fc4"/>
    <g id="Grupo_989915" data-name="Grupo 989915" transform="translate(0.355 0.018)">
      <g id="Grupo_989914" data-name="Grupo 989914" transform="translate(189.645 4710.982)">
        <g id="Grupo_80111" data-name="Grupo 80111" transform="translate(24.464)">
          <path id="Trazado_113526" data-name="Trazado 113526" d="M289.532,1037.3l-17.138-17.138a.856.856,0,0,1,0-1.21h0a.856.856,0,0,1,1.211,0l17.138,17.138a.856.856,0,0,1,0,1.211h0A.857.857,0,0,1,289.532,1037.3Z" transform="translate(-272.143 -1018.7)" fill="#ffc721"/>
        </g>
        <g id="Grupo_80112" data-name="Grupo 80112" transform="translate(32.873 2.294)">
          <path id="Trazado_113527" data-name="Trazado 113527" d="M343.678,1044.286l-6.434-6.434a.857.857,0,0,1,0-1.211h0a.856.856,0,0,1,1.211,0l6.433,6.433a.856.856,0,0,1,0,1.211h0A.856.856,0,0,1,343.678,1044.286Z" transform="translate(-336.993 -1036.39)" fill="#ffc721"/>
        </g>
        <g id="Grupo_80113" data-name="Grupo 80113" transform="translate(18.349)">
          <path id="Trazado_113528" data-name="Trazado 113528" d="M248.493,1043.414l-23.253-23.253a.855.855,0,0,1,0-1.21h0a.856.856,0,0,1,1.211,0L249.7,1042.2a.856.856,0,0,1,0,1.211h0A.856.856,0,0,1,248.493,1043.414Z" transform="translate(-224.989 -1018.7)" fill="#ffc721"/>
        </g>
        <g id="Grupo_80114" data-name="Grupo 80114" transform="translate(13.51 1.276)">
          <path id="Trazado_113529" data-name="Trazado 113529" d="M214.741,1056.815,187.926,1030a.856.856,0,0,1,0-1.211h0a.855.855,0,0,1,1.211,0l26.816,26.816a.856.856,0,0,1,0,1.211h0A.856.856,0,0,1,214.741,1056.815Z" transform="translate(-187.675 -1028.537)" fill="#ffc721"/>
        </g>
        <g id="Grupo_80115" data-name="Grupo 80115" transform="translate(9.488 3.369)">
          <path id="Trazado_113530" data-name="Trazado 113530" d="M185.658,1074.883l-28.744-28.744a.856.856,0,0,1,0-1.211h0a.856.856,0,0,1,1.211,0l28.745,28.745a.856.856,0,0,1,0,1.211h0A.856.856,0,0,1,185.658,1074.883Z" transform="translate(-156.663 -1044.677)" fill="#ffc721"/>
        </g>
        <g id="Grupo_80116" data-name="Grupo 80116" transform="translate(6.119 6.119)">
          <path id="Trazado_113531" data-name="Trazado 113531" d="M160.3,1096.71l-29.363-29.363a.857.857,0,0,1,0-1.211h0a.857.857,0,0,1,1.211,0l29.363,29.364a.857.857,0,0,1,0,1.211h0A.857.857,0,0,1,160.3,1096.71Z" transform="translate(-130.686 -1065.885)" fill="#ffc721"/>
        </g>
        <g id="Grupo_80117" data-name="Grupo 80117" transform="translate(3.369 9.488)">
          <path id="Trazado_113532" data-name="Trazado 113532" d="M138.474,1122.069l-28.745-28.745a.856.856,0,0,1,0-1.21h0a.856.856,0,0,1,1.211,0l28.744,28.744a.856.856,0,0,1,0,1.211h0A.856.856,0,0,1,138.474,1122.069Z" transform="translate(-109.478 -1091.863)" fill="#ffc721"/>
        </g>
        <g id="Grupo_80118" data-name="Grupo 80118" transform="translate(1.276 13.51)">
          <path id="Trazado_113533" data-name="Trazado 113533" d="M120.4,1151.153l-26.816-26.816a.856.856,0,0,1,0-1.211h0a.855.855,0,0,1,1.211,0l26.816,26.816a.856.856,0,0,1,0,1.211h0A.855.855,0,0,1,120.4,1151.153Z" transform="translate(-93.336 -1122.875)" fill="#ffc721"/>
        </g>
        <g id="Grupo_80119" data-name="Grupo 80119" transform="translate(0 18.349)">
          <path id="Trazado_113534" data-name="Trazado 113534" d="M107,1184.9,83.75,1161.651a.855.855,0,0,1,0-1.211h0a.855.855,0,0,1,1.211,0l23.253,23.253a.855.855,0,0,1,0,1.211h0A.856.856,0,0,1,107,1184.9Z" transform="translate(-83.499 -1160.189)" fill="#ffc721"/>
        </g>
        <g id="Grupo_80120" data-name="Grupo 80120" transform="translate(0 24.464)">
          <path id="Trazado_113535" data-name="Trazado 113535" d="M100.888,1225.943,83.75,1208.8a.856.856,0,0,1,0-1.211h0a.856.856,0,0,1,1.211,0l17.138,17.138a.857.857,0,0,1,0,1.211h0A.856.856,0,0,1,100.888,1225.943Z" transform="translate(-83.499 -1207.343)" fill="#ffc721"/>
        </g>
        <g id="Grupo_80121" data-name="Grupo 80121" transform="translate(2.294 32.873)">
          <path id="Trazado_113536" data-name="Trazado 113536" d="M107.875,1280.088l-6.433-6.434a.856.856,0,0,1,0-1.211h0a.857.857,0,0,1,1.211,0l6.434,6.434a.856.856,0,0,1,0,1.211h0A.856.856,0,0,1,107.875,1280.088Z" transform="translate(-101.191 -1272.193)" fill="#ffc721"/>
        </g>
      </g>
      <g id="legislacion" transform="translate(174.241 4714.821)">
        <g id="Grupo_989913" data-name="Grupo 989913" transform="translate(21.23 0.645)">
          <path id="Trazado_625262" data-name="Trazado 625262" d="M31.626,7.5c-2.249,0-3.543,2.928-3.543,5.964,0,2.971.771,4.992,2.194,4.992h7.339V11.188c-2.1-2.722-3.265-3.688-5.99-3.688Z" transform="translate(-28.083 -7.5)" fill="#b2e5fb"/>
          <path id="Trazado_625263" data-name="Trazado 625263" d="M60.908,50.341H54.877a9.689,9.689,0,0,1,.508,3.236c0,2.63-.727,4.033-1.816,4.033h7.339Z" transform="translate(-51.375 -46.653)" fill="#d3effd"/>
          <path id="Trazado_625264" data-name="Trazado 625264" d="M89.394,37.652c0-9.105,4.226-15.393,4.226-23.282,0-3.99-1.1-6.226-3.775-6.87H64.058c2.912,0,3.738,4.019,3.738,6.87,0,8.234-4.226,14.521-4.226,23.282A24.394,24.394,0,0,0,66.412,48.56l26.234.861a21.752,21.752,0,0,1-3.252-11.769Z" transform="translate(-60.515 -7.5)" fill="#f5fcff"/>
          <path id="Trazado_625265" data-name="Trazado 625265" d="M124.65,14.37c0-2.851-.826-6.87-3.738-6.87h-.9c2.476,1.574,2.915,4.5,2.915,6.87,0,7.889-4.226,14.177-4.226,23.282q0,.15,0,.3l-7.417,7.417c2.748,0,4.21-.46,8-2.587a28.092,28.092,0,0,0,1.562,4.879.645.645,0,0,1-.593.9H96.58a13.977,13.977,0,0,0,1.1,1.722h26.685a23.348,23.348,0,0,1-3.94-12.63C120.423,28.891,124.65,22.6,124.65,14.37Z" transform="translate(-90.684 -7.5)" fill="#d3effd"/>
          <path id="Trazado_625266" data-name="Trazado 625266" d="M269.195,393.3c-2.483,3-2.95,4.354-2.645,4.659l0,0,4.656-3.652Z" transform="translate(-245.947 -360.091)" fill="#fff0af"/>
          <path id="Trazado_625267" data-name="Trazado 625267" d="M267.465,408.69c.311.3,1.665-.173,4.656-2.648v-1h-1Z" transform="translate(-246.859 -370.818)" fill="#ffe07d"/>
          <path id="Trazado_625268" data-name="Trazado 625268" d="M312.837,240.466c-.37-.371-.846-.638-1.125-.5-.892.443-5.534,4.718-8.293,7.477-2.341,2.341-4.048,4.214-5.268,5.688l1.01,1.01h1Z" transform="translate(-274.903 -219.922)" fill="#e9a761"/>
          <path id="Trazado_625269" data-name="Trazado 625269" d="M309.889,259.844l1,1c1.475-1.22,3.347-2.927,5.688-5.268,2.759-2.759,7.034-7.4,7.477-8.293.138-.278-.126-.75-.494-1.119Z" transform="translate(-285.631 -225.623)" fill="#e38523"/>
        </g>
        <g id="Grupo_989914-2" data-name="Grupo 989914" transform="translate(20.584 -0.001)">
          <path id="Trazado_625270" data-name="Trazado 625270" d="M24.334,32.279a.646.646,0,0,0,.615-.675c-.013-.272-.019-.543-.019-.807a41.892,41.892,0,0,1,2.138-11.833A40.883,40.883,0,0,0,29.156,7.515a13.011,13.011,0,0,0-.827-4.754A5.7,5.7,0,0,0,27.46,1.29h9.614a.646.646,0,1,0,0-1.291h-12.3A3.667,3.667,0,0,0,21.59,2.18a9.443,9.443,0,0,0-1.006,4.429c0,3.53,1.061,5.638,2.839,5.638h4a65.374,65.374,0,0,1-1.593,6.362A42.914,42.914,0,0,0,23.638,30.8c0,.283.007.575.021.867a.645.645,0,0,0,.644.615ZM21.875,6.608c0-2.614,1.084-5.318,2.9-5.318,1.339,0,2.1,1.11,2.53,2.4H24.732a.646.646,0,0,0-.608.864,9.056,9.056,0,0,1,.47,3.018c0,2.34-.588,3.387-1.171,3.387C22.5,10.955,21.875,9.208,21.875,6.608Zm3.4,4.347a7.53,7.53,0,0,0,.61-3.387,11.093,11.093,0,0,0-.29-2.59h2.034a14.905,14.905,0,0,1,.236,2.537,25.3,25.3,0,0,1-.241,3.441Z" transform="translate(-20.584 0.001)"/>
          <path id="Trazado_625271" data-name="Trazado 625271" d="M235.294,1.291h11.8c1.036,0,1.81.644,2.366,1.97a11.554,11.554,0,0,1,.727,4.255c0,3.963-.991,7.427-2.039,11.094-.363,1.269-.738,2.581-1.067,3.911a.646.646,0,1,0,1.253.31c.323-1.307.7-2.608,1.055-3.866a40.883,40.883,0,0,0,2.089-11.449,13.011,13.011,0,0,0-.827-4.754C249.695.479,248.189,0,247.095,0h-11.8a.646.646,0,0,0,0,1.291Z" transform="translate(-216.221 0)"/>
          <path id="Trazado_625272" data-name="Trazado 625272" d="M204.908,41.291a.646.646,0,0,0,0-1.291H193.994a.646.646,0,1,0,0,1.291Z" transform="translate(-178.476 -36.557)"/>
          <path id="Trazado_625273" data-name="Trazado 625273" d="M195.537,80.454a.646.646,0,0,0-.646-.646H178.813a.646.646,0,0,0,0,1.291h16.079A.646.646,0,0,0,195.537,80.454Z" transform="translate(-164.602 -72.938)"/>
          <path id="Trazado_625274" data-name="Trazado 625274" d="M174.481,120.646a.646.646,0,0,0-.646-.646h-17.8a.646.646,0,0,0,0,1.291h17.8A.646.646,0,0,0,174.481,120.646Z" transform="translate(-143.785 -109.67)"/>
          <path id="Trazado_625275" data-name="Trazado 625275" d="M160.26,161.291a.646.646,0,1,0,0-1.291H148.485a.646.646,0,1,0,0,1.291Z" transform="translate(-136.885 -146.227)"/>
          <path id="Trazado_625276" data-name="Trazado 625276" d="M174.624,200.646a.646.646,0,0,0-.646-.646H157.9a.646.646,0,0,0,0,1.291h16.079A.646.646,0,0,0,174.624,200.646Z" transform="translate(-145.489 -182.784)"/>
          <path id="Trazado_625277" data-name="Trazado 625277" d="M145.08,240.646a.646.646,0,0,0-.646-.646h-17.8a.646.646,0,1,0,0,1.291h17.8A.646.646,0,0,0,145.08,240.646Z" transform="translate(-116.915 -219.341)"/>
          <path id="Trazado_625278" data-name="Trazado 625278" d="M135.537,280.646a.646.646,0,0,0-.646-.646h-17.8a.646.646,0,1,0,0,1.291h17.8A.646.646,0,0,0,135.537,280.646Z" transform="translate(-108.193 -255.897)"/>
          <path id="Trazado_625279" data-name="Trazado 625279" d="M111.142,320a.646.646,0,1,0,0,1.291h13.5a.646.646,0,1,0,0-1.291Z" transform="translate(-102.756 -292.454)"/>
          <path id="Trazado_625280" data-name="Trazado 625280" d="M96.552,235.576l-.4-.4c.036-.058.066-.11.089-.155.259-.522.028-1.219-.618-1.866s-1.344-.878-1.866-.618h0c-1.11.551-6.172,5.309-8.462,7.6q-1.758,1.758-3.157,3.278H66.594a.646.646,0,1,0,0,1.291H80.977q-1.019,1.162-1.784,2.152H65.319a.646.646,0,1,0,0,1.291H78.254a7.013,7.013,0,0,0-1.093,2.152H66.284a.646.646,0,1,0,0,1.291H77.839a6.077,6.077,0,0,0,3.049-1.244,51.325,51.325,0,0,0,5.59-4.75,25.045,25.045,0,0,0,3.216,9.609H64.558a22.189,22.189,0,0,1-3.294-8.491.646.646,0,0,0-1.271.226,23.073,23.073,0,0,0,3.725,9.3.646.646,0,0,0,.514.256H90.916a.646.646,0,0,0,.515-1.036,22.585,22.585,0,0,1-3.765-11.012q.479-.469.977-.967c1.8-1.8,5.116-5.3,6.726-7.265l.27.27a.645.645,0,0,1,.046.862c-.67.832-1.869,2.248-3.782,4.268a.646.646,0,1,0,.938.888c1.942-2.051,3.166-3.5,3.85-4.346A1.934,1.934,0,0,0,96.552,235.576ZM78.538,250.241a14.36,14.36,0,0,1,1.994-3l1,1A14.362,14.362,0,0,1,78.538,250.241Zm9.192-7.67c-2.159,2.159-3.86,3.721-5.192,4.851l-1.18-1.18c1.13-1.332,2.692-3.033,4.851-5.192a93.716,93.716,0,0,1,8.048-7.313,1.816,1.816,0,0,1,.787.787A93.74,93.74,0,0,1,87.73,242.571Z" transform="translate(-56.591 -212.426)"/>
        </g>
      </g>
      <g id="Elipse_4988" data-name="Elipse 4988" transform="translate(191.601 4747.733)" fill="none" stroke="#f9931f" stroke-width="4">
        <ellipse cx="6.563" cy="6.563" rx="6.563" ry="6.563" stroke="none"/>
        <ellipse cx="6.563" cy="6.563" rx="4.563" ry="4.563" fill="none"/>
      </g>
    </g>
  </g>
</svg>
