<svg xmlns="http://www.w3.org/2000/svg" width="77.555" height="52.629" viewBox="0 0 77.555 52.629">
  <path id="Trazado_679401" data-name="Trazado 679401" d="M38.672-20.918q0,10.371-4.658,16T20.883.7Q12.34.7,7.664-4.957T2.988-20.918V-30.27q0-10.371,4.658-16t13.166-5.625q8.508,0,13.184,5.66t4.676,16ZM26.824-31.781q0-5.52-1.441-8.244a4.818,4.818,0,0,0-4.57-2.725,4.7,4.7,0,0,0-4.447,2.531q-1.389,2.531-1.494,7.664v13.078q0,5.73,1.441,8.385a4.836,4.836,0,0,0,4.57,2.654,4.771,4.771,0,0,0,4.465-2.584q1.441-2.584,1.477-8.1Zm28.828,1.23h5.59q6.645,0,6.645-6.5A5.624,5.624,0,0,0,66.3-41.186a6,6,0,0,0-4.465-1.6,6.422,6.422,0,0,0-4.1,1.371A4.183,4.183,0,0,0,56-38H44.156a12.128,12.128,0,0,1,2.25-7.207,14.859,14.859,0,0,1,6.24-4.939,21.335,21.335,0,0,1,8.771-1.775q8.543,0,13.43,3.9A12.973,12.973,0,0,1,79.734-37.3a10.812,10.812,0,0,1-2.021,6.24A14.408,14.408,0,0,1,71.824-26.3a13.762,13.762,0,0,1,6.4,4.482,11.8,11.8,0,0,1,2.32,7.436A13.208,13.208,0,0,1,75.27-3.41Q70,.7,61.418.7a22.7,22.7,0,0,1-9.334-1.916,14.624,14.624,0,0,1-6.521-5.309,13.8,13.8,0,0,1-2.215-7.717H55.266a5.334,5.334,0,0,0,1.9,4.078A6.7,6.7,0,0,0,61.84-8.437a7.02,7.02,0,0,0,4.992-1.74A5.816,5.816,0,0,0,68.7-14.625q0-3.867-1.934-5.484a8.083,8.083,0,0,0-5.344-1.617H55.652Z" transform="translate(-2.988 51.926)" fill="#636363" opacity="0.13"/>
</svg>
