<svg xmlns="http://www.w3.org/2000/svg" width="77.555" height="52.629" viewBox="0 0 77.555 52.629">
  <path id="Trazado_679400" data-name="Trazado 679400" d="M38.672-20.918q0,10.371-4.658,16T20.883.7Q12.34.7,7.664-4.957T2.988-20.918V-30.27q0-10.371,4.658-16t13.166-5.625q8.508,0,13.184,5.66t4.676,16ZM26.824-31.781q0-5.52-1.441-8.244a4.818,4.818,0,0,0-4.57-2.725,4.7,4.7,0,0,0-4.447,2.531q-1.389,2.531-1.494,7.664v13.078q0,5.73,1.441,8.385a4.836,4.836,0,0,0,4.57,2.654,4.771,4.771,0,0,0,4.465-2.584q1.441-2.584,1.477-8.1ZM80.543,0H44.824V-7.734l16.453-17.3q6.082-6.926,6.082-11a7.654,7.654,0,0,0-1.441-5.027,5.146,5.146,0,0,0-4.184-1.723,5.211,5.211,0,0,0-4.395,2.3,9.464,9.464,0,0,0-1.687,5.748H43.77a16.81,16.81,0,0,1,2.355-8.7,16.518,16.518,0,0,1,6.539-6.24,19.424,19.424,0,0,1,9.352-2.25q8.3,0,12.779,3.832t4.482,11A15.979,15.979,0,0,1,78.152-31.2a25.824,25.824,0,0,1-3.5,6.012,88.115,88.115,0,0,1-7.646,8.42L60.4-9.141H80.543Z" transform="translate(-2.988 51.926)" fill="#636363" opacity="0.13"/>
</svg>
