<svg xmlns="http://www.w3.org/2000/svg" xmlns:xlink="http://www.w3.org/1999/xlink" width="85" height="85" viewBox="0 0 85 85">
  <defs>
    <clipPath id="clip-path">
      <path id="path8265" d="M65.659-682.665H0v65.659H65.659Z" transform="translate(0 682.665)"/>
    </clipPath>
  </defs>
  <g id="Grupo_991976" data-name="Grupo 991976" transform="translate(-214 -3610)">
    <rect id="Rectángulo_33792" data-name="Rectángulo 33792" width="85" height="85" rx="5" transform="translate(214 3610)" fill="#f9931f"/>
    <g id="Grupo_80313" data-name="Grupo 80313" transform="translate(224 3624.179)">
      <g id="Grupo_80111" data-name="Grupo 80111" transform="translate(31.991)">
        <path id="Trazado_113526" data-name="Trazado 113526" d="M294.882,1043.023l-22.411-22.412a1.119,1.119,0,0,1,0-1.583h0a1.12,1.12,0,0,1,1.584,0l22.411,22.411a1.119,1.119,0,0,1,0,1.584h0A1.12,1.12,0,0,1,294.882,1043.023Z" transform="translate(-272.143 -1018.7)" fill="#465fc4"/>
      </g>
      <g id="Grupo_80112" data-name="Grupo 80112" transform="translate(42.988 3)">
        <path id="Trazado_113527" data-name="Trazado 113527" d="M345.734,1046.715l-8.414-8.414a1.12,1.12,0,0,1,0-1.583h0a1.119,1.119,0,0,1,1.584,0l8.413,8.413a1.119,1.119,0,0,1,0,1.584h0A1.119,1.119,0,0,1,345.734,1046.715Z" transform="translate(-336.993 -1036.39)" fill="#465fc4"/>
      </g>
      <g id="Grupo_80113" data-name="Grupo 80113" transform="translate(23.994)">
        <path id="Trazado_113528" data-name="Trazado 113528" d="M255.724,1051.018l-30.407-30.407a1.118,1.118,0,0,1,0-1.583h0a1.119,1.119,0,0,1,1.583,0l30.407,30.407a1.119,1.119,0,0,1,0,1.583h0A1.119,1.119,0,0,1,255.724,1051.018Z" transform="translate(-224.989 -1018.7)" fill="#465fc4"/>
      </g>
      <g id="Grupo_80114" data-name="Grupo 80114" transform="translate(17.667 1.668)">
        <path id="Trazado_113529" data-name="Trazado 113529" d="M223.07,1065.515,188,1030.449a1.119,1.119,0,0,1,0-1.583h0a1.118,1.118,0,0,1,1.583,0l35.067,35.067a1.12,1.12,0,0,1,0,1.583h0A1.119,1.119,0,0,1,223.07,1065.515Z" transform="translate(-187.675 -1028.537)" fill="#465fc4"/>
      </g>
      <g id="Grupo_80115" data-name="Grupo 80115" transform="translate(12.407 4.405)">
        <path id="Trazado_113530" data-name="Trazado 113530" d="M194.58,1084.177l-37.589-37.589a1.12,1.12,0,0,1,0-1.584h0a1.12,1.12,0,0,1,1.583,0l37.589,37.59a1.12,1.12,0,0,1,0,1.583h0A1.119,1.119,0,0,1,194.58,1084.177Z" transform="translate(-156.663 -1044.677)" fill="#465fc4"/>
      </g>
      <g id="Grupo_80116" data-name="Grupo 80116" transform="translate(8.002 8.002)">
        <path id="Trazado_113531" data-name="Trazado 113531" d="M169.412,1106.195l-38.4-38.4a1.121,1.121,0,0,1,0-1.584h0a1.12,1.12,0,0,1,1.584,0l38.4,38.4a1.121,1.121,0,0,1,0,1.584h0A1.121,1.121,0,0,1,169.412,1106.195Z" transform="translate(-130.686 -1065.885)" fill="#465fc4"/>
      </g>
      <g id="Grupo_80117" data-name="Grupo 80117" transform="translate(4.406 12.407)">
        <path id="Trazado_113532" data-name="Trazado 113532" d="M147.4,1131.364l-37.589-37.589a1.12,1.12,0,0,1,0-1.583h0a1.119,1.119,0,0,1,1.584,0l37.589,37.589a1.119,1.119,0,0,1,0,1.584h0A1.12,1.12,0,0,1,147.4,1131.364Z" transform="translate(-109.478 -1091.863)" fill="#465fc4"/>
      </g>
      <g id="Grupo_80118" data-name="Grupo 80118" transform="translate(1.668 17.666)">
        <path id="Trazado_113533" data-name="Trazado 113533" d="M128.731,1159.854l-35.067-35.067a1.119,1.119,0,0,1,0-1.583h0a1.118,1.118,0,0,1,1.583,0l35.067,35.066a1.12,1.12,0,0,1,0,1.584h0A1.118,1.118,0,0,1,128.731,1159.854Z" transform="translate(-93.336 -1122.875)" fill="#465fc4"/>
      </g>
      <g id="Grupo_80119" data-name="Grupo 80119" transform="translate(0 23.994)">
        <path id="Trazado_113534" data-name="Trazado 113534" d="M114.235,1192.508,83.827,1162.1a1.119,1.119,0,0,1,0-1.583h0a1.118,1.118,0,0,1,1.583,0l30.408,30.408a1.119,1.119,0,0,1,0,1.583h0A1.119,1.119,0,0,1,114.235,1192.508Z" transform="translate(-83.499 -1160.189)" fill="#465fc4"/>
      </g>
      <g id="Grupo_80120" data-name="Grupo 80120" transform="translate(0 31.991)">
        <path id="Trazado_113535" data-name="Trazado 113535" d="M106.238,1231.665l-22.411-22.411a1.119,1.119,0,0,1,0-1.584h0a1.119,1.119,0,0,1,1.583,0l22.411,22.411a1.12,1.12,0,0,1,0,1.583h0A1.12,1.12,0,0,1,106.238,1231.665Z" transform="translate(-83.499 -1207.343)" fill="#465fc4"/>
      </g>
      <g id="Grupo_80121" data-name="Grupo 80121" transform="translate(3 42.988)">
        <path id="Trazado_113536" data-name="Trazado 113536" d="M109.932,1282.517l-8.413-8.413a1.12,1.12,0,0,1,0-1.584h0a1.12,1.12,0,0,1,1.583,0l8.414,8.414a1.12,1.12,0,0,1,0,1.583h0A1.119,1.119,0,0,1,109.932,1282.517Z" transform="translate(-101.191 -1272.193)" fill="#465fc4"/>
      </g>
    </g>
    <g id="g8259" transform="translate(225.671 3618.671)">
      <g id="g8261">
        <g id="g8263" clip-path="url(#clip-path)">
          <g id="g8269" transform="translate(9.737 54.153)">
            <path id="path8271" d="M-459.081-99.084h42.48a1.853,1.853,0,0,0,1.853-1.853v-6.838a1.853,1.853,0,0,0-1.853-1.853h-42.48a1.853,1.853,0,0,0-1.853,1.853v6.838a1.853,1.853,0,0,0,1.853,1.853" transform="translate(460.934 109.628)" fill="#7ca1b1"/>
          </g>
          <g id="g8273" transform="translate(9.737 54.153)">
            <path id="path8275" d="M-78.087,0H-70.4a1.853,1.853,0,0,0-1.853,1.853V8.691A1.853,1.853,0,0,0-70.4,10.544h-7.689A1.853,1.853,0,0,1-79.94,8.691V1.853A1.853,1.853,0,0,1-78.087,0" transform="translate(79.94)" fill="#678d98"/>
          </g>
          <g id="g8277" transform="translate(14.756 48.61)">
            <path id="path8279" d="M-350.007,0h31.616a2.266,2.266,0,0,1,2.266,2.266V5.543h-36.147V2.266A2.266,2.266,0,0,1-350.007,0" transform="translate(352.273)" fill="#f9931f"/>
          </g>
          <g id="g8281" transform="translate(14.756 48.61)">
            <path id="path8283" d="M-77.675,0h7.689a2.266,2.266,0,0,0-2.266,2.266V5.543h-7.689V2.266A2.266,2.266,0,0,1-77.675,0" transform="translate(79.941)" fill="#da7a0c"/>
          </g>
          <g id="g8285" transform="translate(18.4 15.23)">
            <path id="path8287" d="M-300.041-313.677h28.858v-22.289a11.091,11.091,0,0,0-11.091-11.091h-6.675a11.091,11.091,0,0,0-11.091,11.091Z" transform="translate(300.041 347.056)" fill="#f9931f"/>
          </g>
          <g id="g8289" transform="translate(18.4 15.23)">
            <path id="path8291" d="M-63.579,0H-56.9c.17,0,.339.005.507.013A11.091,11.091,0,0,0-66.982,11.091V33.38H-74.67V11.091A11.091,11.091,0,0,1-63.579,0" transform="translate(74.67)" fill="#da7a0c"/>
          </g>
          <g id="g8293" transform="translate(29.898 31.7)">
            <path id="path8295" d="M-60.956-158.909h5.863v-13.979a2.931,2.931,0,0,0-2.931-2.931,2.931,2.931,0,0,0-2.931,2.931Z" transform="translate(60.956 175.82)" fill="#c0d6f1"/>
          </g>
          <g id="g8297" transform="translate(29.898 31.7)">
            <path id="path8299" d="M-15.162,0a2.918,2.918,0,0,1,1.74.573,2.927,2.927,0,0,0-1.191,2.359V16.91h-3.48V2.931A2.931,2.931,0,0,1-15.162,0" transform="translate(18.093)" fill="#a6c4e8"/>
          </g>
          <g id="g8301" transform="translate(41.443 27.358)">
            <path id="path8303" d="M-176.952-157.307h15.071a2.153,2.153,0,0,0,1.841-3.268l-7.535-12.435a2.153,2.153,0,0,0-3.682,0l-7.535,12.435a2.152,2.152,0,0,0,1.841,3.268" transform="translate(179.107 174.047)" fill="#fef056"/>
          </g>
          <g id="g8305" transform="translate(41.443 27.358)">
            <path id="path8307" d="M-124.341-126.6l7.535-12.435a2.153,2.153,0,0,1,3.682,0l.772,1.275a2.126,2.126,0,0,0-1.516,1.012l-6.144,10.149a2.152,2.152,0,0,0,1.841,3.268h-4.33a2.152,2.152,0,0,1-1.841-3.268" transform="translate(124.656 140.069)" fill="#fcde06"/>
          </g>
          <g id="g8309" transform="translate(9.737 54.153)">
            <path id="path8311" d="M-459.081-99.084h42.48a1.853,1.853,0,0,0,1.853-1.853v-6.838a1.853,1.853,0,0,0-1.853-1.853h-42.48a1.853,1.853,0,0,0-1.853,1.853v6.838A1.853,1.853,0,0,0-459.081-99.084Z" transform="translate(460.934 109.628)" fill="none" stroke="#000" stroke-linecap="round" stroke-linejoin="round" stroke-miterlimit="10" stroke-width="2"/>
          </g>
          <g id="g8313" transform="translate(14.756 48.61)">
            <path id="path8315" d="M-350.007,0h31.616a2.266,2.266,0,0,1,2.266,2.266V5.543h-36.147V2.266A2.266,2.266,0,0,1-350.007,0Z" transform="translate(352.273)" fill="none" stroke="#000" stroke-linecap="round" stroke-linejoin="round" stroke-miterlimit="10" stroke-width="2"/>
          </g>
          <g id="g8317" transform="translate(18.401 15.231)">
            <path id="path8319" d="M-300.031-205.844v-10.814a11.091,11.091,0,0,1,11.09-11.091h6.676a11.091,11.091,0,0,1,11.091,11.091v5.433" transform="translate(300.031 227.749)" fill="none" stroke="#000" stroke-linecap="round" stroke-linejoin="round" stroke-miterlimit="10" stroke-width="2"/>
          </g>
          <g id="g8321" transform="translate(18.401 41.687)">
            <path id="path8323" d="M28.857-22.654v4.512H0v-6.923" transform="translate(0 25.065)" fill="none" stroke="#000" stroke-linecap="round" stroke-linejoin="round" stroke-miterlimit="10" stroke-width="2"/>
          </g>
          <g id="g8325" transform="translate(29.898 31.7)">
            <path id="path8327" d="M5.863-116.142v-9.428A2.931,2.931,0,0,0,2.931-128.5,2.931,2.931,0,0,0,0-125.57v13.979H5.863" transform="translate(0 128.501)" fill="none" stroke="#000" stroke-linecap="round" stroke-linejoin="round" stroke-miterlimit="10" stroke-width="2"/>
          </g>
          <g id="g8329" transform="translate(41.443 27.358)">
            <path id="path8331" d="M-176.952-157.307h15.071a2.153,2.153,0,0,0,1.841-3.268l-7.535-12.435a2.153,2.153,0,0,0-3.682,0l-7.535,12.435A2.152,2.152,0,0,0-176.952-157.307Z" transform="translate(179.107 174.047)" fill="none" stroke="#000" stroke-linecap="round" stroke-linejoin="round" stroke-miterlimit="10" stroke-width="2"/>
          </g>
          <g id="g8333" transform="translate(51.135 32.497)">
            <path id="path8335" d="M0,0V4.4" transform="translate(0 0)" fill="none" stroke="#000" stroke-linecap="round" stroke-linejoin="round" stroke-miterlimit="10" stroke-width="2"/>
          </g>
          <g id="g8337" transform="translate(50.165 39.408)">
            <path id="path8339" d="M1.938-9.107a.969.969,0,0,1-.969.969A.969.969,0,0,1,0-9.107a.969.969,0,0,1,.969-.969.969.969,0,0,1,.969.969" transform="translate(0 10.076)"/>
          </g>
          <g id="g8341" transform="translate(54.55 17.599)">
            <path id="path8343" d="M7.1,0,0,4.1" transform="translate(0)" fill="none" stroke="#000" stroke-linecap="round" stroke-linejoin="round" stroke-miterlimit="10" stroke-width="2"/>
          </g>
          <g id="g8345" transform="translate(45.37 5.42)">
            <path id="path8347" d="M4.1,0,0,7.1" transform="translate(0)" fill="none" stroke="#000" stroke-linecap="round" stroke-linejoin="round" stroke-miterlimit="10" stroke-width="2"/>
          </g>
          <g id="g8349" transform="translate(32.829 0.962)">
            <path id="path8351" d="M0,0V8.194" transform="translate(0)" fill="none" stroke="#000" stroke-linecap="round" stroke-linejoin="round" stroke-miterlimit="10" stroke-width="2"/>
          </g>
          <g id="g8353" transform="translate(16.192 5.42)">
            <path id="path8355" d="M-42.6,0l4.1,7.1" transform="translate(42.596)" fill="none" stroke="#000" stroke-linecap="round" stroke-linejoin="round" stroke-miterlimit="10" stroke-width="2"/>
          </g>
          <g id="g8357" transform="translate(4.012 17.599)">
            <path id="path8359" d="M-73.78,0l7.1,4.1" transform="translate(73.78)" fill="none" stroke="#000" stroke-linecap="round" stroke-linejoin="round" stroke-miterlimit="10" stroke-width="2"/>
          </g>
          <g id="g8361" transform="translate(50.77 60.366)">
            <path id="path8363" d="M0,0V4.331" transform="translate(0)" fill="none" stroke="#000" stroke-linecap="round" stroke-linejoin="round" stroke-miterlimit="10" stroke-width="2"/>
          </g>
          <g id="g8365" transform="translate(45.644 60.366)">
            <path id="path8367" d="M0,0V4.331" transform="translate(0)" fill="none" stroke="#000" stroke-linecap="round" stroke-linejoin="round" stroke-miterlimit="10" stroke-width="2"/>
          </g>
          <g id="g8369" transform="translate(40.518 60.366)">
            <path id="path8371" d="M0,0V4.331" transform="translate(0)" fill="none" stroke="#000" stroke-linecap="round" stroke-linejoin="round" stroke-miterlimit="10" stroke-width="2"/>
          </g>
          <g id="g8373" transform="translate(35.392 60.366)">
            <path id="path8375" d="M0,0V4.331" transform="translate(0)" fill="none" stroke="#000" stroke-linecap="round" stroke-linejoin="round" stroke-miterlimit="10" stroke-width="2"/>
          </g>
          <g id="g8377" transform="translate(30.266 60.366)">
            <path id="path8379" d="M0,0V4.331" transform="translate(0)" fill="none" stroke="#000" stroke-linecap="round" stroke-linejoin="round" stroke-miterlimit="10" stroke-width="2"/>
          </g>
          <g id="g8381" transform="translate(25.141 60.366)">
            <path id="path8383" d="M0,0V4.331" transform="translate(0)" fill="none" stroke="#000" stroke-linecap="round" stroke-linejoin="round" stroke-miterlimit="10" stroke-width="2"/>
          </g>
          <g id="g8385" transform="translate(20.015 60.366)">
            <path id="path8387" d="M0,0V4.331" transform="translate(0)" fill="none" stroke="#000" stroke-linecap="round" stroke-linejoin="round" stroke-miterlimit="10" stroke-width="2"/>
          </g>
          <g id="g8389" transform="translate(14.889 60.366)">
            <path id="path8391" d="M0,0V4.331" transform="translate(0)" fill="none" stroke="#000" stroke-linecap="round" stroke-linejoin="round" stroke-miterlimit="10" stroke-width="2"/>
          </g>
        </g>
      </g>
    </g>
  </g>
</svg>
