<svg id="Grupo_80242" data-name="Grupo 80242" xmlns="http://www.w3.org/2000/svg" width="40" height="47.524" viewBox="0 0 40 47.524">
  <path id="Rectángulo_33787" data-name="Rectángulo 33787" d="M0,0H17A23,23,0,0,1,40,23V40a0,0,0,0,1,0,0H0a0,0,0,0,1,0,0V0A0,0,0,0,1,0,0Z" fill="#ffc721"/>
  <g id="Grupo_80241" data-name="Grupo 80241" transform="translate(21 23.524) rotate(90)">
    <g id="Grupo_80123" data-name="Grupo 80123" transform="translate(13.555)">
      <path id="Trazado_113537" data-name="Trazado 113537" d="M9.635,10.306.139.81a.475.475,0,0,1,0-.671h0a.474.474,0,0,1,.671,0l9.5,9.5a.474.474,0,0,1,0,.671h0A.475.475,0,0,1,9.635,10.306Z" fill="#465fc4"/>
    </g>
    <g id="Grupo_80124" data-name="Grupo 80124" transform="translate(18.215 1.271)">
      <path id="Trazado_113538" data-name="Trazado 113538" d="M3.7,4.375.139.81a.474.474,0,0,1,0-.671h0a.474.474,0,0,1,.671,0L4.375,3.7a.474.474,0,0,1,0,.671h0A.475.475,0,0,1,3.7,4.375Z" fill="#465fc4"/>
    </g>
    <g id="Grupo_80125" data-name="Grupo 80125" transform="translate(10.166)">
      <path id="Trazado_113539" data-name="Trazado 113539" d="M13.023,13.694.139.81a.474.474,0,0,1,0-.671h0a.474.474,0,0,1,.671,0L13.694,13.023a.474.474,0,0,1,0,.671h0A.475.475,0,0,1,13.023,13.694Z" fill="#465fc4"/>
    </g>
    <g id="Grupo_80126" data-name="Grupo 80126" transform="translate(7.485 0.707)">
      <path id="Trazado_113540" data-name="Trazado 113540" d="M15,15.668.139.81a.475.475,0,0,1,0-.671h0a.474.474,0,0,1,.671,0L15.669,15a.474.474,0,0,1,0,.671h0A.474.474,0,0,1,15,15.668Z" fill="#465fc4"/>
    </g>
    <g id="Grupo_80127" data-name="Grupo 80127" transform="translate(5.257 1.867)">
      <path id="Trazado_113541" data-name="Trazado 113541" d="M16.066,16.737.139.81a.475.475,0,0,1,0-.671h0a.474.474,0,0,1,.671,0L16.737,16.066a.474.474,0,0,1,0,.671h0A.474.474,0,0,1,16.066,16.737Z" fill="#465fc4"/>
    </g>
    <g id="Grupo_80128" data-name="Grupo 80128" transform="translate(3.39 3.391)">
      <path id="Trazado_113542" data-name="Trazado 113542" d="M16.409,17.08.139.81a.476.476,0,0,1,0-.671h0a.475.475,0,0,1,.671,0l16.27,16.27a.474.474,0,0,1,0,.671h0A.474.474,0,0,1,16.409,17.08Z" fill="#465fc4"/>
    </g>
    <g id="Grupo_80129" data-name="Grupo 80129" transform="translate(1.865 5.256)">
      <path id="Trazado_113543" data-name="Trazado 113543" d="M16.415,15.744H15.073L.14.811A.475.475,0,0,1,.476,0,.478.478,0,0,1,.81.139Z" fill="#465fc4"/>
    </g>
    <g id="Grupo_80130" data-name="Grupo 80130" transform="translate(0.706 7.485)">
      <path id="Trazado_113544" data-name="Trazado 113544" d="M14.186,13.514H12.844L.139.809A.474.474,0,0,1,.475,0,.466.466,0,0,1,.811.139Z" fill="#465fc4"/>
    </g>
    <g id="Grupo_80131" data-name="Grupo 80131" transform="translate(0 10.166)">
      <path id="Trazado_113545" data-name="Trazado 113545" d="M11.5,10.833H10.161L.139.811A.475.475,0,0,1,.475,0,.479.479,0,0,1,.808.139Z" fill="#465fc4"/>
    </g>
    <g id="Grupo_80132" data-name="Grupo 80132" transform="translate(0 13.555)">
      <path id="Trazado_113546" data-name="Trazado 113546" d="M8.114,7.445H6.775L.139.808A.474.474,0,0,1,.475,0,.479.479,0,0,1,.808.139Z" fill="#465fc4"/>
    </g>
    <g id="Grupo_80133" data-name="Grupo 80133" transform="translate(1.27 18.216)">
      <path id="Trazado_113547" data-name="Trazado 113547" d="M3.455,2.784H2.115L.14.809a.469.469,0,0,1,0-.669.473.473,0,0,1,.67,0Z" fill="#465fc4"/>
    </g>
  </g>
</svg>
