<svg xmlns="http://www.w3.org/2000/svg" width="77.414" height="52.594" viewBox="0 0 77.414 52.594">
  <path id="Trazado_679405" data-name="Trazado 679405" d="M38.672-20.918q0,10.371-4.658,16T20.883.7Q12.34.7,7.664-4.957T2.988-20.918V-30.27q0-10.371,4.658-16t13.166-5.625q8.508,0,13.184,5.66t4.676,16ZM26.824-31.781q0-5.52-1.441-8.244a4.818,4.818,0,0,0-4.57-2.725,4.7,4.7,0,0,0-4.447,2.531q-1.389,2.531-1.494,7.664v13.078q0,5.73,1.441,8.385a4.836,4.836,0,0,0,4.57,2.654,4.771,4.771,0,0,0,4.465-2.584q1.441-2.584,1.477-8.1ZM80.4-44.859,61.277,0H48.762l19.16-42.047h-24.4v-9.141H80.4Z" transform="translate(-2.988 51.891)" fill="#636363" opacity="0.13"/>
</svg>
