<svg xmlns="http://www.w3.org/2000/svg" width="85" height="85" viewBox="0 0 85 85">
  <g id="Grupo_991976" data-name="Grupo 991976" transform="translate(-180 -4547)">
    <g id="Grupo_81607" data-name="Grupo 81607" transform="translate(0 -2216)">
      <rect id="Rectángulo_33792" data-name="Rectángulo 33792" width="85" height="85" rx="5" transform="translate(180 6763)" fill="#9aeccd"/>
      <g id="Grupo_80313" data-name="Grupo 80313" transform="translate(187.443 6777.179)">
        <g id="Grupo_80111" data-name="Grupo 80111" transform="translate(31.991)">
          <path id="Trazado_113526" data-name="Trazado 113526" d="M294.882,1043.023l-22.411-22.412a1.119,1.119,0,0,1,0-1.583h0a1.12,1.12,0,0,1,1.584,0l22.411,22.411a1.119,1.119,0,0,1,0,1.584h0A1.12,1.12,0,0,1,294.882,1043.023Z" transform="translate(-272.143 -1018.7)" fill="#bfefdd"/>
        </g>
        <g id="Grupo_80112" data-name="Grupo 80112" transform="translate(42.988 3)">
          <path id="Trazado_113527" data-name="Trazado 113527" d="M345.734,1046.715l-8.414-8.414a1.12,1.12,0,0,1,0-1.583h0a1.119,1.119,0,0,1,1.584,0l8.413,8.413a1.119,1.119,0,0,1,0,1.584h0A1.119,1.119,0,0,1,345.734,1046.715Z" transform="translate(-336.993 -1036.39)" fill="#bfefdd"/>
        </g>
        <g id="Grupo_80113" data-name="Grupo 80113" transform="translate(23.994)">
          <path id="Trazado_113528" data-name="Trazado 113528" d="M255.724,1051.018l-30.407-30.407a1.118,1.118,0,0,1,0-1.583h0a1.119,1.119,0,0,1,1.583,0l30.407,30.407a1.119,1.119,0,0,1,0,1.583h0A1.119,1.119,0,0,1,255.724,1051.018Z" transform="translate(-224.989 -1018.7)" fill="#bfefdd"/>
        </g>
        <g id="Grupo_80114" data-name="Grupo 80114" transform="translate(17.667 1.668)">
          <path id="Trazado_113529" data-name="Trazado 113529" d="M223.07,1065.515,188,1030.449a1.119,1.119,0,0,1,0-1.583h0a1.118,1.118,0,0,1,1.583,0l35.067,35.067a1.12,1.12,0,0,1,0,1.583h0A1.119,1.119,0,0,1,223.07,1065.515Z" transform="translate(-187.675 -1028.537)" fill="#bfefdd"/>
        </g>
        <g id="Grupo_80115" data-name="Grupo 80115" transform="translate(12.407 4.405)">
          <path id="Trazado_113530" data-name="Trazado 113530" d="M194.58,1084.177l-37.589-37.589a1.12,1.12,0,0,1,0-1.584h0a1.12,1.12,0,0,1,1.583,0l37.589,37.59a1.12,1.12,0,0,1,0,1.583h0A1.119,1.119,0,0,1,194.58,1084.177Z" transform="translate(-156.663 -1044.677)" fill="#bfefdd"/>
        </g>
        <g id="Grupo_80116" data-name="Grupo 80116" transform="translate(8.002 8.002)">
          <path id="Trazado_113531" data-name="Trazado 113531" d="M169.412,1106.195l-38.4-38.4a1.121,1.121,0,0,1,0-1.584h0a1.12,1.12,0,0,1,1.584,0l38.4,38.4a1.121,1.121,0,0,1,0,1.584h0A1.121,1.121,0,0,1,169.412,1106.195Z" transform="translate(-130.686 -1065.885)" fill="#bfefdd"/>
        </g>
        <g id="Grupo_80117" data-name="Grupo 80117" transform="translate(4.406 12.407)">
          <path id="Trazado_113532" data-name="Trazado 113532" d="M147.4,1131.364l-37.589-37.589a1.12,1.12,0,0,1,0-1.583h0a1.119,1.119,0,0,1,1.584,0l37.589,37.589a1.119,1.119,0,0,1,0,1.584h0A1.12,1.12,0,0,1,147.4,1131.364Z" transform="translate(-109.478 -1091.863)" fill="#bfefdd"/>
        </g>
        <g id="Grupo_80118" data-name="Grupo 80118" transform="translate(1.668 17.666)">
          <path id="Trazado_113533" data-name="Trazado 113533" d="M128.731,1159.854l-35.067-35.067a1.119,1.119,0,0,1,0-1.583h0a1.118,1.118,0,0,1,1.583,0l35.067,35.066a1.12,1.12,0,0,1,0,1.584h0A1.118,1.118,0,0,1,128.731,1159.854Z" transform="translate(-93.336 -1122.875)" fill="#bfefdd"/>
        </g>
        <g id="Grupo_80119" data-name="Grupo 80119" transform="translate(0 23.994)">
          <path id="Trazado_113534" data-name="Trazado 113534" d="M114.235,1192.508,83.827,1162.1a1.119,1.119,0,0,1,0-1.583h0a1.118,1.118,0,0,1,1.583,0l30.408,30.408a1.119,1.119,0,0,1,0,1.583h0A1.119,1.119,0,0,1,114.235,1192.508Z" transform="translate(-83.499 -1160.189)" fill="#bfefdd"/>
        </g>
        <g id="Grupo_80120" data-name="Grupo 80120" transform="translate(0 31.991)">
          <path id="Trazado_113535" data-name="Trazado 113535" d="M106.238,1231.665l-22.411-22.411a1.119,1.119,0,0,1,0-1.584h0a1.119,1.119,0,0,1,1.583,0l22.411,22.411a1.12,1.12,0,0,1,0,1.583h0A1.12,1.12,0,0,1,106.238,1231.665Z" transform="translate(-83.499 -1207.343)" fill="#bfefdd"/>
        </g>
        <g id="Grupo_80121" data-name="Grupo 80121" transform="translate(3 42.988)">
          <path id="Trazado_113536" data-name="Trazado 113536" d="M109.932,1282.517l-8.413-8.413a1.12,1.12,0,0,1,0-1.584h0a1.12,1.12,0,0,1,1.583,0l8.414,8.414a1.12,1.12,0,0,1,0,1.583h0A1.119,1.119,0,0,1,109.932,1282.517Z" transform="translate(-101.191 -1272.193)" fill="#bfefdd"/>
        </g>
      </g>
      <g id="Elipse_4731" data-name="Elipse 4731" transform="translate(190 6825.238)" fill="none" stroke="#ffc721" stroke-width="4">
        <ellipse cx="8.583" cy="8.583" rx="8.583" ry="8.583" stroke="none"/>
        <ellipse cx="8.583" cy="8.583" rx="6.583" ry="6.583" fill="none"/>
      </g>
      <g id="inspector" transform="translate(187.181 6773.5)">
        <path id="Trazado_625450" data-name="Trazado 625450" d="M55.042,388.807H14.653A7.153,7.153,0,0,1,7.5,381.653h0a7.153,7.153,0,0,1,7.153-7.153H55.042a7.153,7.153,0,0,1,7.153,7.153h0A7.153,7.153,0,0,1,55.042,388.807Z" transform="translate(0 -326.611)" fill="#7ca1b1"/>
        <path id="Trazado_625451" data-name="Trazado 625451" d="M41.352,412.2a3.852,3.852,0,1,1,0-7.7H81.74a3.852,3.852,0,1,1,0,7.7Z" transform="translate(-26.698 -353.31)" fill="#537983"/>
        <circle id="Elipse_4996" data-name="Elipse 4996" cx="3.88" cy="3.88" r="3.88" transform="translate(10.41 51.525)" fill="#d9e7ec"/>
        <circle id="Elipse_4997" data-name="Elipse 4997" cx="3.88" cy="3.88" r="3.88" transform="translate(51.151 51.525)" fill="#d9e7ec"/>
        <rect id="Rectángulo_344387" data-name="Rectángulo 344387" width="22.67" height="7.704" transform="translate(23.512 51.19)" fill="#d9e7ec"/>
        <rect id="Rectángulo_344388" data-name="Rectángulo 344388" width="3.302" height="7.704" transform="translate(42.881 51.19)" fill="#c5d3dd"/>
        <path id="Trazado_625452" data-name="Trazado 625452" d="M47.487,284.194H27.341a2.117,2.117,0,0,1-2.117-2.117v-3.861a5.19,5.19,0,0,1,5.19-5.19h14a5.19,5.19,0,0,1,5.19,5.19v3.861A2.117,2.117,0,0,1,47.487,284.194Z" transform="translate(-15.773 -236.306)" fill="#465fc4"/>
        <path id="Trazado_625453" data-name="Trazado 625453" d="M172.9,273.026h-3.3a5.19,5.19,0,0,1,5.19,5.19v3.861a2.117,2.117,0,0,1-2.117,2.117h3.3a2.117,2.117,0,0,0,2.117-2.117v-3.861A5.19,5.19,0,0,0,172.9,273.026Z" transform="translate(-144.255 -236.305)" fill="#1d3ab1"/>
        <rect id="Rectángulo_344389" data-name="Rectángulo 344389" width="4.876" height="5.058" transform="translate(19.202 29.283)" fill="#ffb09e"/>
        <path id="Trazado_625454" data-name="Trazado 625454" d="M37.833,107.815c0,1.778-1.087,3.219-2.429,3.219s-2.12-1.655-2.12-3.433.779-3.005,2.12-3.005S37.833,106.037,37.833,107.815Z" transform="translate(-22.946 -86.41)" fill="#ffb09e"/>
        <path id="Trazado_625455" data-name="Trazado 625455" d="M197.356,107.815c0,1.778,1.087,3.219,2.429,3.219s2.12-1.655,2.12-3.433-.779-3.005-2.12-3.005S197.356,106.037,197.356,107.815Z" transform="translate(-168.962 -86.41)" fill="#ffb09e"/>
        <path id="Trazado_625456" data-name="Trazado 625456" d="M64.763,44V38.664A7.838,7.838,0,0,1,72.6,30.826h0a7.838,7.838,0,0,1,7.838,7.838v5.3a7.853,7.853,0,0,1-7.853,7.853h0A7.823,7.823,0,0,1,64.763,44Z" transform="translate(-50.961 -20.759)" fill="#ffcebf"/>
        <path id="Trazado_625457" data-name="Trazado 625457" d="M122.533,30.827h0a7.867,7.867,0,0,0-1.651.176,7.84,7.84,0,0,1,6.188,7.663v5.3a7.855,7.855,0,0,1-6.2,7.677,7.852,7.852,0,0,0,1.649.176h0a7.853,7.853,0,0,0,7.853-7.853v-5.3A7.838,7.838,0,0,0,122.533,30.827Z" transform="translate(-100.893 -20.76)" fill="#ffb09e"/>
        <path id="Trazado_625458" data-name="Trazado 625458" d="M107.131,246.328H98.987v-2.812a.49.49,0,0,1,.49-.49h7.164a.49.49,0,0,1,.49.49v2.812Z" transform="translate(-81.419 -209.606)" fill="#f9f3f1"/>
        <path id="Trazado_625459" data-name="Trazado 625459" d="M149.449,243.026h-2.438c.232,0,.421.255.421.57v2.732h2.438V243.6C149.87,243.281,149.681,243.026,149.449,243.026Z" transform="translate(-124.158 -209.606)" fill="#f3eae6"/>
        <path id="Trazado_625460" data-name="Trazado 625460" d="M66.691,318.191H61.466a.469.469,0,0,1-.469-.469v-2.364a.469.469,0,0,1,.469-.469h5.226a.469.469,0,0,1,.469.469v2.364A.469.469,0,0,1,66.691,318.191Z" transform="translate(-47.61 -273.561)" fill="#f9f3f1"/>
        <path id="Trazado_625461" data-name="Trazado 625461" d="M86.041,314.889h-3.3a.469.469,0,0,1,.469.469v2.364a.469.469,0,0,1-.469.469h3.3a.469.469,0,0,0,.469-.469v-2.364A.469.469,0,0,0,86.041,314.889Z" transform="translate(-66.959 -273.561)" fill="#f3eae6"/>
        <path id="Trazado_625462" data-name="Trazado 625462" d="M74.08,17.01H56.608V11.515A4.015,4.015,0,0,1,60.623,7.5h9.441a4.015,4.015,0,0,1,4.015,4.015Z" transform="translate(-43.704)" fill="#465fc4"/>
        <path id="Trazado_625463" data-name="Trazado 625463" d="M152.185,7.5h-3.3a4.015,4.015,0,0,1,4.015,4.015V17.01h3.3V11.515A4.015,4.015,0,0,0,152.185,7.5Z" transform="translate(-125.824)" fill="#1d3ab1"/>
        <path id="Trazado_625464" data-name="Trazado 625464" d="M59.477,82.994H39.413a.753.753,0,0,1-.753-.753v-.7a1.631,1.631,0,0,1,1.631-1.631H58.6a1.631,1.631,0,0,1,1.631,1.631v.7A.753.753,0,0,1,59.477,82.994Z" transform="translate(-27.731 -64.444)" fill="#465fc4"/>
        <path id="Trazado_625465" data-name="Trazado 625465" d="M193.144,79.912h-3.3a1.631,1.631,0,0,1,1.631,1.631v.7a.753.753,0,0,1-.753.753h3.3a.753.753,0,0,0,.753-.753v-.7A1.631,1.631,0,0,0,193.144,79.912Z" transform="translate(-162.275 -64.443)" fill="#1d3ab1"/>
        <path id="Trazado_625467" data-name="Trazado 625467" d="M105.822,53.214H97.309V51.257a1.345,1.345,0,0,1,1.345-1.345h5.823a1.345,1.345,0,0,1,1.345,1.345Z" transform="translate(-79.925 -37.745)" fill="#fedba6"/>
        <g id="Grupo_990056" data-name="Grupo 990056" transform="translate(7.5 7.5)">
          <path id="Trazado_625472" data-name="Trazado 625472" d="M20.015,388.807H14.653A7.153,7.153,0,0,1,7.5,381.653h0a7.153,7.153,0,0,1,7.153-7.153H55.042a7.153,7.153,0,0,1,7.153,7.153h0a7.153,7.153,0,0,1-7.153,7.153H24.078" transform="translate(-7.5 -334.111)" fill="none" stroke="#000" stroke-linecap="round" stroke-linejoin="round" stroke-miterlimit="10" stroke-width="1.5"/>
          <path id="Trazado_625473" data-name="Trazado 625473" d="M41.352,412.2a3.852,3.852,0,1,1,0-7.7H81.74a3.852,3.852,0,1,1,0,7.7Z" transform="translate(-34.198 -360.81)" fill="none" stroke="#000" stroke-linecap="round" stroke-linejoin="round" stroke-miterlimit="10" stroke-width="1.5"/>
          <circle id="Elipse_4998" data-name="Elipse 4998" cx="3.88" cy="3.88" r="3.88" transform="translate(2.91 44.025)" fill="none" stroke="#000" stroke-linecap="round" stroke-linejoin="round" stroke-miterlimit="10" stroke-width="1.5"/>
          <circle id="Elipse_4999" data-name="Elipse 4999" cx="3.88" cy="3.88" r="3.88" transform="translate(43.651 44.025)" fill="none" stroke="#000" stroke-linecap="round" stroke-linejoin="round" stroke-miterlimit="10" stroke-width="1.5"/>
          <rect id="Rectángulo_344390" data-name="Rectángulo 344390" width="22.67" height="7.704" transform="translate(16.012 43.69)" fill="none" stroke="#000" stroke-linecap="round" stroke-linejoin="round" stroke-miterlimit="10" stroke-width="1.5"/>
          <g id="Grupo_990049" data-name="Grupo 990049" transform="translate(23.119 47.102)">
            <line id="Línea_229" data-name="Línea 229" y2="0.88" fill="none" stroke="#000" stroke-linecap="round" stroke-linejoin="round" stroke-miterlimit="10" stroke-width="1.5"/>
            <line id="Línea_230" data-name="Línea 230" y2="0.88" transform="translate(4.229)" fill="none" stroke="#000" stroke-linecap="round" stroke-linejoin="round" stroke-miterlimit="10" stroke-width="1.5"/>
            <line id="Línea_231" data-name="Línea 231" y2="0.88" transform="translate(8.458)" fill="none" stroke="#000" stroke-linecap="round" stroke-linejoin="round" stroke-miterlimit="10" stroke-width="1.5"/>
          </g>
          <g id="Grupo_990050" data-name="Grupo 990050" transform="translate(6.979 47.542)">
            <line id="Línea_232" data-name="Línea 232" x2="0.348" fill="none" stroke="#000" stroke-linecap="round" stroke-linejoin="round" stroke-miterlimit="10" stroke-width="1.5"/>
            <line id="Línea_233" data-name="Línea 233" x2="0.348" transform="translate(40.389)" fill="none" stroke="#000" stroke-linecap="round" stroke-linejoin="round" stroke-miterlimit="10" stroke-width="1.5"/>
          </g>
          <path id="Trazado_625474" data-name="Trazado 625474" d="M47.487,284.194H27.341a2.117,2.117,0,0,1-2.117-2.117v-3.861a5.19,5.19,0,0,1,5.19-5.19h14a5.19,5.19,0,0,1,5.19,5.19v3.861A2.117,2.117,0,0,1,47.487,284.194Z" transform="translate(-23.273 -243.806)" fill="none" stroke="#000" stroke-linecap="round" stroke-linejoin="round" stroke-miterlimit="10" stroke-width="1.5"/>
          <line id="Línea_234" data-name="Línea 234" y1="2.208" transform="translate(11.702 23.563)" fill="none" stroke="#000" stroke-linecap="round" stroke-linejoin="round" stroke-miterlimit="10" stroke-width="1.5"/>
          <line id="Línea_235" data-name="Línea 235" y2="2.208" transform="translate(16.578 23.563)" fill="none" stroke="#000" stroke-linecap="round" stroke-linejoin="round" stroke-miterlimit="10" stroke-width="1.5"/>
          <path id="Trazado_625475" data-name="Trazado 625475" d="M107.131,246.328H98.987v-2.812a.49.49,0,0,1,.49-.49h7.164a.49.49,0,0,1,.49.49v2.812Z" transform="translate(-88.919 -217.106)" fill="none" stroke="#000" stroke-linecap="round" stroke-linejoin="round" stroke-miterlimit="10" stroke-width="1.5"/>
          <path id="Trazado_625476" data-name="Trazado 625476" d="M66.691,318.191H61.466a.469.469,0,0,1-.469-.469v-2.364a.469.469,0,0,1,.469-.469h5.226a.469.469,0,0,1,.469.469v2.364A.469.469,0,0,1,66.691,318.191Z" transform="translate(-55.11 -281.061)" fill="none" stroke="#000" stroke-linecap="round" stroke-linejoin="round" stroke-miterlimit="10" stroke-width="1.5"/>
          <path id="Trazado_625478" data-name="Trazado 625478" d="M36.614,114.227a1.983,1.983,0,0,1-1.21.427c-1.341,0-2.12-1.655-2.12-3.433a3.351,3.351,0,0,1,.9-2.558" transform="translate(-30.446 -97.53)" fill="none" stroke="#000" stroke-linecap="round" stroke-linejoin="round" stroke-miterlimit="10" stroke-width="1.5"/>
          <path id="Trazado_625479" data-name="Trazado 625479" d="M208.424,114.224a1.983,1.983,0,0,0,1.211.428c1.341,0,2.12-1.655,2.12-3.433a3.35,3.35,0,0,0-.9-2.558" transform="translate(-186.312 -97.528)" fill="none" stroke="#000" stroke-linecap="round" stroke-linejoin="round" stroke-miterlimit="10" stroke-width="1.5"/>
          <path id="Trazado_625480" data-name="Trazado 625480" d="M80.44,108.755v4.487a7.853,7.853,0,0,1-7.853,7.853h0a7.824,7.824,0,0,1-7.824-7.824v-4.606" transform="translate(-58.461 -97.533)" fill="none" stroke="#000" stroke-linecap="round" stroke-linejoin="round" stroke-miterlimit="10" stroke-width="1.5"/>
          <g id="Grupo_990055" data-name="Grupo 990055" transform="translate(10.727 13.605)">
            <g id="Grupo_990051" data-name="Grupo 990051" transform="translate(2.925 3.574)">
              <path id="Trazado_625481" data-name="Trazado 625481" d="M131.557,163.6a1.62,1.62,0,0,0,.975,0" transform="translate(-131.557 -163.598)" fill="none" stroke="#000" stroke-linecap="round" stroke-linejoin="round" stroke-miterlimit="10" stroke-width="1.5"/>
            </g>
            <g id="Grupo_990053" data-name="Grupo 990053" transform="translate(1.881 5.994)">
              <g id="Grupo_990052" data-name="Grupo 990052">
                <path id="Trazado_625482" data-name="Trazado 625482" d="M125.133,185.587a3.181,3.181,0,0,1-3.064,0" transform="translate(-122.069 -185.587)" fill="none" stroke="#000" stroke-linecap="round" stroke-linejoin="round" stroke-miterlimit="10" stroke-width="1.5"/>
              </g>
            </g>
            <g id="Grupo_990054" data-name="Grupo 990054" transform="translate(0 0)">
              <line id="Línea_236" data-name="Línea 236" y2="0.488" fill="none" stroke="#000" stroke-linecap="round" stroke-linejoin="round" stroke-miterlimit="10" stroke-width="1.5"/>
              <line id="Línea_237" data-name="Línea 237" y2="0.488" transform="translate(6.826)" fill="none" stroke="#000" stroke-linecap="round" stroke-linejoin="round" stroke-miterlimit="10" stroke-width="1.5"/>
            </g>
          </g>
          <path id="Trazado_625483" data-name="Trazado 625483" d="M56.608,15.259V11.515A4.015,4.015,0,0,1,60.623,7.5h9.441a4.015,4.015,0,0,1,4.015,4.015v3.67" transform="translate(-51.204 -7.5)" fill="none" stroke="#000" stroke-linecap="round" stroke-linejoin="round" stroke-miterlimit="10" stroke-width="1.5"/>
          <path id="Trazado_625484" data-name="Trazado 625484" d="M59.477,82.994H39.413a.753.753,0,0,1-.753-.753v-.7a1.631,1.631,0,0,1,1.631-1.631H58.6a1.631,1.631,0,0,1,1.631,1.631v.7A.753.753,0,0,1,59.477,82.994Z" transform="translate(-35.231 -71.944)" fill="none" stroke="#000" stroke-linecap="round" stroke-linejoin="round" stroke-miterlimit="10" stroke-width="1.5"/>
          <path id="Trazado_625485" data-name="Trazado 625485" d="M105.822,53.214H97.309V51.257a1.345,1.345,0,0,1,1.345-1.345h5.823a1.345,1.345,0,0,1,1.345,1.345Z" transform="translate(-87.425 -45.245)" fill="none" stroke="#000" stroke-linecap="round" stroke-linejoin="round" stroke-miterlimit="10" stroke-width="1.5"/>
          <g id="sustancia-quimica-peligrosa" transform="translate(24.952 5.737)">
            <g id="Grupo_990087" data-name="Grupo 990087" transform="translate(5.054 5)">
              <g id="Grupo_990057" data-name="Grupo 990057" transform="translate(0.193 0.193)">
                <circle id="Elipse_5000" data-name="Elipse 5000" cx="8.641" cy="8.641" r="8.641" fill="#343434"/>
              </g>
              <g id="Grupo_990058" data-name="Grupo 990058">
                <path id="Trazado_625486" data-name="Trazado 625486" d="M13.974,22.668a8.834,8.834,0,1,1,8.834-8.834A8.844,8.844,0,0,1,13.974,22.668Zm0-17.281a8.447,8.447,0,1,0,8.447,8.447A8.456,8.456,0,0,0,13.974,5.387Z" transform="translate(-5.14 -5)"/>
              </g>
              <g id="Grupo_990059" data-name="Grupo 990059" transform="translate(1.612 1.612)">
                <circle id="Elipse_5001" data-name="Elipse 5001" cx="7.222" cy="7.222" r="7.222" fill="#5cc1e6"/>
              </g>
              <g id="Grupo_990060" data-name="Grupo 990060" transform="translate(1.419 1.419)">
                <path id="Trazado_625487" data-name="Trazado 625487" d="M16.225,23.5a7.415,7.415,0,1,1,7.415-7.415A7.424,7.424,0,0,1,16.225,23.5Zm0-14.444a7.029,7.029,0,1,0,7.025,7.029A7.04,7.04,0,0,0,16.225,9.057Z" transform="translate(-8.81 -8.67)"/>
              </g>
              <g id="Grupo_990063" data-name="Grupo 990063" transform="translate(10.446 11.737)">
                <g id="Grupo_990061" data-name="Grupo 990061" transform="translate(0.193 0.193)">
                  <path id="Trazado_625488" data-name="Trazado 625488" d="M34.663,36.861a1,1,0,1,1-1-1A1,1,0,0,1,34.663,36.861Z" transform="translate(-32.66 -35.86)" fill="#e6e6e6"/>
                </g>
                <g id="Grupo_990062" data-name="Grupo 990062">
                  <path id="Trazado_625489" data-name="Trazado 625489" d="M33.355,37.749a1.195,1.195,0,1,1,1.195-1.195A1.2,1.2,0,0,1,33.355,37.749Zm0-2a.808.808,0,1,0,.808.808A.81.81,0,0,0,33.355,35.747Z" transform="translate(-32.16 -35.36)"/>
                </g>
              </g>
              <g id="Grupo_990066" data-name="Grupo 990066" transform="translate(3.858 7.098)">
                <g id="Grupo_990064" data-name="Grupo 990064" transform="translate(0.193 0.197)">
                  <path id="Trazado_625490" data-name="Trazado 625490" d="M17.623,24.871a1,1,0,1,1-1-1A1,1,0,0,1,17.623,24.871Z" transform="translate(-15.62 -23.87)" fill="#e6e6e6"/>
                </g>
                <g id="Grupo_990065" data-name="Grupo 990065">
                  <path id="Trazado_625491" data-name="Trazado 625491" d="M16.315,25.749a1.195,1.195,0,1,1,1.195-1.195A1.2,1.2,0,0,1,16.315,25.749Zm0-2a.808.808,0,1,0,.808.808A.81.81,0,0,0,16.315,23.75Z" transform="translate(-15.12 -23.36)"/>
                </g>
              </g>
              <g id="Grupo_990069" data-name="Grupo 990069" transform="translate(9.279 6.267)">
                <g id="Grupo_990067" data-name="Grupo 990067" transform="translate(0.193 0.193)">
                  <path id="Trazado_625492" data-name="Trazado 625492" d="M30.97,22.375a.665.665,0,1,1-.665-.665A.665.665,0,0,1,30.97,22.375Z" transform="translate(-29.64 -21.71)" fill="#e6e6e6"/>
                </g>
                <g id="Grupo_990068" data-name="Grupo 990068">
                  <path id="Trazado_625493" data-name="Trazado 625493" d="M30,22.927a.858.858,0,1,1,.858-.858.861.861,0,0,1-.858.858Zm0-1.33a.472.472,0,1,0,.472.472A.474.474,0,0,0,30,21.6Z" transform="translate(-29.14 -21.21)"/>
                </g>
              </g>
              <g id="Grupo_990072" data-name="Grupo 990072" transform="translate(6.116 3.325)">
                <g id="Grupo_990070" data-name="Grupo 990070" transform="translate(0.193 0.193)">
                  <path id="Trazado_625494" data-name="Trazado 625494" d="M22.79,14.765a.665.665,0,1,1-.665-.665A.665.665,0,0,1,22.79,14.765Z" transform="translate(-21.46 -14.1)" fill="#e6e6e6"/>
                </g>
                <g id="Grupo_990071" data-name="Grupo 990071">
                  <path id="Trazado_625495" data-name="Trazado 625495" d="M21.818,15.317a.858.858,0,1,1,.858-.858A.861.861,0,0,1,21.818,15.317Zm0-1.33a.472.472,0,1,0,.472.472A.474.474,0,0,0,21.818,13.987Z" transform="translate(-20.96 -13.6)"/>
                </g>
              </g>
              <g id="Grupo_990075" data-name="Grupo 990075" transform="translate(5.656 12.097)">
                <g id="Grupo_990073" data-name="Grupo 990073" transform="translate(0.197 0.193)">
                  <path id="Trazado_625496" data-name="Trazado 625496" d="M21.564,37.432a.642.642,0,1,1-.642-.642A.64.64,0,0,1,21.564,37.432Z" transform="translate(-20.28 -36.79)" fill="#e6e6e6"/>
                </g>
                <g id="Grupo_990074" data-name="Grupo 990074">
                  <path id="Trazado_625497" data-name="Trazado 625497" d="M20.605,37.96a.835.835,0,1,1,.835-.835A.837.837,0,0,1,20.605,37.96Zm0-1.284a.448.448,0,1,0,.448.448A.444.444,0,0,0,20.605,36.677Z" transform="translate(-19.77 -36.29)"/>
                </g>
              </g>
              <g id="Grupo_990078" data-name="Grupo 990078" transform="translate(12.882 7.462)">
                <g id="Grupo_990076" data-name="Grupo 990076" transform="translate(0.193 0.193)">
                  <path id="Trazado_625498" data-name="Trazado 625498" d="M40.244,25.442A.642.642,0,1,1,39.6,24.8.64.64,0,0,1,40.244,25.442Z" transform="translate(-38.96 -24.8)" fill="#e6e6e6"/>
                </g>
                <g id="Grupo_990077" data-name="Grupo 990077">
                  <path id="Trazado_625499" data-name="Trazado 625499" d="M39.3,25.97a.835.835,0,1,1,.835-.835A.837.837,0,0,1,39.3,25.97Zm0-1.287a.448.448,0,1,0,.448.448A.449.449,0,0,0,39.3,24.683Z" transform="translate(-38.46 -24.3)"/>
                </g>
              </g>
              <g id="Grupo_990079" data-name="Grupo 990079" transform="translate(9.006 13.109)">
                <path id="Trazado_625500" data-name="Trazado 625500" d="M28.672,40.9a.2.2,0,0,1-.189-.151,2.009,2.009,0,0,1,.468-1.782.194.194,0,0,1,.286.263,1.637,1.637,0,0,0-.379,1.438.2.2,0,0,1-.147.232Z" transform="translate(-28.434 -38.908)"/>
              </g>
              <g id="Grupo_990080" data-name="Grupo 990080" transform="translate(12.612 10.272)">
                <path id="Trazado_625501" data-name="Trazado 625501" d="M37.954,32.238a.186.186,0,0,1-.162-.089.191.191,0,0,1,.062-.267A2.084,2.084,0,0,1,39.33,31.6a.193.193,0,0,1-.07.379,1.673,1.673,0,0,0-1.2.228A.3.3,0,0,1,37.954,32.238Z" transform="translate(-37.761 -31.569)"/>
              </g>
              <g id="Grupo_990081" data-name="Grupo 990081" transform="translate(8.939 9.738)">
                <path id="Trazado_625502" data-name="Trazado 625502" d="M28.585,31.5a.2.2,0,0,1-.182-.124,2.244,2.244,0,0,1-.131-1.009.194.194,0,0,1,.387.039,1.863,1.863,0,0,0,.108.835.189.189,0,0,1-.112.247.219.219,0,0,1-.07.012Z" transform="translate(-28.261 -30.189)"/>
              </g>
              <g id="Grupo_990082" data-name="Grupo 990082" transform="translate(6.878 6.873)">
                <path id="Trazado_625503" data-name="Trazado 625503" d="M23.255,24.086a.2.2,0,0,1-.182-.124,2.244,2.244,0,0,1-.131-1.009.194.194,0,0,1,.387.039,1.863,1.863,0,0,0,.108.835.189.189,0,0,1-.112.247A.238.238,0,0,1,23.255,24.086Z" transform="translate(-22.931 -22.779)"/>
              </g>
              <g id="Grupo_990083" data-name="Grupo 990083" transform="translate(11.861 5.469)">
                <path id="Trazado_625504" data-name="Trazado 625504" d="M36.013,20.358a.168.168,0,0,1-.073-.015.189.189,0,0,1-.1-.251,1.656,1.656,0,0,1,1-.936.192.192,0,0,1,.244.124.189.189,0,0,1-.124.244,1.266,1.266,0,0,0-.762.715A.187.187,0,0,1,36.013,20.358Z" transform="translate(-35.819 -19.147)"/>
              </g>
              <g id="Grupo_990084" data-name="Grupo 990084" transform="translate(8.799 3.828)">
                <path id="Trazado_625505" data-name="Trazado 625505" d="M28.093,16.116a.167.167,0,0,1-.073-.015.189.189,0,0,1-.1-.251,1.656,1.656,0,0,1,1-.936.193.193,0,0,1,.12.367,1.266,1.266,0,0,0-.762.715A.193.193,0,0,1,28.093,16.116Z" transform="translate(-27.899 -14.903)"/>
              </g>
              <g id="Grupo_990085" data-name="Grupo 990085" transform="translate(3.862 11.045)">
                <path id="Trazado_625506" data-name="Trazado 625506" d="M15.7,34.122a.173.173,0,0,1-.077-.015l-.379-.166a.194.194,0,1,1,.155-.356l.379.166a.194.194,0,0,1-.077.371Z" transform="translate(-15.129 -33.569)"/>
              </g>
              <g id="Grupo_990086" data-name="Grupo 990086" transform="translate(3.862 5.385)">
                <path id="Trazado_625507" data-name="Trazado 625507" d="M15.7,19.482a.173.173,0,0,1-.077-.015l-.379-.166a.194.194,0,1,1,.155-.356l.379.166a.194.194,0,0,1-.077.371Z" transform="translate(-15.129 -18.929)"/>
              </g>
            </g>
            <g id="Grupo_990100" data-name="Grupo 990100" transform="translate(17.449 10.436)">
              <g id="Grupo_990088" data-name="Grupo 990088" transform="translate(0.193 0.193)">
                <path id="Trazado_625508" data-name="Trazado 625508" d="M49.608,25.514a5.954,5.954,0,1,1-5.954-5.954A5.954,5.954,0,0,1,49.608,25.514Z" transform="translate(-37.7 -19.56)" fill="#ffe200"/>
              </g>
              <g id="Grupo_990089" data-name="Grupo 990089">
                <path id="Trazado_625509" data-name="Trazado 625509" d="M43.347,31.354a6.147,6.147,0,1,1,6.147-6.147A6.155,6.155,0,0,1,43.347,31.354Zm0-11.9a5.76,5.76,0,1,0,5.76,5.76,5.767,5.767,0,0,0-5.76-5.76Z" transform="translate(-37.2 -19.06)"/>
              </g>
              <g id="Grupo_990094" data-name="Grupo 990094" transform="translate(2.204 2.729)">
                <g id="Grupo_990090" data-name="Grupo 990090">
                  <path id="Trazado_625510" data-name="Trazado 625510" d="M46.256,28.517a1.173,1.173,0,0,0-.588,1.021H42.9a3.94,3.94,0,0,1,1.976-3.418Z" transform="translate(-42.9 -26.12)" fill="#343434"/>
                </g>
                <g id="Grupo_990091" data-name="Grupo 990091" transform="translate(4.539)">
                  <path id="Trazado_625511" data-name="Trazado 625511" d="M58,29.538H55.228a1.178,1.178,0,0,0-.588-1.021l1.384-2.4A3.961,3.961,0,0,1,58,29.538Z" transform="translate(-54.64 -26.12)" fill="#343434"/>
                </g>
                <g id="Grupo_990092" data-name="Grupo 990092" transform="translate(1.972 4.438)">
                  <path id="Trazado_625512" data-name="Trazado 625512" d="M51.943,40A3.935,3.935,0,0,1,48,40l1.384-2.4a1.169,1.169,0,0,0,1.175,0Z" transform="translate(-48 -37.6)" fill="#343434"/>
                </g>
                <g id="Grupo_990093" data-name="Grupo 990093" transform="translate(2.768 2.242)">
                  <path id="Trazado_625513" data-name="Trazado 625513" d="M52.411,33.1a1.175,1.175,0,1,1-1.175-1.175A1.175,1.175,0,0,1,52.411,33.1Z" transform="translate(-50.06 -31.92)" fill="#343434"/>
                </g>
              </g>
              <g id="Grupo_990099" data-name="Grupo 990099" transform="translate(2.01 2.536)">
                <g id="Grupo_990095" data-name="Grupo 990095" transform="translate(0 0.002)">
                  <path id="Trazado_625514" data-name="Trazado 625514" d="M45.361,29.427H42.593a.191.191,0,0,1-.193-.193,4.148,4.148,0,0,1,2.072-3.584.193.193,0,0,1,.147-.019.181.181,0,0,1,.116.089l1.384,2.4a.2.2,0,0,1,.019.147.175.175,0,0,1-.093.116.979.979,0,0,0-.491.851A.192.192,0,0,1,45.361,29.427ZM42.79,29.04h2.393a1.362,1.362,0,0,1,.51-.885L44.5,26.086A3.763,3.763,0,0,0,42.79,29.04Z" transform="translate(-42.4 -25.624)"/>
                </g>
                <g id="Grupo_990096" data-name="Grupo 990096" transform="translate(4.535)">
                  <path id="Trazado_625515" data-name="Trazado 625515" d="M57.68,29.424H54.912a.191.191,0,0,1-.193-.193.987.987,0,0,0-.491-.854.191.191,0,0,1-.07-.263l1.384-2.4a.2.2,0,0,1,.116-.089.18.18,0,0,1,.147.019,4.158,4.158,0,0,1,2.072,3.584A.2.2,0,0,1,57.68,29.424Zm-2.59-.387h2.393a3.768,3.768,0,0,0-1.709-2.954l-1.195,2.068A1.381,1.381,0,0,1,55.089,29.037Z" transform="translate(-54.131 -25.62)"/>
                </g>
                <g id="Grupo_990097" data-name="Grupo 990097" transform="translate(1.972 4.439)">
                  <path id="Trazado_625516" data-name="Trazado 625516" d="M49.666,40.414a4.127,4.127,0,0,1-2.068-.557.191.191,0,0,1-.07-.263l1.384-2.4a.191.191,0,0,1,.263-.07,1,1,0,0,0,.986,0,.191.191,0,0,1,.263.07l1.384,2.4a.191.191,0,0,1-.07.263A4.152,4.152,0,0,1,49.666,40.414Zm-1.7-.8a3.783,3.783,0,0,0,3.41,0L50.18,37.549a1.37,1.37,0,0,1-1.021,0Z" transform="translate(-47.501 -37.101)"/>
                </g>
                <g id="Grupo_990098" data-name="Grupo 990098" transform="translate(2.768 2.242)">
                  <path id="Trazado_625517" data-name="Trazado 625517" d="M50.929,34.157A1.369,1.369,0,1,1,52.3,32.789,1.371,1.371,0,0,1,50.929,34.157Zm0-2.351a.982.982,0,1,0,.982.982A.983.983,0,0,0,50.929,31.807Z" transform="translate(-49.56 -31.42)"/>
                </g>
              </g>
            </g>
            <g id="Grupo_990112" data-name="Grupo 990112" transform="translate(5 12.001)">
              <g id="Grupo_990101" data-name="Grupo 990101" transform="translate(0.192 0.191)">
                <path id="Trazado_625518" data-name="Trazado 625518" d="M23.5,40.962H7.141A1.641,1.641,0,0,1,5.722,38.5L13.9,24.423a1.64,1.64,0,0,1,2.838,0L24.921,38.5A1.64,1.64,0,0,1,23.5,40.962Z" transform="translate(-5.497 -23.605)" fill="#f03535"/>
              </g>
              <g id="Grupo_990102" data-name="Grupo 990102">
                <path id="Trazado_625519" data-name="Trazado 625519" d="M23.2,40.851H6.836a1.835,1.835,0,0,1-1.585-2.757l8.181-14.073a1.833,1.833,0,0,1,3.17,0l8.181,14.073A1.835,1.835,0,0,1,23.2,40.851ZM15.017,23.5a1.44,1.44,0,0,0-1.253.719L5.584,38.288a1.448,1.448,0,0,0,1.253,2.177H23.2a1.448,1.448,0,0,0,1.253-2.177L16.27,24.216a1.44,1.44,0,0,0-1.253-.719Z" transform="translate(-5 -23.11)"/>
              </g>
              <g id="Grupo_990103" data-name="Grupo 990103" transform="translate(2.049 2.08)">
                <path id="Trazado_625520" data-name="Trazado 625520" d="M10.3,42.2,18.268,28.49,26.236,42.2Z" transform="translate(-10.3 -28.49)" fill="#e6e6e6"/>
              </g>
              <g id="Grupo_990104" data-name="Grupo 990104" transform="translate(1.857 1.887)">
                <path id="Trazado_625521" data-name="Trazado 625521" d="M25.931,42.082H9.995a.2.2,0,0,1-.166-.1.192.192,0,0,1,0-.193L17.8,28.087a.2.2,0,0,1,.166-.1.187.187,0,0,1,.166.1L26.1,41.792a.193.193,0,0,1-.166.29Zm-15.6-.387H25.594L17.963,28.566Z" transform="translate(-9.802 -27.99)"/>
              </g>
              <g id="Grupo_990111" data-name="Grupo 990111" transform="translate(8.69 6.623)">
                <g id="Grupo_990107" data-name="Grupo 990107" transform="translate(0.19 0.193)">
                  <g id="Grupo_990105" data-name="Grupo 990105">
                    <path id="Trazado_625522" data-name="Trazado 625522" d="M27.97,40.74l.5,5.5h1.28l.495-5.5Z" transform="translate(-27.97 -40.74)" fill="#ff003b"/>
                  </g>
                  <g id="Grupo_990106" data-name="Grupo 990106" transform="translate(0.499 6.499)">
                    <path id="Trazado_625523" data-name="Trazado 625523" d="M29.26,57.55h1.28v1.28H29.26Z" transform="translate(-29.26 -57.55)" fill="#ff003b"/>
                  </g>
                </g>
                <g id="Grupo_990110" data-name="Grupo 990110">
                  <g id="Grupo_990108" data-name="Grupo 990108">
                    <path id="Trazado_625524" data-name="Trazado 625524" d="M29.447,46.128h-1.28a.2.2,0,0,1-.193-.178l-.495-5.5a.186.186,0,0,1,.05-.147.2.2,0,0,1,.143-.062h2.273a.192.192,0,0,1,.193.209l-.5,5.5A.2.2,0,0,1,29.447,46.128Zm-1.1-.387h.924l.46-5.115H27.881Z" transform="translate(-27.479 -40.24)"/>
                  </g>
                  <g id="Grupo_990109" data-name="Grupo 990109" transform="translate(0.495 6.499)">
                    <path id="Trazado_625525" data-name="Trazado 625525" d="M30.233,58.716h-1.28a.191.191,0,0,1-.193-.193v-1.28a.191.191,0,0,1,.193-.193h1.28a.191.191,0,0,1,.193.193v1.28A.2.2,0,0,1,30.233,58.716Zm-1.086-.387h.893v-.893h-.893Z" transform="translate(-28.76 -57.05)"/>
                  </g>
                </g>
              </g>
            </g>
          </g>
        </g>
      </g>
    </g>
    <g id="inspector-2" data-name="inspector" transform="translate(185.807 4555.5)">
      <path id="Trazado_625450-2" data-name="Trazado 625450" d="M55.042,388.807H14.653A7.153,7.153,0,0,1,7.5,381.653h0a7.153,7.153,0,0,1,7.153-7.153H55.042a7.153,7.153,0,0,1,7.153,7.153h0A7.153,7.153,0,0,1,55.042,388.807Z" transform="translate(0 -326.611)" fill="#7ca1b1"/>
      <path id="Trazado_625451-2" data-name="Trazado 625451" d="M41.352,412.2a3.852,3.852,0,1,1,0-7.7H81.74a3.852,3.852,0,1,1,0,7.7Z" transform="translate(-26.698 -353.31)" fill="#537983"/>
      <circle id="Elipse_4996-2" data-name="Elipse 4996" cx="3.88" cy="3.88" r="3.88" transform="translate(10.41 51.525)" fill="#d9e7ec"/>
      <circle id="Elipse_4997-2" data-name="Elipse 4997" cx="3.88" cy="3.88" r="3.88" transform="translate(51.151 51.525)" fill="#d9e7ec"/>
      <rect id="Rectángulo_344387-2" data-name="Rectángulo 344387" width="22.67" height="7.704" transform="translate(23.512 51.19)" fill="#d9e7ec"/>
      <rect id="Rectángulo_344388-2" data-name="Rectángulo 344388" width="3.302" height="7.704" transform="translate(42.881 51.19)" fill="#c5d3dd"/>
      <path id="Trazado_625452-2" data-name="Trazado 625452" d="M47.487,284.194H27.341a2.117,2.117,0,0,1-2.117-2.117v-3.861a5.19,5.19,0,0,1,5.19-5.19h14a5.19,5.19,0,0,1,5.19,5.19v3.861A2.117,2.117,0,0,1,47.487,284.194Z" transform="translate(-15.773 -236.306)" fill="#465fc4"/>
      <path id="Trazado_625453-2" data-name="Trazado 625453" d="M172.9,273.026h-3.3a5.19,5.19,0,0,1,5.19,5.19v3.861a2.117,2.117,0,0,1-2.117,2.117h3.3a2.117,2.117,0,0,0,2.117-2.117v-3.861A5.19,5.19,0,0,0,172.9,273.026Z" transform="translate(-144.255 -236.305)" fill="#1d3ab1"/>
      <rect id="Rectángulo_344389-2" data-name="Rectángulo 344389" width="4.876" height="5.058" transform="translate(19.202 29.283)" fill="#ffb09e"/>
      <path id="Trazado_625454-2" data-name="Trazado 625454" d="M37.833,107.815c0,1.778-1.087,3.219-2.429,3.219s-2.12-1.655-2.12-3.433.779-3.005,2.12-3.005S37.833,106.037,37.833,107.815Z" transform="translate(-22.946 -86.41)" fill="#ffb09e"/>
      <path id="Trazado_625455-2" data-name="Trazado 625455" d="M197.356,107.815c0,1.778,1.087,3.219,2.429,3.219s2.12-1.655,2.12-3.433-.779-3.005-2.12-3.005S197.356,106.037,197.356,107.815Z" transform="translate(-168.962 -86.41)" fill="#ffb09e"/>
      <path id="Trazado_625456-2" data-name="Trazado 625456" d="M64.763,44V38.664A7.838,7.838,0,0,1,72.6,30.826h0a7.838,7.838,0,0,1,7.838,7.838v5.3a7.853,7.853,0,0,1-7.853,7.853h0A7.823,7.823,0,0,1,64.763,44Z" transform="translate(-50.961 -20.759)" fill="#ffcebf"/>
      <path id="Trazado_625457-2" data-name="Trazado 625457" d="M122.533,30.827h0a7.867,7.867,0,0,0-1.651.176,7.84,7.84,0,0,1,6.188,7.663v5.3a7.855,7.855,0,0,1-6.2,7.677,7.852,7.852,0,0,0,1.649.176h0a7.853,7.853,0,0,0,7.853-7.853v-5.3A7.838,7.838,0,0,0,122.533,30.827Z" transform="translate(-100.893 -20.76)" fill="#ffb09e"/>
      <path id="Trazado_625458-2" data-name="Trazado 625458" d="M107.131,246.328H98.987v-2.812a.49.49,0,0,1,.49-.49h7.164a.49.49,0,0,1,.49.49v2.812Z" transform="translate(-81.419 -209.606)" fill="#f9f3f1"/>
      <path id="Trazado_625459-2" data-name="Trazado 625459" d="M149.449,243.026h-2.438c.232,0,.421.255.421.57v2.732h2.438V243.6C149.87,243.281,149.681,243.026,149.449,243.026Z" transform="translate(-124.158 -209.606)" fill="#f3eae6"/>
      <path id="Trazado_625460-2" data-name="Trazado 625460" d="M66.691,318.191H61.466a.469.469,0,0,1-.469-.469v-2.364a.469.469,0,0,1,.469-.469h5.226a.469.469,0,0,1,.469.469v2.364A.469.469,0,0,1,66.691,318.191Z" transform="translate(-47.61 -273.561)" fill="#f9f3f1"/>
      <path id="Trazado_625461-2" data-name="Trazado 625461" d="M86.041,314.889h-3.3a.469.469,0,0,1,.469.469v2.364a.469.469,0,0,1-.469.469h3.3a.469.469,0,0,0,.469-.469v-2.364A.469.469,0,0,0,86.041,314.889Z" transform="translate(-66.959 -273.561)" fill="#f3eae6"/>
      <path id="Trazado_625462-2" data-name="Trazado 625462" d="M74.08,17.01H56.608V11.515A4.015,4.015,0,0,1,60.623,7.5h9.441a4.015,4.015,0,0,1,4.015,4.015Z" transform="translate(-43.704)" fill="#465fc4"/>
      <path id="Trazado_625463-2" data-name="Trazado 625463" d="M152.185,7.5h-3.3a4.015,4.015,0,0,1,4.015,4.015V17.01h3.3V11.515A4.015,4.015,0,0,0,152.185,7.5Z" transform="translate(-125.824)" fill="#1d3ab1"/>
      <path id="Trazado_625464-2" data-name="Trazado 625464" d="M59.477,82.994H39.413a.753.753,0,0,1-.753-.753v-.7a1.631,1.631,0,0,1,1.631-1.631H58.6a1.631,1.631,0,0,1,1.631,1.631v.7A.753.753,0,0,1,59.477,82.994Z" transform="translate(-27.731 -64.444)" fill="#465fc4"/>
      <path id="Trazado_625465-2" data-name="Trazado 625465" d="M193.144,79.912h-3.3a1.631,1.631,0,0,1,1.631,1.631v.7a.753.753,0,0,1-.753.753h3.3a.753.753,0,0,0,.753-.753v-.7A1.631,1.631,0,0,0,193.144,79.912Z" transform="translate(-162.275 -64.443)" fill="#1d3ab1"/>
      <path id="Trazado_625467-2" data-name="Trazado 625467" d="M105.822,53.214H97.309V51.257a1.345,1.345,0,0,1,1.345-1.345h5.823a1.345,1.345,0,0,1,1.345,1.345Z" transform="translate(-79.925 -37.745)" fill="#fedba6"/>
      <g id="Grupo_990056-2" data-name="Grupo 990056" transform="translate(7.5 7.5)">
        <path id="Trazado_625472-2" data-name="Trazado 625472" d="M20.015,388.807H14.653A7.153,7.153,0,0,1,7.5,381.653h0a7.153,7.153,0,0,1,7.153-7.153H55.042a7.153,7.153,0,0,1,7.153,7.153h0a7.153,7.153,0,0,1-7.153,7.153H24.078" transform="translate(-7.5 -334.111)" fill="none" stroke="#000" stroke-linecap="round" stroke-linejoin="round" stroke-miterlimit="10" stroke-width="1.5"/>
        <path id="Trazado_625473-2" data-name="Trazado 625473" d="M41.352,412.2a3.852,3.852,0,1,1,0-7.7H81.74a3.852,3.852,0,1,1,0,7.7Z" transform="translate(-34.198 -360.81)" fill="none" stroke="#000" stroke-linecap="round" stroke-linejoin="round" stroke-miterlimit="10" stroke-width="1.5"/>
        <circle id="Elipse_4998-2" data-name="Elipse 4998" cx="3.88" cy="3.88" r="3.88" transform="translate(2.91 44.025)" fill="none" stroke="#000" stroke-linecap="round" stroke-linejoin="round" stroke-miterlimit="10" stroke-width="1.5"/>
        <circle id="Elipse_4999-2" data-name="Elipse 4999" cx="3.88" cy="3.88" r="3.88" transform="translate(43.651 44.025)" fill="none" stroke="#000" stroke-linecap="round" stroke-linejoin="round" stroke-miterlimit="10" stroke-width="1.5"/>
        <rect id="Rectángulo_344390-2" data-name="Rectángulo 344390" width="22.67" height="7.704" transform="translate(16.012 43.69)" fill="none" stroke="#000" stroke-linecap="round" stroke-linejoin="round" stroke-miterlimit="10" stroke-width="1.5"/>
        <g id="Grupo_990049-2" data-name="Grupo 990049" transform="translate(23.119 47.102)">
          <line id="Línea_229-2" data-name="Línea 229" y2="0.88" fill="none" stroke="#000" stroke-linecap="round" stroke-linejoin="round" stroke-miterlimit="10" stroke-width="1.5"/>
          <line id="Línea_230-2" data-name="Línea 230" y2="0.88" transform="translate(4.229)" fill="none" stroke="#000" stroke-linecap="round" stroke-linejoin="round" stroke-miterlimit="10" stroke-width="1.5"/>
          <line id="Línea_231-2" data-name="Línea 231" y2="0.88" transform="translate(8.458)" fill="none" stroke="#000" stroke-linecap="round" stroke-linejoin="round" stroke-miterlimit="10" stroke-width="1.5"/>
        </g>
        <g id="Grupo_990050-2" data-name="Grupo 990050" transform="translate(6.979 47.542)">
          <line id="Línea_232-2" data-name="Línea 232" x2="0.348" fill="none" stroke="#000" stroke-linecap="round" stroke-linejoin="round" stroke-miterlimit="10" stroke-width="1.5"/>
          <line id="Línea_233-2" data-name="Línea 233" x2="0.348" transform="translate(40.389)" fill="none" stroke="#000" stroke-linecap="round" stroke-linejoin="round" stroke-miterlimit="10" stroke-width="1.5"/>
        </g>
        <path id="Trazado_625474-2" data-name="Trazado 625474" d="M47.487,284.194H27.341a2.117,2.117,0,0,1-2.117-2.117v-3.861a5.19,5.19,0,0,1,5.19-5.19h14a5.19,5.19,0,0,1,5.19,5.19v3.861A2.117,2.117,0,0,1,47.487,284.194Z" transform="translate(-23.273 -243.806)" fill="none" stroke="#000" stroke-linecap="round" stroke-linejoin="round" stroke-miterlimit="10" stroke-width="1.5"/>
        <line id="Línea_234-2" data-name="Línea 234" y1="2.208" transform="translate(11.702 23.563)" fill="none" stroke="#000" stroke-linecap="round" stroke-linejoin="round" stroke-miterlimit="10" stroke-width="1.5"/>
        <line id="Línea_235-2" data-name="Línea 235" y2="2.208" transform="translate(16.578 23.563)" fill="none" stroke="#000" stroke-linecap="round" stroke-linejoin="round" stroke-miterlimit="10" stroke-width="1.5"/>
        <path id="Trazado_625475-2" data-name="Trazado 625475" d="M107.131,246.328H98.987v-2.812a.49.49,0,0,1,.49-.49h7.164a.49.49,0,0,1,.49.49v2.812Z" transform="translate(-88.919 -217.106)" fill="none" stroke="#000" stroke-linecap="round" stroke-linejoin="round" stroke-miterlimit="10" stroke-width="1.5"/>
        <path id="Trazado_625476-2" data-name="Trazado 625476" d="M66.691,318.191H61.466a.469.469,0,0,1-.469-.469v-2.364a.469.469,0,0,1,.469-.469h5.226a.469.469,0,0,1,.469.469v2.364A.469.469,0,0,1,66.691,318.191Z" transform="translate(-55.11 -281.061)" fill="none" stroke="#000" stroke-linecap="round" stroke-linejoin="round" stroke-miterlimit="10" stroke-width="1.5"/>
        <path id="Trazado_625478-2" data-name="Trazado 625478" d="M36.614,114.227a1.983,1.983,0,0,1-1.21.427c-1.341,0-2.12-1.655-2.12-3.433a3.351,3.351,0,0,1,.9-2.558" transform="translate(-30.446 -97.53)" fill="none" stroke="#000" stroke-linecap="round" stroke-linejoin="round" stroke-miterlimit="10" stroke-width="1.5"/>
        <path id="Trazado_625479-2" data-name="Trazado 625479" d="M208.424,114.224a1.983,1.983,0,0,0,1.211.428c1.341,0,2.12-1.655,2.12-3.433a3.35,3.35,0,0,0-.9-2.558" transform="translate(-186.312 -97.528)" fill="none" stroke="#000" stroke-linecap="round" stroke-linejoin="round" stroke-miterlimit="10" stroke-width="1.5"/>
        <path id="Trazado_625480-2" data-name="Trazado 625480" d="M80.44,108.755v4.487a7.853,7.853,0,0,1-7.853,7.853h0a7.824,7.824,0,0,1-7.824-7.824v-4.606" transform="translate(-58.461 -97.533)" fill="none" stroke="#000" stroke-linecap="round" stroke-linejoin="round" stroke-miterlimit="10" stroke-width="1.5"/>
        <g id="Grupo_990055-2" data-name="Grupo 990055" transform="translate(10.727 13.605)">
          <g id="Grupo_990051-2" data-name="Grupo 990051" transform="translate(2.925 3.574)">
            <path id="Trazado_625481-2" data-name="Trazado 625481" d="M131.557,163.6a1.62,1.62,0,0,0,.975,0" transform="translate(-131.557 -163.598)" fill="none" stroke="#000" stroke-linecap="round" stroke-linejoin="round" stroke-miterlimit="10" stroke-width="1.5"/>
          </g>
          <g id="Grupo_990053-2" data-name="Grupo 990053" transform="translate(1.881 5.994)">
            <g id="Grupo_990052-2" data-name="Grupo 990052">
              <path id="Trazado_625482-2" data-name="Trazado 625482" d="M125.133,185.587a3.181,3.181,0,0,1-3.064,0" transform="translate(-122.069 -185.587)" fill="none" stroke="#000" stroke-linecap="round" stroke-linejoin="round" stroke-miterlimit="10" stroke-width="1.5"/>
            </g>
          </g>
          <g id="Grupo_990054-2" data-name="Grupo 990054" transform="translate(0 0)">
            <line id="Línea_236-2" data-name="Línea 236" y2="0.488" fill="none" stroke="#000" stroke-linecap="round" stroke-linejoin="round" stroke-miterlimit="10" stroke-width="1.5"/>
            <line id="Línea_237-2" data-name="Línea 237" y2="0.488" transform="translate(6.826)" fill="none" stroke="#000" stroke-linecap="round" stroke-linejoin="round" stroke-miterlimit="10" stroke-width="1.5"/>
          </g>
        </g>
        <path id="Trazado_625483-2" data-name="Trazado 625483" d="M56.608,15.259V11.515A4.015,4.015,0,0,1,60.623,7.5h9.441a4.015,4.015,0,0,1,4.015,4.015v3.67" transform="translate(-51.204 -7.5)" fill="none" stroke="#000" stroke-linecap="round" stroke-linejoin="round" stroke-miterlimit="10" stroke-width="1.5"/>
        <path id="Trazado_625484-2" data-name="Trazado 625484" d="M59.477,82.994H39.413a.753.753,0,0,1-.753-.753v-.7a1.631,1.631,0,0,1,1.631-1.631H58.6a1.631,1.631,0,0,1,1.631,1.631v.7A.753.753,0,0,1,59.477,82.994Z" transform="translate(-35.231 -71.944)" fill="none" stroke="#000" stroke-linecap="round" stroke-linejoin="round" stroke-miterlimit="10" stroke-width="1.5"/>
        <path id="Trazado_625485-2" data-name="Trazado 625485" d="M105.822,53.214H97.309V51.257a1.345,1.345,0,0,1,1.345-1.345h5.823a1.345,1.345,0,0,1,1.345,1.345Z" transform="translate(-87.425 -45.245)" fill="none" stroke="#000" stroke-linecap="round" stroke-linejoin="round" stroke-miterlimit="10" stroke-width="1.5"/>
        <g id="sustancia-quimica-peligrosa-2" data-name="sustancia-quimica-peligrosa" transform="translate(28.577 5.737)">
          <g id="Grupo_990087-2" data-name="Grupo 990087" transform="translate(5.048 5)">
            <g id="Grupo_990057-2" data-name="Grupo 990057" transform="translate(0.172 0.172)">
              <circle id="Elipse_5000-2" data-name="Elipse 5000" cx="7.704" cy="7.704" r="7.704" fill="#343434"/>
            </g>
            <g id="Grupo_990058-2" data-name="Grupo 990058">
              <path id="Trazado_625486-2" data-name="Trazado 625486" d="M13.017,20.753a7.877,7.877,0,1,1,7.877-7.877A7.885,7.885,0,0,1,13.017,20.753Zm0-15.409a7.532,7.532,0,1,0,7.532,7.532A7.54,7.54,0,0,0,13.017,5.345Z" transform="translate(-5.14 -5)"/>
            </g>
            <g id="Grupo_990059-2" data-name="Grupo 990059" transform="translate(1.437 1.437)">
              <circle id="Elipse_5001-2" data-name="Elipse 5001" cx="6.439" cy="6.439" r="6.439" fill="#5cc1e6"/>
            </g>
            <g id="Grupo_990060-2" data-name="Grupo 990060" transform="translate(1.265 1.265)">
              <path id="Trazado_625487-2" data-name="Trazado 625487" d="M15.422,21.893a6.612,6.612,0,1,1,6.612-6.612A6.619,6.619,0,0,1,15.422,21.893Zm0-12.878a6.267,6.267,0,1,0,6.263,6.267A6.277,6.277,0,0,0,15.422,9.015Z" transform="translate(-8.81 -8.67)"/>
            </g>
            <g id="Grupo_990063-2" data-name="Grupo 990063" transform="translate(9.314 10.465)">
              <g id="Grupo_990061-2" data-name="Grupo 990061" transform="translate(0.172 0.172)">
                <path id="Trazado_625488-2" data-name="Trazado 625488" d="M34.446,36.753a.893.893,0,1,1-.893-.893A.893.893,0,0,1,34.446,36.753Z" transform="translate(-32.66 -35.86)" fill="#e6e6e6"/>
              </g>
              <g id="Grupo_990062-2" data-name="Grupo 990062">
                <path id="Trazado_625489-2" data-name="Trazado 625489" d="M33.225,37.49a1.065,1.065,0,1,1,1.065-1.065A1.066,1.066,0,0,1,33.225,37.49Zm0-1.786a.72.72,0,1,0,.72.72A.722.722,0,0,0,33.225,35.7Z" transform="translate(-32.16 -35.36)"/>
              </g>
            </g>
            <g id="Grupo_990066-2" data-name="Grupo 990066" transform="translate(3.44 6.329)">
              <g id="Grupo_990064-2" data-name="Grupo 990064" transform="translate(0.172 0.176)">
                <path id="Trazado_625490-2" data-name="Trazado 625490" d="M17.406,24.763a.893.893,0,1,1-.893-.893A.893.893,0,0,1,17.406,24.763Z" transform="translate(-15.62 -23.87)" fill="#e6e6e6"/>
              </g>
              <g id="Grupo_990065-2" data-name="Grupo 990065">
                <path id="Trazado_625491-2" data-name="Trazado 625491" d="M16.185,25.49a1.065,1.065,0,1,1,1.065-1.065A1.066,1.066,0,0,1,16.185,25.49Zm0-1.782a.72.72,0,1,0,.72.72A.722.722,0,0,0,16.185,23.708Z" transform="translate(-15.12 -23.36)"/>
              </g>
            </g>
            <g id="Grupo_990069-2" data-name="Grupo 990069" transform="translate(8.273 5.588)">
              <g id="Grupo_990067-2" data-name="Grupo 990067" transform="translate(0.172 0.172)">
                <path id="Trazado_625492-2" data-name="Trazado 625492" d="M30.826,22.3a.593.593,0,1,1-.593-.593A.593.593,0,0,1,30.826,22.3Z" transform="translate(-29.64 -21.71)" fill="#e6e6e6"/>
              </g>
              <g id="Grupo_990068-2" data-name="Grupo 990068">
                <path id="Trazado_625493-2" data-name="Trazado 625493" d="M29.905,22.741a.765.765,0,1,1,.765-.765.768.768,0,0,1-.765.765Zm0-1.186a.421.421,0,1,0,.421.421.422.422,0,0,0-.421-.421Z" transform="translate(-29.14 -21.21)"/>
              </g>
            </g>
            <g id="Grupo_990072-2" data-name="Grupo 990072" transform="translate(5.453 2.965)">
              <g id="Grupo_990070-2" data-name="Grupo 990070" transform="translate(0.172 0.172)">
                <path id="Trazado_625494-2" data-name="Trazado 625494" d="M22.646,14.693a.593.593,0,1,1-.593-.593.593.593,0,0,1,.593.593Z" transform="translate(-21.46 -14.1)" fill="#e6e6e6"/>
              </g>
              <g id="Grupo_990071-2" data-name="Grupo 990071">
                <path id="Trazado_625495-2" data-name="Trazado 625495" d="M21.725,15.131a.765.765,0,1,1,.765-.765A.768.768,0,0,1,21.725,15.131Zm0-1.186a.421.421,0,1,0,.421.421A.422.422,0,0,0,21.725,13.945Z" transform="translate(-20.96 -13.6)"/>
              </g>
            </g>
            <g id="Grupo_990075-2" data-name="Grupo 990075" transform="translate(5.043 10.786)">
              <g id="Grupo_990073-2" data-name="Grupo 990073" transform="translate(0.176 0.172)">
                <path id="Trazado_625496-2" data-name="Trazado 625496" d="M21.424,37.362a.572.572,0,1,1-.572-.572A.571.571,0,0,1,21.424,37.362Z" transform="translate(-20.28 -36.79)" fill="#e6e6e6"/>
              </g>
              <g id="Grupo_990074-2" data-name="Grupo 990074">
                <path id="Trazado_625497-2" data-name="Trazado 625497" d="M20.515,37.779a.745.745,0,1,1,.745-.745A.746.746,0,0,1,20.515,37.779Zm0-1.144a.4.4,0,1,0,.4.4A.4.4,0,0,0,20.515,36.635Z" transform="translate(-19.77 -36.29)"/>
              </g>
            </g>
            <g id="Grupo_990078-2" data-name="Grupo 990078" transform="translate(11.486 6.653)">
              <g id="Grupo_990076-2" data-name="Grupo 990076" transform="translate(0.172 0.172)">
                <path id="Trazado_625498-2" data-name="Trazado 625498" d="M40.1,25.372a.572.572,0,1,1-.572-.572A.571.571,0,0,1,40.1,25.372Z" transform="translate(-38.96 -24.8)" fill="#e6e6e6"/>
              </g>
              <g id="Grupo_990077-2" data-name="Grupo 990077">
                <path id="Trazado_625499-2" data-name="Trazado 625499" d="M39.2,25.789a.745.745,0,1,1,.745-.745A.746.746,0,0,1,39.2,25.789Zm0-1.148a.4.4,0,1,0,.4.4A.4.4,0,0,0,39.2,24.641Z" transform="translate(-38.46 -24.3)"/>
              </g>
            </g>
            <g id="Grupo_990079-2" data-name="Grupo 990079" transform="translate(8.03 11.689)">
              <path id="Trazado_625500-2" data-name="Trazado 625500" d="M28.647,40.688a.176.176,0,0,1-.169-.134,1.792,1.792,0,0,1,.417-1.589.173.173,0,0,1,.255.234,1.46,1.46,0,0,0-.338,1.282.173.173,0,0,1-.131.207Z" transform="translate(-28.434 -38.908)"/>
            </g>
            <g id="Grupo_990080-2" data-name="Grupo 990080" transform="translate(11.245 9.158)">
              <path id="Trazado_625501-2" data-name="Trazado 625501" d="M37.933,32.165a.166.166,0,0,1-.145-.079.171.171,0,0,1,.055-.238A1.858,1.858,0,0,1,39.16,31.6a.172.172,0,0,1-.062.338,1.492,1.492,0,0,0-1.069.2A.265.265,0,0,1,37.933,32.165Z" transform="translate(-37.761 -31.569)"/>
            </g>
            <g id="Grupo_990081-2" data-name="Grupo 990081" transform="translate(7.97 8.683)">
              <path id="Trazado_625502-2" data-name="Trazado 625502" d="M28.55,31.354a.175.175,0,0,1-.162-.11,2,2,0,0,1-.117-.9.173.173,0,1,1,.345.034,1.661,1.661,0,0,0,.1.745.168.168,0,0,1-.1.221.2.2,0,0,1-.062.01Z" transform="translate(-28.261 -30.189)"/>
            </g>
            <g id="Grupo_990082-2" data-name="Grupo 990082" transform="translate(6.133 6.128)">
              <path id="Trazado_625503-2" data-name="Trazado 625503" d="M23.22,23.944a.175.175,0,0,1-.162-.11,2,2,0,0,1-.117-.9.173.173,0,1,1,.345.034,1.661,1.661,0,0,0,.1.745.168.168,0,0,1-.1.221A.212.212,0,0,1,23.22,23.944Z" transform="translate(-22.931 -22.779)"/>
            </g>
            <g id="Grupo_990083-2" data-name="Grupo 990083" transform="translate(10.575 4.877)">
              <path id="Trazado_625504-2" data-name="Trazado 625504" d="M35.992,20.227a.149.149,0,0,1-.065-.014.168.168,0,0,1-.093-.224,1.477,1.477,0,0,1,.889-.834.171.171,0,0,1,.217.11.169.169,0,0,1-.11.217,1.129,1.129,0,0,0-.679.638A.167.167,0,0,1,35.992,20.227Z" transform="translate(-35.819 -19.147)"/>
            </g>
            <g id="Grupo_990084-2" data-name="Grupo 990084" transform="translate(7.845 3.414)">
              <path id="Trazado_625505-2" data-name="Trazado 625505" d="M28.072,15.984a.149.149,0,0,1-.065-.014.168.168,0,0,1-.093-.224,1.477,1.477,0,0,1,.889-.834.172.172,0,0,1,.107.327,1.129,1.129,0,0,0-.679.638A.172.172,0,0,1,28.072,15.984Z" transform="translate(-27.899 -14.903)"/>
            </g>
            <g id="Grupo_990085-2" data-name="Grupo 990085" transform="translate(3.443 9.848)">
              <path id="Trazado_625506-2" data-name="Trazado 625506" d="M15.64,34.062a.154.154,0,0,1-.069-.014l-.338-.148a.173.173,0,0,1,.138-.317l.338.148a.173.173,0,0,1-.069.331Z" transform="translate(-15.129 -33.569)"/>
            </g>
            <g id="Grupo_990086-2" data-name="Grupo 990086" transform="translate(3.443 4.802)">
              <path id="Trazado_625507-2" data-name="Trazado 625507" d="M15.64,19.422a.154.154,0,0,1-.069-.014l-.338-.148a.173.173,0,0,1,.138-.317l.338.148a.173.173,0,0,1-.069.331Z" transform="translate(-15.129 -18.929)"/>
            </g>
          </g>
          <g id="Grupo_990100-2" data-name="Grupo 990100" transform="translate(16.1 9.847)">
            <g id="Grupo_990088-2" data-name="Grupo 990088" transform="translate(0.172 0.172)">
              <path id="Trazado_625508-2" data-name="Trazado 625508" d="M48.317,24.869a5.309,5.309,0,1,1-5.309-5.309A5.309,5.309,0,0,1,48.317,24.869Z" transform="translate(-37.7 -19.56)" fill="#ffe200"/>
            </g>
            <g id="Grupo_990089-2" data-name="Grupo 990089">
              <path id="Trazado_625509-2" data-name="Trazado 625509" d="M42.681,30.022a5.481,5.481,0,1,1,5.481-5.481A5.488,5.488,0,0,1,42.681,30.022Zm0-10.614a5.136,5.136,0,1,0,5.136,5.136,5.142,5.142,0,0,0-5.136-5.136Z" transform="translate(-37.2 -19.06)"/>
            </g>
            <g id="Grupo_990094-2" data-name="Grupo 990094" transform="translate(1.965 2.434)">
              <g id="Grupo_990090-2" data-name="Grupo 990090">
                <path id="Trazado_625510-2" data-name="Trazado 625510" d="M45.892,28.257a1.046,1.046,0,0,0-.524.91H42.9a3.513,3.513,0,0,1,1.761-3.047Z" transform="translate(-42.9 -26.12)" fill="#343434"/>
              </g>
              <g id="Grupo_990091-2" data-name="Grupo 990091" transform="translate(4.047)">
                <path id="Trazado_625511-2" data-name="Trazado 625511" d="M57.632,29.167H55.164a1.05,1.05,0,0,0-.524-.91l1.234-2.137A3.532,3.532,0,0,1,57.632,29.167Z" transform="translate(-54.64 -26.12)" fill="#343434"/>
              </g>
              <g id="Grupo_990092-2" data-name="Grupo 990092" transform="translate(1.758 3.957)">
                <path id="Trazado_625512-2" data-name="Trazado 625512" d="M51.516,39.737a3.508,3.508,0,0,1-3.516,0L49.234,37.6a1.042,1.042,0,0,0,1.048,0Z" transform="translate(-48 -37.6)" fill="#343434"/>
              </g>
              <g id="Grupo_990093-2" data-name="Grupo 990093" transform="translate(2.468 1.999)">
                <path id="Trazado_625513-2" data-name="Trazado 625513" d="M52.156,32.968a1.048,1.048,0,1,1-1.048-1.048A1.047,1.047,0,0,1,52.156,32.968Z" transform="translate(-50.06 -31.92)" fill="#343434"/>
              </g>
            </g>
            <g id="Grupo_990099-2" data-name="Grupo 990099" transform="translate(1.793 2.261)">
              <g id="Grupo_990095-2" data-name="Grupo 990095" transform="translate(0 0.002)">
                <path id="Trazado_625514-2" data-name="Trazado 625514" d="M45.04,29.015H42.572a.171.171,0,0,1-.172-.172,3.7,3.7,0,0,1,1.848-3.2.172.172,0,0,1,.131-.017.162.162,0,0,1,.1.079l1.234,2.137a.174.174,0,0,1,.017.131.156.156,0,0,1-.083.1.873.873,0,0,0-.438.758A.171.171,0,0,1,45.04,29.015Zm-2.292-.345h2.134a1.215,1.215,0,0,1,.455-.789l-1.065-1.844A3.355,3.355,0,0,0,42.748,28.67Z" transform="translate(-42.4 -25.624)"/>
              </g>
              <g id="Grupo_990096-2" data-name="Grupo 990096" transform="translate(4.044)">
                <path id="Trazado_625515-2" data-name="Trazado 625515" d="M57.3,29.012H54.827a.171.171,0,0,1-.172-.172.88.88,0,0,0-.438-.762.17.17,0,0,1-.062-.234l1.234-2.137a.181.181,0,0,1,.1-.079.16.16,0,0,1,.131.017,3.707,3.707,0,0,1,1.848,3.2A.176.176,0,0,1,57.3,29.012Zm-2.31-.345h2.134A3.36,3.36,0,0,0,55.6,26.033l-1.065,1.844A1.231,1.231,0,0,1,54.986,28.667Z" transform="translate(-54.131 -25.62)"/>
              </g>
              <g id="Grupo_990097-2" data-name="Grupo 990097" transform="translate(1.758 3.958)">
                <path id="Trazado_625516-2" data-name="Trazado 625516" d="M49.431,40.055a3.68,3.68,0,0,1-1.844-.5.17.17,0,0,1-.062-.234l1.234-2.137a.17.17,0,0,1,.234-.062.888.888,0,0,0,.879,0,.17.17,0,0,1,.234.062l1.234,2.137a.17.17,0,0,1-.062.234A3.7,3.7,0,0,1,49.431,40.055Zm-1.517-.71a3.373,3.373,0,0,0,3.04,0L49.89,37.5a1.222,1.222,0,0,1-.91,0Z" transform="translate(-47.501 -37.101)"/>
              </g>
              <g id="Grupo_990098-2" data-name="Grupo 990098" transform="translate(2.468 1.999)">
                <path id="Trazado_625517-2" data-name="Trazado 625517" d="M50.78,33.861A1.22,1.22,0,1,1,52,32.64,1.223,1.223,0,0,1,50.78,33.861Zm0-2.1a.876.876,0,1,0,.876.876A.877.877,0,0,0,50.78,31.765Z" transform="translate(-49.56 -31.42)"/>
              </g>
            </g>
          </g>
          <g id="Grupo_990112-2" data-name="Grupo 990112" transform="translate(5 11.243)">
            <g id="Grupo_990101-2" data-name="Grupo 990101" transform="translate(0.171 0.171)">
              <path id="Trazado_625518-2" data-name="Trazado 625518" d="M21.551,39.081H6.963a1.464,1.464,0,0,1-1.265-2.2l7.294-12.547a1.462,1.462,0,0,1,2.53,0l7.294,12.547A1.462,1.462,0,0,1,21.551,39.081Z" transform="translate(-5.497 -23.605)" fill="#ff003b"/>
            </g>
            <g id="Grupo_990102-2" data-name="Grupo 990102">
              <path id="Trazado_625519-2" data-name="Trazado 625519" d="M21.226,38.929H6.637a1.636,1.636,0,0,1-1.413-2.458l7.294-12.547a1.634,1.634,0,0,1,2.827,0l7.294,12.547a1.636,1.636,0,0,1-1.413,2.458ZM13.931,23.455a1.284,1.284,0,0,0-1.117.641L5.521,36.643a1.291,1.291,0,0,0,1.117,1.941H21.226a1.291,1.291,0,0,0,1.117-1.941L15.048,24.1a1.284,1.284,0,0,0-1.117-.641Z" transform="translate(-5 -23.11)"/>
            </g>
            <g id="Grupo_990103-2" data-name="Grupo 990103" transform="translate(1.827 1.855)">
              <path id="Trazado_625520-2" data-name="Trazado 625520" d="M10.3,40.71l7.1-12.22,7.1,12.22Z" transform="translate(-10.3 -28.49)" fill="#e6e6e6"/>
            </g>
            <g id="Grupo_990104-2" data-name="Grupo 990104" transform="translate(1.655 1.682)">
              <path id="Trazado_625521-2" data-name="Trazado 625521" d="M24.183,40.555H9.974a.174.174,0,0,1-.148-.086.171.171,0,0,1,0-.172l7.1-12.22a.174.174,0,0,1,.148-.086.167.167,0,0,1,.148.086l7.1,12.22a.172.172,0,0,1-.148.259ZM10.274,40.21H23.883L17.078,28.5Z" transform="translate(-9.802 -27.99)"/>
            </g>
            <g id="Grupo_990111-2" data-name="Grupo 990111" transform="translate(7.749 5.905)">
              <g id="Grupo_990107-2" data-name="Grupo 990107" transform="translate(0.169 0.172)">
                <g id="Grupo_990105-2" data-name="Grupo 990105">
                  <path id="Trazado_625522-2" data-name="Trazado 625522" d="M27.97,40.74l.445,4.905h1.141L30,40.74Z" transform="translate(-27.97 -40.74)" fill="#ff003b"/>
                </g>
                <g id="Grupo_990106-2" data-name="Grupo 990106" transform="translate(0.445 5.795)">
                  <path id="Trazado_625523-2" data-name="Trazado 625523" d="M29.26,57.55H30.4v1.141H29.26Z" transform="translate(-29.26 -57.55)" fill="#ff003b"/>
                </g>
              </g>
              <g id="Grupo_990110-2" data-name="Grupo 990110">
                <g id="Grupo_990108-2" data-name="Grupo 990108">
                  <path id="Trazado_625524-2" data-name="Trazado 625524" d="M29.234,45.49H28.093a.175.175,0,0,1-.172-.159l-.441-4.905a.166.166,0,0,1,.045-.131.174.174,0,0,1,.128-.055h2.027a.171.171,0,0,1,.172.186l-.445,4.905A.175.175,0,0,1,29.234,45.49Zm-.982-.345h.824l.41-4.561H27.838Z" transform="translate(-27.479 -40.24)"/>
                </g>
                <g id="Grupo_990109-2" data-name="Grupo 990109" transform="translate(0.442 5.795)">
                  <path id="Trazado_625525-2" data-name="Trazado 625525" d="M30.073,58.536H28.932a.171.171,0,0,1-.172-.172V57.222a.171.171,0,0,1,.172-.172h1.141a.171.171,0,0,1,.172.172v1.141A.175.175,0,0,1,30.073,58.536Zm-.969-.345h.8v-.8h-.8Z" transform="translate(-28.76 -57.05)"/>
                </g>
              </g>
            </g>
          </g>
        </g>
      </g>
    </g>
  </g>
</svg>
