<svg id="Grupo_991489" data-name="Grupo 991489" xmlns="http://www.w3.org/2000/svg" width="65" height="65" viewBox="0 0 65 65">
  <rect id="Rectángulo_33792" data-name="Rectángulo 33792" width="65" height="65" rx="5" fill="#465fc4"/>
  <g id="Grupo_80313" data-name="Grupo 80313" transform="translate(5.692 10.843)">
    <g id="Grupo_80111" data-name="Grupo 80111" transform="translate(24.464)">
      <path id="Trazado_113526" data-name="Trazado 113526" d="M289.532,1037.3l-17.138-17.138a.856.856,0,0,1,0-1.21h0a.856.856,0,0,1,1.211,0l17.138,17.138a.856.856,0,0,1,0,1.211h0A.857.857,0,0,1,289.532,1037.3Z" transform="translate(-272.143 -1018.7)" fill="#ffc721"/>
    </g>
    <g id="Grupo_80112" data-name="Grupo 80112" transform="translate(32.873 2.294)">
      <path id="Trazado_113527" data-name="Trazado 113527" d="M343.678,1044.286l-6.434-6.434a.857.857,0,0,1,0-1.211h0a.856.856,0,0,1,1.211,0l6.433,6.433a.856.856,0,0,1,0,1.211h0A.856.856,0,0,1,343.678,1044.286Z" transform="translate(-336.993 -1036.39)" fill="#ffc721"/>
    </g>
    <g id="Grupo_80113" data-name="Grupo 80113" transform="translate(18.349)">
      <path id="Trazado_113528" data-name="Trazado 113528" d="M248.493,1043.414l-23.253-23.253a.855.855,0,0,1,0-1.21h0a.856.856,0,0,1,1.211,0L249.7,1042.2a.856.856,0,0,1,0,1.211h0A.856.856,0,0,1,248.493,1043.414Z" transform="translate(-224.989 -1018.7)" fill="#ffc721"/>
    </g>
    <g id="Grupo_80114" data-name="Grupo 80114" transform="translate(13.51 1.276)">
      <path id="Trazado_113529" data-name="Trazado 113529" d="M214.741,1056.815,187.926,1030a.856.856,0,0,1,0-1.211h0a.855.855,0,0,1,1.211,0l26.816,26.816a.856.856,0,0,1,0,1.211h0A.856.856,0,0,1,214.741,1056.815Z" transform="translate(-187.675 -1028.537)" fill="#ffc721"/>
    </g>
    <g id="Grupo_80115" data-name="Grupo 80115" transform="translate(9.488 3.369)">
      <path id="Trazado_113530" data-name="Trazado 113530" d="M185.658,1074.883l-28.744-28.744a.856.856,0,0,1,0-1.211h0a.856.856,0,0,1,1.211,0l28.745,28.745a.856.856,0,0,1,0,1.211h0A.856.856,0,0,1,185.658,1074.883Z" transform="translate(-156.663 -1044.677)" fill="#ffc721"/>
    </g>
    <g id="Grupo_80116" data-name="Grupo 80116" transform="translate(6.119 6.119)">
      <path id="Trazado_113531" data-name="Trazado 113531" d="M160.3,1096.71l-29.363-29.363a.857.857,0,0,1,0-1.211h0a.857.857,0,0,1,1.211,0l29.363,29.364a.857.857,0,0,1,0,1.211h0A.857.857,0,0,1,160.3,1096.71Z" transform="translate(-130.686 -1065.885)" fill="#ffc721"/>
    </g>
    <g id="Grupo_80117" data-name="Grupo 80117" transform="translate(3.369 9.488)">
      <path id="Trazado_113532" data-name="Trazado 113532" d="M138.474,1122.069l-28.745-28.745a.856.856,0,0,1,0-1.21h0a.856.856,0,0,1,1.211,0l28.744,28.744a.856.856,0,0,1,0,1.211h0A.856.856,0,0,1,138.474,1122.069Z" transform="translate(-109.478 -1091.863)" fill="#ffc721"/>
    </g>
    <g id="Grupo_80118" data-name="Grupo 80118" transform="translate(1.276 13.51)">
      <path id="Trazado_113533" data-name="Trazado 113533" d="M120.4,1151.153l-26.816-26.816a.856.856,0,0,1,0-1.211h0a.855.855,0,0,1,1.211,0l26.816,26.816a.856.856,0,0,1,0,1.211h0A.855.855,0,0,1,120.4,1151.153Z" transform="translate(-93.336 -1122.875)" fill="#ffc721"/>
    </g>
    <g id="Grupo_80119" data-name="Grupo 80119" transform="translate(0 18.349)">
      <path id="Trazado_113534" data-name="Trazado 113534" d="M107,1184.9,83.75,1161.651a.855.855,0,0,1,0-1.211h0a.855.855,0,0,1,1.211,0l23.253,23.253a.855.855,0,0,1,0,1.211h0A.856.856,0,0,1,107,1184.9Z" transform="translate(-83.499 -1160.189)" fill="#ffc721"/>
    </g>
    <g id="Grupo_80120" data-name="Grupo 80120" transform="translate(0 24.464)">
      <path id="Trazado_113535" data-name="Trazado 113535" d="M100.888,1225.943,83.75,1208.8a.856.856,0,0,1,0-1.211h0a.856.856,0,0,1,1.211,0l17.138,17.138a.857.857,0,0,1,0,1.211h0A.856.856,0,0,1,100.888,1225.943Z" transform="translate(-83.499 -1207.343)" fill="#ffc721"/>
    </g>
    <g id="Grupo_80121" data-name="Grupo 80121" transform="translate(2.294 32.873)">
      <path id="Trazado_113536" data-name="Trazado 113536" d="M107.875,1280.088l-6.433-6.434a.856.856,0,0,1,0-1.211h0a.857.857,0,0,1,1.211,0l6.434,6.434a.856.856,0,0,1,0,1.211h0A.856.856,0,0,1,107.875,1280.088Z" transform="translate(-101.191 -1272.193)" fill="#ffc721"/>
    </g>
  </g>
  <g id="folder_setting" transform="translate(8.719 8.287)">
    <g id="Grupo_991567" data-name="Grupo 991567" transform="translate(3.669 1)">
      <g id="Grupo_991554" data-name="Grupo 991554" transform="translate(6.705 0.791)">
        <path id="Trazado_679166" data-name="Trazado 679166" d="M12.148,27.784H28.082l2.473-4.4c.322-.575.538-1.2,1.2-1.2H42.857L44.051,8.876l-4.46-4.743-9.433-.846L15.9,2.006a1.436,1.436,0,0,0-1.557,1.3L12.7,21.7Z" transform="translate(-12.148 -2)" fill="#f7fdff" fill-rule="evenodd"/>
      </g>
      <g id="Grupo_991555" data-name="Grupo 991555" transform="translate(0.791 20.489)">
        <path id="Trazado_679167" data-name="Trazado 679167" d="M4.686,33.325,4.669,45v3.417c0,1.549.852,2.717,3.763,2.731V33.894a.9.9,0,0,1,.9-.9h1.254l.547-6.086H5.74a.948.948,0,0,0-1.055.952Z" transform="translate(-4.669 -26.911)" fill="#fac852" fill-rule="evenodd"/>
      </g>
      <g id="Grupo_991556" data-name="Grupo 991556" transform="translate(4.554 20.977)">
        <path id="Trazado_679168" data-name="Trazado 679168" d="M9.428,51.325H31.667l-.3-.3a.774.774,0,0,1,0-1.091l.63-.633a8.305,8.305,0,0,1-.9-2.181H30.2a.773.773,0,0,1-.772-.772V43.765a.773.773,0,0,1,.772-.772h.891a8.362,8.362,0,0,1,.9-2.184l-.63-.63a.774.774,0,0,1,0-1.091l1.826-1.826a.774.774,0,0,1,1.091,0l.63.63a8.384,8.384,0,0,1,2.181-.9V36.1a.776.776,0,0,1,.774-.772h2.581a.773.773,0,0,1,.772.772v.891a8.3,8.3,0,0,1,2.181.9l.63-.63a.777.777,0,0,1,1.093,0l.744.744V28.725a1.2,1.2,0,0,0-1.2-1.2H31.181c-.658,0-.874.622-1.2,1.2l-2.473,4.4H10.325a.9.9,0,0,0-.9.9V51.278Z" transform="translate(-9.428 -27.529)" fill="#ffe366" fill-rule="evenodd"/>
      </g>
      <g id="Grupo_991557" data-name="Grupo 991557" transform="translate(29.935 34.155)">
        <path id="Trazado_679169" data-name="Trazado 679169" d="M41.526,48.543a4.349,4.349,0,1,0,4.349-4.349A4.349,4.349,0,0,0,41.526,48.543Z" transform="translate(-41.526 -44.194)" fill="#d6d6d6" fill-rule="evenodd"/>
      </g>
      <g id="Grupo_991558" data-name="Grupo 991558" transform="translate(24.553 28.773)">
        <path id="Trazado_679170" data-name="Trazado 679170" d="M36.383,49.181a8.305,8.305,0,0,0,.9,2.181l-.63.633a.774.774,0,0,0,0,1.091l.3.3,1.524,1.524a.774.774,0,0,0,1.091,0l.63-.63a8.384,8.384,0,0,0,2.181.9v.891a.776.776,0,0,0,.774.772h2.581a.773.773,0,0,0,.772-.772v-.891a8.3,8.3,0,0,0,2.181-.9l.63.63a.777.777,0,0,0,1.094,0l1.826-1.826a.774.774,0,0,0,0-1.091l-.63-.633a8.4,8.4,0,0,0,.9-2.181h.888a.776.776,0,0,0,.774-.772V45.828a.776.776,0,0,0-.774-.772h-.888a8.4,8.4,0,0,0-.9-2.181l.63-.633a.774.774,0,0,0,0-1.091l-1.082-1.082-.744-.744a.777.777,0,0,0-1.093,0l-.63.63a8.306,8.306,0,0,0-2.181-.9v-.891a.773.773,0,0,0-.772-.772H43.16a.776.776,0,0,0-.774.772v.891a8.384,8.384,0,0,0-2.181.9l-.63-.63a.774.774,0,0,0-1.091,0l-1.826,1.826a.774.774,0,0,0,0,1.091l.63.63a8.363,8.363,0,0,0-.9,2.184h-.891a.773.773,0,0,0-.772.772v2.581a.773.773,0,0,0,.772.772h.891ZM40.1,47.119a4.349,4.349,0,1,1,4.349,4.349A4.349,4.349,0,0,1,40.1,47.119Z" transform="translate(-34.72 -37.388)" fill="#88a0b5" fill-rule="evenodd"/>
      </g>
      <g id="Grupo_991559" data-name="Grupo 991559" transform="translate(26.044 2.196)">
        <path id="Trazado_679171" data-name="Trazado 679171" d="M43.027,17.574a41.178,41.178,0,0,1,.586,4.985h4.363L49.169,9.247,45,8.87a.686.686,0,0,1-.622-.741L44.709,4.5l-6.244-.561L36.6,3.777a23.182,23.182,0,0,1,5.273,9.156,36.7,36.7,0,0,1,1.149,4.64Z" transform="translate(-36.605 -3.777)" fill="#dbf4fc" fill-rule="evenodd"/>
      </g>
      <g id="Grupo_991560" data-name="Grupo 991560" transform="translate(29.324 20.977)">
        <path id="Trazado_679172" data-name="Trazado 679172" d="M41.295,27.529c.044.813.069,1.638.069,2.47a42,42,0,0,1-.611,7.191.71.71,0,0,1,.083.072l.63.63a8.384,8.384,0,0,1,2.181-.9V36.1a.776.776,0,0,1,.774-.772H47a.773.773,0,0,1,.772.772v.891a8.3,8.3,0,0,1,2.181.9l.63-.63a.777.777,0,0,1,1.093,0l.744.744V28.725a1.2,1.2,0,0,0-1.2-1.2h-9.93Z" transform="translate(-40.753 -27.529)" fill="#fac852" fill-rule="evenodd"/>
      </g>
      <g id="Grupo_991561" data-name="Grupo 991561" transform="translate(33.817 2.923)">
        <path id="Trazado_679173" data-name="Trazado 679173" d="M47.06,9.062l4.166.377.072-.8A.763.763,0,0,0,51.1,7.91L48.323,5.027c-.2-.205-.164-.205-.447-.23l-1.11-.1-.328,3.625A.686.686,0,0,0,47.06,9.062Z" transform="translate(-46.436 -4.697)" fill="#d6d6d6" fill-rule="evenodd"/>
      </g>
      <g id="Grupo_991562" data-name="Grupo 991562" transform="translate(35.127 34.263)">
        <path id="Trazado_679174" data-name="Trazado 679174" d="M48.567,48.272a22.018,22.018,0,0,1-.475,4.566,4.349,4.349,0,0,0,.125-8.507A22.148,22.148,0,0,1,48.567,48.272Z" transform="translate(-48.093 -44.331)" fill="#b3b3b3" fill-rule="evenodd"/>
      </g>
      <g id="Grupo_991563" data-name="Grupo 991563" transform="translate(33.168 28.773)">
        <path id="Trazado_679175" data-name="Trazado 679175" d="M47.7,42.878a4.349,4.349,0,0,1-.125,8.507,20.585,20.585,0,0,1-.525,2,20.913,20.913,0,0,1-1.435,3.461h2.406a.773.773,0,0,0,.772-.772v-.891a8.3,8.3,0,0,0,2.181-.9l.63.63a.777.777,0,0,0,1.094,0l1.826-1.826a.774.774,0,0,0,0-1.091l-.63-.633a8.4,8.4,0,0,0,.9-2.181h.888a.776.776,0,0,0,.774-.772V45.828a.776.776,0,0,0-.774-.772H54.8a8.4,8.4,0,0,0-.9-2.181l.63-.633a.774.774,0,0,0,0-1.091l-1.082-1.082-.744-.744a.777.777,0,0,0-1.094,0l-.63.63a8.306,8.306,0,0,0-2.181-.9V38.16a.773.773,0,0,0-.772-.772h-2.1A21.421,21.421,0,0,1,47.7,42.878Z" transform="translate(-45.615 -37.388)" fill="#748fa6" fill-rule="evenodd"/>
      </g>
      <g id="Grupo_991564" data-name="Grupo 991564">
        <path id="Trazado_679176" data-name="Trazado 679176" d="M46.908,36.651h-.3a9.246,9.246,0,0,0-.519-1.251l.212-.212a1.565,1.565,0,0,0,0-2.21l-.851-.851V23.173a1.99,1.99,0,0,0-1.99-1.987H41.948L43.136,7.934a1.533,1.533,0,0,0-.413-1.346L39.884,3.643A1.139,1.139,0,0,0,39,3.235l-1.108-.1h0L14.2,1.01a2.227,2.227,0,0,0-2.417,2.018L10.2,20.7H5.524a1.888,1.888,0,0,0-1.349.52,1.683,1.683,0,0,0-.489,1.222L3.669,42.995c0,1.558.759,3.4,4.268,3.511a.783.783,0,0,0,.287.058H30.134l1.292,1.292a1.6,1.6,0,0,0,2.209,0l.211-.212a9.15,9.15,0,0,0,1.251.519v.3a1.565,1.565,0,0,0,1.565,1.562h2.581a1.564,1.564,0,0,0,1.563-1.562v-.3a9.045,9.045,0,0,0,1.251-.518l.213.214a1.568,1.568,0,0,0,2.209,0L46.3,46.03a1.564,1.564,0,0,0,0-2.208l-.213-.215a9.247,9.247,0,0,0,.519-1.252h.3a1.566,1.566,0,0,0,1.565-1.562V38.213a1.566,1.566,0,0,0-1.565-1.562ZM38.533,4.782l.275.025,2.763,2.866c0,.037-.007.076-.01.12v.014l-3.274-.3ZM13.359,3.168a.64.64,0,0,1,.229-.436.63.63,0,0,1,.469-.147l22.9,2.056L36.7,7.478a1.477,1.477,0,0,0,1.338,1.6l3.379.306-1.059,11.8H29.976a2.012,2.012,0,0,0-1.76,1.367l-2.372,4.231H11.239Zm-5.927,25.3V44.892c-2.175-.224-2.182-1.333-2.182-1.9L5.267,22.44a.17.17,0,0,1,.024-.1.479.479,0,0,1,.241-.06h4.524l-.4,4.505H9.119a1.689,1.689,0,0,0-1.687,1.687Zm1.581,0a.107.107,0,0,1,.105-.106H26.307a.792.792,0,0,0,.69-.4l2.473-4.4.145-.269c.095-.179.253-.48.361-.523H43.464a.412.412,0,0,1,.408.405v7.61a1.572,1.572,0,0,0-1.606.368l-.21.211a9.054,9.054,0,0,0-1.251-.518v-.3a1.564,1.564,0,0,0-1.563-1.563H36.662A1.566,1.566,0,0,0,35.1,30.545v.3a9.156,9.156,0,0,0-1.251.519l-.211-.212a1.565,1.565,0,0,0-2.209,0L29.6,32.977a1.564,1.564,0,0,0,0,2.209l.211.212a9.159,9.159,0,0,0-.519,1.253h-.3a1.564,1.564,0,0,0-1.562,1.562v2.581a1.564,1.564,0,0,0,1.562,1.562h.3a9.115,9.115,0,0,0,.519,1.253l-.212.212a1.553,1.553,0,0,0-.451,1.161H9.014Zm37.006,12.3a.79.79,0,0,0-.766.594,7.635,7.635,0,0,1-.82,1.977.79.79,0,0,0,.12.959l.631.607-1.8,1.826-.63-.63a.791.791,0,0,0-.964-.12,7.5,7.5,0,0,1-1.974.818.791.791,0,0,0-.593.766l.019.872-2.564.019v-.891a.79.79,0,0,0-.593-.765,7.6,7.6,0,0,1-1.976-.82.791.791,0,0,0-.963.121l-.6.63-1.825-1.8.63-.633a.79.79,0,0,0,.119-.961,7.506,7.506,0,0,1-.818-1.974.791.791,0,0,0-.766-.594l-.872.019-.019-2.562h.891a.791.791,0,0,0,.766-.594,7.571,7.571,0,0,1,.819-1.978.791.791,0,0,0-.121-.962l-.63-.6,1.8-1.826.63.63a.791.791,0,0,0,.963.121,7.6,7.6,0,0,1,1.976-.82.79.79,0,0,0,.593-.765l-.017-.872,2.562-.019v.89a.791.791,0,0,0,.593.766,7.5,7.5,0,0,1,1.974.818.792.792,0,0,0,.964-.12l.6-.63,1.825,1.8-.63.632a.791.791,0,0,0-.121.96,7.652,7.652,0,0,1,.82,1.977.79.79,0,0,0,.766.594l.872-.019.016,2.562H46.02Z" transform="translate(-3.669 -1)"/>
        <path id="Trazado_679177" data-name="Trazado 679177" d="M45.665,43.194a5.14,5.14,0,1,0,5.14,5.14A5.146,5.146,0,0,0,45.665,43.194Zm0,8.7a3.558,3.558,0,1,1,3.558-3.558A3.562,3.562,0,0,1,45.665,51.892Z" transform="translate(-11.382 -9.83)"/>
      </g>
      <g id="Grupo_991565" data-name="Grupo 991565" transform="translate(13.58 9.327)">
        <path id="Trazado_679178" data-name="Trazado 679178" d="M38.58,15.9c-.024,0-.048,0-.071,0L21.563,14.373A.791.791,0,0,1,21.7,12.8L38.65,14.319a.791.791,0,0,1-.07,1.578Z" transform="translate(-20.842 -12.794)"/>
      </g>
      <g id="Grupo_991566" data-name="Grupo 991566" transform="translate(13.175 13.826)">
        <path id="Trazado_679179" data-name="Trazado 679179" d="M38.07,21.586c-.024,0-.048,0-.071,0L21.05,20.063a.791.791,0,0,1,.141-1.575L38.14,20.008a.791.791,0,0,1-.07,1.578Z" transform="translate(-20.33 -18.485)"/>
      </g>
    </g>
  </g>
  <g id="Elipse_4731" data-name="Elipse 4731" transform="translate(7.647 47.594)" fill="none" stroke="#f9931f" stroke-width="4">
    <ellipse cx="6.563" cy="6.563" rx="6.563" ry="6.563" stroke="none"/>
    <ellipse cx="6.563" cy="6.563" rx="4.563" ry="4.563" fill="none"/>
  </g>
</svg>
