<svg id="Grupo_991488" data-name="Grupo 991488" xmlns="http://www.w3.org/2000/svg" xmlns:xlink="http://www.w3.org/1999/xlink" width="65" height="65" viewBox="0 0 65 65">
  <defs>
    <clipPath id="clip-path">
      <path id="path297" d="M0-682.665H49.385v49.385H0Z" transform="translate(0 682.665)"/>
    </clipPath>
  </defs>
  <rect id="Rectángulo_33792" data-name="Rectángulo 33792" width="65" height="65" rx="5" fill="#465fc4"/>
  <g id="Grupo_80313" data-name="Grupo 80313" transform="translate(5.692 10.843)">
    <g id="Grupo_80111" data-name="Grupo 80111" transform="translate(24.464)">
      <path id="Trazado_113526" data-name="Trazado 113526" d="M289.532,1037.3l-17.138-17.138a.856.856,0,0,1,0-1.21h0a.856.856,0,0,1,1.211,0l17.138,17.138a.856.856,0,0,1,0,1.211h0A.857.857,0,0,1,289.532,1037.3Z" transform="translate(-272.143 -1018.7)" fill="#ffc721"/>
    </g>
    <g id="Grupo_80112" data-name="Grupo 80112" transform="translate(32.873 2.294)">
      <path id="Trazado_113527" data-name="Trazado 113527" d="M343.678,1044.286l-6.434-6.434a.857.857,0,0,1,0-1.211h0a.856.856,0,0,1,1.211,0l6.433,6.433a.856.856,0,0,1,0,1.211h0A.856.856,0,0,1,343.678,1044.286Z" transform="translate(-336.993 -1036.39)" fill="#ffc721"/>
    </g>
    <g id="Grupo_80113" data-name="Grupo 80113" transform="translate(18.349)">
      <path id="Trazado_113528" data-name="Trazado 113528" d="M248.493,1043.414l-23.253-23.253a.855.855,0,0,1,0-1.21h0a.856.856,0,0,1,1.211,0L249.7,1042.2a.856.856,0,0,1,0,1.211h0A.856.856,0,0,1,248.493,1043.414Z" transform="translate(-224.989 -1018.7)" fill="#ffc721"/>
    </g>
    <g id="Grupo_80114" data-name="Grupo 80114" transform="translate(13.51 1.276)">
      <path id="Trazado_113529" data-name="Trazado 113529" d="M214.741,1056.815,187.926,1030a.856.856,0,0,1,0-1.211h0a.855.855,0,0,1,1.211,0l26.816,26.816a.856.856,0,0,1,0,1.211h0A.856.856,0,0,1,214.741,1056.815Z" transform="translate(-187.675 -1028.537)" fill="#ffc721"/>
    </g>
    <g id="Grupo_80115" data-name="Grupo 80115" transform="translate(9.488 3.369)">
      <path id="Trazado_113530" data-name="Trazado 113530" d="M185.658,1074.883l-28.744-28.744a.856.856,0,0,1,0-1.211h0a.856.856,0,0,1,1.211,0l28.745,28.745a.856.856,0,0,1,0,1.211h0A.856.856,0,0,1,185.658,1074.883Z" transform="translate(-156.663 -1044.677)" fill="#ffc721"/>
    </g>
    <g id="Grupo_80116" data-name="Grupo 80116" transform="translate(6.119 6.119)">
      <path id="Trazado_113531" data-name="Trazado 113531" d="M160.3,1096.71l-29.363-29.363a.857.857,0,0,1,0-1.211h0a.857.857,0,0,1,1.211,0l29.363,29.364a.857.857,0,0,1,0,1.211h0A.857.857,0,0,1,160.3,1096.71Z" transform="translate(-130.686 -1065.885)" fill="#ffc721"/>
    </g>
    <g id="Grupo_80117" data-name="Grupo 80117" transform="translate(3.369 9.488)">
      <path id="Trazado_113532" data-name="Trazado 113532" d="M138.474,1122.069l-28.745-28.745a.856.856,0,0,1,0-1.21h0a.856.856,0,0,1,1.211,0l28.744,28.744a.856.856,0,0,1,0,1.211h0A.856.856,0,0,1,138.474,1122.069Z" transform="translate(-109.478 -1091.863)" fill="#ffc721"/>
    </g>
    <g id="Grupo_80118" data-name="Grupo 80118" transform="translate(1.276 13.51)">
      <path id="Trazado_113533" data-name="Trazado 113533" d="M120.4,1151.153l-26.816-26.816a.856.856,0,0,1,0-1.211h0a.855.855,0,0,1,1.211,0l26.816,26.816a.856.856,0,0,1,0,1.211h0A.855.855,0,0,1,120.4,1151.153Z" transform="translate(-93.336 -1122.875)" fill="#ffc721"/>
    </g>
    <g id="Grupo_80119" data-name="Grupo 80119" transform="translate(0 18.349)">
      <path id="Trazado_113534" data-name="Trazado 113534" d="M107,1184.9,83.75,1161.651a.855.855,0,0,1,0-1.211h0a.855.855,0,0,1,1.211,0l23.253,23.253a.855.855,0,0,1,0,1.211h0A.856.856,0,0,1,107,1184.9Z" transform="translate(-83.499 -1160.189)" fill="#ffc721"/>
    </g>
    <g id="Grupo_80120" data-name="Grupo 80120" transform="translate(0 24.464)">
      <path id="Trazado_113535" data-name="Trazado 113535" d="M100.888,1225.943,83.75,1208.8a.856.856,0,0,1,0-1.211h0a.856.856,0,0,1,1.211,0l17.138,17.138a.857.857,0,0,1,0,1.211h0A.856.856,0,0,1,100.888,1225.943Z" transform="translate(-83.499 -1207.343)" fill="#ffc721"/>
    </g>
    <g id="Grupo_80121" data-name="Grupo 80121" transform="translate(2.294 32.873)">
      <path id="Trazado_113536" data-name="Trazado 113536" d="M107.875,1280.088l-6.433-6.434a.856.856,0,0,1,0-1.211h0a.857.857,0,0,1,1.211,0l6.434,6.434a.856.856,0,0,1,0,1.211h0A.856.856,0,0,1,107.875,1280.088Z" transform="translate(-101.191 -1272.193)" fill="#ffc721"/>
    </g>
  </g>
  <g id="g291" transform="translate(9.5 9.447)">
    <g id="g293">
      <g id="g295" clip-path="url(#clip-path)">
        <g id="g301" transform="translate(0.723 28.97)">
          <path id="path303" d="M-192.046,0h-4.372a10.6,10.6,0,0,0-10.6,10.6v9.088h25.581V10.6A10.6,10.6,0,0,0-192.046,0" transform="translate(207.022)" fill="#79b856"/>
        </g>
        <g id="g305" transform="translate(0.723 28.97)">
          <path id="path307" d="M-174.435,0A10.6,10.6,0,0,0-185.04,10.6v9.088h-3V10.6A10.6,10.6,0,0,1-177.434,0Z" transform="translate(188.038)" fill="#5f9e3b"/>
        </g>
        <g id="g309" transform="translate(12.009 32.686)">
          <path id="path311" d="M-69.617-204.865l-2.714-15.976h0l-2.714,15.976" transform="translate(75.046 220.841)" fill="#7a6d79"/>
        </g>
        <g id="g313" transform="translate(12.01 45.789)">
          <path id="path315" d="M-6.259,0l-.488,2.873" transform="translate(6.747)" fill="none" stroke="#000" stroke-linecap="round" stroke-linejoin="round" stroke-miterlimit="10" stroke-width="1"/>
        </g>
        <g id="g317" transform="translate(13.062 34.422)">
          <path id="path319" d="M-17.527,0l-1.367,8.046" transform="translate(18.893)" fill="none" stroke="#000" stroke-linecap="round" stroke-linejoin="round" stroke-miterlimit="10" stroke-width="1"/>
        </g>
        <g id="g321" transform="translate(15.019 34.422)">
          <path id="path323" d="M-31.021-182.6l-2.419-14.24" transform="translate(33.44 196.84)" fill="none" stroke="#000" stroke-linecap="round" stroke-linejoin="round" stroke-miterlimit="10" stroke-width="1"/>
        </g>
        <g id="g325" transform="translate(0.723 29.144)">
          <path id="path327" d="M-328.031-250.282h-25.581v-9.088a10.606,10.606,0,0,1,8.684-10.43" transform="translate(353.612 269.799)" fill="none" stroke="#000" stroke-linecap="round" stroke-linejoin="round" stroke-miterlimit="10" stroke-width="1"/>
        </g>
        <g id="g329" transform="translate(18.338 29.301)">
          <path id="path331" d="M0,0A10.614,10.614,0,0,1,7.852,8.708" fill="none" stroke="#000" stroke-linecap="round" stroke-linejoin="round" stroke-miterlimit="10" stroke-width="1"/>
        </g>
        <g id="g333" transform="translate(12.029 29.329)">
          <path id="path335" d="M-69.1-34.551-71.8-37.245l-2.694,2.694,2.694,2.694Z" transform="translate(74.49 37.245)" fill="#7a6d79"/>
        </g>
        <g id="g337" transform="translate(9.366 27.298)">
          <path id="path339" d="M-94.277-4.136l.683.5A2.9,2.9,0,0,1-92.459-.808l-.5,2.881L-96.271-1l-3.312,3.078-1.631-2.708a2.9,2.9,0,0,1,.763-3.824" transform="translate(101.629 4.459)" fill="#5f9e3b"/>
        </g>
        <g id="g341" transform="translate(8.194 12.662)">
          <path id="path343" d="M-171.562,0V8.411a5.589,5.589,0,0,1-4.29,5.435,5.136,5.136,0,0,1-.564.1v1.917a2.233,2.233,0,0,1-2.864,2.142l-.073-.022a4.72,4.72,0,0,1-3.386-4.526V8.75h-.452a1.747,1.747,0,0,1-1.238-.513A1.745,1.745,0,0,1-184.941,7a1.744,1.744,0,0,1,.3-.979c.166-.244-.111-1.709.154-1.843.238-.122.278.028.564.028h.452L-182.739,0Z" transform="translate(184.941)" fill="#ffdfcf"/>
        </g>
        <g id="g345" transform="translate(8.194 12.662)">
          <path id="path347" d="M-116.544-177.558a5.136,5.136,0,0,1-.564.1,5.493,5.493,0,0,1-.733.048,5.559,5.559,0,0,1-1.26-.143v4.234a2.221,2.221,0,0,1-.87-.08l-.073-.022a4.72,4.72,0,0,1-3.386-4.526v-4.712h-.452a1.747,1.747,0,0,1-1.238-.513,1.745,1.745,0,0,1-.513-1.237,1.744,1.744,0,0,1,.3-.979c.166-.244-.111-1.709.154-1.843.238-.122.278.028.564.028h.452l.733-4.206h3.185l.541,1.3v8.4a4.3,4.3,0,0,0,3.161,4.147" transform="translate(125.633 191.405)" fill="#ffcebf"/>
        </g>
        <g id="g349" transform="translate(12.949 25.766)">
          <path id="path351" d="M0,0A5.541,5.541,0,0,0,1.426.659,5.6,5.6,0,0,0,3.035.895,5.511,5.511,0,0,0,3.769.846" fill="none" stroke="#000" stroke-linecap="round" stroke-linejoin="round" stroke-miterlimit="10" stroke-width="1"/>
        </g>
        <g id="g353" transform="translate(6.198 6.556)">
          <path id="path355" d="M-251.286-54.974a1.777,1.777,0,0,1-.8,1.484,15.229,15.229,0,0,1-11.15,2.272l-1.024-.188-.467,2.068a1.836,1.836,0,0,1-1.79,1.431h-.622a1.748,1.748,0,0,0-1.507.862h0l-.592-.592a5.612,5.612,0,0,1-1.645-3.971,5.6,5.6,0,0,1,.166-1.356,5.615,5.615,0,0,1,5.443-4.257,5.618,5.618,0,0,1,.722.047,13.863,13.863,0,0,0,7.684-1.209l1.569-.74a1.461,1.461,0,0,1,.62-.137,1.469,1.469,0,0,1,1.277.743,1.467,1.467,0,0,1-.526,1.987,1.764,1.764,0,0,1,.86-.222,1.777,1.777,0,0,1,1.557.915,1.773,1.773,0,0,1,.224.864" transform="translate(270.882 59.261)" fill="#7a6d79"/>
        </g>
        <g id="g357" transform="translate(6.198 8.597)">
          <path id="path359" d="M-52.09-54.593a5.6,5.6,0,0,0-.166,1.356,5.612,5.612,0,0,0,1.248,3.529,1.839,1.839,0,0,1-.776.171h-.622a1.748,1.748,0,0,0-1.507.862h0l-.592-.592a5.612,5.612,0,0,1-1.645-3.97,5.6,5.6,0,0,1,.166-1.356,5.615,5.615,0,0,1,5.443-4.257,5.638,5.638,0,0,1,.722.047,13.746,13.746,0,0,0,1.848.113,5.617,5.617,0,0,0-4.117,4.1" transform="translate(56.152 58.851)" fill="#685e68"/>
        </g>
        <g id="g361" transform="translate(8.194 14.016)">
          <path id="path363" d="M-171.562,0V7.057a5.588,5.588,0,0,1-4.855,5.54v1.917a2.233,2.233,0,0,1-2.864,2.142l-.073-.022a4.72,4.72,0,0,1-3.386-4.526V7.4h-.452a1.747,1.747,0,0,1-1.238-.513,1.745,1.745,0,0,1-.513-1.237,1.739,1.739,0,0,1,.242-.888,1.75,1.75,0,0,1,1.508-.862h.452" transform="translate(184.941)" fill="none" stroke="#000" stroke-linecap="round" stroke-linejoin="round" stroke-miterlimit="10" stroke-width="1"/>
        </g>
        <g id="g365" transform="translate(6.198 8.597)">
          <path id="path367" d="M-28.683-130.5l-.592-.593a5.61,5.61,0,0,1-1.645-3.969,5.621,5.621,0,0,1,.167-1.357,5.614,5.614,0,0,1,6.164-4.211h0l.162.019" transform="translate(30.92 140.681)" fill="none" stroke="#000" stroke-linecap="round" stroke-linejoin="round" stroke-miterlimit="10" stroke-width="1"/>
        </g>
        <g id="g369" transform="translate(16.062 6.556)">
          <path id="path371" d="M0-26.778a13.819,13.819,0,0,0,4.151-1.211l1.57-.74a1.457,1.457,0,0,1,.619-.138,1.468,1.468,0,0,1,1.277.744,1.467,1.467,0,0,1-.527,1.987" transform="translate(0 28.867)" fill="none" stroke="#000" stroke-linecap="round" stroke-linejoin="round" stroke-miterlimit="10" stroke-width="1"/>
        </g>
        <g id="g373" transform="translate(10.395 9.064)">
          <path id="path375" d="M-154.189-8.5l.68-.409.054-.031a1.776,1.776,0,0,1,.859-.223,1.779,1.779,0,0,1,1.558.915,1.776,1.776,0,0,1,.224.863,1.777,1.777,0,0,1-.8,1.485,15.222,15.222,0,0,1-11.15,2.272l-1.023-.188-.467,2.069a1.836,1.836,0,0,1-1.79,1.43h-.171" transform="translate(166.213 9.16)" fill="none" stroke="#000" stroke-linecap="round" stroke-linejoin="round" stroke-miterlimit="10" stroke-width="1"/>
        </g>
        <g id="g389" transform="translate(12.668 32.662)">
          <path id="path391" d="M0,0,2.056,2.056,4.111,0" fill="none" stroke="#000" stroke-linecap="round" stroke-linejoin="round" stroke-miterlimit="10" stroke-width="1"/>
        </g>
        <g id="g393" transform="translate(6.477 39.554)">
          <path id="path395" d="M0-116.794V-125.9" transform="translate(0 125.902)" fill="none" stroke="#000" stroke-linecap="round" stroke-linejoin="round" stroke-miterlimit="10" stroke-width="1"/>
        </g>
        <g id="g397" transform="translate(22.528 39.554)">
          <path id="path399" d="M0-116.794V-125.9" transform="translate(0 125.902)" fill="none" stroke="#000" stroke-linecap="round" stroke-linejoin="round" stroke-miterlimit="10" stroke-width="1"/>
        </g>
        <g id="g401" transform="translate(9.366 27.298)">
          <path id="path403" d="M-94.277-4.136l.683.5A2.9,2.9,0,0,1-92.459-.808l-.5,2.881L-96.271-1l-3.312,3.078-1.631-2.708a2.9,2.9,0,0,1,.763-3.824" transform="translate(101.629 4.459)" fill="none" stroke="#000" stroke-linecap="round" stroke-linejoin="round" stroke-miterlimit="10" stroke-width="1"/>
        </g>
        <g id="g413" transform="translate(25.439 37.734)">
          <path id="path415" d="M-21.394,0h0a1.668,1.668,0,0,0-1.668,1.668V6.351h3.337V1.668A1.668,1.668,0,0,0-21.394,0" transform="translate(23.063)" fill="#ffcebf"/>
        </g>
        <g id="g417" transform="translate(25.439 37.734)">
          <path id="path419" d="M-42.783-81.448H-46.12v-4.683A1.669,1.669,0,0,1-44.451-87.8a1.668,1.668,0,0,1,1.668,1.669v1.6" transform="translate(46.12 87.8)" fill="none" stroke="#000" stroke-linecap="round" stroke-linejoin="round" stroke-miterlimit="10" stroke-width="1"/>
        </g>
        <g id="g421" transform="translate(24.508 42.545)">
          <path id="path423" d="M0-78.436H6.224l.931-4.577L5.28-84.553l-4.35,1.54Z" transform="translate(0 84.553)" fill="#79b856"/>
        </g>
        <g id="g425" transform="translate(24.508 42.545)">
          <path id="path427" d="M-75.387-6.308-78.347-5.26l-.931,4.577h-1.989l.931-4.577,4.349-1.54Z" transform="translate(81.266 6.8)" fill="#5f9e3b"/>
        </g>
        <g id="g429" transform="translate(25.439 41.006)">
          <path id="path431" d="M0-39.486H8.437a1.54,1.54,0,0,0,1.54-1.54,1.54,1.54,0,0,0-1.54-1.54H2.872A2.872,2.872,0,0,0,0-39.693Z" transform="translate(0 42.565)" fill="#ffdfcf"/>
        </g>
        <g id="g433" transform="translate(25.439 41.006)">
          <path id="path435" d="M0-39.486H8.437a1.54,1.54,0,0,0,1.54-1.54,1.54,1.54,0,0,0-1.54-1.54H2.872A2.872,2.872,0,0,0,0-39.693Z" transform="translate(0 42.565)" fill="none" stroke="#000" stroke-linecap="round" stroke-linejoin="round" stroke-miterlimit="10" stroke-width="1"/>
        </g>
        <g id="g437" transform="translate(24.508 44.085)">
          <path id="path439" d="M0-58.693H6.224l.931-4.577H.931Z" transform="translate(0 63.271)" fill="none" stroke="#000" stroke-linecap="round" stroke-linejoin="round" stroke-miterlimit="10" stroke-width="1"/>
        </g>
        <g id="g441" transform="translate(28.101 0.723)">
          <path id="path443" d="M-236.976,0h-16.4a2.081,2.081,0,0,0-2.081,2.081V13.472a2.078,2.078,0,0,0,1.385,1.959.706.706,0,0,1,.451.816l-.569,2.616a.733.733,0,0,0,1.135.758l5.347-3.715a1.982,1.982,0,0,1,1.13-.354h9.6a2.081,2.081,0,0,0,2.081-2.081V2.081A2.081,2.081,0,0,0-236.976,0" transform="translate(255.457 0)" fill="#bbec6c"/>
        </g>
        <g id="g445" transform="translate(28.1 0.723)">
          <path id="path447" d="M-214.87-199.434h1.725a2.081,2.081,0,0,0,2.081-2.081v-11.391a2.081,2.081,0,0,0-2.081-2.081h-16.4a2.081,2.081,0,0,0-2.082,2.081v11.391a2.078,2.078,0,0,0,1.386,1.959.706.706,0,0,1,.45.817l-.569,2.616a.733.733,0,0,0,1.135.757l5.347-3.715a1.981,1.981,0,0,1,1.13-.354h4.516" transform="translate(231.626 214.986)" fill="none" stroke="#000" stroke-linecap="round" stroke-linejoin="round" stroke-miterlimit="10" stroke-width="1"/>
        </g>
        <g id="g449" transform="translate(33.297 4.504)">
          <path id="path451" d="M0,0H12.445" fill="none" stroke="#000" stroke-linecap="round" stroke-linejoin="round" stroke-miterlimit="10" stroke-width="1"/>
        </g>
        <g id="g453" transform="translate(33.297 7.07)">
          <path id="path455" d="M0,0H12.445" fill="none" stroke="#000" stroke-linecap="round" stroke-linejoin="round" stroke-miterlimit="10" stroke-width="1"/>
        </g>
        <g id="g457" transform="translate(33.297 9.636)">
          <path id="path459" d="M0,0H7.7" fill="none" stroke="#000" stroke-linecap="round" stroke-linejoin="round" stroke-miterlimit="10" stroke-width="1"/>
        </g>
      </g>
    </g>
  </g>
  <g id="Elipse_4731" data-name="Elipse 4731" transform="translate(7.647 47.594)" fill="none" stroke="#f9931f" stroke-width="4">
    <ellipse cx="6.563" cy="6.563" rx="6.563" ry="6.563" stroke="none"/>
    <ellipse cx="6.563" cy="6.563" rx="4.563" ry="4.563" fill="none"/>
  </g>
</svg>
