<svg id="Grupo_991486" data-name="Grupo 991486" xmlns="http://www.w3.org/2000/svg" width="65" height="65" viewBox="0 0 65 65">
  <rect id="Rectángulo_33792" data-name="Rectángulo 33792" width="65" height="65" rx="5" fill="#465fc4"/>
  <g id="Grupo_80313" data-name="Grupo 80313" transform="translate(5.692 10.843)">
    <g id="Grupo_80111" data-name="Grupo 80111" transform="translate(24.464)">
      <path id="Trazado_113526" data-name="Trazado 113526" d="M289.532,1037.3l-17.138-17.138a.856.856,0,0,1,0-1.21h0a.856.856,0,0,1,1.211,0l17.138,17.138a.856.856,0,0,1,0,1.211h0A.857.857,0,0,1,289.532,1037.3Z" transform="translate(-272.143 -1018.7)" fill="#ffc721"/>
    </g>
    <g id="Grupo_80112" data-name="Grupo 80112" transform="translate(32.873 2.294)">
      <path id="Trazado_113527" data-name="Trazado 113527" d="M343.678,1044.286l-6.434-6.434a.857.857,0,0,1,0-1.211h0a.856.856,0,0,1,1.211,0l6.433,6.433a.856.856,0,0,1,0,1.211h0A.856.856,0,0,1,343.678,1044.286Z" transform="translate(-336.993 -1036.39)" fill="#ffc721"/>
    </g>
    <g id="Grupo_80113" data-name="Grupo 80113" transform="translate(18.349)">
      <path id="Trazado_113528" data-name="Trazado 113528" d="M248.493,1043.414l-23.253-23.253a.855.855,0,0,1,0-1.21h0a.856.856,0,0,1,1.211,0L249.7,1042.2a.856.856,0,0,1,0,1.211h0A.856.856,0,0,1,248.493,1043.414Z" transform="translate(-224.989 -1018.7)" fill="#ffc721"/>
    </g>
    <g id="Grupo_80114" data-name="Grupo 80114" transform="translate(13.51 1.276)">
      <path id="Trazado_113529" data-name="Trazado 113529" d="M214.741,1056.815,187.926,1030a.856.856,0,0,1,0-1.211h0a.855.855,0,0,1,1.211,0l26.816,26.816a.856.856,0,0,1,0,1.211h0A.856.856,0,0,1,214.741,1056.815Z" transform="translate(-187.675 -1028.537)" fill="#ffc721"/>
    </g>
    <g id="Grupo_80115" data-name="Grupo 80115" transform="translate(9.488 3.369)">
      <path id="Trazado_113530" data-name="Trazado 113530" d="M185.658,1074.883l-28.744-28.744a.856.856,0,0,1,0-1.211h0a.856.856,0,0,1,1.211,0l28.745,28.745a.856.856,0,0,1,0,1.211h0A.856.856,0,0,1,185.658,1074.883Z" transform="translate(-156.663 -1044.677)" fill="#ffc721"/>
    </g>
    <g id="Grupo_80116" data-name="Grupo 80116" transform="translate(6.119 6.119)">
      <path id="Trazado_113531" data-name="Trazado 113531" d="M160.3,1096.71l-29.363-29.363a.857.857,0,0,1,0-1.211h0a.857.857,0,0,1,1.211,0l29.363,29.364a.857.857,0,0,1,0,1.211h0A.857.857,0,0,1,160.3,1096.71Z" transform="translate(-130.686 -1065.885)" fill="#ffc721"/>
    </g>
    <g id="Grupo_80117" data-name="Grupo 80117" transform="translate(3.369 9.488)">
      <path id="Trazado_113532" data-name="Trazado 113532" d="M138.474,1122.069l-28.745-28.745a.856.856,0,0,1,0-1.21h0a.856.856,0,0,1,1.211,0l28.744,28.744a.856.856,0,0,1,0,1.211h0A.856.856,0,0,1,138.474,1122.069Z" transform="translate(-109.478 -1091.863)" fill="#ffc721"/>
    </g>
    <g id="Grupo_80118" data-name="Grupo 80118" transform="translate(1.276 13.51)">
      <path id="Trazado_113533" data-name="Trazado 113533" d="M120.4,1151.153l-26.816-26.816a.856.856,0,0,1,0-1.211h0a.855.855,0,0,1,1.211,0l26.816,26.816a.856.856,0,0,1,0,1.211h0A.855.855,0,0,1,120.4,1151.153Z" transform="translate(-93.336 -1122.875)" fill="#ffc721"/>
    </g>
    <g id="Grupo_80119" data-name="Grupo 80119" transform="translate(0 18.349)">
      <path id="Trazado_113534" data-name="Trazado 113534" d="M107,1184.9,83.75,1161.651a.855.855,0,0,1,0-1.211h0a.855.855,0,0,1,1.211,0l23.253,23.253a.855.855,0,0,1,0,1.211h0A.856.856,0,0,1,107,1184.9Z" transform="translate(-83.499 -1160.189)" fill="#ffc721"/>
    </g>
    <g id="Grupo_80120" data-name="Grupo 80120" transform="translate(0 24.464)">
      <path id="Trazado_113535" data-name="Trazado 113535" d="M100.888,1225.943,83.75,1208.8a.856.856,0,0,1,0-1.211h0a.856.856,0,0,1,1.211,0l17.138,17.138a.857.857,0,0,1,0,1.211h0A.856.856,0,0,1,100.888,1225.943Z" transform="translate(-83.499 -1207.343)" fill="#ffc721"/>
    </g>
    <g id="Grupo_80121" data-name="Grupo 80121" transform="translate(2.294 32.873)">
      <path id="Trazado_113536" data-name="Trazado 113536" d="M107.875,1280.088l-6.433-6.434a.856.856,0,0,1,0-1.211h0a.857.857,0,0,1,1.211,0l6.434,6.434a.856.856,0,0,1,0,1.211h0A.856.856,0,0,1,107.875,1280.088Z" transform="translate(-101.191 -1272.193)" fill="#ffc721"/>
    </g>
  </g>
  <g id="analisis-de-mercado" transform="translate(8.032 10.064)">
    <path id="Trazado_679097" data-name="Trazado 679097" d="M11.262,72H52.043a3.263,3.263,0,0,1,3.262,3.262v27.731a3.263,3.263,0,0,1-3.262,3.262H11.262A3.263,3.263,0,0,1,8,102.993V75.262A3.263,3.263,0,0,1,11.262,72Zm0,0" transform="translate(-7.184 -64.66)" fill="#7a6d79"/>
    <path id="Trazado_679098" data-name="Trazado 679098" d="M48,72H87.149v34.256H48Zm0,0" transform="translate(-43.106 -64.66)" fill="#e8e8e8"/>
    <path id="Trazado_679099" data-name="Trazado 679099" d="M184.139,132,156,160.139h28.139Zm0,0" transform="translate(-140.096 -118.543)" fill="#d6d6d6"/>
    <path id="Trazado_679100" data-name="Trazado 679100" d="M328,96h1.631v1.631H328Zm0,0" transform="translate(-294.56 -86.213)" fill="#3fb7c7"/>
    <path id="Trazado_679101" data-name="Trazado 679101" d="M360,96h1.631v1.631H360Zm0,0" transform="translate(-323.297 -86.213)" fill="#3fb7c7"/>
    <path id="Trazado_679102" data-name="Trazado 679102" d="M392,96h1.631v1.631H392Zm0,0" transform="translate(-352.035 -86.213)" fill="#3fb7c7"/>
    <g id="Grupo_991546" data-name="Grupo 991546" transform="translate(7.341 14.68)">
      <path id="Trazado_679107" data-name="Trazado 679107" d="M368,176h4.078v1.631H368Zm0,0" transform="translate(-337.822 -172.738)" fill="#3fb7c7"/>
      <path id="Trazado_679108" data-name="Trazado 679108" d="M72,144h4.894v1.631H72Zm0,0" transform="translate(-72 -144)" fill="#3fb7c7"/>
      <path id="Trazado_679109" data-name="Trazado 679109" d="M72,176h4.078v1.631H72Zm0,0" transform="translate(-72 -172.738)" fill="#3fb7c7"/>
      <path id="Trazado_679110" data-name="Trazado 679110" d="M72,312h4.078v1.631H72Zm0,0" transform="translate(-72 -294.872)" fill="#3fb7c7"/>
      <path id="Trazado_679111" data-name="Trazado 679111" d="M72,344h5.709v1.631H72Zm0,0" transform="translate(-72 -323.61)" fill="#3fb7c7"/>
      <path id="Trazado_679112" data-name="Trazado 679112" d="M352,144h5.709v1.631H352Zm0,0" transform="translate(-323.453 -144)" fill="#3fb7c7"/>
      <path id="Trazado_679113" data-name="Trazado 679113" d="M368,296h4.078v1.631H368Zm0,0" transform="translate(-337.822 -280.503)" fill="#3fb7c7"/>
      <path id="Trazado_679114" data-name="Trazado 679114" d="M352,328h5.709v1.631H352Zm0,0" transform="translate(-323.453 -309.241)" fill="#3fb7c7"/>
    </g>
    <path id="Trazado_679115" data-name="Trazado 679115" d="M95.5,17.787H90.6l1.631,6.525-5.709-6.525H82.447A2.447,2.447,0,0,1,80,15.341V10.447A2.447,2.447,0,0,1,82.447,8H95.5a2.447,2.447,0,0,1,2.447,2.447v4.894A2.447,2.447,0,0,1,95.5,17.787Zm0,0" transform="translate(-71.844 -7.185)" fill="#bbec6c"/>
    <path id="Trazado_679116" data-name="Trazado 679116" d="M104,32h1.631v1.631H104Zm0,0" transform="translate(-93.397 -28.738)" fill="#2a71ad"/>
    <path id="Trazado_679117" data-name="Trazado 679117" d="M136,32h9.787v1.631H136Zm0,0" transform="translate(-122.135 -28.738)" fill="#2a71ad"/>
    <path id="Trazado_679118" data-name="Trazado 679118" d="M104,64h13.05v1.631H104Zm0,0" transform="translate(-93.397 -57.476)" fill="#2a71ad"/>
    <path id="Trazado_679119" data-name="Trazado 679119" d="M233.4,310.535a1.631,1.631,0,0,0-1.905,1.609,1.631,1.631,0,0,0-3.262,0,1.631,1.631,0,0,0-3.262,0v-6.438a1.693,1.693,0,0,0-1.357-1.7,1.631,1.631,0,0,0-1.905,1.609v11.419L218.31,315a1.438,1.438,0,0,0-1.387-.054l-.128.065a1.44,1.44,0,0,0-.192,2.459l5.107,3.648h13.05v-8.885A1.692,1.692,0,0,0,233.4,310.535Zm0,0" transform="translate(-193.979 -272.996)" fill="#fec9a3"/>
    <path id="Trazado_679120" data-name="Trazado 679120" d="M288.464,368.035a1.709,1.709,0,0,0-.356-.018c-2.754,4.931-7.341,8.464-10.8,10.6h12.508v-8.884A1.693,1.693,0,0,0,288.464,368.035Zm0,0" transform="translate(-249.04 -330.496)" fill="#fec093"/>
    <path id="Trazado_679121" data-name="Trazado 679121" d="M296.312,64H280v1.631h14.681V99.887h1.631a4.083,4.083,0,0,0,4.078-4.078V68.078A4.083,4.083,0,0,0,296.312,64Zm2.447,31.809a2.447,2.447,0,0,1-2.447,2.447V65.631a2.447,2.447,0,0,1,2.447,2.447Zm0,0" transform="translate(-251.454 -57.476)"/>
    <path id="Trazado_679122" data-name="Trazado 679122" d="M5.709,65.631V64H4.078A4.083,4.083,0,0,0,0,68.078V95.809a4.083,4.083,0,0,0,4.078,4.078h15.5V98.256H5.709ZM1.631,95.809V68.078a2.447,2.447,0,0,1,2.447-2.447V98.256A2.447,2.447,0,0,1,1.631,95.809Zm0,0" transform="translate(0 -57.476)"/>
    <path id="Trazado_679123" data-name="Trazado 679123" d="M104,32h1.631v1.631H104Zm0,0" transform="translate(-93.397 -28.738)"/>
    <path id="Trazado_679124" data-name="Trazado 679124" d="M136,32h9.787v1.631H136Zm0,0" transform="translate(-122.135 -28.738)"/>
    <path id="Trazado_679125" data-name="Trazado 679125" d="M104,64h13.05v1.631H104Zm0,0" transform="translate(-93.397 -57.476)"/>
    <path id="Trazado_679126" data-name="Trazado 679126" d="M328,96h1.631v1.631H328Zm0,0" transform="translate(-294.56 -86.213)"/>
    <path id="Trazado_679127" data-name="Trazado 679127" d="M360,96h1.631v1.631H360Zm0,0" transform="translate(-323.297 -86.213)"/>
    <path id="Trazado_679128" data-name="Trazado 679128" d="M392,96h1.631v1.631H392Zm0,0" transform="translate(-352.035 -86.213)"/>
    <path id="Trazado_679129" data-name="Trazado 679129" d="M72,144h4.894v1.631H72Zm0,0" transform="translate(-64.659 -129.32)"/>
    <path id="Trazado_679130" data-name="Trazado 679130" d="M72,176h4.078v1.631H72Zm0,0" transform="translate(-64.659 -158.057)"/>
    <path id="Trazado_679131" data-name="Trazado 679131" d="M72,312h4.078v1.631H72Zm0,0" transform="translate(-64.659 -280.192)"/>
    <path id="Trazado_679132" data-name="Trazado 679132" d="M72,344h5.709v1.631H72Zm0,0" transform="translate(-64.659 -308.929)"/>
    <path id="Trazado_679133" data-name="Trazado 679133" d="M352,144h5.709v1.631H352Zm0,0" transform="translate(-316.113 -129.32)"/>
    <path id="Trazado_679134" data-name="Trazado 679134" d="M368,176h4.078v1.631H368Zm0,0" transform="translate(-330.482 -158.057)"/>
    <path id="Trazado_679135" data-name="Trazado 679135" d="M368,296h4.078v1.631H368Zm0,0" transform="translate(-330.482 -265.823)"/>
    <path id="Trazado_679136" data-name="Trazado 679136" d="M352,328h5.709v1.631H352Zm0,0" transform="translate(-316.113 -294.56)"/>
    <path id="Trazado_679137" data-name="Trazado 679137" d="M104.217,36.735a2.454,2.454,0,0,0-1.989.55c-.016.013-.032.027-.048.042a2.442,2.442,0,0,0-3.262,0,2.541,2.541,0,0,0-2.447-.485v-2.6a12.42,12.42,0,0,0,1.311-1.121l0-.006a12.234,12.234,0,0,0,0-17.291l0-.006a12.188,12.188,0,0,0-12.918-2.8l-.4-1.594h3.849a3.263,3.263,0,0,0,3.262-3.262V3.262A3.263,3.263,0,0,0,88.312,0H75.263A3.263,3.263,0,0,0,72,3.262V8.155a3.263,3.263,0,0,0,3.262,3.262H78.97l2.855,3.258a12.212,12.212,0,0,0-1.353,18.438l0,.006a12.212,12.212,0,0,0,11.1,3.333V42.6L89.41,41.3a2.24,2.24,0,0,0-2.17-.082l-.129.064a2.257,2.257,0,0,0-.3,3.854l5.106,3.646a.815.815,0,0,0,.474.15h13.05a.816.816,0,0,0,.816-.816V39.236a2.515,2.515,0,0,0-2.039-2.5Zm-7.034-5.368-6.9-6.9,6.9-6.9a10.6,10.6,0,0,1,0,13.8ZM79.341,9.787H75.263a1.631,1.631,0,0,1-1.631-1.631V3.262a1.631,1.631,0,0,1,1.631-1.631h13.05a1.631,1.631,0,0,1,1.631,1.631V8.155a1.631,1.631,0,0,1-1.631,1.631H83.419a.815.815,0,0,0-.791,1.013l.812,3.249-3.484-3.983a.815.815,0,0,0-.614-.279Zm2.29,7.184A10.386,10.386,0,0,1,82.9,15.91l1.537,1.756a.816.816,0,0,0,1.405-.734L85.26,14.61a10.55,10.55,0,0,1,10.766,1.806L88.79,23.652H78.556a10.516,10.516,0,0,1,3.074-6.681Zm5.529,8.313-6.084,6.084a10.5,10.5,0,0,1-2.519-6.084Zm1.969,9.787a10.532,10.532,0,0,1-6.9-2.55l6.9-6.9,4.587,4.587a2.442,2.442,0,0,0-2.14,2.416v2.16A10.57,10.57,0,0,1,89.128,35.071Zm15.5,12.234H92.651l-4.894-3.5a.625.625,0,0,1,.082-1.068l.128-.063a.616.616,0,0,1,.6.023l3.4,2.039a.816.816,0,0,0,1.239-.7V32.624a.816.816,0,1,1,1.631,0v6.525a.816.816,0,0,0,1.631,0,.816.816,0,1,1,1.631,0,.816.816,0,0,0,1.631,0,.816.816,0,1,1,1.631,0,.816.816,0,0,0,1.631,0,.815.815,0,0,1,.958-.8.883.883,0,0,1,.673.89Zm0,0" transform="translate(-64.66)"/>
    <path id="Trazado_679138" data-name="Trazado 679138" d="M9.68-.529a12.7,12.7,0,0,1,7.591,2.642,8.869,8.869,0,0,1,3.4,6.957c0,1.049-.849,5.58-2.558,6.951-.4.32-1.431-.343-2.3-.485l-.648.14-.6.114c-.045-.037-.27-.374-.521-.114-2.245,2.341-2.732,3.953-6.026,3.953-5.611,0-8.472-4.6-8.472-9.646S4.069-.529,9.68-.529Z" transform="translate(14.302 14.387)" fill="#bbb"/>
    <g id="Grupo_991547" data-name="Grupo 991547" transform="translate(14.682 14.681)">
      <path id="Trazado_679073" data-name="Trazado 679073" d="M138.35,90.708V87.643l-2-.661a7.411,7.411,0,0,0-.552-1.328l.848-1.785a9.229,9.229,0,0,0-2.169-2.169l-1.785.848A7.485,7.485,0,0,0,131.368,82l-.661-2h-3.065l-.661,2-1.328.552-1.785-.848a9.216,9.216,0,0,0-2.169,2.169l.848,1.785L122,86.982l-2,.661v3.065l2,.661.552,1.328-.848,1.785a9.217,9.217,0,0,0,2.169,2.169l1.785-.848,1.328.552.661,2h3.065l.661-2A7.409,7.409,0,0,0,132.7,95.8l1.785.848a9.229,9.229,0,0,0,2.169-2.169L135.8,92.7a7.486,7.486,0,0,0,.552-1.329Zm0,0" transform="translate(-119.388 -79.389)" fill="#ff6b6b"/>
      <path id="Trazado_679074" data-name="Trazado 679074" d="M185.787,140.893A4.893,4.893,0,1,1,180.893,136,4.893,4.893,0,0,1,185.787,140.893Zm0,0" transform="translate(-171.107 -131.107)" fill="#ffe35b"/>
      <path id="Trazado_679077" data-name="Trazado 679077" d="M173.505,139.01A5.505,5.505,0,1,0,168,133.505,5.512,5.512,0,0,0,173.505,139.01Zm0-9.787a4.282,4.282,0,1,1-4.282,4.282A4.287,4.287,0,0,1,173.505,129.223Zm0,0" transform="translate(-163.718 -123.718)"/>
      <path id="Trazado_679078" data-name="Trazado 679078" d="M112.419,83.9l1.731.573.34.819-.731,1.539a.613.613,0,0,0,.054.617,9.8,9.8,0,0,0,2.312,2.312.613.613,0,0,0,.616.054l1.54-.731.819.34.573,1.73a.611.611,0,0,0,.581.42h3.066a.611.611,0,0,0,.581-.42l.564-1.7a8.069,8.069,0,0,0,.854-.355l1.514.719a.609.609,0,0,0,.617-.054,9.794,9.794,0,0,0,2.312-2.313.611.611,0,0,0,.054-.617l-.719-1.513a8.128,8.128,0,0,0,.355-.854l1.7-.564a.611.611,0,0,0,.419-.581V80.254a.611.611,0,0,0-.42-.581l-1.7-.564a8.061,8.061,0,0,0-.355-.854l.719-1.514a.613.613,0,0,0-.054-.617,9.8,9.8,0,0,0-2.312-2.312.61.61,0,0,0-.617-.054l-1.514.719a8.132,8.132,0,0,0-.854-.355l-.564-1.7a.61.61,0,0,0-.58-.419h-3.066a.611.611,0,0,0-.581.42L119.1,74.15l-.819.34-1.539-.731a.613.613,0,0,0-.617.054,9.816,9.816,0,0,0-2.313,2.312.611.611,0,0,0-.054.617l.731,1.54-.34.819-1.73.573a.61.61,0,0,0-.419.58v3.065A.612.612,0,0,0,112.419,83.9Zm.8-3.2,1.576-.522a.611.611,0,0,0,.372-.346l.552-1.329a.609.609,0,0,0-.012-.5l-.69-1.453a8.585,8.585,0,0,1,1.528-1.528l1.453.69a.617.617,0,0,0,.5.013l1.328-.551a.611.611,0,0,0,.346-.372l.521-1.578h2.182L123.4,74.8a.612.612,0,0,0,.4.393,6.79,6.79,0,0,1,1.22.506.612.612,0,0,0,.55.013l1.453-.69a8.584,8.584,0,0,1,1.528,1.528L127.861,78a.611.611,0,0,0,.013.55,6.9,6.9,0,0,1,.506,1.22.611.611,0,0,0,.393.4l1.577.522v2.182l-1.576.522a.612.612,0,0,0-.393.4,6.786,6.786,0,0,1-.506,1.22.611.611,0,0,0-.013.55l.69,1.453a8.6,8.6,0,0,1-1.528,1.528l-1.453-.69a.609.609,0,0,0-.55.013,6.9,6.9,0,0,1-1.22.506.612.612,0,0,0-.4.393l-.522,1.576H120.7l-.522-1.576a.611.611,0,0,0-.346-.372L118.5,87.85a.611.611,0,0,0-.5.012l-1.453.69a8.6,8.6,0,0,1-1.528-1.527l.69-1.453a.609.609,0,0,0,.012-.5l-.552-1.329a.61.61,0,0,0-.372-.346l-1.576-.523Zm0,0" transform="translate(-112 -72)"/>
      <path id="Trazado_679079" data-name="Trazado 679079" d="M232,160h1.223v3.67H232Zm0,0" transform="translate(-222.825 -153.272)"/>
      <path id="Trazado_679080" data-name="Trazado 679080" d="M232,224h1.223v1.223H232Zm0,0" transform="translate(-222.825 -212.378)"/>
    </g>
  </g>
  <g id="Elipse_4731" data-name="Elipse 4731" transform="translate(7.647 47.594)" fill="none" stroke="#f9931f" stroke-width="4">
    <ellipse cx="6.563" cy="6.563" rx="6.563" ry="6.563" stroke="none"/>
    <ellipse cx="6.563" cy="6.563" rx="4.563" ry="4.563" fill="none"/>
  </g>
</svg>
