<svg id="Grupo_990119" data-name="Grupo 990119" xmlns="http://www.w3.org/2000/svg" width="85" height="85" viewBox="0 0 85 85">
  <rect id="Rectángulo_33792" data-name="Rectángulo 33792" width="85" height="85" rx="5" fill="#465fc4"/>
  <g id="Grupo_80313" data-name="Grupo 80313" transform="translate(20.916 14.179)">
    <g id="Grupo_80111" data-name="Grupo 80111" transform="translate(0)">
      <path id="Trazado_113526" data-name="Trazado 113526" d="M274.055,1043.023l22.411-22.412a1.119,1.119,0,0,0,0-1.583h0a1.12,1.12,0,0,0-1.584,0l-22.411,22.411a1.119,1.119,0,0,0,0,1.584h0A1.12,1.12,0,0,0,274.055,1043.023Z" transform="translate(-272.143 -1018.7)" fill="#bfefdd"/>
    </g>
    <g id="Grupo_80112" data-name="Grupo 80112" transform="translate(3 3)">
      <path id="Trazado_113527" data-name="Trazado 113527" d="M338.9,1046.715l8.414-8.414a1.12,1.12,0,0,0,0-1.583h0a1.119,1.119,0,0,0-1.584,0l-8.413,8.413a1.119,1.119,0,0,0,0,1.584h0A1.119,1.119,0,0,0,338.9,1046.715Z" transform="translate(-336.993 -1036.39)" fill="#bfefdd"/>
    </g>
    <g id="Grupo_80113" data-name="Grupo 80113">
      <path id="Trazado_113528" data-name="Trazado 113528" d="M226.9,1051.018l30.407-30.407a1.118,1.118,0,0,0,0-1.583h0a1.119,1.119,0,0,0-1.583,0l-30.407,30.407a1.119,1.119,0,0,0,0,1.583h0A1.119,1.119,0,0,0,226.9,1051.018Z" transform="translate(-224.989 -1018.7)" fill="#bfefdd"/>
    </g>
    <g id="Grupo_80114" data-name="Grupo 80114" transform="translate(1.669 1.668)">
      <path id="Trazado_113529" data-name="Trazado 113529" d="M189.586,1065.515l35.066-35.067a1.119,1.119,0,0,0,0-1.583h0a1.118,1.118,0,0,0-1.583,0L188,1063.932a1.12,1.12,0,0,0,0,1.583h0A1.119,1.119,0,0,0,189.586,1065.515Z" transform="translate(-187.675 -1028.537)" fill="#bfefdd"/>
    </g>
    <g id="Grupo_80115" data-name="Grupo 80115" transform="translate(4.406 4.405)">
      <path id="Trazado_113530" data-name="Trazado 113530" d="M158.574,1084.177l37.589-37.589a1.12,1.12,0,0,0,0-1.584h0a1.12,1.12,0,0,0-1.583,0l-37.589,37.59a1.12,1.12,0,0,0,0,1.583h0A1.119,1.119,0,0,0,158.574,1084.177Z" transform="translate(-156.663 -1044.677)" fill="#bfefdd"/>
    </g>
    <g id="Grupo_80116" data-name="Grupo 80116" transform="translate(8.002 8.002)">
      <path id="Trazado_113531" data-name="Trazado 113531" d="M132.6,1106.195l38.4-38.4a1.121,1.121,0,0,0,0-1.584h0a1.12,1.12,0,0,0-1.584,0l-38.4,38.4a1.121,1.121,0,0,0,0,1.584h0A1.121,1.121,0,0,0,132.6,1106.195Z" transform="translate(-130.686 -1065.885)" fill="#bfefdd"/>
    </g>
    <g id="Grupo_80117" data-name="Grupo 80117" transform="translate(12.407 12.407)">
      <path id="Trazado_113532" data-name="Trazado 113532" d="M111.389,1131.364l37.589-37.589a1.12,1.12,0,0,0,0-1.583h0a1.119,1.119,0,0,0-1.584,0l-37.589,37.589a1.119,1.119,0,0,0,0,1.584h0A1.12,1.12,0,0,0,111.389,1131.364Z" transform="translate(-109.478 -1091.863)" fill="#bfefdd"/>
    </g>
    <g id="Grupo_80118" data-name="Grupo 80118" transform="translate(17.667 17.666)">
      <path id="Trazado_113533" data-name="Trazado 113533" d="M95.247,1159.854l35.067-35.067a1.119,1.119,0,0,0,0-1.583h0a1.118,1.118,0,0,0-1.583,0L93.664,1158.27a1.12,1.12,0,0,0,0,1.584h0A1.118,1.118,0,0,0,95.247,1159.854Z" transform="translate(-93.336 -1122.875)" fill="#bfefdd"/>
    </g>
    <g id="Grupo_80119" data-name="Grupo 80119" transform="translate(23.994 23.994)">
      <path id="Trazado_113534" data-name="Trazado 113534" d="M85.41,1192.508l30.407-30.408a1.119,1.119,0,0,0,0-1.583h0a1.118,1.118,0,0,0-1.583,0l-30.408,30.408a1.119,1.119,0,0,0,0,1.583h0A1.119,1.119,0,0,0,85.41,1192.508Z" transform="translate(-83.499 -1160.189)" fill="#bfefdd"/>
    </g>
    <g id="Grupo_80120" data-name="Grupo 80120" transform="translate(31.991 31.991)">
      <path id="Trazado_113535" data-name="Trazado 113535" d="M85.41,1231.665l22.411-22.411a1.119,1.119,0,0,0,0-1.584h0a1.119,1.119,0,0,0-1.583,0l-22.411,22.411a1.12,1.12,0,0,0,0,1.583h0A1.12,1.12,0,0,0,85.41,1231.665Z" transform="translate(-83.499 -1207.343)" fill="#bfefdd"/>
    </g>
    <g id="Grupo_80121" data-name="Grupo 80121" transform="translate(42.988 42.988)">
      <path id="Trazado_113536" data-name="Trazado 113536" d="M103.1,1282.517l8.413-8.413a1.12,1.12,0,0,0,0-1.584h0a1.12,1.12,0,0,0-1.583,0l-8.414,8.414a1.12,1.12,0,0,0,0,1.583h0A1.119,1.119,0,0,0,103.1,1282.517Z" transform="translate(-101.191 -1272.193)" fill="#bfefdd"/>
    </g>
  </g>
  <g id="apoyo_2_" data-name="apoyo (2)" transform="translate(11.921 15.18)">
    <path id="Trazado_676805" data-name="Trazado 676805" d="M328.127,8.533h12.545a3.86,3.86,0,0,1,3.86,3.86v9.65a3.86,3.86,0,0,1-3.86,3.86h-2.895v4.825L332.952,25.9h-4.825a3.86,3.86,0,0,1-3.86-3.86v-9.65A3.86,3.86,0,0,1,328.127,8.533Z" transform="translate(-323.302 -7.569)" fill="#f0e4d6"/>
    <path id="Trazado_676806" data-name="Trazado 676806" d="M337.948,13.466a29.04,29.04,0,0,0,17.044,15.847,3.824,3.824,0,0,1-2.526.965H349.57V35.1l-4.825-4.825H339.92a3.86,3.86,0,0,1-3.86-3.86v-9.65A3.846,3.846,0,0,1,337.948,13.466Z" transform="translate(-335.095 -11.944)" fill="#ebdcca"/>
    <path id="Trazado_676807" data-name="Trazado 676807" d="M18.182,277.382l-9.65-18.335h7.72l4.825,8.685v-7.72a5.79,5.79,0,0,1,5.79-5.79h5.79a2.9,2.9,0,0,0,2.895-2.895v-3.86h7.72v3.86a2.9,2.9,0,0,0,2.895,2.895h5.79a5.79,5.79,0,0,1,5.79,5.79v17.37Z" transform="translate(-0.812 -219.483)" fill="#fec9a3"/>
    <g id="Grupo_951647" data-name="Grupo 951647" transform="translate(24.125 43.333)">
      <path id="Trazado_676808" data-name="Trazado 676808" d="M42.676,397.763h1.93V395.2A9.618,9.618,0,0,0,45,384.31L44.3,383.2l-1.63,1.035.705,1.111a7.688,7.688,0,0,1-.487,8.922.964.964,0,0,0-.211.6v2.895Z" transform="translate(-17.553 -383.198)" fill="#f5b789"/>
      <path id="Trazado_676809" data-name="Trazado 676809" d="M266.668,397.763h1.93v-2.895a.964.964,0,0,0-.211-.6,7.686,7.686,0,0,1-.487-8.921l.705-1.112-1.63-1.034-.705,1.112a9.619,9.619,0,0,0,.4,10.888Z" transform="translate(-264.772 -383.198)" fill="#f5b789"/>
    </g>
    <path id="Trazado_676810" data-name="Trazado 676810" d="M51.2,31.693v-9.65A13.51,13.51,0,0,1,64.71,8.533h0a13.51,13.51,0,0,1,13.51,13.51v9.65a5.79,5.79,0,0,1-5.79,5.79H56.99A5.789,5.789,0,0,1,51.2,31.693Z" transform="translate(-26.11 -7.569)" fill="#645e39"/>
    <path id="Trazado_676811" data-name="Trazado 676811" d="M150.044,8.533a13.512,13.512,0,0,1,3.86.566,13.511,13.511,0,0,0-9.65,12.943v9.65a5.79,5.79,0,0,0,5.79,5.79h-7.72a5.79,5.79,0,0,1-5.79-5.79v-9.65A13.51,13.51,0,0,1,150.044,8.533Z" transform="translate(-111.444 -7.569)" fill="#4f4a26"/>
    <path id="Trazado_676812" data-name="Trazado 676812" d="M381.257,304.457h8.685a5.79,5.79,0,0,0-5.79-5.79h-8.685A5.79,5.79,0,0,0,381.257,304.457Z" transform="translate(-374.502 -264.893)" fill="#fec9a3"/>
    <g id="Grupo_951648" data-name="Grupo 951648" transform="translate(4.825 4.824)">
      <rect id="Rectángulo_337407" data-name="Rectángulo 337407" width="6.755" height="1.93" transform="translate(5.79)" fill="#ccbfb0"/>
      <rect id="Rectángulo_337408" data-name="Rectángulo 337408" width="3.86" height="1.93" fill="#ccbfb0"/>
      <rect id="Rectángulo_337409" data-name="Rectángulo 337409" width="12.545" height="1.93" transform="translate(0 3.86)" fill="#ccbfb0"/>
      <rect id="Rectángulo_337410" data-name="Rectángulo 337410" width="6.755" height="1.93" transform="translate(5.79 7.72)" fill="#ccbfb0"/>
    </g>
    <path id="Trazado_676813" data-name="Trazado 676813" d="M136.539,251.376v-3.909h7.725v3.909a8.615,8.615,0,0,1-7.73,0Z" transform="translate(-101.804 -219.483)" fill="#f7c097"/>
    <path id="Trazado_676814" data-name="Trazado 676814" d="M111.237,90.715V94.87a8.685,8.685,0,1,1-17.37,0V87.15a8.638,8.638,0,0,1,1.039-4.12Z" transform="translate(-63.952 -73.641)" fill="#fec9a3"/>
    <rect id="Rectángulo_337411" data-name="Rectángulo 337411" width="13.51" height="10.615" transform="translate(31.845 40.529)" fill="#13c6cc"/>
    <path id="Trazado_676815" data-name="Trazado 676815" d="M16.253,312.025l4.825,8.685v-7.72a5.79,5.79,0,0,1,5.79-5.79h3.088l9.457,12.545L48.387,307.2h3.571a5.79,5.79,0,0,1,5.79,5.79v17.37H18.183l-9.65-18.335Z" transform="translate(-0.813 -272.461)" fill="#a19e9e"/>
    <path id="Trazado_676816" data-name="Trazado 676816" d="M137.037,312.312h7.72L149.582,321v-7.72a5.79,5.79,0,0,1,5.154-5.753c1.737,13.48,9.834,19.995,16.984,23.123H146.687Z" transform="translate(-129.317 -272.748)" fill="#afafaf"/>
    <g id="Grupo_951649" data-name="Grupo 951649" transform="translate(24.125 43.333)">
      <path id="Trazado_676817" data-name="Trazado 676817" d="M42.676,397.763h1.93V395.2A9.618,9.618,0,0,0,45,384.31L44.3,383.2l-1.63,1.035.705,1.111a7.688,7.688,0,0,1-.487,8.922.964.964,0,0,0-.211.6v2.895Z" transform="translate(-17.553 -383.198)" fill="#3685ba"/>
      <path id="Trazado_676818" data-name="Trazado 676818" d="M266.668,397.763h1.93v-2.895a.964.964,0,0,0-.211-.6,7.686,7.686,0,0,1-.487-8.921l.705-1.112-1.63-1.034-.705,1.112a9.619,9.619,0,0,0,.4,10.888Z" transform="translate(-264.772 -383.198)" fill="#3685ba"/>
    </g>
    <path id="Trazado_676819" data-name="Trazado 676819" d="M170.667,94.869v-7.72a8.638,8.638,0,0,1,1.039-4.12l2.449,1.152a13.45,13.45,0,0,0-.593,3.933v9.65a5.79,5.79,0,0,0,5.79,5.79,8.684,8.684,0,0,1-8.685-8.685Z" transform="translate(-140.752 -73.64)" fill="#f7c097"/>
    <path id="Trazado_676820" data-name="Trazado 676820" d="M49.421,29.915h.965v1.93h-.965a6.762,6.762,0,0,1-6.755-6.755V14.475a14.475,14.475,0,1,1,28.95,0V25.09a6.762,6.762,0,0,1-6.755,6.755H63.9v-1.93h.965a4.831,4.831,0,0,0,4.825-4.825V14.475a12.545,12.545,0,0,0-25.09,0V25.09A4.83,4.83,0,0,0,49.421,29.915Z" transform="translate(-18.541 0)"/>
    <path id="Trazado_676821" data-name="Trazado 676821" d="M42.668,384.232,44.3,383.2,45,384.31a9.618,9.618,0,0,1-.4,10.888v2.566h-1.93v-2.895a.964.964,0,0,1,.211-.6,7.688,7.688,0,0,0,.487-8.922Z" transform="translate(6.574 -339.865)"/>
    <path id="Trazado_676822" data-name="Trazado 676822" d="M320.558,0H333.1a4.831,4.831,0,0,1,4.825,4.825v9.65A4.831,4.831,0,0,1,333.1,19.3h-1.93v3.86a.965.965,0,0,1-.6.892.965.965,0,0,1-1.052-.209L324.983,19.3h-4.425a4.831,4.831,0,0,1-4.825-4.825V4.825A4.831,4.831,0,0,1,320.558,0Zm-2.895,14.475a2.9,2.9,0,0,0,2.895,2.895h4.825a.963.963,0,0,1,.682.283l3.178,3.178v-2.5a.965.965,0,0,1,.965-.965H333.1A2.9,2.9,0,0,0,336,14.475V4.825A2.9,2.9,0,0,0,333.1,1.93H320.558a2.9,2.9,0,0,0-2.895,2.895Z" transform="translate(-315.733 0)"/>
    <rect id="Rectángulo_337412" data-name="Rectángulo 337412" width="6.755" height="1.93" transform="translate(10.615 4.824)"/>
    <rect id="Rectángulo_337413" data-name="Rectángulo 337413" width="3.86" height="1.93" transform="translate(4.825 4.824)"/>
    <rect id="Rectángulo_337414" data-name="Rectángulo 337414" width="12.545" height="1.93" transform="translate(4.825 8.684)"/>
    <rect id="Rectángulo_337415" data-name="Rectángulo 337415" width="6.755" height="1.93" transform="translate(10.615 12.544)"/>
    <path id="Trazado_676823" data-name="Trazado 676823" d="M268.6,394.869v2.895h-1.93V395.2a9.618,9.618,0,0,1-.4-10.888l.705-1.112,1.63,1.035-.705,1.112a7.686,7.686,0,0,0,.487,8.921A.964.964,0,0,1,268.6,394.869Z" transform="translate(-240.647 -339.865)"/>
    <path id="Trazado_676824" data-name="Trazado 676824" d="M55.969,106.608a4.831,4.831,0,0,0-4.825-4.825H48.074l-8.69,12.142a.963.963,0,0,1-.772.4H38.6a.965.965,0,0,1-.772-.386L28.66,101.783H26.055a4.831,4.831,0,0,0-4.825,4.825v7.72a.965.965,0,0,1-1.808.468l-4.549-8.188H9.34l9.409,17.37h-2.2l-9.412-17.37H6.755A6.762,6.762,0,0,1,0,99.854a.965.965,0,0,1,.965-.965H9.65a6.755,6.755,0,0,1,6.741,6.48L19.3,110.6v-4a6.762,6.762,0,0,1,6.755-6.755h3.527l.026-.02.017.02h2.22a1.929,1.929,0,0,0,1.93-1.93V95.653a9.65,9.65,0,0,1-4.825-8.344v-7.72a9.666,9.666,0,0,1,1.158-4.58.965.965,0,0,1,1.254-.415L47.7,82.279a.966.966,0,0,1,.554.873v4.156a9.65,9.65,0,0,1-4.825,8.344v2.271a1.929,1.929,0,0,0,1.93,1.93h5.79a6.762,6.762,0,0,1,6.755,6.755v17.37h-1.93ZM9.65,100.818H2.027a4.833,4.833,0,0,0,4.728,3.86h7.623A4.833,4.833,0,0,0,9.65,100.818Zm28.929,10.916,2.978-4.161H35.443Zm7.74-24.426V83.765l-14.9-7.012a7.724,7.724,0,0,0-.539,2.835v7.72a7.72,7.72,0,1,0,15.44,0Zm-.965,14.475a3.86,3.86,0,0,1-3.86-3.86v-1.41a9.637,9.637,0,0,1-5.79,0v1.41a3.86,3.86,0,0,1-3.86,3.86h-.772l2.91,3.86h8.959l2.763-3.86Z" transform="translate(0 -66.079)"/>
  </g>
  <g id="Elipse_4731" data-name="Elipse 4731" transform="translate(57.834 62.238)" fill="none" stroke="#ffc721" stroke-width="4">
    <ellipse cx="8.583" cy="8.583" rx="8.583" ry="8.583" stroke="none"/>
    <ellipse cx="8.583" cy="8.583" rx="6.583" ry="6.583" fill="none"/>
  </g>
</svg>
