<svg id="Grupo_990221" data-name="Grupo 990221" xmlns="http://www.w3.org/2000/svg" width="105.671" height="96.762" viewBox="0 0 105.671 96.762">
  <g id="Grupo_80139" data-name="Grupo 80139" transform="translate(0 1.923)">
    <g id="Grupo_80138" data-name="Grupo 80138" transform="translate(0 0)">
      <g id="Grupo_80111" data-name="Grupo 80111" transform="translate(46.484 0)">
        <path id="Trazado_113526" data-name="Trazado 113526" d="M305.184,1054.042l-32.565-32.565a1.627,1.627,0,0,1,0-2.3h0a1.626,1.626,0,0,1,2.3,0l32.564,32.564a1.626,1.626,0,0,1,0,2.3h0A1.627,1.627,0,0,1,305.184,1054.042Z" transform="translate(-272.143 -1018.7)" fill="#ffc721"/>
      </g>
      <g id="Grupo_80112" data-name="Grupo 80112" transform="translate(62.464 4.359)">
        <path id="Trazado_113527" data-name="Trazado 113527" d="M349.695,1051.393l-12.226-12.226a1.627,1.627,0,0,1,0-2.3h0a1.626,1.626,0,0,1,2.3,0l12.225,12.224a1.627,1.627,0,0,1,0,2.3h0A1.626,1.626,0,0,1,349.695,1051.393Z" transform="translate(-336.993 -1036.39)" fill="#ffc721"/>
      </g>
      <g id="Grupo_80113" data-name="Grupo 80113" transform="translate(34.865 0)">
        <path id="Trazado_113528" data-name="Trazado 113528" d="M269.649,1065.66l-44.183-44.183a1.625,1.625,0,0,1,0-2.3h0a1.626,1.626,0,0,1,2.3,0l44.184,44.183a1.625,1.625,0,0,1,0,2.3h0A1.625,1.625,0,0,1,269.649,1065.66Z" transform="translate(-224.989 -1018.7)" fill="#ffc721"/>
      </g>
      <g id="Grupo_80114" data-name="Grupo 80114" transform="translate(25.67 2.424)">
        <path id="Trazado_113529" data-name="Trazado 113529" d="M239.105,1082.268l-50.953-50.953a1.627,1.627,0,0,1,0-2.3h0a1.626,1.626,0,0,1,2.3,0l50.954,50.954a1.627,1.627,0,0,1,0,2.3h0A1.627,1.627,0,0,1,239.105,1082.268Z" transform="translate(-187.675 -1028.537)" fill="#ffc721"/>
      </g>
      <g id="Grupo_80115" data-name="Grupo 80115" transform="translate(18.029 6.401)">
        <path id="Trazado_113530" data-name="Trazado 113530" d="M211.758,1102.073l-54.618-54.619a1.627,1.627,0,0,1,0-2.3h0a1.627,1.627,0,0,1,2.3,0l54.619,54.62a1.627,1.627,0,0,1,0,2.3h0A1.627,1.627,0,0,1,211.758,1102.073Z" transform="translate(-156.663 -1044.677)" fill="#ffc721"/>
      </g>
      <g id="Grupo_80116" data-name="Grupo 80116" transform="translate(11.628 11.627)">
        <path id="Trazado_113531" data-name="Trazado 113531" d="M186.956,1124.457l-55.794-55.794a1.628,1.628,0,0,1,0-2.3h0a1.628,1.628,0,0,1,2.3,0l55.794,55.794a1.629,1.629,0,0,1,0,2.3h0A1.628,1.628,0,0,1,186.956,1124.457Z" transform="translate(-130.686 -1065.885)" fill="#ffc721"/>
      </g>
      <g id="Grupo_80117" data-name="Grupo 80117" transform="translate(6.402 18.028)">
        <path id="Trazado_113532" data-name="Trazado 113532" d="M164.574,1149.259l-54.619-54.619a1.627,1.627,0,0,1,0-2.3h0a1.627,1.627,0,0,1,2.3,0l54.618,54.618a1.626,1.626,0,0,1,0,2.3h0A1.627,1.627,0,0,1,164.574,1149.259Z" transform="translate(-109.478 -1091.863)" fill="#ffc721"/>
      </g>
      <g id="Grupo_80118" data-name="Grupo 80118" transform="translate(2.424 25.67)">
        <path id="Trazado_113533" data-name="Trazado 113533" d="M144.767,1176.606l-50.954-50.954a1.626,1.626,0,0,1,0-2.3h0a1.626,1.626,0,0,1,2.3,0l50.954,50.953a1.626,1.626,0,0,1,0,2.3h0A1.625,1.625,0,0,1,144.767,1176.606Z" transform="translate(-93.336 -1122.875)" fill="#ffc721"/>
      </g>
      <g id="Grupo_80119" data-name="Grupo 80119" transform="translate(0 34.865)">
        <path id="Trazado_113534" data-name="Trazado 113534" d="M128.159,1207.15l-44.184-44.184a1.626,1.626,0,0,1,0-2.3h0a1.626,1.626,0,0,1,2.3,0l44.184,44.184a1.626,1.626,0,0,1,0,2.3h0A1.626,1.626,0,0,1,128.159,1207.15Z" transform="translate(-83.499 -1160.189)" fill="#ffc721"/>
      </g>
      <g id="Grupo_80120" data-name="Grupo 80120" transform="translate(0 46.484)">
        <path id="Trazado_113535" data-name="Trazado 113535" d="M116.54,1242.685,83.976,1210.12a1.626,1.626,0,0,1,0-2.3h0a1.627,1.627,0,0,1,2.3,0l32.565,32.565a1.627,1.627,0,0,1,0,2.3h0A1.626,1.626,0,0,1,116.54,1242.685Z" transform="translate(-83.499 -1207.343)" fill="#ffc721"/>
      </g>
      <g id="Grupo_80121" data-name="Grupo 80121" transform="translate(4.36 62.464)">
        <path id="Trazado_113536" data-name="Trazado 113536" d="M113.892,1287.2l-12.225-12.224a1.627,1.627,0,0,1,0-2.3h0a1.627,1.627,0,0,1,2.3,0l12.226,12.225a1.627,1.627,0,0,1,0,2.3h0A1.627,1.627,0,0,1,113.892,1287.2Z" transform="translate(-101.191 -1272.193)" fill="#ffc721"/>
      </g>
    </g>
  </g>
  <g id="trabajo-en-equipo_1_" data-name="trabajo-en-equipo (1)" transform="translate(8.91 0)">
    <path id="Trazado_677021" data-name="Trazado 677021" d="M96.761,48.38A48.348,48.348,0,0,1,63.05,94.493a47.415,47.415,0,0,1-6.975,1.657.15.15,0,0,1-.032,0q-1.758.281-3.554.433-.383.032-.768.059c-.362.024-.725.045-1.09.061q-1.12.053-2.251.053-1.162,0-2.306-.055-.518-.023-1.037-.061c-.258-.018-.515-.035-.772-.057q-1.839-.154-3.639-.447c-.573-.093-1.144-.193-1.708-.306a47.784,47.784,0,0,1-7.133-2q-2-.729-3.914-1.627-.651-.306-1.3-.634-1.652-.835-3.228-1.793a48.382,48.382,0,1,1,73.414-41.4Zm0,0" transform="translate(0 0.001)" fill="#73c3f9"/>
    <path id="Trazado_677022" data-name="Trazado 677022" d="M56.732,275.945V309a47.785,47.785,0,0,1-7.133-2q-2-.729-3.914-1.627-.651-.306-1.3-.634-1.652-.835-3.228-1.793a48.521,48.521,0,0,1-19.2-21.771v-5.229a13.114,13.114,0,0,1,9.714-12.666c.205-.055.41-.107.62-.15A12.671,12.671,0,0,1,34,262.876c.354-.027.711-.044,1.072-.044h8.541a13.035,13.035,0,0,1,2.781.3c.051.01.1.021.154.033.151.034.3.071.45.111l.012,0a13.126,13.126,0,0,1,9.718,12.668Zm0,0" transform="translate(-17.814 -213.161)" fill="#2ba1cf"/>
    <path id="Trazado_677023" data-name="Trazado 677023" d="M80.882,275.945V309a47.778,47.778,0,0,1-7.133-2q-2-.729-3.914-1.627-.651-.306-1.3-.634-1.652-.835-3.228-1.793a48.635,48.635,0,0,1-13.569-12.237V275.945a13.114,13.114,0,0,1,9.714-12.666c.206-.055.411-.107.62-.15a12.7,12.7,0,0,1,1.706-.253c.354-.027.711-.044,1.073-.044h2.912a13.035,13.035,0,0,1,2.781.3c.051.01.1.021.154.033.151.034.3.071.45.111l.012,0a13.126,13.126,0,0,1,9.718,12.668Zm0,0" transform="translate(-41.964 -213.161)" fill="#66baed"/>
    <path id="Trazado_677024" data-name="Trazado 677024" d="M88.6,264.4l-.031.148-3.923,18.245a3.816,3.816,0,0,1-3.712,3.026h-.066a3.816,3.816,0,0,1-3.712-3.026l-3.923-18.244-.031-.15Zm0,0" transform="translate(-59.369 -214.43)" fill="#f2f0ec"/>
    <path id="Trazado_677025" data-name="Trazado 677025" d="M80.9,260.2,75,263.482l-1.8-8.353,3.668-2.16" transform="translate(-59.368 -205.161)" fill="#d8d5d0"/>
    <path id="Trazado_677026" data-name="Trazado 677026" d="M113.941,260.2l5.9,3.281,1.8-8.353-3.668-2.16" transform="translate(-92.408 -205.161)" fill="#d8d5d0"/>
    <path id="Trazado_677027" data-name="Trazado 677027" d="M20.676,85.595V65.819a17.627,17.627,0,1,1,35.255,0V85.595" transform="translate(-16.768 -39.083)" fill="#cc7a3b"/>
    <path id="Trazado_677028" data-name="Trazado 677028" d="M27.924,66.6c0,6.995,4.1,15.087,6.346,19h-13.6V65.826A17.616,17.616,0,0,1,38.171,48.2c-5.419.135-10.247,8.83-10.247,18.4Zm0,0" transform="translate(-16.765 -39.09)" fill="#a35418"/>
    <path id="Trazado_677029" data-name="Trazado 677029" d="M98.552,236.1v5.742a4.678,4.678,0,0,1-9.356,0V236.1Zm0,0" transform="translate(-72.338 -191.484)" fill="#eab599"/>
    <path id="Trazado_677030" data-name="Trazado 677030" d="M110.59,264.563v.364A4.677,4.677,0,0,1,107.3,269.4a4.676,4.676,0,0,1-3.256-3.859q.468.029.942.029a16.158,16.158,0,0,0,5.609-1Zm0,0" transform="translate(-84.377 -214.564)" fill="#f6caae"/>
    <path id="Trazado_677031" data-name="Trazado 677031" d="M8.7,167.647a4.35,4.35,0,1,1-3.654-4.294A4.351,4.351,0,0,1,8.7,167.647Zm0,0" transform="translate(0 -132.436)" fill="#f6caae"/>
    <path id="Trazado_677032" data-name="Trazado 677032" d="M27.884,167.888a4.351,4.351,0,0,1-3.654,4.295,16.263,16.263,0,0,1,0-8.589A4.35,4.35,0,0,1,27.884,167.888Zm0,0" transform="translate(-19.182 -132.676)" fill="#eab599"/>
    <path id="Trazado_677033" data-name="Trazado 677033" d="M17.9,179.644a1.555,1.555,0,1,1-1.555-1.555A1.555,1.555,0,0,1,17.9,179.644Zm0,0" transform="translate(-11.997 -144.433)" fill="#eab599"/>
    <path id="Trazado_677034" data-name="Trazado 677034" d="M55.655,114.543V129.5a16.125,16.125,0,0,1-8.573,4.266l-.08.013a15.985,15.985,0,0,1-2.519.2A16.187,16.187,0,0,1,28.3,117.787v-6.164a16.311,16.311,0,0,1,.165-2.325,10.258,10.258,0,0,0,12.892-.829,9.168,9.168,0,0,0,2.432-3.8,10.682,10.682,0,0,0,3.341,6.668,11.947,11.947,0,0,0,8.527,3.207Zm0,0" transform="translate(-22.949 -84.887)" fill="#eab599"/>
    <path id="Trazado_677035" data-name="Trazado 677035" d="M77.287,114.543V129.5a16.125,16.125,0,0,1-8.573,4.266l-.08.013a16.189,16.189,0,0,1-13.665-15.991v-6.164q0-.246.009-.489a10.143,10.143,0,0,0,8.008-2.665,9.165,9.165,0,0,0,2.432-3.8,10.682,10.682,0,0,0,3.341,6.668A11.947,11.947,0,0,0,77.287,114.543Zm0,0" transform="translate(-44.581 -84.887)" fill="#f6caae"/>
    <path id="Trazado_677036" data-name="Trazado 677036" d="M136.873,155.314a2.689,2.689,0,0,0-5.377,0" transform="translate(-106.645 -123.781)" fill="#eab599"/>
    <path id="Trazado_677037" data-name="Trazado 677037" d="M73.337,155.314a2.688,2.688,0,1,0-5.377,0" transform="translate(-55.117 -123.781)" fill="#eab599"/>
    <path id="Trazado_677038" data-name="Trazado 677038" d="M76.141,165.027a1.836,1.836,0,1,1-1.837-1.836A1.837,1.837,0,0,1,76.141,165.027Zm0,0" transform="translate(-58.773 -132.35)" fill="#3d4159"/>
    <path id="Trazado_677039" data-name="Trazado 677039" d="M139.68,165.027a1.836,1.836,0,1,1-1.836-1.836A1.836,1.836,0,0,1,139.68,165.027Zm0,0" transform="translate(-110.305 -132.35)" fill="#3d4159"/>
    <path id="Trazado_677040" data-name="Trazado 677040" d="M104.512,190.572h-3.673a.792.792,0,0,1,0-1.584h3.673a.792.792,0,0,1,0,1.584Zm0,0" transform="translate(-81.139 -153.272)" fill="#eab599"/>
    <path id="Trazado_677041" data-name="Trazado 677041" d="M95.415,213.719a8.176,8.176,0,0,1-3.947-1.02.72.72,0,1,1,.694-1.262,6.718,6.718,0,0,0,6.505,0,.72.72,0,1,1,.694,1.262,8.176,8.176,0,0,1-3.947,1.02Zm0,0" transform="translate(-73.88 -171.406)" fill="#eab599"/>
    <path id="Trazado_677042" data-name="Trazado 677042" d="M83.168,167.814a.787.787,0,1,1-.787-.787A.787.787,0,0,1,83.168,167.814Zm0,0" transform="translate(-66.174 -135.461)" fill="#fff"/>
    <path id="Trazado_677043" data-name="Trazado 677043" d="M147.183,167.814a.787.787,0,1,1-.786-.787A.787.787,0,0,1,147.183,167.814Zm0,0" transform="translate(-118.091 -135.461)" fill="#fff"/>
    <path id="Trazado_677044" data-name="Trazado 677044" d="M154.943,187.919a2.016,2.016,0,1,1-2.017-2.017A2.016,2.016,0,0,1,154.943,187.919Zm0,0" transform="translate(-122.39 -150.769)" fill="#eab599"/>
    <path id="Trazado_677045" data-name="Trazado 677045" d="M59.685,187.919a2.016,2.016,0,1,1-2.016-2.017A2.016,2.016,0,0,1,59.685,187.919Zm0,0" transform="translate(-45.135 -150.769)" fill="#eab599"/>
    <path id="Trazado_677046" data-name="Trazado 677046" d="M332.925,271.243V277.3a48.572,48.572,0,0,1-23.531,23.772,48.279,48.279,0,0,1-12.812,3.937.149.149,0,0,1-.032,0v-33.77a13.716,13.716,0,0,1,12.6-13.671c.371-.032.744-.045,1.121-.045H319.2a13.7,13.7,0,0,1,13.722,13.716Zm0,0" transform="translate(-240.506 -208.857)" fill="#bfd5de"/>
    <path id="Trazado_677047" data-name="Trazado 677047" d="M362.993,271.243V277.3a48.573,48.573,0,0,1-23.531,23.772,47.872,47.872,0,0,1-5.837,2.28V271.244a13.719,13.719,0,0,1,13.721-13.716h1.927a13.718,13.718,0,0,1,13.721,13.716Zm0,0" transform="translate(-270.574 -208.858)" fill="#dde8ed"/>
    <path id="Trazado_677048" data-name="Trazado 677048" d="M282.666,157.931a4.549,4.549,0,1,1-3.823-4.494A4.552,4.552,0,0,1,282.666,157.931Zm0,0" transform="translate(-221.863 -124.392)" fill="#d3a489"/>
    <path id="Trazado_677049" data-name="Trazado 677049" d="M380.662,283.711l-3.683,5.907-3.683-5.907" transform="translate(-302.748 -230.093)" fill="#f74f4f"/>
    <path id="Trazado_677050" data-name="Trazado 677050" d="M376.473,325.06l-4.955,6.253-4.956-6.253,4.956-18.224Zm0,0" transform="translate(-297.287 -248.848)" fill="#f74f4f"/>
    <path id="Trazado_677051" data-name="Trazado 677051" d="M302.739,158.181a4.552,4.552,0,0,1-3.823,4.494,17.022,17.022,0,0,1,0-8.987A4.553,4.553,0,0,1,302.739,158.181Zm0,0" transform="translate(-241.935 -124.643)" fill="#bf8e75"/>
    <path id="Trazado_677052" data-name="Trazado 677052" d="M292.3,170.486a1.627,1.627,0,1,1-1.627-1.626A1.627,1.627,0,0,1,292.3,170.486Zm0,0" transform="translate(-234.418 -136.947)" fill="#bf8e75"/>
    <path id="Trazado_677053" data-name="Trazado 677053" d="M358.211,254.763l-6.176,3.433-1.879-8.74,3.837-2.26" transform="translate(-283.981 -200.478)" fill="#bfd5de"/>
    <path id="Trazado_677054" data-name="Trazado 677054" d="M392.777,254.763l6.177,3.433,1.879-8.74-3.838-2.26" transform="translate(-318.547 -200.478)" fill="#bfd5de"/>
    <path id="Trazado_677055" data-name="Trazado 677055" d="M463.828,157.931a4.549,4.549,0,1,0,3.823-4.494A4.552,4.552,0,0,0,463.828,157.931Zm0,0" transform="translate(-376.171 -124.392)" fill="#d3a489"/>
    <g id="Grupo_990215" data-name="Grupo 990215" transform="translate(57.295 14.155)">
      <path id="Trazado_677056" data-name="Trazado 677056" d="M463.828,158.181a4.552,4.552,0,0,0,3.823,4.494,17.021,17.021,0,0,0,0-8.987A4.553,4.553,0,0,0,463.828,158.181Zm0,0" transform="translate(-433.465 -138.798)" fill="#bf8e75"/>
      <path id="Trazado_677057" data-name="Trazado 677057" d="M482.558,170.486a1.627,1.627,0,1,1-1.627-1.626A1.627,1.627,0,0,1,482.558,170.486Zm0,0" transform="translate(-446.017 -151.103)" fill="#bf8e75"/>
      <path id="Trazado_677058" data-name="Trazado 677058" d="M337.04,91.864a16.937,16.937,0,0,1-14.218,16.717,16.728,16.728,0,0,1-2.718.219,16.935,16.935,0,0,1-16.936-16.936c0-4.426,1.537-11.07,4.316-14.087,3.095-3.36,7.691-2.85,12.619-2.85a16.734,16.734,0,0,1,2.718.219A16.936,16.936,0,0,1,337.04,91.864Zm0,0" transform="translate(-303.167 -74.9)" fill="#bf8e75"/>
      <path id="Trazado_677059" data-name="Trazado 677059" d="M376.673,229.559v6.007a4.895,4.895,0,0,1-9.79,0v-6.007Zm0,0" transform="translate(-354.842 -200.331)" fill="#bf8e75"/>
    </g>
    <path id="Trazado_677060" data-name="Trazado 677060" d="M389.269,259.328v.381a3.539,3.539,0,1,1-6.854.637q.491.03.986.03a16.828,16.828,0,0,0,2.718-.219A16.648,16.648,0,0,0,389.269,259.328Zm0,0" transform="translate(-310.143 -210.318)" fill="#d3a489"/>
    <path id="Trazado_677061" data-name="Trazado 677061" d="M360.369,92.921a16.937,16.937,0,0,1-14.218,16.717,16.937,16.937,0,0,1,0-33.435,16.942,16.942,0,0,1,14.135,15.029q.083.834.083,1.689Zm0,0" transform="translate(-269.202 -61.802)" fill="#d3a489"/>
    <path id="Trazado_677062" data-name="Trazado 677062" d="M373.388,198.16a8.554,8.554,0,0,1-4.129-1.066.753.753,0,1,1,.726-1.32,7.034,7.034,0,0,0,6.806,0,.753.753,0,0,1,.726,1.32,8.558,8.558,0,0,1-4.129,1.066Zm0,0" transform="translate(-299.157 -158.7)" fill="#bf8e75"/>
    <path id="Trazado_677063" data-name="Trazado 677063" d="M357.209,151.2a1.921,1.921,0,1,1-1.922-1.922A1.921,1.921,0,0,1,357.209,151.2Zm0,0" transform="translate(-286.585 -121.069)" fill="#3d4159"/>
    <path id="Trazado_677064" data-name="Trazado 677064" d="M415.709,151.2a1.921,1.921,0,1,1-1.921-1.922A1.921,1.921,0,0,1,415.709,151.2Zm0,0" transform="translate(-334.03 -121.069)" fill="#3d4159"/>
    <path id="Trazado_677065" data-name="Trazado 677065" d="M364.56,154.12a.823.823,0,1,1-.823-.823A.824.824,0,0,1,364.56,154.12Zm0,0" transform="translate(-294.328 -124.325)" fill="#fff"/>
    <path id="Trazado_677066" data-name="Trazado 677066" d="M423.56,154.12a.823.823,0,1,1-.823-.823A.824.824,0,0,1,423.56,154.12Zm0,0" transform="translate(-342.178 -124.325)" fill="#fff"/>
    <path id="Trazado_677067" data-name="Trazado 677067" d="M382.9,177.931h-3.842a.829.829,0,1,1,0-1.657H382.9a.829.829,0,1,1,0,1.657Zm0,0" transform="translate(-306.75 -142.96)" fill="#bf8e75"/>
    <path id="Trazado_677068" data-name="Trazado 677068" d="M422.289,327.727h7.383v2.26h-7.383Zm0,0" transform="translate(-342.482 -265.791)" fill="#bfd5de"/>
    <path id="Trazado_677069" data-name="Trazado 677069" d="M387.539,49.335a10.264,10.264,0,0,1,9.511,9.728l.049.98h2.951l1.589,10.57,3.85-1.191-.517-10.357a10.265,10.265,0,0,0-10.291-9.755Zm0,0" transform="translate(-314.299 -39.99)" fill="#2a2f4f"/>
    <path id="Trazado_677070" data-name="Trazado 677070" d="M414.569,27.816a10.462,10.462,0,0,1-14.795,14.795Zm0,0" transform="translate(-324.222 -22.559)" fill="#3d4159"/>
    <path id="Trazado_677071" data-name="Trazado 677071" d="M321.33,60.039H308.49L306.9,70.609l-3.85-1.192.516-10.358A10.266,10.266,0,0,1,313.858,49.3l18.544.07,2.452,4.412" transform="translate(-245.778 -39.987)" fill="#3d4159"/>
    <path id="Trazado_677072" data-name="Trazado 677072" d="M321,49.335a10.264,10.264,0,0,0-9.511,9.728l-.049.98h-2.951l-1.59,10.57-3.85-1.191.517-10.357a10.265,10.265,0,0,1,10.291-9.755Zm0,0" transform="translate(-245.775 -39.99)" fill="#2a2f4f"/>
    <path id="Trazado_677073" data-name="Trazado 677073" d="M188.494,402.353v3.628a48.507,48.507,0,0,1-41.017,0v-3.625a15.473,15.473,0,0,1,11.461-14.945c.241-.065.484-.125.731-.178a15.3,15.3,0,0,1,2.012-.3c.419-.034.839-.052,1.266-.052h10.075a15.513,15.513,0,0,1,3.282.348c.061.012.123.026.182.04.178.041.355.085.531.132l.014,0a15.486,15.486,0,0,1,11.463,14.947Zm0,0" transform="translate(-119.606 -313.767)" fill="#3d4159"/>
    <path id="Trazado_677074" data-name="Trazado 677074" d="M226.093,388.723l-.038.176-4.934,22.949q-.383.032-.768.059c-.362.024-.725.045-1.09.061q-1.12.053-2.251.053-1.162,0-2.306-.055-.518-.023-1.037-.061c-.258-.018-.515-.035-.772-.057L207.963,388.9l-.037-.178Zm0,0" transform="translate(-168.631 -315.26)" fill="#66baed"/>
    <path id="Trazado_677075" data-name="Trazado 677075" d="M242.326,416.422l-4.153,6.66-4.153-6.66" transform="translate(-189.793 -337.724)" fill="#3d4159"/>
    <path id="Trazado_677076" data-name="Trazado 677076" d="M244.994,455.514c-.362.024-.725.045-1.09.061q-1.12.053-2.251.053-1.162,0-2.306-.055-.518-.023-1.037-.061l3.343-13.019Zm0,0" transform="translate(-193.272 -358.868)" fill="#3d4159"/>
    <path id="Trazado_677077" data-name="Trazado 677077" d="M217.005,383.776l-6.965,3.871-2.119-9.855,4.328-2.549" transform="translate(-168.627 -304.327)" fill="#2ba1cf"/>
    <path id="Trazado_677078" data-name="Trazado 677078" d="M255.988,383.776l6.964,3.871,2.119-9.855-4.328-2.549" transform="translate(-207.61 -304.327)" fill="#2ba1cf"/>
    <path id="Trazado_677079" data-name="Trazado 677079" d="M275,402.023h2.21l-3.859,9.387a48.083,48.083,0,0,1-5.444.557l6.779-23.073.052-.172,4.765,1.556Zm0,0" transform="translate(-217.279 -315.26)" fill="#2a2f4f"/>
    <path id="Trazado_677080" data-name="Trazado 677080" d="M194.027,411.965a47.914,47.914,0,0,1-5.448-.565l-3.855-9.378h2.21l-4.5-11.744,4.767-1.556.052.172Zm0,0" transform="translate(-147.953 -315.259)" fill="#2a2f4f"/>
    <path id="Trazado_677081" data-name="Trazado 677081" d="M237.824,355.352v6.773a5.52,5.52,0,0,1-11.039,0v-6.773Zm0,0" transform="translate(-183.926 -288.195)" fill="#eab599"/>
    <path id="Trazado_677082" data-name="Trazado 677082" d="M252.027,388.922v.43a5.52,5.52,0,0,1-3.887,5.272,5.518,5.518,0,0,1-3.842-4.554q.554.034,1.112.034a19.03,19.03,0,0,0,6.618-1.182Zm0,0" transform="translate(-198.128 -315.421)" fill="#f6caae"/>
    <path id="Trazado_677083" data-name="Trazado 677083" d="M131.817,274.579a5.134,5.134,0,0,1-4.311,5.067,5.189,5.189,0,0,1-.822.066,5.133,5.133,0,1,1,5.133-5.133Zm0,0" transform="translate(-98.579 -218.523)" fill="#f6caae"/>
    <path id="Trazado_677084" data-name="Trazado 677084" d="M154.453,274.864a5.134,5.134,0,0,1-4.311,5.067,19.2,19.2,0,0,1,0-10.134A5.134,5.134,0,0,1,154.453,274.864Zm0,0" transform="translate(-121.215 -218.809)" fill="#eab599"/>
    <path id="Trazado_677085" data-name="Trazado 677085" d="M142.677,288.736a1.834,1.834,0,1,1-1.835-1.834A1.835,1.835,0,0,1,142.677,288.736Zm0,0" transform="translate(-112.737 -232.681)" fill="#eab599"/>
    <path id="Trazado_677086" data-name="Trazado 677086" d="M336.105,274.579a5.134,5.134,0,1,0,4.311-5.067,5.134,5.134,0,0,0-4.311,5.067Zm0,0" transform="translate(-272.586 -218.523)" fill="#f6caae"/>
    <path id="Trazado_677087" data-name="Trazado 677087" d="M336.105,274.864a5.134,5.134,0,0,0,4.311,5.067,19.2,19.2,0,0,0,0-10.134A5.134,5.134,0,0,0,336.105,274.864Zm0,0" transform="translate(-272.586 -218.809)" fill="#eab599"/>
    <path id="Trazado_677088" data-name="Trazado 677088" d="M193.137,161.735v7.272A19.1,19.1,0,0,1,177.1,187.858l-.093.016a18.764,18.764,0,0,1-2.972.231,19.1,19.1,0,0,1-19.1-19.1v-7.273a19.086,19.086,0,0,1,19.1-19.1h0a19.085,19.085,0,0,1,19.1,19.1Zm0,0" transform="translate(-125.66 -115.68)" fill="#eab599"/>
    <path id="Trazado_677089" data-name="Trazado 677089" d="M357.228,288.736a1.834,1.834,0,1,1-1.835-1.834A1.834,1.834,0,0,1,357.228,288.736Zm0,0" transform="translate(-286.741 -232.681)" fill="#eab599"/>
    <path id="Trazado_677090" data-name="Trazado 677090" d="M218.654,162.727V170a19.1,19.1,0,0,1-16.033,18.851l-.094.016A19.1,19.1,0,0,1,186.406,170v-7.272a19.1,19.1,0,0,1,16.125-18.868A19.1,19.1,0,0,1,218.654,162.727Zm0,0" transform="translate(-151.178 -116.672)" fill="#f6caae"/>
    <path id="Trazado_677091" data-name="Trazado 677091" d="M215.876,266.994a2.166,2.166,0,1,1-2.166-2.166A2.166,2.166,0,0,1,215.876,266.994Zm0,0" transform="translate(-171.564 -214.779)" fill="#3d4159"/>
    <path id="Trazado_677092" data-name="Trazado 677092" d="M281.845,266.994a2.167,2.167,0,1,1-2.167-2.166A2.167,2.167,0,0,1,281.845,266.994Zm0,0" transform="translate(-225.066 -214.779)" fill="#3d4159"/>
    <path id="Trazado_677093" data-name="Trazado 677093" d="M224.165,270.285a.928.928,0,1,1-.929-.929A.928.928,0,0,1,224.165,270.285Zm0,0" transform="translate(-180.295 -218.451)" fill="#fff"/>
    <path id="Trazado_677094" data-name="Trazado 677094" d="M290.7,270.285a.928.928,0,1,1-.928-.929A.928.928,0,0,1,290.7,270.285Zm0,0" transform="translate(-234.253 -218.451)" fill="#fff"/>
    <path id="Trazado_677095" data-name="Trazado 677095" d="M244.85,292.639h-4.333a.935.935,0,1,1,0-1.869h4.333a.935.935,0,0,1,0,1.869Zm0,0" transform="translate(-194.304 -235.818)" fill="#eab599"/>
    <path id="Trazado_677096" data-name="Trazado 677096" d="M234.12,319.943a9.648,9.648,0,0,1-4.656-1.2.85.85,0,0,1,.819-1.489,7.924,7.924,0,0,0,7.675,0,.85.85,0,0,1,.819,1.489A9.65,9.65,0,0,1,234.12,319.943Zm0,0" transform="translate(-185.741 -257.21)" fill="#eab599"/>
    <path id="Trazado_677097" data-name="Trazado 677097" d="M193.133,142.786v7.449h-3.555V144.4l-25.658-4.767-5.429-1.009v11.611h-3.555v-7.45a15.375,15.375,0,0,1,15.374-15.376h7.447c.2,0,.4,0,.607.014a15.372,15.372,0,0,1,14.768,15.363Zm0,0" transform="translate(-125.656 -103.331)" fill="#2a2f4f"/>
    <path id="Trazado_677098" data-name="Trazado 677098" d="M231.685,142.846V150.3H228.13v-5.834l-25.658-4.767a14.721,14.721,0,0,1,29.212,3.152Zm0,0" transform="translate(-164.208 -103.391)" fill="#3d4159"/>
  </g>
</svg>
