<svg id="Grupo_990222" data-name="Grupo 990222" xmlns="http://www.w3.org/2000/svg" width="106.213" height="95.047" viewBox="0 0 106.213 95.047">
  <g id="Grupo_80140" data-name="Grupo 80140" transform="translate(0 0.207)">
    <g id="Grupo_80138" data-name="Grupo 80138" transform="translate(0 0)">
      <g id="Grupo_80111" data-name="Grupo 80111" transform="translate(46.484 0)">
        <path id="Trazado_113526" data-name="Trazado 113526" d="M305.184,1054.042l-32.565-32.565a1.627,1.627,0,0,1,0-2.3h0a1.626,1.626,0,0,1,2.3,0l32.564,32.564a1.626,1.626,0,0,1,0,2.3h0A1.627,1.627,0,0,1,305.184,1054.042Z" transform="translate(-272.143 -1018.7)" fill="#ffc721"/>
      </g>
      <g id="Grupo_80112" data-name="Grupo 80112" transform="translate(62.464 4.359)">
        <path id="Trazado_113527" data-name="Trazado 113527" d="M349.695,1051.393l-12.226-12.226a1.627,1.627,0,0,1,0-2.3h0a1.626,1.626,0,0,1,2.3,0l12.225,12.224a1.627,1.627,0,0,1,0,2.3h0A1.626,1.626,0,0,1,349.695,1051.393Z" transform="translate(-336.993 -1036.39)" fill="#ffc721"/>
      </g>
      <g id="Grupo_80113" data-name="Grupo 80113" transform="translate(34.865 0)">
        <path id="Trazado_113528" data-name="Trazado 113528" d="M269.649,1065.66l-44.183-44.183a1.625,1.625,0,0,1,0-2.3h0a1.626,1.626,0,0,1,2.3,0l44.184,44.183a1.625,1.625,0,0,1,0,2.3h0A1.625,1.625,0,0,1,269.649,1065.66Z" transform="translate(-224.989 -1018.7)" fill="#ffc721"/>
      </g>
      <g id="Grupo_80114" data-name="Grupo 80114" transform="translate(25.67 2.424)">
        <path id="Trazado_113529" data-name="Trazado 113529" d="M239.105,1082.268l-50.953-50.953a1.627,1.627,0,0,1,0-2.3h0a1.626,1.626,0,0,1,2.3,0l50.954,50.954a1.627,1.627,0,0,1,0,2.3h0A1.627,1.627,0,0,1,239.105,1082.268Z" transform="translate(-187.675 -1028.537)" fill="#ffc721"/>
      </g>
      <g id="Grupo_80115" data-name="Grupo 80115" transform="translate(18.029 6.401)">
        <path id="Trazado_113530" data-name="Trazado 113530" d="M211.758,1102.073l-54.618-54.619a1.627,1.627,0,0,1,0-2.3h0a1.627,1.627,0,0,1,2.3,0l54.619,54.62a1.627,1.627,0,0,1,0,2.3h0A1.627,1.627,0,0,1,211.758,1102.073Z" transform="translate(-156.663 -1044.677)" fill="#ffc721"/>
      </g>
      <g id="Grupo_80116" data-name="Grupo 80116" transform="translate(11.628 11.627)">
        <path id="Trazado_113531" data-name="Trazado 113531" d="M186.956,1124.457l-55.794-55.794a1.628,1.628,0,0,1,0-2.3h0a1.628,1.628,0,0,1,2.3,0l55.794,55.794a1.629,1.629,0,0,1,0,2.3h0A1.628,1.628,0,0,1,186.956,1124.457Z" transform="translate(-130.686 -1065.885)" fill="#ffc721"/>
      </g>
      <g id="Grupo_80117" data-name="Grupo 80117" transform="translate(6.402 18.028)">
        <path id="Trazado_113532" data-name="Trazado 113532" d="M164.574,1149.259l-54.619-54.619a1.627,1.627,0,0,1,0-2.3h0a1.627,1.627,0,0,1,2.3,0l54.618,54.618a1.626,1.626,0,0,1,0,2.3h0A1.627,1.627,0,0,1,164.574,1149.259Z" transform="translate(-109.478 -1091.863)" fill="#ffc721"/>
      </g>
      <g id="Grupo_80118" data-name="Grupo 80118" transform="translate(2.424 25.67)">
        <path id="Trazado_113533" data-name="Trazado 113533" d="M144.767,1176.606l-50.954-50.954a1.626,1.626,0,0,1,0-2.3h0a1.626,1.626,0,0,1,2.3,0l50.954,50.953a1.626,1.626,0,0,1,0,2.3h0A1.625,1.625,0,0,1,144.767,1176.606Z" transform="translate(-93.336 -1122.875)" fill="#ffc721"/>
      </g>
      <g id="Grupo_80119" data-name="Grupo 80119" transform="translate(0 34.865)">
        <path id="Trazado_113534" data-name="Trazado 113534" d="M128.159,1207.15l-44.184-44.184a1.626,1.626,0,0,1,0-2.3h0a1.626,1.626,0,0,1,2.3,0l44.184,44.184a1.626,1.626,0,0,1,0,2.3h0A1.626,1.626,0,0,1,128.159,1207.15Z" transform="translate(-83.499 -1160.189)" fill="#ffc721"/>
      </g>
      <g id="Grupo_80120" data-name="Grupo 80120" transform="translate(0 46.484)">
        <path id="Trazado_113535" data-name="Trazado 113535" d="M116.54,1242.685,83.976,1210.12a1.626,1.626,0,0,1,0-2.3h0a1.627,1.627,0,0,1,2.3,0l32.565,32.565a1.627,1.627,0,0,1,0,2.3h0A1.626,1.626,0,0,1,116.54,1242.685Z" transform="translate(-83.499 -1207.343)" fill="#ffc721"/>
      </g>
      <g id="Grupo_80121" data-name="Grupo 80121" transform="translate(4.36 62.464)">
        <path id="Trazado_113536" data-name="Trazado 113536" d="M113.892,1287.2l-12.225-12.224a1.627,1.627,0,0,1,0-2.3h0a1.627,1.627,0,0,1,2.3,0l12.226,12.225a1.627,1.627,0,0,1,0,2.3h0A1.627,1.627,0,0,1,113.892,1287.2Z" transform="translate(-101.191 -1272.193)" fill="#ffc721"/>
      </g>
    </g>
  </g>
  <g id="estrategia" transform="translate(11.166)">
    <path id="Trazado_676984" data-name="Trazado 676984" d="M95.047,47.523A47.523,47.523,0,1,1,47.523,0,47.523,47.523,0,0,1,95.047,47.523Zm0,0" fill="#73c3f9"/>
    <path id="Trazado_676985" data-name="Trazado 676985" d="M128.211,0h60.444a5.954,5.954,0,0,1,5.953,5.953V62.959a5.954,5.954,0,0,1-5.953,5.953H128.211a5.953,5.953,0,0,1-5.953-5.953V5.953A5.953,5.953,0,0,1,128.211,0Zm0,0" transform="translate(-99.562)" fill="#3d4159"/>
    <path id="Trazado_676986" data-name="Trazado 676986" d="M145.23,82.051a2.075,2.075,0,0,1-2.074-2.073V22.972A2.076,2.076,0,0,1,145.23,20.9h60.444a2.076,2.076,0,0,1,2.074,2.074V79.977a2.076,2.076,0,0,1-2.074,2.074Zm0,0" transform="translate(-116.581 -17.019)" fill="#f2f0ec"/>
    <g id="Grupo_990214" data-name="Grupo 990214" transform="translate(42.828 7.553)">
      <path id="Trazado_676987" data-name="Trazado 676987" d="M405.744,276.755a1.356,1.356,0,0,1,1.912-.141l2.225,1.918,1.917-1.668a1.356,1.356,0,1,1,1.78,2.047l-1.622,1.41,2.851,2.457a1.356,1.356,0,1,1-1.771,2.054l-3.147-2.713-1.982,1.723a1.356,1.356,0,0,1-1.78-2.047l1.686-1.466-1.928-1.662a1.356,1.356,0,0,1-.141-1.913Zm0,0" transform="translate(-372.982 -232.549)" fill="#854f89"/>
      <path id="Trazado_676988" data-name="Trazado 676988" d="M343.944,50.231A1.356,1.356,0,0,1,341.98,52.1l-4.932-5.178a1.357,1.357,0,0,1,.23-2.064l5.919-3.946a1.356,1.356,0,0,1,1.5,2.257L342.1,44.9c7.637.331,12.077,4.031,14.483,7.161a19.394,19.394,0,0,1,3.49,7.214,1.357,1.357,0,0,1-1.059,1.6,1.34,1.34,0,0,1-.272.028,1.357,1.357,0,0,1-1.328-1.086,16.707,16.707,0,0,0-2.983-6.1c-3.043-3.96-7.415-6.013-12.993-6.118Zm0,0" transform="translate(-317.002 -40.686)" fill="#854f89"/>
      <path id="Trazado_676989" data-name="Trazado 676989" d="M426.355,179.833a5.285,5.285,0,0,0-1.773,3.946,1.356,1.356,0,0,0,1.357,1.356h7.89a1.356,1.356,0,0,0,1.357-1.356,5.285,5.285,0,0,0-1.773-3.946,5.3,5.3,0,1,0-7.058,0Zm3.529,1.357a2.589,2.589,0,0,1,2.205,1.233h-4.41A2.589,2.589,0,0,1,429.884,181.189Zm0-2.713a2.589,2.589,0,1,1,2.59-2.589A2.592,2.592,0,0,1,429.884,178.477Zm0,0" transform="translate(-388.591 -146.471)" fill="#854f89"/>
      <path id="Trazado_676990" data-name="Trazado 676990" d="M231.358,300.995l4.882-2.959a1.357,1.357,0,0,1,1.406,0l4.18,2.533,4.179-2.533a1.357,1.357,0,0,1,1.406,0l4.179,2.533,4.179-2.533a1.356,1.356,0,0,1,1.406,2.32l-4.882,2.959a1.36,1.36,0,0,1-1.406,0l-4.179-2.534-4.18,2.534a1.359,1.359,0,0,1-1.405,0l-4.18-2.534-4.18,2.534a1.356,1.356,0,1,1-1.405-2.32Zm0,0" transform="translate(-230.704 -250.101)" fill="#854f89"/>
      <path id="Trazado_676991" data-name="Trazado 676991" d="M336.078,163.6a5.267,5.267,0,0,0,1.553,3.749l2.79,2.79a1.356,1.356,0,0,0,1.918,0l2.79-2.79a5.3,5.3,0,1,0-9.051-3.749Zm2.713,0a2.589,2.589,0,1,1,4.42,1.831l-1.831,1.831-1.83-1.831A2.571,2.571,0,0,1,338.791,163.6Zm0,0" transform="translate(-316.517 -136.463)" fill="#854f89"/>
    </g>
    <path id="Trazado_676992" data-name="Trazado 676992" d="M105.314,372.109v5.429a47.172,47.172,0,0,1-16.436,5.648A47.513,47.513,0,0,1,59.364,366.6a17.673,17.673,0,0,1,15.341-12.1q.716-.058,1.445-.058h11.5a17.635,17.635,0,0,1,17.663,17.66Zm0,0" transform="translate(-48.344 -288.65)" fill="#dd3033"/>
    <path id="Trazado_676993" data-name="Trazado 676993" d="M141.044,372.109v10.649a47.979,47.979,0,0,1-14.438.679,47.278,47.278,0,0,1-23.368-9.125v-2.2a17.662,17.662,0,0,1,17.663-17.66h2.479a17.59,17.59,0,0,1,11.333,4.115h0a17.62,17.62,0,0,1,6.33,13.544Zm0,0" transform="translate(-84.074 -288.65)" fill="#f74f4f"/>
    <path id="Trazado_676994" data-name="Trazado 676994" d="M36.243,223.828a5.86,5.86,0,0,1-4.922,5.785,5.792,5.792,0,0,1-.938.075,5.86,5.86,0,1,1,0-11.719,5.8,5.8,0,0,1,.938.075A5.86,5.86,0,0,1,36.243,223.828Zm0,0" transform="translate(-19.971 -177.505)" fill="#d3a489"/>
    <path id="Trazado_676995" data-name="Trazado 676995" d="M164.712,388.773l-4.741,7.6-4.74-7.6" transform="translate(-126.414 -316.602)" fill="#ffe152"/>
    <path id="Trazado_676996" data-name="Trazado 676996" d="M169.275,435.315a47.009,47.009,0,0,1-7.74-2.329l3.571-13.908Zm0,0" transform="translate(-131.548 -341.281)" fill="#ffe152"/>
    <path id="Trazado_676997" data-name="Trazado 676997" d="M62.656,224.158a5.86,5.86,0,0,1-4.922,5.785,21.908,21.908,0,0,1,0-11.568A5.86,5.86,0,0,1,62.656,224.158Zm0,0" transform="translate(-46.384 -177.836)" fill="#bf8e75"/>
    <path id="Trazado_676998" data-name="Trazado 676998" d="M49,240.344A2.094,2.094,0,1,1,46.9,238.25,2.094,2.094,0,0,1,49,240.344Zm0,0" transform="translate(-36.49 -194.021)" fill="#bf8e75"/>
    <path id="Trazado_676999" data-name="Trazado 676999" d="M135.272,350.66l-7.951,4.418-2.418-11.25,4.94-2.91" transform="translate(-101.716 -277.631)" fill="#dd3033"/>
    <path id="Trazado_677000" data-name="Trazado 677000" d="M180.762,350.66l7.951,4.418,2.418-11.25-4.94-2.91" transform="translate(-147.206 -277.631)" fill="#dd3033"/>
    <path id="Trazado_677001" data-name="Trazado 677001" d="M273.871,223.828a5.86,5.86,0,0,0,4.922,5.785,5.792,5.792,0,0,0,.938.075,5.86,5.86,0,1,0,0-11.719,5.8,5.8,0,0,0-.938.075A5.86,5.86,0,0,0,273.871,223.828Zm0,0" transform="translate(-223.03 -177.505)" fill="#d3a489"/>
    <path id="Trazado_677002" data-name="Trazado 677002" d="M273.871,224.158a5.86,5.86,0,0,0,4.922,5.785,21.908,21.908,0,0,0,0-11.568A5.86,5.86,0,0,0,273.871,224.158Zm0,0" transform="translate(-223.03 -177.836)" fill="#bf8e75"/>
    <path id="Trazado_677003" data-name="Trazado 677003" d="M298.345,240.344a2.094,2.094,0,1,1-2.094-2.094A2.094,2.094,0,0,1,298.345,240.344Zm0,0" transform="translate(-239.55 -194.021)" fill="#bf8e75"/>
    <path id="Trazado_677004" data-name="Trazado 677004" d="M106.924,136.958a21.8,21.8,0,1,1-43.6,0c0-5.7,4.162-14.25,7.74-18.134,3.984-4.325,7.718-3.668,14.062-3.668a21.561,21.561,0,0,1,3.5.281,21.8,21.8,0,0,1,18.3,21.52Zm0,0" transform="translate(-51.566 -93.75)" fill="#bf8e75"/>
    <path id="Trazado_677005" data-name="Trazado 677005" d="M159.426,317.8v7.733a6.3,6.3,0,0,1-12.6,0V317.8Zm0,0" transform="translate(-119.568 -258.805)" fill="#bf8e75"/>
    <path id="Trazado_677006" data-name="Trazado 677006" d="M176,356.816v.49a6.3,6.3,0,0,1-4.437,6.018,6.3,6.3,0,0,1-4.386-5.2q.632.039,1.27.038A21.771,21.771,0,0,0,176,356.816Zm0,0" transform="translate(-136.142 -290.577)" fill="#d3a489"/>
    <path id="Trazado_677007" data-name="Trazado 677007" d="M137.625,138.348a21.8,21.8,0,0,1-18.3,21.521,21.8,21.8,0,0,1,0-43.041,21.807,21.807,0,0,1,18.2,19.347c.071.715.107,1.441.107,2.173Zm0,0" transform="translate(-82.266 -95.14)" fill="#d3a489"/>
    <path id="Trazado_677008" data-name="Trazado 677008" d="M155.244,278.628A11.016,11.016,0,0,0,149.928,280a.97.97,0,1,0,.935,1.7,9.048,9.048,0,0,1,8.761,0,.97.97,0,0,0,.935-1.7A11.016,11.016,0,0,0,155.244,278.628Zm0,0" transform="translate(-121.687 -226.904)" fill="#bf8e75"/>
    <path id="Trazado_677009" data-name="Trazado 677009" d="M134.056,215.071a2.473,2.473,0,1,1-2.473-2.473A2.473,2.473,0,0,1,134.056,215.071Zm0,0" transform="translate(-105.142 -173.132)" fill="#3d4159"/>
    <path id="Trazado_677010" data-name="Trazado 677010" d="M210.724,215.071a2.473,2.473,0,1,1-2.474-2.473A2.473,2.473,0,0,1,210.724,215.071Zm0,0" transform="translate(-167.577 -173.132)" fill="#3d4159"/>
    <path id="Trazado_677011" data-name="Trazado 677011" d="M143.74,218.919a1.059,1.059,0,1,1-1.059-1.06A1.059,1.059,0,0,1,143.74,218.919Zm0,0" transform="translate(-115.331 -177.416)" fill="#fff"/>
    <path id="Trazado_677012" data-name="Trazado 677012" d="M221.061,218.919a1.06,1.06,0,1,1-1.059-1.06A1.059,1.059,0,0,1,221.061,218.919Zm0,0" transform="translate(-178.297 -177.416)" fill="#fff"/>
    <path id="Trazado_677013" data-name="Trazado 677013" d="M167.708,250.1h-4.946a1.067,1.067,0,0,1,0-2.134h4.946a1.067,1.067,0,1,1,0,2.134Zm0,0" transform="translate(-131.679 -201.936)" fill="#bf8e75"/>
    <path id="Trazado_677014" data-name="Trazado 677014" d="M219.434,446.453h9.5v2.909h-9.5Zm0,0" transform="translate(-178.699 -363.574)" fill="#dd3033"/>
    <path id="Trazado_677015" data-name="Trazado 677015" d="M173.9,81.609a13.216,13.216,0,0,1,12.243,12.523l.062,1.26H190L192.046,109,197,107.465l-.666-13.333a13.215,13.215,0,0,0-13.248-12.558Zm0,0" transform="translate(-141.613 -66.431)" fill="#2a2f4f"/>
    <path id="Trazado_677016" data-name="Trazado 677016" d="M208.971,53.414a13.467,13.467,0,1,1-19.045,19.045Zm0,0" transform="translate(-154.668 -43.498)" fill="#3d4159"/>
    <path id="Trazado_677017" data-name="Trazado 677017" d="M86.7,95.392H70.171L68.124,109l-4.956-1.534.665-13.334A13.215,13.215,0,0,1,77.081,81.574l23.871.09,3.156,5.681" transform="translate(-51.442 -66.431)" fill="#3d4159"/>
    <path id="Trazado_677018" data-name="Trazado 677018" d="M86.268,81.609A13.216,13.216,0,0,0,74.025,94.132l-.062,1.26h-3.8L68.117,109l-4.956-1.534.666-13.333A13.214,13.214,0,0,1,77.074,81.574Zm0,0" transform="translate(-51.436 -66.431)" fill="#2a2f4f"/>
    <path id="Trazado_677019" data-name="Trazado 677019" d="M229.117,401.492c2.83-5.433,9.8-19.991,8.108-24.871a17.685,17.685,0,0,1,4.386,5.482Zm0,0" transform="translate(-186.584 -306.706)" fill="#dd3033"/>
    <path id="Trazado_677020" data-name="Trazado 677020" d="M257.125,240.979,233.278,289.9q-2.1-.035-4.161-.252l25.9-49.732a1.18,1.18,0,0,1,2.107,1.062Zm0,0" transform="translate(-186.584 -194.862)" fill="#3d4159"/>
  </g>
</svg>
