<svg id="Grupo_990390" data-name="Grupo 990390" xmlns="http://www.w3.org/2000/svg" width="85" height="85" viewBox="0 0 85 85">
  <rect id="Rectángulo_33792" data-name="Rectángulo 33792" width="85" height="85" rx="5" fill="#465fc4"/>
  <g id="Grupo_80313" data-name="Grupo 80313" transform="translate(20.916 14.179)">
    <g id="Grupo_80111" data-name="Grupo 80111" transform="translate(0)">
      <path id="Trazado_113526" data-name="Trazado 113526" d="M274.055,1043.023l22.411-22.412a1.119,1.119,0,0,0,0-1.583h0a1.12,1.12,0,0,0-1.584,0l-22.411,22.411a1.119,1.119,0,0,0,0,1.584h0A1.12,1.12,0,0,0,274.055,1043.023Z" transform="translate(-272.143 -1018.7)" fill="#ffc721"/>
    </g>
    <g id="Grupo_80112" data-name="Grupo 80112" transform="translate(3 3)">
      <path id="Trazado_113527" data-name="Trazado 113527" d="M338.9,1046.715l8.414-8.414a1.12,1.12,0,0,0,0-1.583h0a1.119,1.119,0,0,0-1.584,0l-8.413,8.413a1.119,1.119,0,0,0,0,1.584h0A1.119,1.119,0,0,0,338.9,1046.715Z" transform="translate(-336.993 -1036.39)" fill="#ffc721"/>
    </g>
    <g id="Grupo_80113" data-name="Grupo 80113">
      <path id="Trazado_113528" data-name="Trazado 113528" d="M226.9,1051.018l30.407-30.407a1.118,1.118,0,0,0,0-1.583h0a1.119,1.119,0,0,0-1.583,0l-30.407,30.407a1.119,1.119,0,0,0,0,1.583h0A1.119,1.119,0,0,0,226.9,1051.018Z" transform="translate(-224.989 -1018.7)" fill="#ffc721"/>
    </g>
    <g id="Grupo_80114" data-name="Grupo 80114" transform="translate(1.669 1.668)">
      <path id="Trazado_113529" data-name="Trazado 113529" d="M189.586,1065.515l35.066-35.067a1.119,1.119,0,0,0,0-1.583h0a1.118,1.118,0,0,0-1.583,0L188,1063.932a1.12,1.12,0,0,0,0,1.583h0A1.119,1.119,0,0,0,189.586,1065.515Z" transform="translate(-187.675 -1028.537)" fill="#ffc721"/>
    </g>
    <g id="Grupo_80115" data-name="Grupo 80115" transform="translate(4.406 4.405)">
      <path id="Trazado_113530" data-name="Trazado 113530" d="M158.574,1084.177l37.589-37.589a1.12,1.12,0,0,0,0-1.584h0a1.12,1.12,0,0,0-1.583,0l-37.589,37.59a1.12,1.12,0,0,0,0,1.583h0A1.119,1.119,0,0,0,158.574,1084.177Z" transform="translate(-156.663 -1044.677)" fill="#ffc721"/>
    </g>
    <g id="Grupo_80116" data-name="Grupo 80116" transform="translate(8.002 8.002)">
      <path id="Trazado_113531" data-name="Trazado 113531" d="M132.6,1106.195l38.4-38.4a1.121,1.121,0,0,0,0-1.584h0a1.12,1.12,0,0,0-1.584,0l-38.4,38.4a1.121,1.121,0,0,0,0,1.584h0A1.121,1.121,0,0,0,132.6,1106.195Z" transform="translate(-130.686 -1065.885)" fill="#ffc721"/>
    </g>
    <g id="Grupo_80117" data-name="Grupo 80117" transform="translate(12.407 12.407)">
      <path id="Trazado_113532" data-name="Trazado 113532" d="M111.389,1131.364l37.589-37.589a1.12,1.12,0,0,0,0-1.583h0a1.119,1.119,0,0,0-1.584,0l-37.589,37.589a1.119,1.119,0,0,0,0,1.584h0A1.12,1.12,0,0,0,111.389,1131.364Z" transform="translate(-109.478 -1091.863)" fill="#ffc721"/>
    </g>
    <g id="Grupo_80118" data-name="Grupo 80118" transform="translate(17.667 17.666)">
      <path id="Trazado_113533" data-name="Trazado 113533" d="M95.247,1159.854l35.067-35.067a1.119,1.119,0,0,0,0-1.583h0a1.118,1.118,0,0,0-1.583,0L93.664,1158.27a1.12,1.12,0,0,0,0,1.584h0A1.118,1.118,0,0,0,95.247,1159.854Z" transform="translate(-93.336 -1122.875)" fill="#ffc721"/>
    </g>
    <g id="Grupo_80119" data-name="Grupo 80119" transform="translate(23.994 23.994)">
      <path id="Trazado_113534" data-name="Trazado 113534" d="M85.41,1192.508l30.407-30.408a1.119,1.119,0,0,0,0-1.583h0a1.118,1.118,0,0,0-1.583,0l-30.408,30.408a1.119,1.119,0,0,0,0,1.583h0A1.119,1.119,0,0,0,85.41,1192.508Z" transform="translate(-83.499 -1160.189)" fill="#ffc721"/>
    </g>
    <g id="Grupo_80120" data-name="Grupo 80120" transform="translate(31.991 31.991)">
      <path id="Trazado_113535" data-name="Trazado 113535" d="M85.41,1231.665l22.411-22.411a1.119,1.119,0,0,0,0-1.584h0a1.119,1.119,0,0,0-1.583,0l-22.411,22.411a1.12,1.12,0,0,0,0,1.583h0A1.12,1.12,0,0,0,85.41,1231.665Z" transform="translate(-83.499 -1207.343)" fill="#ffc721"/>
    </g>
    <g id="Grupo_80121" data-name="Grupo 80121" transform="translate(42.988 42.988)">
      <path id="Trazado_113536" data-name="Trazado 113536" d="M103.1,1282.517l8.413-8.413a1.12,1.12,0,0,0,0-1.584h0a1.12,1.12,0,0,0-1.583,0l-8.414,8.414a1.12,1.12,0,0,0,0,1.583h0A1.119,1.119,0,0,0,103.1,1282.517Z" transform="translate(-101.191 -1272.193)" fill="#ffc721"/>
    </g>
  </g>
  <g id="inspector_1_" data-name="inspector (1)" transform="translate(12 13.876)">
    <g id="Grupo_990373" data-name="Grupo 990373" transform="translate(6.881 44.97)">
      <path id="Trazado_677319" data-name="Trazado 677319" d="M396.615,396.537a3.765,3.765,0,0,0,3.765-3.765v-9.117h-7.529v9.117A3.764,3.764,0,0,0,396.615,396.537Z" transform="translate(-392.851 -383.656)" fill="#e0a083"/>
    </g>
    <g id="Grupo_990374" data-name="Grupo 990374" transform="translate(1.209 20.648)">
      <circle id="Elipse_7610" data-name="Elipse 7610" cx="9.376" cy="9.376" r="9.376" fill="#bedaff"/>
    </g>
    <g id="Grupo_990375" data-name="Grupo 990375" transform="translate(8.216 39.073)">
      <path id="Trazado_677320" data-name="Trazado 677320" d="M404.141,334.926V340.8h4.83v-5.9a9.45,9.45,0,0,1-4.83.024Z" transform="translate(-404.141 -334.902)" fill="#fff"/>
    </g>
    <g id="Grupo_990376" data-name="Grupo 990376" transform="translate(22.087 9.558)">
      <path id="Trazado_677321" data-name="Trazado 677321" d="M158.728,95.8v3.378a11.74,11.74,0,0,1-6.438,10.477,11.764,11.764,0,0,1-10.605,0,11.739,11.739,0,0,1-6.436-10.476V95.8a11.689,11.689,0,0,1,.115-1.645H137.7a5.756,5.756,0,0,0,4.768-2.768,1.236,1.236,0,0,1,2.036.016,5.683,5.683,0,0,0,4.747,2.752h9.365A11.69,11.69,0,0,1,158.728,95.8Z" transform="translate(-135.249 -90.865)" fill="#ffd0c6"/>
    </g>
    <g id="Grupo_990377" data-name="Grupo 990377" transform="translate(20.608 1.21)">
      <path id="Trazado_677322" data-name="Trazado 677322" d="M136.423,21.841c-7.082,0-8.152,3.748-8.152,3.748a8.1,8.1,0,0,0-5.252,7.9h3.926a5.757,5.757,0,0,0,4.768-2.768,1.236,1.236,0,0,1,2.036.016,5.684,5.684,0,0,0,4.748,2.752h10.96a11.953,11.953,0,0,0-12-11.643h-1.033Z" transform="translate(-123.019 -21.841)" fill="#1b323a"/>
    </g>
    <g id="Grupo_990378" data-name="Grupo 990378" transform="translate(27.674 28.352)">
      <path id="Trazado_677323" data-name="Trazado 677323" d="M182.5,253.321l6.129,4.586,6.05-4.586-.721-7.066a11.756,11.756,0,0,1-10.607,0Z" transform="translate(-182.501 -246.255)" fill="#ffd0c6"/>
    </g>
    <g id="Grupo_990379" data-name="Grupo 990379" transform="translate(10.645 35.418)">
      <path id="Trazado_677324" data-name="Trazado 677324" d="M10,327.114H60.07l-.675-9.172A14.543,14.543,0,0,0,45.215,304.7l-6.008-.019h0l-6.05,4.586-6.128-4.581v0l-6.4.019c-.35,0-1.645.013-3.06.038-.023.033-.047.064-.07.1a9.379,9.379,0,0,1-5.1,3.5v5.9h1.366v9.116A3.765,3.765,0,0,1,10,327.114Z" transform="translate(-10 -304.681)" fill="#e7e7ef"/>
    </g>
    <g id="Grupo_990380" data-name="Grupo 990380" transform="translate(33.802 35.418)">
      <path id="Trazado_677325" data-name="Trazado 677325" d="M154.252,309.267l6.117,4.711,3.349-9.3H160.3Z" transform="translate(-154.252 -304.681)" fill="#fff"/>
    </g>
    <g id="Grupo_990381" data-name="Grupo 990381" transform="translate(24.317 35.418)">
      <path id="Trazado_677326" data-name="Trazado 677326" d="M242,309.267l-6.136,4.711-3.349-9.3h3.357Z" transform="translate(-232.519 -304.681)" fill="#fff"/>
    </g>
    <g id="Grupo_990382" data-name="Grupo 990382" transform="translate(29.903 40.004)">
      <path id="Trazado_677327" data-name="Trazado 677327" d="M204.231,342.6l3.893,3-1.452,4.319h-4.887l-1.453-4.324Z" transform="translate(-200.332 -342.6)" fill="#868eaf"/>
    </g>
    <g id="Grupo_990383" data-name="Grupo 990383" transform="translate(29.769 47.322)">
      <path id="Trazado_677328" data-name="Trazado 677328" d="M205.683,403.1l1.588,10.529h-8.063L200.8,403.1Z" transform="translate(-199.208 -403.101)" fill="#868eaf"/>
    </g>
    <g id="Grupo_990384" data-name="Grupo 990384">
      <path id="Trazado_677329" data-name="Trazado 677329" d="M216.536,150.315h-1.752a1.209,1.209,0,0,1,0-2.419h.569l-.682-2a1.209,1.209,0,1,1,2.289-.782l1.064,3.116a1.572,1.572,0,0,1-1.488,2.08Z" transform="translate(-182.015 -128.279)"/>
      <path id="Trazado_677330" data-name="Trazado 677330" d="M37.568,336.647a1.209,1.209,0,1,1-.546-1.529A1.217,1.217,0,0,1,37.568,336.647Z" transform="translate(20.004 -295.895)"/>
      <path id="Trazado_677331" data-name="Trazado 677331" d="M0,41.864a10.585,10.585,0,1,1,20.3,4.212c.466-.005,6.305-.027,6.305-.027l.625-5.191a12.89,12.89,0,0,1-6.348-11.142V26.338q0-.218.008-.435h-.277A1.21,1.21,0,0,1,19.4,24.693a9.368,9.368,0,0,1,3.022-7.181,9.509,9.509,0,0,1,2.539-1.66c.666-1.262,2.831-4.012,9.053-4.012h1.033a13.314,13.314,0,0,1,9.249,3.747,12.552,12.552,0,0,1,3.961,9.106A1.21,1.21,0,0,1,47.045,25.9h-.277q.007.218.008.435v3.378a12.892,12.892,0,0,1-6.361,11.15l.529,5.184,4.916.019a15.219,15.219,0,0,1,6.983,1.723,1.209,1.209,0,0,1-1.115,2.147,12.793,12.793,0,0,0-5.872-1.45l-1.743-.006-3.056,8.484a1.221,1.221,0,0,1-1.876.548l-.88-.678-.818,2.434,1.389,9.211H50.666v-5.82a1.209,1.209,0,1,1,2.419,0v5.82h6.328l-.579-7.863a13.388,13.388,0,0,0-.784-3.5,1.209,1.209,0,1,1,2.264-.853,15.809,15.809,0,0,1,.931,4.139l0,.021.675,9.172a1.209,1.209,0,0,1-1.206,1.3H10.645a4.98,4.98,0,0,1-4.974-4.974V56.81A1.21,1.21,0,0,1,6.88,55.6h.125V51.826A10.6,10.6,0,0,1,0,41.864ZM10.584,33.7a8.165,8.165,0,1,0,8.166,8.166A8.176,8.176,0,0,0,10.584,33.7ZM31.8,51.857l-4.532-3.388-1.227,0,2.2,6.115Zm2.77-9.214a13,13,0,0,1-5.037-.7l-.574,4.771L33.8,50.33,38.579,46.7l-.486-4.758a12.964,12.964,0,0,1-3.525.7Zm.477-28.384H34.011c-5.807,0-6.9,2.641-6.992,2.882a1.111,1.111,0,0,1-.789.808A6.8,6.8,0,0,0,21.9,23.484h2.637a4.224,4.224,0,0,0,3.489-1.841,2.855,2.855,0,0,1,1.9-1.423,2.474,2.474,0,0,1,2.419,1.042,4.475,4.475,0,0,0,3.746,2.221H45.76a10.836,10.836,0,0,0-10.715-9.225Zm9.312,15.457V26.338q0-.218-.009-.435H36.085a6.894,6.894,0,0,1-5.749-3.284.027.027,0,0,0-.044,0A6.964,6.964,0,0,1,24.533,25.9H23.3q-.009.217-.009.435v3.378a10.523,10.523,0,0,0,10.53,10.53,10.7,10.7,0,0,0,4.72-1.115l.037-.018h0A10.491,10.491,0,0,0,44.356,29.716Zm-5.014,24.87,2.2-6.112-1.288,0-4.463,3.383ZM33.8,53.37l-2.476,1.9.9,2.681h3.148l.9-2.678Zm1.4,7H32.4l-1.223,8.11h5.251Zm-6.475,8.11,1.389-9.211L29.3,56.828l-.894.686a1.221,1.221,0,0,1-1.874-.549L23.471,48.48s-3.486.016-4.651.035a10.678,10.678,0,0,1-4.566,3.28V55.6h.156a1.225,1.225,0,0,1,1.21,1.21v9.116a4.99,4.99,0,0,1-.708,2.555ZM8.09,65.927a2.558,2.558,0,0,0,2.553,2.555A2.587,2.587,0,0,0,13.2,65.927V58.02H8.09v7.907ZM9.424,55.6h2.411V52.376a10.575,10.575,0,0,1-2.411.01Z" transform="translate(0.001 -11.84)"/>
    </g>
  </g>
  <g id="Elipse_4731" data-name="Elipse 4731" transform="translate(12 56.238)" fill="none" stroke="#ffc721" stroke-width="4">
    <ellipse cx="8.583" cy="8.583" rx="8.583" ry="8.583" stroke="none"/>
    <ellipse cx="8.583" cy="8.583" rx="6.583" ry="6.583" fill="none"/>
  </g>
</svg>
