<svg id="g8259" xmlns="http://www.w3.org/2000/svg" xmlns:xlink="http://www.w3.org/1999/xlink" width="94.754" height="94.754" viewBox="0 0 94.754 94.754">
  <defs>
    <clipPath id="clip-path">
      <path id="path8265" d="M94.754-682.665H0v94.754H94.754Z" transform="translate(0 682.665)"/>
    </clipPath>
  </defs>
  <g id="g8261">
    <g id="g8263" clip-path="url(#clip-path)">
      <g id="g8269" transform="translate(14.051 78.15)">
        <path id="path8271" d="M-458.26-94.411h61.3a2.674,2.674,0,0,0,2.674-2.674v-9.868a2.674,2.674,0,0,0-2.674-2.674h-61.3a2.674,2.674,0,0,0-2.674,2.674v9.868a2.674,2.674,0,0,0,2.674,2.674" transform="translate(460.934 109.628)" fill="#7ca1b1"/>
      </g>
      <g id="g8273" transform="translate(14.051 78.15)">
        <path id="path8275" d="M-77.266,0h11.1a2.674,2.674,0,0,0-2.674,2.674v9.868a2.674,2.674,0,0,0,2.674,2.674h-11.1a2.674,2.674,0,0,1-2.674-2.674V2.674A2.674,2.674,0,0,1-77.266,0" transform="translate(79.94)" fill="#678d98"/>
      </g>
      <g id="g8277" transform="translate(21.294 70.151)">
        <path id="path8279" d="M-349,0h45.625a3.27,3.27,0,0,1,3.27,3.27V8h-52.165V3.27A3.27,3.27,0,0,1-349,0" transform="translate(352.273)" fill="#f9931f"/>
      </g>
      <g id="g8281" transform="translate(21.294 70.151)">
        <path id="path8283" d="M-76.671,0h11.1a3.27,3.27,0,0,0-3.27,3.27V8h-11.1V3.27A3.27,3.27,0,0,1-76.671,0" transform="translate(79.941)" fill="#da7a0c"/>
      </g>
      <g id="g8285" transform="translate(26.554 21.979)">
        <path id="path8287" d="M-300.041-298.885h41.646V-331.05A16.006,16.006,0,0,0-274.4-347.056h-9.633a16.006,16.006,0,0,0-16.006,16.006Z" transform="translate(300.041 347.056)" fill="#f9931f"/>
      </g>
      <g id="g8289" transform="translate(26.554 21.979)">
        <path id="path8291" d="M-58.664,0h9.633c.245,0,.489.008.731.019A16.005,16.005,0,0,0-63.575,16.006V48.172h-11.1V16.006A16.006,16.006,0,0,1-58.664,0" transform="translate(74.67)" fill="#da7a0c"/>
      </g>
      <g id="g8293" transform="translate(43.147 45.747)">
        <path id="path8295" d="M-60.956-151.416H-52.5v-20.174a4.23,4.23,0,0,0-4.23-4.23,4.23,4.23,0,0,0-4.23,4.23Z" transform="translate(60.956 175.82)" fill="#c0d6f1"/>
      </g>
      <g id="g8297" transform="translate(43.147 45.747)">
        <path id="path8299" d="M-13.863,0a4.211,4.211,0,0,1,2.511.827,4.224,4.224,0,0,0-1.719,3.4V24.4h-5.023V4.23A4.23,4.23,0,0,1-13.863,0" transform="translate(18.093)" fill="#a6c4e8"/>
      </g>
      <g id="g8301" transform="translate(59.808 39.481)">
        <path id="path8303" d="M-176-149.889h21.749a3.106,3.106,0,0,0,2.657-4.716l-10.874-17.945a3.106,3.106,0,0,0-5.313,0l-10.874,17.945A3.106,3.106,0,0,0-176-149.889" transform="translate(179.107 174.047)" fill="#fef056"/>
      </g>
      <g id="g8305" transform="translate(59.808 39.481)">
        <path id="path8307" d="M-124.2-120.627l10.874-17.945a3.106,3.106,0,0,1,5.313,0l1.114,1.839a3.068,3.068,0,0,0-2.187,1.46l-8.866,14.646a3.106,3.106,0,0,0,2.657,4.716h-6.249a3.106,3.106,0,0,1-2.656-4.716" transform="translate(124.656 140.069)" fill="#fcde06"/>
      </g>
      <g id="g8309" transform="translate(14.051 78.15)">
        <path id="path8311" d="M-458.26-94.411h61.3a2.674,2.674,0,0,0,2.674-2.674v-9.868a2.674,2.674,0,0,0-2.674-2.674h-61.3a2.674,2.674,0,0,0-2.674,2.674v9.868A2.674,2.674,0,0,0-458.26-94.411Z" transform="translate(460.934 109.628)" fill="none" stroke="#000" stroke-linecap="round" stroke-linejoin="round" stroke-miterlimit="10" stroke-width="3"/>
      </g>
      <g id="g8313" transform="translate(21.294 70.151)">
        <path id="path8315" d="M-349,0h45.625a3.27,3.27,0,0,1,3.27,3.27V8h-52.165V3.27A3.27,3.27,0,0,1-349,0Z" transform="translate(352.273)" fill="none" stroke="#000" stroke-linecap="round" stroke-linejoin="round" stroke-miterlimit="10" stroke-width="3"/>
      </g>
      <g id="g8317" transform="translate(26.555 21.98)">
        <path id="path8319" d="M-300.031-196.137v-15.606a16.005,16.005,0,0,1,16-16.005h9.634a16.005,16.005,0,0,1,16.005,16.005v7.841" transform="translate(300.031 227.749)" fill="none" stroke="#000" stroke-linecap="round" stroke-linejoin="round" stroke-miterlimit="10" stroke-width="3"/>
      </g>
      <g id="g8321" transform="translate(26.555 60.16)">
        <path id="path8323" d="M41.644-21.586v6.511H0v-9.99" transform="translate(0 25.065)" fill="none" stroke="#000" stroke-linecap="round" stroke-linejoin="round" stroke-miterlimit="10" stroke-width="3"/>
      </g>
      <g id="g8325" transform="translate(43.147 45.747)">
        <path id="path8327" d="M8.461-110.665v-13.606a4.23,4.23,0,0,0-4.23-4.23A4.23,4.23,0,0,0,0-124.271V-104.1H8.461" transform="translate(0 128.501)" fill="none" stroke="#000" stroke-linecap="round" stroke-linejoin="round" stroke-miterlimit="10" stroke-width="3"/>
      </g>
      <g id="g8329" transform="translate(59.808 39.481)">
        <path id="path8331" d="M-176-149.889h21.749a3.106,3.106,0,0,0,2.657-4.716l-10.874-17.945a3.106,3.106,0,0,0-5.313,0l-10.874,17.945A3.106,3.106,0,0,0-176-149.889Z" transform="translate(179.107 174.047)" fill="none" stroke="#000" stroke-linecap="round" stroke-linejoin="round" stroke-miterlimit="10" stroke-width="3"/>
      </g>
      <g id="g8333" transform="translate(73.794 46.897)">
        <path id="path8335" d="M0,0V6.344" transform="translate(0 0)" fill="none" stroke="#000" stroke-linecap="round" stroke-linejoin="round" stroke-miterlimit="10" stroke-width="3"/>
      </g>
      <g id="g8337" transform="translate(72.395 56.87)">
        <path id="path8339" d="M2.8-8.677a1.4,1.4,0,0,1-1.4,1.4A1.4,1.4,0,0,1,0-8.677a1.4,1.4,0,0,1,1.4-1.4,1.4,1.4,0,0,1,1.4,1.4" transform="translate(0 10.076)"/>
      </g>
      <g id="g8341" transform="translate(78.723 25.398)">
        <path id="path8343" d="M10.241,0,0,5.913" transform="translate(0)" fill="none" stroke="#000" stroke-linecap="round" stroke-linejoin="round" stroke-miterlimit="10" stroke-width="3"/>
      </g>
      <g id="g8345" transform="translate(65.475 7.821)">
        <path id="path8347" d="M5.912,0,0,10.241" transform="translate(0)" fill="none" stroke="#000" stroke-linecap="round" stroke-linejoin="round" stroke-miterlimit="10" stroke-width="3"/>
      </g>
      <g id="g8349" transform="translate(47.377 1.388)">
        <path id="path8351" d="M0,0V11.825" transform="translate(0)" fill="none" stroke="#000" stroke-linecap="round" stroke-linejoin="round" stroke-miterlimit="10" stroke-width="3"/>
      </g>
      <g id="g8353" transform="translate(23.367 7.821)">
        <path id="path8355" d="M-42.6,0l5.912,10.241" transform="translate(42.596)" fill="none" stroke="#000" stroke-linecap="round" stroke-linejoin="round" stroke-miterlimit="10" stroke-width="3"/>
      </g>
      <g id="g8357" transform="translate(5.79 25.398)">
        <path id="path8359" d="M-73.78,0l10.241,5.913" transform="translate(73.78)" fill="none" stroke="#000" stroke-linecap="round" stroke-linejoin="round" stroke-miterlimit="10" stroke-width="3"/>
      </g>
      <g id="g8361" transform="translate(73.267 87.116)">
        <path id="path8363" d="M0,0V6.25" transform="translate(0)" fill="none" stroke="#000" stroke-linecap="round" stroke-linejoin="round" stroke-miterlimit="10" stroke-width="3"/>
      </g>
      <g id="g8365" transform="translate(65.87 87.116)">
        <path id="path8367" d="M0,0V6.25" transform="translate(0)" fill="none" stroke="#000" stroke-linecap="round" stroke-linejoin="round" stroke-miterlimit="10" stroke-width="3"/>
      </g>
      <g id="g8369" transform="translate(58.473 87.116)">
        <path id="path8371" d="M0,0V6.25" transform="translate(0)" fill="none" stroke="#000" stroke-linecap="round" stroke-linejoin="round" stroke-miterlimit="10" stroke-width="3"/>
      </g>
      <g id="g8373" transform="translate(51.076 87.116)">
        <path id="path8375" d="M0,0V6.25" transform="translate(0)" fill="none" stroke="#000" stroke-linecap="round" stroke-linejoin="round" stroke-miterlimit="10" stroke-width="3"/>
      </g>
      <g id="g8377" transform="translate(43.678 87.116)">
        <path id="path8379" d="M0,0V6.25" transform="translate(0)" fill="none" stroke="#000" stroke-linecap="round" stroke-linejoin="round" stroke-miterlimit="10" stroke-width="3"/>
      </g>
      <g id="g8381" transform="translate(36.281 87.116)">
        <path id="path8383" d="M0,0V6.25" transform="translate(0)" fill="none" stroke="#000" stroke-linecap="round" stroke-linejoin="round" stroke-miterlimit="10" stroke-width="3"/>
      </g>
      <g id="g8385" transform="translate(28.884 87.116)">
        <path id="path8387" d="M0,0V6.25" transform="translate(0)" fill="none" stroke="#000" stroke-linecap="round" stroke-linejoin="round" stroke-miterlimit="10" stroke-width="3"/>
      </g>
      <g id="g8389" transform="translate(21.487 87.116)">
        <path id="path8391" d="M0,0V6.25" transform="translate(0)" fill="none" stroke="#000" stroke-linecap="round" stroke-linejoin="round" stroke-miterlimit="10" stroke-width="3"/>
      </g>
    </g>
  </g>
</svg>
