<svg xmlns="http://www.w3.org/2000/svg" width="85" height="80" viewBox="0 0 85 80">
  <g id="Grupo_991590" data-name="Grupo 991590" transform="translate(-180 -15887)">
    <rect id="Rectángulo_344895" data-name="Rectángulo 344895" width="85" height="80" rx="5" transform="translate(180 15887)" fill="#465fc4"/>
    <g id="Grupo_990931" data-name="Grupo 990931" transform="translate(-2 -814.244)">
      <g id="Grupo_80313" data-name="Grupo 80313" transform="translate(200.198 16714.154)">
        <g id="Grupo_80111" data-name="Grupo 80111" transform="translate(0)">
          <path id="Trazado_113526" data-name="Trazado 113526" d="M273.9,1041.065l20.607-20.608a1.029,1.029,0,0,0,0-1.456h0a1.03,1.03,0,0,0-1.456,0l-20.607,20.607a1.029,1.029,0,0,0,0,1.456h0A1.03,1.03,0,0,0,273.9,1041.065Z" transform="translate(-272.143 -1018.7)" fill="#ffc721"/>
        </g>
        <g id="Grupo_80112" data-name="Grupo 80112" transform="translate(2.759 2.758)">
          <path id="Trazado_113527" data-name="Trazado 113527" d="M338.75,1045.884l7.737-7.736a1.03,1.03,0,0,0,0-1.456h0a1.029,1.029,0,0,0-1.456,0l-7.736,7.736a1.029,1.029,0,0,0,0,1.456h0A1.029,1.029,0,0,0,338.75,1045.884Z" transform="translate(-336.993 -1036.39)" fill="#ffc721"/>
        </g>
        <g id="Grupo_80113" data-name="Grupo 80113">
          <path id="Trazado_113528" data-name="Trazado 113528" d="M226.747,1048.417l27.96-27.96a1.028,1.028,0,0,0,0-1.456h0a1.029,1.029,0,0,0-1.456,0l-27.96,27.96a1.029,1.029,0,0,0,0,1.456h0A1.029,1.029,0,0,0,226.747,1048.417Z" transform="translate(-224.989 -1018.7)" fill="#ffc721"/>
        </g>
        <g id="Grupo_80114" data-name="Grupo 80114" transform="translate(1.534 1.534)">
          <path id="Trazado_113529" data-name="Trazado 113529" d="M189.433,1062.539l32.244-32.244a1.029,1.029,0,0,0,0-1.456h0a1.028,1.028,0,0,0-1.456,0l-32.244,32.244a1.03,1.03,0,0,0,0,1.456h0A1.029,1.029,0,0,0,189.433,1062.539Z" transform="translate(-187.675 -1028.537)" fill="#ffc721"/>
        </g>
        <g id="Grupo_80115" data-name="Grupo 80115" transform="translate(4.051 4.051)">
          <path id="Trazado_113530" data-name="Trazado 113530" d="M158.42,1081l34.563-34.563a1.029,1.029,0,0,0,0-1.456h0a1.029,1.029,0,0,0-1.456,0l-34.563,34.564a1.03,1.03,0,0,0,0,1.456h0A1.029,1.029,0,0,0,158.42,1081Z" transform="translate(-156.663 -1044.677)" fill="#ffc721"/>
        </g>
        <g id="Grupo_80116" data-name="Grupo 80116" transform="translate(7.358 7.358)">
          <path id="Trazado_113531" data-name="Trazado 113531" d="M132.443,1102.95l35.307-35.307a1.03,1.03,0,0,0,0-1.456h0a1.03,1.03,0,0,0-1.456,0l-35.307,35.307a1.03,1.03,0,0,0,0,1.456h0A1.031,1.031,0,0,0,132.443,1102.95Z" transform="translate(-130.686 -1065.885)" fill="#ffc721"/>
        </g>
        <g id="Grupo_80117" data-name="Grupo 80117" transform="translate(11.409 11.409)">
          <path id="Trazado_113532" data-name="Trazado 113532" d="M111.236,1128.184,145.8,1093.62a1.029,1.029,0,0,0,0-1.456h0a1.029,1.029,0,0,0-1.456,0l-34.563,34.563a1.029,1.029,0,0,0,0,1.456h0A1.03,1.03,0,0,0,111.236,1128.184Z" transform="translate(-109.478 -1091.863)" fill="#ffc721"/>
        </g>
        <g id="Grupo_80118" data-name="Grupo 80118" transform="translate(16.244 16.244)">
          <path id="Trazado_113533" data-name="Trazado 113533" d="M95.093,1156.877l32.244-32.244a1.029,1.029,0,0,0,0-1.456h0a1.028,1.028,0,0,0-1.456,0L93.638,1155.42a1.03,1.03,0,0,0,0,1.456h0A1.028,1.028,0,0,0,95.093,1156.877Z" transform="translate(-93.336 -1122.875)" fill="#ffc721"/>
        </g>
        <g id="Grupo_80119" data-name="Grupo 80119" transform="translate(22.063 22.063)">
          <path id="Trazado_113534" data-name="Trazado 113534" d="M85.256,1189.906l27.96-27.96a1.029,1.029,0,0,0,0-1.456h0a1.028,1.028,0,0,0-1.456,0l-27.96,27.96a1.029,1.029,0,0,0,0,1.456h0A1.029,1.029,0,0,0,85.256,1189.906Z" transform="translate(-83.499 -1160.189)" fill="#ffc721"/>
        </g>
        <g id="Grupo_80120" data-name="Grupo 80120" transform="translate(29.416 29.416)">
          <path id="Trazado_113535" data-name="Trazado 113535" d="M85.256,1229.708l20.607-20.607a1.029,1.029,0,0,0,0-1.456h0a1.029,1.029,0,0,0-1.456,0L83.8,1228.252a1.03,1.03,0,0,0,0,1.456h0A1.03,1.03,0,0,0,85.256,1229.708Z" transform="translate(-83.499 -1207.343)" fill="#ffc721"/>
        </g>
        <g id="Grupo_80121" data-name="Grupo 80121" transform="translate(39.528 39.528)">
          <path id="Trazado_113536" data-name="Trazado 113536" d="M102.949,1281.686l7.736-7.736a1.029,1.029,0,0,0,0-1.456h0a1.03,1.03,0,0,0-1.456,0l-7.736,7.737a1.03,1.03,0,0,0,0,1.456h0A1.029,1.029,0,0,0,102.949,1281.686Z" transform="translate(-101.191 -1272.193)" fill="#ffc721"/>
        </g>
      </g>
      <g id="piramide" transform="translate(192 16713.875)">
        <g id="Grupo_990936" data-name="Grupo 990936" transform="translate(1.253 1.81)">
          <path id="Trazado_677937" data-name="Trazado 677937" d="M108.766,405.446l6.155,12.095H67.76L73.9,405.484Z" transform="translate(-60.525 -366.325)" fill="#3c5485"/>
          <path id="Trazado_677938" data-name="Trazado 677938" d="M132.73,321.566l7.305,14.354H101.269l7.305-14.354Z" transform="translate(-89.836 -292.952)" fill="#fd4a4a"/>
          <path id="Trazado_677939" data-name="Trazado 677939" d="M213.832,132.107l6.039,11.867H207.793Z" transform="translate(-183.016 -127.226)" fill="#fed816"/>
          <path id="Trazado_677940" data-name="Trazado 677940" d="M177.7,226.837l5.751,11.3.288.565H159.585l.288-.565,5.751-11.3Z" transform="translate(-140.847 -210.089)" fill="#ff8346"/>
          <path id="Trazado_677947" data-name="Trazado 677947" d="M0,0H8.371V8.371H0Z" fill="#fed816"/>
        </g>
        <path id="Trazado_677941" data-name="Trazado 677941" d="M105.582,2.505h11.137a1.253,1.253,0,1,0,0-2.505H105.582a1.253,1.253,0,1,0,0,2.505Z" transform="translate(-91.26 0)"/>
        <path id="Trazado_677942" data-name="Trazado 677942" d="M1.253,10.877H9.624a1.253,1.253,0,0,0,1.253-1.253V1.253A1.253,1.253,0,0,0,9.624,0H1.253A1.253,1.253,0,0,0,0,1.253V9.624A1.253,1.253,0,0,0,1.253,10.877ZM2.505,2.505H8.371V8.371H2.505Z" transform="translate(0 0)"/>
        <path id="Trazado_677943" data-name="Trazado 677943" d="M105.582,35.559h5.191a1.253,1.253,0,1,0,0-2.505h-5.191a1.253,1.253,0,1,0,0,2.505Z" transform="translate(-91.26 -28.913)"/>
        <path id="Trazado_677944" data-name="Trazado 677944" d="M128.049,216.837a1.253,1.253,0,1,0,0,2.505h.059a1.253,1.253,0,0,0,0-2.505Z" transform="translate(-110.913 -199.532)"/>
        <path id="Trazado_677945" data-name="Trazado 677945" d="M163.1,426.155h-.059a1.253,1.253,0,1,0,0,2.505h.059a1.253,1.253,0,1,0,0-2.505Z" transform="translate(-141.523 -382.629)"/>
        <path id="Trazado_677946" data-name="Trazado 677946" d="M62.884,168.443H56.417L53.494,162.7h3.148a1.253,1.253,0,1,0,0-2.505H52.219l-19.035-37.4a1.253,1.253,0,0,0-2.233,0l-5.691,11.182H20.839a1.253,1.253,0,0,0,0,2.505h3.148L7.72,168.443H1.253a1.253,1.253,0,1,0,0,2.505H62.884a1.253,1.253,0,0,0,0-2.505ZM32.068,126.123l4,7.852H28.072Zm5.271,10.357,4.764,9.361H22.034L26.8,136.48ZM13.454,162.7h4.423a1.253,1.253,0,1,0,0-2.505H14.729l6.03-11.849h22.62l6.03,11.849H27.768a1.253,1.253,0,1,0,0,2.505H50.683l2.923,5.743H10.531Z" transform="translate(0 -116.669)"/>
      </g>
      <g id="Elipse_4731" data-name="Elipse 4731" transform="translate(192 16752.828)" fill="none" stroke="#ffc721" stroke-width="4">
        <ellipse cx="7.892" cy="7.892" rx="7.892" ry="7.892" stroke="none"/>
        <ellipse cx="7.892" cy="7.892" rx="5.892" ry="5.892" fill="none"/>
      </g>
    </g>
  </g>
</svg>
