<svg id="g8259" xmlns="http://www.w3.org/2000/svg" xmlns:xlink="http://www.w3.org/1999/xlink" width="94.754" height="94.754" viewBox="0 0 94.754 94.754">
  <defs>
    <clipPath id="clip-path">
      <path id="path8265" d="M0-682.665H94.754v94.754H0Z" transform="translate(0 682.665)"/>
    </clipPath>
  </defs>
  <g id="g8261">
    <g id="g8263" clip-path="url(#clip-path)">
      <g id="g8269" transform="translate(14.051 78.15)">
        <path id="path8271" d="M-396.956-94.411h-61.3a2.674,2.674,0,0,1-2.674-2.674v-9.868a2.674,2.674,0,0,1,2.674-2.674h61.3a2.674,2.674,0,0,1,2.674,2.674v9.868a2.674,2.674,0,0,1-2.674,2.674" transform="translate(460.934 109.628)" fill="#7ca1b1"/>
      </g>
      <g id="g8273" transform="translate(66.933 78.15)">
        <path id="path8275" d="M-68.844,0h-11.1a2.674,2.674,0,0,1,2.674,2.674v9.868a2.674,2.674,0,0,1-2.674,2.674h11.1a2.674,2.674,0,0,0,2.674-2.674V2.674A2.674,2.674,0,0,0-68.844,0" transform="translate(79.94)" fill="#678d98"/>
      </g>
      <g id="g8277" transform="translate(21.294 70.15)">
        <path id="path8279" d="M-303.377,0H-349a3.27,3.27,0,0,0-3.27,3.27V8h52.165V3.27A3.27,3.27,0,0,0-303.377,0" transform="translate(352.273)" fill="#f9931f"/>
      </g>
      <g id="g8281" transform="translate(59.094 70.15)">
        <path id="path8283" d="M-68.845,0h-11.1a3.27,3.27,0,0,1,3.27,3.27V8h11.1V3.27A3.27,3.27,0,0,0-68.845,0" transform="translate(79.941)" fill="#da7a0c"/>
      </g>
      <g id="g8285" transform="translate(26.554 21.979)">
        <path id="path8287" d="M-258.395-298.885h-41.646V-331.05a16.006,16.006,0,0,1,16.006-16.006h9.633a16.006,16.006,0,0,1,16.006,16.006Z" transform="translate(300.041 347.056)" fill="#f9931f"/>
      </g>
      <g id="g8289" transform="translate(41.829 21.979)">
        <path id="path8291" d="M-64.306,0h-9.633c-.245,0-.489.008-.731.019A16.005,16.005,0,0,1-59.4,16.006V48.171h11.1V16.006A16.006,16.006,0,0,0-64.306,0" transform="translate(74.67)" fill="#da7a0c"/>
      </g>
      <g id="g8293" transform="translate(43.147 45.747)">
        <path id="path8295" d="M-52.5-151.416h-8.461v-20.174a4.23,4.23,0,0,1,4.23-4.23,4.23,4.23,0,0,1,4.23,4.23Z" transform="translate(60.956 175.82)" fill="#c0d6f1"/>
      </g>
      <g id="g8297" transform="translate(44.866 45.747)">
        <path id="path8299" d="M-15.582,0a4.211,4.211,0,0,0-2.511.827,4.224,4.224,0,0,1,1.719,3.4V24.4h5.023V4.23A4.23,4.23,0,0,0-15.582,0" transform="translate(18.093)" fill="#a6c4e8"/>
      </g>
      <g id="g8301" transform="translate(6.975 39.481)">
        <path id="path8303" d="M-154.247-149.889H-176a3.106,3.106,0,0,1-2.657-4.716l10.874-17.945a3.106,3.106,0,0,1,5.313,0l10.874,17.945a3.106,3.106,0,0,1-2.656,4.716" transform="translate(179.107 174.047)" fill="#fef056"/>
      </g>
      <g id="g8305" transform="translate(17.189 39.481)">
        <path id="path8307" d="M-107.353-120.627l-10.874-17.945a3.106,3.106,0,0,0-5.313,0l-1.114,1.839a3.068,3.068,0,0,1,2.187,1.46l8.866,14.646a3.106,3.106,0,0,1-2.657,4.716h6.249a3.106,3.106,0,0,0,2.656-4.716" transform="translate(124.656 140.069)" fill="#fcde06"/>
      </g>
      <g id="g8309" transform="translate(14.051 78.15)">
        <path id="path8311" d="M-396.956-94.411h-61.3a2.674,2.674,0,0,1-2.674-2.674v-9.868a2.674,2.674,0,0,1,2.674-2.674h61.3a2.674,2.674,0,0,1,2.674,2.674v9.868A2.674,2.674,0,0,1-396.956-94.411Z" transform="translate(460.934 109.628)" fill="none" stroke="#000" stroke-linecap="round" stroke-linejoin="round" stroke-miterlimit="10" stroke-width="3"/>
      </g>
      <g id="g8313" transform="translate(21.294 70.15)">
        <path id="path8315" d="M-303.377,0H-349a3.27,3.27,0,0,0-3.27,3.27V8h52.165V3.27A3.27,3.27,0,0,0-303.377,0Z" transform="translate(352.273)" fill="none" stroke="#000" stroke-linecap="round" stroke-linejoin="round" stroke-miterlimit="10" stroke-width="3"/>
      </g>
      <g id="g8317" transform="translate(26.555 21.98)">
        <path id="path8319" d="M-258.387-196.137v-15.606a16.005,16.005,0,0,0-16-16.005h-9.634a16.005,16.005,0,0,0-16.005,16.005v7.841" transform="translate(300.031 227.749)" fill="none" stroke="#000" stroke-linecap="round" stroke-linejoin="round" stroke-miterlimit="10" stroke-width="3"/>
      </g>
      <g id="g8321" transform="translate(26.555 60.16)">
        <path id="path8323" d="M0-21.586v6.511H41.644v-9.99" transform="translate(0 25.065)" fill="none" stroke="#000" stroke-linecap="round" stroke-linejoin="round" stroke-miterlimit="10" stroke-width="3"/>
      </g>
      <g id="g8325" transform="translate(43.147 45.747)">
        <path id="path8327" d="M0-110.665v-13.606a4.23,4.23,0,0,1,4.23-4.23,4.23,4.23,0,0,1,4.23,4.23V-104.1H0" transform="translate(0 128.501)" fill="none" stroke="#000" stroke-linecap="round" stroke-linejoin="round" stroke-miterlimit="10" stroke-width="3"/>
      </g>
      <g id="g8329" transform="translate(6.975 39.481)">
        <path id="path8331" d="M-154.247-149.889H-176a3.106,3.106,0,0,1-2.657-4.716l10.874-17.945a3.106,3.106,0,0,1,5.313,0l10.874,17.945A3.106,3.106,0,0,1-154.247-149.889Z" transform="translate(179.107 174.047)" fill="none" stroke="#000" stroke-linecap="round" stroke-linejoin="round" stroke-miterlimit="10" stroke-width="3"/>
      </g>
      <g id="g8333" transform="translate(20.96 46.897)">
        <path id="path8335" d="M0,0V6.344" transform="translate(0 0)" fill="none" stroke="#000" stroke-linecap="round" stroke-linejoin="round" stroke-miterlimit="10" stroke-width="3"/>
      </g>
      <g id="g8337" transform="translate(19.562 56.87)">
        <path id="path8339" d="M0-8.677a1.4,1.4,0,0,0,1.4,1.4,1.4,1.4,0,0,0,1.4-1.4,1.4,1.4,0,0,0-1.4-1.4A1.4,1.4,0,0,0,0-8.677" transform="translate(0 10.076)"/>
      </g>
      <g id="g8341" transform="translate(5.79 25.398)">
        <path id="path8343" d="M0,0,10.241,5.913" fill="none" stroke="#000" stroke-linecap="round" stroke-linejoin="round" stroke-miterlimit="10" stroke-width="3"/>
      </g>
      <g id="g8345" transform="translate(23.367 7.821)">
        <path id="path8347" d="M0,0,5.912,10.241" fill="none" stroke="#000" stroke-linecap="round" stroke-linejoin="round" stroke-miterlimit="10" stroke-width="3"/>
      </g>
      <g id="g8349" transform="translate(47.377 1.388)">
        <path id="path8351" d="M0,0V11.825" transform="translate(0)" fill="none" stroke="#000" stroke-linecap="round" stroke-linejoin="round" stroke-miterlimit="10" stroke-width="3"/>
      </g>
      <g id="g8353" transform="translate(65.475 7.821)">
        <path id="path8355" d="M-36.684,0-42.6,10.241" transform="translate(42.596)" fill="none" stroke="#000" stroke-linecap="round" stroke-linejoin="round" stroke-miterlimit="10" stroke-width="3"/>
      </g>
      <g id="g8357" transform="translate(78.723 25.398)">
        <path id="path8359" d="M-63.539,0-73.78,5.913" transform="translate(73.78)" fill="none" stroke="#000" stroke-linecap="round" stroke-linejoin="round" stroke-miterlimit="10" stroke-width="3"/>
      </g>
      <g id="g8361" transform="translate(21.487 87.116)">
        <path id="path8363" d="M0,0V6.25" transform="translate(0)" fill="none" stroke="#000" stroke-linecap="round" stroke-linejoin="round" stroke-miterlimit="10" stroke-width="3"/>
      </g>
      <g id="g8365" transform="translate(28.884 87.116)">
        <path id="path8367" d="M0,0V6.25" transform="translate(0)" fill="none" stroke="#000" stroke-linecap="round" stroke-linejoin="round" stroke-miterlimit="10" stroke-width="3"/>
      </g>
      <g id="g8369" transform="translate(36.281 87.116)">
        <path id="path8371" d="M0,0V6.25" transform="translate(0)" fill="none" stroke="#000" stroke-linecap="round" stroke-linejoin="round" stroke-miterlimit="10" stroke-width="3"/>
      </g>
      <g id="g8373" transform="translate(43.678 87.116)">
        <path id="path8375" d="M0,0V6.25" transform="translate(0)" fill="none" stroke="#000" stroke-linecap="round" stroke-linejoin="round" stroke-miterlimit="10" stroke-width="3"/>
      </g>
      <g id="g8377" transform="translate(51.076 87.116)">
        <path id="path8379" d="M0,0V6.25" transform="translate(0)" fill="none" stroke="#000" stroke-linecap="round" stroke-linejoin="round" stroke-miterlimit="10" stroke-width="3"/>
      </g>
      <g id="g8381" transform="translate(58.473 87.116)">
        <path id="path8383" d="M0,0V6.25" transform="translate(0)" fill="none" stroke="#000" stroke-linecap="round" stroke-linejoin="round" stroke-miterlimit="10" stroke-width="3"/>
      </g>
      <g id="g8385" transform="translate(65.87 87.116)">
        <path id="path8387" d="M0,0V6.25" transform="translate(0)" fill="none" stroke="#000" stroke-linecap="round" stroke-linejoin="round" stroke-miterlimit="10" stroke-width="3"/>
      </g>
      <g id="g8389" transform="translate(73.267 87.116)">
        <path id="path8391" d="M0,0V6.25" transform="translate(0)" fill="none" stroke="#000" stroke-linecap="round" stroke-linejoin="round" stroke-miterlimit="10" stroke-width="3"/>
      </g>
    </g>
  </g>
</svg>
