<svg xmlns="http://www.w3.org/2000/svg" width="220" height="62" viewBox="0 0 220 62">
  <g id="Grupo_991978" data-name="Grupo 991978" transform="translate(-375 -1062)">
    <rect id="Rectángulo_344908" data-name="Rectángulo 344908" width="220" height="62" rx="7" transform="translate(375 1062)" fill="#fff"/>
    <g id="Grupo_990973" data-name="Grupo 990973" transform="translate(-217 -347)">
      <path id="Trazado_679407" data-name="Trazado 679407" d="M13.7,17H11.83L8.275,8.852,6.861,17H4.931L6.908,5.625H8.775L12.33,13.8l1.422-8.18h1.922Zm7.2-4.375H18.72L17.955,17h-1.93L18,5.625l3.586.008a4.085,4.085,0,0,1,2.836.891A2.83,2.83,0,0,1,25.275,9a3.405,3.405,0,0,1-.734,1.912,4.274,4.274,0,0,1-1.82,1.271l1.68,4.7L24.392,17H22.345Zm-1.906-1.594,1.867.016a2.653,2.653,0,0,0,1.684-.527,2.08,2.08,0,0,0,.793-1.434,1.612,1.612,0,0,0-.312-1.355,1.768,1.768,0,0,0-1.3-.5L19.65,7.219ZM26.707,22h-1.08l.857-4.931h1.08Zm-.068-6.193a.609.609,0,0,1,.164-.428.6.6,0,0,1,.442-.187.575.575,0,0,1,.44.162.56.56,0,0,1,.175.417.576.576,0,0,1-.171.428.626.626,0,0,1-.435.178.584.584,0,0,1-.437-.157A.542.542,0,0,1,26.639,15.807Zm7.918-2.877H30.565l.273-1.531h3.992ZM48.331,17H46.464L42.909,8.852,41.495,17h-1.93L41.542,5.625h1.867l3.555,8.18,1.422-8.18h1.922Zm7.2-4.375H53.354L52.589,17h-1.93L52.635,5.625l3.586.008a4.085,4.085,0,0,1,2.836.891A2.83,2.83,0,0,1,59.909,9a3.405,3.405,0,0,1-.734,1.912,4.274,4.274,0,0,1-1.82,1.271l1.68,4.7L59.026,17H56.979ZM53.62,11.031l1.867.016a2.653,2.653,0,0,0,1.684-.527,2.08,2.08,0,0,0,.793-1.434,1.612,1.612,0,0,0-.312-1.355,1.768,1.768,0,0,0-1.3-.5l-2.062-.008ZM60.571,22l.715-4.11h-.734l.146-.82h.729l.073-.529a1.97,1.97,0,0,1,.617-1.212,1.824,1.824,0,0,1,1.287-.437,3.5,3.5,0,0,1,.643.091l-.118.866a1.824,1.824,0,0,0-.406-.046.913.913,0,0,0-.633.21.989.989,0,0,0-.314.592l-.068.465h.975l-.146.82h-.971L61.651,22Z" transform="translate(660 1415)" fill="#12263f"/>
      <path id="Trazado_679410" data-name="Trazado 679410" d="M3.91,9.363,1.723,8.677,2.34,7.42l2.18.929.352-2.724H6.246L5.66,8.31,8.02,7.436l.188,1.4-2.492.687,1.18,2.117L5.73,12.41l-.969-2.258L3.043,12.309,2,11.449ZM17.793,17H15.9V7.862l-2.789.951V7.219l4.438-1.633h.242ZM29.16,12.211a6.2,6.2,0,0,1-.918,3.7,3.242,3.242,0,0,1-2.793,1.246,3.285,3.285,0,0,1-2.777-1.215,5.94,5.94,0,0,1-.957-3.6V10.375a6.11,6.11,0,0,1,.918-3.68,3.272,3.272,0,0,1,2.8-1.227,3.291,3.291,0,0,1,2.785,1.2,5.924,5.924,0,0,1,.941,3.578Zm-1.9-2.125a4.813,4.813,0,0,0-.437-2.348A1.672,1.672,0,0,0,24.066,7.7a4.448,4.448,0,0,0-.461,2.207v2.578a4.937,4.937,0,0,0,.445,2.375,1.5,1.5,0,0,0,1.4.781,1.469,1.469,0,0,0,1.352-.723,4.645,4.645,0,0,0,.461-2.262Zm10.992,2.125a6.2,6.2,0,0,1-.918,3.7,3.242,3.242,0,0,1-2.793,1.246,3.285,3.285,0,0,1-2.777-1.215,5.94,5.94,0,0,1-.957-3.6V10.375a6.11,6.11,0,0,1,.918-3.68,3.272,3.272,0,0,1,2.8-1.227,3.291,3.291,0,0,1,2.785,1.2,5.923,5.923,0,0,1,.941,3.578Zm-1.9-2.125a4.813,4.813,0,0,0-.437-2.348A1.672,1.672,0,0,0,33.16,7.7,4.448,4.448,0,0,0,32.7,9.906v2.578a4.937,4.937,0,0,0,.445,2.375,1.5,1.5,0,0,0,1.4.781,1.469,1.469,0,0,0,1.352-.723,4.645,4.645,0,0,0,.461-2.262Z" transform="translate(734 1432)" fill="#12263f"/>
      <path id="Trazado_679409" data-name="Trazado 679409" d="M11.824,12.18H7.387L6.551,17H4.621L6.59,5.625h7.031L13.34,7.219H8.246L7.66,10.6h4.445ZM20.8,10.906H14.254l.281-1.578h6.539Zm-.578,3.313H13.684l.273-1.57H20.5Z" transform="translate(630 1432)" fill="#12263f"/>
      <path id="Trazado_679408" data-name="Trazado 679408" d="M22.463,17H20.6L17.041,8.852,15.627,17H13.7L15.674,5.625h1.867L21.1,13.8l1.422-8.18h1.922Zm7.2-4.375H27.486L26.72,17h-1.93L26.767,5.625l3.586.008a4.085,4.085,0,0,1,2.836.891A2.83,2.83,0,0,1,34.041,9a3.405,3.405,0,0,1-.734,1.912,4.274,4.274,0,0,1-1.82,1.271l1.68,4.7L33.158,17H31.111Zm-1.906-1.594,1.867.016A2.653,2.653,0,0,0,31.3,10.52,2.08,2.08,0,0,0,32.1,9.086a1.612,1.612,0,0,0-.312-1.355,1.768,1.768,0,0,0-1.3-.5l-2.062-.008ZM35.473,22h-1.08l.857-4.931h1.08ZM35.4,15.807a.609.609,0,0,1,.164-.428.6.6,0,0,1,.442-.187.575.575,0,0,1,.44.162.56.56,0,0,1,.175.417.576.576,0,0,1-.171.428.626.626,0,0,1-.435.178.584.584,0,0,1-.437-.157A.542.542,0,0,1,35.4,15.807Z" transform="translate(669 1443)" fill="#12263f"/>
      <path id="Trazado_677963" data-name="Trazado 677963" d="M-4781.92-10256.5h70.241" transform="translate(5440.92 11699)" fill="none" stroke="#12263f" stroke-width="1"/>
    </g>
  </g>
</svg>
