<svg xmlns="http://www.w3.org/2000/svg" width="220" height="62" viewBox="0 0 220 62">
  <g id="Grupo_991979" data-name="Grupo 991979" transform="translate(-1005 -1062)">
    <rect id="Rectángulo_344909" data-name="Rectángulo 344909" width="220" height="62" rx="7" transform="translate(1005 1062)" fill="#fff"/>
    <g id="Grupo_990974" data-name="Grupo 990974" transform="translate(435 -347)">
      <path id="Trazado_679411" data-name="Trazado 679411" d="M20.57,17H18.7L15.148,8.852,13.734,17H11.8L13.781,5.625h1.867L19.2,13.8l1.422-8.18h1.922Zm7.2-4.375H25.593L24.828,17H22.9L24.874,5.625l3.586.008a4.085,4.085,0,0,1,2.836.891A2.83,2.83,0,0,1,32.148,9a3.405,3.405,0,0,1-.734,1.912,4.274,4.274,0,0,1-1.82,1.271l1.68,4.7L31.265,17H29.218Zm-1.906-1.594,1.867.016a2.653,2.653,0,0,0,1.684-.527A2.08,2.08,0,0,0,30.2,9.086,1.612,1.612,0,0,0,29.89,7.73a1.768,1.768,0,0,0-1.3-.5l-2.062-.008ZM33.58,22H32.5l.857-4.931h1.08Zm-.068-6.193a.609.609,0,0,1,.164-.428.6.6,0,0,1,.442-.187.575.575,0,0,1,.44.162.56.56,0,0,1,.175.417.576.576,0,0,1-.171.428.626.626,0,0,1-.435.178.584.584,0,0,1-.437-.157A.542.542,0,0,1,33.512,15.807Zm6.5-6.444-2.187-.687.617-1.256,2.18.929.352-2.724h1.375L41.758,8.31l2.359-.874.188,1.4-2.492.687,1.18,2.117-1.164.766-.969-2.258-1.719,2.156-1.047-.859Zm15.4,2.816H50.969L50.133,17H48.2L50.172,5.625H57.2l-.281,1.594H51.829L51.243,10.6h4.445Z" transform="translate(660 1415)" fill="#12263f"/>
      <path id="Trazado_679413" data-name="Trazado 679413" d="M11.105,5.625h1.922L11.668,13.6a4.137,4.137,0,0,1-1.355,2.625,3.915,3.915,0,0,1-2.746.938,3.231,3.231,0,0,1-2.434-.945,3.251,3.251,0,0,1-.762-2.469l1.922.008q-.109,1.781,1.391,1.813a1.78,1.78,0,0,0,1.34-.492A2.543,2.543,0,0,0,9.746,13.6Zm9.742,5.281H14.3l.281-1.578h6.539Zm-.578,3.313H13.73L14,12.648h6.547Z" transform="translate(630 1432)" fill="#12263f"/>
      <path id="Trazado_679412" data-name="Trazado 679412" d="M21.113,12.766a6.7,6.7,0,0,1,.7-2.344,3.968,3.968,0,0,1,1.352-1.551,3.121,3.121,0,0,1,1.789-.488,2.5,2.5,0,0,1,2.016.961L27.785,5h1.859L27.559,17H25.9l.125-.875a2.946,2.946,0,0,1-2.312,1.039,2.325,2.325,0,0,1-1.887-.91,3.975,3.975,0,0,1-.762-2.379,6.316,6.316,0,0,1,.023-.945Zm1.8.727a2.6,2.6,0,0,0,.3,1.539,1.2,1.2,0,0,0,1.059.586,2.175,2.175,0,0,0,1.852-1.039l.633-3.633a1.445,1.445,0,0,0-1.422-1.008,1.9,1.9,0,0,0-1.711.938A5,5,0,0,0,22.91,13.492Z" transform="translate(669 1443)" fill="#12263f"/>
      <path id="Trazado_677963" data-name="Trazado 677963" d="M-4781.92-10256.5h70.241" transform="translate(5440.92 11699)" fill="none" stroke="#12263f" stroke-width="1"/>
    </g>
  </g>
</svg>
