<svg xmlns="http://www.w3.org/2000/svg" xmlns:xlink="http://www.w3.org/1999/xlink" width="1320" height="507" viewBox="0 0 1320 507">
  <defs>
    <clipPath id="clip-path">
      <rect id="Rect치ngulo_345077" data-name="Rect치ngulo 345077" width="1320" height="507" rx="20" transform="translate(138.333 70)" fill="#fff" opacity="0.72"/>
    </clipPath>
    <clipPath id="clip-path-2">
      <path id="Rectangle_652" data-name="Rectangle 652" d="M20.787,0H1299.213C1310.693,0,1320,8.4,1320,18.772V488.063c0,10.367-9.307,18.772-20.787,18.772H20.787C9.307,506.835,0,498.431,0,488.063V18.772C0,8.4,9.307,0,20.787,0Z" fill="none"/>
    </clipPath>
    <clipPath id="clip-path-3">
      <path id="Trazado_679338" data-name="Trazado 679338" d="M949.072,203.5c-.106,35.861-27.821,74.233-59.181,78.812C830.846,290.932,852,341.87,771.3,357.561a171.164,171.164,0,0,1-35.785,3.274,142.4,142.4,0,0,1-17.563-1.387c-51.293-7.259-85.811-41.8-98.475-83.492-16.665-54.835,16.611-90.734,38.667-112.364S696.355,74.568,775.569,58.54a165.779,165.779,0,0,1,36.777-3.385c28.184.67,58.925,9.635,80.2,28.348q2.4,2.109,4.664,4.366C926.772,117.267,949.966,131.36,949.072,203.5Z" transform="translate(464.367 63.14)" fill="#9aeccd"/>
    </clipPath>
  </defs>
  <g id="Enmascarar_grupo_990944" data-name="Enmascarar grupo 990944" transform="translate(-138.333 -70)" clip-path="url(#clip-path)">
    <path id="Rectangle_652-2" data-name="Rectangle 652" d="M1299.213,0H20.787C9.307,0,0,8.4,0,18.772V488.063c0,10.367,9.307,18.772,20.787,18.772H1299.213c11.48,0,20.787-8.4,20.787-18.772V18.772C1320,8.4,1310.693,0,1299.213,0Z" transform="translate(138.333 70)" fill="#465fc4"/>
    <g id="Enmascarar_grupo_990942" data-name="Enmascarar grupo 990942" transform="translate(138.333 70)" opacity="0.84" clip-path="url(#clip-path-2)">
      <g id="Grupo_991741" data-name="Grupo 991741" transform="translate(1421.653 781.694) rotate(172)">
        <path id="Trazado_679308" data-name="Trazado 679308" d="M15.112,287.169c17.715-34.451,50.7-57.088,87.588-67.784,43.738-12.681,85.825-5.919,129.709.813,40.461,6.207,85.463,7.935,119.6-18.36C405,161.024,410.063,81.949,458.584,36.2A134.3,134.3,0,0,1,548.268.007c36.475-.4,82.632,15.474,101.287,49.129,18.115,32.679-.244,65.218,6.189,98.672,12.579,65.429,102.933,61.541,146.589,94.017,20.86,15.517,34.9,38.67,44.515,62.826,10.673,26.809,16.485,56.674,9.26,84.61-11.968,46.276-56.921,63.6-100.7,65.259-32.532,1.236-64.873-7.137-94.75-20.072-26.422-11.439-51.276-26.448-78.3-36.385-66.737-24.537-132.48,6.775-190.061,40.442-73.916,43.219-150.258,84.883-238.634,70.014C86.133,497.157,16.048,455.615,2.8,383.4c-5.607-30.549-3.008-62.948,9.88-91.206Q13.839,289.642,15.112,287.169Z" transform="translate(597.339 534.145)" fill="#fff" opacity="0.132" style="mix-blend-mode: overlay;isolation: isolate"/>
        <path id="Trazado_679309" data-name="Trazado 679309" d="M15.112,287.169c17.715-34.451,50.7-57.088,87.588-67.784,43.738-12.681,85.825-5.919,129.709.813,40.461,6.207,85.463,7.935,119.6-18.36C405,161.024,410.063,81.949,458.584,36.2A134.3,134.3,0,0,1,548.268.007c36.475-.4,82.632,15.474,101.287,49.127,18.114,32.68-.244,65.219,6.189,98.676,6.347,33.006,36.346,50.719,65.8,61.073,23.3,8.193,47.923,13.476,69.253,25.93,36.453,21.285,58.916,61.769,65.874,103.4,4.179,25,2.986,52.073-10.213,73.713-16.245,26.633-48.234,40.456-79.362,42.524-35.128,2.333-74.219-6.057-106.434-20.005-26.423-11.439-51.276-26.448-78.3-36.385-66.738-24.537-132.48,6.775-190.062,40.442-73.916,43.219-150.258,84.882-238.634,70.014C86.133,497.157,16.048,455.615,2.8,383.4c-5.607-30.549-3.008-62.947,9.88-91.206Q13.839,289.642,15.112,287.169Z" transform="translate(125.154 0)" fill="#fff" opacity="0.11" style="mix-blend-mode: overlay;isolation: isolate"/>
        <path id="Trazado_679310" data-name="Trazado 679310" d="M15.111,287.169c17.715-34.453,50.7-57.088,87.588-67.785,43.738-12.681,85.825-5.917,129.709.815,40.462,6.207,85.463,7.935,119.6-18.361C405,161.022,410.063,81.949,458.583,36.195A134.313,134.313,0,0,1,548.268.007c36.474-.4,82.632,15.474,101.287,49.128,18.113,32.68-.244,65.219,6.188,98.674,12.581,65.428,102.934,61.539,146.59,94.017,20.86,15.517,34.9,38.67,44.514,62.826,10.673,26.808,16.486,56.673,9.261,84.61-11.968,46.276-56.921,63.6-100.7,65.259-32.533,1.236-64.873-7.137-94.75-20.072-26.422-11.44-51.276-26.449-78.3-36.385-66.738-24.539-132.48,6.775-190.061,40.442-73.918,43.218-150.259,84.883-238.634,70.013C86.133,497.157,16.049,455.615,2.794,383.4c-5.606-30.548-3.007-62.946,9.88-91.2Q13.84,289.642,15.111,287.169Z" transform="translate(77.891 12.415)" fill="#9aeccd" opacity="0.26" style="mix-blend-mode: overlay;isolation: isolate"/>
        <path id="Trazado_679311" data-name="Trazado 679311" d="M15.112,287.169c17.715-34.453,50.7-57.089,87.588-67.785,43.738-12.681,85.825-5.917,129.709.813,40.462,6.207,85.463,7.935,119.6-18.36C405,161.023,410.064,81.949,458.584,36.195A134.306,134.306,0,0,1,548.268.007c36.475-.4,82.633,15.473,101.287,49.128,18.115,32.679-.243,65.219,6.189,98.672,12.581,65.429,102.934,61.541,146.591,94.017,20.859,15.518,34.9,38.672,44.514,62.826,10.673,26.809,16.486,56.674,9.26,84.61-11.967,46.276-56.921,63.6-100.7,65.261-32.532,1.236-64.873-7.137-94.749-20.072-26.423-11.44-51.276-26.449-78.3-36.386-66.738-24.537-132.48,6.775-190.061,40.442-73.917,43.219-150.259,84.882-238.635,70.014C86.133,497.156,16.049,455.615,2.8,383.4c-5.607-30.549-3.007-62.946,9.88-91.206Q13.841,289.641,15.112,287.169Z" transform="translate(564.713 766.841)" fill="#fff" opacity="0.17" style="mix-blend-mode: overlay;isolation: isolate"/>
        <path id="Trazado_679312" data-name="Trazado 679312" d="M632.125,127.541c-3.382,29.741-20.932,54.914-44.53,72.432-27.977,20.768-60.041,26.955-93.386,33.637-30.745,6.161-63.537,16.779-80.927,44.921-26.994,43.68-9.185,102.547-31.628,148.641a101.5,101.5,0,0,1-54.6,50c-26.09,9.918-63.548,10.548-86.073-9.015-21.874-19-17.512-47.516-31.2-70.159-26.779-44.284-90.623-17.612-130.787-29.721-19.192-5.785-35.553-18.927-49.011-33.962C15.04,317.622,2.765,297.427.379,275.194c-3.952-36.827,23.638-61.292,54.633-74.055,23.031-9.484,48.532-11.927,73.5-10.4,22.081,1.35,44,5.713,66.108,5.811,54.59.241,93.319-39.89,125.547-79.58C361.536,66.018,405.07,15.559,472.58,3.055,524.167-6.5,585.771,5.23,614.875,54.275c12.311,20.747,19.231,45.005,17.637,68.967Q632.368,125.406,632.125,127.541Z" transform="translate(0 507.532)" fill="#9aeccd" opacity="0.4" style="mix-blend-mode: color-burn;isolation: isolate"/>
        <circle id="Elipse_7702" data-name="Elipse 7702" cx="24.819" cy="24.819" r="24.819" transform="translate(583.612 746.202)" fill="#524480" opacity="0.23" style="mix-blend-mode: color-dodge;isolation: isolate"/>
        <ellipse id="Elipse_7703" data-name="Elipse 7703" cx="12.41" cy="12.41" rx="12.41" ry="12.41" transform="translate(568.854 828.418) rotate(99.217)" fill="#fff" opacity="0.17" style="mix-blend-mode: overlay;isolation: isolate"/>
        <ellipse id="Elipse_7704" data-name="Elipse 7704" cx="12.41" cy="12.41" rx="12.41" ry="12.41" transform="translate(579.813 484.305) rotate(100.476)" fill="#fff" opacity="0.17" style="mix-blend-mode: overlay;isolation: isolate"/>
        <circle id="Elipse_7705" data-name="Elipse 7705" cx="24.819" cy="24.819" r="24.819" transform="translate(582.531 416.117)" fill="#fff" opacity="0.17" style="mix-blend-mode: overlay;isolation: isolate"/>
        <path id="Trazado_679313" data-name="Trazado 679313" d="M62.631,0A62.631,62.631,0,1,1,0,62.631,62.631,62.631,0,0,1,62.631,0Z" transform="translate(1197.28 574.039) rotate(97.033)" fill="#9aeccd" opacity="0.15" style="mix-blend-mode: color-dodge;isolation: isolate"/>
        <ellipse id="Elipse_7706" data-name="Elipse 7706" cx="62.631" cy="62.631" rx="62.631" ry="62.631" transform="translate(292.839 772.152) rotate(97.065)" fill="#fff" opacity="0.17" style="mix-blend-mode: overlay;isolation: isolate"/>
        <rect id="Rect치ngulo_345076" data-name="Rect치ngulo 345076" width="942.874" height="628.582" transform="translate(222.43 318.341)" fill="none"/>
      </g>
    </g>
    <path id="Trazado_679314" data-name="Trazado 679314" d="M1166.776,0q-8.15,12.389-18.081,24.931c-103.913,130.73,107.677,152.213,112.521,274.6,3.868,97.693-87.9,103.141-26.078,206.374h490.884V0Z" transform="translate(-262.022 70)" fill="#ffc721"/>
    <g id="Grupo_991753" data-name="Grupo 991753" transform="translate(994 146.025)">
      <g id="Grupo_991742" data-name="Grupo 991742" transform="translate(164.763)">
        <path id="Trazado_679315" data-name="Trazado 679315" d="M389.255,1143.967,273.831,1028.542a5.765,5.765,0,0,1,0-8.152h0a5.765,5.765,0,0,1,8.156,0L397.41,1135.812a5.765,5.765,0,0,1,0,8.156h0A5.768,5.768,0,0,1,389.255,1143.967Z" transform="translate(-272.143 -1018.7)" fill="#f9931f"/>
      </g>
      <g id="Grupo_991743" data-name="Grupo 991743" transform="translate(221.403 15.451)">
        <path id="Trazado_679316" data-name="Trazado 679316" d="M382.014,1089.566l-43.333-43.333a5.767,5.767,0,0,1,0-8.152h0a5.764,5.764,0,0,1,8.157,0l43.33,43.33a5.765,5.765,0,0,1,0,8.156h0A5.765,5.765,0,0,1,382.014,1089.566Z" transform="translate(-336.993 -1036.39)" fill="#f9931f"/>
      </g>
      <g id="Grupo_991744" data-name="Grupo 991744" transform="translate(123.578)">
        <path id="Trazado_679317" data-name="Trazado 679317" d="M383.286,1185.149,226.679,1028.542a5.761,5.761,0,0,1,0-8.152h0a5.762,5.762,0,0,1,8.153,0L391.44,1177a5.762,5.762,0,0,1,0,8.153h0A5.763,5.763,0,0,1,383.286,1185.149Z" transform="translate(-224.989 -1018.7)" fill="#f9931f"/>
      </g>
      <g id="Grupo_991745" data-name="Grupo 991745" transform="translate(90.988 8.592)">
        <path id="Trazado_679318" data-name="Trazado 679318" d="M369.968,1218.986l-180.6-180.6a5.765,5.765,0,0,1,0-8.156h0a5.762,5.762,0,0,1,8.153,0l180.606,180.605a5.768,5.768,0,0,1,0,8.153h0A5.765,5.765,0,0,1,369.968,1218.986Z" transform="translate(-187.675 -1028.537)" fill="#f9931f"/>
      </g>
      <g id="Grupo_991746" data-name="Grupo 991746" transform="translate(63.902 22.689)">
        <path id="Trazado_679319" data-name="Trazado 679319" d="M351.946,1248.116,158.353,1054.521a5.765,5.765,0,0,1,0-8.156h0a5.766,5.766,0,0,1,8.153,0l193.6,193.6a5.767,5.767,0,0,1,0,8.153h0A5.766,5.766,0,0,1,351.946,1248.116Z" transform="translate(-156.663 -1044.677)" fill="#f9931f"/>
      </g>
      <g id="Grupo_991747" data-name="Grupo 991747" transform="translate(41.213 41.212)">
        <path id="Trazado_679320" data-name="Trazado 679320" d="M330.134,1273.491,132.373,1075.729a5.771,5.771,0,0,1,0-8.156h0a5.771,5.771,0,0,1,8.157,0l197.761,197.761a5.772,5.772,0,0,1,0,8.156h0A5.772,5.772,0,0,1,330.134,1273.491Z" transform="translate(-130.686 -1065.885)" fill="#f9931f"/>
      </g>
      <g id="Grupo_991748" data-name="Grupo 991748" transform="translate(22.69 63.901)">
        <path id="Trazado_679321" data-name="Trazado 679321" d="M304.762,1295.3l-193.6-193.6a5.767,5.767,0,0,1,0-8.153h0a5.765,5.765,0,0,1,8.156,0l193.593,193.593a5.764,5.764,0,0,1,0,8.156h0A5.767,5.767,0,0,1,304.762,1295.3Z" transform="translate(-109.478 -1091.863)" fill="#f9931f"/>
      </g>
      <g id="Grupo_991749" data-name="Grupo 991749" transform="translate(8.592 90.987)">
        <path id="Trazado_679322" data-name="Trazado 679322" d="M275.632,1313.325,95.026,1132.719a5.762,5.762,0,0,1,0-8.154h0a5.761,5.761,0,0,1,8.153,0l180.606,180.6a5.766,5.766,0,0,1,0,8.157h0A5.762,5.762,0,0,1,275.632,1313.325Z" transform="translate(-93.336 -1122.875)" fill="#f9931f"/>
      </g>
      <g id="Grupo_991750" data-name="Grupo 991750" transform="translate(0 123.577)">
        <path id="Trazado_679323" data-name="Trazado 679323" d="M241.8,1326.64,85.189,1170.032a5.762,5.762,0,0,1,0-8.153h0a5.762,5.762,0,0,1,8.153,0L249.95,1318.487a5.762,5.762,0,0,1,0,8.153h0A5.762,5.762,0,0,1,241.8,1326.64Z" transform="translate(-83.499 -1160.189)" fill="#f9931f"/>
      </g>
      <g id="Grupo_991751" data-name="Grupo 991751" transform="translate(0 164.762)">
        <path id="Trazado_679324" data-name="Trazado 679324" d="M200.611,1332.61,85.189,1217.187a5.766,5.766,0,0,1,0-8.157h0a5.768,5.768,0,0,1,8.153,0l115.425,115.426a5.767,5.767,0,0,1,0,8.153h0A5.765,5.765,0,0,1,200.611,1332.61Z" transform="translate(-83.499 -1207.343)" fill="#f9931f"/>
      </g>
      <g id="Grupo_991752" data-name="Grupo 991752" transform="translate(15.452 221.402)">
        <path id="Trazado_679325" data-name="Trazado 679325" d="M146.211,1325.367l-43.33-43.33a5.766,5.766,0,0,1,0-8.157h0a5.768,5.768,0,0,1,8.153,0l43.333,43.333a5.768,5.768,0,0,1,0,8.153h0A5.765,5.765,0,0,1,146.211,1325.367Z" transform="translate(-101.191 -1272.193)" fill="#f9931f"/>
      </g>
    </g>
    <path id="Trazado_679326" data-name="Trazado 679326" d="M949.072,203.5c-.106,35.861-27.821,74.233-59.181,78.812C830.846,290.932,852,341.87,771.3,357.561a171.164,171.164,0,0,1-35.785,3.274,142.4,142.4,0,0,1-17.563-1.387c-51.293-7.259-85.811-41.8-98.475-83.492-16.665-54.835,16.611-90.734,38.667-112.364S696.355,74.568,775.569,58.54a165.779,165.779,0,0,1,36.777-3.385c28.184.67,58.925,9.635,80.2,28.348q2.4,2.109,4.664,4.366C926.772,117.267,949.966,131.36,949.072,203.5Z" transform="translate(458.367 63.14)" fill="#9aeccd"/>
    <g id="Enmascarar_grupo_990943" data-name="Enmascarar grupo 990943" transform="translate(-6)" clip-path="url(#clip-path-3)">
      <g id="Grupo_991765" data-name="Grupo 991765" transform="translate(1209.666 159.782)">
        <g id="Grupo_991754" data-name="Grupo 991754" transform="translate(118.232)">
          <path id="Trazado_679327" data-name="Trazado 679327" d="M356.181,1108.59l-82.827-82.828a4.137,4.137,0,0,1,0-5.85h0a4.137,4.137,0,0,1,5.853,0l82.826,82.825a4.137,4.137,0,0,1,0,5.853h0A4.139,4.139,0,0,1,356.181,1108.59Z" transform="translate(-272.143 -1018.7)" fill="#85e4c0"/>
        </g>
        <g id="Grupo_991755" data-name="Grupo 991755" transform="translate(158.876 11.087)">
          <path id="Trazado_679328" data-name="Trazado 679328" d="M369.3,1074.549l-31.1-31.1a4.138,4.138,0,0,1,0-5.85h0a4.136,4.136,0,0,1,5.853,0L375.15,1068.7a4.137,4.137,0,0,1,0,5.853h0A4.137,4.137,0,0,1,369.3,1074.549Z" transform="translate(-336.993 -1036.39)" fill="#85e4c0"/>
        </g>
        <g id="Grupo_991756" data-name="Grupo 991756" transform="translate(88.678)">
          <path id="Trazado_679329" data-name="Trazado 679329" d="M338.581,1138.142,226.2,1025.763a4.134,4.134,0,0,1,0-5.85h0a4.135,4.135,0,0,1,5.851,0l112.38,112.378a4.135,4.135,0,0,1,0,5.851h0A4.135,4.135,0,0,1,338.581,1138.142Z" transform="translate(-224.989 -1018.7)" fill="#85e4c0"/>
        </g>
        <g id="Grupo_991757" data-name="Grupo 991757" transform="translate(65.292 6.165)">
          <path id="Trazado_679330" data-name="Trazado 679330" d="M318.486,1165.2l-129.6-129.6a4.137,4.137,0,0,1,0-5.853h0a4.135,4.135,0,0,1,5.851,0l129.6,129.6a4.139,4.139,0,0,1,0,5.851h0A4.137,4.137,0,0,1,318.486,1165.2Z" transform="translate(-187.675 -1028.537)" fill="#85e4c0"/>
        </g>
        <g id="Grupo_991758" data-name="Grupo 991758" transform="translate(45.855 16.281)">
          <path id="Trazado_679331" data-name="Trazado 679331" d="M296.8,1190.662l-138.92-138.921a4.137,4.137,0,0,1,0-5.852h0a4.138,4.138,0,0,1,5.851,0l138.922,138.923a4.138,4.138,0,0,1,0,5.851h0A4.138,4.138,0,0,1,296.8,1190.662Z" transform="translate(-156.663 -1044.677)" fill="#85e4c0"/>
        </g>
        <g id="Grupo_991759" data-name="Grupo 991759" transform="translate(29.574 29.573)">
          <path id="Trazado_679332" data-name="Trazado 679332" d="M273.808,1214.86,131.9,1072.949a4.141,4.141,0,0,1,0-5.852h0a4.141,4.141,0,0,1,5.853,0l141.911,141.911a4.142,4.142,0,0,1,0,5.853h0A4.142,4.142,0,0,1,273.808,1214.86Z" transform="translate(-130.686 -1065.885)" fill="#85e4c0"/>
        </g>
        <g id="Grupo_991760" data-name="Grupo 991760" transform="translate(16.282 45.855)">
          <path id="Trazado_679333" data-name="Trazado 679333" d="M249.611,1237.848,110.69,1098.927a4.138,4.138,0,0,1,0-5.851h0a4.137,4.137,0,0,1,5.853,0L255.462,1232a4.136,4.136,0,0,1,0,5.852h0A4.138,4.138,0,0,1,249.611,1237.848Z" transform="translate(-109.478 -1091.863)" fill="#85e4c0"/>
        </g>
        <g id="Grupo_991761" data-name="Grupo 991761" transform="translate(6.165 65.291)">
          <path id="Trazado_679334" data-name="Trazado 679334" d="M224.15,1259.539l-129.6-129.6a4.135,4.135,0,0,1,0-5.851h0a4.134,4.134,0,0,1,5.851,0l129.6,129.6a4.138,4.138,0,0,1,0,5.853h0A4.134,4.134,0,0,1,224.15,1259.539Z" transform="translate(-93.336 -1122.875)" fill="#85e4c0"/>
        </g>
        <g id="Grupo_991762" data-name="Grupo 991762" transform="translate(0 88.677)">
          <path id="Trazado_679335" data-name="Trazado 679335" d="M197.091,1279.632l-112.38-112.38a4.135,4.135,0,0,1,0-5.851h0a4.135,4.135,0,0,1,5.851,0l112.38,112.38a4.135,4.135,0,0,1,0,5.851h0A4.135,4.135,0,0,1,197.091,1279.632Z" transform="translate(-83.499 -1160.189)" fill="#85e4c0"/>
        </g>
        <g id="Grupo_991763" data-name="Grupo 991763" transform="translate(0 118.231)">
          <path id="Trazado_679336" data-name="Trazado 679336" d="M167.537,1297.233l-82.826-82.825a4.138,4.138,0,0,1,0-5.853h0a4.139,4.139,0,0,1,5.851,0l82.827,82.828a4.138,4.138,0,0,1,0,5.851h0A4.137,4.137,0,0,1,167.537,1297.233Z" transform="translate(-83.499 -1207.343)" fill="#85e4c0"/>
        </g>
        <g id="Grupo_991764" data-name="Grupo 991764" transform="translate(11.088 158.875)">
          <path id="Trazado_679337" data-name="Trazado 679337" d="M133.5,1310.35,102.4,1279.257a4.138,4.138,0,0,1,0-5.853h0a4.139,4.139,0,0,1,5.851,0l31.1,31.1a4.139,4.139,0,0,1,0,5.85h0A4.137,4.137,0,0,1,133.5,1310.35Z" transform="translate(-101.191 -1272.193)" fill="#85e4c0"/>
        </g>
      </g>
    </g>
    <g id="Grupo_991777" data-name="Grupo 991777" transform="translate(894.333 488.697)">
      <g id="Grupo_991766" data-name="Grupo 991766" transform="translate(56.29 0)">
        <path id="Trazado_679339" data-name="Trazado 679339" d="M2616.752,1420.547l-39.436-39.435a1.971,1.971,0,0,1,0-2.786h0a1.969,1.969,0,0,1,2.787,0l39.435,39.434a1.969,1.969,0,0,1,0,2.786h0A1.971,1.971,0,0,1,2616.752,1420.547Z" transform="translate(-2576.74 -1377.749)" fill="#f9931f"/>
      </g>
      <g id="Grupo_991767" data-name="Grupo 991767" transform="translate(75.642 5.279)">
        <path id="Trazado_679340" data-name="Trazado 679340" d="M2656.972,1413.609l-14.8-14.8a1.969,1.969,0,0,1,0-2.786h0a1.969,1.969,0,0,1,2.786,0l14.805,14.8a1.97,1.97,0,0,1,0,2.786h0A1.972,1.972,0,0,1,2656.972,1413.609Z" transform="translate(-2641.59 -1395.441)" fill="#f9931f"/>
      </g>
      <g id="Grupo_991768" data-name="Grupo 991768" transform="translate(42.219 0)">
        <path id="Trazado_679341" data-name="Trazado 679341" d="M2583.668,1434.618l-53.506-53.505a1.97,1.97,0,0,1,0-2.786h0a1.968,1.968,0,0,1,2.786,0l53.507,53.505a1.969,1.969,0,0,1,0,2.786h0A1.971,1.971,0,0,1,2583.668,1434.618Z" transform="translate(-2529.585 -1377.749)" fill="#f9931f"/>
      </g>
      <g id="Grupo_991769" data-name="Grupo 991769" transform="translate(31.085 2.935)">
        <path id="Trazado_679342" data-name="Trazado 679342" d="M2554.553,1452.654l-61.706-61.7a1.971,1.971,0,0,1,0-2.786h0a1.968,1.968,0,0,1,2.786,0l61.706,61.7a1.971,1.971,0,0,1,0,2.786h0A1.97,1.97,0,0,1,2554.553,1452.654Z" transform="translate(-2492.271 -1387.586)" fill="#f9931f"/>
      </g>
      <g id="Grupo_991770" data-name="Grupo 991770" transform="translate(21.83 7.752)">
        <path id="Trazado_679343" data-name="Trazado 679343" d="M2527.978,1473.233l-66.145-66.142a1.97,1.97,0,0,1,0-2.787h0a1.971,1.971,0,0,1,2.786,0l66.144,66.143a1.968,1.968,0,0,1,0,2.786h0A1.967,1.967,0,0,1,2527.978,1473.233Z" transform="translate(-2461.256 -1403.728)" fill="#f9931f"/>
      </g>
      <g id="Grupo_991771" data-name="Grupo 991771" transform="translate(14.078 14.08)">
        <path id="Trazado_679344" data-name="Trazado 679344" d="M2503.424,1495.865l-67.568-67.566a1.972,1.972,0,0,1,0-2.787h0a1.971,1.971,0,0,1,2.787,0l67.567,67.566a1.97,1.97,0,0,1,0,2.787h0A1.97,1.97,0,0,1,2503.424,1495.865Z" transform="translate(-2435.279 -1424.935)" fill="#f9931f"/>
      </g>
      <g id="Grupo_991772" data-name="Grupo 991772" transform="translate(7.747 21.827)">
        <path id="Trazado_679345" data-name="Trazado 679345" d="M2482.23,1516.278h-5.572l-62.014-62.012a1.973,1.973,0,0,1,1.4-3.368,1.986,1.986,0,0,1,1.385.578Z" transform="translate(-2414.062 -1450.897)" fill="#f9931f"/>
      </g>
      <g id="Grupo_991773" data-name="Grupo 991773" transform="translate(2.93 31.086)">
        <path id="Trazado_679346" data-name="Trazado 679346" d="M2456.832,1538.046h-5.571l-52.765-52.764a1.968,1.968,0,0,1,1.4-3.359,1.937,1.937,0,0,1,1.4.578Z" transform="translate(-2397.921 -1481.923)" fill="#f9931f"/>
      </g>
      <g id="Grupo_991774" data-name="Grupo 991774" transform="translate(0 42.219)">
        <path id="Trazado_679347" data-name="Trazado 679347" d="M2435.869,1564.222H2430.3l-41.621-41.62a1.97,1.97,0,1,1,2.78-2.791Z" transform="translate(-2388.101 -1519.233)" fill="#f9931f"/>
      </g>
      <g id="Grupo_991775" data-name="Grupo 991775" transform="translate(0 56.292)">
        <path id="Trazado_679348" data-name="Trazado 679348" d="M2421.8,1597.311h-5.562l-27.558-27.558a1.967,1.967,0,0,1,1.395-3.358,1.989,1.989,0,0,1,1.385.577Z" transform="translate(-2388.101 -1566.395)" fill="#f9931f"/>
      </g>
      <g id="Grupo_991776" data-name="Grupo 991776" transform="translate(5.275 75.647)">
        <path id="Trazado_679349" data-name="Trazado 679349" d="M2420.124,1642.818h-5.561l-8.2-8.2a1.966,1.966,0,1,1,2.782-2.78Z" transform="translate(-2405.777 -1631.257)" fill="#f9931f"/>
      </g>
    </g>
    <g id="Grupo_991789" data-name="Grupo 991789" transform="translate(111.397 48.812)">
      <g id="Grupo_991778" data-name="Grupo 991778" transform="translate(78.115)">
        <path id="Trazado_679350" data-name="Trazado 679350" d="M327.666,1078.09l-54.723-54.723a2.733,2.733,0,0,1,0-3.865h0a2.733,2.733,0,0,1,3.867,0l54.722,54.722a2.733,2.733,0,0,1,0,3.867h0A2.735,2.735,0,0,1,327.666,1078.09Z" transform="translate(-272.143 -1018.7)" fill="#465fc4"/>
      </g>
      <g id="Grupo_991779" data-name="Grupo 991779" transform="translate(104.968 7.325)">
        <path id="Trazado_679351" data-name="Trazado 679351" d="M358.337,1061.6l-20.544-20.544a2.734,2.734,0,0,1,0-3.865h0a2.733,2.733,0,0,1,3.867,0l20.543,20.543a2.733,2.733,0,0,1,0,3.867h0A2.733,2.733,0,0,1,358.337,1061.6Z" transform="translate(-336.993 -1036.39)" fill="#465fc4"/>
      </g>
      <g id="Grupo_991780" data-name="Grupo 991780" transform="translate(58.589)">
        <path id="Trazado_679352" data-name="Trazado 679352" d="M300.038,1097.614l-74.248-74.248a2.731,2.731,0,0,1,0-3.865h0a2.732,2.732,0,0,1,3.865,0l74.248,74.247a2.732,2.732,0,0,1,0,3.865h0A2.732,2.732,0,0,1,300.038,1097.614Z" transform="translate(-224.989 -1018.7)" fill="#465fc4"/>
      </g>
      <g id="Grupo_991781" data-name="Grupo 991781" transform="translate(43.138 4.073)">
        <path id="Trazado_679353" data-name="Trazado 679353" d="M274.1,1118.829l-85.624-85.624a2.733,2.733,0,0,1,0-3.867h0a2.732,2.732,0,0,1,3.865,0l85.626,85.625a2.735,2.735,0,0,1,0,3.865h0A2.733,2.733,0,0,1,274.1,1118.829Z" transform="translate(-187.675 -1028.537)" fill="#465fc4"/>
      </g>
      <g id="Grupo_991782" data-name="Grupo 991782" transform="translate(30.296 10.757)">
        <path id="Trazado_679354" data-name="Trazado 679354" d="M249.247,1141.128l-91.783-91.784a2.733,2.733,0,0,1,0-3.867h0a2.734,2.734,0,0,1,3.865,0l91.784,91.785a2.734,2.734,0,0,1,0,3.865h0A2.734,2.734,0,0,1,249.247,1141.128Z" transform="translate(-156.663 -1044.677)" fill="#465fc4"/>
      </g>
      <g id="Grupo_991783" data-name="Grupo 991783" transform="translate(19.539 19.539)">
        <path id="Trazado_679355" data-name="Trazado 679355" d="M225.245,1164.312l-93.759-93.759a2.736,2.736,0,0,1,0-3.867h0a2.736,2.736,0,0,1,3.867,0l93.759,93.759a2.737,2.737,0,0,1,0,3.867h0A2.737,2.737,0,0,1,225.245,1164.312Z" transform="translate(-130.686 -1065.885)" fill="#465fc4"/>
      </g>
      <g id="Grupo_991784" data-name="Grupo 991784" transform="translate(10.758 30.296)">
        <path id="Trazado_679356" data-name="Trazado 679356" d="M202.063,1188.314l-91.784-91.784a2.734,2.734,0,0,1,0-3.865h0a2.733,2.733,0,0,1,3.867,0l91.783,91.783a2.733,2.733,0,0,1,0,3.867h0A2.734,2.734,0,0,1,202.063,1188.314Z" transform="translate(-109.478 -1091.863)" fill="#465fc4"/>
      </g>
      <g id="Grupo_991785" data-name="Grupo 991785" transform="translate(4.073 43.137)">
        <path id="Trazado_679357" data-name="Trazado 679357" d="M179.763,1213.168l-85.626-85.625a2.732,2.732,0,0,1,0-3.866h0a2.732,2.732,0,0,1,3.865,0l85.626,85.624a2.734,2.734,0,0,1,0,3.867h0A2.732,2.732,0,0,1,179.763,1213.168Z" transform="translate(-93.336 -1122.875)" fill="#465fc4"/>
      </g>
      <g id="Grupo_991786" data-name="Grupo 991786" transform="translate(0 58.588)">
        <path id="Trazado_679358" data-name="Trazado 679358" d="M158.548,1239.1,84.3,1164.856a2.732,2.732,0,0,1,0-3.865h0a2.732,2.732,0,0,1,3.865,0l74.248,74.248a2.732,2.732,0,0,1,0,3.865h0A2.732,2.732,0,0,1,158.548,1239.1Z" transform="translate(-83.499 -1160.189)" fill="#465fc4"/>
      </g>
      <g id="Grupo_991787" data-name="Grupo 991787" transform="translate(0 78.114)">
        <path id="Trazado_679359" data-name="Trazado 679359" d="M139.022,1266.732,84.3,1212.01a2.734,2.734,0,0,1,0-3.867h0a2.734,2.734,0,0,1,3.865,0l54.723,54.724a2.734,2.734,0,0,1,0,3.865h0A2.733,2.733,0,0,1,139.022,1266.732Z" transform="translate(-83.499 -1207.343)" fill="#465fc4"/>
      </g>
      <g id="Grupo_991788" data-name="Grupo 991788" transform="translate(7.326 104.967)">
        <path id="Trazado_679360" data-name="Trazado 679360" d="M122.535,1297.4l-20.543-20.543a2.734,2.734,0,0,1,0-3.867h0a2.734,2.734,0,0,1,3.865,0l20.544,20.544a2.735,2.735,0,0,1,0,3.865h0A2.734,2.734,0,0,1,122.535,1297.4Z" transform="translate(-101.191 -1272.193)" fill="#465fc4"/>
      </g>
    </g>
    <g id="Grupo_991801" data-name="Grupo 991801" transform="translate(1303.833 157.178)">
      <g id="Grupo_991790" data-name="Grupo 991790" transform="translate(72.953)">
        <path id="Trazado_679361" data-name="Trazado 679361" d="M324,1074.166l-51.107-51.108a2.553,2.553,0,0,1,0-3.61h0a2.553,2.553,0,0,1,3.611,0l51.107,51.106a2.553,2.553,0,0,1,0,3.611h0A2.554,2.554,0,0,1,324,1074.166Z" transform="translate(-272.143 -1018.7)" fill="#465fc4"/>
      </g>
      <g id="Grupo_991791" data-name="Grupo 991791" transform="translate(98.033 6.841)">
        <path id="Trazado_679362" data-name="Trazado 679362" d="M356.927,1059.936l-19.187-19.187a2.553,2.553,0,0,1,0-3.61h0a2.552,2.552,0,0,1,3.612,0l19.185,19.185a2.553,2.553,0,0,1,0,3.611h0A2.553,2.553,0,0,1,356.927,1059.936Z" transform="translate(-336.993 -1036.39)" fill="#465fc4"/>
      </g>
      <g id="Grupo_991792" data-name="Grupo 991792" transform="translate(54.718)">
        <path id="Trazado_679363" data-name="Trazado 679363" d="M295.079,1092.4l-69.342-69.342a2.551,2.551,0,0,1,0-3.61h0a2.551,2.551,0,0,1,3.61,0l69.343,69.342a2.551,2.551,0,0,1,0,3.61h0A2.552,2.552,0,0,1,295.079,1092.4Z" transform="translate(-224.989 -1018.7)" fill="#465fc4"/>
      </g>
      <g id="Grupo_991793" data-name="Grupo 991793" transform="translate(40.287 3.804)">
        <path id="Trazado_679364" data-name="Trazado 679364" d="M268.39,1112.864,188.423,1032.9a2.553,2.553,0,0,1,0-3.611h0a2.551,2.551,0,0,1,3.61,0L272,1109.253a2.554,2.554,0,0,1,0,3.61h0A2.553,2.553,0,0,1,268.39,1112.864Z" transform="translate(-187.675 -1028.537)" fill="#465fc4"/>
      </g>
      <g id="Grupo_991794" data-name="Grupo 991794" transform="translate(28.294 10.046)">
        <path id="Trazado_679365" data-name="Trazado 679365" d="M243.13,1134.755l-85.719-85.719a2.553,2.553,0,0,1,0-3.611h0a2.553,2.553,0,0,1,3.61,0l85.72,85.721a2.553,2.553,0,0,1,0,3.61h0A2.553,2.553,0,0,1,243.13,1134.755Z" transform="translate(-156.663 -1044.677)" fill="#465fc4"/>
      </g>
      <g id="Grupo_991795" data-name="Grupo 991795" transform="translate(18.248 18.248)">
        <path id="Trazado_679366" data-name="Trazado 679366" d="M219,1157.808l-87.564-87.565a2.556,2.556,0,0,1,0-3.611h0a2.555,2.555,0,0,1,3.612,0l87.564,87.564a2.556,2.556,0,0,1,0,3.612h0A2.556,2.556,0,0,1,219,1157.808Z" transform="translate(-130.686 -1065.885)" fill="#465fc4"/>
      </g>
      <g id="Grupo_991796" data-name="Grupo 991796" transform="translate(10.047 28.294)">
        <path id="Trazado_679367" data-name="Trazado 679367" d="M195.946,1181.941l-85.72-85.72a2.553,2.553,0,0,1,0-3.61h0a2.552,2.552,0,0,1,3.611,0l85.719,85.719a2.552,2.552,0,0,1,0,3.611h0A2.553,2.553,0,0,1,195.946,1181.941Z" transform="translate(-109.478 -1091.863)" fill="#465fc4"/>
      </g>
      <g id="Grupo_991797" data-name="Grupo 991797" transform="translate(3.804 40.287)">
        <path id="Trazado_679368" data-name="Trazado 679368" d="M174.053,1207.2l-79.969-79.968a2.551,2.551,0,0,1,0-3.61h0a2.551,2.551,0,0,1,3.61,0l79.969,79.967a2.553,2.553,0,0,1,0,3.612h0A2.551,2.551,0,0,1,174.053,1207.2Z" transform="translate(-93.336 -1122.875)" fill="#465fc4"/>
      </g>
      <g id="Grupo_991798" data-name="Grupo 991798" transform="translate(0 54.717)">
        <path id="Trazado_679369" data-name="Trazado 679369" d="M153.59,1233.89l-69.343-69.342a2.551,2.551,0,0,1,0-3.61h0a2.551,2.551,0,0,1,3.61,0L157.2,1230.28a2.551,2.551,0,0,1,0,3.61h0A2.551,2.551,0,0,1,153.59,1233.89Z" transform="translate(-83.499 -1160.189)" fill="#465fc4"/>
      </g>
      <g id="Grupo_991799" data-name="Grupo 991799" transform="translate(0 72.953)">
        <path id="Trazado_679370" data-name="Trazado 679370" d="M135.354,1262.808,84.247,1211.7a2.553,2.553,0,0,1,0-3.612h0a2.554,2.554,0,0,1,3.61,0l51.108,51.108a2.553,2.553,0,0,1,0,3.61h0A2.553,2.553,0,0,1,135.354,1262.808Z" transform="translate(-83.499 -1207.343)" fill="#465fc4"/>
      </g>
      <g id="Grupo_991800" data-name="Grupo 991800" transform="translate(6.842 98.032)">
        <path id="Trazado_679371" data-name="Trazado 679371" d="M121.125,1295.737l-19.185-19.185a2.553,2.553,0,0,1,0-3.612h0a2.554,2.554,0,0,1,3.61,0l19.187,19.187a2.554,2.554,0,0,1,0,3.61h0A2.553,2.553,0,0,1,121.125,1295.737Z" transform="translate(-101.191 -1272.193)" fill="#465fc4"/>
      </g>
    </g>
    <g id="Elipse_7707" data-name="Elipse 7707" transform="translate(196.333 498)" fill="none" stroke="#9aeccd" stroke-width="10">
      <circle cx="22" cy="22" r="22" stroke="none"/>
      <circle cx="22" cy="22" r="17" fill="none"/>
    </g>
  </g>
</svg>
