<svg xmlns="http://www.w3.org/2000/svg" xmlns:xlink="http://www.w3.org/1999/xlink" width="92" height="111" viewBox="0 0 92 111">
  <defs>
    <clipPath id="clip-path">
      <rect id="Rectángulo_345079" data-name="Rectángulo 345079" width="92" height="111" transform="translate(1278.333 436)" fill="#fff" opacity="0.35"/>
    </clipPath>
  </defs>
  <g id="Enmascarar_grupo_990947" data-name="Enmascarar grupo 990947" transform="translate(-1278.333 -436)" clip-path="url(#clip-path)">
    <g id="Grupo_991970" data-name="Grupo 991970" transform="matrix(0.966, 0.259, -0.259, 0.966, 1303.277, 426.409)">
      <path id="Trazado_679374" data-name="Trazado 679374" d="M2855.245,546.169c0,10.559-16.514,16.984-45.922,16.984-28.051,0-45.923-6.424-45.923-16.984,0-1.116.1-4.833.1-4.833,4.559-6.639,23.891-9.854,45.823-9.854,21.858,0,41.18,3.719,45.817,9.929C2855.139,541.411,2855.245,545.154,2855.245,546.169Z" transform="translate(-2763.4 -455.695)" fill="#ff9210"/>
      <path id="Trazado_679375" data-name="Trazado 679375" d="M2855.245,523.8c0,10.559-16.514,16.983-45.922,16.983-28.051,0-45.923-6.424-45.923-16.983,0-8.254,20.561-14.687,45.923-14.687S2855.245,516.448,2855.245,523.8Z" transform="translate(-2763.4 -437.168)" fill="#ffb92c"/>
      <path id="Trazado_679376" data-name="Trazado 679376" d="M2875.784,94.813h-10.858L2837.1,179.735s5.881,9.275,32.123,9.275c29.408,0,34.385-9.275,34.385-9.275Z" transform="translate(-2824.433 -94.084)" fill="#ffe5d2"/>
      <g id="Grupo_991969" data-name="Grupo 991969" transform="translate(12.668 0.729)">
        <path id="Trazado_679377" data-name="Trazado 679377" d="M2961.642,272.348l-3.121-9.526a100.807,100.807,0,0,1-16.023,1.142,84.872,84.872,0,0,1-13.8-1.027l-3.116,9.509a78.633,78.633,0,0,0,16.913,1.625A92.712,92.712,0,0,0,2961.642,272.348Z" transform="translate(-2910.375 -233.943)" fill="#ff9210"/>
        <path id="Trazado_679378" data-name="Trazado 679378" d="M2932.667,399.915l-3.658-11.167c-5.159,1.531-12.565,2.724-23.115,2.724-9.3,0-16.041-1.166-20.87-2.67l-3.641,11.112c4.875,2.089,12.592,4,24.511,4C2919.251,403.917,2927.568,402,2932.667,399.915Z" transform="translate(-2873.771 -338.224)" fill="#ff9210"/>
        <path id="Trazado_679379" data-name="Trazado 679379" d="M2869.224,524.928c-15.521,0-23.919-3.245-28.19-5.9l-3.932,12s5.881,9.275,32.123,9.275c29.408,0,34.385-9.275,34.385-9.275l-3.914-11.946C2895.335,521.73,2886.491,524.928,2869.224,524.928Z" transform="translate(-2837.101 -446.113)" fill="#ff9210"/>
        <path id="Trazado_679380" data-name="Trazado 679380" d="M2977.349,111.713a111.158,111.158,0,0,0,11.9-.591l-5.344-16.309h-10.858l-5.382,16.425A92.907,92.907,0,0,0,2977.349,111.713Z" transform="translate(-2945.227 -94.813)" fill="#ff9210"/>
      </g>
      <path id="Trazado_679381" data-name="Trazado 679381" d="M3085.678,177.977a15.775,15.775,0,0,0-6.176-4.84,74.735,74.735,0,0,0-8.616-3.266l-24.648-75.058-3.3.09,17.146,92.1,15.808,5.732v3.846s5-2.194,6.922-4.075c4.239-4.159,3.854-7.287,3.854-7.287S3087.4,180.269,3085.678,177.977Z" transform="translate(-2994.887 -94.084)" fill="#d6770f" opacity="0.34"/>
      <path id="Trazado_679382" data-name="Trazado 679382" d="M2922.361,209.9a7.849,7.849,0,0,0-.68,3.842,2.65,2.65,0,0,0,2.673,2.354,3.42,3.42,0,0,0,2.265-2.074c1.551-3.019,1.931-6.478,2.509-9.822,1.794-10.377,5.7-20.287,7.675-30.632.755-3.963-2.667-5.674-4.06-1.524-1.364,4.065-1.82,8.647-2.856,12.824Q2926.739,197.562,2922.361,209.9Z" transform="translate(-2894.428 -156.057)" fill="#fff" opacity="0.4"/>
      <path id="Trazado_679383" data-name="Trazado 679383" d="M2897.814,456.337a5.6,5.6,0,0,0-.4,4.971c.816,2.119,3.142,3.786,5.332,3.186a5.2,5.2,0,0,0,2.2-1.366c1.61-1.571,2.571-4.2,1.32-6.073C2904.442,454.33,2899.76,453.317,2897.814,456.337Z" transform="translate(-2874.052 -391.94)" fill="#fff" opacity="0.4"/>
      <path id="Trazado_679384" data-name="Trazado 679384" d="M2783.805,595.311a24.53,24.53,0,0,0,16.142,6.831c.81.025,1.851-.169,2-.964s-.745-1.365-1.513-1.63c-2.807-.966-5.827-1.245-8.582-2.354a9.934,9.934,0,0,1-4.341-3.213c-1-1.369-.7-3.858-1.83-4.84a2.32,2.32,0,0,0-3.646,1.031C2781.129,592.163,2782.413,593.961,2783.805,595.311Z" transform="translate(-2778.584 -502.989)" fill="#fff" opacity="0.4"/>
      <path id="Trazado_679385" data-name="Trazado 679385" d="M3009.741,91.3c0,.4-2.442.729-5.454.729s-5.454-.326-5.454-.729,2.442-.729,5.454-.729S3009.741,90.9,3009.741,91.3Z" transform="translate(-2958.365 -90.572)" fill="#ffb92c"/>
    </g>
  </g>
</svg>
