<svg xmlns="http://www.w3.org/2000/svg" xmlns:xlink="http://www.w3.org/1999/xlink" width="143.385" height="131.192" viewBox="0 0 143.385 131.192">
  <defs>
    <linearGradient id="linear-gradient" x1="0.213" y1="-0.546" x2="1.05" y2="1.279" gradientUnits="objectBoundingBox">
      <stop offset="0.184" stop-color="#9f4925"/>
      <stop offset="0.302" stop-color="#b57129"/>
      <stop offset="0.407" stop-color="#c68e2c"/>
      <stop offset="0.466" stop-color="#cd9a2e"/>
      <stop offset="0.51" stop-color="#deb21d"/>
      <stop offset="0.558" stop-color="#ecc511"/>
      <stop offset="0.606" stop-color="#f5d109"/>
      <stop offset="0.657" stop-color="#f8d507"/>
    </linearGradient>
    <linearGradient id="linear-gradient-2" x1="-0.016" y1="-0.595" x2="1.075" y2="1.021" gradientUnits="objectBoundingBox">
      <stop offset="0.327" stop-color="#e59424"/>
      <stop offset="0.703" stop-color="#fdd903"/>
      <stop offset="0.82" stop-color="#fdda06"/>
      <stop offset="0.909" stop-color="#fdde0f"/>
      <stop offset="0.988" stop-color="#fde41f"/>
      <stop offset="1" stop-color="#fde623"/>
    </linearGradient>
    <linearGradient id="linear-gradient-3" x1="-0.027" y1="-0.398" x2="1.125" y2="0.98" gradientUnits="objectBoundingBox">
      <stop offset="0.116" stop-color="#f0efef"/>
      <stop offset="0.161" stop-color="#ebeaea"/>
      <stop offset="0.21" stop-color="#dedddd"/>
      <stop offset="0.262" stop-color="#c8c7c7"/>
      <stop offset="0.316" stop-color="#a9a8a8"/>
      <stop offset="0.371" stop-color="#818080"/>
      <stop offset="0.427" stop-color="#505050"/>
      <stop offset="0.482" stop-color="#181717"/>
      <stop offset="0.504"/>
      <stop offset="0.526" stop-color="#131212"/>
      <stop offset="0.572" stop-color="#444"/>
      <stop offset="0.636" stop-color="#949393"/>
      <stop offset="0.705" stop-color="#f0efef"/>
    </linearGradient>
    <linearGradient id="linear-gradient-4" x1="1.016" y1="1.379" x2="0.446" y2="0.143" gradientUnits="objectBoundingBox">
      <stop offset="0.054" stop-color="#f0efef"/>
      <stop offset="0.14" stop-color="#e8e7e7"/>
      <stop offset="0.267" stop-color="#d4d3d3"/>
      <stop offset="0.42" stop-color="#b4b3b3"/>
      <stop offset="0.593" stop-color="#868686"/>
      <stop offset="0.783" stop-color="#4c4b4b"/>
      <stop offset="0.983" stop-color="#060606"/>
      <stop offset="1"/>
    </linearGradient>
    <linearGradient id="linear-gradient-5" x1="-0.528" y1="-0.476" x2="0.866" y2="1.053" gradientUnits="objectBoundingBox">
      <stop offset="0" stop-color="#e59424"/>
      <stop offset="0.119" stop-color="#e69921"/>
      <stop offset="0.27" stop-color="#eca919"/>
      <stop offset="0.436" stop-color="#f5c20d"/>
      <stop offset="0.553" stop-color="#fdd903"/>
      <stop offset="0.807" stop-color="#fde118"/>
      <stop offset="1" stop-color="#fde623"/>
    </linearGradient>
    <linearGradient id="linear-gradient-6" x1="0.11" y1="-0.635" x2="1.948" y2="4.717" xlink:href="#linear-gradient-5"/>
    <linearGradient id="linear-gradient-7" x1="-0.528" y1="-0.476" x2="0.866" y2="1.053" gradientUnits="objectBoundingBox">
      <stop offset="0.284"/>
      <stop offset="0.466" stop-color="#1b1b1b"/>
      <stop offset="0.575" stop-color="#272727"/>
      <stop offset="0.615" stop-color="#2b2b2b"/>
      <stop offset="0.822" stop-color="#404040"/>
      <stop offset="0.96" stop-color="#484848"/>
    </linearGradient>
    <linearGradient id="linear-gradient-8" x1="0.11" y1="-0.635" x2="1.949" y2="4.717" xlink:href="#linear-gradient-7"/>
  </defs>
  <g id="Grupo_991210" data-name="Grupo 991210" transform="translate(143.386 89.311) rotate(159)">
    <path id="Trazado_118921" data-name="Trazado 118921" d="M66.094,91.4c-3.79,6.069-11.988,5.481-15.779-.588L1.525,12.993C-2.271,6.918,1.375,0,8.535,0H109.047c7.16,0,9.906,6.421,6.11,12.485Z" transform="translate(0 0)" fill="url(#linear-gradient)"/>
    <path id="Trazado_118922" data-name="Trazado 118922" d="M60.422,84.22c-3.439,5.487-9.046,5.487-12.479,0L1.541,9.987C-1.886,4.5.6,0,7.074,0H101.28c6.479,0,8.965,4.5,5.533,9.987Z" transform="translate(4.253 3.098)" fill="url(#linear-gradient-2)"/>
    <path id="Trazado_118923" data-name="Trazado 118923" d="M106.813,9.987,60.422,84.22c-3.439,5.487-9.046,5.487-12.479,0L1.541,9.987C-1.886,4.5.6,0,7.074,0H101.28C107.753,0,110.245,4.5,106.813,9.987Zm-7.448-8.6H8.989c-6.208,0-8.6,4.287-5.308,9.514L48.191,81.63c3.294,5.227,8.683,5.227,11.977,0L104.678,10.9C107.966,5.671,105.578,1.385,99.365,1.385Z" transform="translate(4.253 3.098)" opacity="0.65" fill="url(#linear-gradient-3)" style="mix-blend-mode: screen;isolation: isolate"/>
    <g id="Grupo_82276" data-name="Grupo 82276" transform="translate(31.969 15.773)" style="mix-blend-mode: screen;isolation: isolate">
      <path id="Trazado_118924" data-name="Trazado 118924" d="M20.025,71.441,0,39.393,77.158,0,32.5,71.441C29.071,76.933,23.463,76.933,20.025,71.441Z" transform="translate(0 0)" fill="url(#linear-gradient-4)"/>
    </g>
    <g id="Grupo_82279" data-name="Grupo 82279" transform="translate(49.695 12.168)">
      <g id="Grupo_82277" data-name="Grupo 82277" transform="translate(0 0.398)" opacity="0.8" style="mix-blend-mode: screen;isolation: isolate">
        <path id="Trazado_118925" data-name="Trazado 118925" d="M11.775,0H4.49L0,43.157H16.26Z" transform="translate(0 16.822)" fill="url(#linear-gradient-5)"/>
        <path id="Trazado_118926" data-name="Trazado 118926" d="M12.34,6.162A6.17,6.17,0,1,0,6.173,12.34,6.165,6.165,0,0,0,12.34,6.162Z" transform="translate(1.959 0)" fill="url(#linear-gradient-6)"/>
      </g>
      <g id="Grupo_82278" data-name="Grupo 82278" transform="translate(0.721 0)">
        <path id="Trazado_118927" data-name="Trazado 118927" d="M11.612,0H4.423L0,42.6H16.04Z" transform="translate(0 16.6)" fill="url(#linear-gradient-7)"/>
        <path id="Trazado_118928" data-name="Trazado 118928" d="M12.162,6.087a6.081,6.081,0,1,0-6.087,6.087A6.091,6.091,0,0,0,12.162,6.087Z" transform="translate(1.941 0)" fill="url(#linear-gradient-8)"/>
      </g>
    </g>
  </g>
</svg>
