<svg xmlns="http://www.w3.org/2000/svg" width="85" height="73" viewBox="0 0 85 73">
  <g id="Grupo_990119" data-name="Grupo 990119" transform="translate(0 -6)">
    <rect id="Rectángulo_33792" data-name="Rectángulo 33792" width="85" height="73" rx="5" transform="translate(0 6)" fill="#465fc4"/>
    <g id="Grupo_991009" data-name="Grupo 991009" transform="translate(15.52 16.986)">
      <g id="Grupo_80313" data-name="Grupo 80313" transform="translate(0 0)">
        <g id="Grupo_80111" data-name="Grupo 80111" transform="translate(27.276)">
          <path id="Trazado_113526" data-name="Trazado 113526" d="M291.531,1039.438l-19.108-19.108a.955.955,0,0,1,0-1.35h0a.955.955,0,0,1,1.35,0l19.108,19.108a.954.954,0,0,1,0,1.35h0A.955.955,0,0,1,291.531,1039.438Z" transform="translate(-272.143 -1018.7)" fill="#bfefdd"/>
        </g>
        <g id="Grupo_80112" data-name="Grupo 80112" transform="translate(36.653 2.558)">
          <path id="Trazado_113527" data-name="Trazado 113527" d="M344.446,1045.194l-7.174-7.174a.955.955,0,0,1,0-1.35h0a.954.954,0,0,1,1.35,0l7.173,7.173a.954.954,0,0,1,0,1.35h0A.954.954,0,0,1,344.446,1045.194Z" transform="translate(-336.993 -1036.39)" fill="#bfefdd"/>
        </g>
        <g id="Grupo_80113" data-name="Grupo 80113" transform="translate(20.458)">
          <path id="Trazado_113528" data-name="Trazado 113528" d="M251.195,1046.255l-25.926-25.926a.954.954,0,0,1,0-1.35h0a.954.954,0,0,1,1.35,0l25.926,25.926a.954.954,0,0,1,0,1.35h0A.954.954,0,0,1,251.195,1046.255Z" transform="translate(-224.989 -1018.7)" fill="#bfefdd"/>
        </g>
        <g id="Grupo_80114" data-name="Grupo 80114" transform="translate(15.063 1.422)">
          <path id="Trazado_113529" data-name="Trazado 113529" d="M217.853,1060.065l-29.9-29.9a.954.954,0,0,1,0-1.35h0a.953.953,0,0,1,1.35,0l29.9,29.9a.955.955,0,0,1,0,1.35h0A.954.954,0,0,1,217.853,1060.065Z" transform="translate(-187.675 -1028.537)" fill="#bfefdd"/>
        </g>
        <g id="Grupo_80115" data-name="Grupo 80115" transform="translate(10.579 3.756)">
          <path id="Trazado_113530" data-name="Trazado 113530" d="M188.992,1078.356l-32.049-32.049a.955.955,0,0,1,0-1.35h0a.955.955,0,0,1,1.35,0l32.049,32.05a.954.954,0,0,1,0,1.35h0A.954.954,0,0,1,188.992,1078.356Z" transform="translate(-156.663 -1044.677)" fill="#bfefdd"/>
        </g>
        <g id="Grupo_80116" data-name="Grupo 80116" transform="translate(6.823 6.823)">
          <path id="Trazado_113531" data-name="Trazado 113531" d="M163.7,1100.254l-32.739-32.739a.956.956,0,0,1,0-1.35h0a.955.955,0,0,1,1.35,0l32.739,32.739a.955.955,0,0,1,0,1.35h0A.956.956,0,0,1,163.7,1100.254Z" transform="translate(-130.686 -1065.885)" fill="#bfefdd"/>
        </g>
        <g id="Grupo_80117" data-name="Grupo 80117" transform="translate(3.756 10.579)">
          <path id="Trazado_113532" data-name="Trazado 113532" d="M141.807,1125.542l-32.049-32.049a.955.955,0,0,1,0-1.35h0a.954.954,0,0,1,1.35,0l32.049,32.049a.954.954,0,0,1,0,1.35h0A.955.955,0,0,1,141.807,1125.542Z" transform="translate(-109.478 -1091.863)" fill="#bfefdd"/>
        </g>
        <g id="Grupo_80118" data-name="Grupo 80118" transform="translate(1.422 15.063)">
          <path id="Trazado_113533" data-name="Trazado 113533" d="M123.515,1154.4l-29.9-29.9a.954.954,0,0,1,0-1.35h0a.953.953,0,0,1,1.35,0l29.9,29.9a.955.955,0,0,1,0,1.351h0A.953.953,0,0,1,123.515,1154.4Z" transform="translate(-93.336 -1122.875)" fill="#bfefdd"/>
        </g>
        <g id="Grupo_80119" data-name="Grupo 80119" transform="translate(0 20.458)">
          <path id="Trazado_113534" data-name="Trazado 113534" d="M109.7,1187.745l-25.926-25.926a.954.954,0,0,1,0-1.35h0a.953.953,0,0,1,1.35,0l25.926,25.926a.954.954,0,0,1,0,1.35h0A.954.954,0,0,1,109.7,1187.745Z" transform="translate(-83.499 -1160.189)" fill="#bfefdd"/>
        </g>
        <g id="Grupo_80120" data-name="Grupo 80120" transform="translate(0 27.276)">
          <path id="Trazado_113535" data-name="Trazado 113535" d="M102.887,1228.081l-19.108-19.108a.954.954,0,0,1,0-1.35h0a.954.954,0,0,1,1.35,0l19.108,19.108a.955.955,0,0,1,0,1.35h0A.955.955,0,0,1,102.887,1228.081Z" transform="translate(-83.499 -1207.343)" fill="#bfefdd"/>
        </g>
        <g id="Grupo_80121" data-name="Grupo 80121" transform="translate(2.558 36.653)">
          <path id="Trazado_113536" data-name="Trazado 113536" d="M108.644,1281l-7.173-7.173a.954.954,0,0,1,0-1.35h0a.955.955,0,0,1,1.35,0l7.174,7.174a.955.955,0,0,1,0,1.35h0A.954.954,0,0,1,108.644,1281Z" transform="translate(-101.191 -1272.193)" fill="#bfefdd"/>
        </g>
      </g>
      <g id="apoyo_2_" data-name="apoyo (2)" transform="translate(6.596 0.852)">
        <path id="Trazado_676805" data-name="Trazado 676805" d="M338.254,8.533h-10.7a3.291,3.291,0,0,0-3.291,3.291v8.228a3.291,3.291,0,0,0,3.291,3.291h2.468v4.114l4.114-4.114h4.114a3.291,3.291,0,0,0,3.291-3.291V11.824A3.291,3.291,0,0,0,338.254,8.533Z" transform="translate(-293.002 -7.71)" fill="#f0e4d6"/>
        <path id="Trazado_676806" data-name="Trazado 676806" d="M350.592,13.466A24.76,24.76,0,0,1,336.06,26.977a3.26,3.26,0,0,0,2.154.823h2.468v4.114L344.8,27.8h4.114a3.291,3.291,0,0,0,3.291-3.291V16.281A3.279,3.279,0,0,0,350.592,13.466Z" transform="translate(-303.658 -12.168)" fill="#ebdcca"/>
        <path id="Trazado_676807" data-name="Trazado 676807" d="M42.266,272.973l8.228-15.633H43.911l-4.114,7.4v-6.582a4.936,4.936,0,0,0-4.937-4.937H29.924a2.468,2.468,0,0,1-2.468-2.468v-3.291H20.873v3.291a2.468,2.468,0,0,1-2.468,2.468H13.469a4.936,4.936,0,0,0-4.937,4.937v14.81Z" transform="translate(-7.709 -223.607)" fill="#fec9a3"/>
        <g id="Grupo_951647" data-name="Grupo 951647" transform="translate(4.114 36.947)">
          <path id="Trazado_676808" data-name="Trazado 676808" d="M45.931,395.617H44.285v-2.188a8.2,8.2,0,0,1-.34-9.283l.6-.948,1.39.882-.6.947a6.555,6.555,0,0,0,.415,7.607.822.822,0,0,1,.18.514v2.468Z" transform="translate(-42.669 -383.198)" fill="#f5b789"/>
          <path id="Trazado_676809" data-name="Trazado 676809" d="M266.423,395.617h-1.646v-2.468a.822.822,0,0,1,.18-.514,6.553,6.553,0,0,0,.415-7.606l-.6-.948,1.39-.882.6.948a8.2,8.2,0,0,1-.34,9.283Z" transform="translate(-243.357 -383.198)" fill="#f5b789"/>
        </g>
        <path id="Trazado_676810" data-name="Trazado 676810" d="M74.237,28.279V20.052A11.519,11.519,0,0,0,62.719,8.533h0A11.519,11.519,0,0,0,51.2,20.052v8.228a4.936,4.936,0,0,0,4.937,4.937H69.3A4.936,4.936,0,0,0,74.237,28.279Z" transform="translate(-46.263 -7.71)" fill="#645e39"/>
        <path id="Trazado_676811" data-name="Trazado 676811" d="M139.825,8.533a11.521,11.521,0,0,0-3.291.483,11.52,11.52,0,0,1,8.228,11.036v8.228a4.936,4.936,0,0,1-4.937,4.937h6.582a4.936,4.936,0,0,0,4.937-4.937V20.052A11.519,11.519,0,0,0,139.825,8.533Z" transform="translate(-123.37 -7.71)" fill="#4f4a26"/>
        <path id="Trazado_676812" data-name="Trazado 676812" d="M382.872,303.6h-7.4a4.936,4.936,0,0,1,4.937-4.937h7.4A4.936,4.936,0,0,1,382.872,303.6Z" transform="translate(-339.265 -269.87)" fill="#fec9a3"/>
        <g id="Grupo_951648" data-name="Grupo 951648" transform="translate(34.556 4.114)">
          <rect id="Rectángulo_337407" data-name="Rectángulo 337407" width="5.759" height="1.646" transform="translate(0)" fill="#ccbfb0"/>
          <rect id="Rectángulo_337408" data-name="Rectángulo 337408" width="3.291" height="1.646" transform="translate(7.405)" fill="#ccbfb0"/>
          <rect id="Rectángulo_337409" data-name="Rectángulo 337409" width="10.696" height="1.646" transform="translate(0 3.291)" fill="#ccbfb0"/>
          <rect id="Rectángulo_337410" data-name="Rectángulo 337410" width="5.759" height="1.646" transform="translate(0 6.582)" fill="#ccbfb0"/>
        </g>
        <path id="Trazado_676813" data-name="Trazado 676813" d="M143.12,250.8v-3.333h-6.586V250.8a7.345,7.345,0,0,0,6.59,0Z" transform="translate(-123.37 -223.607)" fill="#f7c097"/>
        <path id="Trazado_676814" data-name="Trazado 676814" d="M93.867,89.582v3.543a7.4,7.4,0,0,0,14.81,0V86.543a7.365,7.365,0,0,0-.886-3.513Z" transform="translate(-84.817 -75.024)" fill="#fec9a3"/>
        <rect id="Rectángulo_337411" data-name="Rectángulo 337411" width="11.519" height="9.05" transform="translate(10.696 34.556)" fill="#13c6cc"/>
        <path id="Trazado_676815" data-name="Trazado 676815" d="M43.912,311.314l-4.114,7.4v-6.582a4.936,4.936,0,0,0-4.937-4.937H32.229l-8.063,10.7-7.652-10.7H13.47a4.936,4.936,0,0,0-4.937,4.937v14.81H42.266l8.228-15.633Z" transform="translate(-7.71 -277.58)" fill="#a19e9e"/>
        <path id="Trazado_676816" data-name="Trazado 676816" d="M166.608,311.607h-6.582l-4.114,7.4v-6.582a4.936,4.936,0,0,0-4.394-4.905c-1.481,11.493-8.385,17.048-14.481,19.715H158.38Z" transform="translate(-123.824 -277.873)" fill="#afafaf"/>
        <g id="Grupo_951649" data-name="Grupo 951649" transform="translate(4.114 36.947)">
          <path id="Trazado_676817" data-name="Trazado 676817" d="M45.931,395.617H44.285v-2.188a8.2,8.2,0,0,1-.34-9.283l.6-.948,1.39.882-.6.947a6.555,6.555,0,0,0,.415,7.607.822.822,0,0,1,.18.514v2.468Z" transform="translate(-42.669 -383.198)" fill="#3685ba"/>
          <path id="Trazado_676818" data-name="Trazado 676818" d="M266.423,395.617h-1.646v-2.468a.822.822,0,0,1,.18-.514,6.553,6.553,0,0,0,.415-7.606l-.6-.948,1.39-.882.6.948a8.2,8.2,0,0,1-.34,9.283Z" transform="translate(-243.357 -383.198)" fill="#3685ba"/>
        </g>
        <path id="Trazado_676819" data-name="Trazado 676819" d="M178.072,93.124V86.542a7.365,7.365,0,0,0-.886-3.513l-2.088.982a11.467,11.467,0,0,1,.506,3.354v8.228a4.936,4.936,0,0,1-4.937,4.937,7.4,7.4,0,0,0,7.4-7.4Z" transform="translate(-154.212 -75.024)" fill="#f7c097"/>
        <path id="Trazado_676820" data-name="Trazado 676820" d="M61.59,25.506h-.823v1.646h.823a5.766,5.766,0,0,0,5.759-5.759v-9.05a12.341,12.341,0,0,0-24.683,0v9.05a5.766,5.766,0,0,0,5.759,5.759h.823V25.506h-.823a4.119,4.119,0,0,1-4.114-4.114v-9.05a10.7,10.7,0,0,1,21.392,0v9.05A4.118,4.118,0,0,1,61.59,25.506Z" transform="translate(-38.552 0)"/>
        <path id="Trazado_676821" data-name="Trazado 676821" d="M45.936,384.08l-1.39-.882-.6.948a8.2,8.2,0,0,0,.34,9.283v2.188H45.93v-2.468a.822.822,0,0,0-.18-.514,6.555,6.555,0,0,1-.415-7.607Z" transform="translate(-38.554 -346.251)"/>
        <path id="Trazado_676822" data-name="Trazado 676822" d="M330.543,0h-10.7a4.119,4.119,0,0,0-4.114,4.114v8.228a4.119,4.119,0,0,0,4.114,4.114h1.646v3.291a.823.823,0,0,0,.508.76.823.823,0,0,0,.9-.178l3.873-3.873h3.773a4.119,4.119,0,0,0,4.114-4.114V4.114A4.119,4.119,0,0,0,330.543,0Zm2.468,12.341a2.468,2.468,0,0,1-2.468,2.468h-4.114a.821.821,0,0,0-.582.241l-2.709,2.709V15.632a.823.823,0,0,0-.823-.823h-2.468a2.468,2.468,0,0,1-2.468-2.468V4.114a2.468,2.468,0,0,1,2.468-2.468h10.7a2.468,2.468,0,0,1,2.468,2.468Z" transform="translate(-285.291 0)"/>
        <rect id="Rectángulo_337412" data-name="Rectángulo 337412" width="5.759" height="1.646" transform="translate(34.556 4.114)"/>
        <rect id="Rectángulo_337413" data-name="Rectángulo 337413" width="3.291" height="1.646" transform="translate(41.961 4.114)"/>
        <rect id="Rectángulo_337414" data-name="Rectángulo 337414" width="10.696" height="1.646" transform="translate(34.556 7.405)"/>
        <rect id="Rectángulo_337415" data-name="Rectángulo 337415" width="5.759" height="1.646" transform="translate(34.556 10.696)"/>
        <path id="Trazado_676823" data-name="Trazado 676823" d="M264.778,393.148v2.468h1.646v-2.188a8.2,8.2,0,0,0,.34-9.283l-.6-.948-1.39.882.6.948a6.553,6.553,0,0,1-.415,7.606A.822.822,0,0,0,264.778,393.148Z" transform="translate(-239.243 -346.251)"/>
        <path id="Trazado_676824" data-name="Trazado 676824" d="M1.646,101.877a4.119,4.119,0,0,1,4.114-4.114H8.377l7.409,10.352a.821.821,0,0,0,.658.344h.011a.822.822,0,0,0,.658-.329L24.93,97.763h2.221a4.119,4.119,0,0,1,4.114,4.114v6.582a.823.823,0,0,0,1.542.4l3.879-6.981H41.4l-8.022,14.81h1.872l8.025-14.81h.329a5.766,5.766,0,0,0,5.759-5.759.823.823,0,0,0-.823-.823h-7.4a5.759,5.759,0,0,0-5.748,5.525l-2.48,4.464v-3.407a5.766,5.766,0,0,0-5.759-5.759H24.144l-.022-.017-.015.017H22.215a1.645,1.645,0,0,1-1.646-1.646V92.536a8.228,8.228,0,0,0,4.114-7.114V78.839a8.241,8.241,0,0,0-.987-3.9.823.823,0,0,0-1.07-.354L8.7,81.133a.824.824,0,0,0-.472.745v3.544a8.228,8.228,0,0,0,4.114,7.114v1.936A1.645,1.645,0,0,1,10.7,96.117H5.759A5.766,5.766,0,0,0,0,101.877v14.81H1.646ZM41.138,96.94h6.5a4.12,4.12,0,0,1-4.032,3.291h-6.5A4.12,4.12,0,0,1,41.138,96.94Zm-24.666,9.307L13.934,102.7h5.213Zm-6.6-20.826V82.4l12.7-5.978a6.586,6.586,0,0,1,.46,2.417v6.582a6.582,6.582,0,1,1-13.164,0ZM10.7,97.763a3.291,3.291,0,0,0,3.291-3.291v-1.2a8.217,8.217,0,0,0,4.937,0v1.2a3.291,3.291,0,0,0,3.291,3.291h.658l-2.482,3.291H12.753L10.4,97.763Z" transform="translate(0 -67.321)"/>
      </g>
      <g id="Elipse_4731" data-name="Elipse 4731" transform="translate(2.181 40.976)" fill="none" stroke="#ffc721" stroke-width="4">
        <ellipse cx="7.318" cy="7.318" rx="7.318" ry="7.318" stroke="none"/>
        <ellipse cx="7.318" cy="7.318" rx="5.318" ry="5.318" fill="none"/>
      </g>
    </g>
  </g>
</svg>
