<svg xmlns="http://www.w3.org/2000/svg" width="77.379" height="52.629" viewBox="0 0 77.379 52.629">
  <path id="Trazado_679399" data-name="Trazado 679399" d="M38.672-20.918q0,10.371-4.658,16T20.883.7Q12.34.7,7.664-4.957T2.988-20.918V-30.27q0-10.371,4.658-16t13.166-5.625q8.508,0,13.184,5.66t4.676,16ZM26.824-31.781q0-5.52-1.441-8.244a4.818,4.818,0,0,0-4.57-2.725,4.7,4.7,0,0,0-4.447,2.531q-1.389,2.531-1.494,7.664v13.078q0,5.73,1.441,8.385a4.836,4.836,0,0,0,4.57,2.654,4.771,4.771,0,0,0,4.465-2.584q1.441-2.584,1.477-8.1Zm52.523-5.73A11.817,11.817,0,0,1,77.5-30.937a13.442,13.442,0,0,1-5.08,4.57,14.793,14.793,0,0,1,5.8,4.9A12.656,12.656,0,0,1,80.367-14.1,13.4,13.4,0,0,1,75.639-3.27Q70.91.7,62.613.7q-8.332,0-13.148-3.99A13.3,13.3,0,0,1,44.648-14.1a12.814,12.814,0,0,1,2.109-7.277,14.344,14.344,0,0,1,5.977-4.992,13.518,13.518,0,0,1-5.133-4.57,11.735,11.735,0,0,1-1.863-6.574,13.134,13.134,0,0,1,4.535-10.547q4.535-3.867,12.234-3.867,7.77,0,12.3,3.867A13.134,13.134,0,0,1,79.348-37.512ZM68.484-15.047a6.758,6.758,0,0,0-1.635-4.869,5.693,5.693,0,0,0-4.307-1.705,5.75,5.75,0,0,0-4.324,1.705,6.714,6.714,0,0,0-1.652,4.869,6.771,6.771,0,0,0,1.67,4.834,5.731,5.731,0,0,0,4.377,1.775A5.507,5.507,0,0,0,66.867-10.2,6.894,6.894,0,0,0,68.484-15.047ZM62.508-42.785a4.378,4.378,0,0,0-3.639,1.564,6.79,6.79,0,0,0-1.248,4.342,7.2,7.2,0,0,0,1.266,4.43,4.367,4.367,0,0,0,3.727,1.688,4.188,4.188,0,0,0,3.639-1.687,7.423,7.423,0,0,0,1.213-4.43A6.8,6.8,0,0,0,66.217-41.2,4.437,4.437,0,0,0,62.508-42.785Z" transform="translate(-2.988 51.926)" fill="#636363" opacity="0.13"/>
</svg>
