<svg xmlns="http://www.w3.org/2000/svg" width="77.309" height="52.594" viewBox="0 0 77.309 52.594">
  <path id="Trazado_679403" data-name="Trazado 679403" d="M38.672-20.918q0,10.371-4.658,16T20.883.7Q12.34.7,7.664-4.957T2.988-20.918V-30.27q0-10.371,4.658-16t13.166-5.625q8.508,0,13.184,5.66t4.676,16ZM26.824-31.781q0-5.52-1.441-8.244a4.818,4.818,0,0,0-4.57-2.725,4.7,4.7,0,0,0-4.447,2.531q-1.389,2.531-1.494,7.664v13.078q0,5.73,1.441,8.385a4.836,4.836,0,0,0,4.57,2.654,4.771,4.771,0,0,0,4.465-2.584q1.441-2.584,1.477-8.1ZM45.527-25l3.129-26.184H78.574v9.141H58.289l-1.16,10.239a13.974,13.974,0,0,1,3.322-1.307,15.158,15.158,0,0,1,4.025-.565q7.629,0,11.725,4.518t4.1,12.674a18.165,18.165,0,0,1-2.2,8.912,15.1,15.1,0,0,1-6.17,6.135A19.479,19.479,0,0,1,62.543.7a20.96,20.96,0,0,1-9.035-1.985A16.209,16.209,0,0,1,46.9-6.726a13.23,13.23,0,0,1-2.355-7.816H56.426a6.721,6.721,0,0,0,1.793,4.456,5.691,5.691,0,0,0,4.254,1.649q5.977,0,5.977-8.841,0-8.174-7.312-8.174-4.148,0-6.187,2.666Z" transform="translate(-2.988 51.891)" fill="#636363" opacity="0.13"/>
</svg>
