<svg xmlns="http://www.w3.org/2000/svg" width="65" height="65" viewBox="0 0 65 65">
  <g id="Grupo_991978" data-name="Grupo 991978" transform="translate(-567 -3793)">
    <rect id="Rectángulo_33792" data-name="Rectángulo 33792" width="65" height="65" rx="5" transform="translate(567 3793)" fill="#465fc4"/>
    <g id="Grupo_991542" data-name="Grupo 991542" transform="translate(-0.365 -20.459)">
      <g id="Grupo_80313" data-name="Grupo 80313" transform="translate(572.365 3821.843)">
        <g id="Grupo_80111" data-name="Grupo 80111" transform="translate(24.464)">
          <path id="Trazado_113526" data-name="Trazado 113526" d="M289.532,1037.3l-17.138-17.138a.856.856,0,0,1,0-1.21h0a.856.856,0,0,1,1.211,0l17.138,17.138a.856.856,0,0,1,0,1.211h0A.857.857,0,0,1,289.532,1037.3Z" transform="translate(-272.143 -1018.7)" fill="#ffc721"/>
        </g>
        <g id="Grupo_80112" data-name="Grupo 80112" transform="translate(32.873 2.294)">
          <path id="Trazado_113527" data-name="Trazado 113527" d="M343.678,1044.286l-6.434-6.434a.857.857,0,0,1,0-1.211h0a.856.856,0,0,1,1.211,0l6.433,6.433a.856.856,0,0,1,0,1.211h0A.856.856,0,0,1,343.678,1044.286Z" transform="translate(-336.993 -1036.39)" fill="#ffc721"/>
        </g>
        <g id="Grupo_80113" data-name="Grupo 80113" transform="translate(18.349)">
          <path id="Trazado_113528" data-name="Trazado 113528" d="M248.493,1043.414l-23.253-23.253a.855.855,0,0,1,0-1.21h0a.856.856,0,0,1,1.211,0L249.7,1042.2a.856.856,0,0,1,0,1.211h0A.856.856,0,0,1,248.493,1043.414Z" transform="translate(-224.989 -1018.7)" fill="#ffc721"/>
        </g>
        <g id="Grupo_80114" data-name="Grupo 80114" transform="translate(13.51 1.276)">
          <path id="Trazado_113529" data-name="Trazado 113529" d="M214.741,1056.815,187.926,1030a.856.856,0,0,1,0-1.211h0a.855.855,0,0,1,1.211,0l26.816,26.816a.856.856,0,0,1,0,1.211h0A.856.856,0,0,1,214.741,1056.815Z" transform="translate(-187.675 -1028.537)" fill="#ffc721"/>
        </g>
        <g id="Grupo_80115" data-name="Grupo 80115" transform="translate(9.488 3.369)">
          <path id="Trazado_113530" data-name="Trazado 113530" d="M185.658,1074.883l-28.744-28.744a.856.856,0,0,1,0-1.211h0a.856.856,0,0,1,1.211,0l28.745,28.745a.856.856,0,0,1,0,1.211h0A.856.856,0,0,1,185.658,1074.883Z" transform="translate(-156.663 -1044.677)" fill="#ffc721"/>
        </g>
        <g id="Grupo_80116" data-name="Grupo 80116" transform="translate(6.119 6.119)">
          <path id="Trazado_113531" data-name="Trazado 113531" d="M160.3,1096.71l-29.363-29.363a.857.857,0,0,1,0-1.211h0a.857.857,0,0,1,1.211,0l29.363,29.364a.857.857,0,0,1,0,1.211h0A.857.857,0,0,1,160.3,1096.71Z" transform="translate(-130.686 -1065.885)" fill="#ffc721"/>
        </g>
        <g id="Grupo_80117" data-name="Grupo 80117" transform="translate(3.369 9.488)">
          <path id="Trazado_113532" data-name="Trazado 113532" d="M138.474,1122.069l-28.745-28.745a.856.856,0,0,1,0-1.21h0a.856.856,0,0,1,1.211,0l28.744,28.744a.856.856,0,0,1,0,1.211h0A.856.856,0,0,1,138.474,1122.069Z" transform="translate(-109.478 -1091.863)" fill="#ffc721"/>
        </g>
        <g id="Grupo_80118" data-name="Grupo 80118" transform="translate(1.276 13.51)">
          <path id="Trazado_113533" data-name="Trazado 113533" d="M120.4,1151.153l-26.816-26.816a.856.856,0,0,1,0-1.211h0a.855.855,0,0,1,1.211,0l26.816,26.816a.856.856,0,0,1,0,1.211h0A.855.855,0,0,1,120.4,1151.153Z" transform="translate(-93.336 -1122.875)" fill="#ffc721"/>
        </g>
        <g id="Grupo_80119" data-name="Grupo 80119" transform="translate(0 18.349)">
          <path id="Trazado_113534" data-name="Trazado 113534" d="M107,1184.9,83.75,1161.651a.855.855,0,0,1,0-1.211h0a.855.855,0,0,1,1.211,0l23.253,23.253a.855.855,0,0,1,0,1.211h0A.856.856,0,0,1,107,1184.9Z" transform="translate(-83.499 -1160.189)" fill="#ffc721"/>
        </g>
        <g id="Grupo_80120" data-name="Grupo 80120" transform="translate(0 24.464)">
          <path id="Trazado_113535" data-name="Trazado 113535" d="M100.888,1225.943,83.75,1208.8a.856.856,0,0,1,0-1.211h0a.856.856,0,0,1,1.211,0l17.138,17.138a.857.857,0,0,1,0,1.211h0A.856.856,0,0,1,100.888,1225.943Z" transform="translate(-83.499 -1207.343)" fill="#ffc721"/>
        </g>
        <g id="Grupo_80121" data-name="Grupo 80121" transform="translate(2.294 32.873)">
          <path id="Trazado_113536" data-name="Trazado 113536" d="M107.875,1280.088l-6.433-6.434a.856.856,0,0,1,0-1.211h0a.857.857,0,0,1,1.211,0l6.434,6.434a.856.856,0,0,1,0,1.211h0A.856.856,0,0,1,107.875,1280.088Z" transform="translate(-101.191 -1272.193)" fill="#ffc721"/>
        </g>
      </g>
      <g id="Elipse_4731" data-name="Elipse 4731" transform="translate(582.321 3858.594)" fill="none" stroke="#f9931f" stroke-width="4">
        <ellipse cx="6.563" cy="6.563" rx="6.563" ry="6.563" stroke="none"/>
        <ellipse cx="6.563" cy="6.563" rx="4.563" ry="4.563" fill="none"/>
      </g>
      <g id="diagrama-de-flujo_1_" data-name="diagrama-de-flujo (1)" transform="translate(577.094 3819.459)">
        <g id="Grupo_991539" data-name="Grupo 991539" transform="translate(1.788 1.788)">
          <g id="Grupo_991526" data-name="Grupo 991526" transform="translate(6.303 6.303)">
            <path id="Trazado_679049" data-name="Trazado 679049" d="M50.97,11.576v1.576H10V10H49.394A1.58,1.58,0,0,1,50.97,11.576Z" transform="translate(-10 -10)" fill="#aab2bd"/>
          </g>
          <g id="Grupo_991527" data-name="Grupo 991527" transform="translate(13.394 44.122)">
            <path id="Trazado_679050" data-name="Trazado 679050" d="M41.061,60.364v.788H19v-.788A2.361,2.361,0,0,1,21.364,58H38.7A2.361,2.361,0,0,1,41.061,60.364Z" transform="translate(-19 -58)" fill="#b27946"/>
          </g>
          <g id="Grupo_991528" data-name="Grupo 991528" transform="translate(21.273 37.819)">
            <path id="Trazado_679051" data-name="Trazado 679051" d="M29,50h6.3v6.3H29Z" transform="translate(-29 -50)" fill="#d3a06c"/>
          </g>
          <g id="Grupo_991529" data-name="Grupo 991529" transform="translate(3.152 9.455)">
            <path id="Trazado_679052" data-name="Trazado 679052" d="M9.152,25.03V14H48.546V42.364H6V31.334a1.131,1.131,0,0,0,1.064-.741Z" transform="translate(-6 -14)" fill="#e6e9ed"/>
          </g>
          <g id="Grupo_991530" data-name="Grupo 991530" transform="translate(7.879 25.212)">
            <path id="Trazado_679053" data-name="Trazado 679053" d="M12,34H23.03v9.455H12Z" transform="translate(-12 -34)" fill="#bbec6c"/>
          </g>
          <g id="Grupo_991531" data-name="Grupo 991531" transform="translate(29.152 31.516)">
            <path id="Trazado_679054" data-name="Trazado 679054" d="M48.455,42.788v1.576a.79.79,0,0,1-.788.788H39.788A.79.79,0,0,1,39,44.364V42.788A.79.79,0,0,1,39.788,42h7.879A.79.79,0,0,1,48.455,42.788Z" transform="translate(-39 -42)" fill="#ffc721"/>
          </g>
          <g id="Grupo_991532" data-name="Grupo 991532" transform="translate(28.364 12.606)">
            <path id="Trazado_679055" data-name="Trazado 679055" d="M49.03,19.576v1.576H38V18H49.03Z" transform="translate(-38 -18)" fill="#ffc721"/>
          </g>
          <g id="Grupo_991533" data-name="Grupo 991533" transform="translate(21.939 21.005)">
            <ellipse id="Elipse_7682" data-name="Elipse 7682" cx="1.623" cy="1.082" rx="1.623" ry="1.082" transform="translate(0 0)" fill="#ffc721"/>
          </g>
          <g id="Grupo_991534" data-name="Grupo 991534" transform="translate(29.152 18.909)">
            <path id="Trazado_679056" data-name="Trazado 679056" d="M48.455,29.152,43.727,32.3,39,29.152,43.727,26Z" transform="translate(-39 -26)" fill="#bbec6c"/>
          </g>
          <g id="Grupo_991535" data-name="Grupo 991535">
            <path id="Trazado_679057" data-name="Trazado 679057" d="M8.3,5.152V6.727H2V5.152a3.152,3.152,0,0,1,6.3,0Z" transform="translate(-2 -2)" fill="#aab2bd"/>
          </g>
          <g id="Grupo_991536" data-name="Grupo 991536" transform="translate(0 20.485)">
            <path id="Trazado_679058" data-name="Trazado 679058" d="M6.215,33.563a1.134,1.134,0,0,1-2.127,0L2,28H8.3Z" transform="translate(-2 -28)" fill="#aab2bd"/>
          </g>
          <g id="Grupo_991537" data-name="Grupo 991537" transform="translate(0 4.727)">
            <path id="Trazado_679059" data-name="Trazado 679059" d="M2,8H5.152V23.758H2Z" transform="translate(-2 -8)" fill="#bbec6c"/>
          </g>
          <g id="Grupo_991538" data-name="Grupo 991538" transform="translate(3.152 4.727)">
            <path id="Trazado_679060" data-name="Trazado 679060" d="M9.152,9.576V23.758H6V8H9.152Z" transform="translate(-6 -8)" fill="#ff826e"/>
          </g>
        </g>
        <g id="Grupo_991540" data-name="Grupo 991540" transform="translate(1 1)">
          <path id="Trazado_679061" data-name="Trazado 679061" d="M49.849,9.667A2.367,2.367,0,0,0,47.485,7.3H8.879V4.939A3.939,3.939,0,0,0,1,4.939V22.416l2.138,5.7a1.926,1.926,0,0,0,1.014,1.074V40.394H22.273v4.727H17.546a3.155,3.155,0,0,0-3.152,3.152v1.576H38.031V48.273a3.155,3.155,0,0,0-3.152-3.152H30.152V40.394H48.273V12.03h1.576ZM7.3,21.485H5.727V7.3H7.3Zm-4.727,0V7.3H4.152V21.485ZM4.939,2.576A2.367,2.367,0,0,1,7.3,4.939v.788H2.576V4.939A2.367,2.367,0,0,1,4.939,2.576ZM2.925,23.061H6.954l-1.687,4.5a.365.365,0,0,1-.655,0Zm33.53,25.212H15.97A1.577,1.577,0,0,1,17.546,46.7H34.879A1.577,1.577,0,0,1,36.455,48.273Zm-7.879-3.152H23.849V40.394h4.727Zm18.121-6.3H5.727V29.19a1.929,1.929,0,0,0,1.014-1.074l2.138-5.7V12.03H46.7Zm1.576-28.364H8.879V8.879H47.485a.788.788,0,0,1,.788.788Z" transform="translate(-1 -1)"/>
          <path id="Trazado_679062" data-name="Trazado 679062" d="M30.576,29.461v9.6h5.515a1.577,1.577,0,0,0,1.576,1.576h7.879a1.577,1.577,0,0,0,1.576-1.576V37.485a1.577,1.577,0,0,0-1.576-1.576H42.394V34.334h8.667V18.576H47.909V17H35.3v1.576H30.576v6.448a2.35,2.35,0,0,0,0,4.437Zm14.971,9.6h-7.88V37.485h7.879Zm-7.88-3.152a1.577,1.577,0,0,0-1.576,1.576H32.152V29.461a2.361,2.361,0,0,0,1.431-1.431H36.64l4.178,2.785v5.094Zm3.939-10.871,3.307,2.2-3.307,2.2-3.307-2.2Zm7.879-4.886V32.758H42.394V30.816l5.36-3.573-5.36-3.573V21.727h5.515V20.152ZM36.879,18.576h9.455v1.576H36.879ZM35.3,20.152v1.576h5.515v1.942L36.64,26.455H33.582a2.361,2.361,0,0,0-1.431-1.431V20.152Zm-3.939,6.3a.788.788,0,1,1-.788.788A.788.788,0,0,1,31.364,26.455Z" transform="translate(-6.939 -4.394)"/>
          <path id="Trazado_679063" data-name="Trazado 679063" d="M13,17H24.03v1.576H13Z" transform="translate(-3.545 -4.394)"/>
          <path id="Trazado_679064" data-name="Trazado 679064" d="M24,21h2.364v1.576H24Z" transform="translate(-5.879 -5.242)"/>
          <path id="Trazado_679065" data-name="Trazado 679065" d="M13,21h7.091v1.576H13Z" transform="translate(-3.545 -5.242)"/>
          <path id="Trazado_679066" data-name="Trazado 679066" d="M13,25H24.03v1.576H13Z" transform="translate(-3.545 -6.091)"/>
          <path id="Trazado_679067" data-name="Trazado 679067" d="M13,29H24.03v1.576H13Z" transform="translate(-3.545 -6.939)"/>
          <path id="Trazado_679068" data-name="Trazado 679068" d="M11,44.03H23.606V33H11Zm1.576-9.455H22.03v7.879H12.576Z" transform="translate(-3.121 -7.788)"/>
        </g>
      </g>
    </g>
  </g>
</svg>
