<svg xmlns="http://www.w3.org/2000/svg" width="78.398" height="52.629" viewBox="0 0 78.398 52.629">
  <path id="Trazado_679404" data-name="Trazado 679404" d="M38.672-20.918q0,10.371-4.658,16T20.883.7Q12.34.7,7.664-4.957T2.988-20.918V-30.27q0-10.371,4.658-16t13.166-5.625q8.508,0,13.184,5.66t4.676,16ZM26.824-31.781q0-5.52-1.441-8.244a4.818,4.818,0,0,0-4.57-2.725,4.7,4.7,0,0,0-4.447,2.531q-1.389,2.531-1.494,7.664v13.078q0,5.73,1.441,8.385a4.836,4.836,0,0,0,4.57,2.654,4.771,4.771,0,0,0,4.465-2.584q1.441-2.584,1.477-8.1ZM73.441-51.926v9.316h-.527A17.787,17.787,0,0,0,62-39.428a13.433,13.433,0,0,0-5.256,8.842,13.854,13.854,0,0,1,10.125-3.937,12.923,12.923,0,0,1,10.582,4.852q3.938,4.852,3.938,12.727a17.919,17.919,0,0,1-2.3,8.965A16.431,16.431,0,0,1,72.65-1.6,18.487,18.487,0,0,1,63.492.7a19.107,19.107,0,0,1-9.738-2.479,17.04,17.04,0,0,1-6.68-7.084,23.327,23.327,0,0,1-2.461-10.617v-4.746a29.55,29.55,0,0,1,3.393-14.221,24.6,24.6,0,0,1,9.686-9.9,27.692,27.692,0,0,1,13.957-3.586ZM62.754-25.383A6.8,6.8,0,0,0,58.816-24.3a6.9,6.9,0,0,0-2.355,2.661V-18.1q0,9.663,6.715,9.663a5.454,5.454,0,0,0,4.518-2.416A9.817,9.817,0,0,0,69.5-16.91a9.636,9.636,0,0,0-1.846-6.109A5.912,5.912,0,0,0,62.754-25.383Z" transform="translate(-2.988 51.926)" fill="#636363" opacity="0.13"/>
</svg>
