<svg xmlns="http://www.w3.org/2000/svg" width="65" height="65" viewBox="0 0 65 65">
  <g id="Grupo_991977" data-name="Grupo 991977" transform="translate(-305 -3793)">
    <g id="Grupo_990047" data-name="Grupo 990047" transform="translate(125 -910)">
      <rect id="Rectángulo_33792" data-name="Rectángulo 33792" width="65" height="65" rx="5" transform="translate(180 4703)" fill="#465fc4"/>
    </g>
    <g id="Grupo_991541" data-name="Grupo 991541" transform="translate(0 -19)">
      <g id="Grupo_989868" data-name="Grupo 989868" transform="translate(128.229 -892.119)">
        <g id="Grupo_80313" data-name="Grupo 80313" transform="translate(185.691 4713.843)">
          <g id="Grupo_80111" data-name="Grupo 80111" transform="translate(24.464)">
            <path id="Trazado_113526" data-name="Trazado 113526" d="M289.532,1037.3l-17.138-17.138a.856.856,0,0,1,0-1.21h0a.856.856,0,0,1,1.211,0l17.138,17.138a.856.856,0,0,1,0,1.211h0A.857.857,0,0,1,289.532,1037.3Z" transform="translate(-272.143 -1018.7)" fill="#ffc721"/>
          </g>
          <g id="Grupo_80112" data-name="Grupo 80112" transform="translate(32.873 2.294)">
            <path id="Trazado_113527" data-name="Trazado 113527" d="M343.678,1044.286l-6.434-6.434a.857.857,0,0,1,0-1.211h0a.856.856,0,0,1,1.211,0l6.433,6.433a.856.856,0,0,1,0,1.211h0A.856.856,0,0,1,343.678,1044.286Z" transform="translate(-336.993 -1036.39)" fill="#ffc721"/>
          </g>
          <g id="Grupo_80113" data-name="Grupo 80113" transform="translate(18.349)">
            <path id="Trazado_113528" data-name="Trazado 113528" d="M248.493,1043.414l-23.253-23.253a.855.855,0,0,1,0-1.21h0a.856.856,0,0,1,1.211,0L249.7,1042.2a.856.856,0,0,1,0,1.211h0A.856.856,0,0,1,248.493,1043.414Z" transform="translate(-224.989 -1018.7)" fill="#ffc721"/>
          </g>
          <g id="Grupo_80114" data-name="Grupo 80114" transform="translate(13.51 1.276)">
            <path id="Trazado_113529" data-name="Trazado 113529" d="M214.741,1056.815,187.926,1030a.856.856,0,0,1,0-1.211h0a.855.855,0,0,1,1.211,0l26.816,26.816a.856.856,0,0,1,0,1.211h0A.856.856,0,0,1,214.741,1056.815Z" transform="translate(-187.675 -1028.537)" fill="#ffc721"/>
          </g>
          <g id="Grupo_80115" data-name="Grupo 80115" transform="translate(9.488 3.369)">
            <path id="Trazado_113530" data-name="Trazado 113530" d="M185.658,1074.883l-28.744-28.744a.856.856,0,0,1,0-1.211h0a.856.856,0,0,1,1.211,0l28.745,28.745a.856.856,0,0,1,0,1.211h0A.856.856,0,0,1,185.658,1074.883Z" transform="translate(-156.663 -1044.677)" fill="#ffc721"/>
          </g>
          <g id="Grupo_80116" data-name="Grupo 80116" transform="translate(6.119 6.119)">
            <path id="Trazado_113531" data-name="Trazado 113531" d="M160.3,1096.71l-29.363-29.363a.857.857,0,0,1,0-1.211h0a.857.857,0,0,1,1.211,0l29.363,29.364a.857.857,0,0,1,0,1.211h0A.857.857,0,0,1,160.3,1096.71Z" transform="translate(-130.686 -1065.885)" fill="#ffc721"/>
          </g>
          <g id="Grupo_80117" data-name="Grupo 80117" transform="translate(3.369 9.488)">
            <path id="Trazado_113532" data-name="Trazado 113532" d="M138.474,1122.069l-28.745-28.745a.856.856,0,0,1,0-1.21h0a.856.856,0,0,1,1.211,0l28.744,28.744a.856.856,0,0,1,0,1.211h0A.856.856,0,0,1,138.474,1122.069Z" transform="translate(-109.478 -1091.863)" fill="#ffc721"/>
          </g>
          <g id="Grupo_80118" data-name="Grupo 80118" transform="translate(1.276 13.51)">
            <path id="Trazado_113533" data-name="Trazado 113533" d="M120.4,1151.153l-26.816-26.816a.856.856,0,0,1,0-1.211h0a.855.855,0,0,1,1.211,0l26.816,26.816a.856.856,0,0,1,0,1.211h0A.855.855,0,0,1,120.4,1151.153Z" transform="translate(-93.336 -1122.875)" fill="#ffc721"/>
          </g>
          <g id="Grupo_80119" data-name="Grupo 80119" transform="translate(0 18.349)">
            <path id="Trazado_113534" data-name="Trazado 113534" d="M107,1184.9,83.75,1161.651a.855.855,0,0,1,0-1.211h0a.855.855,0,0,1,1.211,0l23.253,23.253a.855.855,0,0,1,0,1.211h0A.856.856,0,0,1,107,1184.9Z" transform="translate(-83.499 -1160.189)" fill="#ffc721"/>
          </g>
          <g id="Grupo_80120" data-name="Grupo 80120" transform="translate(0 24.464)">
            <path id="Trazado_113535" data-name="Trazado 113535" d="M100.888,1225.943,83.75,1208.8a.856.856,0,0,1,0-1.211h0a.856.856,0,0,1,1.211,0l17.138,17.138a.857.857,0,0,1,0,1.211h0A.856.856,0,0,1,100.888,1225.943Z" transform="translate(-83.499 -1207.343)" fill="#ffc721"/>
          </g>
          <g id="Grupo_80121" data-name="Grupo 80121" transform="translate(2.294 32.873)">
            <path id="Trazado_113536" data-name="Trazado 113536" d="M107.875,1280.088l-6.433-6.434a.856.856,0,0,1,0-1.211h0a.857.857,0,0,1,1.211,0l6.434,6.434a.856.856,0,0,1,0,1.211h0A.856.856,0,0,1,107.875,1280.088Z" transform="translate(-101.191 -1272.193)" fill="#ffc721"/>
          </g>
        </g>
        <g id="archivo_4_" data-name="archivo (4)" transform="translate(171.35 4713.702)">
          <g id="Grupo_991508" data-name="Grupo 991508" transform="translate(22.544 0.683)">
            <path id="Trazado_679030" data-name="Trazado 679030" d="M97.373,10.444H66.091V8.42a.92.92,0,0,1,.92-.92H96.453a.92.92,0,0,1,.92.92v2.024Z" transform="translate(-66.091 -7.5)" fill="#d3effb"/>
          </g>
          <g id="Grupo_991509" data-name="Grupo 991509" transform="translate(21.624 3.627)">
            <path id="Trazado_679031" data-name="Trazado 679031" d="M89.112,42.769H55.989V40.745a.92.92,0,0,1,.92-.92H88.191a.92.92,0,0,1,.92.92Z" transform="translate(-55.989 -39.825)" fill="#cbe2ff"/>
          </g>
          <g id="Grupo_991510" data-name="Grupo 991510" transform="translate(18.864 33.99)">
            <path id="Trazado_679032" data-name="Trazado 679032" d="M64.327,385.14H25.786l-.1-11.961H64.327Z" transform="translate(-25.684 -373.179)" fill="#3c4d63"/>
          </g>
          <g id="Grupo_991511" data-name="Grupo 991511" transform="translate(28.212 33.99)">
            <path id="Trazado_679033" data-name="Trazado 679033" d="M157.611,379.225l-5.573-5.573q.105-.235.2-.473H128.316a12.888,12.888,0,0,0,17.215,6.978l4.982,4.983h7.1v-5.915Z" transform="translate(-128.316 -373.179)" fill="#2a3a4d"/>
          </g>
          <g id="Grupo_991512" data-name="Grupo 991512" transform="translate(20.704 6.572)">
            <path id="Trazado_679034" data-name="Trazado 679034" d="M80.85,99.568H45.887V73.07a.92.92,0,0,1,.92-.92H79.93a.92.92,0,0,1,.92.92v26.5Z" transform="translate(-45.887 -72.15)" fill="#f4fbff"/>
          </g>
          <g id="Grupo_991513" data-name="Grupo 991513" transform="translate(23.649 9.516)">
            <path id="Trazado_679035" data-name="Trazado 679035" d="M0,0H11.409V9.2H0Z" transform="translate(9.201 0) rotate(90)" fill="#b0c0d2"/>
          </g>
          <g id="Grupo_991514" data-name="Grupo 991514" transform="translate(52.322 6.572)">
            <path id="Trazado_679036" data-name="Trazado 679036" d="M395.448,72.15h-2.425a.92.92,0,0,1,.92.92v26.5h2.425V73.07A.92.92,0,0,0,395.448,72.15Z" transform="translate(-393.023 -72.15)" fill="#e4f6ff"/>
          </g>
          <g id="Grupo_991523" data-name="Grupo 991523" transform="translate(29.13 18.165)">
            <g id="Grupo_991515" data-name="Grupo 991515" transform="translate(16.629 16.636)">
              <path id="Trazado_679037" data-name="Trazado 679037" d="M0,0H5.52V3.312H0Z" transform="translate(0 3.903) rotate(-45)" fill="#2b4d66"/>
            </g>
            <g id="Grupo_991516" data-name="Grupo 991516" transform="translate(19.751 19.759)">
              <path id="Trazado_679038" data-name="Trazado 679038" d="M0,0H3.312V3.312H0Z" transform="translate(0 2.342) rotate(-45)" fill="#4a80aa"/>
            </g>
            <g id="Grupo_991517" data-name="Grupo 991517" transform="translate(21.32 21.32)">
              <path id="Trazado_679039" data-name="Trazado 679039" d="M382.841,439.977h-7.807l-2.562-2.562,3.9-3.9Z" transform="translate(-372.472 -433.511)" fill="#407093"/>
            </g>
            <g id="Grupo_991518" data-name="Grupo 991518" transform="translate(23.923 21.32)">
              <path id="Trazado_679040" data-name="Trazado 679040" d="M402.345,433.511l-1.3,1.3,5.165,5.165h2.6Z" transform="translate(-401.044 -433.511)" fill="#365e7d"/>
            </g>
            <g id="Grupo_991519" data-name="Grupo 991519" transform="translate(0)">
              <circle id="Elipse_7680" data-name="Elipse 7680" cx="11.041" cy="11.041" r="11.041" fill="#407093"/>
            </g>
            <g id="Grupo_991520" data-name="Grupo 991520" transform="translate(2.248 2.248)">
              <path id="Trazado_679041" data-name="Trazado 679041" d="M178.542,224.113a11.041,11.041,0,0,1-15.47,15.47,11.041,11.041,0,1,0,15.47-15.47Z" transform="translate(-163.072 -224.113)" fill="#365e7d"/>
            </g>
            <g id="Grupo_991521" data-name="Grupo 991521" transform="translate(2.944 2.944)">
              <circle id="Elipse_7681" data-name="Elipse 7681" cx="8.097" cy="8.097" r="8.097" transform="translate(0.268 0.309)" fill="#e4f6ff"/>
            </g>
            <g id="Grupo_991522" data-name="Grupo 991522" transform="translate(4.587 4.587)">
              <path id="Trazado_679042" data-name="Trazado 679042" d="M200.1,249.8a8.1,8.1,0,0,1-11.343,11.343A8.1,8.1,0,1,0,200.1,249.8Z" transform="translate(-188.76 -249.798)" fill="#d3effb"/>
            </g>
          </g>
          <g id="Grupo_991524" data-name="Grupo 991524" transform="translate(18.181 0)">
            <path id="Trazado_679043" data-name="Trazado 679043" d="M39.073,25.517a.683.683,0,0,0,.683-.683V7.491a.237.237,0,0,1,.236-.237H73.116a.237.237,0,0,1,.237.237v8.235a.683.683,0,1,0,1.366,0V7.491a1.6,1.6,0,0,0-.92-1.448v-1.5a1.6,1.6,0,0,0-.92-1.448V1.6a1.6,1.6,0,0,0-1.6-1.6H41.833a1.605,1.605,0,0,0-1.6,1.6V3.1a1.6,1.6,0,0,0-.92,1.448v1.5a1.6,1.6,0,0,0-.92,1.448V24.834A.683.683,0,0,0,39.073,25.517Zm1.6-20.97a.237.237,0,0,1,.237-.237H72.2a.237.237,0,0,1,.237.237V5.888H40.676ZM41.6,1.6a.237.237,0,0,1,.237-.237H71.275a.237.237,0,0,1,.237.237V2.944H41.6Z" transform="translate(-36.549 0)"/>
            <path id="Trazado_679044" data-name="Trazado 679044" d="M178.208,226.83a8.78,8.78,0,1,0,2.571,6.208A8.722,8.722,0,0,0,178.208,226.83Zm-.966,11.45a7.414,7.414,0,1,1,2.171-5.242A7.365,7.365,0,0,1,177.242,238.281Z" transform="translate(-150.01 -203.833)"/>
            <path id="Trazado_679045" data-name="Trazado 679045" d="M61.3,133.611,58.19,130.5v-8.366a.683.683,0,0,0-.683-.683H56.35V107.057a.683.683,0,0,0-1.366,0V121.45H51.153a11.724,11.724,0,0,0-17.621-13.765V97.659a.683.683,0,0,0-.683-.683h-9.2a.683.683,0,0,0-.683.683v11.409a.683.683,0,0,0,.683.683h7.593a11.748,11.748,0,0,0-2.053,11.7h-7.8v-5.285a.683.683,0,1,0-1.366,0v5.285H18.864a.683.683,0,0,0-.683.689l.1,11.961a.683.683,0,0,0,.683.677h4.059a.683.683,0,1,0,0-1.366H19.643l-.09-10.595H29.8a11.743,11.743,0,0,0,15.862,4.892l1.964,1.964a.683.683,0,0,0,.966,0l.3-.3,1.376,1.376-.3.3a.683.683,0,0,0,0,.966l1.4,1.4H26.212a.683.683,0,0,0,0,1.366h26.8a.683.683,0,0,0,.482-1.166l-2.079-2.079,2.937-2.937,5.983,5.983a.683.683,0,0,0,.966-.966ZM24.332,98.342h7.834v10.043H24.332Zm8.515,26.331a10.358,10.358,0,1,1,14.648,0A10.37,10.37,0,0,1,32.847,124.673Zm14.015,2.3A11.8,11.8,0,0,0,49.8,124.04l1.246,1.246-2.937,2.937Zm2.993,1.432,1.376-1.376,1.376,1.376-1.376,1.376Zm4.016-1.264-.3.3L52.2,126.067l.3-.3a.683.683,0,0,0,0-.966l-1.964-1.964.012-.023h6.281v6.316l-1.987-1.987a.683.683,0,0,0-.966,0Z" transform="translate(-18.181 -88.143)"/>
            <path id="Trazado_679046" data-name="Trazado 679046" d="M223.5,96.976H206.757a.683.683,0,0,0,0,1.366H223.5a.683.683,0,0,0,0-1.366Z" transform="translate(-188.96 -88.143)"/>
            <path id="Trazado_679047" data-name="Trazado 679047" d="M224.186,129.984a.683.683,0,0,0-.683-.683H206.757a.683.683,0,0,0,0,1.366H223.5A.683.683,0,0,0,224.186,129.984Z" transform="translate(-188.96 -117.524)"/>
            <path id="Trazado_679048" data-name="Trazado 679048" d="M206.758,161.626a.683.683,0,1,0,0,1.366h11.225a.683.683,0,1,0,0-1.366Z" transform="translate(-188.961 -146.905)"/>
          </g>
        </g>
        <g id="Elipse_4731" data-name="Elipse 4731" transform="translate(187.647 4750.594)" fill="none" stroke="#f9931f" stroke-width="4">
          <ellipse cx="6.563" cy="6.563" rx="6.563" ry="6.563" stroke="none"/>
          <ellipse cx="6.563" cy="6.563" rx="4.563" ry="4.563" fill="none"/>
        </g>
      </g>
      <g id="Grupo_991507" data-name="Grupo 991507" transform="translate(-1220.193 44.162)">
        <g id="Grupo_991473" data-name="Grupo 991473" transform="translate(1554.451 3801.436)">
          <path id="Trazado_678985" data-name="Trazado 678985" d="M18.745,10.029v2.686l-.716.255a5.182,5.182,0,0,1-.237.564l.331.685-1.9,1.9-.685-.331a5.182,5.182,0,0,1-.564.237l-.255.716H12.029l-.255-.716a5.183,5.183,0,0,1-.564-.237l-.685.331-1.9-1.9.331-.685a5.183,5.183,0,0,1-.237-.564L8,12.715V10.029l.716-.255a5.184,5.184,0,0,1,.237-.564l-.331-.685,1.9-1.9.685.331a5.184,5.184,0,0,1,.564-.237L12.029,6h2.686l.255.716a5.183,5.183,0,0,1,.564.237l.685-.331,1.9,1.9-.331.685a5.183,5.183,0,0,1,.237.564Zm-2.238,1.343a3.134,3.134,0,1,0-3.134,3.134A3.132,3.132,0,0,0,16.506,11.372Z" transform="translate(-8 -6)" fill="#a0d468"/>
        </g>
        <g id="Grupo_991474" data-name="Grupo 991474" transform="translate(1556.689 3803.675)">
          <path id="Trazado_678986" data-name="Trazado 678986" d="M16.134,11A3.134,3.134,0,1,1,13,14.134,3.132,3.132,0,0,1,16.134,11Zm1.343,3.134a1.343,1.343,0,1,0-1.343,1.343A1.341,1.341,0,0,0,17.477,14.134Z" transform="translate(-13 -11)" fill="#b4dd7f"/>
        </g>
        <path id="Trazado_679001" data-name="Trazado 679001" d="M15.582,10a3.582,3.582,0,1,0,3.582,3.582A3.586,3.586,0,0,0,15.582,10Zm0,6.268a2.686,2.686,0,1,1,2.686-2.686A2.689,2.689,0,0,1,15.582,16.268Z" transform="translate(1544.241 3793.227)"/>
        <path id="Trazado_679002" data-name="Trazado 679002" d="M17.791,14a1.791,1.791,0,1,0,1.791,1.791A1.793,1.793,0,0,0,17.791,14Zm0,2.686a.9.9,0,1,1,.9-.9A.9.9,0,0,1,17.791,16.686Z" transform="translate(1542.032 3791.017)"/>
        <path id="Trazado_679003" data-name="Trazado 679003" d="M17.735,12.979c.031-.07.06-.14.088-.211l.817-.288V9.16l-.817-.289q-.042-.105-.088-.211l.374-.783L15.761,5.531l-.783.374c-.07-.031-.14-.06-.211-.088L14.48,5H11.16l-.289.817q-.105.042-.211.088l-.782-.374L7.531,7.879l.374.783c-.031.07-.06.14-.088.211L7,9.16v3.32l.817.289q.042.105.088.211l-.374.782,2.348,2.348.783-.374c.07.031.14.06.211.088l.288.817h3.32l.289-.817q.105-.042.211-.088l.783.374,2.348-2.348Zm-.683-.708a4.377,4.377,0,0,1-.214.514l-.1.195.286.6-1.451,1.451-.6-.286-.195.1a4.455,4.455,0,0,1-.514.214l-.205.07-.22.623H11.794l-.22-.623-.205-.07a4.377,4.377,0,0,1-.514-.214l-.195-.1-.6.286L8.612,13.576l.286-.6-.1-.195a4.455,4.455,0,0,1-.214-.514l-.07-.205L7.9,11.846V9.794l.623-.22.07-.205A4.377,4.377,0,0,1,8.8,8.855l.1-.195-.286-.6,1.451-1.451.6.286.195-.1a4.455,4.455,0,0,1,.514-.214l.205-.07.219-.622h2.053l.22.623.205.07a4.377,4.377,0,0,1,.514.214l.195.1.6-.286,1.451,1.451-.286.6.1.195a4.455,4.455,0,0,1,.214.514l.07.205.622.219v2.053l-.623.22Z" transform="translate(1547.003 3795.988)"/>
      </g>
    </g>
  </g>
</svg>
