<svg xmlns="http://www.w3.org/2000/svg" width="65" height="65" viewBox="0 0 65 65">
  <g id="Grupo_991980" data-name="Grupo 991980" transform="translate(-1090 -3793)">
    <rect id="Rectángulo_33792" data-name="Rectángulo 33792" width="65" height="65" rx="5" transform="translate(1090 3793)" fill="#465fc4"/>
    <g id="capacitacion_2_" data-name="capacitacion (2)" transform="translate(1098 3800.131)">
      <rect id="Rectángulo_344187" data-name="Rectángulo 344187" width="9" height="11" rx="4.5" transform="translate(40 21.737)" fill="#5a5b5d"/>
      <path id="Trazado_625281" data-name="Trazado 625281" d="M50.071,33H55.5v3.144l2.254,2.817A4.717,4.717,0,0,1,50,35.358V33.786A4.717,4.717,0,0,1,50.071,33Z" transform="translate(-10.482 -6.845)" fill="#a55e21"/>
      <path id="Trazado_625282" data-name="Trazado 625282" d="M50,46.717a4.717,4.717,0,0,1,9.433,0V57.722H50Z" transform="translate(-10.482 -8.77)" fill="#5d9e39"/>
      <path id="Trazado_625283" data-name="Trazado 625283" d="M50,46.887a4.834,4.834,0,0,1,4.217-4.861,4.688,4.688,0,0,1,2.951.667,4.691,4.691,0,0,1,.693,2.452v3.144A7.861,7.861,0,0,1,50,56.149Z" transform="translate(-10.482 -8.77)" fill="#79b856"/>
      <path id="Trazado_625284" data-name="Trazado 625284" d="M11.433,46.717a4.717,4.717,0,0,0-9.433,0V57.722h9.433Z" transform="translate(-0.214 -8.77)" fill="#307cbd"/>
      <path id="Trazado_625285" data-name="Trazado 625285" d="M11.861,46.887a4.834,4.834,0,0,0-4.217-4.861,4.688,4.688,0,0,0-2.951.667A4.691,4.691,0,0,0,4,45.144v3.144a7.861,7.861,0,0,0,7.861,7.861Z" transform="translate(-0.642 -8.77)" fill="#77addb"/>
      <path id="Trazado_625286" data-name="Trazado 625286" d="M42.871,57.294H13L17.717,40H38.155Z" transform="translate(-2.567 -8.343)" fill="#c2c3c5"/>
      <path id="Trazado_625287" data-name="Trazado 625287" d="M19.288,40,15,55.722H42.871L38.583,40Z" transform="translate(-2.995 -8.343)" fill="#dcdddf"/>
      <path id="Trazado_625288" data-name="Trazado 625288" d="M2,2H36.588V25.583H2Z" transform="translate(-0.214 -0.214)" fill="#c2c3c5"/>
      <path id="Trazado_625289" data-name="Trazado 625289" d="M4,4H35.443V24.438H4Z" transform="translate(-0.642 -0.642)" fill="#fcfcfc"/>
      <path id="Trazado_625290" data-name="Trazado 625290" d="M25,13.287V9.93A3.93,3.93,0,0,1,28.93,6h3.93a1.572,1.572,0,0,1,1.572,1.572,1.572,1.572,0,0,1,1.572,1.572v4.143Z" transform="translate(-5.134 -1.07)" fill="#d6902b"/>
      <path id="Trazado_625291" data-name="Trazado 625291" d="M36.433,9.144a1.572,1.572,0,0,0-1.572-1.572A1.572,1.572,0,0,0,33.289,6h-3.93a3.875,3.875,0,0,0-1.268.228A3.906,3.906,0,0,0,27,8.931a3.357,3.357,0,0,0,3.357,3.357h6.076Z" transform="translate(-5.562 -1.07)" fill="#e2a02c"/>
      <path id="Trazado_625292" data-name="Trazado 625292" d="M36.369,34.866V27.791a4.9,4.9,0,0,0-3.837-4.783l-3.238-.719h-5.5a4.136,4.136,0,0,1-2.751-1.045l-5.267-4.683A2.225,2.225,0,0,0,14.3,16h-.079a2.223,2.223,0,0,0-1.569,3.8l8.782,8.782v6.289Z" transform="translate(-2.353 -3.209)" fill="#e2a02c"/>
      <path id="Trazado_625294" data-name="Trazado 625294" d="M38,30h1.572v7.861H38Z" transform="translate(-7.915 -6.204)" fill="#649240"/>
      <path id="Trazado_625296" data-name="Trazado 625296" d="M31.572,25,30,31.289l1.572,2.358,1.572-2.358Z" transform="translate(-6.204 -5.134)" fill="#dcdddf"/>
      <rect id="Rectángulo_344188" data-name="Rectángulo 344188" width="9" height="11" rx="4.5" transform="translate(11 32.737) rotate(180)" fill="#5a5b5d"/>
      <path id="Trazado_625297" data-name="Trazado 625297" d="M0,0H4.717V2.358A2.358,2.358,0,1,1,0,2.358Z" transform="translate(8.861 41.09) rotate(180)" fill="#307cbd"/>
      <path id="Trazado_625298" data-name="Trazado 625298" d="M9.717,52a1.572,1.572,0,0,0,1.572,1.572h4.717a1.572,1.572,0,1,1,0,3.144H9.717A4.717,4.717,0,0,1,5,52" transform="translate(-0.856 -10.91)" fill="#fee2d6"/>
      <path id="Trazado_625299" data-name="Trazado 625299" d="M11.819,33H6.387v3.144L4.133,38.962a4.717,4.717,0,0,0,7.756-3.6V33.786A4.716,4.716,0,0,0,11.819,33Z" transform="translate(-0.67 -6.845)" fill="#fee2d6"/>
      <path id="Trazado_625300" data-name="Trazado 625300" d="M55.358,46a2.358,2.358,0,0,1,2.358,2.358v2.358H53V48.358A2.358,2.358,0,0,1,55.358,46Z" transform="translate(-11.124 -9.626)" fill="#5d9e39"/>
      <path id="Trazado_625301" data-name="Trazado 625301" d="M50.861,52a1.572,1.572,0,0,1-1.572,1.572H44.572a1.572,1.572,0,0,0,0,3.144h6.289A4.717,4.717,0,0,0,55.577,52" transform="translate(-8.984 -10.91)" fill="#a55e21"/>
      <g id="Grupo_989916" data-name="Grupo 989916" transform="translate(19.08 8.861)">
        <path id="Trazado_625302" data-name="Trazado 625302" d="M34.861,13.358v2.358a3.93,3.93,0,0,1-7.861,0V13.358h2.231A3.449,3.449,0,0,0,32.5,11Z" transform="translate(-24.642 -11)" fill="#e1b2ab"/>
        <path id="Trazado_625303" data-name="Trazado 625303" d="M26.358,15h-.786a1.572,1.572,0,0,0,0,3.144h1.114" transform="translate(-24 -11.856)" fill="#e1b2ab"/>
        <path id="Trazado_625304" data-name="Trazado 625304" d="M36.911,15H37.7a1.572,1.572,0,0,1,0,3.144H36.583" transform="translate(-26.692 -11.856)" fill="#e1b2ab"/>
        <path id="Trazado_625305" data-name="Trazado 625305" d="M29.3,21.21l.549,2.193,1.572.786L33,23.4l.549-2.193" transform="translate(-25.134 -13.184)" fill="#e1b2ab"/>
      </g>
      <path id="Trazado_625306" data-name="Trazado 625306" d="M29.6,22.384l.314,1.27,1.572.786,1.572-.786.314-1.27a3.93,3.93,0,0,1-3.779,0Z" transform="translate(-6.116 -4.574)" fill="#fee2d6"/>
      <path id="Trazado_625307" data-name="Trazado 625307" d="M29.231,14.358H27V15.93a3.93,3.93,0,0,0,7.861,0V14.358L32.5,12A3.449,3.449,0,0,1,29.231,14.358Z" transform="translate(-5.562 -2.353)" fill="#fee2d6"/>
      <g id="Grupo_991545" data-name="Grupo 991545" transform="translate(-6.317 -3.056)">
        <path id="Trazado_679073" data-name="Trazado 679073" d="M130.622,86.2V84.424l-1.155-.382a4.289,4.289,0,0,0-.319-.769l.491-1.033a5.342,5.342,0,0,0-1.255-1.255l-1.033.491a4.333,4.333,0,0,0-.769-.319L126.2,80h-1.774l-.382,1.155-.769.319-1.033-.491a5.335,5.335,0,0,0-1.255,1.255l.491,1.033-.319.769L120,84.424V86.2l1.155.382.319.769-.491,1.033a5.335,5.335,0,0,0,1.255,1.255l1.033-.491.769.319.382,1.156H126.2l.382-1.155a4.288,4.288,0,0,0,.769-.319l1.033.491a5.342,5.342,0,0,0,1.255-1.255l-.491-1.033a4.333,4.333,0,0,0,.319-.769Zm0,0" transform="translate(-109.118 -72.878)" fill="#ff6b6b"/>
        <path id="Trazado_679074" data-name="Trazado 679074" d="M181.665,138.833A2.833,2.833,0,1,1,178.833,136,2.833,2.833,0,0,1,181.665,138.833Zm0,0" transform="translate(-162.64 -126.4)" fill="#ffe35b"/>
        <path id="Trazado_679077" data-name="Trazado 679077" d="M171.187,134.373A3.187,3.187,0,1,0,168,131.187,3.191,3.191,0,0,0,171.187,134.373Zm0-5.665a2.478,2.478,0,1,1-2.479,2.479A2.481,2.481,0,0,1,171.187,128.708Zm0,0" transform="translate(-154.994 -118.754)"/>
        <path id="Trazado_679078" data-name="Trazado 679078" d="M112.243,78.889l1,.332.2.474-.423.891a.355.355,0,0,0,.031.357,5.674,5.674,0,0,0,1.338,1.338.355.355,0,0,0,.357.031l.891-.423.474.2.332,1a.354.354,0,0,0,.336.243h1.775a.354.354,0,0,0,.336-.243l.326-.986a4.674,4.674,0,0,0,.494-.206l.876.416a.352.352,0,0,0,.357-.031,5.669,5.669,0,0,0,1.338-1.339.354.354,0,0,0,.031-.357l-.416-.876a4.707,4.707,0,0,0,.206-.494l.986-.326a.353.353,0,0,0,.243-.336V76.778a.354.354,0,0,0-.243-.336l-.986-.326a4.669,4.669,0,0,0-.206-.494l.416-.876a.355.355,0,0,0-.031-.357,5.675,5.675,0,0,0-1.338-1.338.353.353,0,0,0-.357-.031l-.876.416a4.706,4.706,0,0,0-.494-.206l-.326-.986a.353.353,0,0,0-.336-.243h-1.775a.354.354,0,0,0-.336.243l-.332,1-.474.2-.891-.423a.355.355,0,0,0-.357.031,5.682,5.682,0,0,0-1.339,1.338.354.354,0,0,0-.031.357l.423.891-.2.474-1,.332a.353.353,0,0,0-.243.336v1.774A.354.354,0,0,0,112.243,78.889Zm.465-1.855.912-.3a.354.354,0,0,0,.216-.2l.319-.769a.352.352,0,0,0-.007-.288l-.4-.841a4.97,4.97,0,0,1,.884-.884l.841.4a.357.357,0,0,0,.288.007l.769-.319a.354.354,0,0,0,.2-.216l.3-.913H118.3l.3.912a.354.354,0,0,0,.233.227,3.93,3.93,0,0,1,.706.293.354.354,0,0,0,.318.007l.841-.4a4.969,4.969,0,0,1,.884.884l-.4.841a.353.353,0,0,0,.007.318,3.994,3.994,0,0,1,.293.706.354.354,0,0,0,.227.233l.913.3V78.3l-.912.3a.354.354,0,0,0-.227.233,3.929,3.929,0,0,1-.293.706.353.353,0,0,0-.007.318l.4.841a4.981,4.981,0,0,1-.884.884l-.841-.4a.352.352,0,0,0-.318.007,3.994,3.994,0,0,1-.706.293.354.354,0,0,0-.233.227l-.3.912h-1.263l-.3-.912a.354.354,0,0,0-.2-.216l-.769-.319a.354.354,0,0,0-.288.007l-.841.4a4.979,4.979,0,0,1-.884-.884l.4-.841a.352.352,0,0,0,.007-.288l-.319-.769a.353.353,0,0,0-.216-.2l-.912-.3Zm0,0" transform="translate(-101.472 -65.232)"/>
        <path id="Trazado_679079" data-name="Trazado 679079" d="M232,160h.708v2.124H232Zm0,0" transform="translate(-216.161 -149.337)"/>
        <path id="Trazado_679080" data-name="Trazado 679080" d="M232,224h.708v.708H232Zm0,0" transform="translate(-216.161 -210.505)"/>
      </g>
      <path id="Trazado_625293" data-name="Trazado 625293" d="M32.959,23.045l-3.238-.719h-5.5a4.136,4.136,0,0,1-2.751-1.045L16.2,16.6a2.22,2.22,0,0,0-.721-.425,2.215,2.215,0,0,0-.832,3.659l8.785,8.782V34.9H36.8V27.828a4.9,4.9,0,0,0-3.837-4.783Z" transform="translate(-2.78 -3.246)" fill="#fcc533"/>
      <path id="Trazado_625308" data-name="Trazado 625308" d="M15.772,16.561A2.225,2.225,0,0,0,14.3,16H14.22a2.223,2.223,0,0,0-1.572,3.8l.924.921,3.237-3.237Z" transform="translate(-2.352 -3.209)" fill="#fee2d6"/>
      <path id="Trazado_625310" data-name="Trazado 625310" d="M44.235,21.438a5.509,5.509,0,0,0-5.5,5.5v1.572a5.5,5.5,0,0,0,2.683,4.717,5.5,5.5,0,0,0-2.683,4.717V40.2l-2.386-8.748a.786.786,0,0,0-.759-.579H34.8V26.155h1.572a.786.786,0,0,0,.786-.786V1.786A.786.786,0,0,0,36.374,1H1.786A.786.786,0,0,0,1,1.786V25.369a.773.773,0,0,0,.127.4A5.5,5.5,0,0,0,1,26.941v1.572A5.5,5.5,0,0,0,3.683,33.23,5.5,5.5,0,0,0,1,37.946V48.951a.786.786,0,0,0,.786.786H48.951a.786.786,0,0,0,.786-.786V37.946a5.5,5.5,0,0,0-2.683-4.717,5.5,5.5,0,0,0,2.683-4.717V26.941A5.509,5.509,0,0,0,44.235,21.438ZM42.518,41.876h3.21a3.938,3.938,0,0,1-3.852,3.144H35.588a.786.786,0,0,1,0-1.572H40.3a2.358,2.358,0,0,0,2.214-1.572ZM45.807,40.3H42.663V38.732a1.572,1.572,0,0,1,3.144,0ZM37.56,41.876H35.588a2.358,2.358,0,0,0,0,4.717h3.258l.429,1.572H11.462l.429-1.572H15.15a2.358,2.358,0,1,0,0-4.717H13.177l2.573-9.433H34.987ZM8.075,40.3H4.93V38.732a1.572,1.572,0,0,1,3.144,0Zm.145,1.572a2.358,2.358,0,0,0,2.214,1.572H15.15a.786.786,0,1,1,0,1.572H8.861a3.938,3.938,0,0,1-3.852-3.144Zm3.723-15.722h6.352v4.717H15.15a.786.786,0,0,0-.759.58L12.005,40.2V37.946a5.5,5.5,0,0,0-2.683-4.717,5.5,5.5,0,0,0,2.683-4.717V26.941a5.523,5.523,0,0,0-.063-.786Zm19.715,4.717V23.8H30.085v7.075H19.866v-5.5a.786.786,0,0,0-.23-.556l-7.305-7.305,2.157-2.157,3.681,3.272a4.918,4.918,0,0,0,3.269,1.243h2.173l.842.421-1.415,5.676a.786.786,0,0,0,.108.629l1.572,2.358a.786.786,0,0,0,1.308,0L27.6,26.593a.786.786,0,0,0,.108-.629l-1.415-5.676.759-.38,2.965.66a4.088,4.088,0,0,1,3.214,4.015v6.289Zm-20.8-14.84a1.428,1.428,0,0,1-.421-1.016,1.457,1.457,0,0,1,1.513-1.438,1.434,1.434,0,0,1,.954.363l.41.364L11.219,16.4Zm9.8-3.24v.786a4.717,4.717,0,0,0,.071.786h-.071a.786.786,0,1,1,0-1.572Zm.786-2.358a.786.786,0,0,0-.786.786V8.861A3.144,3.144,0,0,1,23.8,5.717h3.93a.786.786,0,0,1,.786.786.786.786,0,0,0,.786.786.786.786,0,0,1,.786.786v3.144a.786.786,0,0,0-.23-.556L27.5,8.305a.786.786,0,0,0-1.3.307,2.659,2.659,0,0,1-2.526,1.821Zm8.647,3.144v-.786a.786.786,0,1,1,0,1.572h-.071A4.716,4.716,0,0,0,30.085,13.577Zm-7.861-1.572h1.445a4.228,4.228,0,0,0,3.482-1.823l1.362,1.362v2.033a3.144,3.144,0,1,1-6.289,0Zm3.144,6.289a4.679,4.679,0,0,0,.985-.105l-.087.35-.9.449-.9-.449-.087-.35a4.68,4.68,0,0,0,.985.105Zm0,4.813.725,2.9-.725,1.09-.725-1.088ZM2.572,2.572H35.588v22.01H34.8a5.653,5.653,0,0,0-4.452-5.551l-2.45-.544.284-1.137a4.747,4.747,0,0,0,1.264-1.415h.638a2.35,2.35,0,0,0,1.572-4.1V8.075a2.365,2.365,0,0,0-1.674-2.258,2.363,2.363,0,0,0-2.257-1.673H23.8A4.721,4.721,0,0,0,19.08,8.861v2.971a2.35,2.35,0,0,0,1.572,4.1h.638a4.747,4.747,0,0,0,1.264,1.415l.236.943H21.438a3.344,3.344,0,0,1-2.225-.846l-5.267-4.683a3.056,3.056,0,0,0-2.076-.76,3.009,3.009,0,0,0-2.128,5.138l7.44,7.44H11.467A5.489,5.489,0,0,0,2.572,23.1Zm0,25.941V26.941A3.93,3.93,0,0,1,10.1,25.369H5.717a.786.786,0,0,0-.786.786v2.868L3.416,30.917a3.892,3.892,0,0,1-.843-2.4Zm2.044,3.424L6.334,29.79A.786.786,0,0,0,6.5,29.3V26.941h3.93v1.572a3.935,3.935,0,0,1-3.93,3.93,3.879,3.879,0,0,1-1.887-.506ZM2.572,37.946a3.93,3.93,0,0,1,7.861,0v3.93a.786.786,0,0,1-.786-.786V38.732a3.144,3.144,0,1,0-6.289,0V41.09a5.509,5.509,0,0,0,5.5,5.5h1.4l-.428,1.572H2.572Zm45.593,0V48.165H40.9l-.428-1.572h1.4a5.509,5.509,0,0,0,5.5-5.5V38.732a3.144,3.144,0,1,0-6.289,0V41.09a.786.786,0,0,1-.786.786v-3.93a3.93,3.93,0,0,1,7.861,0ZM40.3,28.513V26.941h3.93V29.3a.786.786,0,0,0,.172.491l1.718,2.147a3.878,3.878,0,0,1-1.891.506,3.935,3.935,0,0,1-3.93-3.93Zm7.861,0a3.892,3.892,0,0,1-.843,2.4l-1.515-1.894V26.155a.786.786,0,0,0-.786-.786H40.638a3.93,3.93,0,0,1,7.528,1.572Z" transform="translate(0)"/>
    </g>
  </g>
</svg>
