<svg id="Grupo_991487" data-name="Grupo 991487" xmlns="http://www.w3.org/2000/svg" width="65" height="65" viewBox="0 0 65 65">
  <rect id="Rectángulo_33792" data-name="Rectángulo 33792" width="65" height="65" rx="5" fill="#465fc4"/>
  <g id="Grupo_80313" data-name="Grupo 80313" transform="translate(9.811 7.843)">
    <g id="Grupo_80111" data-name="Grupo 80111" transform="translate(24.464)">
      <path id="Trazado_113526" data-name="Trazado 113526" d="M289.532,1037.3l-17.138-17.138a.856.856,0,0,1,0-1.21h0a.856.856,0,0,1,1.211,0l17.138,17.138a.856.856,0,0,1,0,1.211h0A.857.857,0,0,1,289.532,1037.3Z" transform="translate(-272.143 -1018.7)" fill="#ffc721"/>
    </g>
    <g id="Grupo_80112" data-name="Grupo 80112" transform="translate(32.873 2.294)">
      <path id="Trazado_113527" data-name="Trazado 113527" d="M343.678,1044.286l-6.434-6.434a.857.857,0,0,1,0-1.211h0a.856.856,0,0,1,1.211,0l6.433,6.433a.856.856,0,0,1,0,1.211h0A.856.856,0,0,1,343.678,1044.286Z" transform="translate(-336.993 -1036.39)" fill="#ffc721"/>
    </g>
    <g id="Grupo_80113" data-name="Grupo 80113" transform="translate(18.349)">
      <path id="Trazado_113528" data-name="Trazado 113528" d="M248.493,1043.414l-23.253-23.253a.855.855,0,0,1,0-1.21h0a.856.856,0,0,1,1.211,0L249.7,1042.2a.856.856,0,0,1,0,1.211h0A.856.856,0,0,1,248.493,1043.414Z" transform="translate(-224.989 -1018.7)" fill="#ffc721"/>
    </g>
    <g id="Grupo_80114" data-name="Grupo 80114" transform="translate(13.51 1.276)">
      <path id="Trazado_113529" data-name="Trazado 113529" d="M214.741,1056.815,187.926,1030a.856.856,0,0,1,0-1.211h0a.855.855,0,0,1,1.211,0l26.816,26.816a.856.856,0,0,1,0,1.211h0A.856.856,0,0,1,214.741,1056.815Z" transform="translate(-187.675 -1028.537)" fill="#ffc721"/>
    </g>
    <g id="Grupo_80115" data-name="Grupo 80115" transform="translate(9.488 3.369)">
      <path id="Trazado_113530" data-name="Trazado 113530" d="M185.658,1074.883l-28.744-28.744a.856.856,0,0,1,0-1.211h0a.856.856,0,0,1,1.211,0l28.745,28.745a.856.856,0,0,1,0,1.211h0A.856.856,0,0,1,185.658,1074.883Z" transform="translate(-156.663 -1044.677)" fill="#ffc721"/>
    </g>
    <g id="Grupo_80116" data-name="Grupo 80116" transform="translate(6.119 6.119)">
      <path id="Trazado_113531" data-name="Trazado 113531" d="M160.3,1096.71l-29.363-29.363a.857.857,0,0,1,0-1.211h0a.857.857,0,0,1,1.211,0l29.363,29.364a.857.857,0,0,1,0,1.211h0A.857.857,0,0,1,160.3,1096.71Z" transform="translate(-130.686 -1065.885)" fill="#ffc721"/>
    </g>
    <g id="Grupo_80117" data-name="Grupo 80117" transform="translate(3.369 9.488)">
      <path id="Trazado_113532" data-name="Trazado 113532" d="M138.474,1122.069l-28.745-28.745a.856.856,0,0,1,0-1.21h0a.856.856,0,0,1,1.211,0l28.744,28.744a.856.856,0,0,1,0,1.211h0A.856.856,0,0,1,138.474,1122.069Z" transform="translate(-109.478 -1091.863)" fill="#ffc721"/>
    </g>
    <g id="Grupo_80118" data-name="Grupo 80118" transform="translate(1.276 13.51)">
      <path id="Trazado_113533" data-name="Trazado 113533" d="M120.4,1151.153l-26.816-26.816a.856.856,0,0,1,0-1.211h0a.855.855,0,0,1,1.211,0l26.816,26.816a.856.856,0,0,1,0,1.211h0A.855.855,0,0,1,120.4,1151.153Z" transform="translate(-93.336 -1122.875)" fill="#ffc721"/>
    </g>
    <g id="Grupo_80119" data-name="Grupo 80119" transform="translate(0 18.349)">
      <path id="Trazado_113534" data-name="Trazado 113534" d="M107,1184.9,83.75,1161.651a.855.855,0,0,1,0-1.211h0a.855.855,0,0,1,1.211,0l23.253,23.253a.855.855,0,0,1,0,1.211h0A.856.856,0,0,1,107,1184.9Z" transform="translate(-83.499 -1160.189)" fill="#ffc721"/>
    </g>
    <g id="Grupo_80120" data-name="Grupo 80120" transform="translate(0 24.464)">
      <path id="Trazado_113535" data-name="Trazado 113535" d="M100.888,1225.943,83.75,1208.8a.856.856,0,0,1,0-1.211h0a.856.856,0,0,1,1.211,0l17.138,17.138a.857.857,0,0,1,0,1.211h0A.856.856,0,0,1,100.888,1225.943Z" transform="translate(-83.499 -1207.343)" fill="#ffc721"/>
    </g>
    <g id="Grupo_80121" data-name="Grupo 80121" transform="translate(2.294 32.873)">
      <path id="Trazado_113536" data-name="Trazado 113536" d="M107.875,1280.088l-6.433-6.434a.856.856,0,0,1,0-1.211h0a.857.857,0,0,1,1.211,0l6.434,6.434a.856.856,0,0,1,0,1.211h0A.856.856,0,0,1,107.875,1280.088Z" transform="translate(-101.191 -1272.193)" fill="#ffc721"/>
    </g>
  </g>
  <g id="Elipse_4731" data-name="Elipse 4731" transform="translate(11.766 44.594)" fill="none" stroke="#f9931f" stroke-width="4">
    <ellipse cx="6.563" cy="6.563" rx="6.563" ry="6.563" stroke="none"/>
    <ellipse cx="6.563" cy="6.563" rx="4.563" ry="4.563" fill="none"/>
  </g>
  <g id="plan-de-accion" transform="translate(-35.698 10.781)">
    <path id="Trazado_679139" data-name="Trazado 679139" d="M73.441,35.969h34.712V59.583H73.441Z" transform="translate(-21.599 -32.549)" fill="#f9f6f9"/>
    <path id="Trazado_679140" data-name="Trazado 679140" d="M73.441,267.124h34.712v1.638H73.441Z" transform="translate(-21.599 -241.729)" fill="#dddaec"/>
    <path id="Trazado_679141" data-name="Trazado 679141" d="M73.441,35.969h34.712v1.638H73.441Z" transform="translate(-21.599 -32.549)" fill="#dddaec"/>
    <path id="Trazado_679142" data-name="Trazado 679142" d="M94.656,7.5H57.314a.241.241,0,0,0-.241.241V9.965a.241.241,0,0,0,.241.241H94.656a.241.241,0,0,0,.241-.241V7.741A.241.241,0,0,0,94.656,7.5Z" transform="translate(-6.787 -6.787)" fill="#365e7d"/>
    <path id="Trazado_679143" data-name="Trazado 679143" d="M94.656,284.359H57.314a.241.241,0,0,0-.241.241v2.224a.241.241,0,0,0,.241.241H94.656a.241.241,0,0,0,.241-.241V284.6A.241.241,0,0,0,94.656,284.359Z" transform="translate(-6.787 -257.325)" fill="#365e7d"/>
    <path id="Trazado_679144" data-name="Trazado 679144" d="M434.28,7.5h-1.9a.241.241,0,0,1,.241.241V9.965a.241.241,0,0,1-.241.241h1.9a.241.241,0,0,0,.241-.241V7.741A.241.241,0,0,0,434.28,7.5Z" transform="translate(-346.412 -6.787)" fill="#2b4d66"/>
    <path id="Trazado_679145" data-name="Trazado 679145" d="M434.28,284.359h-1.9a.241.241,0,0,1,.241.241v2.224a.241.241,0,0,1-.241.241h1.9a.241.241,0,0,0,.241-.241V284.6A.241.241,0,0,0,434.28,284.359Z" transform="translate(-346.412 -257.325)" fill="#2b4d66"/>
    <path id="Trazado_679146" data-name="Trazado 679146" d="M177.933,315.913H162.382a1.243,1.243,0,0,1-1.243-1.243v-1.843h18.037v1.843A1.243,1.243,0,0,1,177.933,315.913Z" transform="translate(-100.959 -283.087)" fill="#4a80aa"/>
    <path id="Trazado_679147" data-name="Trazado 679147" d="M315.7,312.827v1.843a1.243,1.243,0,0,1-1.243,1.243h2.218a1.243,1.243,0,0,0,1.243-1.243v-1.843Z" transform="translate(-239.704 -283.087)" fill="#407093"/>
    <g id="Grupo_991548" data-name="Grupo 991548" transform="translate(57.417 32.826)">
      <path id="Trazado_679148" data-name="Trazado 679148" d="M134.5,360.42h-1.7a.712.712,0,0,1-.666-.963l5.341-14.174H140.7l-5.531,14.676A.712.712,0,0,1,134.5,360.42Z" transform="translate(-132.085 -345.283)" fill="#365e7d"/>
      <path id="Trazado_679149" data-name="Trazado 679149" d="M295.523,360.42h1.7a.712.712,0,0,0,.666-.963l-5.341-14.174h-3.225l5.531,14.676A.712.712,0,0,0,295.523,360.42Z" transform="translate(-274.377 -345.283)" fill="#365e7d"/>
      <path id="Trazado_679150" data-name="Trazado 679150" d="M241.352,358.385h-1.673a.69.69,0,0,1-.69-.69V345.283h3.053v12.411A.691.691,0,0,1,241.352,358.385Z" transform="translate(-228.826 -345.283)" fill="#365e7d"/>
    </g>
    <path id="Trazado_679151" data-name="Trazado 679151" d="M182.641,346.826h3.225l.581-1.543h-3.224Z" transform="translate(-120.417 -312.457)" fill="#2b4d66"/>
    <path id="Trazado_679152" data-name="Trazado 679152" d="M292.551,345.283h-3.225l.581,1.543h3.224Z" transform="translate(-216.96 -312.457)" fill="#2b4d66"/>
    <path id="Trazado_679153" data-name="Trazado 679153" d="M238.989,345.283h3.053v1.543h-3.053Z" transform="translate(-171.408 -312.457)" fill="#2b4d66"/>
    <g id="Grupo_991552" data-name="Grupo 991552" transform="translate(63.976 6.068)">
      <g id="Grupo_991549" data-name="Grupo 991549" transform="translate(0)">
        <path id="Trazado_679154" data-name="Trazado 679154" d="M210.759,68.386h-8.936a.754.754,0,0,1-.754-.754V64.579a.754.754,0,0,1,.754-.754h8.936a.754.754,0,0,1,.754.754v3.052A.754.754,0,0,1,210.759,68.386Z" transform="translate(-201.069 -63.825)" fill="#dd636e"/>
        <path id="Trazado_679155" data-name="Trazado 679155" d="M281.884,63.825h-2.157a.762.762,0,0,1,.809.7v3.155a.762.762,0,0,1-.809.7h2.157a.762.762,0,0,0,.809-.7V64.528A.762.762,0,0,0,281.884,63.825Z" transform="translate(-272.249 -63.825)" fill="#da4a54"/>
      </g>
      <g id="Grupo_991550" data-name="Grupo 991550" transform="translate(0 6.878)">
        <path id="Trazado_679156" data-name="Trazado 679156" d="M210.759,140.736h-8.936a.754.754,0,0,1-.754-.754v-3.052a.754.754,0,0,1,.754-.754h8.936a.754.754,0,0,1,.754.754v3.052A.755.755,0,0,1,210.759,140.736Z" transform="translate(-201.069 -136.175)" fill="#dd636e"/>
        <path id="Trazado_679157" data-name="Trazado 679157" d="M281.884,136.176h-2.157a.762.762,0,0,1,.809.7v3.155a.762.762,0,0,1-.809.7h2.157a.762.762,0,0,0,.809-.7v-3.155A.762.762,0,0,0,281.884,136.176Z" transform="translate(-272.249 -136.176)" fill="#da4a54"/>
      </g>
      <g id="Grupo_991551" data-name="Grupo 991551" transform="translate(0 13.757)">
        <path id="Trazado_679158" data-name="Trazado 679158" d="M210.759,213.086h-8.936a.754.754,0,0,1-.754-.754v-3.052a.754.754,0,0,1,.754-.754h8.936a.754.754,0,0,1,.754.754v3.052A.754.754,0,0,1,210.759,213.086Z" transform="translate(-201.069 -208.525)" fill="#dd636e"/>
        <path id="Trazado_679159" data-name="Trazado 679159" d="M281.884,208.526h-2.157a.762.762,0,0,1,.809.7v3.155a.762.762,0,0,1-.809.7h2.157a.762.762,0,0,0,.809-.7v-3.155A.762.762,0,0,0,281.884,208.526Z" transform="translate(-272.249 -208.526)" fill="#da4a54"/>
      </g>
    </g>
    <g id="Grupo_991553" data-name="Grupo 991553" transform="translate(49.573 0)">
      <path id="Trazado_679160" data-name="Trazado 679160" d="M86.554,21.585a.713.713,0,0,0,.713-.713V4.133h.6a.955.955,0,0,0,.954-.954V.954A.955.955,0,0,0,87.869,0H57.911a.713.713,0,0,0,0,1.426H87.4v1.28H51V1.426h4.061a.713.713,0,0,0,0-1.426H50.527a.955.955,0,0,0-.954.954V3.178a.955.955,0,0,0,.954.954h.6V26.321h-.6a.955.955,0,0,0-.954.954V29.5a.955.955,0,0,0,.954.954h8.939v1.13a1.958,1.958,0,0,0,1.956,1.956h.352L59.45,39.707a.713.713,0,0,0,1.334.5L63.3,33.539H65L59.833,47.25l-1.7,0,1.579-4.19a.713.713,0,1,0-1.334-.5L56.8,46.749a1.425,1.425,0,0,0,1.333,1.927h1.7a1.432,1.432,0,0,0,1.333-.922l5.357-14.214h.345v11.7a1.405,1.405,0,0,0,1.4,1.4h1.673a1.405,1.405,0,0,0,1.4-1.4v-11.7h.526L77.23,47.753a1.432,1.432,0,0,0,1.333.922h1.7A1.425,1.425,0,0,0,81.6,46.748L76.621,33.539h.352a1.958,1.958,0,0,0,1.956-1.956v-1.13h8.939a.955.955,0,0,0,.954-.954V27.275a.955.955,0,0,0-.954-.954h-.6v-2.6a.713.713,0,1,0-1.426,0v2.6H52.555V4.133H85.841v16.74a.713.713,0,0,0,.713.713ZM69.921,45.215H68.294V33.539h1.627ZM80.266,47.25h-1.7L73.4,33.539h1.7ZM77.5,31.583a.531.531,0,0,1-.53.53H61.422a.531.531,0,0,1-.53-.53v-1.13H77.5ZM87.4,27.747v1.28H51v-1.28Z" transform="translate(-49.573 0)"/>
      <path id="Trazado_679161" data-name="Trazado 679161" d="M205.439,57.792a1.469,1.469,0,0,0-1.467-1.467h-8.936a1.469,1.469,0,0,0-1.467,1.467v3.052a1.469,1.469,0,0,0,1.467,1.467h8.936a1.469,1.469,0,0,0,1.467-1.467Zm-1.426,3.052a.041.041,0,0,1-.041.041h-8.936a.041.041,0,0,1-.041-.041V57.792a.041.041,0,0,1,.041-.041h8.936a.041.041,0,0,1,.041.041Z" transform="translate(-179.879 -50.97)"/>
      <path id="Trazado_679162" data-name="Trazado 679162" d="M205.439,130.142a1.469,1.469,0,0,0-1.467-1.467h-8.936a1.469,1.469,0,0,0-1.467,1.467v3.052a1.469,1.469,0,0,0,1.467,1.467h8.936a1.469,1.469,0,0,0,1.467-1.467Zm-1.426,3.052a.041.041,0,0,1-.041.041h-8.936a.041.041,0,0,1-.041-.041v-3.052a.041.041,0,0,1,.041-.041h8.936a.041.041,0,0,1,.041.041Z" transform="translate(-179.879 -116.442)"/>
      <path id="Trazado_679163" data-name="Trazado 679163" d="M203.973,201.026h-8.936a1.469,1.469,0,0,0-1.467,1.467v3.052a1.469,1.469,0,0,0,1.467,1.467h8.936a1.469,1.469,0,0,0,1.467-1.467v-3.052A1.469,1.469,0,0,0,203.973,201.026Zm.041,4.52a.041.041,0,0,1-.041.041h-8.936a.041.041,0,0,1-.041-.041v-3.052a.041.041,0,0,1,.041-.041h8.936a.041.041,0,0,1,.041.041Z" transform="translate(-179.88 -181.915)"/>
      <path id="Trazado_679164" data-name="Trazado 679164" d="M127.407,96.617a.713.713,0,0,0,1-.094l1.064-1.285a.713.713,0,0,0,0-.91l-1.064-1.285a.713.713,0,1,0-1.1.91l.1.117h-2.236V81.739h3.22a.713.713,0,1,0,0-1.426h-3.321a1.326,1.326,0,0,0-1.325,1.325V94.171a1.326,1.326,0,0,0,1.325,1.325h2.337l-.1.117A.713.713,0,0,0,127.407,96.617Z" transform="translate(-116.696 -72.678)"/>
      <path id="Trazado_679165" data-name="Trazado 679165" d="M327.527,85.354a.713.713,0,0,0,0,1.426h3.321a1.326,1.326,0,0,0,1.325-1.325V72.922a1.326,1.326,0,0,0-1.325-1.325h-2.337l.1-.117a.713.713,0,1,0-1.1-.91l-1.064,1.285a.713.713,0,0,0,0,.91l1.064,1.285a.713.713,0,0,0,1.1-.91l-.1-.117h2.236V85.354Z" transform="translate(-299.976 -63.627)"/>
    </g>
  </g>
</svg>
