<svg xmlns="http://www.w3.org/2000/svg" width="65" height="65" viewBox="0 0 65 65">
  <g id="Grupo_991979" data-name="Grupo 991979" transform="translate(-828 -3793)">
    <rect id="Rectángulo_33792" data-name="Rectángulo 33792" width="65" height="65" rx="5" transform="translate(828 3793)" fill="#465fc4"/>
    <g id="Grupo_989915" data-name="Grupo 989915" transform="translate(838 3801)">
      <g id="Grupo_989914" data-name="Grupo 989914">
        <g id="Grupo_80111" data-name="Grupo 80111" transform="translate(24.464)">
          <path id="Trazado_113526" data-name="Trazado 113526" d="M289.532,1037.3l-17.138-17.138a.856.856,0,0,1,0-1.21h0a.856.856,0,0,1,1.211,0l17.138,17.138a.856.856,0,0,1,0,1.211h0A.857.857,0,0,1,289.532,1037.3Z" transform="translate(-272.143 -1018.7)" fill="#ffc721"/>
        </g>
        <g id="Grupo_80112" data-name="Grupo 80112" transform="translate(32.873 2.294)">
          <path id="Trazado_113527" data-name="Trazado 113527" d="M343.678,1044.286l-6.434-6.434a.857.857,0,0,1,0-1.211h0a.856.856,0,0,1,1.211,0l6.433,6.433a.856.856,0,0,1,0,1.211h0A.856.856,0,0,1,343.678,1044.286Z" transform="translate(-336.993 -1036.39)" fill="#ffc721"/>
        </g>
        <g id="Grupo_80113" data-name="Grupo 80113" transform="translate(18.349)">
          <path id="Trazado_113528" data-name="Trazado 113528" d="M248.493,1043.414l-23.253-23.253a.855.855,0,0,1,0-1.21h0a.856.856,0,0,1,1.211,0L249.7,1042.2a.856.856,0,0,1,0,1.211h0A.856.856,0,0,1,248.493,1043.414Z" transform="translate(-224.989 -1018.7)" fill="#ffc721"/>
        </g>
        <g id="Grupo_80114" data-name="Grupo 80114" transform="translate(13.51 1.276)">
          <path id="Trazado_113529" data-name="Trazado 113529" d="M214.741,1056.815,187.926,1030a.856.856,0,0,1,0-1.211h0a.855.855,0,0,1,1.211,0l26.816,26.816a.856.856,0,0,1,0,1.211h0A.856.856,0,0,1,214.741,1056.815Z" transform="translate(-187.675 -1028.537)" fill="#ffc721"/>
        </g>
        <g id="Grupo_80115" data-name="Grupo 80115" transform="translate(9.488 3.369)">
          <path id="Trazado_113530" data-name="Trazado 113530" d="M185.658,1074.883l-28.744-28.744a.856.856,0,0,1,0-1.211h0a.856.856,0,0,1,1.211,0l28.745,28.745a.856.856,0,0,1,0,1.211h0A.856.856,0,0,1,185.658,1074.883Z" transform="translate(-156.663 -1044.677)" fill="#ffc721"/>
        </g>
        <g id="Grupo_80116" data-name="Grupo 80116" transform="translate(6.119 6.119)">
          <path id="Trazado_113531" data-name="Trazado 113531" d="M160.3,1096.71l-29.363-29.363a.857.857,0,0,1,0-1.211h0a.857.857,0,0,1,1.211,0l29.363,29.364a.857.857,0,0,1,0,1.211h0A.857.857,0,0,1,160.3,1096.71Z" transform="translate(-130.686 -1065.885)" fill="#ffc721"/>
        </g>
        <g id="Grupo_80117" data-name="Grupo 80117" transform="translate(3.369 9.488)">
          <path id="Trazado_113532" data-name="Trazado 113532" d="M138.474,1122.069l-28.745-28.745a.856.856,0,0,1,0-1.21h0a.856.856,0,0,1,1.211,0l28.744,28.744a.856.856,0,0,1,0,1.211h0A.856.856,0,0,1,138.474,1122.069Z" transform="translate(-109.478 -1091.863)" fill="#ffc721"/>
        </g>
        <g id="Grupo_80118" data-name="Grupo 80118" transform="translate(1.276 13.51)">
          <path id="Trazado_113533" data-name="Trazado 113533" d="M120.4,1151.153l-26.816-26.816a.856.856,0,0,1,0-1.211h0a.855.855,0,0,1,1.211,0l26.816,26.816a.856.856,0,0,1,0,1.211h0A.855.855,0,0,1,120.4,1151.153Z" transform="translate(-93.336 -1122.875)" fill="#ffc721"/>
        </g>
        <g id="Grupo_80119" data-name="Grupo 80119" transform="translate(0 18.349)">
          <path id="Trazado_113534" data-name="Trazado 113534" d="M107,1184.9,83.75,1161.651a.855.855,0,0,1,0-1.211h0a.855.855,0,0,1,1.211,0l23.253,23.253a.855.855,0,0,1,0,1.211h0A.856.856,0,0,1,107,1184.9Z" transform="translate(-83.499 -1160.189)" fill="#ffc721"/>
        </g>
        <g id="Grupo_80120" data-name="Grupo 80120" transform="translate(0 24.464)">
          <path id="Trazado_113535" data-name="Trazado 113535" d="M100.888,1225.943,83.75,1208.8a.856.856,0,0,1,0-1.211h0a.856.856,0,0,1,1.211,0l17.138,17.138a.857.857,0,0,1,0,1.211h0A.856.856,0,0,1,100.888,1225.943Z" transform="translate(-83.499 -1207.343)" fill="#ffc721"/>
        </g>
        <g id="Grupo_80121" data-name="Grupo 80121" transform="translate(2.294 32.873)">
          <path id="Trazado_113536" data-name="Trazado 113536" d="M107.875,1280.088l-6.433-6.434a.856.856,0,0,1,0-1.211h0a.857.857,0,0,1,1.211,0l6.434,6.434a.856.856,0,0,1,0,1.211h0A.856.856,0,0,1,107.875,1280.088Z" transform="translate(-101.191 -1272.193)" fill="#ffc721"/>
        </g>
      </g>
      <g id="Elipse_4988" data-name="Elipse 4988" transform="translate(1.956 36.751)" fill="none" stroke="#f9931f" stroke-width="4">
        <ellipse cx="6.563" cy="6.563" rx="6.563" ry="6.563" stroke="none"/>
        <ellipse cx="6.563" cy="6.563" rx="4.563" ry="4.563" fill="none"/>
      </g>
      <g id="identificar" transform="translate(1.296 2.38)">
        <path id="Trazado_679069" data-name="Trazado 679069" d="M192,385.922h9.023v4.331H192Zm0,0" transform="translate(-173.953 -349.648)" fill="#5eaee6"/>
        <path id="Trazado_679070" data-name="Trazado 679070" d="M208,432h6.016v3.76H208Zm0,0" transform="translate(-188.449 -391.395)" fill="#398ecc"/>
        <path id="Trazado_679071" data-name="Trazado 679071" d="M84.094,26.047A18.047,18.047,0,1,1,66.047,8,18.047,18.047,0,0,1,84.094,26.047Zm0,0" transform="translate(-43.488 -7.248)" fill="#e6e9ed"/>
        <path id="Trazado_679072" data-name="Trazado 679072" d="M110.078,55.039A15.039,15.039,0,1,1,95.039,40,15.039,15.039,0,0,1,110.078,55.039Zm0,0" transform="translate(-72.48 -36.24)" fill="#7fbbe6"/>
        <path id="Trazado_679075" data-name="Trazado 679075" d="M53.535,36.842v3.763a.752.752,0,0,0,.752.752h.752v3.008a.752.752,0,0,0,.752.752h6.016a.752.752,0,0,0,.752-.752V41.357h.752a.752.752,0,0,0,.752-.752V36.842a18.8,18.8,0,1,0-10.527,0Zm7.52,6.771H56.543V41.357h4.512Zm1.5-3.76h-7.52V37.219a18.878,18.878,0,0,0,7.52,0ZM58.8,1.5A17.295,17.295,0,1,1,41.5,18.8,17.315,17.315,0,0,1,58.8,1.5Zm0,0" transform="translate(-36.24)"/>
        <path id="Trazado_679076" data-name="Trazado 679076" d="M87.791,63.582A15.791,15.791,0,1,0,72,47.791,15.808,15.808,0,0,0,87.791,63.582Zm0-30.078A14.287,14.287,0,1,1,73.5,47.791,14.3,14.3,0,0,1,87.791,33.5Zm0,0" transform="translate(-65.232 -28.992)"/>
        <g id="Grupo_991544" data-name="Grupo 991544">
          <path id="Trazado_679073" data-name="Trazado 679073" d="M142.558,93.164V89.4l-2.454-.812a9.107,9.107,0,0,0-.678-1.633l1.042-2.194A11.345,11.345,0,0,0,137.8,82.09l-2.194,1.042a9.2,9.2,0,0,0-1.633-.678L133.163,80H129.4l-.812,2.454-1.633.678-2.194-1.042a11.331,11.331,0,0,0-2.666,2.666l1.042,2.194-.678,1.633L120,89.4v3.768l2.454.812.678,1.633L122.089,97.8a11.33,11.33,0,0,0,2.666,2.666l2.194-1.042,1.633.678.812,2.454h3.768l.812-2.454a9.106,9.106,0,0,0,1.633-.678l2.194,1.042a11.345,11.345,0,0,0,2.666-2.666l-1.042-2.194a9.2,9.2,0,0,0,.678-1.633Zm0,0" transform="translate(-108.72 -72.48)" fill="#ff6b6b"/>
          <path id="Trazado_679074" data-name="Trazado 679074" d="M188.031,142.016A6.016,6.016,0,1,1,182.016,136,6.015,6.015,0,0,1,188.031,142.016Zm0,0" transform="translate(-159.457 -123.217)" fill="#ffe35b"/>
          <path id="Trazado_679077" data-name="Trazado 679077" d="M174.768,141.535A6.768,6.768,0,1,0,168,134.768,6.776,6.776,0,0,0,174.768,141.535Zm0-12.031a5.264,5.264,0,1,1-5.264,5.264A5.27,5.27,0,0,1,174.768,129.5Zm0,0" transform="translate(-152.209 -115.969)"/>
          <path id="Trazado_679078" data-name="Trazado 679078" d="M112.516,86.63l2.127.7.418,1.007-.9,1.892a.754.754,0,0,0,.066.759,12.05,12.05,0,0,0,2.843,2.843.754.754,0,0,0,.758.066l1.893-.9,1.007.418.7,2.127a.751.751,0,0,0,.714.516h3.769a.751.751,0,0,0,.714-.516l.693-2.094a9.923,9.923,0,0,0,1.05-.437l1.861.883a.748.748,0,0,0,.759-.066,12.04,12.04,0,0,0,2.843-2.843.752.752,0,0,0,.066-.759l-.883-1.86a10,10,0,0,0,.437-1.05l2.094-.693a.751.751,0,0,0,.515-.714V82.147a.751.751,0,0,0-.516-.714l-2.094-.693a9.913,9.913,0,0,0-.437-1.05l.883-1.861a.754.754,0,0,0-.066-.759,12.051,12.051,0,0,0-2.843-2.843.749.749,0,0,0-.759-.066l-1.861.883a10,10,0,0,0-1.05-.437l-.693-2.094a.75.75,0,0,0-.713-.515h-3.769a.751.751,0,0,0-.714.516l-.7,2.127-1.007.418-1.892-.9a.754.754,0,0,0-.759.066,12.067,12.067,0,0,0-2.843,2.843.752.752,0,0,0-.066.759l.9,1.893-.418,1.007-2.127.7a.75.75,0,0,0-.515.713v3.768a.752.752,0,0,0,.516.715Zm.988-3.94,1.938-.641a.751.751,0,0,0,.458-.426l.678-1.633a.748.748,0,0,0-.015-.611l-.848-1.786a10.553,10.553,0,0,1,1.878-1.878l1.786.848a.759.759,0,0,0,.611.016l1.633-.677a.751.751,0,0,0,.426-.458l.641-1.939h2.683l.641,1.938a.752.752,0,0,0,.494.483,8.345,8.345,0,0,1,1.5.622.753.753,0,0,0,.676.016l1.786-.848a10.552,10.552,0,0,1,1.878,1.878l-.848,1.786a.751.751,0,0,0,.016.676,8.481,8.481,0,0,1,.622,1.5.752.752,0,0,0,.483.494l1.939.641v2.683l-1.938.642a.752.752,0,0,0-.483.494,8.344,8.344,0,0,1-.622,1.5.751.751,0,0,0-.016.676l.848,1.786a10.578,10.578,0,0,1-1.878,1.878l-1.786-.848a.748.748,0,0,0-.676.016,8.482,8.482,0,0,1-1.5.622.752.752,0,0,0-.494.483l-.641,1.938H122.69l-.641-1.938a.751.751,0,0,0-.426-.458l-1.633-.678a.751.751,0,0,0-.611.015l-1.787.848a10.573,10.573,0,0,1-1.878-1.878l.848-1.786a.748.748,0,0,0,.015-.611l-.678-1.633a.749.749,0,0,0-.458-.426l-1.938-.643Zm0,0" transform="translate(-101.472 -65.232)"/>
          <path id="Trazado_679079" data-name="Trazado 679079" d="M232,160h1.5v4.512H232Zm0,0" transform="translate(-210.193 -144.961)"/>
          <path id="Trazado_679080" data-name="Trazado 679080" d="M232,224h1.5v1.5H232Zm0,0" transform="translate(-210.193 -202.945)"/>
        </g>
        <path id="Trazado_679081" data-name="Trazado 679081" d="M448,432h1.5v1.5H448Zm0,0" transform="translate(-405.891 -391.395)"/>
        <path id="Trazado_679082" data-name="Trazado 679082" d="M448,464h1.5v1.5H448Zm0,0" transform="translate(-405.891 -420.387)"/>
        <path id="Trazado_679083" data-name="Trazado 679083" d="M464,448h1.5v1.5H464Zm0,0" transform="translate(-420.387 -405.891)"/>
        <path id="Trazado_679084" data-name="Trazado 679084" d="M432,448h1.5v1.5H432Zm0,0" transform="translate(-391.395 -405.891)"/>
        <path id="Trazado_679085" data-name="Trazado 679085" d="M16,432h1.5v1.5H16Zm0,0" transform="translate(-14.496 -391.395)"/>
        <path id="Trazado_679086" data-name="Trazado 679086" d="M16,464h1.5v1.5H16Zm0,0" transform="translate(-14.496 -420.387)"/>
        <path id="Trazado_679087" data-name="Trazado 679087" d="M32,448h1.5v1.5H32Zm0,0" transform="translate(-28.992 -405.891)"/>
        <path id="Trazado_679088" data-name="Trazado 679088" d="M0,448H1.5v1.5H0Zm0,0" transform="translate(0 -405.891)"/>
        <path id="Trazado_679089" data-name="Trazado 679089" d="M16,0h1.5V1.5H16Zm0,0" transform="translate(-14.496)"/>
        <path id="Trazado_679090" data-name="Trazado 679090" d="M16,32h1.5v1.5H16Zm0,0" transform="translate(-14.496 -28.992)"/>
        <path id="Trazado_679091" data-name="Trazado 679091" d="M32,16h1.5v1.5H32Zm0,0" transform="translate(-28.992 -14.496)"/>
        <path id="Trazado_679092" data-name="Trazado 679092" d="M0,16H1.5v1.5H0Zm0,0" transform="translate(0 -14.496)"/>
        <path id="Trazado_679093" data-name="Trazado 679093" d="M448,0h1.5V1.5H448Zm0,0" transform="translate(-405.891)"/>
        <path id="Trazado_679094" data-name="Trazado 679094" d="M448,32h1.5v1.5H448Zm0,0" transform="translate(-405.891 -28.992)"/>
        <path id="Trazado_679095" data-name="Trazado 679095" d="M464,16h1.5v1.5H464Zm0,0" transform="translate(-420.387 -14.496)"/>
        <path id="Trazado_679096" data-name="Trazado 679096" d="M432,16h1.5v1.5H432Zm0,0" transform="translate(-391.395 -14.496)"/>
      </g>
    </g>
  </g>
</svg>
