<svg xmlns="http://www.w3.org/2000/svg" width="85" height="85" viewBox="0 0 85 85">
  <g id="Grupo_990177" data-name="Grupo 990177" transform="translate(-180 -6763)">
    <rect id="Rectángulo_33792" data-name="Rectángulo 33792" width="85" height="85" rx="5" transform="translate(180 6763)" fill="#8299f7"/>
    <g id="Grupo_80313" data-name="Grupo 80313" transform="translate(187.443 6777.179)">
      <g id="Grupo_80111" data-name="Grupo 80111" transform="translate(31.991)">
        <path id="Trazado_113526" data-name="Trazado 113526" d="M294.882,1043.023l-22.411-22.412a1.119,1.119,0,0,1,0-1.583h0a1.12,1.12,0,0,1,1.584,0l22.411,22.411a1.119,1.119,0,0,1,0,1.584h0A1.12,1.12,0,0,1,294.882,1043.023Z" transform="translate(-272.143 -1018.7)" fill="#465fc4"/>
      </g>
      <g id="Grupo_80112" data-name="Grupo 80112" transform="translate(42.988 3)">
        <path id="Trazado_113527" data-name="Trazado 113527" d="M345.734,1046.715l-8.414-8.414a1.12,1.12,0,0,1,0-1.583h0a1.119,1.119,0,0,1,1.584,0l8.413,8.413a1.119,1.119,0,0,1,0,1.584h0A1.119,1.119,0,0,1,345.734,1046.715Z" transform="translate(-336.993 -1036.39)" fill="#465fc4"/>
      </g>
      <g id="Grupo_80113" data-name="Grupo 80113" transform="translate(23.994)">
        <path id="Trazado_113528" data-name="Trazado 113528" d="M255.724,1051.018l-30.407-30.407a1.118,1.118,0,0,1,0-1.583h0a1.119,1.119,0,0,1,1.583,0l30.407,30.407a1.119,1.119,0,0,1,0,1.583h0A1.119,1.119,0,0,1,255.724,1051.018Z" transform="translate(-224.989 -1018.7)" fill="#465fc4"/>
      </g>
      <g id="Grupo_80114" data-name="Grupo 80114" transform="translate(17.667 1.668)">
        <path id="Trazado_113529" data-name="Trazado 113529" d="M223.07,1065.515,188,1030.449a1.119,1.119,0,0,1,0-1.583h0a1.118,1.118,0,0,1,1.583,0l35.067,35.067a1.12,1.12,0,0,1,0,1.583h0A1.119,1.119,0,0,1,223.07,1065.515Z" transform="translate(-187.675 -1028.537)" fill="#465fc4"/>
      </g>
      <g id="Grupo_80115" data-name="Grupo 80115" transform="translate(12.407 4.405)">
        <path id="Trazado_113530" data-name="Trazado 113530" d="M194.58,1084.177l-37.589-37.589a1.12,1.12,0,0,1,0-1.584h0a1.12,1.12,0,0,1,1.583,0l37.589,37.59a1.12,1.12,0,0,1,0,1.583h0A1.119,1.119,0,0,1,194.58,1084.177Z" transform="translate(-156.663 -1044.677)" fill="#465fc4"/>
      </g>
      <g id="Grupo_80116" data-name="Grupo 80116" transform="translate(8.002 8.002)">
        <path id="Trazado_113531" data-name="Trazado 113531" d="M169.412,1106.195l-38.4-38.4a1.121,1.121,0,0,1,0-1.584h0a1.12,1.12,0,0,1,1.584,0l38.4,38.4a1.121,1.121,0,0,1,0,1.584h0A1.121,1.121,0,0,1,169.412,1106.195Z" transform="translate(-130.686 -1065.885)" fill="#465fc4"/>
      </g>
      <g id="Grupo_80117" data-name="Grupo 80117" transform="translate(4.406 12.407)">
        <path id="Trazado_113532" data-name="Trazado 113532" d="M147.4,1131.364l-37.589-37.589a1.12,1.12,0,0,1,0-1.583h0a1.119,1.119,0,0,1,1.584,0l37.589,37.589a1.119,1.119,0,0,1,0,1.584h0A1.12,1.12,0,0,1,147.4,1131.364Z" transform="translate(-109.478 -1091.863)" fill="#465fc4"/>
      </g>
      <g id="Grupo_80118" data-name="Grupo 80118" transform="translate(1.668 17.666)">
        <path id="Trazado_113533" data-name="Trazado 113533" d="M128.731,1159.854l-35.067-35.067a1.119,1.119,0,0,1,0-1.583h0a1.118,1.118,0,0,1,1.583,0l35.067,35.066a1.12,1.12,0,0,1,0,1.584h0A1.118,1.118,0,0,1,128.731,1159.854Z" transform="translate(-93.336 -1122.875)" fill="#465fc4"/>
      </g>
      <g id="Grupo_80119" data-name="Grupo 80119" transform="translate(0 23.994)">
        <path id="Trazado_113534" data-name="Trazado 113534" d="M114.235,1192.508,83.827,1162.1a1.119,1.119,0,0,1,0-1.583h0a1.118,1.118,0,0,1,1.583,0l30.408,30.408a1.119,1.119,0,0,1,0,1.583h0A1.119,1.119,0,0,1,114.235,1192.508Z" transform="translate(-83.499 -1160.189)" fill="#465fc4"/>
      </g>
      <g id="Grupo_80120" data-name="Grupo 80120" transform="translate(0 31.991)">
        <path id="Trazado_113535" data-name="Trazado 113535" d="M106.238,1231.665l-22.411-22.411a1.119,1.119,0,0,1,0-1.584h0a1.119,1.119,0,0,1,1.583,0l22.411,22.411a1.12,1.12,0,0,1,0,1.583h0A1.12,1.12,0,0,1,106.238,1231.665Z" transform="translate(-83.499 -1207.343)" fill="#465fc4"/>
      </g>
      <g id="Grupo_80121" data-name="Grupo 80121" transform="translate(3 42.988)">
        <path id="Trazado_113536" data-name="Trazado 113536" d="M109.932,1282.517l-8.413-8.413a1.12,1.12,0,0,1,0-1.584h0a1.12,1.12,0,0,1,1.583,0l8.414,8.414a1.12,1.12,0,0,1,0,1.583h0A1.119,1.119,0,0,1,109.932,1282.517Z" transform="translate(-101.191 -1272.193)" fill="#465fc4"/>
      </g>
    </g>
    <g id="Elipse_4731" data-name="Elipse 4731" transform="translate(235.834 6819.238)" fill="none" stroke="#ffc721" stroke-width="4">
      <ellipse cx="8.583" cy="8.583" rx="8.583" ry="8.583" stroke="none"/>
      <ellipse cx="8.583" cy="8.583" rx="6.583" ry="6.583" fill="none"/>
    </g>
    <g id="Implementation-Document-List-File-Check_list" data-name="Implementation-Document-List-File-Check list" transform="translate(190 6776)">
      <path id="Trazado_676871" data-name="Trazado 676871" d="M45,3l9,10H47a2.006,2.006,0,0,1-2-2Z" fill="#bcbec0"/>
      <path id="Trazado_676872" data-name="Trazado 676872" d="M54,13V57a4,4,0,0,1-4,4H12a4,4,0,0,1-4-4V7a4,4,0,0,1,4-4H45v8a2.006,2.006,0,0,0,2,2Z" fill="#e6e7e8"/>
      <g id="Grupo_990178" data-name="Grupo 990178">
        <path id="Trazado_676873" data-name="Trazado 676873" d="M34,47a3.995,3.995,0,1,0,2.83,1.17A3.995,3.995,0,0,0,34,47Z" fill="#d8d7da"/>
        <path id="Trazado_676874" data-name="Trazado 676874" d="M34,35a3.995,3.995,0,1,0,2.83,1.17A3.995,3.995,0,0,0,34,35Z" fill="#d8d7da"/>
        <path id="Trazado_676875" data-name="Trazado 676875" d="M34,31a4,4,0,1,0-4-4,4,4,0,0,0,4,4Z" fill="#d8d7da"/>
        <path id="Trazado_676876" data-name="Trazado 676876" d="M16,29V46l1.78,4L20,55l2.22-5L24,46V23H16Z" fill="#d8d7da"/>
      </g>
      <path id="Trazado_676877" data-name="Trazado 676877" d="M34.83,46.17A4.008,4.008,0,1,1,32,45a4.008,4.008,0,0,1,2.83,1.17Z" fill="#ffd422"/>
      <path id="Trazado_676878" data-name="Trazado 676878" d="M34.83,34.17A4.008,4.008,0,1,1,32,33,4.008,4.008,0,0,1,34.83,34.17Z" fill="#ffd422"/>
      <path id="Trazado_676879" data-name="Trazado 676879" d="M34.83,22.17A4.008,4.008,0,1,1,32,21,4.008,4.008,0,0,1,34.83,22.17Z" fill="#ffd422"/>
      <path id="Trazado_676880" data-name="Trazado 676880" d="M20.22,48,18,53l-2.22-5Z" fill="#898890"/>
      <path id="Trazado_676881" data-name="Trazado 676881" d="M22,44l-1.78,4H15.78L14,44h8Z" fill="#d1d3d4"/>
      <path id="Trazado_676882" data-name="Trazado 676882" d="M22,21v6H14V21Z" fill="#d1d3d4"/>
      <path id="Trazado_676883" data-name="Trazado 676883" d="M18,27h4V44H18Z" fill="#00b39d"/>
      <path id="Trazado_676884" data-name="Trazado 676884" d="M14,27h4V44H14Z" fill="#00ccb3"/>
      <path id="Trazado_676885" data-name="Trazado 676885" d="M32,22V20a5,5,0,1,0,5,5H35a3,3,0,1,1-3-3Z"/>
      <path id="Trazado_676886" data-name="Trazado 676886" d="M29.757,22h8.485v2H29.757Z" transform="translate(-6.305 30.778) rotate(-45)"/>
      <path id="Trazado_676887" data-name="Trazado 676887" d="M41,22h8v2H41Z"/>
      <path id="Trazado_676888" data-name="Trazado 676888" d="M41,26h8v2H41Z"/>
      <path id="Trazado_676889" data-name="Trazado 676889" d="M32,42a5.006,5.006,0,0,0,5-5H35a3,3,0,1,1-3-3V32a5,5,0,0,0,0,10Z"/>
      <path id="Trazado_676890" data-name="Trazado 676890" d="M29.757,34h8.485v2H29.757Z" transform="translate(-14.79 34.293) rotate(-45)"/>
      <path id="Trazado_676891" data-name="Trazado 676891" d="M41,34h8v2H41Z"/>
      <path id="Trazado_676892" data-name="Trazado 676892" d="M41,38h8v2H41Z"/>
      <path id="Trazado_676893" data-name="Trazado 676893" d="M32,52a3,3,0,0,1,0-6V44a5,5,0,1,0,5,5H35A3,3,0,0,1,32,52Z"/>
      <path id="Trazado_676894" data-name="Trazado 676894" d="M29.757,46h8.485v2H29.757Z" transform="translate(-23.276 37.808) rotate(-45)"/>
      <path id="Trazado_676895" data-name="Trazado 676895" d="M41,46h8v2H41Z"/>
      <path id="Trazado_676896" data-name="Trazado 676896" d="M41,50h8v2H41Z"/>
      <path id="Trazado_676897" data-name="Trazado 676897" d="M54.74,12.33l-9-10A1,1,0,0,0,45,2H12A5,5,0,0,0,7,7V57a5,5,0,0,0,5,5H50a5,5,0,0,0,5-5V13a.971.971,0,0,0-.26-.67ZM46,5.61,51.75,12H47a1,1,0,0,1-1-1ZM53,57a3.009,3.009,0,0,1-3,3H12a3.009,3.009,0,0,1-3-3V7a3.009,3.009,0,0,1,3-3H44v7a3.009,3.009,0,0,0,3,3h6Z"/>
      <path id="Trazado_676898" data-name="Trazado 676898" d="M22,20H14a1,1,0,0,0-1,1V44a1,1,0,0,0,.086.406l4,9a1,1,0,0,0,1.828,0l4-9A1,1,0,0,0,23,44V21A1,1,0,0,0,22,20Zm-1,2v4H15V22ZM15.539,45h4.922l-.889,2H16.428ZM15,43V28h2V43Zm4,0V28h2V43Zm-1.683,6h1.366L18,50.538Z"/>
      <path id="Trazado_676899" data-name="Trazado 676899" d="M18,8H30v2H18Z"/>
      <path id="Trazado_676900" data-name="Trazado 676900" d="M14,12H30v2H14Z"/>
      <path id="Trazado_676901" data-name="Trazado 676901" d="M14,16H40v2H14Z"/>
      <path id="Trazado_676902" data-name="Trazado 676902" d="M14,8h2v2H14Z"/>
      <path id="Trazado_676903" data-name="Trazado 676903" d="M42,16h2v2H42Z"/>
    </g>
  </g>
</svg>
