<svg xmlns="http://www.w3.org/2000/svg" width="99.564" height="94.669" viewBox="0 0 99.564 94.669">
  <g id="Grupo_990223" data-name="Grupo 990223" transform="translate(-1)">
    <g id="Grupo_990210" data-name="Grupo 990210" transform="translate(1)">
      <g id="Grupo_80138" data-name="Grupo 80138" transform="translate(0 0)">
        <g id="Grupo_80111" data-name="Grupo 80111" transform="translate(45.535 0)">
          <path id="Trazado_113526" data-name="Trazado 113526" d="M304.509,1053.32l-31.9-31.9a1.593,1.593,0,0,1,0-2.253h0a1.593,1.593,0,0,1,2.254,0l31.9,31.9a1.593,1.593,0,0,1,0,2.254h0A1.594,1.594,0,0,1,304.509,1053.32Z" transform="translate(-272.143 -1018.7)" fill="#ffc721"/>
        </g>
        <g id="Grupo_80112" data-name="Grupo 80112" transform="translate(61.188 4.27)">
          <path id="Trazado_113527" data-name="Trazado 113527" d="M349.435,1051.086l-11.976-11.976a1.594,1.594,0,0,1,0-2.253h0a1.593,1.593,0,0,1,2.254,0l11.975,11.975a1.593,1.593,0,0,1,0,2.254h0A1.593,1.593,0,0,1,349.435,1051.086Z" transform="translate(-336.993 -1036.39)" fill="#ffc721"/>
        </g>
        <g id="Grupo_80113" data-name="Grupo 80113" transform="translate(34.153 0)">
          <path id="Trazado_113528" data-name="Trazado 113528" d="M268.737,1064.7l-43.281-43.281a1.592,1.592,0,0,1,0-2.253h0a1.592,1.592,0,0,1,2.253,0l43.281,43.281a1.592,1.592,0,0,1,0,2.253h0A1.592,1.592,0,0,1,268.737,1064.7Z" transform="translate(-224.989 -1018.7)" fill="#ffc721"/>
        </g>
        <g id="Grupo_80114" data-name="Grupo 80114" transform="translate(25.146 2.374)">
          <path id="Trazado_113529" data-name="Trazado 113529" d="M238.054,1081.171l-49.912-49.912a1.593,1.593,0,0,1,0-2.254h0a1.593,1.593,0,0,1,2.253,0l49.913,49.913a1.594,1.594,0,0,1,0,2.253h0A1.594,1.594,0,0,1,238.054,1081.171Z" transform="translate(-187.675 -1028.537)" fill="#ffc721"/>
        </g>
        <g id="Grupo_80115" data-name="Grupo 80115" transform="translate(17.66 6.27)">
          <path id="Trazado_113530" data-name="Trazado 113530" d="M210.633,1100.9l-53.5-53.5a1.594,1.594,0,0,1,0-2.254h0a1.594,1.594,0,0,1,2.253,0l53.5,53.5a1.594,1.594,0,0,1,0,2.253h0A1.593,1.593,0,0,1,210.633,1100.9Z" transform="translate(-156.663 -1044.677)" fill="#ffc721"/>
        </g>
        <g id="Grupo_80116" data-name="Grupo 80116" transform="translate(11.39 11.39)">
          <path id="Trazado_113531" data-name="Trazado 113531" d="M185.807,1123.26l-54.654-54.655a1.6,1.6,0,0,1,0-2.254h0a1.6,1.6,0,0,1,2.254,0l54.654,54.654a1.6,1.6,0,0,1,0,2.254h0A1.6,1.6,0,0,1,185.807,1123.26Z" transform="translate(-130.686 -1065.885)" fill="#ffc721"/>
        </g>
        <g id="Grupo_80117" data-name="Grupo 80117" transform="translate(6.271 17.66)">
          <path id="Trazado_113532" data-name="Trazado 113532" d="M163.448,1148.087l-53.5-53.5a1.594,1.594,0,0,1,0-2.253h0a1.594,1.594,0,0,1,2.254,0l53.5,53.5a1.593,1.593,0,0,1,0,2.254h0A1.594,1.594,0,0,1,163.448,1148.087Z" transform="translate(-109.478 -1091.863)" fill="#ffc721"/>
        </g>
        <g id="Grupo_80118" data-name="Grupo 80118" transform="translate(2.374 25.146)">
          <path id="Trazado_113533" data-name="Trazado 113533" d="M143.716,1175.509,93.8,1125.6a1.592,1.592,0,0,1,0-2.253h0a1.592,1.592,0,0,1,2.253,0l49.913,49.912a1.593,1.593,0,0,1,0,2.254h0A1.592,1.592,0,0,1,143.716,1175.509Z" transform="translate(-93.336 -1122.875)" fill="#ffc721"/>
        </g>
        <g id="Grupo_80119" data-name="Grupo 80119" transform="translate(0 34.152)">
          <path id="Trazado_113534" data-name="Trazado 113534" d="M127.247,1206.19l-43.281-43.281a1.592,1.592,0,0,1,0-2.253h0a1.592,1.592,0,0,1,2.253,0l43.281,43.281a1.592,1.592,0,0,1,0,2.253h0A1.592,1.592,0,0,1,127.247,1206.19Z" transform="translate(-83.499 -1160.189)" fill="#ffc721"/>
        </g>
        <g id="Grupo_80120" data-name="Grupo 80120" transform="translate(0 45.535)">
          <path id="Trazado_113535" data-name="Trazado 113535" d="M115.865,1241.963l-31.9-31.9a1.593,1.593,0,0,1,0-2.254h0a1.594,1.594,0,0,1,2.253,0l31.9,31.9a1.594,1.594,0,0,1,0,2.253h0A1.593,1.593,0,0,1,115.865,1241.963Z" transform="translate(-83.499 -1207.343)" fill="#ffc721"/>
        </g>
        <g id="Grupo_80121" data-name="Grupo 80121" transform="translate(4.27 61.188)">
          <path id="Trazado_113536" data-name="Trazado 113536" d="M113.633,1286.889l-11.975-11.975a1.593,1.593,0,0,1,0-2.254h0a1.594,1.594,0,0,1,2.253,0l11.976,11.976a1.594,1.594,0,0,1,0,2.253h0A1.593,1.593,0,0,1,113.633,1286.889Z" transform="translate(-101.191 -1272.193)" fill="#ffc721"/>
        </g>
      </g>
      <g id="legal" transform="translate(8.962 0)">
        <path id="Trazado_677099" data-name="Trazado 677099" d="M85.439,101.978A45.292,45.292,0,1,0,16.976,89.8Z" transform="translate(-10.998 -17.928)" fill="#73c3f9"/>
        <path id="Trazado_677100" data-name="Trazado 677100" d="M115.1,467.439a45.311,45.311,0,0,0,52.106,0H115.1Z" transform="translate(-95.848 -381.01)" fill="#2a428c"/>
        <g id="Grupo_990216" data-name="Grupo 990216" transform="translate(19.248 86.43)">
          <path id="Trazado_677101" data-name="Trazado 677101" d="M137.115,467.44H115.1a45.05,45.05,0,0,0,21.422,8C132.9,474.071,133.194,468.329,137.115,467.44Z" transform="translate(-115.096 -467.44)" fill="#1c2e7a"/>
        </g>
        <path id="Trazado_677102" data-name="Trazado 677102" d="M133.641,308.523H88.548a2.791,2.791,0,0,0-2.783,2.783v2.008h50.659v-2.008A2.791,2.791,0,0,0,133.641,308.523Z" transform="translate(-71.941 -251.477)" fill="#3c58a0"/>
        <path id="Trazado_677103" data-name="Trazado 677103" d="M105.3,308.523H88.549a2.792,2.792,0,0,0-2.783,2.783v2.008h19.011a3.99,3.99,0,0,1,.519-.177C102.476,310.948,105.3,308.523,105.3,308.523Z" transform="translate(-71.941 -251.477)" fill="#2a428c"/>
        <path id="Trazado_677104" data-name="Trazado 677104" d="M0,0H23.967V27.626H0Z" transform="matrix(0.642, -0.766, 0.766, 0.642, 27.643, 28.932)" fill="#ffb332"/>
        <path id="Trazado_677105" data-name="Trazado 677105" d="M184.51,64.7a.668.668,0,0,0,.53-.039l-9.034-7.573-15.4,18.368,8.771,7.352a.672.672,0,0,0,.047-.665,3.5,3.5,0,0,1,.347-3.936s7.835-8.937,10.177-12.08A3.764,3.764,0,0,1,184.51,64.7Z" transform="translate(-132.946 -46.536)" fill="#ff9100"/>
        <path id="Trazado_677106" data-name="Trazado 677106" d="M259.4,31.58l21.219,17.787a4.919,4.919,0,0,1,.638-5.164L264.368,30.05A4.919,4.919,0,0,1,259.4,31.58Z" transform="translate(-213.466 -24.494)" fill="#3c58a0"/>
        <path id="Trazado_677107" data-name="Trazado 677107" d="M269.017,39.061a2.381,2.381,0,0,1,2.009-2.625.657.657,0,0,0,.469-.413l-7.126-5.974a4.92,4.92,0,0,1-4.973,1.53l9.469,7.937A.669.669,0,0,0,269.017,39.061Z" transform="translate(-213.466 -24.494)" fill="#2a428c"/>
        <path id="Trazado_677108" data-name="Trazado 677108" d="M142.308,174.65l21.219,17.787a4.919,4.919,0,0,0-4.973,1.53L141.67,179.814A4.92,4.92,0,0,0,142.308,174.65Z" transform="translate(-117.509 -142.357)" fill="#3c58a0"/>
        <path id="Trazado_677109" data-name="Trazado 677109" d="M142.308,174.65a4.919,4.919,0,0,1-.638,5.164l6.8,5.7a.662.662,0,0,0,.234-.592,2.031,2.031,0,0,1,1.993-2.4.665.665,0,0,0,.518-.408l-8.908-7.467Z" transform="translate(-117.509 -142.357)" fill="#2a428c"/>
        <path id="Trazado_677110" data-name="Trazado 677110" d="M329.981,203.7l-2.377-.153-4.565,5.446.566,2.313a9.881,9.881,0,0,0,6.477,7.014,32.164,32.164,0,0,1,8.138,4.49,2.744,2.744,0,0,1,.5-.912l4.326-5.16a2.739,2.739,0,0,1,.809-.656,32.163,32.163,0,0,1-5.842-7.229A9.882,9.882,0,0,0,329.981,203.7Z" transform="translate(-265.343 -165.91)" fill="#3c58a0"/>
        <path id="Trazado_677111" data-name="Trazado 677111" d="M333.45,213.674a5.475,5.475,0,0,1-1.954-1.21,3.814,3.814,0,0,1-.306-5.057l2.2-2.852a9.817,9.817,0,0,0-3.408-.854l-2.377-.153-4.565,5.446.566,2.313a9.882,9.882,0,0,0,6.477,7.014,32.163,32.163,0,0,1,8.138,4.49,2.744,2.744,0,0,1,.5-.912l2.386-2.846c-1.676-1.493-5.224-4.488-7.662-5.379Z" transform="translate(-265.343 -165.911)" fill="#2a428c"/>
        <path id="Trazado_677112" data-name="Trazado 677112" d="M437.106,293.331l-7.462-6.255a2.744,2.744,0,0,1-.516.942l-4.326,5.16a2.74,2.74,0,0,1-.838.673l10.1,8.465a44.957,44.957,0,0,0,3.043-8.985Z" transform="translate(-347.607 -233.996)" fill="#3c58a0"/>
        <path id="Trazado_677113" data-name="Trazado 677113" d="M431.26,294.348a2.731,2.731,0,0,1-.383-3.8l.029-.036,1.228-1.346-2.491-2.088a2.744,2.744,0,0,1-.516.942l-4.326,5.16a2.741,2.741,0,0,1-.838.673l10.1,8.465a45.029,45.029,0,0,0,1.687-4.206Z" transform="translate(-347.607 -233.996)" fill="#2a428c"/>
        <g id="Grupo_990217" data-name="Grupo 990217" transform="translate(42.121 6.393)">
          <path id="Trazado_677114" data-name="Trazado 677114" d="M264.237,56.282a2.388,2.388,0,0,1-3.364.3L239.655,38.791a2.388,2.388,0,1,1,3.067-3.66l21.219,17.787a2.387,2.387,0,0,1,.3,3.364Z" transform="translate(-238.801 -34.574)" fill="#ffdd40"/>
        </g>
        <path id="Trazado_677115" data-name="Trazado 677115" d="M242.722,35.132a2.388,2.388,0,0,0-3.067,3.66l9.02,7.561a.669.669,0,0,0,.467-.6,2.568,2.568,0,0,1,2.51-2.31.671.671,0,0,0,.517-.391Z" transform="translate(-196.68 -28.181)" fill="#ffb332"/>
        <g id="Grupo_990218" data-name="Grupo 990218" transform="translate(49.635 0)">
          <path id="Trazado_677116" data-name="Trazado 677116" d="M302.019,19.445a3.222,3.222,0,0,1-4.54.4L280.6,5.691a3.222,3.222,0,1,1,4.14-4.939l16.884,14.153A3.222,3.222,0,0,1,302.019,19.445Z" transform="translate(-279.443 0.001)" fill="#4f71b6"/>
        </g>
        <path id="Trazado_677117" data-name="Trazado 677117" d="M284.735.753a3.222,3.222,0,1,0-4.14,4.939l7.155,6a.692.692,0,0,0,.131-.463c-.282-3.586,2.526-4.179,3.719-4.269a.658.658,0,0,0,.363-.146Z" transform="translate(-229.808 0)" fill="#3c58a0"/>
        <g id="Grupo_990219" data-name="Grupo 990219" transform="translate(23.832 28.211)">
          <path id="Trazado_677118" data-name="Trazado 677118" d="M165.324,174.282a2.387,2.387,0,0,0-.3-3.364l-21.219-17.787a2.388,2.388,0,1,0-3.067,3.66l21.219,17.787a2.387,2.387,0,0,0,3.363-.3Z" transform="translate(-139.888 -152.574)" fill="#ffdd40"/>
        </g>
        <path id="Trazado_677119" data-name="Trazado 677119" d="M143.809,153.132a2.388,2.388,0,0,0-3.067,3.66l8.933,7.488a.672.672,0,0,0,.139-.479,2.335,2.335,0,0,1,2.2-2.865.67.67,0,0,0,.554-.46Z" transform="translate(-116.056 -124.363)" fill="#ffb332"/>
        <g id="Grupo_990220" data-name="Grupo 990220" transform="translate(18.982 36.568)">
          <path id="Trazado_677120" data-name="Trazado 677120" d="M136.237,217.217a3.222,3.222,0,0,0-.4-4.539l-16.884-14.153a3.222,3.222,0,0,0-4.14,4.939L131.7,217.617A3.222,3.222,0,0,0,136.237,217.217Z" transform="translate(-113.661 -197.772)" fill="#4f71b6"/>
        </g>
        <path id="Trazado_677121" data-name="Trazado 677121" d="M118.954,198.525a3.222,3.222,0,0,0-4.14,4.939l6.884,5.77a.657.657,0,0,0,.069-.366c-.359-3.347,2.233-4.158,3.538-4.354a.677.677,0,0,0,.455-.285Z" transform="translate(-94.679 -161.204)" fill="#3c58a0"/>
        <path id="Trazado_677122" data-name="Trazado 677122" d="M101.488,333.477H51.525a8.218,8.218,0,0,0-8.194,8.194v2.021a45.493,45.493,0,0,0,8.384,10.58h57.967v-12.6A8.218,8.218,0,0,0,101.488,333.477Z" transform="translate(-37.353 -271.817)" fill="#4f71b6"/>
        <path id="Trazado_677123" data-name="Trazado 677123" d="M68.627,353.918a3.622,3.622,0,0,1-2.08-3.229V339.456a5.839,5.839,0,0,1,4.16-5.979H51.525a8.218,8.218,0,0,0-8.194,8.194v2.021a45.493,45.493,0,0,0,8.384,10.58H68.3A4.173,4.173,0,0,1,68.627,353.918Z" transform="translate(-37.353 -271.817)" fill="#3c58a0"/>
        <path id="Trazado_677124" data-name="Trazado 677124" d="M147.551,445.591a2.386,2.386,0,0,0-2.238-1.561H86.637a45.521,45.521,0,0,0,5.906,4.775h50.818a45.514,45.514,0,0,0,4.189-3.214Z" transform="translate(-72.651 -361.928)" fill="#ffdd40"/>
        <path id="Trazado_677125" data-name="Trazado 677125" d="M103.925,444.029H86.637a45.52,45.52,0,0,0,5.906,4.775h11.382C101.059,446.685,103.925,444.029,103.925,444.029Z" transform="translate(-72.651 -361.928)" fill="#ffb332"/>
        <path id="Trazado_677126" data-name="Trazado 677126" d="M295.479,186.6l2.215,1.857a2.041,2.041,0,0,0,2.867-.252l5-5.961a2.041,2.041,0,0,0-.252-2.867l-2.215-1.857Z" transform="translate(-242.878 -144.699)" fill="#ffdd40"/>
        <path id="Trazado_677127" data-name="Trazado 677127" d="M411.779,268.98a2.752,2.752,0,0,0-3.878.341l-4.326,5.16a2.752,2.752,0,0,0,4.219,3.536l4.326-5.16A2.753,2.753,0,0,0,411.779,268.98Z" transform="translate(-330.464 -218.721)" fill="#ffdd40"/>
        <path id="Trazado_677128" data-name="Trazado 677128" d="M407.476,285.922a3.039,3.039,0,0,1-1.013-2.993l-2.889,3.447a2.752,2.752,0,1,0,4.219,3.536l3.034-3.619A3.042,3.042,0,0,1,407.476,285.922Z" transform="translate(-330.463 -230.615)" fill="#ffb332"/>
        <path id="Trazado_677129" data-name="Trazado 677129" d="M303.823,178.136a9.514,9.514,0,0,0-7.611,9.08l4.068-4.3Z" transform="translate(-243.476 -145.199)" fill="#ffdd40"/>
      </g>
    </g>
  </g>
</svg>
