<svg xmlns="http://www.w3.org/2000/svg" xmlns:xlink="http://www.w3.org/1999/xlink" width="538" height="337" viewBox="0 0 538 337">
  <defs>
    <clipPath id="clip-path">
      <rect id="Rectángulo_344958" data-name="Rectángulo 344958" width="538" height="337" transform="translate(839 877)" fill="#fff"/>
    </clipPath>
    <clipPath id="clip-path-2">
      <rect id="Rectángulo_34229" data-name="Rectángulo 34229" width="576.818" height="312.15" fill="#ffe9a6"/>
    </clipPath>
    <clipPath id="clip-path-3">
      <rect id="Rectángulo_34189" data-name="Rectángulo 34189" width="576.818" height="281.476" fill="#ffe9a6"/>
    </clipPath>
    <clipPath id="clip-path-4">
      <rect id="Rectángulo_34104" data-name="Rectángulo 34104" width="46.828" height="138.3" fill="#ffe9a6"/>
    </clipPath>
    <clipPath id="clip-path-5">
      <rect id="Rectángulo_34106" data-name="Rectángulo 34106" width="66.778" height="138.3" fill="#ffe9a6"/>
    </clipPath>
    <clipPath id="clip-path-6">
      <rect id="Rectángulo_34107" data-name="Rectángulo 34107" width="113.606" height="138.3" fill="#ffe9a6"/>
    </clipPath>
    <clipPath id="clip-path-7">
      <rect id="Rectángulo_34109" data-name="Rectángulo 34109" width="15.972" height="138.3" fill="#ffe9a6"/>
    </clipPath>
    <clipPath id="clip-path-8">
      <rect id="Rectángulo_34111" data-name="Rectángulo 34111" width="12.808" height="3.739" fill="#ffe9a6"/>
    </clipPath>
    <clipPath id="clip-path-10">
      <rect id="Rectángulo_34115" data-name="Rectángulo 34115" width="12.807" height="3.739" fill="#ffe9a6"/>
    </clipPath>
    <clipPath id="clip-path-18">
      <rect id="Rectángulo_34131" data-name="Rectángulo 34131" width="8.904" height="138.3" fill="#ffe9a6"/>
    </clipPath>
    <clipPath id="clip-path-19">
      <rect id="Rectángulo_34133" data-name="Rectángulo 34133" width="12.807" height="3.74" fill="#ffe9a6"/>
    </clipPath>
    <clipPath id="clip-path-20">
      <rect id="Rectángulo_34135" data-name="Rectángulo 34135" width="40.282" height="138.3" fill="#ffe9a6"/>
    </clipPath>
    <clipPath id="clip-path-22">
      <rect id="Rectángulo_34138" data-name="Rectángulo 34138" width="15.973" height="138.3" fill="#ffe9a6"/>
    </clipPath>
    <clipPath id="clip-path-30">
      <rect id="Rectángulo_34154" data-name="Rectángulo 34154" width="49.183" height="138.3" fill="#ffe9a6"/>
    </clipPath>
    <clipPath id="clip-path-31">
      <rect id="Rectángulo_34156" data-name="Rectángulo 34156" width="19.949" height="138.3" fill="#ffe9a6"/>
    </clipPath>
    <clipPath id="clip-path-33">
      <rect id="Rectángulo_34159" data-name="Rectángulo 34159" width="133.556" height="138.3" fill="#ffe9a6"/>
    </clipPath>
    <clipPath id="clip-path-34">
      <rect id="Rectángulo_34161" data-name="Rectángulo 34161" width="35.922" height="138.3" fill="#ffe9a6"/>
    </clipPath>
    <clipPath id="clip-path-44">
      <rect id="Rectángulo_34180" data-name="Rectángulo 34180" width="576.818" height="281.477" fill="#ffe9a6"/>
    </clipPath>
    <clipPath id="clip-path-45">
      <rect id="Rectángulo_34181" data-name="Rectángulo 34181" width="17.591" height="138.3" fill="#ffe9a6"/>
    </clipPath>
    <clipPath id="clip-path-46">
      <rect id="Rectángulo_34183" data-name="Rectángulo 34183" width="17.594" height="138.3" fill="#ffe9a6"/>
    </clipPath>
    <clipPath id="clip-path-49">
      <rect id="Rectángulo_34188" data-name="Rectángulo 34188" width="115.019" height="209.873" fill="#ffe9a6"/>
    </clipPath>
    <clipPath id="clip-path-50">
      <rect id="Rectángulo_344957" data-name="Rectángulo 344957" width="538" height="337" fill="#fff" stroke="#707070" stroke-width="1" opacity="0.56"/>
    </clipPath>
    <clipPath id="clip-path-51">
      <rect id="Rectángulo_344956" data-name="Rectángulo 344956" width="689.105" height="333.336" fill="none"/>
    </clipPath>
    <clipPath id="clip-path-52">
      <rect id="Rectángulo_344932" data-name="Rectángulo 344932" width="35.549" height="35.155" fill="none"/>
    </clipPath>
    <clipPath id="clip-path-53">
      <rect id="Rectángulo_344933" data-name="Rectángulo 344933" width="23.587" height="23.555" fill="none"/>
    </clipPath>
    <clipPath id="clip-path-54">
      <rect id="Rectángulo_344934" data-name="Rectángulo 344934" width="28.673" height="28.356" fill="none"/>
    </clipPath>
    <clipPath id="clip-path-55">
      <rect id="Rectángulo_344935" data-name="Rectángulo 344935" width="19.026" height="19" fill="none"/>
    </clipPath>
  </defs>
  <g id="Grupo_991966" data-name="Grupo 991966" transform="translate(-839 -877)">
    <rect id="Rectángulo_344959" data-name="Rectángulo 344959" width="538" height="337" transform="translate(839 877)" fill="#fef8e6"/>
    <g id="Enmascarar_grupo_990906" data-name="Enmascarar grupo 990906" clip-path="url(#clip-path)">
      <g id="Grupo_990989" data-name="Grupo 990989" transform="translate(839 907)" opacity="0.63">
        <g id="Grupo_84379" data-name="Grupo 84379" transform="translate(0 -30)" clip-path="url(#clip-path-2)">
          <g id="Grupo_84364" data-name="Grupo 84364" transform="translate(2.027 -33.74)">
            <g id="Grupo_84363" data-name="Grupo 84363" transform="translate(0 0)" clip-path="url(#clip-path-3)">
              <g id="Grupo_84227" data-name="Grupo 84227" transform="translate(134.699 102.759)" opacity="0.5" style="mix-blend-mode: multiply;isolation: isolate">
                <g id="Grupo_84226" data-name="Grupo 84226">
                  <g id="Grupo_84225" data-name="Grupo 84225" clip-path="url(#clip-path-4)">
                    <rect id="Rectángulo_34103" data-name="Rectángulo 34103" width="46.828" height="138.3" fill="#ffe9a6"/>
                  </g>
                </g>
              </g>
              <g id="Grupo_84230" data-name="Grupo 84230" transform="translate(181.528 102.759)" opacity="0.5" style="mix-blend-mode: multiply;isolation: isolate">
                <g id="Grupo_84229" data-name="Grupo 84229">
                  <g id="Grupo_84228" data-name="Grupo 84228" clip-path="url(#clip-path-5)">
                    <rect id="Rectángulo_34105" data-name="Rectángulo 34105" width="66.777" height="138.3" transform="translate(0)" fill="#ffe9a6"/>
                  </g>
                </g>
              </g>
              <g id="Grupo_84233" data-name="Grupo 84233" transform="translate(134.699 102.759)" opacity="0.5" style="mix-blend-mode: multiply;isolation: isolate">
                <g id="Grupo_84232" data-name="Grupo 84232">
                  <g id="Grupo_84231" data-name="Grupo 84231" clip-path="url(#clip-path-6)">
                    <path id="Trazado_115311" data-name="Trazado 115311" d="M829.879,590.746v-2.752H799.793V541.664h-2.728v46.331H765.437V541.664h-2.728v46.331H716.272v2.752h46.437v44.61H716.272v2.752h46.437v41.856h2.728V638.108h31.628v41.856h2.728V638.108h30.086v-2.752H799.793v-44.61Zm-32.814,44.61H765.437v-44.61h31.628Z" transform="translate(-716.272 -541.664)" fill="#ffe9a6"/>
                  </g>
                </g>
              </g>
              <g id="Grupo_84236" data-name="Grupo 84236" transform="translate(134.699 102.759)" opacity="0.5" style="mix-blend-mode: multiply;isolation: isolate">
                <g id="Grupo_84235" data-name="Grupo 84235">
                  <g id="Grupo_84234" data-name="Grupo 84234" clip-path="url(#clip-path-7)">
                    <rect id="Rectángulo_34108" data-name="Rectángulo 34108" width="15.972" height="138.3" fill="#ffe9a6"/>
                  </g>
                </g>
              </g>
              <g id="Grupo_84239" data-name="Grupo 84239" transform="translate(159.5 102.76)" opacity="0.5" style="mix-blend-mode: multiply;isolation: isolate">
                <g id="Grupo_84238" data-name="Grupo 84238">
                  <g id="Grupo_84237" data-name="Grupo 84237" clip-path="url(#clip-path-8)">
                    <rect id="Rectángulo_34110" data-name="Rectángulo 34110" width="12.808" height="3.739" fill="#ffe9a6"/>
                  </g>
                </g>
              </g>
              <g id="Grupo_84242" data-name="Grupo 84242" transform="translate(194.664 102.76)" opacity="0.5" style="mix-blend-mode: multiply;isolation: isolate">
                <g id="Grupo_84241" data-name="Grupo 84241">
                  <g id="Grupo_84240" data-name="Grupo 84240" clip-path="url(#clip-path-8)">
                    <rect id="Rectángulo_34112" data-name="Rectángulo 34112" width="12.808" height="3.739" transform="translate(0)" fill="#ffe9a6"/>
                  </g>
                </g>
              </g>
              <g id="Grupo_84245" data-name="Grupo 84245" transform="translate(228.768 102.76)" opacity="0.5" style="mix-blend-mode: multiply;isolation: isolate">
                <g id="Grupo_84244" data-name="Grupo 84244">
                  <g id="Grupo_84243" data-name="Grupo 84243" clip-path="url(#clip-path-10)">
                    <rect id="Rectángulo_34114" data-name="Rectángulo 34114" width="12.808" height="3.739" transform="translate(-0.001)" fill="#ffe9a6"/>
                  </g>
                </g>
              </g>
              <g id="Grupo_84248" data-name="Grupo 84248" transform="translate(159.5 151.841)" opacity="0.5" style="mix-blend-mode: multiply;isolation: isolate">
                <g id="Grupo_84247" data-name="Grupo 84247">
                  <g id="Grupo_84246" data-name="Grupo 84246" clip-path="url(#clip-path-8)">
                    <rect id="Rectángulo_34116" data-name="Rectángulo 34116" width="12.808" height="3.739" fill="#ffe9a6"/>
                  </g>
                </g>
              </g>
              <g id="Grupo_84251" data-name="Grupo 84251" transform="translate(194.664 151.841)" opacity="0.5" style="mix-blend-mode: multiply;isolation: isolate">
                <g id="Grupo_84250" data-name="Grupo 84250">
                  <g id="Grupo_84249" data-name="Grupo 84249" clip-path="url(#clip-path-8)">
                    <rect id="Rectángulo_34118" data-name="Rectángulo 34118" width="12.808" height="3.739" transform="translate(0)" fill="#ffe9a6"/>
                  </g>
                </g>
              </g>
              <g id="Grupo_84254" data-name="Grupo 84254" transform="translate(228.768 151.841)" opacity="0.5" style="mix-blend-mode: multiply;isolation: isolate">
                <g id="Grupo_84253" data-name="Grupo 84253">
                  <g id="Grupo_84252" data-name="Grupo 84252" clip-path="url(#clip-path-10)">
                    <rect id="Rectángulo_34120" data-name="Rectángulo 34120" width="12.808" height="3.739" transform="translate(-0.001)" fill="#ffe9a6"/>
                  </g>
                </g>
              </g>
              <g id="Grupo_84257" data-name="Grupo 84257" transform="translate(159.5 199.203)" opacity="0.5" style="mix-blend-mode: multiply;isolation: isolate">
                <g id="Grupo_84256" data-name="Grupo 84256">
                  <g id="Grupo_84255" data-name="Grupo 84255" clip-path="url(#clip-path-8)">
                    <rect id="Rectángulo_34122" data-name="Rectángulo 34122" width="12.808" height="3.739" fill="#ffe9a6"/>
                  </g>
                </g>
              </g>
              <g id="Grupo_84260" data-name="Grupo 84260" transform="translate(194.664 199.203)" opacity="0.5" style="mix-blend-mode: multiply;isolation: isolate">
                <g id="Grupo_84259" data-name="Grupo 84259">
                  <g id="Grupo_84258" data-name="Grupo 84258" clip-path="url(#clip-path-8)">
                    <rect id="Rectángulo_34124" data-name="Rectángulo 34124" width="12.808" height="3.739" transform="translate(0)" fill="#ffe9a6"/>
                  </g>
                </g>
              </g>
              <g id="Grupo_84263" data-name="Grupo 84263" transform="translate(228.768 199.203)" opacity="0.5" style="mix-blend-mode: multiply;isolation: isolate">
                <g id="Grupo_84262" data-name="Grupo 84262">
                  <g id="Grupo_84261" data-name="Grupo 84261" clip-path="url(#clip-path-10)">
                    <rect id="Rectángulo_34126" data-name="Rectángulo 34126" width="12.808" height="3.739" transform="translate(-0.001)" fill="#ffe9a6"/>
                  </g>
                </g>
              </g>
              <g id="Grupo_84266" data-name="Grupo 84266" transform="translate(279.526 102.759)" opacity="0.5" style="mix-blend-mode: multiply;isolation: isolate">
                <g id="Grupo_84265" data-name="Grupo 84265">
                  <g id="Grupo_84264" data-name="Grupo 84264" clip-path="url(#clip-path-4)">
                    <rect id="Rectángulo_34128" data-name="Rectángulo 34128" width="46.828" height="138.3" transform="translate(0.001)" fill="#ffe9a6"/>
                  </g>
                </g>
              </g>
              <g id="Grupo_84269" data-name="Grupo 84269" transform="translate(326.356 102.759)" opacity="0.5" style="mix-blend-mode: multiply;isolation: isolate">
                <g id="Grupo_84268" data-name="Grupo 84268">
                  <g id="Grupo_84267" data-name="Grupo 84267" clip-path="url(#clip-path-18)">
                    <rect id="Rectángulo_34130" data-name="Rectángulo 34130" width="8.904" height="138.3" transform="translate(-0.001)" fill="#ffe9a6"/>
                  </g>
                </g>
              </g>
              <g id="Grupo_84272" data-name="Grupo 84272" transform="translate(339.494 102.759)" opacity="0.5" style="mix-blend-mode: multiply;isolation: isolate">
                <g id="Grupo_84271" data-name="Grupo 84271">
                  <g id="Grupo_84270" data-name="Grupo 84270" clip-path="url(#clip-path-19)">
                    <rect id="Rectángulo_34132" data-name="Rectángulo 34132" width="12.807" height="3.74" transform="translate(-0.001)" fill="#ffe9a6"/>
                  </g>
                </g>
              </g>
              <g id="Grupo_84275" data-name="Grupo 84275" transform="translate(352.851 102.759)" opacity="0.5" style="mix-blend-mode: multiply;isolation: isolate">
                <g id="Grupo_84274" data-name="Grupo 84274">
                  <g id="Grupo_84273" data-name="Grupo 84273" clip-path="url(#clip-path-20)">
                    <rect id="Rectángulo_34134" data-name="Rectángulo 34134" width="40.28" height="138.3" transform="translate(0.001)" fill="#ffe9a6"/>
                  </g>
                </g>
              </g>
              <g id="Grupo_84278" data-name="Grupo 84278" transform="translate(279.528 102.759)" opacity="0.5" style="mix-blend-mode: multiply;isolation: isolate">
                <g id="Grupo_84277" data-name="Grupo 84277">
                  <g id="Grupo_84276" data-name="Grupo 84276" clip-path="url(#clip-path-6)">
                    <path id="Trazado_115312" data-name="Trazado 115312" d="M1886.511,541.664h-2.728v46.331h-7.469v2.752h7.469v44.61h-7.469v2.752h7.469v41.856h2.728V638.108H1916.6v-2.752h-30.086v-44.61H1916.6v-2.752h-30.086Z" transform="translate(-1802.99 -541.664)" fill="#ffe9a6"/>
                    <path id="Trazado_115313" data-name="Trazado 115313" d="M1535.571,541.664h-2.728v46.331h-46.437v2.752h46.437v44.61h-46.437v2.752h46.437v41.856h2.728V638.108h24.159v-2.752h-24.159v-44.61h24.159v-2.752h-24.159Z" transform="translate(-1486.407 -541.664)" fill="#ffe9a6"/>
                  </g>
                </g>
              </g>
              <g id="Grupo_84281" data-name="Grupo 84281" transform="translate(279.526 102.759)" opacity="0.5" style="mix-blend-mode: multiply;isolation: isolate">
                <g id="Grupo_84280" data-name="Grupo 84280">
                  <g id="Grupo_84279" data-name="Grupo 84279" clip-path="url(#clip-path-22)">
                    <rect id="Rectángulo_34137" data-name="Rectángulo 34137" width="15.972" height="138.3" transform="translate(0.001)" fill="#ffe9a6"/>
                  </g>
                </g>
              </g>
              <g id="Grupo_84284" data-name="Grupo 84284" transform="translate(304.329 102.76)" opacity="0.5" style="mix-blend-mode: multiply;isolation: isolate">
                <g id="Grupo_84283" data-name="Grupo 84283">
                  <g id="Grupo_84282" data-name="Grupo 84282" clip-path="url(#clip-path-10)">
                    <rect id="Rectángulo_34139" data-name="Rectángulo 34139" width="12.808" height="3.739" transform="translate(-0.001)" fill="#ffe9a6"/>
                  </g>
                </g>
              </g>
              <g id="Grupo_84287" data-name="Grupo 84287" transform="translate(339.494 102.759)" opacity="0.5" style="mix-blend-mode: multiply;isolation: isolate">
                <g id="Grupo_84286" data-name="Grupo 84286">
                  <g id="Grupo_84285" data-name="Grupo 84285" clip-path="url(#clip-path-19)">
                    <rect id="Rectángulo_34141" data-name="Rectángulo 34141" width="12.807" height="3.74" transform="translate(-0.001)" fill="#ffe9a6"/>
                  </g>
                </g>
              </g>
              <g id="Grupo_84290" data-name="Grupo 84290" transform="translate(373.596 102.76)" opacity="0.5" style="mix-blend-mode: multiply;isolation: isolate">
                <g id="Grupo_84289" data-name="Grupo 84289">
                  <g id="Grupo_84288" data-name="Grupo 84288" clip-path="url(#clip-path-10)">
                    <rect id="Rectángulo_34143" data-name="Rectángulo 34143" width="12.808" height="3.739" transform="translate(0)" fill="#ffe9a6"/>
                  </g>
                </g>
              </g>
              <g id="Grupo_84293" data-name="Grupo 84293" transform="translate(304.329 151.841)" opacity="0.5" style="mix-blend-mode: multiply;isolation: isolate">
                <g id="Grupo_84292" data-name="Grupo 84292">
                  <g id="Grupo_84291" data-name="Grupo 84291" clip-path="url(#clip-path-10)">
                    <rect id="Rectángulo_34145" data-name="Rectángulo 34145" width="12.808" height="3.739" transform="translate(-0.001)" fill="#ffe9a6"/>
                  </g>
                </g>
              </g>
              <g id="Grupo_84296" data-name="Grupo 84296" transform="translate(373.596 151.841)" opacity="0.5" style="mix-blend-mode: multiply;isolation: isolate">
                <g id="Grupo_84295" data-name="Grupo 84295">
                  <g id="Grupo_84294" data-name="Grupo 84294" clip-path="url(#clip-path-10)">
                    <rect id="Rectángulo_34147" data-name="Rectángulo 34147" width="12.808" height="3.739" transform="translate(0)" fill="#ffe9a6"/>
                  </g>
                </g>
              </g>
              <g id="Grupo_84299" data-name="Grupo 84299" transform="translate(304.329 199.203)" opacity="0.5" style="mix-blend-mode: multiply;isolation: isolate">
                <g id="Grupo_84298" data-name="Grupo 84298">
                  <g id="Grupo_84297" data-name="Grupo 84297" clip-path="url(#clip-path-10)">
                    <rect id="Rectángulo_34149" data-name="Rectángulo 34149" width="12.808" height="3.739" transform="translate(-0.001)" fill="#ffe9a6"/>
                  </g>
                </g>
              </g>
              <g id="Grupo_84302" data-name="Grupo 84302" transform="translate(373.596 199.203)" opacity="0.5" style="mix-blend-mode: multiply;isolation: isolate">
                <g id="Grupo_84301" data-name="Grupo 84301">
                  <g id="Grupo_84300" data-name="Grupo 84300" clip-path="url(#clip-path-10)">
                    <rect id="Rectángulo_34151" data-name="Rectángulo 34151" width="12.808" height="3.739" transform="translate(0)" fill="#ffe9a6"/>
                  </g>
                </g>
              </g>
              <g id="Grupo_84305" data-name="Grupo 84305" transform="translate(1.145 102.759)" opacity="0.5" style="mix-blend-mode: multiply;isolation: isolate">
                <g id="Grupo_84304" data-name="Grupo 84304">
                  <g id="Grupo_84303" data-name="Grupo 84303" clip-path="url(#clip-path-30)">
                    <rect id="Rectángulo_34153" data-name="Rectángulo 34153" width="49.183" height="138.3" transform="translate(0)" fill="#ffe9a6"/>
                  </g>
                </g>
              </g>
              <g id="Grupo_84308" data-name="Grupo 84308" transform="translate(114.75 102.759)" opacity="0.5" style="mix-blend-mode: multiply;isolation: isolate">
                <g id="Grupo_84307" data-name="Grupo 84307">
                  <g id="Grupo_84306" data-name="Grupo 84306" clip-path="url(#clip-path-31)">
                    <rect id="Rectángulo_34155" data-name="Rectángulo 34155" width="19.949" height="138.3" fill="#ffe9a6"/>
                  </g>
                </g>
              </g>
              <g id="Grupo_84311" data-name="Grupo 84311" transform="translate(67.922 102.759)" opacity="0.5" style="mix-blend-mode: multiply;isolation: isolate">
                <g id="Grupo_84310" data-name="Grupo 84310">
                  <g id="Grupo_84309" data-name="Grupo 84309" clip-path="url(#clip-path-4)">
                    <rect id="Rectángulo_34157" data-name="Rectángulo 34157" width="46.828" height="138.3" fill="#ffe9a6"/>
                  </g>
                </g>
              </g>
              <g id="Grupo_84314" data-name="Grupo 84314" transform="translate(1.144 102.76)" opacity="0.5" style="mix-blend-mode: multiply;isolation: isolate">
                <g id="Grupo_84313" data-name="Grupo 84313">
                  <g id="Grupo_84312" data-name="Grupo 84312" clip-path="url(#clip-path-33)">
                    <path id="Trazado_115314" data-name="Trazado 115314" d="M109.554,541.667h-2.728V588H75.2V541.667H72.47V588H6.083v2.752H72.47v44.609H6.083v2.752H72.47v41.857H75.2V638.11h31.627v41.857h2.728V638.11h30.085v-2.752H109.554V590.748h30.085V588H109.554Zm-2.728,93.691H75.2V590.748h31.627Z" transform="translate(-6.083 -541.667)" fill="#ffe9a6"/>
                  </g>
                </g>
              </g>
              <g id="Grupo_84317" data-name="Grupo 84317" transform="translate(1.144 102.76)" opacity="0.5" style="mix-blend-mode: multiply;isolation: isolate">
                <g id="Grupo_84316" data-name="Grupo 84316">
                  <g id="Grupo_84315" data-name="Grupo 84315" clip-path="url(#clip-path-34)">
                    <rect id="Rectángulo_34160" data-name="Rectángulo 34160" width="35.922" height="138.3" transform="translate(0)" fill="#ffe9a6"/>
                  </g>
                </g>
              </g>
              <g id="Grupo_84320" data-name="Grupo 84320" transform="translate(45.895 102.76)" opacity="0.5" style="mix-blend-mode: multiply;isolation: isolate">
                <g id="Grupo_84319" data-name="Grupo 84319">
                  <g id="Grupo_84318" data-name="Grupo 84318" clip-path="url(#clip-path-8)">
                    <rect id="Rectángulo_34162" data-name="Rectángulo 34162" width="12.808" height="3.739" fill="#ffe9a6"/>
                  </g>
                </g>
              </g>
              <g id="Grupo_84323" data-name="Grupo 84323" transform="translate(81.059 102.76)" opacity="0.5" style="mix-blend-mode: multiply;isolation: isolate">
                <g id="Grupo_84322" data-name="Grupo 84322">
                  <g id="Grupo_84321" data-name="Grupo 84321" clip-path="url(#clip-path-8)">
                    <rect id="Rectángulo_34164" data-name="Rectángulo 34164" width="12.808" height="3.739" fill="#ffe9a6"/>
                  </g>
                </g>
              </g>
              <g id="Grupo_84326" data-name="Grupo 84326" transform="translate(115.161 102.76)" opacity="0.5" style="mix-blend-mode: multiply;isolation: isolate">
                <g id="Grupo_84325" data-name="Grupo 84325">
                  <g id="Grupo_84324" data-name="Grupo 84324" clip-path="url(#clip-path-8)">
                    <rect id="Rectángulo_34166" data-name="Rectángulo 34166" width="12.808" height="3.739" fill="#ffe9a6"/>
                  </g>
                </g>
              </g>
              <g id="Grupo_84329" data-name="Grupo 84329" transform="translate(45.895 151.841)" opacity="0.5" style="mix-blend-mode: multiply;isolation: isolate">
                <g id="Grupo_84328" data-name="Grupo 84328">
                  <g id="Grupo_84327" data-name="Grupo 84327" clip-path="url(#clip-path-8)">
                    <rect id="Rectángulo_34168" data-name="Rectángulo 34168" width="12.808" height="3.739" fill="#ffe9a6"/>
                  </g>
                </g>
              </g>
              <g id="Grupo_84332" data-name="Grupo 84332" transform="translate(81.059 151.841)" opacity="0.5" style="mix-blend-mode: multiply;isolation: isolate">
                <g id="Grupo_84331" data-name="Grupo 84331">
                  <g id="Grupo_84330" data-name="Grupo 84330" clip-path="url(#clip-path-8)">
                    <rect id="Rectángulo_34170" data-name="Rectángulo 34170" width="12.808" height="3.739" fill="#ffe9a6"/>
                  </g>
                </g>
              </g>
              <g id="Grupo_84335" data-name="Grupo 84335" transform="translate(115.161 151.841)" opacity="0.5" style="mix-blend-mode: multiply;isolation: isolate">
                <g id="Grupo_84334" data-name="Grupo 84334">
                  <g id="Grupo_84333" data-name="Grupo 84333" clip-path="url(#clip-path-8)">
                    <rect id="Rectángulo_34172" data-name="Rectángulo 34172" width="12.808" height="3.739" fill="#ffe9a6"/>
                  </g>
                </g>
              </g>
              <g id="Grupo_84338" data-name="Grupo 84338" transform="translate(45.895 199.203)" opacity="0.5" style="mix-blend-mode: multiply;isolation: isolate">
                <g id="Grupo_84337" data-name="Grupo 84337">
                  <g id="Grupo_84336" data-name="Grupo 84336" clip-path="url(#clip-path-8)">
                    <rect id="Rectángulo_34174" data-name="Rectángulo 34174" width="12.808" height="3.739" fill="#ffe9a6"/>
                  </g>
                </g>
              </g>
              <g id="Grupo_84341" data-name="Grupo 84341" transform="translate(81.059 199.203)" opacity="0.5" style="mix-blend-mode: multiply;isolation: isolate">
                <g id="Grupo_84340" data-name="Grupo 84340">
                  <g id="Grupo_84339" data-name="Grupo 84339" clip-path="url(#clip-path-8)">
                    <rect id="Rectángulo_34176" data-name="Rectángulo 34176" width="12.808" height="3.739" fill="#ffe9a6"/>
                  </g>
                </g>
              </g>
              <g id="Grupo_84344" data-name="Grupo 84344" transform="translate(115.161 199.203)" opacity="0.5" style="mix-blend-mode: multiply;isolation: isolate">
                <g id="Grupo_84343" data-name="Grupo 84343">
                  <g id="Grupo_84342" data-name="Grupo 84342" clip-path="url(#clip-path-8)">
                    <rect id="Rectángulo_34178" data-name="Rectángulo 34178" width="12.808" height="3.739" fill="#ffe9a6"/>
                  </g>
                </g>
              </g>
              <g id="Grupo_84347" data-name="Grupo 84347" transform="translate(0 -0.001)" style="mix-blend-mode: multiply;isolation: isolate">
                <g id="Grupo_84346" data-name="Grupo 84346">
                  <g id="Grupo_84345" data-name="Grupo 84345" clip-path="url(#clip-path-44)">
                    <path id="Trazado_115315" data-name="Trazado 115315" d="M50.328,241.062v40.209l17.594.011v-40.22Zm525.6-186.434c-.916-.872-1.779-1.771-2.6-2.693-.119-.133-.236-.267-.351-.4l-.131.145L555.473,32.31l3.78-4.215q-.674-1.365-1.372-2.747l-4.327,4.824L537.984,12.817h12.66A78.531,78.531,0,0,0,540.4.522H252.049c-3.692,1.239-7.062,2.39-10.078,3.429q-2.5.859-4.907,1.617-.959.3-1.9.587a142.485,142.485,0,0,1-22.6,5.029,107.657,107.657,0,0,1-12.238.94q-1.672.027-3.292.005-2.351-.038-4.6-.174c-15.757-.953-28.4-5.432-42.511-8.779A121.746,121.746,0,0,0,131.971.522q-.892-.073-1.805-.134c-.625-.043-1.257-.082-1.9-.118a172.5,172.5,0,0,0-22.954.253,159.064,159.064,0,0,0-50.8,12.3H71.154L55.585,30.172l-11.2-12.481q-1.291.685-2.575,1.406L53.666,32.31,36.289,51.679,20.39,33.957q-1.086.918-2.16,1.871l14.893,16.6H2.382Q1.179,53.915,0,55.454H28.916L50.328,92.866v9.9H67.922V90.234l19.9-34.78H313.848L335.26,92.866v9.9h17.592V90.234l19.905-34.78h204.06q-.452-.408-.889-.825M529.573,12.817,514,30.172,498.435,12.817Zm-38.592,0L475.411,30.172,459.842,12.817Zm-38.592,0L436.819,30.172,421.25,12.817Zm-38.592,0L398.226,30.172,382.657,12.817Zm-38.591,0L359.634,30.172,344.065,12.817Zm-38.592,0L321.041,30.172,305.472,12.817Zm-40.25,0L283.516,30.172,270.667,12.817Zm-32.247,0L248.545,30.172,232.977,12.817Zm-38.591,0L209.953,30.172,194.384,12.817Zm-38.592,0L171.361,30.172,155.792,12.817Zm-38.592,0L132.77,30.172,117.2,12.817Zm-38.592,0L94.177,30.172,78.608,12.817Zm-34.865.124L92.259,32.31,74.881,51.679,57.5,32.31ZM50.328,83.023,34.549,55.454H50.328ZM39.455,52.43l16.13-17.98,16.13,17.98ZM67.922,80.391V55.454H82.194ZM78.048,52.43l16.13-17.98,16.13,17.98ZM96.1,32.31l17.378-19.37,17.378,19.37L113.474,51.679Zm20.542,20.12,16.132-17.98L148.9,52.43Zm18.05-20.12,17.378-19.37,17.376,19.37L152.066,51.679Zm20.542,20.12,16.13-17.98,16.132,17.98Zm18.049-20.12,17.377-19.37,17.378,19.37L190.657,51.679Zm20.544,20.12,16.13-17.98,16.132,17.98Zm18.048-20.12,17.377-19.37,17.378,19.37L229.249,51.679Zm20.544,20.12,16.13-17.98,16.13,17.98Zm18.048-20.12,17.241-19.217L281.932,32.31,267.705,51.527ZM270.2,52.43l13.312-17.98,13.31,17.98Zm29.788,0L285.1,32.31,299.53,12.817h2.1L319.123,32.31,301.074,52.43ZM335.26,83.023l-15.78-27.57h15.78ZM304.911,52.43l16.13-17.98,16.132,17.98ZM322.96,32.31l17.378-19.37,17.378,19.37L340.338,51.679Zm29.892,48.082V55.454h14.273ZM343.5,52.43l16.13-17.98,16.132,17.98Zm18.048-20.12L378.93,12.94l17.378,19.37L378.93,51.679ZM382.1,52.43l16.13-17.98,16.13,17.98Zm18.049-20.12,17.378-19.37L434.9,32.31,417.523,51.679Zm20.544,20.12,16.13-17.98,16.13,17.98Zm18.048-20.12,17.378-19.37,17.377,19.37L456.115,51.679Zm20.544,20.12,16.13-17.98,16.13,17.98ZM477.33,32.31l17.378-19.37,17.378,19.37L494.707,51.679Zm20.542,20.12L514,34.449l16.13,17.98Zm18.05-20.12L533.41,12.817h.737L551.636,32.31l-17.857,19.9Zm21.5,20.12,16.132-17.98,16.13,17.98ZM335.26,281.468l17.592.011V241.062H335.26Z" transform="translate(0 -0.002)" fill="#ffe9a6"/>
                  </g>
                </g>
              </g>
              <g id="Grupo_84350" data-name="Grupo 84350" transform="translate(335.261 102.759)" opacity="0.5" style="mix-blend-mode: multiply;isolation: isolate">
                <g id="Grupo_84349" data-name="Grupo 84349">
                  <g id="Grupo_84348" data-name="Grupo 84348" clip-path="url(#clip-path-45)">
                    <path id="Trazado_115316" data-name="Trazado 115316" d="M1799.806,545.4H1787v-3.74h-4.233v138.3h17.592v-138.3h-.552Z" transform="translate(-1782.767 -541.664)" fill="#ffe9a6"/>
                  </g>
                </g>
              </g>
              <g id="Grupo_84353" data-name="Grupo 84353" transform="translate(50.328 102.759)" opacity="0.5" style="mix-blend-mode: multiply;isolation: isolate">
                <g id="Grupo_84352" data-name="Grupo 84352">
                  <g id="Grupo_84351" data-name="Grupo 84351" clip-path="url(#clip-path-46)">
                    <rect id="Rectángulo_34182" data-name="Rectángulo 34182" width="17.594" height="138.3" fill="#ffe9a6"/>
                  </g>
                </g>
              </g>
              <g id="Grupo_84356" data-name="Grupo 84356" transform="translate(339.328 199.203)" opacity="0.5" style="mix-blend-mode: multiply;isolation: isolate">
                <g id="Grupo_84355" data-name="Grupo 84355">
                  <g id="Grupo_84354" data-name="Grupo 84354" clip-path="url(#clip-path-10)">
                    <rect id="Rectángulo_34184" data-name="Rectángulo 34184" width="12.808" height="3.739" transform="translate(-0.001)" fill="#ffe9a6"/>
                  </g>
                </g>
              </g>
              <g id="Grupo_84359" data-name="Grupo 84359" transform="translate(339.328 151.841)" opacity="0.5" style="mix-blend-mode: multiply;isolation: isolate">
                <g id="Grupo_84358" data-name="Grupo 84358">
                  <g id="Grupo_84357" data-name="Grupo 84357" clip-path="url(#clip-path-10)">
                    <rect id="Rectángulo_34186" data-name="Rectángulo 34186" width="12.808" height="3.739" transform="translate(-0.001)" fill="#ffe9a6"/>
                  </g>
                </g>
              </g>
              <g id="Grupo_84362" data-name="Grupo 84362" transform="translate(431.85 21.801)" opacity="0.3" style="mix-blend-mode: multiply;isolation: isolate">
                <g id="Grupo_84361" data-name="Grupo 84361">
                  <g id="Grupo_84360" data-name="Grupo 84360" clip-path="url(#clip-path-49)">
                    <path id="Trazado_115317" data-name="Trazado 115317" d="M2409.094,128.282v32.687h-1.8v-41.1h-47.137v41.1H2353.9V114.924h-52.81v46.045H2298.7V128.282h-2.311V324.8h115.019V128.282Zm0,179.021h-14.356V294.189h1.25v-2.778h-27.055v2.778h1.25V307.3h-5.849V294.189h1.25v-2.778h-27.055v2.778h1.25V307.3h-5.849V294.189h1.25v-2.778h-27.055v2.778h1.25V307.3H2298.7V279.41h110.4Zm0-80.764V276.3h-19.751V249.022h-31.286V276.3h-4.988V235.2h-47.137v41.1H2298.7V221.744h110.4Zm0-7.9h-7.279V174.38H2393.6v44.255h-4.3V174.38h-8.215v44.255h-4.3V174.38h-8.215v44.255h-4.3V174.38h-8.215v44.255h-4.3V174.38h-8.215v44.255h-4.3V174.38h-8.214v44.255h-4.3V174.38h-8.215v44.255h-4.3V174.38h-8.215v44.255H2298.7V164.078h110.4Z" transform="translate(-2296.388 -114.923)" fill="#ffe9a6"/>
                  </g>
                </g>
              </g>
            </g>
          </g>
        </g>
      </g>
      <g id="Enmascarar_grupo_990905" data-name="Enmascarar grupo 990905" transform="translate(839 877)" clip-path="url(#clip-path-50)">
        <rect id="Rectángulo_344917" data-name="Rectángulo 344917" width="538" height="121" transform="translate(0 216)" fill="#ffe7a3"/>
        <g id="Grupo_991964" data-name="Grupo 991964" transform="translate(314.66 100.747)">
          <g id="Grupo_991802" data-name="Grupo 991802" transform="translate(53.702 0)">
            <g id="Grupo_80111" data-name="Grupo 80111" transform="translate(0 86.211)">
              <path id="Trazado_113526" data-name="Trazado 113526" d="M277.294,1019.583l60.394,60.395a3.017,3.017,0,0,1,0,4.266h0a3.016,3.016,0,0,1-4.267,0l-60.394-60.393a3.016,3.016,0,0,1,0-4.267h0A3.018,3.018,0,0,1,277.294,1019.583Z" transform="translate(-272.143 -1018.7)" fill="#3955c2"/>
            </g>
            <g id="Grupo_80112" data-name="Grupo 80112" transform="translate(8.085 115.847)">
              <path id="Trazado_113527" data-name="Trazado 113527" d="M342.143,1037.274l22.674,22.674a3.017,3.017,0,0,1,0,4.265h0a3.016,3.016,0,0,1-4.268,0l-22.672-22.672a3.016,3.016,0,0,1,0-4.267h0A3.016,3.016,0,0,1,342.143,1037.274Z" transform="translate(-336.993 -1036.39)" fill="#3955c2"/>
            </g>
            <g id="Grupo_80113" data-name="Grupo 80113" transform="translate(0 64.661)">
              <path id="Trazado_113528" data-name="Trazado 113528" d="M230.14,1019.584l81.943,81.943a3.014,3.014,0,0,1,0,4.265h0a3.015,3.015,0,0,1-4.266,0l-81.943-81.942a3.015,3.015,0,0,1,0-4.266h0A3.015,3.015,0,0,1,230.14,1019.584Z" transform="translate(-224.989 -1018.7)" fill="#3955c2"/>
            </g>
            <g id="Grupo_80114" data-name="Grupo 80114" transform="translate(4.497 47.609)">
              <path id="Trazado_113529" data-name="Trazado 113529" d="M192.826,1029.421l94.5,94.5a3.017,3.017,0,0,1,0,4.268h0a3.015,3.015,0,0,1-4.266,0l-94.5-94.5a3.018,3.018,0,0,1,0-4.266h0A3.017,3.017,0,0,1,192.826,1029.421Z" transform="translate(-187.675 -1028.537)" fill="#3955c2"/>
            </g>
            <g id="Grupo_80115" data-name="Grupo 80115" transform="translate(11.873 33.436)">
              <path id="Trazado_113530" data-name="Trazado 113530" d="M161.814,1045.561l101.3,101.3a3.016,3.016,0,0,1,0,4.267h0a3.017,3.017,0,0,1-4.266,0l-101.3-101.3a3.017,3.017,0,0,1,0-4.266h0A3.017,3.017,0,0,1,161.814,1045.561Z" transform="translate(-156.663 -1044.677)" fill="#3955c2"/>
            </g>
            <g id="Grupo_80116" data-name="Grupo 80116" transform="translate(21.565 21.565)">
              <path id="Trazado_113531" data-name="Trazado 113531" d="M135.837,1066.768l103.476,103.477a3.02,3.02,0,0,1,0,4.267h0a3.02,3.02,0,0,1-4.268,0L131.569,1071.036a3.02,3.02,0,0,1,0-4.268h0A3.02,3.02,0,0,1,135.837,1066.768Z" transform="translate(-130.686 -1065.885)" fill="#3955c2"/>
            </g>
            <g id="Grupo_80117" data-name="Grupo 80117" transform="translate(33.436 11.873)">
              <path id="Trazado_113532" data-name="Trazado 113532" d="M114.629,1092.746l101.3,101.3a3.017,3.017,0,0,1,0,4.266h0a3.017,3.017,0,0,1-4.267,0l-101.3-101.3a3.016,3.016,0,0,1,0-4.267h0A3.017,3.017,0,0,1,114.629,1092.746Z" transform="translate(-109.478 -1091.863)" fill="#3955c2"/>
            </g>
            <g id="Grupo_80118" data-name="Grupo 80118" transform="translate(47.609 4.495)">
              <path id="Trazado_113533" data-name="Trazado 113533" d="M98.486,1123.759l94.5,94.5a3.015,3.015,0,0,1,0,4.266h0a3.014,3.014,0,0,1-4.266,0l-94.5-94.5a3.017,3.017,0,0,1,0-4.268h0A3.015,3.015,0,0,1,98.486,1123.759Z" transform="translate(-93.336 -1122.875)" fill="#3955c2"/>
            </g>
            <g id="Grupo_80119" data-name="Grupo 80119" transform="translate(64.661 0)">
              <path id="Trazado_113534" data-name="Trazado 113534" d="M88.649,1161.073l81.943,81.943a3.015,3.015,0,0,1,0,4.266h0a3.015,3.015,0,0,1-4.266,0L84.383,1165.34a3.015,3.015,0,0,1,0-4.266h0A3.015,3.015,0,0,1,88.649,1161.073Z" transform="translate(-83.499 -1160.189)" fill="#3955c2"/>
            </g>
            <g id="Grupo_80120" data-name="Grupo 80120" transform="translate(86.211)">
              <path id="Trazado_113535" data-name="Trazado 113535" d="M88.65,1208.227l60.394,60.393a3.017,3.017,0,0,1,0,4.268h0a3.018,3.018,0,0,1-4.266,0l-60.395-60.4a3.017,3.017,0,0,1,0-4.266h0A3.017,3.017,0,0,1,88.65,1208.227Z" transform="translate(-83.499 -1207.343)" fill="#3955c2"/>
            </g>
            <g id="Grupo_80121" data-name="Grupo 80121" transform="translate(115.847 8.085)">
              <path id="Trazado_113536" data-name="Trazado 113536" d="M106.342,1273.077l22.672,22.672a3.017,3.017,0,0,1,0,4.268h0a3.018,3.018,0,0,1-4.266,0l-22.674-22.673a3.018,3.018,0,0,1,0-4.266h0A3.017,3.017,0,0,1,106.342,1273.077Z" transform="translate(-101.191 -1272.193)" fill="#3955c2"/>
            </g>
          </g>
          <path id="Trazado_679373" data-name="Trazado 679373" d="M773.665,125.595c-.05,17.034-13.215,35.26-28.111,37.435-28.046,4.095-18,28.29-56.331,35.743a81.3,81.3,0,0,1-17,1.555,67.646,67.646,0,0,1-8.342-.659c-24.364-3.448-40.76-19.854-46.775-39.658-7.916-26.046,7.89-43.1,18.367-53.372s18.15-42.286,55.776-49.9a78.746,78.746,0,0,1,17.469-1.608c13.387.318,27.989,4.577,38.093,13.465q1.138,1,2.216,2.074C763.073,84.635,774.09,91.329,773.665,125.595Z" transform="translate(-600.167 -50.109)" fill="#9aeccd"/>
          <g id="Elipse_7708" data-name="Elipse 7708" transform="translate(74.672 -1)" fill="none" stroke="#465fc4" stroke-width="3.5">
            <ellipse cx="10.539" cy="10.539" rx="10.539" ry="10.539" stroke="none"/>
            <ellipse cx="10.539" cy="10.539" rx="8.789" ry="8.789" fill="none"/>
          </g>
          <g id="Elipse_7710" data-name="Elipse 7710" transform="translate(158.83 76.319)" fill="none" stroke="#f9931f" stroke-width="3">
            <ellipse cx="9.539" cy="9.539" rx="9.539" ry="9.539" stroke="none"/>
            <ellipse cx="9.539" cy="9.539" rx="8.039" ry="8.039" fill="none"/>
          </g>
        </g>
        <g id="Grupo_991006" data-name="Grupo 991006" transform="translate(-21.591 7.634)">
          <g id="Grupo_991005" data-name="Grupo 991005" transform="translate(-27.6 -39.802)">
            <rect id="Rectángulo_344918" data-name="Rectángulo 344918" width="102.291" height="53.298" transform="translate(191.683 254.287)" fill="#c19e7a"/>
            <rect id="Rectángulo_344919" data-name="Rectángulo 344919" width="25.414" height="53.298" transform="translate(191.684 254.287)" fill="#b58a64"/>
            <rect id="Rectángulo_344920" data-name="Rectángulo 344920" width="10.2" height="15.668" transform="translate(252.179 254.287)" fill="#fec786"/>
            <path id="Trazado_677974" data-name="Trazado 677974" d="M1834.521,1169.132h-.646V1131.06h-76.553v-.646h77.2Z" transform="translate(-1540.224 -876.45)" fill="#1d1d1b"/>
            <g id="Grupo_991004" data-name="Grupo 991004">
              <rect id="Rectángulo_344921" data-name="Rectángulo 344921" width="76.852" height="50.104" transform="translate(270.869 206.883) rotate(-177.04)" fill="#c19e7a"/>
              <rect id="Rectángulo_344922" data-name="Rectángulo 344922" width="19.094" height="50.104" transform="translate(213.188 203.901) rotate(-177.04)" fill="#b58a64"/>
              <g id="Grupo_991003" data-name="Grupo 991003">
                <rect id="Rectángulo_344923" data-name="Rectángulo 344923" width="7.663" height="14.729" transform="matrix(-0.999, -0.052, 0.052, -0.999, 248.989, 170.329)" fill="#fec786"/>
                <g id="Grupo_991002" data-name="Grupo 991002" clip-path="url(#clip-path-51)">
                  <path id="Trazado_677975" data-name="Trazado 677975" d="M1325.977,568.613c-.8-.184-1.647-2.98-2.787-2.23-1.167,1.3.646-.37,3.365,9.64,1.152-.377,1.771-.669,5.88-2.445.45-.045.966-.225,1.086-.47l1.617-4.609a.758.758,0,0,0-.349-1.014c-.8-.523-1.775,1.519-2.326,2.106-.291-.835-1.626-5.942-1.8-6.616.012-.675-2.31-1.841-1.108,2.179.408,1.544.518,2.791-.193,1.955-.461-1.08-1.175-4.039-1.631-4.253-2.4-.738-.194,3.137.2,4.743-.177,1.994-1.983-4.218-3.374-3.382-1.566.35,2,3.881,1.429,4.394" transform="translate(-943.301 -435.959)" fill="#fe9f73"/>
                  <path id="Trazado_677976" data-name="Trazado 677976" d="M1204.9,623.573l21.042-.372-4.726,17.2s-21.228-2.22-25.118-6.129-11.2-25.812-11.2-25.812a25.177,25.177,0,0,1,9.76-3.875Z" transform="translate(-803.038 -468.76)" fill="#53a57e"/>
                  <path id="Trazado_677977" data-name="Trazado 677977" d="M1287.966,604.128l10.3,19.091-1.656,2.719a.1.1,0,0,1-.166-.1l1.6-2.624-10.186-18.877a22.451,22.451,0,0,0-9.648,3.849.1.1,0,0,1-.127-.01l-.009-.01a.1.1,0,0,1,.02-.136,22.667,22.667,0,0,1,9.807-3.894Z" transform="translate(-896.296 -468.403)"/>
                  <path id="Trazado_677978" data-name="Trazado 677978" d="M1351.312,815.491l-5.561-4.425,10.676-13.417,5.585-2.39,2.529,6L1360.457,804Z" transform="translate(-977.778 -616.593)" fill="#3a2645"/>
                  <rect id="Rectángulo_344924" data-name="Rectángulo 344924" width="21.739" height="59.566" transform="translate(359.31 253.969) rotate(-156.738)" fill="#646468"/>
                  <rect id="Rectángulo_344925" data-name="Rectángulo 344925" width="22.191" height="9.38" transform="translate(429.522 237.003)" fill="#ffb357"/>
                  <path id="Trazado_677979" data-name="Trazado 677979" d="M1028.647,1027.8H994.509a3.461,3.461,0,0,1-3.461-3.461v-3.031a3.461,3.461,0,0,1,3.461-3.461h34.138a3.462,3.462,0,0,1,3.462,3.461v3.031a3.462,3.462,0,0,1-3.462,3.461" transform="translate(-565.656 -789.173)" fill="#f2932c"/>
                  <path id="Trazado_677980" data-name="Trazado 677980" d="M985.392,858.785l1.916-46.34a3.461,3.461,0,0,1,3.6-3.315l3.029.125a3.462,3.462,0,0,1,3.316,3.6l-1.916,46.34a3.462,3.462,0,0,1-3.6,3.315l-3.029-.125a3.462,3.462,0,0,1-3.316-3.6" transform="translate(-529.534 -627.346)" fill="#f2932c"/>
                  <path id="Trazado_677981" data-name="Trazado 677981" d="M1048.027,705.788c1.022,13.419,1.943,30.231-.911,41.081,0,0,25.286,7.046,40.489,1.867,0,0-5.076-49.2-16.5-59.539-3.505-3.173-25.75-18.489-23.08,16.591" transform="translate(-633.75 -529.666)" fill="#7fc6a6"/>
                  <path id="Trazado_677982" data-name="Trazado 677982" d="M1311.3,1135.322l-11.08-1.408-3.341,10.576,11.7,1.5Z" transform="translate(-913.56 -879.165)" fill="#fe9f73"/>
                  <path id="Trazado_677983" data-name="Trazado 677983" d="M1329.142,1183a.3.3,0,0,0,.3-.3v-1.493a.44.44,0,0,0-.434-.446H1319.4l-3.9-4.353-7.125,4.353h-1.535a1.126,1.126,0,0,0-1.113.9A1.115,1.115,0,0,0,1306.8,1183Z" transform="translate(-933.68 -912.111)" fill="#35182e"/>
                  <path id="Trazado_677984" data-name="Trazado 677984" d="M1330.112,1172.088a3.373,3.373,0,0,0-4.082-1.094s-3.727,2.712-7.012-.57l-8.158,3.712s-2.237.767-2.842,2h22.094Z" transform="translate(-934.871 -907.472)" fill="#ef3a4c"/>
                  <rect id="Rectángulo_344926" data-name="Rectángulo 344926" width="0.164" height="4.026" transform="translate(395.159 264.616)"/>
                  <path id="Trazado_677985" data-name="Trazado 677985" d="M1329.781,1172.653a5.676,5.676,0,0,1-3.776,1.013l-.024.166a3.846,3.846,0,0,0,.506.028,5.926,5.926,0,0,0,3.386-1.069Z" transform="translate(-938.669 -909.201)"/>
                  <path id="Trazado_677986" data-name="Trazado 677986" d="M1313.259,1188.647l-1.042.721.092.139,1.042-.721Z" transform="translate(-919.053 -921.602)"/>
                  <path id="Trazado_677987" data-name="Trazado 677987" d="M1316.585,1187.741l-1.042.721.092.139,1.042-.721Z" transform="translate(-923.127 -920.899)"/>
                  <path id="Trazado_677988" data-name="Trazado 677988" d="M1329.239,1197.209v-1.118a.639.639,0,0,0-.63-.646h-22.091a1.192,1.192,0,0,0-1.175,1.206,1.216,1.216,0,0,0,.415.919l.106-.128a1.048,1.048,0,0,1-.357-.791,1.026,1.026,0,0,1,1.012-1.038h22.091a.473.473,0,0,1,.466.479v1.118Z" transform="translate(-933.398 -926.871)"/>
                  <path id="Trazado_677989" data-name="Trazado 677989" d="M1359.449,1174.272c1.642-.718,8.86-4,8.933-4.036l-.066-.153c-.073.033-7.29,3.317-8.931,4.035a4.074,4.074,0,0,0-2.136,1.711l.148.072a4.008,4.008,0,0,1,2.052-1.628" transform="translate(-984.202 -907.208)"/>
                  <path id="Trazado_677990" data-name="Trazado 677990" d="M1169.812,1135.322l-11.08-1.408,1.277,10.576,11.7,1.5Z" transform="translate(-742.926 -879.165)" fill="#fe9f73"/>
                  <path id="Trazado_677991" data-name="Trazado 677991" d="M1178.864,1183a.3.3,0,0,0,.3-.3v-1.493a.44.44,0,0,0-.434-.446h-9.608l-3.9-4.353-7.125,4.353h-1.535a1.127,1.127,0,0,0-1.113.9,1.115,1.115,0,0,0,1.073,1.344Z" transform="translate(-749.64 -912.111)" fill="#35182e"/>
                  <path id="Trazado_677992" data-name="Trazado 677992" d="M1179.834,1172.088a3.372,3.372,0,0,0-4.082-1.094s-3.727,2.712-7.012-.57l-8.158,3.712s-2.237.767-2.843,2h22.094Z" transform="translate(-750.832 -907.472)" fill="#ef3a4c"/>
                  <rect id="Rectángulo_344927" data-name="Rectángulo 344927" width="0.164" height="4.026" transform="translate(428.921 264.616)"/>
                  <path id="Trazado_677993" data-name="Trazado 677993" d="M1179.5,1172.653a5.677,5.677,0,0,1-3.776,1.013l-.024.166a3.851,3.851,0,0,0,.507.028,5.926,5.926,0,0,0,3.386-1.069Z" transform="translate(-754.629 -909.201)"/>
                  <path id="Trazado_677994" data-name="Trazado 677994" d="M1162.981,1188.647l-1.042.721.091.139,1.042-.721Z" transform="translate(-735.013 -921.602)"/>
                  <path id="Trazado_677995" data-name="Trazado 677995" d="M1166.307,1187.741l-1.042.721.091.139,1.042-.721Z" transform="translate(-739.087 -920.899)"/>
                  <path id="Trazado_677996" data-name="Trazado 677996" d="M1178.961,1197.209v-1.118a.639.639,0,0,0-.63-.646h-22.09a1.192,1.192,0,0,0-1.175,1.206,1.215,1.215,0,0,0,.415.919l.105-.128a1.046,1.046,0,0,1-.357-.791,1.026,1.026,0,0,1,1.011-1.038h22.09a.473.473,0,0,1,.467.479v1.118Z" transform="translate(-749.357 -926.871)"/>
                  <path id="Trazado_677997" data-name="Trazado 677997" d="M1209.171,1174.272c1.642-.718,8.86-4,8.933-4.036l-.066-.153c-.073.033-7.29,3.317-8.931,4.035a4.075,4.075,0,0,0-2.136,1.711l.148.072a4.009,4.009,0,0,1,2.052-1.628" transform="translate(-800.162 -907.208)"/>
                  <path id="Trazado_677998" data-name="Trazado 677998" d="M1267.562,997.952l10.475-23.314-8.216-30.3s-12.222,33.686-15.713,48.373c0,0,5.957,5.854,13.454,5.238" transform="translate(-870.686 -732.182)" fill="#182b3a"/>
                  <path id="Trazado_677999" data-name="Trazado 677999" d="M1098.45,929.481c.1-.08.193-.16.287-.241a12.735,12.735,0,0,0-2.342-20.879,14.934,14.934,0,0,0-5.386-1.826l-33.23-3.319s-8.716-.9-10.544,7.242c-1.031,4.593,4.862,23.559,9.621,37.343,2.954,8.556,6.29,16.856,6.29,16.856s10.816.257,16.137-3.543l-7.189-32.191s19.372,6.31,26.356.559" transform="translate(-649.297 -700.274)" fill="#223749"/>
                  <path id="Trazado_678000" data-name="Trazado 678000" d="M1179.466,905.729a.173.173,0,1,0-.095-.333,9.511,9.511,0,0,0-5.833,6.133c-1.886,5.812,11.263,43.875,15.786,54.9l.044.107h.156a46.773,46.773,0,0,0,11.485-1.424.173.173,0,1,0-.1-.331,46.1,46.1,0,0,1-11.306,1.409c-4.551-11.136-17.588-48.839-15.732-54.556a9.157,9.157,0,0,1,5.6-5.906" transform="translate(-775.636 -701.981)" fill="#21111d"/>
                  <path id="Trazado_678001" data-name="Trazado 678001" d="M1177.951,1015.869a.179.179,0,0,0,.038,0,.173.173,0,0,0,.131-.207l-2.676-11.855a.173.173,0,1,0-.338.076l2.676,11.855a.173.173,0,0,0,.169.135" transform="translate(-753.022 -778.179)" fill="#21111d"/>
                  <path id="Trazado_678002" data-name="Trazado 678002" d="M1135.561,1019.93a25.8,25.8,0,0,0,2.8.231.173.173,0,1,0,.006-.347c-4.832-.09-13.122-2.461-13.206-2.485a.173.173,0,0,0-.1.333,86.02,86.02,0,0,0,10.5,2.267" transform="translate(-702.162 -788.768)" fill="#21111d"/>
                  <path id="Trazado_678003" data-name="Trazado 678003" d="M1277.071,945.345a.174.174,0,0,0-.232.078,10.151,10.151,0,0,0-.9,4.317.174.174,0,0,0,.173.171h0a.173.173,0,0,0,.171-.176,9.992,9.992,0,0,1,.868-4.157.173.173,0,0,0-.078-.232" transform="translate(-874.719 -732.946)" fill="#21111d"/>
                  <path id="Trazado_678004" data-name="Trazado 678004" d="M1273.521,952.538a.174.174,0,0,0-.224.1,11.412,11.412,0,0,0-.781,3.888.173.173,0,0,0,.172.16h.014a.174.174,0,0,0,.159-.186,11.314,11.314,0,0,1,.759-3.737.174.174,0,0,0-.1-.224" transform="translate(-870.414 -738.529)" fill="#21111d"/>
                  <path id="Trazado_678005" data-name="Trazado 678005" d="M1309.279,955.82a.173.173,0,0,0-.222.1c-.119.331-11.886,33.246-14.731,45.642l-.019.084.056.066a17.665,17.665,0,0,0,12.893,5.312q.345,0,.7-.012a.173.173,0,0,0,.167-.179.169.169,0,0,0-.179-.167,17.469,17.469,0,0,1-13.259-5.113c2.875-12.443,14.581-45.186,14.7-45.516a.173.173,0,0,0-.1-.222" transform="translate(-911.073 -741.074)" fill="#21111d"/>
                  <path id="Trazado_678006" data-name="Trazado 678006" d="M1187.629,625.946l-7.9,4.989-.265-1.649a4.009,4.009,0,0,1,2.05-4.176,9.423,9.423,0,0,1,5.914-.569s1.371,1.473,1.51,1.649-1.306-.244-1.306-.244" transform="translate(-764.811 -484.043)" fill="#fe9f73"/>
                  <path id="Trazado_678007" data-name="Trazado 678007" d="M1170.905,638.453l-1.118-6.953,8.471-4.105,1.646,8.429.276,2.2a34.877,34.877,0,0,1,1.279,5.316,4.2,4.2,0,0,1-3.587,3.444,6.875,6.875,0,0,1-2.1.013,2.619,2.619,0,0,1-2.217-2.5l-.127-3.38c-2.224.039-2.52-2.462-2.52-2.462" transform="translate(-755.166 -486.443)" fill="#fe9f73"/>
                  <path id="Trazado_678008" data-name="Trazado 678008" d="M1196.7,647.607c-.031-.07-.78-1.723-2.2-1.24a.1.1,0,1,1-.068-.2c1.6-.546,2.45,1.334,2.458,1.354a.1.1,0,0,1-.192.084" transform="translate(-776.131 -500.922)" fill="#4c222e"/>
                  <path id="Trazado_678009" data-name="Trazado 678009" d="M1216.064,649.015c0-.011.353-1.138,1-1.043a.1.1,0,1,0,.031-.207c-.824-.121-1.213,1.136-1.229,1.19a.1.1,0,1,0,.2.061" transform="translate(-801.237 -502.229)" fill="#4c222e"/>
                  <path id="Trazado_678010" data-name="Trazado 678010" d="M1199.308,658.328a.314.314,0,1,1,.261-.36.314.314,0,0,1-.261.36" transform="translate(-779.828 -509.941)"/>
                  <path id="Trazado_678011" data-name="Trazado 678011" d="M1214.222,659.309a.314.314,0,1,1,.261-.36.314.314,0,0,1-.261.36" transform="translate(-798.092 -510.702)"/>
                  <path id="Trazado_678012" data-name="Trazado 678012" d="M1171.761,626.32c1.037,2.193.1,3.592.184,4.281s1.3,5.238-2.005,5.415l-2.1-7.5.64-3.222-.36-.622s2.609-.549,3.646,1.643" transform="translate(-745.518 -484.288)" fill="#4c222e"/>
                  <path id="Trazado_678013" data-name="Trazado 678013" d="M1175.882,651.025a1.887,1.887,0,1,1,1.564-2.163,1.887,1.887,0,0,1-1.564,2.163" transform="translate(-752.052 -501.856)" fill="#fe9f73"/>
                  <path id="Trazado_678014" data-name="Trazado 678014" d="M1177.908,652.174l-.111.152.016-.187a1.019,1.019,0,0,1,.366-.755,1.271,1.271,0,0,1,.9-.207.052.052,0,0,1-.017.1,1.184,1.184,0,0,0-.818.186.851.851,0,0,0-.3.519.887.887,0,0,1,.973-.192.738.738,0,0,1,.43.8.786.786,0,0,1-.637.7l-.011,0a.053.053,0,0,1-.016-.1l.011,0a.675.675,0,0,0,.549-.609.641.641,0,0,0-.367-.694.821.821,0,0,0-.965.283" transform="translate(-754.856 -504.872)" fill="#f07162"/>
                  <path id="Trazado_678015" data-name="Trazado 678015" d="M1184.668,679.984l-.094-2.493s3.477.135,4.7-2.921c0,0,.523,4.181-4.606,5.414" transform="translate(-766.315 -523.019)" fill="#f07162"/>
                  <path id="Trazado_678016" data-name="Trazado 678016" d="M1206.212,659.64a.052.052,0,0,1-.043.043h-.016l-1.179-.19-.067-2.581a.052.052,0,1,1,.1,0l.065,2.495,1.093.176a.052.052,0,0,1,.043.06" transform="translate(-787.807 -509.286)" fill="#f07162"/>
                  <path id="Trazado_678017" data-name="Trazado 678017" d="M1174.734,662.113l.854-.236.925,3.447-1.215.3Z" transform="translate(-751.329 -513.178)" fill="#fe9f73"/>
                  <path id="Trazado_678018" data-name="Trazado 678018" d="M1174.59,623.137c-.786-1.775.811-2.1.811-2.1s-.772-2.578,1.744-2.182,6.927-.418,8.528,1.6-2.565,3.68-2.565,3.68-7.731.783-8.517-.992" transform="translate(-760.773 -479.787)" fill="#4c222e"/>
                  <path id="Trazado_678019" data-name="Trazado 678019" d="M1179.387,637.207c-1.05-.349,1.623-1.319,1.714-1.29a12.257,12.257,0,0,1,1.6.585c-.217,0-1.769.371-1.769.371l.275,1.708a3.485,3.485,0,0,0-.075,2.352s-.455.256-.6-.13-.09-3.246-1.14-3.6" transform="translate(-758.525 -493.049)" fill="#4c222e"/>
                  <path id="Trazado_678020" data-name="Trazado 678020" d="M1203.607,672.063c.18.279.17.606-.023.73s-.495,0-.675-.28-.17-.606.023-.73.5,0,.675.28" transform="translate(-784.852 -520.821)" fill="#fff"/>
                  <rect id="Rectángulo_344928" data-name="Rectángulo 344928" width="9.284" height="81.088" transform="translate(305.365 161.963)" fill="#9e9da2"/>
                  <rect id="Rectángulo_344929" data-name="Rectángulo 344929" width="18.281" height="81.088" transform="translate(300.866 228.389)" fill="#3a2645"/>
                  <path id="Trazado_678021" data-name="Trazado 678021" d="M1757.06,1371.32H1614.92a1.757,1.757,0,0,1-1.757-1.757v-1.538a1.756,1.756,0,0,1,1.757-1.756H1757.06a1.756,1.756,0,0,1,1.756,1.756v1.538a1.756,1.756,0,0,1-1.756,1.757" transform="translate(-1432.131 -1059.318)" fill="#3a2645"/>
                  <rect id="Rectángulo_344930" data-name="Rectángulo 344930" width="57.229" height="42.227" transform="translate(324.803 267.249)" fill="#3a2645"/>
                  <rect id="Rectángulo_344931" data-name="Rectángulo 344931" width="63.282" height="42.227" transform="translate(451.267 267.249)" fill="#3a2645"/>
                  <path id="Trazado_678022" data-name="Trazado 678022" d="M1481.152,1263.823a27.623,27.623,0,1,1-27.544-27.71,27.627,27.627,0,0,1,27.544,27.71" transform="translate(-1112.397 -958.403)" fill="#1a1a1a"/>
                  <path id="Trazado_678023" data-name="Trazado 678023" d="M1501.749,1292.81a19.219,19.219,0,1,1-19.164-19.28,19.222,19.222,0,0,1,19.164,19.28" transform="translate(-1141.398 -987.414)" fill="#9e9da2"/>
                  <g id="Grupo_990992" data-name="Grupo 990992" transform="translate(324.803 289.412)" opacity="0.5" style="mix-blend-mode: multiply;isolation: isolate">
                    <g id="Grupo_990991" data-name="Grupo 990991">
                      <g id="Grupo_990990" data-name="Grupo 990990" clip-path="url(#clip-path-52)">
                        <path id="Trazado_678024" data-name="Trazado 678024" d="M1490.4,1288.2a19.22,19.22,0,0,1-27.091,26.064A19.22,19.22,0,1,0,1490.4,1288.2" transform="translate(-1463.311 -1288.201)" fill="#9e9da2"/>
                      </g>
                    </g>
                  </g>
                  <path id="Trazado_678025" data-name="Trazado 678025" d="M1517.352,1314.768a12.853,12.853,0,1,1-12.817-12.894,12.855,12.855,0,0,1,12.817,12.894" transform="translate(-1163.366 -1009.39)" fill="#d8d9dd"/>
                  <g id="Grupo_990995" data-name="Grupo 990995" transform="translate(330.397 294.644)" opacity="0.3" style="mix-blend-mode: screen;isolation: isolate">
                    <g id="Grupo_990994" data-name="Grupo 990994">
                      <g id="Grupo_990993" data-name="Grupo 990993" clip-path="url(#clip-path-53)">
                        <path id="Trazado_678026" data-name="Trazado 678026" d="M1509.509,1311.488a12.854,12.854,0,0,1-17.863,17.768,12.854,12.854,0,1,0,17.863-17.768" transform="translate(-1491.645 -1311.488)" fill="#d8d9dd"/>
                      </g>
                    </g>
                  </g>
                  <path id="Trazado_678027" data-name="Trazado 678027" d="M1545.165,1315.059a1.432,1.432,0,1,1-1.432-1.432,1.432,1.432,0,0,1,1.432,1.432" transform="translate(-1202.56 -1018.503)" fill="#9e9da2"/>
                  <path id="Trazado_678028" data-name="Trazado 678028" d="M1545.165,1393.034a1.432,1.432,0,1,1-1.432-1.432,1.432,1.432,0,0,1,1.432,1.432" transform="translate(-1202.56 -1078.959)" fill="#9e9da2"/>
                  <path id="Trazado_678029" data-name="Trazado 678029" d="M1504.739,1355.659a1.433,1.433,0,1,1,1.439-1.426,1.432,1.432,0,0,1-1.439,1.426" transform="translate(-1154.813 -1048.87)" fill="#9e9da2"/>
                  <path id="Trazado_678030" data-name="Trazado 678030" d="M1582.713,1355.3a1.433,1.433,0,1,1,1.44-1.426,1.433,1.433,0,0,1-1.44,1.426" transform="translate(-1250.306 -1048.592)" fill="#9e9da2"/>
                  <path id="Trazado_678031" data-name="Trazado 678031" d="M1515.274,1382.75a1.432,1.432,0,1,1,2.026.01,1.432,1.432,0,0,1-2.026-.01" transform="translate(-1168.953 -1070.204)" fill="#9e9da2"/>
                  <path id="Trazado_678032" data-name="Trazado 678032" d="M1570.156,1327.361a1.433,1.433,0,1,1,2.026.009,1.432,1.432,0,0,1-2.026-.009" transform="translate(-1236.166 -1027.259)" fill="#9e9da2"/>
                  <path id="Trazado_678033" data-name="Trazado 678033" d="M1570.419,1380.471a1.433,1.433,0,1,1-.01,2.026,1.432,1.432,0,0,1,.01-2.026" transform="translate(-1236.476 -1070.007)" fill="#9e9da2"/>
                  <path id="Trazado_678034" data-name="Trazado 678034" d="M1515.029,1325.589a1.433,1.433,0,1,1-.009,2.026,1.433,1.433,0,0,1,.009-2.026" transform="translate(-1168.643 -1027.456)" fill="#9e9da2"/>
                  <path id="Trazado_678035" data-name="Trazado 678035" d="M858.193,1306.035a22.28,22.28,0,1,1-22.217-22.351,22.284,22.284,0,0,1,22.217,22.351" transform="translate(-351.882 -995.286)" fill="#1a1a1a"/>
                  <path id="Trazado_678036" data-name="Trazado 678036" d="M874.808,1329.416a15.5,15.5,0,1,1-15.458-15.551,15.5,15.5,0,0,1,15.458,15.551" transform="translate(-375.275 -1018.687)" fill="#9e9da2"/>
                  <g id="Grupo_990998" data-name="Grupo 990998" transform="translate(470.86 297.836)" opacity="0.5" style="mix-blend-mode: multiply;isolation: isolate">
                    <g id="Grupo_990997" data-name="Grupo 990997">
                      <g id="Grupo_990996" data-name="Grupo 990996" clip-path="url(#clip-path-54)">
                        <path id="Trazado_678037" data-name="Trazado 678037" d="M865.656,1325.7a15.5,15.5,0,0,1-21.853,21.024,15.5,15.5,0,1,0,21.853-21.024" transform="translate(-843.804 -1325.698)" fill="#9e9da2"/>
                      </g>
                    </g>
                  </g>
                  <path id="Trazado_678038" data-name="Trazado 678038" d="M887.394,1347.127a10.367,10.367,0,1,1-10.338-10.4,10.369,10.369,0,0,1,10.338,10.4" transform="translate(-392.996 -1036.413)" fill="#d8d9dd"/>
                  <g id="Grupo_991001" data-name="Grupo 991001" transform="translate(475.372 302.056)" opacity="0.3" style="mix-blend-mode: screen;isolation: isolate">
                    <g id="Grupo_991000" data-name="Grupo 991000">
                      <g id="Grupo_990999" data-name="Grupo 990999" clip-path="url(#clip-path-55)">
                        <path id="Trazado_678039" data-name="Trazado 678039" d="M881.067,1344.482a10.368,10.368,0,0,1-14.409,14.332,10.368,10.368,0,1,0,14.409-14.332" transform="translate(-866.659 -1344.482)" fill="#d8d9dd"/>
                      </g>
                    </g>
                  </g>
                  <path id="Trazado_678040" data-name="Trazado 678040" d="M909.827,1347.364a1.156,1.156,0,1,1-1.156-1.156,1.155,1.155,0,0,1,1.156,1.156" transform="translate(-424.608 -1043.764)" fill="#9e9da2"/>
                  <path id="Trazado_678041" data-name="Trazado 678041" d="M909.827,1410.258a1.156,1.156,0,1,1-1.156-1.155,1.156,1.156,0,0,1,1.156,1.155" transform="translate(-424.608 -1092.529)" fill="#9e9da2"/>
                  <path id="Trazado_678042" data-name="Trazado 678042" d="M877.219,1380.11a1.156,1.156,0,1,1,1.161-1.151,1.156,1.156,0,0,1-1.161,1.151" transform="translate(-386.096 -1068.258)" fill="#9e9da2"/>
                  <path id="Trazado_678043" data-name="Trazado 678043" d="M940.113,1379.821a1.156,1.156,0,1,1,1.161-1.151,1.156,1.156,0,0,1-1.161,1.151" transform="translate(-463.12 -1068.033)" fill="#9e9da2"/>
                  <path id="Trazado_678044" data-name="Trazado 678044" d="M885.716,1401.962a1.156,1.156,0,1,1,1.634.008,1.156,1.156,0,0,1-1.634-.008" transform="translate(-397.501 -1085.466)" fill="#9e9da2"/>
                  <path id="Trazado_678045" data-name="Trazado 678045" d="M929.984,1357.285a1.156,1.156,0,1,1,1.634.007,1.156,1.156,0,0,1-1.634-.007" transform="translate(-451.715 -1050.826)" fill="#9e9da2"/>
                  <path id="Trazado_678046" data-name="Trazado 678046" d="M930.2,1400.124a1.156,1.156,0,1,1-.008,1.634,1.156,1.156,0,0,1,.008-1.634" transform="translate(-451.966 -1085.308)" fill="#9e9da2"/>
                  <path id="Trazado_678047" data-name="Trazado 678047" d="M885.52,1355.856a1.155,1.155,0,1,1-.007,1.634,1.156,1.156,0,0,1,.007-1.634" transform="translate(-397.251 -1050.985)" fill="#9e9da2"/>
                  <path id="Trazado_678048" data-name="Trazado 678048" d="M885.409,1091.116H831.944l-97.147,20.1-56.2-17.516v24.677a34.212,34.212,0,0,1,49.8,37.082h81.761a27.738,27.738,0,0,1,55.332,0H875.5a14.878,14.878,0,0,0,14.943-14.878v-44.434a5.03,5.03,0,0,0-5.031-5.031" transform="translate(-353.79 -845.982)" fill="#ffb357"/>
                  <path id="Trazado_678049" data-name="Trazado 678049" d="M760.454,992.276H734.028v43.454h47.2v-22.683a20.771,20.771,0,0,0-20.772-20.771" transform="translate(-257.03 -769.348)" fill="#ffb357"/>
                  <path id="Trazado_678050" data-name="Trazado 678050" d="M834.8,1280.415a3.069,3.069,0,0,1-3.069-3.069,24.377,24.377,0,0,0-48.754,0,3.069,3.069,0,1,1-6.138,0,30.514,30.514,0,0,1,61.029,0,3.069,3.069,0,0,1-3.069,3.069" transform="translate(-323.288 -966.714)" fill="#f2932c"/>
                  <path id="Trazado_678051" data-name="Trazado 678051" d="M1438.683,1227.678c-.047,0-.094,0-.141,0a3.069,3.069,0,0,1-2.927-3.2c.5-11.039-.619-26.625-16.033-34.51a31.481,31.481,0,0,0-29.1.188,3.069,3.069,0,1,1-3.2-5.24,37.357,37.357,0,0,1,35.09-.412,33.479,33.479,0,0,1,16.991,19.612c2.621,7.7,2.613,15.469,2.379,20.641a3.069,3.069,0,0,1-3.063,2.93" transform="translate(-1064.081 -915.132)" fill="#f2932c"/>
                  <rect id="Rectángulo_344936" data-name="Rectángulo 344936" width="47.185" height="1.336" transform="translate(477.01 243.798)" fill="#f2932c"/>
                  <rect id="Rectángulo_344937" data-name="Rectángulo 344937" width="22.684" height="1.507" transform="translate(504.116 254.902)" fill="#3a2645"/>
                  <rect id="Rectángulo_344938" data-name="Rectángulo 344938" width="22.684" height="1.507" transform="translate(504.116 259.64)" fill="#3a2645"/>
                  <rect id="Rectángulo_344939" data-name="Rectángulo 344939" width="22.684" height="1.507" transform="translate(504.116 264.378)" fill="#3a2645"/>
                  <rect id="Rectángulo_344940" data-name="Rectángulo 344940" width="22.684" height="1.507" transform="translate(504.116 269.115)" fill="#3a2645"/>
                  <rect id="Rectángulo_344941" data-name="Rectángulo 344941" width="1.334" height="37.238" transform="translate(485.219 244.656)" fill="#f2932c"/>
                  <path id="Trazado_678052" data-name="Trazado 678052" d="M962.267,1199.285H904.282v-36.893h2.261v34.631h54.894a47.155,47.155,0,0,1,8.77-15.138c6.181-7.17,17.455-15.51,36.056-14.521l-.12,2.258c-14.164-.755-25.659,3.847-34.165,13.671a44.486,44.486,0,0,0-8.623,15.165l-.232.824Z" transform="translate(-520.318 -901.245)" fill="#f2932c"/>
                  <path id="Trazado_678053" data-name="Trazado 678053" d="M1094.577,604.612l-95.992,19.861-56.2-17.516,46.632-113.422s13.4-29.1,44.6-29.863,45.56,0,45.56,0,14.529-.191,15.4,13.974,0,126.965,0,126.965m-12.911-10.576-.931-113.215a3.337,3.337,0,0,0-3.212-3.308c-7.048-.265-24.825-.755-43.523.135-24.12,1.149-33.883,24.886-33.883,24.886l-39.96,97.055c24.934,13.017,46.907,11.913,46.907,11.913Z" transform="translate(-617.579 -359.238)" fill="#51435b"/>
                  <path id="Trazado_678054" data-name="Trazado 678054" d="M1136.885,1371.32h-62.6a1.756,1.756,0,0,1-1.756-1.757v-1.538a1.756,1.756,0,0,1,1.756-1.756h62.6a1.756,1.756,0,0,1,1.756,1.756v1.538a1.756,1.756,0,0,1-1.756,1.757" transform="translate(-690.495 -1059.318)" fill="#1a1a1a"/>
                  <path id="Trazado_678055" data-name="Trazado 678055" d="M924.97,1145.306l9.571.027a.33.33,0,0,0,.331-.329l0-.991a.33.33,0,0,0-.329-.331l-9.571-.027a.33.33,0,0,0-.331.329l0,.991a.33.33,0,0,0,.329.331" transform="translate(-453.504 -886.717)" fill="#1a1a1a"/>
                  <rect id="Rectángulo_344942" data-name="Rectángulo 344942" width="0.646" height="21.214" transform="translate(324.48 247.718)" fill="#1d1d1b"/>
                  <path id="Trazado_678056" data-name="Trazado 678056" d="M1093.65,603.821l.256-.053,0-.261c.009-1.128.862-112.972,0-126.987-.88-14.309-15.58-14.284-15.705-14.277-.144-.008-14.727-.758-45.585,0-16.226.4-27.568,8.548-34.225,15.315a58.889,58.889,0,0,0-10.669,14.748L941.092,605.727l-.134.326,56.54,17.621.08.024ZM988.315,492.563a58.259,58.259,0,0,1,10.553-14.569c6.571-6.674,17.763-14.713,33.764-15.106,30.829-.757,45.391-.008,45.556,0a18.9,18.9,0,0,1,7.254,1.655c4.836,2.235,7.467,6.278,7.82,12.017.84,13.663.047,120.6,0,126.681L997.61,623.032l-55.786-17.386Zm17.772,118.152-.032-.645c-.219.011-22.024.939-46.48-11.74l39.848-96.782a46.9,46.9,0,0,1,7.853-11.936c4.935-5.492,13.408-12.163,25.747-12.75,18.758-.894,36.666-.392,43.5-.135a3.01,3.01,0,0,1,2.9,2.988l.646,0a3.654,3.654,0,0,0-3.522-3.628c-6.837-.258-24.768-.759-43.55.135-12.571.6-21.193,7.389-26.211,12.98a47.558,47.558,0,0,0-7.955,12.105L958.753,598.63l.262.137a103.947,103.947,0,0,0,45.879,11.968c.752,0,1.165-.018,1.194-.019" transform="translate(-616.587 -358.131)" fill="#1d1d1b"/>
                  <path id="Trazado_678057" data-name="Trazado 678057" d="M732.593,1013.929l0-.646,46.874-.238c-.068-8.749-3.378-15.027-9.842-18.665a23.558,23.558,0,0,0-9.92-2.88l-27.112-.016v-.646l27.118.016a23.751,23.751,0,0,1,10.208,2.95c4.658,2.614,10.209,8.13,10.194,19.562v.321Z" transform="translate(-255.593 -768.233)" fill="#1d1d1b"/>
                  <path id="Trazado_678058" data-name="Trazado 678058" d="M724.164,1154.73h-.019l-8.5-.068,0-.316c0-.162-.395-16.3-13.293-24.153a31.582,31.582,0,0,0-24.984-3.8l-.213-.61a32.244,32.244,0,0,1,25.533,3.858c12.194,7.422,13.464,22.047,13.59,24.38l7.858.063c5.815-.63,9.871-3.28,12.056-7.876a16.5,16.5,0,0,0,1.554-6.8l-.044-45.017a4.6,4.6,0,0,0-4.659-4.07h-7.428v-.646h7.423c.044-.005,4.7-.015,5.307,4.653l0,.042.044,45.028c0,.127.282,13.771-14.206,15.329Z" transform="translate(-201.416 -844.866)" fill="#1d1d1b"/>
                  <rect id="Rectángulo_344943" data-name="Rectángulo 344943" width="0.646" height="30.108" transform="translate(486.229 245.325)" fill="#1d1d1b"/>
                  <path id="Trazado_678059" data-name="Trazado 678059" d="M1453.2,1199.536a33.974,33.974,0,0,0-13.337-14.682,37.252,37.252,0,0,0-24.115-4.909c-8.778,1.334-13.239,4.5-13.283,4.537l-.38-.523c.185-.134,4.617-3.292,13.565-4.652a37.922,37.922,0,0,1,24.553,5,34.618,34.618,0,0,1,13.585,14.965Z" transform="translate(-1079.68 -914.064)" fill="#1d1d1b"/>
                  <path id="Trazado_678060" data-name="Trazado 678060" d="M1444.691,1239.535l-.646-.007c.141-13.073-5.9-20.968-5.961-21.047-10.883-14.043-25.817-11.748-25.966-11.725l-.106-.637c.153-.026,15.465-2.378,26.582,11.966.062.078,6.241,8.138,6.1,21.45" transform="translate(-1072.817 -935.026)" fill="#1d1d1b"/>
                  <path id="Trazado_678061" data-name="Trazado 678061" d="M1160.07,1208h-54.921l-.03-31.867h.646l.03,31.222h54.276Z" transform="translate(-719.245 -911.897)" fill="#1d1d1b"/>
                  <rect id="Rectángulo_344944" data-name="Rectángulo 344944" width="42.469" height="0.646" transform="translate(442.806 298.362) rotate(-179.933)" fill="#1d1d1b"/>
                  <path id="Trazado_678062" data-name="Trazado 678062" d="M1647.358,1093.926h-.646v-78.782h18.6v.646h-17.959Z" transform="translate(-1346.169 -787.078)" fill="#1d1d1b"/>
                  <rect id="Rectángulo_344945" data-name="Rectángulo 344945" width="86.728" height="0.646" transform="translate(227.921 306.647)" fill="#1d1d1b"/>
                  <path id="Trazado_678063" data-name="Trazado 678063" d="M1326.558,781.421l-13.276-22.565a1.186,1.186,0,0,1,.421-1.623l.9-.527a1.186,1.186,0,0,1,1.623.421l13.277,22.565a1.186,1.186,0,0,1-.421,1.623l-.9.527a1.186,1.186,0,0,1-1.623-.421" transform="translate(-935.567 -586.575)" fill="#1a1a1a"/>
                  <path id="Trazado_678064" data-name="Trazado 678064" d="M1287.721,810.286c4.421.471,8.638,3.428,10.636,4.281l-1.333,7.863a33.952,33.952,0,0,1-6.191-1.99c-1.034-.618-3.135-2.856-3.636-3.2-1.014-.338-3.614.49-2.637-1.527,0,0-1.01-.787-.193-1.564,0,0-1.12-.853.453-1.742-.623-1.4,1.887-1.914,2.9-2.126" transform="translate(-897.716 -628.245)" fill="#fe9f73"/>
                  <path id="Trazado_678065" data-name="Trazado 678065" d="M1324.358,817.552c.4-.471,4.426-1.142,4.573-.192-2.369-.782-3.229.3-4.573.192" transform="translate(-937.362 -633.356)" fill="#f07162"/>
                  <path id="Trazado_678066" data-name="Trazado 678066" d="M1327.385,826.37c-.825-.487,4.761-.749,4.2,0a8.96,8.96,0,0,0-4.2,0" transform="translate(-940.717 -640.352)" fill="#f07162"/>
                  <path id="Trazado_678067" data-name="Trazado 678067" d="M1329.043,833.3c-.5-.484,4.225-.707,3.7-.015-1.526-.559-3.23.047-3.7.015" transform="translate(-942.262 -645.74)" fill="#f07162"/>
                  <path id="Trazado_678068" data-name="Trazado 678068" d="M1214.291,817.628l-23.144.59a8.31,8.31,0,0,1-.393-.76,15.831,15.831,0,0,1-.854-8.358c.1-.683.193-1.094.193-1.094l21.957-3.911.1.576,1.992,12.033Z" transform="translate(-792.468 -623.444)" fill="#7fc6a6"/>
                  <path id="Trazado_678069" data-name="Trazado 678069" d="M1115.247,767.074l-.005-.323c12.206-.208,35.627-.778,36.906-1.446,1.527-.8,3.012-8.535,2.57-16.43a90.278,90.278,0,0,0-1.074-10.889l.317-.063a90.45,90.45,0,0,1,1.079,10.934c.421,7.5-.937,15.793-2.743,16.735-1.666.869-35.606,1.458-37.05,1.482" transform="translate(-716.566 -572.139)" fill="#1d1d1b"/>
                  <path id="Trazado_678070" data-name="Trazado 678070" d="M1172.209,803.357l-.056-.318c.184-.033,16.835-2.9,17-2.934l.061-.01,1.524.966-.173.273-1.419-.9-16.94,2.923" transform="translate(-764.977 -620.343)" fill="#1d1d1b"/>
                  <path id="Trazado_678071" data-name="Trazado 678071" d="M1173.893,772.848l-.315-.071a75.1,75.1,0,0,0,1.073-8.089l.322.025a75.4,75.4,0,0,1-1.081,8.135" transform="translate(-749.529 -592.891)" fill="#1d1d1b"/>
                  <rect id="Rectángulo_344946" data-name="Rectángulo 344946" width="53.299" height="106.032" transform="translate(159.388 259.174) rotate(-96.139)" fill="#c19e7a"/>
                  <rect id="Rectángulo_344947" data-name="Rectángulo 344947" width="53.299" height="26.344" transform="translate(159.388 259.174) rotate(-96.139)" fill="#b58a64"/>
                  <rect id="Rectángulo_344948" data-name="Rectángulo 344948" width="15.668" height="10.573" transform="translate(217.711 215.053) rotate(-96.139)" fill="#fec786"/>
                  <path id="Trazado_678072" data-name="Trazado 678072" d="M1997.977,919.06l-5.665-52.671-105.1,11.3-.069-.642,105.745-11.374,5.734,53.314Z" transform="translate(-1733.487 -671.191)" fill="#1d1d1b"/>
                  <rect id="Rectángulo_344949" data-name="Rectángulo 344949" width="0.646" height="72.743" transform="matrix(-0.107, -0.994, 0.994, -0.107, 171.704, 258.166)" fill="#1d1d1b"/>
                  <path id="Trazado_678073" data-name="Trazado 678073" d="M1850.663,729.355l-.645-.033,2.6-50.36.323.016,76.749,3.968-.033.645-76.427-3.951Z" transform="translate(-1656.22 -526.424)" fill="#1d1d1b"/>
                  <rect id="Rectángulo_344950" data-name="Rectángulo 344950" width="0.646" height="34.273" transform="translate(191.361 255.7)" fill="#1d1d1b"/>
                  <path id="Trazado_678074" data-name="Trazado 678074" d="M2049.283,1055.644l10.842-21.686-23.687-5.173,22.245-9.644-14.821-19.188,23.24,6.911.98-24.226,13.36,20.233,16.323-17.927-2.771,24.086,24.028-3.241-17.6,16.67,20.49,12.962-24.2,1.454,7.364,23.1-19.474-14.443-8.473,18.9-6.368-20.049Z" transform="translate(-1890.316 -761.876)" fill="#fffeff"/>
                  <path id="Trazado_678075" data-name="Trazado 678075" d="M2609.163,891.96a.189.189,0,0,1-.156.156l-2.548.43a.8.8,0,0,0-.672.851.78.78,0,0,0,.906.691l.351-.059a11.7,11.7,0,0,1,4.223.06l4.824.956a63.491,63.491,0,0,0,.712-6.514,1.557,1.557,0,0,0,.1-1.212l-3.385-3.708a.78.78,0,1,0-1.266.911l.952,2.044c-.955-.151-6.943-1.609-6.943-1.609a.78.78,0,0,0-.985.572.8.8,0,0,0,.561.929l3.864,1.163a.188.188,0,0,1,.132.212l-.032.2a.189.189,0,0,1-.217.156l-4.287-.7a.78.78,0,0,0-.9.7.8.8,0,0,0,.677.848l4.26.7a.19.19,0,0,1,.157.217l-.01.063a.19.19,0,0,1-.181.159l-3.89.133a1.012,1.012,0,0,0-.923.812.629.629,0,0,0,.667.757l3.814-.131a.189.189,0,0,1,.193.22" transform="translate(-2513.002 -684.845)" fill="#ffb699"/>
                  <path id="Trazado_678076" data-name="Trazado 678076" d="M2565.8,1390.379l-7.254,10.863,9.3,6.171,6.474-9.734Z" transform="translate(-2460.026 -1078.011)" fill="#ffb699"/>
                  <path id="Trazado_678077" data-name="Trazado 678077" d="M2608.51,1431.118a.3.3,0,0,0,.417-.087l.791-1.229a.44.44,0,0,0-.136-.606l-8.231-5.3-1.031-5.732-8.411-.345-1.314-.846a1.14,1.14,0,0,0-1.431.127,1.1,1.1,0,0,0,.207,1.7Z" transform="translate(-2502.303 -1098.482)" fill="#fec786"/>
                  <path id="Trazado_678078" data-name="Trazado 678078" d="M2598.73,1422.235s-4.629.178-5.7-4.335l-8.956-1.442s-2.323-.6-3.493.078l18.928,12.182,2.144-3.331a3.505,3.505,0,0,0-2.917-3.151" transform="translate(-2492.304 -1098.04)" fill="#49263e"/>
                  <rect id="Rectángulo_344951" data-name="Rectángulo 344951" width="0.167" height="3.942" transform="matrix(-0.841, -0.541, 0.541, -0.841, 107.279, 330.706)"/>
                  <path id="Trazado_678079" data-name="Trazado 678079" d="M2597.429,1438.347a5.97,5.97,0,0,1-3.772-1.248l-.109.124a4.124,4.124,0,0,0,.419.3,6.218,6.218,0,0,0,3.467.987Z" transform="translate(-2491.007 -1114.235)"/>
                  <path id="Trazado_678080" data-name="Trazado 678080" d="M2591.509,1463.415l-1.275.019,0,.165,1.274-.019Z" transform="translate(-2484.341 -1134.639)"/>
                  <path id="Trazado_678081" data-name="Trazado 678081" d="M2593.876,1460.834l-1.274.019,0,.165,1.275-.019Z" transform="translate(-2487.24 -1132.638)"/>
                  <path id="Trazado_678082" data-name="Trazado 678082" d="M2609.06,1430.579l.593-.921a.639.639,0,0,0-.2-.88l-18.925-12.18a1.19,1.19,0,0,0-1.646.344,1.173,1.173,0,0,0-.131.986l.158-.047a1.01,1.01,0,0,1,.113-.849,1.025,1.025,0,0,1,1.417-.3l18.926,12.18a.472.472,0,0,1,.146.651l-.593.921Z" transform="translate(-2502.235 -1098.191)"/>
                  <path id="Trazado_678083" data-name="Trazado 678083" d="M2621.61,1416.038c1.787.314,9.712,1.59,9.792,1.6l.025-.163c-.08-.013-8-1.289-9.789-1.6a4.1,4.1,0,0,0-2.736.231l.088.14a4.038,4.038,0,0,1,2.621-.209" transform="translate(-2530.695 -1097.7)"/>
                  <path id="Trazado_678084" data-name="Trazado 678084" d="M2655.736,1243.091l-7.255,10.863,9.3,6.17,6.474-9.733Z" transform="translate(-2570.173 -963.814)" fill="#ffb699"/>
                  <path id="Trazado_678085" data-name="Trazado 678085" d="M2698.449,1283.83a.3.3,0,0,0,.417-.087l.791-1.229a.44.44,0,0,0-.136-.606l-8.232-5.3-1.031-5.732-8.411-.345-1.315-.846a1.139,1.139,0,0,0-1.431.127,1.1,1.1,0,0,0,.208,1.7Z" transform="translate(-2612.45 -984.284)" fill="#fec786"/>
                  <path id="Trazado_678086" data-name="Trazado 678086" d="M2688.67,1274.947s-4.63.178-5.705-4.335l-8.956-1.442s-2.323-.6-3.494.077l18.928,12.182,2.144-3.331a3.506,3.506,0,0,0-2.917-3.151" transform="translate(-2602.451 -983.843)" fill="#49263e"/>
                  <rect id="Rectángulo_344952" data-name="Rectángulo 344952" width="0.167" height="3.942" transform="matrix(-0.841, -0.541, 0.541, -0.841, 87.073, 297.615)"/>
                  <path id="Trazado_678087" data-name="Trazado 678087" d="M2687.369,1291.059a5.971,5.971,0,0,1-3.772-1.248l-.109.123a4.065,4.065,0,0,0,.419.3,6.211,6.211,0,0,0,3.468.987Z" transform="translate(-2601.154 -1000.037)"/>
                  <path id="Trazado_678088" data-name="Trazado 678088" d="M2681.449,1316.127l-1.275.019,0,.165,1.275-.019Z" transform="translate(-2594.487 -1020.441)"/>
                  <path id="Trazado_678089" data-name="Trazado 678089" d="M2683.817,1313.546l-1.275.019,0,.164,1.275-.019Z" transform="translate(-2597.388 -1018.44)"/>
                  <path id="Trazado_678090" data-name="Trazado 678090" d="M2699,1283.291l.592-.921a.637.637,0,0,0-.2-.879l-18.925-12.18a1.19,1.19,0,0,0-1.646.345,1.17,1.17,0,0,0-.132.986l.159-.047a1.008,1.008,0,0,1,.113-.849,1.024,1.024,0,0,1,1.416-.3l18.926,12.18a.472.472,0,0,1,.146.651l-.592.921Z" transform="translate(-2612.381 -983.993)"/>
                  <path id="Trazado_678091" data-name="Trazado 678091" d="M2711.55,1268.75c1.788.314,9.712,1.59,9.792,1.6l.025-.163c-.081-.013-8-1.289-9.789-1.6a4.1,4.1,0,0,0-2.736.231l.088.14a4.045,4.045,0,0,1,2.621-.209" transform="translate(-2640.841 -983.502)"/>
                  <path id="Trazado_678092" data-name="Trazado 678092" d="M2380.947,1080.878s-27.8-14.373-32.661-13.777-28.78,29.1-36.512,44.192c0,0,6.1,8.035,12.239,7.969,0,0,23.123-29.228,24.477-31.687,0,0,10.05,9.877,19.081,10.511s23.573-1.759,24.307-2.083,9.475-7.516,9.072-8.458-20-6.668-20-6.668" transform="translate(-2231.23 -827.349)" fill="#13222d"/>
                  <path id="Trazado_678093" data-name="Trazado 678093" d="M2354.736,1156.758s-2.56,17.978-11.212,19.482-25.33-5.421-25.33-5.421-23.652,37.042-27.042,41.789c0,0-9.05-1.366-10.762-7.041,0,0,25.623-48.4,28.43-50.413s17-2.115,22.547-2.465c4.927-.31,11.862-5.47,11.862-5.47Z" transform="translate(-2177.953 -889.481)" fill="#223749"/>
                  <path id="Trazado_678094" data-name="Trazado 678094" d="M2327.436,844.179a7.357,7.357,0,0,0,2.251.127,4.506,4.506,0,0,0,4.067-3.444c.125-1.028-1.014-5.771-1.014-5.771l-.148-2.371-1.2-9.125-9.376,3.4.773,7.939s.149,2.695,2.53,2.8l-.091,5.318c-.033,1.346.887.848,2.2,1.128" transform="translate(-2166.333 -638.564)" fill="#ffb699"/>
                  <path id="Trazado_678095" data-name="Trazado 678095" d="M2345.048,849.593c1.529-.495,2.3,1.288,2.337,1.364a.111.111,0,0,0,.063.061.113.113,0,0,0,.144-.149c-.009-.021-.888-2.049-2.612-1.49a.112.112,0,1,0,.069.214" transform="translate(-2185.31 -658.48)" fill="#49263e"/>
                  <path id="Trazado_678096" data-name="Trazado 678096" d="M2368.094,850.67c-.618-.327-1.375.685-1.382.7a.109.109,0,0,1-.065.043.112.112,0,0,1-.115-.176c.036-.048.879-1.178,1.667-.76a.112.112,0,1,1-.1.2" transform="translate(-2210.823 -659.33)" fill="#49263e"/>
                  <path id="Trazado_678097" data-name="Trazado 678097" d="M2351.284,855.224a.337.337,0,1,0-.3.368.337.337,0,0,0,.3-.368" transform="translate(-2190.279 -662.851)"/>
                  <path id="Trazado_678098" data-name="Trazado 678098" d="M2367.3,855.276a.337.337,0,1,0-.3.368.336.336,0,0,0,.3-.368" transform="translate(-2209.895 -662.891)"/>
                  <path id="Trazado_678099" data-name="Trazado 678099" d="M2342.842,814.412l.134-2.437s.135-.423.281-1.055-1.85-2-3.5-2.745-2.473,1.133-3.873.668c-2.567-.853-.781,1.042-1.138,1.727-.725,1.389-2.583,2.906-2.225,4.018,1.2,3.736,10.324-.176,10.324-.176" transform="translate(-2178.183 -626.471)" fill="#49263e"/>
                  <path id="Trazado_678100" data-name="Trazado 678100" d="M2321.543,827.287c-.047-.743.795-2.139-.168-4.553a3.348,3.348,0,0,0-3.531-2.039l.343.69-1.222,3.031,2.073,8.53c3.542.031,2.553-4.914,2.506-5.657" transform="translate(-2153.273 -636.298)" fill="#49263e"/>
                  <path id="Trazado_678101" data-name="Trazado 678101" d="M2327.4,846.8a2.022,2.022,0,1,0-1.816,2.209,2.022,2.022,0,0,0,1.816-2.209" transform="translate(-2160.28 -655.139)" fill="#ffb699"/>
                  <path id="Trazado_678102" data-name="Trazado 678102" d="M2329.272,849.425a.056.056,0,0,0,.024-.11,1.363,1.363,0,0,0-.975.161,1.092,1.092,0,0,0-.442.783l-.03.2.129-.155a.879.879,0,0,1,1.051-.238.687.687,0,0,1,.346.767.725.725,0,0,1-.628.614h-.011a.056.056,0,1,0,.01.112h.012a.843.843,0,0,0,.728-.7.791.791,0,0,0-.407-.889.95.95,0,0,0-1.053.14.909.909,0,0,1,.358-.535,1.27,1.27,0,0,1,.888-.145" transform="translate(-2163.384 -658.483)" fill="#f07162"/>
                  <path id="Trazado_678103" data-name="Trazado 678103" d="M2341.628,874.012c-1.512,3.187-5.221,2.81-5.221,2.81l-.067,2.672c5.568-.975,5.288-5.482,5.288-5.482" transform="translate(-2177.417 -677.654)" fill="#f07162"/>
                  <path id="Trazado_678104" data-name="Trazado 678104" d="M2357.825,853.341a.055.055,0,0,0-.058.054l-.1,2.765,1.248.282a.056.056,0,1,0,.025-.11l-1.157-.262.1-2.672a.056.056,0,0,0-.054-.058" transform="translate(-2199.561 -661.626)" fill="#f07162"/>
                  <path id="Trazado_678105" data-name="Trazado 678105" d="M2357.45,871.048c.107.274.053.55-.118.616s-.4-.1-.5-.375-.053-.549.119-.616.4.1.5.374" transform="translate(-2197.883 -675.054)" fill="#fff"/>
                  <path id="Trazado_678106" data-name="Trazado 678106" d="M2399.936,896.456s-16.926,3.828-18.991,3.814-26.213-4.812-26.213-4.812-1.852,5.106-1.381,9.353c0,0,23.31,9.41,24.292,9.511s34.219-.357,34.219-.357Z" transform="translate(-2251.453 -694.282)" fill="#7fc6a6"/>
                  <path id="Trazado_678107" data-name="Trazado 678107" d="M2040.226,732.089a.19.19,0,0,0,.216.044l2.356-1.061a.8.8,0,0,1,1.033.333.78.78,0,0,1-.368,1.078l-.325.146a11.7,11.7,0,0,0-3.474,2.4l-3.476,3.48a63.344,63.344,0,0,1-4.218-5.016c-.387-.257-.77-.669-.76-.949l.749-4.965a.78.78,0,0,1,1.559.052l.346,2.228c.709-.657,4.873-5.2,4.873-5.2a.78.78,0,0,1,1.137-.073.8.8,0,0,1,.051,1.084l-2.563,3.117a.19.19,0,0,0,.008.25l.139.148a.189.189,0,0,0,.267.009l3.172-2.968a.78.78,0,0,1,1.136.076.8.8,0,0,1-.09,1.081l-3.152,2.95a.189.189,0,0,0-.009.268l.044.047a.189.189,0,0,0,.238.031l3.306-2.054a1.011,1.011,0,0,1,1.219.161h0a.628.628,0,0,1-.132,1l-3.242,2.014a.189.189,0,0,0-.039.29" transform="translate(-1811.158 -561.633)" fill="#ffb699"/>
                  <path id="Trazado_678108" data-name="Trazado 678108" d="M2058.147,789.734s16.193-6.239,17.9-7.4,25.676-25.175,25.676-25.175,5.521,1.951,7.494,5.741c0,0-21.846,28.641-22.6,29.271s-28.629,18.747-28.629,18.747Z" transform="translate(-1882.468 -587.053)" fill="#7fc6a6"/>
                  <path id="Trazado_678109" data-name="Trazado 678109" d="M2274.047,897.554s2.184,2.468,4.646,8.291c2.251,5.321,1.552,14.741,1.3,21.3-.522,13.741-8.1,36.036-8.1,36.036l-27.067-13.747s3.358-11.136-.054-26.78a70.2,70.2,0,0,1-1.218-24.549s15.485-.388,30.486-.552" transform="translate(-2095.117 -695.906)" fill="#7fc6a6"/>
                  <rect id="Rectángulo_344953" data-name="Rectángulo 344953" width="0.203" height="24.494" transform="translate(182.66 219.417) rotate(-123.365)" fill="#1d1d1b"/>
                  <path id="Trazado_678110" data-name="Trazado 678110" d="M2242.878,996.043c2.8-11.358,2.1-26.869,2.093-27.024l-.2.01c.008.155.7,15.637-2.087,26.966Z" transform="translate(-2059.798 -751.316)" fill="#1d1d1b"/>
                  <path id="Trazado_678111" data-name="Trazado 678111" d="M2120.293,811.4l7.52-.154.017-.007c.573-.235,14.057-5.761,15.125-6.322s18.389-17.868,19.125-18.6l-.143-.144c-.18.18-18.025,18.016-19.076,18.568s-14.521,6.074-15.09,6.307l-7.482.154Z" transform="translate(-1949.33 -609.543)" fill="#1d1d1b"/>
                  <path id="Trazado_678112" data-name="Trazado 678112" d="M2396.221,959.114a59.445,59.445,0,0,0-.46-22.362,87.077,87.077,0,0,1-1.867-22.707l-.2-.014a87.248,87.248,0,0,0,1.872,22.767,59.194,59.194,0,0,1,.459,22.276Z" transform="translate(-2245.72 -708.682)" fill="#1d1d1b"/>
                  <path id="Trazado_678113" data-name="Trazado 678113" d="M2378.369,904.987l1.028-1.95,18.905-3.78,6.347-.144,0-.2-6.365.146-19.017,3.8-1.073,2.035Z" transform="translate(-2249.838 -696.958)" fill="#1d1d1b"/>
                  <rect id="Rectángulo_344954" data-name="Rectángulo 344954" width="26.651" height="0.203" transform="matrix(-0.984, -0.181, 0.181, -0.984, 129.473, 206.09)" fill="#1d1d1b"/>
                  <path id="Trazado_678114" data-name="Trazado 678114" d="M2381.573,1191.925c2.266-4.1,10.081-17.477,11.1-18.4s6.85-1.544,8.615-1.711c1.711-.163,14.414-.789,14.542-.8l-.01-.2c-.128.006-12.836.633-14.552.8-2.281.216-7.7.821-8.732,1.763-1.075.98-9.2,14.953-11.137,18.454Z" transform="translate(-2261.735 -907.775)" fill="#1d1d1b"/>
                  <path id="Trazado_678115" data-name="Trazado 678115" d="M2319.878,1245.159c3.655.378,5.755.127,7.706-.786,2.554-1.2,4.963-5.587,5.064-5.774l-.178-.1c-.025.045-2.479,4.52-4.973,5.687s-5.279,1.231-11.418.247c-5.817-.934-15.319-4.637-15.96-4.888l-2.006-3.58-.177.1,2.04,3.643.034.013c.1.04,10.021,3.948,16.036,4.913,1.449.233,2.713.407,3.83.523" transform="translate(-2159.808 -958.291)" fill="#1d1d1b"/>
                  <rect id="Rectángulo_344955" data-name="Rectángulo 344955" width="0.203" height="49.776" transform="matrix(-0.84, -0.543, 0.543, -0.84, 113.284, 323.182)" fill="#1d1d1b"/>
                  <path id="Trazado_678116" data-name="Trazado 678116" d="M2506.483,1147.684l.09-.182a49.379,49.379,0,0,1-11.611-8.262l-1.513-5.454-.2.055,1.526,5.5.018.019a49.606,49.606,0,0,0,11.684,8.321" transform="translate(-2377.613 -879.065)" fill="#1d1d1b"/>
                  <path id="Trazado_678117" data-name="Trazado 678117" d="M2545.1,1189.875c.958-1.219,23.487-29.883,24.486-31.7l-.178-.1c-.99,1.8-24.234,31.375-24.468,31.674Z" transform="translate(-2452.239 -897.899)" fill="#1d1d1b"/>
                  <path id="Trazado_678118" data-name="Trazado 678118" d="M2323.993,807.217l-7.753.867-.833-.4s-.134-4.574,2.709-6.775,7.258-1.31,9.265.26,3.2,6.651,2.523,8.032l-2.263-1.505Z" transform="translate(-2161.18 -619.952)" fill="#f7ab47"/>
                  <path id="Trazado_678119" data-name="Trazado 678119" d="M2324.685,831.5a33.027,33.027,0,0,0-8.138,1.827.217.217,0,0,1-.205-.375l1.05-1.624a21.285,21.285,0,0,1,11.488-.8c2.736.511,3.008,2.319,3.008,2.319s-2.346-1.807-7.2-1.345" transform="translate(-2163.163 -643.604)" fill="#f99926"/>
                  <path id="Trazado_678120" data-name="Trazado 678120" d="M2345.6,799.036c-.6,1.513-.493,5.24-.493,5.24l-1.634.1s-.962-5.3,1.149-6.9,2.706.118,2.706.118-1.1-.139-1.729,1.447" transform="translate(-2184.669 -617.779)" fill="#f9b767"/>
                  <path id="Trazado_678121" data-name="Trazado 678121" d="M1173.753,611.3l-7.279.3-.749-.43s.175-4.27,2.968-6.133,6.847-.744,8.614.85,2.547,6.407,1.823,7.648l-2.009-1.551Z" transform="translate(-752.191 -468.357)" fill="#f7ab47"/>
                  <path id="Trazado_678122" data-name="Trazado 678122" d="M1174.879,633.737a30.872,30.872,0,0,0-7.7,1.168.2.2,0,0,1-.166-.363l1.083-1.444a19.879,19.879,0,0,1,10.756.007c2.515.656,2.65,2.358,2.65,2.358s-2.066-1.837-6.621-1.725" transform="translate(-754.561 -490.282)" fill="#f99926"/>
                  <path id="Trazado_678123" data-name="Trazado 678123" d="M1191.711,603.708a18.2,18.2,0,0,0-.8,4.849l-1.529-.017s-.548-5,1.524-6.353,2.513.287,2.513.287-1.018-.2-1.7,1.234" transform="translate(-771.507 -466.481)" fill="#f9b767"/>
                </g>
              </g>
            </g>
          </g>
        </g>
      </g>
    </g>
  </g>
</svg>
