<svg xmlns="http://www.w3.org/2000/svg" xmlns:xlink="http://www.w3.org/1999/xlink" width="400" height="326.403" viewBox="0 0 400 326.403">
  <defs>
    <clipPath id="clip-path">
      <rect id="Rectángulo_344866" data-name="Rectángulo 344866" width="358" height="312" transform="translate(215 14634)" fill="#fff" opacity="0.31"/>
    </clipPath>
    <clipPath id="clip-path-2">
      <rect id="Rectángulo_344872" data-name="Rectángulo 344872" width="62.052" height="41.691" fill="none"/>
    </clipPath>
    <clipPath id="clip-path-4">
      <rect id="Rectángulo_344867" data-name="Rectángulo 344867" width="44.655" height="22.248" fill="none"/>
    </clipPath>
    <clipPath id="clip-path-5">
      <rect id="Rectángulo_344868" data-name="Rectángulo 344868" width="62.052" height="31.026" fill="none"/>
    </clipPath>
    <clipPath id="clip-path-6">
      <rect id="Rectángulo_344870" data-name="Rectángulo 344870" width="61.222" height="4.544" fill="none"/>
    </clipPath>
    <clipPath id="clip-path-7">
      <path id="Trazado_677915" data-name="Trazado 677915" d="M65.681,401.648c0,1.255-13.705,2.272-30.611,2.272S4.459,402.9,4.459,401.648s13.705-2.272,30.611-2.272,30.611,1.017,30.611,2.272" transform="translate(-4.459 -399.376)" fill="none"/>
    </clipPath>
    <radialGradient id="radial-gradient" cx="0.5" cy="0.5" r="6.245" gradientTransform="matrix(0.074, 0, 0, -0.058, -0.006, 1.058)" gradientUnits="objectBoundingBox">
      <stop offset="0" stop-color="#c1d6e3"/>
      <stop offset="1" stop-color="#fff"/>
    </radialGradient>
    <clipPath id="clip-path-9">
      <rect id="Rectángulo_344871-2" data-name="Rectángulo 344871" width="62.052" height="41.691" fill="#fad427"/>
    </clipPath>
    <clipPath id="clip-path-22">
      <rect id="Rectángulo_344867-4" data-name="Rectángulo 344867" width="44.655" height="22.248" fill="#e1e1e1"/>
    </clipPath>
    <clipPath id="clip-path-32">
      <rect id="Rectángulo_344829" data-name="Rectángulo 344829" width="344.191" height="340.519" fill="none"/>
    </clipPath>
    <filter id="Trazado_677754" x="8.14" y="147.334" width="259.237" height="226.806" filterUnits="userSpaceOnUse">
      <feOffset dy="3" input="SourceAlpha"/>
      <feGaussianBlur stdDeviation="3" result="blur"/>
      <feFlood flood-opacity="0.161"/>
      <feComposite operator="in" in2="blur"/>
      <feComposite in="SourceGraphic"/>
    </filter>
    <clipPath id="clip-path-33">
      <rect id="Rectángulo_344865" data-name="Rectángulo 344865" width="398.09" height="94.138" fill="none"/>
    </clipPath>
  </defs>
  <g id="Grupo_991974" data-name="Grupo 991974" transform="translate(-180 -13982)">
    <g id="Grupo_990885" data-name="Grupo 990885" transform="translate(0 -652)">
      <path id="Rectángulo_344818" data-name="Rectángulo 344818" d="M0,0H370a30,30,0,0,1,30,30V226.267a30,30,0,0,1-30,30H0a0,0,0,0,1,0,0V0A0,0,0,0,1,0,0Z" transform="translate(180 14634)" fill="#ffc721"/>
      <g id="Grupo_990884" data-name="Grupo 990884" transform="translate(196 14646)">
        <g id="Grupo_80111" data-name="Grupo 80111" transform="translate(95.174)">
          <path id="Trazado_113526" data-name="Trazado 113526" d="M339.792,1091.06l-66.674-66.675a3.33,3.33,0,0,1,0-4.709h0a3.33,3.33,0,0,1,4.711,0l66.673,66.673a3.33,3.33,0,0,1,0,4.711h0A3.332,3.332,0,0,1,339.792,1091.06Z" transform="translate(-272.143 -1018.7)" fill="#f9931f"/>
        </g>
        <g id="Grupo_80112" data-name="Grupo 80112" transform="translate(127.892 8.925)">
          <path id="Trazado_113527" data-name="Trazado 113527" d="M363,1067.107l-25.031-25.031a3.331,3.331,0,0,1,0-4.709h0a3.33,3.33,0,0,1,4.712,0l25.029,25.029a3.33,3.33,0,0,1,0,4.711h0A3.33,3.33,0,0,1,363,1067.107Z" transform="translate(-336.993 -1036.39)" fill="#f9931f"/>
        </g>
        <g id="Grupo_80113" data-name="Grupo 80113" transform="translate(71.384)">
          <path id="Trazado_113528" data-name="Trazado 113528" d="M316.428,1114.849l-90.463-90.463a3.328,3.328,0,0,1,0-4.709h0a3.328,3.328,0,0,1,4.71,0l90.464,90.463a3.328,3.328,0,0,1,0,4.71h0A3.329,3.329,0,0,1,316.428,1114.849Z" transform="translate(-224.989 -1018.7)" fill="#f9931f"/>
        </g>
        <g id="Grupo_80114" data-name="Grupo 80114" transform="translate(52.559 4.963)">
          <path id="Trazado_113529" data-name="Trazado 113529" d="M292.975,1138.549,188.651,1034.225a3.33,3.33,0,0,1,0-4.711h0a3.328,3.328,0,0,1,4.71,0l104.326,104.326a3.332,3.332,0,0,1,0,4.71h0A3.33,3.33,0,0,1,292.975,1138.549Z" transform="translate(-187.675 -1028.537)" fill="#f9931f"/>
        </g>
        <g id="Grupo_80115" data-name="Grupo 80115" transform="translate(36.913 13.106)">
          <path id="Trazado_113530" data-name="Trazado 113530" d="M269.467,1162.192,157.639,1050.364a3.33,3.33,0,0,1,0-4.711h0a3.331,3.331,0,0,1,4.71,0l111.829,111.83a3.331,3.331,0,0,1,0,4.71h0A3.331,3.331,0,0,1,269.467,1162.192Z" transform="translate(-156.663 -1044.677)" fill="#f9931f"/>
        </g>
        <g id="Grupo_80116" data-name="Grupo 80116" transform="translate(23.807 23.806)">
          <path id="Trazado_113531" data-name="Trazado 113531" d="M245.9,1185.807,131.661,1071.572a3.334,3.334,0,0,1,0-4.711h0a3.333,3.333,0,0,1,4.712,0L250.608,1181.1a3.334,3.334,0,0,1,0,4.712h0A3.334,3.334,0,0,1,245.9,1185.807Z" transform="translate(-130.686 -1065.885)" fill="#f9931f"/>
        </g>
        <g id="Grupo_80117" data-name="Grupo 80117" transform="translate(13.107 36.912)">
          <path id="Trazado_113532" data-name="Trazado 113532" d="M222.283,1209.378,110.453,1097.549a3.331,3.331,0,0,1,0-4.71h0a3.33,3.33,0,0,1,4.711,0l111.828,111.828a3.33,3.33,0,0,1,0,4.711h0A3.331,3.331,0,0,1,222.283,1209.378Z" transform="translate(-109.478 -1091.863)" fill="#f9931f"/>
        </g>
        <g id="Grupo_80118" data-name="Grupo 80118" transform="translate(4.963 52.558)">
          <path id="Trazado_113533" data-name="Trazado 113533" d="M198.638,1232.887,94.312,1128.561a3.329,3.329,0,0,1,0-4.71h0a3.328,3.328,0,0,1,4.71,0l104.326,104.324a3.331,3.331,0,0,1,0,4.712h0A3.328,3.328,0,0,1,198.638,1232.887Z" transform="translate(-93.336 -1122.875)" fill="#f9931f"/>
        </g>
        <g id="Grupo_80119" data-name="Grupo 80119" transform="translate(0 71.384)">
          <path id="Trazado_113534" data-name="Trazado 113534" d="M174.939,1256.339l-90.464-90.463a3.328,3.328,0,0,1,0-4.71h0a3.328,3.328,0,0,1,4.71,0l90.464,90.464a3.328,3.328,0,0,1,0,4.71h0A3.328,3.328,0,0,1,174.939,1256.339Z" transform="translate(-83.499 -1160.189)" fill="#f9931f"/>
        </g>
        <g id="Grupo_80120" data-name="Grupo 80120" transform="translate(0 95.174)">
          <path id="Trazado_113535" data-name="Trazado 113535" d="M151.148,1279.7l-66.673-66.673a3.33,3.33,0,0,1,0-4.712h0a3.332,3.332,0,0,1,4.71,0l66.675,66.675a3.331,3.331,0,0,1,0,4.71h0A3.33,3.33,0,0,1,151.148,1279.7Z" transform="translate(-83.499 -1207.343)" fill="#f9931f"/>
        </g>
        <g id="Grupo_80121" data-name="Grupo 80121" transform="translate(8.926 127.892)">
          <path id="Trazado_113536" data-name="Trazado 113536" d="M127.2,1302.908l-25.029-25.029a3.331,3.331,0,0,1,0-4.712h0a3.332,3.332,0,0,1,4.71,0l25.031,25.031a3.332,3.332,0,0,1,0,4.709h0A3.33,3.33,0,0,1,127.2,1302.908Z" transform="translate(-101.191 -1272.193)" fill="#f9931f"/>
        </g>
        <g id="Elipse_7611" data-name="Elipse 7611" transform="translate(18 86)" fill="none" stroke="#ebebeb" stroke-width="4">
          <circle cx="15" cy="15" r="15" stroke="none"/>
          <circle cx="15" cy="15" r="13" fill="none"/>
        </g>
      </g>
      <g id="Enmascarar_grupo_164" data-name="Enmascarar grupo 164" transform="translate(-18 12)" clip-path="url(#clip-path)">
        <g id="Grupo_990851" data-name="Grupo 990851" transform="translate(215.14 14643.889)">
          <g id="Grupo_990874" data-name="Grupo 990874" transform="translate(-12.122)">
            <rect id="Rectángulo_344820" data-name="Rectángulo 344820" width="153.891" height="182.215" transform="translate(214.544 -0.003)" fill="#353535"/>
            <rect id="Rectángulo_344821" data-name="Rectángulo 344821" width="147.195" height="172.805" transform="translate(217.982 7.854)" fill="#fff"/>
            <rect id="Rectángulo_344822" data-name="Rectángulo 344822" width="84.301" height="7.913" transform="translate(250.156 3.115)" fill="#c6c6c6"/>
            <g id="Grupo_990875" data-name="Grupo 990875" transform="translate(-186.018 -14655.889)">
              <g id="Grupo_990879" data-name="Grupo 990879" transform="translate(-0.091 3)">
                <g id="Grupo_990869" data-name="Grupo 990869" transform="translate(411.091 14676.979)">
                  <g id="Enmascarar_grupo_990868" data-name="Enmascarar grupo 990868" transform="translate(0)" clip-path="url(#clip-path-2)">
                    <g id="Grupo_990867" data-name="Grupo 990867">
                      <g id="Grupo_990866" data-name="Grupo 990866" clip-path="url(#clip-path-2)">
                        <path id="Trazado_677902" data-name="Trazado 677902" d="M57.9,15.511A31.026,31.026,0,0,0,0,31.026H11.063a19.962,19.962,0,0,1,39.925,0H62.052A30.882,30.882,0,0,0,57.9,15.511" fill="#fff"/>
                        <path id="Trazado_677903" data-name="Trazado 677903" d="M343.551,13.741l5.535-9.587A30.882,30.882,0,0,0,333.571,0V11.064a19.862,19.862,0,0,1,9.98,2.677" transform="translate(-302.545 -0.001)" fill="#afafaf"/>
                        <path id="Trazado_677904" data-name="Trazado 677904" d="M61.543,54.238l-5.535-9.587A31.177,31.177,0,0,0,44.65,56.009l9.587,5.535a20.051,20.051,0,0,1,7.306-7.306" transform="translate(-40.497 -40.498)" fill="#afafaf"/>
                        <path id="Trazado_677905" data-name="Trazado 677905" d="M182.278,11.064V0a30.882,30.882,0,0,0-15.515,4.153L172.3,13.74a19.862,19.862,0,0,1,9.98-2.677" transform="translate(-151.252)" fill="#afafaf"/>
                        <path id="Trazado_677906" data-name="Trazado 677906" d="M448.175,61.544l9.587-5.535A31.177,31.177,0,0,0,446.4,44.651l-5.535,9.587a20.051,20.051,0,0,1,7.306,7.306" transform="translate(-399.863 -40.498)" fill="#afafaf"/>
                        <path id="Trazado_677907" data-name="Trazado 677907" d="M522.094,182.278h11.064A30.882,30.882,0,0,0,529,166.763l-9.587,5.535a19.863,19.863,0,0,1,2.677,9.98" transform="translate(-471.105 -151.252)" fill="#afafaf"/>
                        <path id="Trazado_677908" data-name="Trazado 677908" d="M11.064,182.278a19.862,19.862,0,0,1,2.677-9.98l-9.587-5.535A30.882,30.882,0,0,0,0,182.278Z" transform="translate(0 -151.252)" fill="#99c817"/>
                        <g id="Grupo_990857" data-name="Grupo 990857" transform="translate(8.699 8.778)" style="mix-blend-mode: color-burn;isolation: isolate">
                          <g id="Grupo_990856" data-name="Grupo 990856">
                            <g id="Grupo_990855" data-name="Grupo 990855" clip-path="url(#clip-path-4)">
                              <path id="Trazado_677909" data-name="Trazado 677909" d="M135.184,105.542a22.327,22.327,0,0,0-41.662,11.082h2.365a19.962,19.962,0,0,1,39.925,0h2.365a22.216,22.216,0,0,0-2.992-11.082" transform="translate(-93.522 -94.376)" fill="#919191"/>
                            </g>
                          </g>
                        </g>
                        <path id="Trazado_677910" data-name="Trazado 677910" d="M0,0,23.8,8.184l.9-3.37Z" transform="translate(11.75 19.903) rotate(14)" fill="#303030"/>
                        <path id="Trazado_677911" data-name="Trazado 677911" d="M300.335,296.5a3.8,3.8,0,1,1-3.8-3.8,3.8,3.8,0,0,1,3.8,3.8" transform="translate(-265.511 -265.482)" fill="#303030"/>
                        <path id="Trazado_677912" data-name="Trazado 677912" d="M309.953,307.222a2.7,2.7,0,1,1-2.7-2.7,2.7,2.7,0,0,1,2.7,2.7" transform="translate(-276.229 -276.199)" fill="#fff"/>
                        <path id="Trazado_677913" data-name="Trazado 677913" d="M317,315.071a1.894,1.894,0,1,1-1.894-1.894A1.894,1.894,0,0,1,317,315.071" transform="translate(-284.078 -284.048)" fill="#303030"/>
                        <g id="Grupo_990860" data-name="Grupo 990860" style="mix-blend-mode: soft-light;isolation: isolate">
                          <g id="Grupo_990859" data-name="Grupo 990859">
                            <g id="Grupo_990858" data-name="Grupo 990858" clip-path="url(#clip-path-5)">
                              <path id="Trazado_677914" data-name="Trazado 677914" d="M4.153,16.755a31.03,31.03,0,0,1,53.746,0,30.856,30.856,0,0,1,4.126,14.271h.027A31.026,31.026,0,1,0,0,31.026H.027A30.855,30.855,0,0,1,4.153,16.755" fill="#fff"/>
                            </g>
                          </g>
                        </g>
                        <g id="Grupo_990865" data-name="Grupo 990865" transform="translate(5.25 35.938)" style="mix-blend-mode: multiply;isolation: isolate">
                          <g id="Grupo_990864" data-name="Grupo 990864" transform="translate(0 0)">
                            <g id="Grupo_990863" data-name="Grupo 990863" clip-path="url(#clip-path-6)">
                              <g id="Grupo_990862" data-name="Grupo 990862" transform="translate(0)">
                                <g id="Grupo_990861" data-name="Grupo 990861" clip-path="url(#clip-path-7)">
                                  <rect id="Rectángulo_344869" data-name="Rectángulo 344869" width="61.222" height="4.544" transform="translate(0)" fill="url(#radial-gradient)"/>
                                </g>
                              </g>
                            </g>
                          </g>
                        </g>
                      </g>
                    </g>
                  </g>
                </g>
                <g id="Grupo_990872" data-name="Grupo 990872" transform="translate(411.091 14727.75)">
                  <g id="Enmascarar_grupo_990868-2" data-name="Enmascarar grupo 990868" transform="translate(0)" clip-path="url(#clip-path-2)">
                    <g id="Grupo_990867-2" data-name="Grupo 990867">
                      <g id="Grupo_990866-2" data-name="Grupo 990866" clip-path="url(#clip-path-9)">
                        <path id="Trazado_677902-2" data-name="Trazado 677902" d="M57.9,15.511A31.026,31.026,0,0,0,0,31.026H11.063a19.962,19.962,0,0,1,39.925,0H62.052A30.882,30.882,0,0,0,57.9,15.511" fill="#fff"/>
                        <path id="Trazado_677903-2" data-name="Trazado 677903" d="M343.551,13.741l5.535-9.587A30.882,30.882,0,0,0,333.571,0V11.064a19.862,19.862,0,0,1,9.98,2.677" transform="translate(-302.545 -0.001)" fill="#afafaf"/>
                        <path id="Trazado_677904-2" data-name="Trazado 677904" d="M61.543,54.238l-5.535-9.587A31.177,31.177,0,0,0,44.65,56.009l9.587,5.535a20.051,20.051,0,0,1,7.306-7.306" transform="translate(-40.497 -40.498)" fill="#fad427"/>
                        <path id="Trazado_677905-2" data-name="Trazado 677905" d="M182.278,11.064V0a30.882,30.882,0,0,0-15.515,4.153L172.3,13.74a19.862,19.862,0,0,1,9.98-2.677" transform="translate(-151.252)" fill="#fad427"/>
                        <path id="Trazado_677906-2" data-name="Trazado 677906" d="M448.175,61.544l9.587-5.535A31.177,31.177,0,0,0,446.4,44.651l-5.535,9.587a20.051,20.051,0,0,1,7.306,7.306" transform="translate(-399.863 -40.498)" fill="#afafaf"/>
                        <path id="Trazado_677907-2" data-name="Trazado 677907" d="M522.094,182.278h11.064A30.882,30.882,0,0,0,529,166.763l-9.587,5.535a19.863,19.863,0,0,1,2.677,9.98" transform="translate(-471.105 -151.252)" fill="#afafaf"/>
                        <path id="Trazado_677908-2" data-name="Trazado 677908" d="M11.064,182.278a19.862,19.862,0,0,1,2.677-9.98l-9.587-5.535A30.882,30.882,0,0,0,0,182.278Z" transform="translate(0 -151.252)" fill="#fad427"/>
                        <g id="Grupo_990857-2" data-name="Grupo 990857" transform="translate(8.699 8.778)" style="mix-blend-mode: color-burn;isolation: isolate">
                          <g id="Grupo_990856-2" data-name="Grupo 990856">
                            <g id="Grupo_990855-2" data-name="Grupo 990855" clip-path="url(#clip-path-4)">
                              <path id="Trazado_677909-2" data-name="Trazado 677909" d="M135.184,105.542a22.327,22.327,0,0,0-41.662,11.082h2.365a19.962,19.962,0,0,1,39.925,0h2.365a22.216,22.216,0,0,0-2.992-11.082" transform="translate(-93.522 -94.376)" fill="#919191"/>
                            </g>
                          </g>
                        </g>
                        <path id="Trazado_677910-2" data-name="Trazado 677910" d="M0,0,23.8,8.184l.9-3.37Z" transform="matrix(0.259, 0.966, -0.966, 0.259, 31.174, 5.824)" fill="#303030"/>
                        <path id="Trazado_677911-2" data-name="Trazado 677911" d="M300.335,296.5a3.8,3.8,0,1,1-3.8-3.8,3.8,3.8,0,0,1,3.8,3.8" transform="translate(-265.511 -265.482)" fill="#303030"/>
                        <path id="Trazado_677912-2" data-name="Trazado 677912" d="M309.953,307.222a2.7,2.7,0,1,1-2.7-2.7,2.7,2.7,0,0,1,2.7,2.7" transform="translate(-276.229 -276.199)" fill="#fff"/>
                        <path id="Trazado_677913-2" data-name="Trazado 677913" d="M317,315.071a1.894,1.894,0,1,1-1.894-1.894A1.894,1.894,0,0,1,317,315.071" transform="translate(-284.078 -284.048)" fill="#303030"/>
                        <g id="Grupo_990860-2" data-name="Grupo 990860" style="mix-blend-mode: soft-light;isolation: isolate">
                          <g id="Grupo_990859-2" data-name="Grupo 990859">
                            <g id="Grupo_990858-2" data-name="Grupo 990858" clip-path="url(#clip-path-5)">
                              <path id="Trazado_677914-2" data-name="Trazado 677914" d="M4.153,16.755a31.03,31.03,0,0,1,53.746,0,30.856,30.856,0,0,1,4.126,14.271h.027A31.026,31.026,0,1,0,0,31.026H.027A30.855,30.855,0,0,1,4.153,16.755" fill="#fff"/>
                            </g>
                          </g>
                        </g>
                        <g id="Grupo_990865-2" data-name="Grupo 990865" transform="translate(5.25 35.938)" style="mix-blend-mode: multiply;isolation: isolate">
                          <g id="Grupo_990864-2" data-name="Grupo 990864" transform="translate(0 0)">
                            <g id="Grupo_990863-2" data-name="Grupo 990863" clip-path="url(#clip-path-6)">
                              <g id="Grupo_990862-2" data-name="Grupo 990862" transform="translate(0)">
                                <g id="Grupo_990861-2" data-name="Grupo 990861" clip-path="url(#clip-path-7)">
                                  <rect id="Rectángulo_344869-2" data-name="Rectángulo 344869" width="61.222" height="4.544" transform="translate(0)" fill="url(#radial-gradient)"/>
                                </g>
                              </g>
                            </g>
                          </g>
                        </g>
                      </g>
                    </g>
                  </g>
                </g>
                <g id="Grupo_990870" data-name="Grupo 990870" transform="translate(481.98 14676.979)">
                  <g id="Enmascarar_grupo_990868-3" data-name="Enmascarar grupo 990868" transform="translate(0)" clip-path="url(#clip-path-2)">
                    <g id="Grupo_990867-3" data-name="Grupo 990867">
                      <g id="Grupo_990866-3" data-name="Grupo 990866" clip-path="url(#clip-path-2)">
                        <path id="Trazado_677902-3" data-name="Trazado 677902" d="M57.9,15.511A31.026,31.026,0,0,0,0,31.026H11.063a19.962,19.962,0,0,1,39.925,0H62.052A30.882,30.882,0,0,0,57.9,15.511" fill="#fff"/>
                        <path id="Trazado_677903-3" data-name="Trazado 677903" d="M343.551,13.741l5.535-9.587A30.882,30.882,0,0,0,333.571,0V11.064a19.862,19.862,0,0,1,9.98,2.677" transform="translate(-302.545 -0.001)" fill="#afafaf"/>
                        <path id="Trazado_677904-3" data-name="Trazado 677904" d="M61.543,54.238l-5.535-9.587A31.177,31.177,0,0,0,44.65,56.009l9.587,5.535a20.051,20.051,0,0,1,7.306-7.306" transform="translate(-40.497 -40.498)" fill="#99c817"/>
                        <path id="Trazado_677905-3" data-name="Trazado 677905" d="M182.278,11.064V0a30.882,30.882,0,0,0-15.515,4.153L172.3,13.74a19.862,19.862,0,0,1,9.98-2.677" transform="translate(-151.252)" fill="#afafaf"/>
                        <path id="Trazado_677906-3" data-name="Trazado 677906" d="M448.175,61.544l9.587-5.535A31.177,31.177,0,0,0,446.4,44.651l-5.535,9.587a20.051,20.051,0,0,1,7.306,7.306" transform="translate(-399.863 -40.498)" fill="#afafaf"/>
                        <path id="Trazado_677907-3" data-name="Trazado 677907" d="M522.094,182.278h11.064A30.882,30.882,0,0,0,529,166.763l-9.587,5.535a19.863,19.863,0,0,1,2.677,9.98" transform="translate(-471.105 -151.252)" fill="#afafaf"/>
                        <path id="Trazado_677908-3" data-name="Trazado 677908" d="M11.064,182.278a19.862,19.862,0,0,1,2.677-9.98l-9.587-5.535A30.882,30.882,0,0,0,0,182.278Z" transform="translate(0 -151.252)" fill="#99c817"/>
                        <g id="Grupo_990857-3" data-name="Grupo 990857" transform="translate(8.699 8.778)" style="mix-blend-mode: color-burn;isolation: isolate">
                          <g id="Grupo_990856-3" data-name="Grupo 990856">
                            <g id="Grupo_990855-3" data-name="Grupo 990855" clip-path="url(#clip-path-4)">
                              <path id="Trazado_677909-3" data-name="Trazado 677909" d="M135.184,105.542a22.327,22.327,0,0,0-41.662,11.082h2.365a19.962,19.962,0,0,1,39.925,0h2.365a22.216,22.216,0,0,0-2.992-11.082" transform="translate(-93.522 -94.376)" fill="#919191"/>
                            </g>
                          </g>
                        </g>
                        <g id="Grupo_990875-2" data-name="Grupo 990875" transform="translate(12.946 9.865)">
                          <path id="Trazado_677910-3" data-name="Trazado 677910" d="M0,0,23.8,8.184l.9-3.37Z" transform="matrix(0.719, 0.695, -0.695, 0.719, 5.685, 0)" fill="#303030"/>
                          <path id="Trazado_677911-3" data-name="Trazado 677911" d="M300.335,296.5a3.8,3.8,0,1,1-3.8-3.8,3.8,3.8,0,0,1,3.8,3.8" transform="translate(-278.457 -275.347)" fill="#303030"/>
                          <path id="Trazado_677912-3" data-name="Trazado 677912" d="M309.953,307.222a2.7,2.7,0,1,1-2.7-2.7,2.7,2.7,0,0,1,2.7,2.7" transform="translate(-289.174 -286.064)" fill="#fff"/>
                          <path id="Trazado_677913-3" data-name="Trazado 677913" d="M317,315.071a1.894,1.894,0,1,1-1.894-1.894A1.894,1.894,0,0,1,317,315.071" transform="translate(-297.024 -293.914)" fill="#303030"/>
                        </g>
                        <g id="Grupo_990860-3" data-name="Grupo 990860" style="mix-blend-mode: soft-light;isolation: isolate">
                          <g id="Grupo_990859-3" data-name="Grupo 990859">
                            <g id="Grupo_990858-3" data-name="Grupo 990858" clip-path="url(#clip-path-5)">
                              <path id="Trazado_677914-3" data-name="Trazado 677914" d="M4.153,16.755a31.03,31.03,0,0,1,53.746,0,30.856,30.856,0,0,1,4.126,14.271h.027A31.026,31.026,0,1,0,0,31.026H.027A30.855,30.855,0,0,1,4.153,16.755" fill="#fff"/>
                            </g>
                          </g>
                        </g>
                        <g id="Grupo_990865-3" data-name="Grupo 990865" transform="translate(5.25 35.938)" style="mix-blend-mode: multiply;isolation: isolate">
                          <g id="Grupo_990864-3" data-name="Grupo 990864" transform="translate(0 0)">
                            <g id="Grupo_990863-3" data-name="Grupo 990863" clip-path="url(#clip-path-6)">
                              <g id="Grupo_990862-3" data-name="Grupo 990862" transform="translate(0)">
                                <g id="Grupo_990861-3" data-name="Grupo 990861" clip-path="url(#clip-path-7)">
                                  <rect id="Rectángulo_344869-3" data-name="Rectángulo 344869" width="61.222" height="4.544" transform="translate(0)" fill="url(#radial-gradient)"/>
                                </g>
                              </g>
                            </g>
                          </g>
                        </g>
                      </g>
                    </g>
                  </g>
                </g>
                <g id="Grupo_990871" data-name="Grupo 990871" transform="translate(481.98 14727.75)">
                  <g id="Enmascarar_grupo_990868-4" data-name="Enmascarar grupo 990868" transform="translate(0)" clip-path="url(#clip-path-2)">
                    <g id="Grupo_990867-4" data-name="Grupo 990867">
                      <g id="Grupo_990866-4" data-name="Grupo 990866" clip-path="url(#clip-path-2)">
                        <path id="Trazado_677902-4" data-name="Trazado 677902" d="M57.9,15.511A31.026,31.026,0,0,0,0,31.026H11.063a19.962,19.962,0,0,1,39.925,0H62.052A30.882,30.882,0,0,0,57.9,15.511" fill="#fff"/>
                        <path id="Trazado_677903-4" data-name="Trazado 677903" d="M343.551,13.741l5.535-9.587A30.882,30.882,0,0,0,333.571,0V11.064a19.862,19.862,0,0,1,9.98,2.677" transform="translate(-302.545 -0.001)" fill="#ef651a"/>
                        <path id="Trazado_677904-4" data-name="Trazado 677904" d="M61.543,54.238l-5.535-9.587A31.177,31.177,0,0,0,44.65,56.009l9.587,5.535a20.051,20.051,0,0,1,7.306-7.306" transform="translate(-40.497 -40.498)" fill="#ef651a"/>
                        <path id="Trazado_677905-4" data-name="Trazado 677905" d="M182.278,11.064V0a30.882,30.882,0,0,0-15.515,4.153L172.3,13.74a19.862,19.862,0,0,1,9.98-2.677" transform="translate(-151.252)" fill="#ef651a"/>
                        <path id="Trazado_677906-4" data-name="Trazado 677906" d="M448.175,61.544l9.587-5.535A31.177,31.177,0,0,0,446.4,44.651l-5.535,9.587a20.051,20.051,0,0,1,7.306,7.306" transform="translate(-399.863 -40.498)" fill="#ef651a"/>
                        <path id="Trazado_677907-4" data-name="Trazado 677907" d="M522.094,182.278h11.064A30.882,30.882,0,0,0,529,166.763l-9.587,5.535a19.863,19.863,0,0,1,2.677,9.98" transform="translate(-471.105 -151.252)" fill="#afafaf"/>
                        <path id="Trazado_677908-4" data-name="Trazado 677908" d="M11.064,182.278a19.862,19.862,0,0,1,2.677-9.98l-9.587-5.535A30.882,30.882,0,0,0,0,182.278Z" transform="translate(0 -151.252)" fill="#ef651a"/>
                        <g id="Grupo_990857-4" data-name="Grupo 990857" transform="translate(8.699 8.778)" style="mix-blend-mode: color-burn;isolation: isolate">
                          <g id="Grupo_990856-4" data-name="Grupo 990856">
                            <g id="Grupo_990855-4" data-name="Grupo 990855" clip-path="url(#clip-path-22)">
                              <path id="Trazado_677909-4" data-name="Trazado 677909" d="M135.184,105.542a22.327,22.327,0,0,0-41.662,11.082h2.365a19.962,19.962,0,0,1,39.925,0h2.365a22.216,22.216,0,0,0-2.992-11.082" transform="translate(-93.522 -94.376)" fill="#e1e1e1"/>
                            </g>
                          </g>
                        </g>
                        <g id="Grupo_990860-4" data-name="Grupo 990860" style="mix-blend-mode: soft-light;isolation: isolate">
                          <g id="Grupo_990859-4" data-name="Grupo 990859">
                            <g id="Grupo_990858-4" data-name="Grupo 990858" clip-path="url(#clip-path-5)">
                              <path id="Trazado_677914-4" data-name="Trazado 677914" d="M4.153,16.755a31.03,31.03,0,0,1,53.746,0,30.856,30.856,0,0,1,4.126,14.271h.027A31.026,31.026,0,1,0,0,31.026H.027A30.855,30.855,0,0,1,4.153,16.755" fill="#fff"/>
                            </g>
                          </g>
                        </g>
                        <g id="Grupo_990865-4" data-name="Grupo 990865" transform="translate(5.25 35.938)" style="mix-blend-mode: multiply;isolation: isolate">
                          <g id="Grupo_990864-4" data-name="Grupo 990864" transform="translate(0 0)">
                            <g id="Grupo_990863-4" data-name="Grupo 990863" clip-path="url(#clip-path-6)">
                              <g id="Grupo_990862-4" data-name="Grupo 990862" transform="translate(0)">
                                <g id="Grupo_990861-4" data-name="Grupo 990861" clip-path="url(#clip-path-7)">
                                  <rect id="Rectángulo_344869-4" data-name="Rectángulo 344869" width="61.222" height="4.544" transform="translate(0)" fill="url(#radial-gradient)"/>
                                </g>
                              </g>
                            </g>
                          </g>
                        </g>
                        <g id="Grupo_990876" data-name="Grupo 990876" transform="translate(45.778 9.779)">
                          <path id="Trazado_677916" data-name="Trazado 677916" d="M-7848.453,3046.976l7.924-7.752s1.725,1.89,2.411,2.9,1.808,2.841,1.808,2.841l-9.505,5.659s-.525-.831-1.107-1.718A19.011,19.011,0,0,0-7848.453,3046.976Z" transform="translate(7848.453 -3039.18)" fill="#afafaf"/>
                          <path id="Trazado_677917" data-name="Trazado 677917" d="M-7848.453,3046.711l1.648-1.618s1.272,1.508,1.959,2.517a17.6,17.6,0,0,1,1.086,1.809l-2.055.938s-.525-.831-1.107-1.718A19,19,0,0,0-7848.453,3046.711Z" transform="translate(7848.453 -3038.916)" fill="#a4a4a4"/>
                          <path id="Trazado_677918" data-name="Trazado 677918" d="M-7841.516,3039.9s.761.8,1.847,1.977c.132.14.542.522.862.914a17.809,17.809,0,0,1,1.083,1.594c.266.394.627.98.627.98l.6-.209a18.074,18.074,0,0,0-1.646-2.665c-1.071-1.453-2.733-3.309-2.733-3.309Z" transform="translate(7848.765 -3039.182)" fill="#d3d3d3"/>
                        </g>
                        <g id="Grupo_990878" data-name="Grupo 990878" transform="translate(27.152 14.853)">
                          <path id="Trazado_677910-4" data-name="Trazado 677910" d="M24.708,0,.9,8.184,0,4.815Z" transform="matrix(0.891, -0.454, 0.454, 0.891, 0, 11.217)" fill="#303030"/>
                          <g id="Grupo_990877" data-name="Grupo 990877" transform="translate(0.076 12.372)">
                            <path id="Trazado_677911-4" data-name="Trazado 677911" d="M300.335,296.5a3.8,3.8,0,1,1-3.8-3.8,3.8,3.8,0,0,1,3.8,3.8" transform="translate(-292.739 -292.707)" fill="#303030"/>
                            <path id="Trazado_677912-4" data-name="Trazado 677912" d="M309.953,307.222a2.7,2.7,0,1,1-2.7-2.7,2.7,2.7,0,0,1,2.7,2.7" transform="translate(-303.457 -303.424)" fill="#fff"/>
                            <path id="Trazado_677913-4" data-name="Trazado 677913" d="M317,315.071a1.894,1.894,0,1,1-1.894-1.894A1.894,1.894,0,0,1,317,315.071" transform="translate(-311.306 -311.273)" fill="#303030"/>
                          </g>
                        </g>
                      </g>
                    </g>
                  </g>
                </g>
              </g>
              <g id="Grupo_990873" data-name="Grupo 990873" transform="translate(446 14781.154)">
                <g id="Enmascarar_grupo_990868-5" data-name="Enmascarar grupo 990868" transform="translate(0)" clip-path="url(#clip-path-2)">
                  <g id="Grupo_990867-5" data-name="Grupo 990867">
                    <g id="Grupo_990866-5" data-name="Grupo 990866" clip-path="url(#clip-path-2)">
                      <path id="Trazado_677902-5" data-name="Trazado 677902" d="M57.9,15.511A31.026,31.026,0,0,0,0,31.026H11.063a19.962,19.962,0,0,1,39.925,0H62.052A30.882,30.882,0,0,0,57.9,15.511" fill="#fff"/>
                      <path id="Trazado_677903-5" data-name="Trazado 677903" d="M343.551,13.741l5.535-9.587A30.882,30.882,0,0,0,333.571,0V11.064a19.862,19.862,0,0,1,9.98,2.677" transform="translate(-302.545 -0.001)" fill="#e03c33"/>
                      <path id="Trazado_677904-5" data-name="Trazado 677904" d="M61.543,54.238l-5.535-9.587A31.177,31.177,0,0,0,44.65,56.009l9.587,5.535a20.051,20.051,0,0,1,7.306-7.306" transform="translate(-40.497 -40.498)" fill="#e03c33"/>
                      <path id="Trazado_677905-5" data-name="Trazado 677905" d="M182.278,11.064V0a30.882,30.882,0,0,0-15.515,4.153L172.3,13.74a19.862,19.862,0,0,1,9.98-2.677" transform="translate(-151.252)" fill="#e03c33"/>
                      <path id="Trazado_677906-5" data-name="Trazado 677906" d="M448.175,61.544l9.587-5.535A31.177,31.177,0,0,0,446.4,44.651l-5.535,9.587a20.051,20.051,0,0,1,7.306,7.306" transform="translate(-399.863 -40.498)" fill="#e03c33"/>
                      <path id="Trazado_677907-5" data-name="Trazado 677907" d="M522.094,182.278h11.064A30.882,30.882,0,0,0,529,166.763l-9.587,5.535a19.863,19.863,0,0,1,2.677,9.98" transform="translate(-471.105 -151.252)" fill="#afafaf"/>
                      <path id="Trazado_677908-5" data-name="Trazado 677908" d="M11.064,182.278a19.862,19.862,0,0,1,2.677-9.98l-9.587-5.535A30.882,30.882,0,0,0,0,182.278Z" transform="translate(0 -151.252)" fill="#e03c33"/>
                      <g id="Grupo_990857-5" data-name="Grupo 990857" transform="translate(8.699 8.778)" style="mix-blend-mode: color-burn;isolation: isolate">
                        <g id="Grupo_990856-5" data-name="Grupo 990856">
                          <g id="Grupo_990855-5" data-name="Grupo 990855" clip-path="url(#clip-path-4)">
                            <path id="Trazado_677909-5" data-name="Trazado 677909" d="M135.184,105.542a22.327,22.327,0,0,0-41.662,11.082h2.365a19.962,19.962,0,0,1,39.925,0h2.365a22.216,22.216,0,0,0-2.992-11.082" transform="translate(-93.522 -94.376)" fill="#919191"/>
                          </g>
                        </g>
                      </g>
                      <path id="Trazado_677910-5" data-name="Trazado 677910" d="M97.322,263.384l-23.805,8.184-.9-3.37Z" transform="matrix(0.966, -0.259, 0.259, 0.966, -107.96, -211.605)" fill="#303030"/>
                      <path id="Trazado_677911-5" data-name="Trazado 677911" d="M300.335,296.5a3.8,3.8,0,1,1-3.8-3.8,3.8,3.8,0,0,1,3.8,3.8" transform="translate(-265.511 -265.482)" fill="#303030"/>
                      <path id="Trazado_677912-5" data-name="Trazado 677912" d="M309.953,307.222a2.7,2.7,0,1,1-2.7-2.7,2.7,2.7,0,0,1,2.7,2.7" transform="translate(-276.229 -276.199)" fill="#fff"/>
                      <path id="Trazado_677913-5" data-name="Trazado 677913" d="M317,315.071a1.894,1.894,0,1,1-1.894-1.894A1.894,1.894,0,0,1,317,315.071" transform="translate(-284.078 -284.048)" fill="#303030"/>
                      <g id="Grupo_990860-5" data-name="Grupo 990860" style="mix-blend-mode: soft-light;isolation: isolate">
                        <g id="Grupo_990859-5" data-name="Grupo 990859">
                          <g id="Grupo_990858-5" data-name="Grupo 990858" clip-path="url(#clip-path-5)">
                            <path id="Trazado_677914-5" data-name="Trazado 677914" d="M4.153,16.755a31.03,31.03,0,0,1,53.746,0,30.856,30.856,0,0,1,4.126,14.271h.027A31.026,31.026,0,1,0,0,31.026H.027A30.855,30.855,0,0,1,4.153,16.755" fill="#fff"/>
                          </g>
                        </g>
                      </g>
                      <g id="Grupo_990865-5" data-name="Grupo 990865" transform="translate(5.25 35.938)" style="mix-blend-mode: multiply;isolation: isolate">
                        <g id="Grupo_990864-5" data-name="Grupo 990864" transform="translate(0 0)">
                          <g id="Grupo_990863-5" data-name="Grupo 990863" clip-path="url(#clip-path-6)">
                            <g id="Grupo_990862-5" data-name="Grupo 990862" transform="translate(0)">
                              <g id="Grupo_990861-5" data-name="Grupo 990861" clip-path="url(#clip-path-7)">
                                <rect id="Rectángulo_344869-5" data-name="Rectángulo 344869" width="61.222" height="4.544" transform="translate(0)" fill="url(#radial-gradient)"/>
                              </g>
                            </g>
                          </g>
                        </g>
                      </g>
                    </g>
                  </g>
                </g>
              </g>
            </g>
          </g>
          <g id="Grupo_990852" data-name="Grupo 990852" transform="translate(0 -0.003)">
            <g id="Grupo_990851-2" data-name="Grupo 990851" transform="translate(0 0)" clip-path="url(#clip-path-32)">
              <path id="Trazado_677749" data-name="Trazado 677749" d="M1919.911,1591.108c5.377-2.485,7.209-6.565,8.827-8.6,1.832-2.3,8.551-6.714,8.595-10.779.059-5.5-7.579-15.08-9.735-13.631-2.194,1.474-1.35,2.929,1.47,7.867a15.166,15.166,0,0,1,.817,3.565c-2.936-3.486-4.487-4.871-6.462-6.1-1.9-1.187-7.232-3.029-8.938-1.324-1.966,1.964,1.2,3.931.946,3.881a27.9,27.9,0,0,0-4.662-.568c-2.767-.044-4.813-.528-5.726.846-1.492,2.248,1.663,3.542,2.245,4-6.173.85-6.429,1.6-7.747,2.519-2.862,2.006-5.968,6.823-10.211,11.415s-22.378,15.54-22.378,15.54l16.359,17.622s10.88-15.5,15.805-18.92,15.417-4.847,20.795-7.332" transform="translate(-1661.801 -1386.757)" fill="#d8a77d"/>
              <path id="Trazado_677750" data-name="Trazado 677750" d="M2185.477,1669.9c.711-2.043,5.225-2.279,6.246-2.14a19.161,19.161,0,0,1,2.533.66,31.428,31.428,0,0,1,5.269,1.818,7.324,7.324,0,0,1,3.737,6.666c.041,1.552,0,3.244-.065,4.712h-.779c.063-1.46.106-3.146.064-4.691a6.583,6.583,0,0,0-3.37-6.025,32.7,32.7,0,0,0-5.076-1.731,14.12,14.12,0,0,0-2.541-.682c-1.821-.168-4.876.506-5.282,1.67a1.383,1.383,0,0,0,.157,1.285,4.149,4.149,0,0,0,3.029,1.466c2.3.171,5.139,1.143,6.23,3.358a8.022,8.022,0,0,1-.075,5.35l-.744-.235a7.479,7.479,0,0,0,.119-4.771c-.945-1.92-3.506-2.77-5.588-2.925a5.3,5.3,0,0,1-3.326-1.439,2.892,2.892,0,0,1-.3-.377,2.17,2.17,0,0,1-.241-1.969" transform="translate(-1945.206 -1484.465)" fill="#a2552f"/>
              <path id="Trazado_677751" data-name="Trazado 677751" d="M2138.467,1756.7l-.425-.654a13.1,13.1,0,0,1,7.09-1.878,16.407,16.407,0,0,1,3.607.383l-.189.757.095-.378-.094.378c-.057-.014-5.8-1.394-10.083,1.392" transform="translate(-1903.102 -1561.407)" fill="#a2552f"/>
              <path id="Trazado_677752" data-name="Trazado 677752" d="M2307.446,1627.1c.331.141,1.418.5,1.769.633a10.979,10.979,0,0,1,3.7,2,13.062,13.062,0,0,1,3.632,5.968c.474,1.656-.21,7.633-.218,7.693l.775.09c.029-.252.709-6.193.194-8a13.833,13.833,0,0,0-3.846-6.32A11.754,11.754,0,0,0,2309.5,1627c-.323-.124-1.376-.468-1.67-.59Z" transform="translate(-2053.891 -1447.693)" fill="#a2552f"/>
              <path id="Trazado_677753" data-name="Trazado 677753" d="M2432.98,1657.711h0l.389.026.389.027a16.434,16.434,0,0,0-.253-3.618,15.508,15.508,0,0,0-.879-3.108l-.669.433a16.4,16.4,0,0,1,1.023,6.24" transform="translate(-2164.72 -1469.613)" fill="#a2552f"/>
              <g transform="matrix(1, 0, 0, 1, -17.14, -21.89)" filter="url(#Trazado_677754)">
                <path id="Trazado_677754-2" data-name="Trazado 677754" d="M241.237,1288.365l-18.341,17c-16.331,14.476-37.94,20.631-51.9,15.83a19.779,19.779,0,0,1-11.226-9.061l8.467,87.88.23,3.19.115,1.6-67.706.217H92.964l-68.269-.217.115-1.6.229-3.19,8.686-88.289a56.829,56.829,0,0,1-8.154.715,37.025,37.025,0,0,1-7.065-.56c-23.461-4.3-17.942-31.816-17.942-31.816s9.1-46.53,36.141-69.986A57.692,57.692,0,0,1,47.9,1202.4a48.306,48.306,0,0,1,18.3-5.328l.2-.02h0c.449-.043.9-.083,1.355-.119q2.383-.194,4.865-.282.608-.023,1.223-.037,1.635-.041,3.312-.033c4.222.017,8.647-.343,13.3-.36q2.662-.012,5.238.018,2.575-.029,5.236-.018c4.659.018,9.083.378,13.306.36q3.595-.015,6.993.157.94.048,1.863.108l.519.035c.458.032.911.067,1.361.1l.154.012c.474.038.944.081,1.411.126q1.607.153,3.168.349c.556.069,1.112.13,1.658.221a55.339,55.339,0,0,1,20.051,7.473,61.089,61.089,0,0,1,10.8,8.491c24.42,23.931,29.137,64.978,29.137,64.978l28.956-13.9Z" transform="translate(17.14 -1042.89)" fill="#f6f6f6"/>
              </g>
              <path id="Trazado_677755" data-name="Trazado 677755" d="M867.221,1413.406l-3.89-35.249.736-.009,1.589-5.458H854.334l1.535,5.557.5-.006-3.17,35.165Z" transform="translate(-759.447 -1221.851)"/>
              <path id="Trazado_677756" data-name="Trazado 677756" d="M369.437,1406.724H225.781l.228-3.19,8.687-88.289c-2.546.4,4.721-84.569,14.171-109.326a49.731,49.731,0,0,1,6.1-2.667,47.64,47.64,0,0,1,9.907-2.41q1.136-.153,2.3-.252l.2-.02h0c.449-.043.9-.083,1.355-.119q2.383-.194,4.865-.282c6.59,16.2,25.414,57.376,26.742,57.391,1.323-.015,26.712-56.964,27.179-56.919q1.607.153,3.168.349c.556.069,1.112.13,1.658.221q1.368.228,2.694.515a55.151,55.151,0,0,1,17.356,6.958c6.409,24.347,5.433,88.409,8.352,106.968l8.467,87.88Z" transform="translate(-200.971 -1068.288)" fill="#f27006"/>
              <path id="Trazado_677757" data-name="Trazado 677757" d="M448.162,1206.29l-6.6,205.856v.026l-.067,2.082-9.79-1.246.026-.836v-.026l6.527-203.447a47.648,47.648,0,0,1,9.907-2.41" transform="translate(-384.262 -1073.736)" fill="#12263f"/>
              <path id="Trazado_677758" data-name="Trazado 677758" d="M1236.319,1420.2l-9.677,1.232-.067-2.082-6.576-205a55.273,55.273,0,0,1,9.814,3.082l6.478,201.914Z" transform="translate(-1085.939 -1080.91)" fill="#12263f"/>
              <path id="Trazado_677759" data-name="Trazado 677759" d="M709.639,1544.042l7.276,17.989c10.537-4.951,16.578-3.919,21.513-4.833a50.485,50.485,0,0,0,14.1-4.327s6.357-1.711,5.606-4.942a2.532,2.532,0,0,0-2.578-2.1c.429-.26,3.569-1.19,2.889-4.119-.628-2.713-2.912-1.866-3.735-2.1,0,0,3.583-1.3,2.862-3.384-.85-2.461-3.365-2.2-4.2-2.461l10.985-3.2c2.482-.877,8.175-2.062,7.259-5.484-1.021-3.806-13.771,1.629-37.07,6.7-.953.207-3.2,1.216-3.6-1.45s2.231-9.911,2.6-12.752-3.347-9.523-4.48-4.266c-.94,4.36-2.143,4.566-3.486,7.981-.688,1.742-.582,4.141-2.711,9s-3.091,9.685-6.315,11.015c-1.994.823-4.326,1.746-6.911,2.741" transform="translate(-631.66 -1345.274)" fill="#d8a77d"/>
              <rect id="Rectángulo_344823" data-name="Rectángulo 344823" width="10.573" height="0.869" transform="matrix(0.966, -0.258, 0.258, 0.966, 111.252, 191.055)" fill="#a2552f"/>
              <rect id="Rectángulo_344824" data-name="Rectángulo 344824" width="10.573" height="0.869" transform="matrix(0.966, -0.258, 0.258, 0.966, 112.501, 196.83)" fill="#a2552f"/>
              <rect id="Rectángulo_344825" data-name="Rectángulo 344825" width="10.573" height="0.869" transform="matrix(0.966, -0.258, 0.258, 0.966, 113.304, 202.785)" fill="#a2552f"/>
              <path id="Trazado_679398" data-name="Trazado 679398" d="M0,0H89.856V22.576H0Z" transform="translate(55.758 223.69)" fill="#12263f"/>
              <rect id="Rectángulo_344827" data-name="Rectángulo 344827" width="96.979" height="18.667" transform="translate(50.063 268.911)" fill="#12263f"/>
              <path id="Trazado_677760" data-name="Trazado 677760" d="M236.868,1783.6l-53.23,29.292a56.794,56.794,0,0,1-8.153.715,37.016,37.016,0,0,1-7.065-.561v-38.064l58.515-15.731Z" transform="translate(-149.913 -1565.933)" fill="#f6f6f6"/>
              <path id="Trazado_677761" data-name="Trazado 677761" d="M306.8,2004.482l52.838-29.573.4.9L307.2,2005.378Z" transform="translate(-273.085 -1757.895)" fill="#4a919e"/>
              <path id="Trazado_677762" data-name="Trazado 677762" d="M607.231,362.548H552.291a11.762,11.762,0,0,1-11.573-9.651c-4.4-24.11-1.46-83.229,37.257-83.452,39.719-.228,44.542,58.61,40.892,83.063a11.769,11.769,0,0,1-11.637,10.04" transform="translate(-479.934 -239.836)" fill="#1e1e1e"/>
              <path id="Trazado_677763" data-name="Trazado 677763" d="M806.291,975.405V940.652h-29.88v34.6h0s4.125,11.715,14.381,11.715c12.378,0,15.5-11.562,15.5-11.562" transform="translate(-691.095 -837.287)" fill="#d8a77d"/>
              <path id="Trazado_677764" data-name="Trazado 677764" d="M680.748,382.876c0,21.866-6.895,47.749-31.969,48.41-23.319.614-31.969-26.544-31.969-48.41s14.313-39.592,31.969-39.592,31.969,17.726,31.969,39.592" transform="translate(-549.032 -305.562)" fill="#d8a87d"/>
              <path id="Trazado_677765" data-name="Trazado 677765" d="M733.256,746.423l-.631.434a8.654,8.654,0,0,0-.91-1.122,6.194,6.194,0,0,0-1.361-1.079,5.271,5.271,0,0,0-3.6-.593,7.6,7.6,0,0,0-1.072.265,12.766,12.766,0,0,0-4.308,2.588l-.532-.552a12.7,12.7,0,0,1,5.49-3c.1-.02.2-.038.3-.055a6.021,6.021,0,0,1,4.1.684,6.448,6.448,0,0,1,.6.391,8.428,8.428,0,0,1,1.922,2.041" transform="translate(-641.635 -661.54)" fill="#160707"/>
              <path id="Trazado_677766" data-name="Trazado 677766" d="M774.14,749.2c0,2.14-1.03,3.875-2.3,3.875s-2.3-1.735-2.3-3.875a2.349,2.349,0,0,1,4.348-1.768,6.052,6.052,0,0,1,.254,1.768" transform="translate(-684.977 -664.647)" fill="#160707"/>
              <path id="Trazado_677767" data-name="Trazado 677767" d="M994.089,746.834a11.915,11.915,0,0,0-5.38-2.852,5.266,5.266,0,0,0-3.6.593,7.141,7.141,0,0,0-2.271,2.2l-.632-.435a7.9,7.9,0,0,1,2.52-2.431,6.015,6.015,0,0,1,4.1-.684,12.483,12.483,0,0,1,5.785,3.056Z" transform="translate(-874.28 -661.467)" fill="#160707"/>
              <path id="Trazado_677768" data-name="Trazado 677768" d="M1014.478,749.216c0,2.14-1.031,3.874-2.3,3.874s-2.3-1.734-2.3-3.874a6.052,6.052,0,0,1,.254-1.769,2.349,2.349,0,0,1,4.348,1.769" transform="translate(-898.905 -664.661)" fill="#160707"/>
              <path id="Trazado_677769" data-name="Trazado 677769" d="M896.417,776.024a5.279,5.279,0,0,1-2.505-.936l.543-.79c.57.389,1.681.932,2.24.727.108-.04.262-.13.353-.458.363-1.322-1.381-9.619-2.642-14.873l.932-.224c.327,1.362,3.178,13.368,2.634,15.351a1.523,1.523,0,0,1-.948,1.105,1.762,1.762,0,0,1-.606.1" transform="translate(-795.684 -676.014)" fill="#160707"/>
              <path id="Trazado_677770" data-name="Trazado 677770" d="M777.969,1109.157q-.545-.2-1.046-.4l-.4.668q.553.222,1.163.442a25.911,25.911,0,0,0,12.7,1.43l-.125-.757a25.139,25.139,0,0,1-12.292-1.388" transform="translate(-691.199 -986.924)" fill="#a2552f"/>
              <path id="Trazado_677771" data-name="Trazado 677771" d="M845.062,960.923a7.169,7.169,0,0,1-1.468-.519,8.1,8.1,0,0,1-3.995-4.572l.722-.215-.361.109.645-.11a6.3,6.3,0,0,0,3.342,3.827c1.988.954,4.453.952,7.327-.195l.26.892a10.792,10.792,0,0,1-6.473.784" transform="translate(-747.339 -850.606)" fill="#160707"/>
              <path id="Trazado_677772" data-name="Trazado 677772" d="M1003.781,710.9c-.1-.038-7.317-1.987-13.233-.941l-.464-1.84c3.376-.6,3.778-.467,7.994-.174a23.822,23.822,0,0,1,5.872,1.223Z" transform="translate(-881.288 -629.935)"/>
              <path id="Trazado_677773" data-name="Trazado 677773" d="M701.777,711.3c.1-.04,7.272-2.146,13.209-1.229l.424-1.85c-3.389-.525-3.787-.384-8,0a23.825,23.825,0,0,0-5.844,1.351Z" transform="translate(-624.477 -630.092)"/>
              <path id="Trazado_677774" data-name="Trazado 677774" d="M657,303.583c3.172,10.326,5.567,13.853,1.141,15.589-12.179,4.777-48.663-14.1-53.707-19.392-1.047,11.058-10.281,21.5-10.587,21.517-10.72.743-3.481-15.425-2.035-22,2.626-11.945,9-25.372,31.3-25.372S653.415,291.91,657,303.583" transform="translate(-523.461 -243.82)"/>
              <path id="Trazado_677775" data-name="Trazado 677775" d="M587.372,689.776c1.834,5.593.478,11.059-3.03,12.209s-7.837-2.451-9.672-8.044-.478-11.059,3.03-12.209,7.838,2.451,9.672,8.044" transform="translate(-510.795 -606.629)" fill="#d8a87d"/>
              <path id="Trazado_677776" data-name="Trazado 677776" d="M608.742,731.545c-.154-.1-3.765-2.583-3.924-6.018-.086-1.869.867-3.633,2.832-5.245l.5.609c-1.762,1.444-2.618,2.991-2.545,4.6.138,3.039,3.544,5.382,3.578,5.405Z" transform="translate(-538.353 -641.133)" fill="#a2552f"/>
              <path id="Trazado_677777" data-name="Trazado 677777" d="M1107.358,688.588c-1.834,5.593-.478,11.059,3.03,12.209s7.838-2.451,9.672-8.044.478-11.059-3.03-12.209-7.837,2.451-9.672,8.044" transform="translate(-984.948 -605.571)" fill="#d8a87d"/>
              <path id="Trazado_677778" data-name="Trazado 677778" d="M1162.623,741.654c.154-.1,3.765-2.583,3.924-6.018.086-1.869-.867-3.633-2.832-5.245l-.5.609c1.762,1.444,2.618,2.991,2.545,4.6-.138,3.039-3.544,5.382-3.578,5.405Z" transform="translate(-1034.475 -650.131)" fill="#a2552f"/>
              <path id="Trazado_677779" data-name="Trazado 677779" d="M671.5,751.79v.778a13.958,13.958,0,0,1,3.527,1.509l.169-.724a14.274,14.274,0,0,0-3.7-1.564" transform="translate(-597.713 -669.179)" fill="#a2552f"/>
              <path id="Trazado_677780" data-name="Trazado 677780" d="M670.313,791.109l.259.673a13.6,13.6,0,0,1,3.552-1.372l-.1-.753a13.974,13.974,0,0,0-3.716,1.453" transform="translate(-596.655 -702.884)" fill="#a2552f"/>
              <path id="Trazado_677781" data-name="Trazado 677781" d="M1103.848,751.79v.778a13.959,13.959,0,0,0-3.527,1.509l-.168-.724a14.269,14.269,0,0,1,3.7-1.564" transform="translate(-979.261 -669.179)" fill="#a2552f"/>
              <path id="Trazado_677782" data-name="Trazado 677782" d="M1104.1,791.109l-.259.673a13.6,13.6,0,0,0-3.552-1.372l.1-.753a13.976,13.976,0,0,1,3.716,1.453" transform="translate(-979.384 -702.884)" fill="#a2552f"/>
              <path id="Trazado_677783" data-name="Trazado 677783" d="M650.978,676.982q0,.467.035.925c.015.188.032.376.056.561q.018.158.044.317a12.03,12.03,0,0,0,23.909-1.207h8.785a12.031,12.031,0,1,0,0-1.193h-8.785a12.031,12.031,0,0,0-23.5-2.981v0a11.831,11.831,0,0,0-.405,1.771q-.026.159-.044.317c-.023.185-.041.373-.056.561q-.035.458-.035.925m34.107,0a10.709,10.709,0,0,1,3.959-8.327c.232-.191.47-.37.717-.538a10.641,10.641,0,0,1,5.169-1.836c.294-.027.593-.038.893-.038a10.683,10.683,0,0,1,7.543,3.1c.256.25.5.514.726.787a10.409,10.409,0,0,1,1.025,1.469,10.742,10.742,0,0,1-3.366,14.339c-.088.059-.176.118-.267.173a10.742,10.742,0,0,1-16.4-9.129m-32.708-1.513a10.7,10.7,0,0,1,3.692-6.679c.229-.2.464-.382.711-.555a10.682,10.682,0,0,1,6.23-1.991q.194,0,.388.009a10.584,10.584,0,0,1,3.325.652,10.738,10.738,0,0,1,7.017,9.834.629.629,0,0,0-.053.244.618.618,0,0,0,.053.244,10.752,10.752,0,0,1-.485,2.966l-.079.247a10.767,10.767,0,0,1-4.412,5.61,10.71,10.71,0,0,1-5.754,1.671,10.747,10.747,0,0,1-10.633-12.251" transform="translate(-579.445 -591.882)"/>
              <path id="Trazado_677784" data-name="Trazado 677784" d="M602.02,839.881a2.336,2.336,0,1,1-2.336-2.335,2.335,2.335,0,0,1,2.336,2.335" transform="translate(-531.709 -745.511)" fill="#d5dde0"/>
              <path id="Trazado_677785" data-name="Trazado 677785" d="M1180.288,839.881a2.335,2.335,0,1,1-2.335-2.335,2.335,2.335,0,0,1,2.335,2.335" transform="translate(-1046.433 -745.511)" fill="#d5dde0"/>
              <path id="Trazado_677786" data-name="Trazado 677786" d="M634.439,282.575H558.892V270.91a36.761,36.761,0,0,1,36.761-36.761h2.025a36.761,36.761,0,0,1,36.761,36.761Z" transform="translate(-497.478 -208.419)" fill="#fff"/>
              <rect id="Rectángulo_344828" data-name="Rectángulo 344828" width="81.915" height="4.631" transform="translate(58.23 69.524)" fill="#e1e8ef"/>
              <path id="Trazado_677787" data-name="Trazado 677787" d="M820.854,248H795.961c4.631-13.092,4.342-40.559,4.342-40.559,0-3.828,3.5-6.931,7.815-6.931s7.815,3.1,7.815,6.931c0,0,.289,21.05,4.921,40.559" transform="translate(-708.496 -178.48)" fill="#ebeef3"/>
              <path id="Trazado_677788" data-name="Trazado 677788" d="M733.4,234.175h4.342v-9.628a.749.749,0,0,0-.749-.749h-2.843a.749.749,0,0,0-.749.749Z" transform="translate(-652.812 -199.205)" fill="#ebeef3"/>
              <path id="Trazado_677789" data-name="Trazado 677789" d="M1037.642,234.175h4.342v-9.628a.749.749,0,0,0-.75-.749h-2.843a.749.749,0,0,0-.749.749Z" transform="translate(-923.62 -199.205)" fill="#ebeef3"/>
              <path id="Trazado_677790" data-name="Trazado 677790" d="M180.758,1769.435l56.962-15.327.165.969L180.924,1770.4Z" transform="translate(-160.896 -1561.356)" fill="#4a919e"/>
              <path id="Trazado_677791" data-name="Trazado 677791" d="M725.53,1138.861l16.834,25.119-10.342,10.842-10.1-29.664v-6.3Z" transform="translate(-642.589 -1013.717)" fill="#fff"/>
              <path id="Trazado_677792" data-name="Trazado 677792" d="M922.774,1139.085,905.94,1164.2l10.342,10.842,10.1-29.769v-6.191Z" transform="translate(-806.39 -1013.916)" fill="#fff"/>
              <path id="Trazado_677793" data-name="Trazado 677793" d="M728.111,1225.259l-10.36-29.506.916-.252,9.848,28.05,9.778-9.98.724.556Z" transform="translate(-638.881 -1064.133)" fill="#4a919e"/>
              <path id="Trazado_677794" data-name="Trazado 677794" d="M913.553,1221.84,902.643,1210.7l.724-.556,9.775,9.978,9.851-28.47.917.248Z" transform="translate(-803.456 -1060.71)" fill="#4a919e"/>
            </g>
          </g>
        </g>
      </g>
    </g>
    <g id="Grupo_990853" data-name="Grupo 990853" transform="translate(181.91 14214.266)">
      <g id="Grupo_990853-2" data-name="Grupo 990853" clip-path="url(#clip-path-33)">
        <path id="Trazado_677795" data-name="Trazado 677795" d="M0,810.651a2.329,2.329,0,0,0,.856,1.769,3.158,3.158,0,0,0,2.061.734H395.174a2.733,2.733,0,0,0,2.916-2.5,2.33,2.33,0,0,0-.854-1.769,3.168,3.168,0,0,0-2.062-.734H2.917A2.735,2.735,0,0,0,0,810.651" transform="translate(0 -719.015)" fill="#32586d"/>
        <path id="Trazado_677796" data-name="Trazado 677796" d="M282.683,122.319c-1.9,16.47-5.054,23.313,3.016,24.242,7.285.839,6.578-6.45,8.474-22.919s-.353-30.257-2.511-30.506-7.082,12.713-8.978,29.183" transform="translate(-249.522 -82.86)" fill="#317717"/>
        <path id="Trazado_677797" data-name="Trazado 677797" d="M325.5,238.352c-1.036-.192-.946-.326-4.545.044a10.641,10.641,0,0,1-2.534.043l-.277,1.24a9.678,9.678,0,0,0,3.249.115,13.251,13.251,0,0,1,5.187.447l1.838.456,0-1.286a8.323,8.323,0,0,0-2.914-1.06" transform="translate(-283.055 -211.895)" fill="#58b232"/>
        <path id="Trazado_677798" data-name="Trazado 677798" d="M311.746,320.274c-1.141-.211-1.041-.359-5,.049a11.476,11.476,0,0,1-3.029-.02l-.2,1.424a11.61,11.61,0,0,0,3.713.135,14.59,14.59,0,0,1,5.712.493l2.024.5.121-1.409a10.607,10.607,0,0,0-3.333-1.174" transform="translate(-270.035 -284.764)" fill="#58b232"/>
        <path id="Trazado_677799" data-name="Trazado 677799" d="M299.191,416.912c-1.165-.214-1.064-.361-5.11.037a12.147,12.147,0,0,1-3.139-.035l-.208,1.413a12.161,12.161,0,0,0,3.843.163,14.948,14.948,0,0,1,5.833.507c2.06.52,2.079.51,2.079.51l.139-1.409a11.4,11.4,0,0,0-3.436-1.184" transform="translate(-258.668 -370.74)" fill="#58b232"/>
        <path id="Trazado_677800" data-name="Trazado 677800" d="M284.894,498a11.3,11.3,0,0,1,4.986.942,6.775,6.775,0,0,0,2.759.885l-.214,1.082a12.16,12.16,0,0,1-3.78-.715,14.948,14.948,0,0,0-5.8-.832c-2.124.038-2.1.026-2.1.026l.07-1.177a22.478,22.478,0,0,1,4.071-.211" transform="translate(-249.788 -443.06)" fill="#58b232"/>
        <path id="Trazado_677801" data-name="Trazado 677801" d="M68.608,143.746c1.475,16.513-.232,23.854,7.858,23.131,7.3-.653,5.137-7.647,3.661-24.16S73.66,113.157,71.5,113.35s-4.363,13.883-2.888,30.4" transform="translate(-60.614 -100.846)" fill="#317717"/>
        <path id="Trazado_677802" data-name="Trazado 677802" d="M75.117,256.475c-1.054.022-.992-.128-4.442.963a10.64,10.64,0,0,1-2.473.554l-.02,1.271a9.682,9.682,0,0,0,3.2-.545,13.253,13.253,0,0,1,5.171-.611l1.892.075-.264-1.258a8.323,8.323,0,0,0-3.068-.448" transform="translate(-60.661 -228.185)" fill="#58b232"/>
        <path id="Trazado_677803" data-name="Trazado 677803" d="M77.734,338.2c-1.16.024-1.092-.141-4.891,1.06a11.469,11.469,0,0,1-2.97.593l.09,1.435a11.61,11.61,0,0,0,3.664-.619,14.591,14.591,0,0,1,5.693-.673l2.083.082-.167-1.4a10.6,10.6,0,0,0-3.5-.475" transform="translate(-62.166 -300.895)" fill="#58b232"/>
        <path id="Trazado_677804" data-name="Trazado 677804" d="M85,435.044c-1.185.026-1.115-.139-5,1.07a12.149,12.149,0,0,1-3.082.6L77,438.14a12.162,12.162,0,0,0,3.8-.618,14.95,14.95,0,0,1,5.814-.684c2.122.092,2.139.079,2.139.079l-.149-1.408a11.4,11.4,0,0,0-3.6-.465" transform="translate(-68.434 -387.059)" fill="#58b232"/>
        <path id="Trazado_677805" data-name="Trazado 677805" d="M86.339,520.04a11.3,11.3,0,0,1,5.073-.086,6.776,6.776,0,0,0,2.881.308l.009,1.1a12.163,12.163,0,0,1-3.846.065,14.946,14.946,0,0,0-5.844.358c-2.072.467-2.049.45-2.049.45l-.169-1.167a22.5,22.5,0,0,1,3.944-1.03" transform="translate(-73.307 -462.369)" fill="#58b232"/>
        <path id="Trazado_677806" data-name="Trazado 677806" d="M145.8,38.965c0,21.52-2.735,30.814,6.7,30.814,8.519,0,6.734-9.294,6.734-30.814S154.8,0,152.279,0,145.8,17.445,145.8,38.965" transform="translate(-129.388)" fill="#317717"/>
        <path id="Trazado_677807" data-name="Trazado 677807" d="M163.186,188.168c-1.221-.094-1.135-.28-5.24.732a11.123,11.123,0,0,1-2.919.431l-.155,1.64a10.093,10.093,0,0,0,3.765-.334,13.811,13.811,0,0,1,6.046-.193l2.182.315-.176-1.657a8.888,8.888,0,0,0-3.5-.934" transform="translate(-137.792 -167.346)" fill="#58b232"/>
        <path id="Trazado_677808" data-name="Trazado 677808" d="M158.353,294.934c-1.345-.1-1.249-.308-5.769.806a11.977,11.977,0,0,1-3.5.424l-.044,1.866a12.1,12.1,0,0,0,4.3-.378,15.21,15.21,0,0,1,6.657-.213l2.4.347-.048-1.834a11.291,11.291,0,0,0-4-1.019" transform="translate(-132.603 -262.33)" fill="#58b232"/>
        <path id="Trazado_677809" data-name="Trazado 677809" d="M156.665,421.195c-1.373-.1-1.276-.308-5.892.806a12.681,12.681,0,0,1-3.628.421l-.052,1.853a12.675,12.675,0,0,0,4.457-.361,15.583,15.583,0,0,1,6.8-.213c2.446.364,2.467.349,2.467.349l-.027-1.838a12.116,12.116,0,0,0-4.123-1.017" transform="translate(-130.87 -374.664)" fill="#58b232"/>
        <path id="Trazado_677810" data-name="Trazado 677810" d="M150.1,530.434a11.8,11.8,0,0,1,5.879.475,7.13,7.13,0,0,0,3.3.731l-.1,1.427a12.676,12.676,0,0,1-4.457-.36,15.582,15.582,0,0,0-6.8-.213c-2.446.364-2.417.345-2.417.345l-.075-1.528a23.667,23.667,0,0,1,4.67-.877" transform="translate(-129.387 -471.787)" fill="#58b232"/>
        <path id="Trazado_677811" data-name="Trazado 677811" d="M237.434,205.828c0,14.395-2.43,20.611,5.954,20.611,7.57,0,5.984-6.217,5.984-20.611s-3.934-26.064-6.177-26.064-5.762,11.669-5.762,26.064" transform="translate(-210.956 -159.937)" fill="#317717"/>
        <path id="Trazado_677812" data-name="Trazado 677812" d="M252.888,305.629c-1.085-.063-1.008-.187-4.656.49a12.979,12.979,0,0,1-2.594.288l-.138,1.1a11.838,11.838,0,0,0,3.345-.224,16.208,16.208,0,0,1,5.372-.129l1.939.211L256,306.254a9.888,9.888,0,0,0-3.113-.625" transform="translate(-218.424 -271.875)" fill="#58b232"/>
        <path id="Trazado_677813" data-name="Trazado 677813" d="M248.593,377.044c-1.2-.069-1.11-.206-5.127.539a14.011,14.011,0,0,1-3.108.284l-.039,1.248a14.2,14.2,0,0,0,3.824-.252,17.849,17.849,0,0,1,5.915-.142l2.135.232-.043-1.227a12.647,12.647,0,0,0-3.557-.682" transform="translate(-213.813 -335.408)" fill="#58b232"/>
        <path id="Trazado_677814" data-name="Trazado 677814" d="M247.093,461.5c-1.221-.069-1.134-.206-5.236.539a14.847,14.847,0,0,1-3.224.281l-.046,1.239a14.881,14.881,0,0,0,3.961-.241,18.286,18.286,0,0,1,6.041-.142c2.174.243,2.192.233,2.192.233l-.024-1.229a13.616,13.616,0,0,0-3.664-.681" transform="translate(-212.273 -410.548)" fill="#58b232"/>
        <path id="Trazado_677815" data-name="Trazado 677815" d="M241.257,534.568a13.786,13.786,0,0,1,5.224.317,8.191,8.191,0,0,0,2.934.489l-.092.955a14.879,14.879,0,0,1-3.961-.241,18.289,18.289,0,0,0-6.041-.142c-2.174.244-2.148.231-2.148.231l-.067-1.022a27.2,27.2,0,0,1,4.15-.586" transform="translate(-210.956 -475.513)" fill="#58b232"/>
        <path id="Trazado_677816" data-name="Trazado 677816" d="M315.536,311.274c-2.687,11.385-5.769,15.848.863,17.413,5.987,1.413,5.893-3.8,8.579-15.185s1.753-21.348-.021-21.767-6.735,8.154-9.421,19.538" transform="translate(-277.968 -259.546)" fill="#439617"/>
        <path id="Trazado_677817" data-name="Trazado 677817" d="M368.476,389.54c-.847-.252-.763-.336-3.774-.482a10.541,10.541,0,0,1-2.105-.256l-.314.842a9.616,9.616,0,0,0,2.688.448,13.175,13.175,0,0,1,4.273.9l1.494.529.084-.906a8.038,8.038,0,0,0-2.345-1.075" transform="translate(-322.326 -345.92)" fill="#73bc51"/>
        <path id="Trazado_677818" data-name="Trazado 677818" d="M351.447,445.393c-.932-.278-.84-.37-4.155-.531a11.388,11.388,0,0,1-2.511-.356l-.264.98a11.541,11.541,0,0,0,3.072.514,14.506,14.506,0,0,1,4.7.992l1.645.582.2-.978a10.277,10.277,0,0,0-2.686-1.2" transform="translate(-306.518 -395.481)" fill="#73bc51"/>
        <path id="Trazado_677819" data-name="Trazado 677819" d="M334.517,511.9c-.952-.282-.858-.375-4.241-.551a12.072,12.072,0,0,1-2.6-.379l-.268.971a12.087,12.087,0,0,0,3.177.548,14.859,14.859,0,0,1,4.8,1.015c1.674.6,1.69.594,1.69.594l.21-.977a11.067,11.067,0,0,0-2.771-1.222" transform="translate(-291.295 -454.617)" fill="#73bc51"/>
        <path id="Trazado_677820" data-name="Trazado 677820" d="M317.293,567.367a11.2,11.2,0,0,1,4.073,1.226,6.659,6.659,0,0,0,2.229.934l-.251.738a12.09,12.09,0,0,1-3.088-.93,14.857,14.857,0,0,0-4.751-1.24c-1.765-.213-1.742-.218-1.742-.218l.138-.821a22.1,22.1,0,0,1,3.391.311" transform="translate(-279.158 -504.514)" fill="#73bc51"/>
        <path id="Trazado_677821" data-name="Trazado 677821" d="M48.931,331.42c.917,11.625-.075,16.865,4.715,16.11,4.325-.682,3.023-5.559,2.106-17.185s-3.908-20.7-5.189-20.493-2.548,9.943-1.631,21.568" transform="translate(-43.256 -275.674)" fill="#439617"/>
        <path id="Trazado_677822" data-name="Trazado 677822" d="M52.73,409.931c-.624.047-.588-.06-2.629.815a5.618,5.618,0,0,1-1.463.466l-.009.9a5.017,5.017,0,0,0,1.9-.482,6.813,6.813,0,0,1,3.061-.588l1.121,0-.16-.881a4.123,4.123,0,0,0-1.818-.224" transform="translate(-43.266 -364.706)" fill="#73bc51"/>
        <path id="Trazado_677823" data-name="Trazado 677823" d="M54.468,467.366c-.687.052-.647-.066-2.895.9a6.008,6.008,0,0,1-1.758.509l.057,1.012a6.015,6.015,0,0,0,2.169-.548,7.5,7.5,0,0,1,3.371-.647l1.234,0-.1-.987a5.246,5.246,0,0,0-2.075-.23" transform="translate(-44.322 -415.804)" fill="#73bc51"/>
        <path id="Trazado_677824" data-name="Trazado 677824" d="M59.024,535.526c-.7.054-.661-.064-2.957.907a6.355,6.355,0,0,1-1.824.518l.052,1.005a6.291,6.291,0,0,0,2.247-.552,7.688,7.688,0,0,1,3.442-.659c1.257,0,1.267-.009,1.267-.009l-.092-.991a5.637,5.637,0,0,0-2.137-.22" transform="translate(-48.26 -476.445)" fill="#73bc51"/>
        <path id="Trazado_677825" data-name="Trazado 677825" d="M60.034,595.913a5.685,5.685,0,0,1,3.005-.214,3.365,3.365,0,0,0,1.707.131l.008.779a6.121,6.121,0,0,1-2.278.162,7.57,7.57,0,0,0-3.46.429c-1.226.392-1.212.38-1.212.38l-.1-.819a12.2,12.2,0,0,1,2.333-.847" transform="translate(-51.337 -529.88)" fill="#73bc51"/>
        <path id="Trazado_677826" data-name="Trazado 677826" d="M177.257,167.75c0,15.41-2.6,22.065,6.375,22.065,8.1,0,6.406-6.655,6.406-22.065s-4.212-27.9-6.613-27.9-6.168,12.493-6.168,27.9" transform="translate(-157.395 -124.423)" fill="#439617"/>
        <path id="Trazado_677827" data-name="Trazado 677827" d="M193.8,274.593c-1.162-.067-1.079-.2-4.985.524a13.894,13.894,0,0,1-2.777.309l-.147,1.175a12.674,12.674,0,0,0,3.581-.239,17.353,17.353,0,0,1,5.752-.138l2.075.226-.167-1.187a10.588,10.588,0,0,0-3.333-.669" transform="translate(-165.39 -244.258)" fill="#73bc51"/>
        <path id="Trazado_677828" data-name="Trazado 677828" d="M189.2,351.048c-1.279-.074-1.189-.221-5.488.577a15,15,0,0,1-3.328.3l-.042,1.336a15.2,15.2,0,0,0,4.094-.27,19.108,19.108,0,0,1,6.333-.152l2.285.249-.046-1.313a13.538,13.538,0,0,0-3.808-.73" transform="translate(-160.453 -312.276)" fill="#73bc51"/>
        <path id="Trazado_677829" data-name="Trazado 677829" d="M187.6,441.461c-1.307-.074-1.214-.221-5.6.577a15.9,15.9,0,0,1-3.451.3l-.05,1.327a15.927,15.927,0,0,0,4.24-.258,19.576,19.576,0,0,1,6.467-.152c2.327.261,2.347.25,2.347.25l-.026-1.316a14.578,14.578,0,0,0-3.922-.728" transform="translate(-158.805 -392.717)" fill="#73bc51"/>
        <path id="Trazado_677830" data-name="Trazado 677830" d="M181.349,519.686a14.762,14.762,0,0,1,5.593.34,8.77,8.77,0,0,0,3.141.524l-.1,1.022a15.935,15.935,0,0,1-4.24-.258,19.575,19.575,0,0,0-6.467-.152c-2.327.261-2.3.247-2.3.247l-.072-1.094a29.116,29.116,0,0,1,4.442-.628" transform="translate(-157.395 -462.265)" fill="#73bc51"/>
        <path id="Trazado_677831" data-name="Trazado 677831" d="M271.709,270.081c-.957,12.919-3.033,18.376,2.705,18.8,5.181.384,4.509-5.276,5.466-18.2s-.96-23.592-2.5-23.706-4.719,10.181-5.676,23.1" transform="translate(-240.706 -219.74)" fill="#256809"/>
        <path id="Trazado_677832" data-name="Trazado 677832" d="M296.177,360.541c-.739-.111-.678-.219-3.219.2a6.872,6.872,0,0,1-1.794.127l-.167.978a6.234,6.234,0,0,0,2.3-.031,8.532,8.532,0,0,1,3.686.156l1.313.288-.033-1a5.471,5.471,0,0,0-2.089-.719" transform="translate(-258.901 -320.687)" fill="#58b232"/>
        <path id="Trazado_677833" data-name="Trazado 677833" d="M288.381,424.738c-.813-.123-.746-.241-3.545.224a7.394,7.394,0,0,1-2.146.1l-.11,1.118a7.474,7.474,0,0,0,2.634-.033,9.4,9.4,0,0,1,4.058.172l1.445.317.052-1.1a6.956,6.956,0,0,0-2.389-.792" transform="translate(-251.413 -377.795)" fill="#58b232"/>
        <path id="Trazado_677834" data-name="Trazado 677834" d="M281.748,500.544c-.831-.124-.762-.242-3.619.218a7.832,7.832,0,0,1-2.225.089l-.114,1.11a7.832,7.832,0,0,0,2.727-.016,9.623,9.623,0,0,1,4.144.179c1.472.329,1.485.321,1.485.321l.065-1.1a7.466,7.466,0,0,0-2.462-.8" transform="translate(-245.372 -445.238)" fill="#58b232"/>
        <path id="Trazado_677835" data-name="Trazado 677835" d="M273.479,565.239a7.284,7.284,0,0,1,3.555.55,4.4,4.4,0,0,0,1.976.588l-.126.852a7.831,7.831,0,0,1-2.695-.417,9.624,9.624,0,0,0-4.125-.434c-1.5.108-1.485.1-1.485.1l.022-.921a14.6,14.6,0,0,1,2.879-.316" transform="translate(-240.735 -502.889)" fill="#58b232"/>
        <path id="Trazado_677836" data-name="Trazado 677836" d="M147.247,324.864c.906,10.359-.036,14.949,4.566,14.547,4.154-.364,2.893-4.761,1.986-15.12s-3.8-18.567-5.031-18.46-2.427,8.674-1.521,19.033" transform="translate(-130.723 -272.099)" fill="#256809"/>
        <path id="Trazado_677837" data-name="Trazado 677837" d="M150.867,395.738c-.6.007-.565-.086-2.525.576a5.51,5.51,0,0,1-1.405.332l-.006.8a5,5,0,0,0,1.822-.321,6.848,6.848,0,0,1,2.94-.351l1.077.059-.155-.79a4.391,4.391,0,0,0-1.748-.3" transform="translate(-130.726 -352.09)" fill="#58b232"/>
        <path id="Trazado_677838" data-name="Trazado 677838" d="M152.65,447.023c-.66.008-.622-.095-2.78.634a5.935,5.935,0,0,1-1.688.353l.057.9a6,6,0,0,0,2.083-.365,7.54,7.54,0,0,1,3.237-.386l1.186.065-.1-.881a5.584,5.584,0,0,0-1.995-.32" transform="translate(-131.839 -397.719)" fill="#58b232"/>
        <path id="Trazado_677839" data-name="Trazado 677839" d="M157.176,507.786c-.674.009-.635-.094-2.839.639a6.288,6.288,0,0,1-1.751.357l.052.894a6.283,6.283,0,0,0,2.158-.364,7.725,7.725,0,0,1,3.306-.392c1.208.071,1.218.063,1.218.063l-.091-.883a5.991,5.991,0,0,0-2.054-.314" transform="translate(-135.756 -451.78)" fill="#58b232"/>
        <path id="Trazado_677840" data-name="Trazado 677840" d="M47.04,592.277H77.446a3.146,3.146,0,0,0,3.114-2.877l2.63-24.1H41.349l2.16,23.65a3.562,3.562,0,0,0,3.531,3.329" transform="translate(-36.789 -502.95)" fill="#8b776e"/>
        <path id="Trazado_677841" data-name="Trazado 677841" d="M33.291,568.07H71.282a3.116,3.116,0,0,0,3.116-3.116H30.175a3.116,3.116,0,0,0,3.116,3.116" transform="translate(-26.847 -502.644)" fill="#563022"/>
        <path id="Trazado_677842" data-name="Trazado 677842" d="M2618.323,619.874c0-6.04-1.679-10.936-3.75-10.936h90.976c1.515,0,2.742,4.9,2.742,10.936s-1.228,10.936-2.742,10.936h-90.976c2.071,0,3.75-4.9,3.75-10.936" transform="translate(-2326.205 -541.777)" fill="#563022"/>
        <path id="Trazado_677843" data-name="Trazado 677843" d="M2628.182,631.541a19.378,19.378,0,0,0-1.875-9.489h87.52c1.455,0,2.634,4.248,2.634,9.489s-1.179,9.489-2.634,9.489h-87.52c1.074-2.438,1.719-4.31,1.875-9.489" transform="translate(-2336.645 -553.444)" fill="#d3c5b6"/>
        <rect id="Rectángulo_344830" data-name="Rectángulo 344830" width="82.76" height="0.123" transform="translate(293.984 70.821)" fill="#563022"/>
        <rect id="Rectángulo_344831" data-name="Rectángulo 344831" width="82.76" height="0.123" transform="translate(294.699 73.294)" fill="#563022"/>
        <rect id="Rectángulo_344832" data-name="Rectángulo 344832" width="82.76" height="0.123" transform="translate(295 75.351)" fill="#563022"/>
        <rect id="Rectángulo_344833" data-name="Rectángulo 344833" width="82.76" height="0.123" transform="translate(295 77.188)" fill="#563022"/>
        <rect id="Rectángulo_344834" data-name="Rectángulo 344834" width="82.76" height="0.123" transform="translate(295 79.376)" fill="#563022"/>
        <rect id="Rectángulo_344835" data-name="Rectángulo 344835" width="82.76" height="0.123" transform="translate(294.47 81.503)" fill="#563022"/>
        <rect id="Rectángulo_344836" data-name="Rectángulo 344836" width="82.76" height="0.123" transform="translate(293.984 84.212)" fill="#563022"/>
        <rect id="Rectángulo_344837" data-name="Rectángulo 344837" width="82.76" height="0.123" transform="translate(292.695 86.315)" fill="#563022"/>
        <path id="Trazado_677844" data-name="Trazado 677844" d="M2681.076,37.8c0,3.462-1.228,6.27-2.742,6.27h-90.976c.208,0,.542-.429.89-1.1a12.145,12.145,0,0,0,1.319-5.507,12.643,12.643,0,0,0-1.167-4.711c-.377-.76-.769-1.218-1.042-1.218h90.976c1.515,0,2.742,2.807,2.742,6.271" transform="translate(-2301.991 -28.048)" fill="#563022"/>
        <path id="Trazado_677845" data-name="Trazado 677845" d="M2685.986,47.678c0,2.821-1.22,5.108-2.724,5.108h-87.835a12.139,12.139,0,0,0,1.319-5.507,12.642,12.642,0,0,0-1.167-4.711h87.682c1.5,0,2.724,2.287,2.724,5.109" transform="translate(-2309.171 -37.874)" fill="#d3c5b6"/>
        <rect id="Rectángulo_344838" data-name="Rectángulo 344838" width="82.76" height="0.123" transform="translate(289.994 6.5)" fill="#563022"/>
        <rect id="Rectángulo_344839" data-name="Rectángulo 344839" width="82.76" height="0.123" transform="translate(291.023 8.764)" fill="#563022"/>
        <rect id="Rectángulo_344840" data-name="Rectángulo 344840" width="82.76" height="0.123" transform="translate(290.983 11.059)" fill="#563022"/>
        <rect id="Rectángulo_344841" data-name="Rectángulo 344841" width="82.76" height="0.123" transform="translate(289.693 13.3)" fill="#563022"/>
        <path id="Trazado_677846" data-name="Trazado 677846" d="M2561.9,443.525c0-5.328-1.825-9.648-4.076-9.648h98.884c1.646,0,2.98,4.319,2.98,9.648s-1.334,9.648-2.98,9.648h-98.884c2.251,0,4.076-4.319,4.076-9.648" transform="translate(-2275.719 -386.024)" fill="#938d8a"/>
        <path id="Trazado_677847" data-name="Trazado 677847" d="M2577.475,453.818a14.68,14.68,0,0,0-2-8.372h93.2c1.549,0,2.8,3.748,2.8,8.372s-1.256,8.372-2.8,8.372h-93.2c1.144-2.151,1.831-3.8,2-8.372" transform="translate(-2291.422 -396.317)" fill="#f4ede9"/>
        <rect id="Rectángulo_344842" data-name="Rectángulo 344842" width="88.641" height="0.109" transform="translate(288.125 51.082)" fill="#b8b2ad"/>
        <rect id="Rectángulo_344843" data-name="Rectángulo 344843" width="88.641" height="0.109" transform="translate(288.891 53.264)" fill="#b8b2ad"/>
        <rect id="Rectángulo_344844" data-name="Rectángulo 344844" width="88.641" height="0.109" transform="translate(289.213 55.078)" fill="#b8b2ad"/>
        <rect id="Rectángulo_344845" data-name="Rectángulo 344845" width="88.641" height="0.109" transform="translate(289.213 56.699)" fill="#b8b2ad"/>
        <rect id="Rectángulo_344846" data-name="Rectángulo 344846" width="88.641" height="0.109" transform="translate(289.213 58.63)" fill="#b8b2ad"/>
        <rect id="Rectángulo_344847" data-name="Rectángulo 344847" width="88.641" height="0.109" transform="translate(288.645 60.506)" fill="#b8b2ad"/>
        <rect id="Rectángulo_344848" data-name="Rectángulo 344848" width="88.641" height="0.109" transform="translate(292.978 62.896)" fill="#b8b2ad"/>
        <rect id="Rectángulo_344849" data-name="Rectángulo 344849" width="88.641" height="0.109" transform="translate(298.974 64.751)" fill="#b8b2ad"/>
        <path id="Trazado_677848" data-name="Trazado 677848" d="M2723.595,151.5c0,3.462-1.228,6.27-2.743,6.27h-90.976c.208,0,.542-.429.89-1.1a12.145,12.145,0,0,0,1.319-5.507,12.642,12.642,0,0,0-1.167-4.711c-.377-.76-.769-1.218-1.043-1.218h90.976c1.515,0,2.743,2.807,2.743,6.271" transform="translate(-2339.82 -129.21)" fill="#563022"/>
        <path id="Trazado_677849" data-name="Trazado 677849" d="M2728.5,161.381c0,2.821-1.22,5.108-2.724,5.108h-87.834a12.145,12.145,0,0,0,1.319-5.507,12.642,12.642,0,0,0-1.167-4.711h87.682c1.5,0,2.724,2.287,2.724,5.109" transform="translate(-2347 -139.036)" fill="#d3c5b6"/>
        <rect id="Rectángulo_344850" data-name="Rectángulo 344850" width="82.76" height="0.123" transform="translate(294.683 19.04)" fill="#563022"/>
        <rect id="Rectángulo_344851" data-name="Rectángulo 344851" width="82.76" height="0.123" transform="translate(295.712 21.305)" fill="#563022"/>
        <rect id="Rectángulo_344852" data-name="Rectángulo 344852" width="82.76" height="0.123" transform="translate(295.672 23.6)" fill="#563022"/>
        <rect id="Rectángulo_344853" data-name="Rectángulo 344853" width="82.76" height="0.123" transform="translate(294.383 25.841)" fill="#563022"/>
        <path id="Trazado_677850" data-name="Trazado 677850" d="M2591.609,268.578c0-5.328-1.825-9.648-4.076-9.648h98.884c1.646,0,2.98,4.319,2.98,9.648s-1.335,9.648-2.98,9.648h-98.884c2.251,0,4.076-4.319,4.076-9.648" transform="translate(-2302.147 -230.372)" fill="#938d8a"/>
        <path id="Trazado_677851" data-name="Trazado 677851" d="M2607.178,278.871a14.682,14.682,0,0,0-2-8.372h93.2c1.549,0,2.8,3.748,2.8,8.372s-1.256,8.372-2.8,8.372h-93.2c1.143-2.151,1.831-3.8,2-8.372" transform="translate(-2317.849 -240.665)" fill="#f4ede9"/>
        <rect id="Rectángulo_344854" data-name="Rectángulo 344854" width="88.641" height="0.109" transform="translate(291.401 31.786)" fill="#b8b2ad"/>
        <rect id="Rectángulo_344855" data-name="Rectángulo 344855" width="88.641" height="0.109" transform="translate(292.167 33.968)" fill="#b8b2ad"/>
        <rect id="Rectángulo_344856" data-name="Rectángulo 344856" width="88.641" height="0.109" transform="translate(292.489 35.783)" fill="#b8b2ad"/>
        <rect id="Rectángulo_344857" data-name="Rectángulo 344857" width="88.641" height="0.109" transform="translate(292.489 37.404)" fill="#b8b2ad"/>
        <rect id="Rectángulo_344858" data-name="Rectángulo 344858" width="88.641" height="0.109" transform="translate(292.489 39.334)" fill="#b8b2ad"/>
        <rect id="Rectángulo_344859" data-name="Rectángulo 344859" width="88.641" height="0.109" transform="translate(291.921 41.211)" fill="#b8b2ad"/>
        <rect id="Rectángulo_344860" data-name="Rectángulo 344860" width="88.641" height="0.109" transform="translate(291.401 43.601)" fill="#b8b2ad"/>
        <rect id="Rectángulo_344861" data-name="Rectángulo 344861" width="88.641" height="0.109" transform="translate(290.02 45.456)" fill="#b8b2ad"/>
        <path id="Trazado_677852" data-name="Trazado 677852" d="M3142.989,334.468h-36.308a6.637,6.637,0,0,1-6.637-6.637V282.122a6.637,6.637,0,0,1,6.637-6.637h36.308a6.637,6.637,0,0,1,6.637,6.637v45.709a6.637,6.637,0,0,1-6.637,6.637" transform="translate(-2758.133 -245.101)" fill="#34343c"/>
        <path id="Trazado_677853" data-name="Trazado 677853" d="M3163.293,340.879h-39.4a2.766,2.766,0,0,1-2.766-2.766v-7.59a2.766,2.766,0,0,1,2.766-2.766h39.4a2.766,2.766,0,0,1,2.766,2.766v7.59a2.766,2.766,0,0,1-2.766,2.766" transform="translate(-2776.891 -291.609)" fill="#c0d6e2"/>
        <path id="Trazado_677854" data-name="Trazado 677854" d="M3126.316,731.582h-.795a3.181,3.181,0,1,1,0-6.362h.795a3.181,3.181,0,1,1,0,6.362" transform="translate(-2777.969 -645.234)" fill="#8a8f93"/>
        <path id="Trazado_677855" data-name="Trazado 677855" d="M3210.134,731.582h-.8a3.181,3.181,0,0,1,0-6.362h.8a3.181,3.181,0,0,1,0,6.362" transform="translate(-2852.542 -645.234)" fill="#8a8f93"/>
        <path id="Trazado_677856" data-name="Trazado 677856" d="M3293.953,731.582h-.8a3.181,3.181,0,0,1,0-6.362h.8a3.181,3.181,0,0,1,0,6.362" transform="translate(-2927.117 -645.234)" fill="#8a8f93"/>
        <path id="Trazado_677857" data-name="Trazado 677857" d="M3126.316,654.973h-.795a3.181,3.181,0,1,1,0-6.362h.795a3.181,3.181,0,1,1,0,6.362" transform="translate(-2777.969 -577.074)" fill="#8a8f93"/>
        <path id="Trazado_677858" data-name="Trazado 677858" d="M3210.134,654.973h-.8a3.181,3.181,0,0,1,0-6.362h.8a3.181,3.181,0,0,1,0,6.362" transform="translate(-2852.542 -577.074)" fill="#8a8f93"/>
        <path id="Trazado_677859" data-name="Trazado 677859" d="M3293.953,654.973h-.8a3.181,3.181,0,0,1,0-6.362h.8a3.181,3.181,0,0,1,0,6.362" transform="translate(-2927.117 -577.074)" fill="#8a8f93"/>
        <path id="Trazado_677860" data-name="Trazado 677860" d="M3126.316,578.365h-.795a3.181,3.181,0,1,1,0-6.362h.795a3.181,3.181,0,1,1,0,6.362" transform="translate(-2777.969 -508.915)" fill="#8a8f93"/>
        <path id="Trazado_677861" data-name="Trazado 677861" d="M3210.134,578.365h-.8a3.181,3.181,0,0,1,0-6.362h.8a3.181,3.181,0,0,1,0,6.362" transform="translate(-2852.542 -508.915)" fill="#8a8f93"/>
        <path id="Trazado_677862" data-name="Trazado 677862" d="M3293.953,578.365h-.8a3.181,3.181,0,0,1,0-6.362h.8a3.181,3.181,0,0,1,0,6.362" transform="translate(-2927.117 -508.915)" fill="#8a8f93"/>
        <path id="Trazado_677863" data-name="Trazado 677863" d="M3126.316,501.757h-.795a3.181,3.181,0,1,1,0-6.362h.795a3.181,3.181,0,1,1,0,6.362" transform="translate(-2777.969 -440.757)" fill="#8a8f93"/>
        <path id="Trazado_677864" data-name="Trazado 677864" d="M3210.134,501.757h-.8a3.181,3.181,0,0,1,0-6.362h.8a3.181,3.181,0,0,1,0,6.362" transform="translate(-2852.542 -440.757)" fill="#8a8f93"/>
        <path id="Trazado_677865" data-name="Trazado 677865" d="M3293.953,501.757h-.8a3.181,3.181,0,0,1,0-6.362h.8a3.181,3.181,0,0,1,0,6.362" transform="translate(-2927.117 -440.757)" fill="#8a8f93"/>
        <path id="Trazado_677866" data-name="Trazado 677866" d="M3381.319,706.724h-.683a3.237,3.237,0,0,1-3.237-3.237v-2.969a3.237,3.237,0,0,1,3.237-3.237h.683a3.237,3.237,0,0,1,3.237,3.237v2.969a3.237,3.237,0,0,1-3.237,3.237" transform="translate(-3004.897 -620.376)" fill="#8a8f93"/>
        <path id="Trazado_677867" data-name="Trazado 677867" d="M3382.532,646.562h-3.108a2.024,2.024,0,0,1,0-4.049h3.108a2.024,2.024,0,0,1,0,4.049" transform="translate(-3004.897 -571.648)" fill="#8a8f93"/>
        <path id="Trazado_677868" data-name="Trazado 677868" d="M3382.532,591.794h-3.108a2.024,2.024,0,0,1,0-4.049h3.108a2.024,2.024,0,0,1,0,4.049" transform="translate(-3004.897 -522.921)" fill="#8a8f93"/>
        <path id="Trazado_677869" data-name="Trazado 677869" d="M3382.532,537.026h-3.108a2.024,2.024,0,0,1,0-4.049h3.108a2.024,2.024,0,0,1,0,4.049" transform="translate(-3004.897 -474.194)" fill="#8a8f93"/>
        <path id="Trazado_677870" data-name="Trazado 677870" d="M3382.532,482.258h-3.108a2.025,2.025,0,0,1,0-4.049h3.108a2.025,2.025,0,0,1,0,4.049" transform="translate(-3004.897 -425.466)" fill="#8a8f93"/>
        <path id="Trazado_677871" data-name="Trazado 677871" d="M3466.321,706.724h-.683a3.237,3.237,0,0,1-3.237-3.237v-2.969a3.237,3.237,0,0,1,3.237-3.237h.683a3.237,3.237,0,0,1,3.237,3.237v2.969a3.237,3.237,0,0,1-3.237,3.237" transform="translate(-3080.523 -620.376)" fill="#8a8f93"/>
        <path id="Trazado_677872" data-name="Trazado 677872" d="M3467.535,646.562h-3.108a2.024,2.024,0,1,1,0-4.049h3.108a2.024,2.024,0,0,1,0,4.049" transform="translate(-3080.525 -571.648)" fill="#8a8f93"/>
        <path id="Trazado_677873" data-name="Trazado 677873" d="M3467.535,591.794h-3.108a2.024,2.024,0,1,1,0-4.049h3.108a2.024,2.024,0,0,1,0,4.049" transform="translate(-3080.525 -522.921)" fill="#8a8f93"/>
        <path id="Trazado_677874" data-name="Trazado 677874" d="M3467.535,537.026h-3.108a2.024,2.024,0,1,1,0-4.049h3.108a2.024,2.024,0,0,1,0,4.049" transform="translate(-3080.525 -474.194)" fill="#8a8f93"/>
        <path id="Trazado_677875" data-name="Trazado 677875" d="M3467.535,482.258h-3.108a2.025,2.025,0,1,1,0-4.049h3.108a2.025,2.025,0,0,1,0,4.049" transform="translate(-3080.525 -425.466)" fill="#e84715"/>
        <path id="Trazado_677876" data-name="Trazado 677876" d="M3482,488.651h-.485l-.076-.358h-.6l-.083.358h-.485l.656-2.294h.5Zm-.631-.729-.2-1h-.008l-.233,1Z" transform="translate(-3096.416 -432.715)" fill="#fff"/>
        <path id="Trazado_677877" data-name="Trazado 677877" d="M3498.512,488.214a1.036,1.036,0,0,1-.42.083.9.9,0,0,1-.694-.3,1.263,1.263,0,0,1-.278-.884,1.3,1.3,0,0,1,.275-.9.846.846,0,0,1,.643-.3,1.136,1.136,0,0,1,.47.114v.481a1.5,1.5,0,0,0-.253-.113.57.57,0,0,0-.124-.013.449.449,0,0,0-.342.162.827.827,0,0,0-.147.557.867.867,0,0,0,.142.572.455.455,0,0,0,.354.159.673.673,0,0,0,.373-.136Z" transform="translate(-3111.414 -432.315)" fill="#fff"/>
        <path id="Trazado_677878" data-name="Trazado 677878" d="M3479.41,653.179h-.473l-.112-1.877h-.007l-.349,1.877h-.353l-.333-1.888h-.008l-.126,1.888h-.473l.237-2.294h.624l.252,1.512h.007l.275-1.512h.617Z" transform="translate(-3093.669 -579.097)" fill="#fff"/>
        <path id="Trazado_677879" data-name="Trazado 677879" d="M3501.7,652.533a.668.668,0,0,1-.194.508.882.882,0,0,1-1.086,0,.727.727,0,0,1-.192-.542v-1.609h.5v1.53a.417.417,0,0,0,.063.249.206.206,0,0,0,.177.087.2.2,0,0,0,.168-.084.378.378,0,0,0,.062-.228v-1.554h.5Z" transform="translate(-3114.179 -579.097)" fill="#fff"/>
        <path id="Trazado_677880" data-name="Trazado 677880" d="M3485.266,596q.47,0,.47.6a.691.691,0,0,1-.127.443.43.43,0,0,1-.355.158q-.478,0-.478-.6t.489-.606m-.008.316q-.123,0-.123.29t.123.277q.121,0,.121-.277t-.117-.29Zm1.393-.312-1.158,2.408h-.286l1.162-2.408Zm-.05,1.2q.487,0,.487.621a.679.679,0,0,1-.123.434.416.416,0,0,1-.344.153q-.487,0-.487-.614a.7.7,0,0,1,.121-.442.415.415,0,0,1,.345-.153m.02.9q.112,0,.112-.268,0-.312-.115-.312t-.125.286q0,.294.129.294" transform="translate(-3100.432 -530.262)" fill="#fff"/>
        <path id="Trazado_677881" data-name="Trazado 677881" d="M3392.919,487.093a1.788,1.788,0,0,1,.1-.709.872.872,0,0,1,.278-.351.732.732,0,0,1,.438-.125.741.741,0,0,1,.353.073.853.853,0,0,1,.249.211.876.876,0,0,1,.168.344,2.237,2.237,0,0,1,.053.543,1.483,1.483,0,0,1-.23.956.755.755,0,0,1-.6.264.728.728,0,0,1-.595-.273,1.5,1.5,0,0,1-.222-.932m.523-.14v.147a2.948,2.948,0,0,0,.024.477.312.312,0,0,0,.1.181.279.279,0,0,0,.187.066.241.241,0,0,0,.162-.064.356.356,0,0,0,.1-.2,3.693,3.693,0,0,0,0-.9.4.4,0,0,0-.1-.207.245.245,0,0,0-.184-.079.237.237,0,0,0-.228.137,1.007,1.007,0,0,0-.07.434" transform="translate(-3018.705 -432.316)" fill="#fff"/>
        <path id="Trazado_677882" data-name="Trazado 677882" d="M3412.837,488.621h-.524l-.584-1.448h-.008v1.448h-.481v-2.3h.542l.575,1.426h.009v-1.426h.47Z" transform="translate(-3035.006 -432.685)" fill="#fff"/>
        <path id="Trazado_677883" data-name="Trazado 677883" d="M3483.749,733.342h-3.676v-.53h3.676Zm0,1.586h-3.676v-.53h3.676Z" transform="translate(-3096.247 -651.988)" fill="#fff"/>
        <path id="Trazado_677884" data-name="Trazado 677884" d="M3147.1,734.421a.782.782,0,0,1,.736.462,4.2,4.2,0,0,1,.24,1.724,6.4,6.4,0,0,1-.1,1.416,1.247,1.247,0,0,1-.315.592.844.844,0,0,1-1.142-.04,1.311,1.311,0,0,1-.305-.67,8.727,8.727,0,0,1-.079-1.41,5.717,5.717,0,0,1,.1-1.25,1.319,1.319,0,0,1,.307-.6.739.739,0,0,1,.56-.221Zm.366,1.826V736.1a6.551,6.551,0,0,0-.022-.671.881.881,0,0,0-.112-.332.27.27,0,0,0-.238-.158q-.215,0-.288.279a4,4,0,0,0-.074.92v.138l.007.144v.151l-.007.363v.1a4.763,4.763,0,0,0,.07.979c.047.2.146.294.3.294a.259.259,0,0,0,.231-.124.86.86,0,0,0,.1-.381q.023-.257.023-1.193v-.178Z" transform="translate(-2799.133 -653.42)" fill="#fff"/>
        <path id="Trazado_677885" data-name="Trazado 677885" d="M3150.01,662.759h-.557v-3.82h-.376v-.459h.932Z" transform="translate(-2801.757 -585.854)" fill="#fff"/>
        <path id="Trazado_677886" data-name="Trazado 677886" d="M3228.2,659.428a1.791,1.791,0,0,1,.243-1.169.99.99,0,0,1,.753-.267q.909,0,.909.953a2.584,2.584,0,0,1-.121.74,7.242,7.242,0,0,1-.423,1.021l-.536,1.1h.956v.523h-1.868l.748-1.476a.5.5,0,0,0,.062-.117q.038-.091.055-.124a8.164,8.164,0,0,0,.411-.934,2.071,2.071,0,0,0,.122-.672.63.63,0,0,0-.094-.371.331.331,0,0,0-.583.107,3.026,3.026,0,0,0-.071.689Z" transform="translate(-2872.078 -585.421)" fill="#fff"/>
        <path id="Trazado_677887" data-name="Trazado 677887" d="M3315.98,659.881a.787.787,0,0,1,.345.336,1.652,1.652,0,0,1,.1.688,1.578,1.578,0,0,1-.237.975.938.938,0,0,1-.78.3.8.8,0,0,1-.7-.273,1.573,1.573,0,0,1-.2-.874h.543q.007.647.387.647a.318.318,0,0,0,.3-.168,1.155,1.155,0,0,0,.093-.533,1.092,1.092,0,0,0-.143-.694.663.663,0,0,0-.494-.144v-.513a.692.692,0,0,0,.507-.136.856.856,0,0,0,.123-.548,1.18,1.18,0,0,0-.076-.495.3.3,0,0,0-.521,0,1.283,1.283,0,0,0-.073.486h-.55a1.441,1.441,0,0,1,.223-.9.833.833,0,0,1,.676-.258.846.846,0,0,1,.7.268,1.405,1.405,0,0,1,.215.873,1.512,1.512,0,0,1-.1.665.746.746,0,0,1-.342.3" transform="translate(-2948.944 -585.232)" fill="#fff"/>
        <path id="Trazado_677888" data-name="Trazado 677888" d="M3148.06,584.907h-.235l-.006.007v1.181h-.563v-1.187h-1.127v-.533l1.161-2.613h.53v2.633h.241Zm-.8-.513v-1.531l-.013.005-.674,1.526Z" transform="translate(-2799.133 -517.597)" fill="#fff"/>
        <path id="Trazado_677889" data-name="Trazado 677889" d="M3230.189,582.778h-.97l-.137.969a1.122,1.122,0,0,1,1.1,1.29,1.694,1.694,0,0,1-.355,1.1,1.1,1.1,0,0,1-.892.437,1.446,1.446,0,0,1-.694-.211l.165-.5a.648.648,0,0,1,.084.044.856.856,0,0,0,.4.114.608.608,0,0,0,.514-.251,1.131,1.131,0,0,0,.188-.693.9.9,0,0,0-.194-.621.708.708,0,0,0-.557-.216,1.913,1.913,0,0,0-.374.054l.312-2.046h1.416Z" transform="translate(-2872.186 -518.03)" fill="#fff"/>
        <path id="Trazado_677890" data-name="Trazado 677890" d="M3315.406,583.926a.794.794,0,0,1,.334-.092.722.722,0,0,1,.593.269,1.761,1.761,0,0,1,.217,1.044,1.9,1.9,0,0,1-.241,1.115.89.89,0,0,1-.755.316.784.784,0,0,1-.7-.329,1.924,1.924,0,0,1-.22-1.044,5.036,5.036,0,0,1,.049-.767,3.458,3.458,0,0,1,.168-.641,7.632,7.632,0,0,1,.315-.737l.4-.812h.643l-.519,1.044Zm-.16,1.285a2.136,2.136,0,0,0,.073.67.278.278,0,0,0,.282.2q.346,0,.346-.7l-.007-.054v-.071l.007-.144v-.067a.966.966,0,0,0-.1-.551.3.3,0,0,0-.236-.124.3.3,0,0,0-.29.153,1.232,1.232,0,0,0-.079.522l.007.06Z" transform="translate(-2949.052 -518.03)" fill="#fff"/>
        <path id="Trazado_677891" data-name="Trazado 677891" d="M3149.814,505.387l-1.23,4.273-.564-.007,1.08-3.736h-1.146v-.53Z" transform="translate(-2800.757 -449.646)" fill="#fff"/>
        <path id="Trazado_677892" data-name="Trazado 677892" d="M3230.268,506.8a.862.862,0,0,1,.421.415,1.837,1.837,0,0,1,.116.727,1.526,1.526,0,0,1-.226.932.868.868,0,0,1-.729.291q-.943,0-.942-1.229a1.68,1.68,0,0,1,.131-.747.8.8,0,0,1,.419-.375.783.783,0,0,1-.35-.32,1.425,1.425,0,0,1-.1-.629,1.387,1.387,0,0,1,.2-.83.737.737,0,0,1,.629-.26.856.856,0,0,1,.677.245,1.163,1.163,0,0,1,.215.778,1.631,1.631,0,0,1-.1.674.728.728,0,0,1-.351.329m-.393,1.858q.329,0,.329-.7a2.281,2.281,0,0,0-.071-.679.29.29,0,0,0-.538-.037,1.414,1.414,0,0,0-.075.544,2.169,2.169,0,0,0,.072.671.277.277,0,0,0,.283.2m-.027-2.079a.253.253,0,0,0,.251-.161,1.446,1.446,0,0,0,.071-.533,1.111,1.111,0,0,0-.071-.461.245.245,0,0,0-.238-.142.249.249,0,0,0-.25.141,1.247,1.247,0,0,0-.065.48,1.479,1.479,0,0,0,.065.521.237.237,0,0,0,.237.156" transform="translate(-2872.781 -449.105)" fill="#fff"/>
        <path id="Trazado_677893" data-name="Trazado 677893" d="M3315.773,507.5a1.221,1.221,0,0,1-.376.084.667.667,0,0,1-.554-.273,1.709,1.709,0,0,1-.211-1,3.338,3.338,0,0,1,.081-.848.839.839,0,0,1,.3-.453.935.935,0,0,1,.582-.168.829.829,0,0,1,.717.307,2.208,2.208,0,0,1,.225,1.2,3.942,3.942,0,0,1-.122,1.043,5.593,5.593,0,0,1-.422,1.025q-.3.585-.374.756h-.629l.1-.211q.571-1.177.678-1.465m.17-1.291v-.087q0-.771-.361-.771h-.013a.266.266,0,0,0-.259.161,1.277,1.277,0,0,0-.078.52,3.577,3.577,0,0,0,.061.8.276.276,0,0,0,.29.23c.173,0,.276-.066.31-.2a2.923,2.923,0,0,0,.051-.654" transform="translate(-2949.052 -449.159)" fill="#fff"/>
        <path id="Trazado_677894" data-name="Trazado 677894" d="M3219.834,734.421a.782.782,0,0,1,.736.462,4.191,4.191,0,0,1,.24,1.724,6.4,6.4,0,0,1-.1,1.416,1.252,1.252,0,0,1-.315.592.844.844,0,0,1-1.142-.04,1.307,1.307,0,0,1-.305-.67,8.749,8.749,0,0,1-.079-1.41,5.752,5.752,0,0,1,.1-1.25,1.321,1.321,0,0,1,.307-.6.739.739,0,0,1,.56-.221Zm.366,1.826V736.1a6.625,6.625,0,0,0-.022-.671.885.885,0,0,0-.112-.332.269.269,0,0,0-.238-.158q-.215,0-.289.279a4,4,0,0,0-.074.92v.138l.007.144v.151l-.007.363v.1a4.723,4.723,0,0,0,.071.979q.07.294.3.294a.259.259,0,0,0,.231-.124.863.863,0,0,0,.1-.381q.023-.257.023-1.193v-.178Z" transform="translate(-2863.848 -653.42)" fill="#fff"/>
        <path id="Trazado_677895" data-name="Trazado 677895" d="M3242.58,734.421a.782.782,0,0,1,.736.462,4.2,4.2,0,0,1,.24,1.724,6.4,6.4,0,0,1-.1,1.416,1.247,1.247,0,0,1-.315.592.843.843,0,0,1-1.142-.04,1.3,1.3,0,0,1-.305-.67,8.713,8.713,0,0,1-.079-1.41,5.717,5.717,0,0,1,.1-1.25,1.319,1.319,0,0,1,.307-.6.738.738,0,0,1,.56-.221Zm.366,1.826V736.1a6.551,6.551,0,0,0-.022-.671.88.88,0,0,0-.112-.332.27.27,0,0,0-.238-.158c-.143,0-.24.093-.289.279a4,4,0,0,0-.074.92v.138l.007.144v.151l-.007.363v.1a4.719,4.719,0,0,0,.071.979q.07.294.3.294a.261.261,0,0,0,.232-.124.867.867,0,0,0,.1-.381q.023-.257.023-1.193v-.178Z" transform="translate(-2884.085 -653.42)" fill="#fff"/>
        <path id="Trazado_677896" data-name="Trazado 677896" d="M3397.875,727.978h-1.58v1.57h-.53v-1.57h-1.57v-.53h1.57v-1.57h.53v1.57h1.58Z" transform="translate(-3019.841 -645.82)" fill="#fff"/>
        <rect id="Rectángulo_344862" data-name="Rectángulo 344862" width="3.528" height="0.342" transform="translate(374.305 72.922)" fill="#fff"/>
        <rect id="Rectángulo_344863" data-name="Rectángulo 344863" width="3.528" height="0.342" transform="translate(374.305 60.695)" fill="#fff"/>
        <path id="Trazado_677897" data-name="Trazado 677897" d="M3406.934,540.853a.36.36,0,1,1-.362.36.345.345,0,0,1,.106-.255.351.351,0,0,1,.256-.105" transform="translate(-3030.852 -481.201)" fill="#fff"/>
        <path id="Trazado_677898" data-name="Trazado 677898" d="M3319.311,748.536a.608.608,0,1,1-.611.607.582.582,0,0,1,.18-.43.592.592,0,0,1,.432-.178" transform="translate(-2952.672 -665.978)" fill="#fff"/>
        <path id="Trazado_677899" data-name="Trazado 677899" d="M3406.934,557.127a.36.36,0,1,1-.362.36.345.345,0,0,1,.106-.255.351.351,0,0,1,.256-.105" transform="translate(-3030.852 -495.68)" fill="#fff"/>
        <path id="Trazado_677900" data-name="Trazado 677900" d="M3402.142,598.515h-.551l-.532-.834-.514.834h-.553l.788-1.287-.747-1.232h.558l.473.768.47-.768h.565l-.754,1.223Z" transform="translate(-3024.998 -530.262)" fill="#fff"/>
        <path id="Trazado_677901" data-name="Trazado 677901" d="M3482.646,543.493h0v-.032l-1.747-.813-.145.31,1.15.535h-2.786v.342h2.751l-1.115.519v.377l1.892-.881-.007-.016h0l.007,0v-.345Z" transform="translate(-3095.397 -482.797)" fill="#fff"/>
        <rect id="Rectángulo_344864" data-name="Rectángulo 344864" width="3.528" height="0.342" transform="translate(383.721 60.695)" fill="#fff"/>
      </g>
    </g>
  </g>
</svg>
