<svg xmlns="http://www.w3.org/2000/svg" xmlns:xlink="http://www.w3.org/1999/xlink" width="556.883" height="349" viewBox="0 0 556.883 349">
  <defs>
    <clipPath id="clip-path">
      <rect id="Rectángulo_344892" data-name="Rectángulo 344892" width="394.185" height="349" fill="none"/>
    </clipPath>
    <clipPath id="clip-path-3">
      <rect id="Rectángulo_344881" data-name="Rectángulo 344881" width="69.981" height="61.772" fill="#a1a1a1"/>
    </clipPath>
    <clipPath id="clip-path-4">
      <rect id="Rectángulo_344882" data-name="Rectángulo 344882" width="151.025" height="63.828" fill="#9d9d9d"/>
    </clipPath>
    <clipPath id="clip-path-5">
      <rect id="Rectángulo_344883" data-name="Rectángulo 344883" width="232.079" height="63.829" fill="none"/>
    </clipPath>
    <clipPath id="clip-path-6">
      <rect id="Rectángulo_344884" data-name="Rectángulo 344884" width="313.132" height="63.828" fill="#20305a"/>
    </clipPath>
    <clipPath id="clip-path-7">
      <rect id="Rectángulo_344885" data-name="Rectángulo 344885" width="394.185" height="63.829" fill="none"/>
    </clipPath>
    <clipPath id="clip-path-8">
      <rect id="Rectángulo_344886" data-name="Rectángulo 344886" width="34.99" height="61.772" fill="#636363"/>
    </clipPath>
    <clipPath id="clip-path-9">
      <rect id="Rectángulo_344887" data-name="Rectángulo 344887" width="75.512" height="63.829" fill="#9d9d9d"/>
    </clipPath>
    <clipPath id="clip-path-10">
      <rect id="Rectángulo_344888" data-name="Rectángulo 344888" width="116.039" height="63.828" fill="#4e68b0"/>
    </clipPath>
    <clipPath id="clip-path-11">
      <rect id="Rectángulo_344889" data-name="Rectángulo 344889" width="156.566" height="63.829" fill="#5d7cd1"/>
    </clipPath>
    <clipPath id="clip-path-12">
      <rect id="Rectángulo_344890" data-name="Rectángulo 344890" width="197.092" height="63.828" fill="#14b0bf"/>
    </clipPath>
  </defs>
  <g id="Grupo_991591" data-name="Grupo 991591" transform="translate(-812 -15449)">
    <path id="Trazado_679401" data-name="Trazado 679401" d="M24.891,15H23.383L17.656,6.234V15H16.148V3.625h1.508l5.742,8.8v-8.8h1.492Zm2.055-4.3a4.993,4.993,0,0,1,.488-2.234A3.643,3.643,0,0,1,28.793,6.93a3.7,3.7,0,0,1,1.988-.539,3.565,3.565,0,0,1,2.793,1.2,4.6,4.6,0,0,1,1.066,3.18v.1a5.036,5.036,0,0,1-.473,2.215,3.589,3.589,0,0,1-1.352,1.527,3.743,3.743,0,0,1-2.02.547,3.556,3.556,0,0,1-2.785-1.2A4.575,4.575,0,0,1,26.945,10.8Zm1.453.172a3.616,3.616,0,0,0,.652,2.258,2.211,2.211,0,0,0,3.5-.012A3.955,3.955,0,0,0,33.2,10.7a3.61,3.61,0,0,0-.66-2.254,2.1,2.1,0,0,0-1.754-.863,2.075,2.075,0,0,0-1.727.852A3.925,3.925,0,0,0,28.4,10.867ZM38.414,4.5V6.547h1.578V7.664H38.414v5.249a1.173,1.173,0,0,0,.211.763.888.888,0,0,0,.719.254,3.5,3.5,0,0,0,.688-.094V15a4.215,4.215,0,0,1-1.109.155,1.8,1.8,0,0,1-1.461-.586,2.517,2.517,0,0,1-.492-1.664V7.664H35.43V6.547h1.539V4.5ZM46.9,15a3.036,3.036,0,0,1-.2-.891,3.225,3.225,0,0,1-2.406,1.047,2.984,2.984,0,0,1-2.051-.707,2.287,2.287,0,0,1-.8-1.793,2.39,2.39,0,0,1,1-2.051,4.733,4.733,0,0,1,2.824-.73h1.406V9.211A1.623,1.623,0,0,0,46.219,8a1.821,1.821,0,0,0-1.336-.449,2.107,2.107,0,0,0-1.3.391,1.151,1.151,0,0,0-.523.945H41.609a2,2,0,0,1,.449-1.223,3.066,3.066,0,0,1,1.219-.934,4.1,4.1,0,0,1,1.691-.344,3.342,3.342,0,0,1,2.289.73,2.635,2.635,0,0,1,.859,2.012v3.891a4.757,4.757,0,0,0,.3,1.852V15Zm-2.4-1.1a2.54,2.54,0,0,0,1.289-.352,2.127,2.127,0,0,0,.883-.914V10.9H45.539q-2.656,0-2.656,1.555a1.316,1.316,0,0,0,.453,1.063A1.742,1.742,0,0,0,44.5,13.9Zm5.914.344a.905.905,0,0,1,.223-.625.848.848,0,0,1,.668-.25.874.874,0,0,1,.676.25.887.887,0,0,1,.23.625.839.839,0,0,1-.23.6.89.89,0,0,1-.676.242.8.8,0,0,1-.891-.844ZM62.133,9.93a7.053,7.053,0,0,1-2.809-1.363,2.6,2.6,0,0,1-.879-2A2.751,2.751,0,0,1,59.52,4.348a4.269,4.269,0,0,1,2.793-.879,4.66,4.66,0,0,1,2.09.453,3.436,3.436,0,0,1,1.422,1.25,3.2,3.2,0,0,1,.5,1.742H64.82a2.08,2.08,0,0,0-.656-1.627A2.669,2.669,0,0,0,62.313,4.7a2.732,2.732,0,0,0-1.73.489,1.632,1.632,0,0,0-.621,1.358,1.468,1.468,0,0,0,.59,1.178,5.785,5.785,0,0,0,2.008.88,9.316,9.316,0,0,1,2.219.88A3.367,3.367,0,0,1,65.965,10.6a2.861,2.861,0,0,1,.387,1.508,2.658,2.658,0,0,1-1.078,2.215,4.6,4.6,0,0,1-2.883.832,5.347,5.347,0,0,1-2.187-.449,3.681,3.681,0,0,1-1.566-1.23,3,3,0,0,1-.551-1.773h1.508a1.959,1.959,0,0,0,.762,1.629,3.207,3.207,0,0,0,2.035.6,2.948,2.948,0,0,0,1.82-.484,1.573,1.573,0,0,0,.633-1.32,1.545,1.545,0,0,0-.586-1.293A6.755,6.755,0,0,0,62.133,9.93ZM74.7,9.742h-4.93v4.031H75.5V15H68.273V3.625h7.148V4.852H69.773V8.516H74.7ZM86.109,15H84.6L78.875,6.234V15H77.367V3.625h1.508l5.742,8.8v-8.8h1.492ZM95.2,12.023H90.43L89.359,15H87.813L92.156,3.625h1.313L97.82,15H96.281ZM90.883,10.8H94.75l-1.937-5.32Zm12.148-.414a12.079,12.079,0,0,1,.473-3.391,9.849,9.849,0,0,1,1.41-2.953,6,6,0,0,1,1.945-1.875l.3.953a6.222,6.222,0,0,0-1.871,2.672,11.583,11.583,0,0,0-.8,4.023l-.008.664a11.643,11.643,0,0,0,1.1,5.234,6.252,6.252,0,0,0,1.578,2.078l-.3.883a6.192,6.192,0,0,1-1.984-1.937A10.859,10.859,0,0,1,103.031,10.383ZM115.859,15h-7.453V13.961l3.938-4.375a9.354,9.354,0,0,0,1.207-1.613,2.693,2.693,0,0,0,.332-1.285,2.041,2.041,0,0,0-.539-1.461,1.885,1.885,0,0,0-1.437-.57,2.232,2.232,0,0,0-1.676.613,2.343,2.343,0,0,0-.6,1.707h-1.445A3.355,3.355,0,0,1,109.2,4.438a3.751,3.751,0,0,1,2.707-.969,3.6,3.6,0,0,1,2.508.832,2.838,2.838,0,0,1,.922,2.215q0,1.68-2.141,4l-3.047,3.3h5.711Zm8.664-4.852a6.61,6.61,0,0,1-.867,3.773,3.6,3.6,0,0,1-5.406.027,6.274,6.274,0,0,1-.906-3.605V8.414a6.463,6.463,0,0,1,.867-3.727,3.668,3.668,0,0,1,5.422-.043,6.237,6.237,0,0,1,.891,3.629Zm-1.445-1.977a5.3,5.3,0,0,0-.516-2.676,1.775,1.775,0,0,0-1.633-.84,1.751,1.751,0,0,0-1.617.836,5.171,5.171,0,0,0-.523,2.57v2.313a5.381,5.381,0,0,0,.535,2.723,1.771,1.771,0,0,0,1.621.879,1.747,1.747,0,0,0,1.59-.828,5.186,5.186,0,0,0,.543-2.609ZM133.828,15h-7.453V13.961l3.938-4.375a9.355,9.355,0,0,0,1.207-1.613,2.692,2.692,0,0,0,.332-1.285,2.041,2.041,0,0,0-.539-1.461,1.885,1.885,0,0,0-1.437-.57,2.232,2.232,0,0,0-1.676.613,2.343,2.343,0,0,0-.6,1.707h-1.445a3.355,3.355,0,0,1,1.012-2.539,3.751,3.751,0,0,1,2.707-.969,3.6,3.6,0,0,1,2.508.832,2.838,2.838,0,0,1,.922,2.215q0,1.68-2.141,4l-3.047,3.3h5.711Zm8.984,0h-7.453V13.961L139.3,9.586A9.355,9.355,0,0,0,140.5,7.973a2.692,2.692,0,0,0,.332-1.285,2.041,2.041,0,0,0-.539-1.461,1.885,1.885,0,0,0-1.437-.57,2.232,2.232,0,0,0-1.676.613,2.343,2.343,0,0,0-.6,1.707h-1.445a3.355,3.355,0,0,1,1.012-2.539,3.751,3.751,0,0,1,2.707-.969,3.6,3.6,0,0,1,2.508.832,2.838,2.838,0,0,1,.922,2.215q0,1.68-2.141,4l-3.047,3.3h5.711Zm5.016-4.539a12.084,12.084,0,0,1-.457,3.34,9.876,9.876,0,0,1-1.4,2.949A6.127,6.127,0,0,1,144,18.672l-.3-.883a6.281,6.281,0,0,0,1.934-2.863,12.387,12.387,0,0,0,.746-4.309v-.25a12.861,12.861,0,0,0-.344-3.051,10.3,10.3,0,0,0-.957-2.527A5.838,5.838,0,0,0,143.7,3.047l.3-.883a6.1,6.1,0,0,1,1.965,1.906,9.9,9.9,0,0,1,1.4,2.945A12.364,12.364,0,0,1,147.828,10.461Zm2.258,3.781a.905.905,0,0,1,.223-.625.848.848,0,0,1,.668-.25.874.874,0,0,1,.676.25.887.887,0,0,1,.23.625.839.839,0,0,1-.23.6.89.89,0,0,1-.676.242.8.8,0,0,1-.891-.844Z" transform="translate(1217 15777)" fill="#12263f"/>
    <g id="Grupo_990934" data-name="Grupo 990934" transform="translate(397.986 -648.623)">
      <g id="Grupo_990932" data-name="Grupo 990932" transform="translate(558.103 16097.623)">
        <g id="Grupo_990931" data-name="Grupo 990931" transform="translate(0 0)">
          <g id="Grupo_990930" data-name="Grupo 990930">
            <g id="Grupo_990929" data-name="Grupo 990929" clip-path="url(#clip-path)">
              <g id="Grupo_990928" data-name="Grupo 990928">
                <g id="Grupo_990927" data-name="Grupo 990927" clip-path="url(#clip-path)">
                  <g id="Grupo_990899" data-name="Grupo 990899" transform="translate(162.102 283.682)" style="mix-blend-mode: multiply;isolation: isolate">
                    <g id="Grupo_990898" data-name="Grupo 990898">
                      <g id="Enmascarar_grupo_990897" data-name="Enmascarar grupo 990897" clip-path="url(#clip-path-3)">
                        <path id="Trazado_677921" data-name="Trazado 677921" d="M459.751,8.572H393.892a2.058,2.058,0,0,0-1.786,3.08L425.062,69.32a2.024,2.024,0,0,0,3.519,0l32.956-57.667a2.058,2.058,0,0,0-1.786-3.08" transform="translate(-391.831 -8.572)" fill="#a1a1a1"/>
                      </g>
                    </g>
                  </g>
                  <g id="Grupo_990902" data-name="Grupo 990902" transform="translate(121.579 212.762)" style="mix-blend-mode: multiply;isolation: isolate">
                    <g id="Grupo_990901" data-name="Grupo 990901">
                      <g id="Grupo_990900" data-name="Grupo 990900" clip-path="url(#clip-path-4)">
                        <path id="Trazado_677922" data-name="Trazado 677922" d="M442.845,175.028h-146.9a2.058,2.058,0,0,0-1.786,3.08l32.951,57.667a6.124,6.124,0,0,0,5.306,3.081h73.961a6.124,6.124,0,0,0,5.306-3.081l32.951-57.667a2.058,2.058,0,0,0-1.786-3.08" transform="translate(-293.881 -175.028)" fill="#8c8c8c"/>
                      </g>
                    </g>
                  </g>
                  <g id="Grupo_990905" data-name="Grupo 990905" transform="translate(81.053 141.841)" style="mix-blend-mode: multiply;isolation: isolate">
                    <g id="Grupo_990904" data-name="Grupo 990904">
                      <g id="Grupo_990903" data-name="Grupo 990903" clip-path="url(#clip-path-5)">
                        <path id="Trazado_677923" data-name="Trazado 677923" d="M425.937,346.457H197.981a2.058,2.058,0,0,0-1.786,3.081L229.146,407.2a6.124,6.124,0,0,0,5.306,3.081H389.466a6.124,6.124,0,0,0,5.306-3.081l32.951-57.667a2.058,2.058,0,0,0-1.786-3.081" transform="translate(-195.92 -346.457)" fill="#4d67b0"/>
                      </g>
                    </g>
                  </g>
                  <g id="Grupo_990908" data-name="Grupo 990908" transform="translate(40.526 70.921)" style="mix-blend-mode: multiply;isolation: isolate">
                    <g id="Grupo_990907" data-name="Grupo 990907">
                      <g id="Grupo_990906" data-name="Grupo 990906" clip-path="url(#clip-path-6)">
                        <path id="Trazado_677924" data-name="Trazado 677924" d="M409.03,517.885H100.02a2.058,2.058,0,0,0-1.786,3.08l32.951,57.667a6.124,6.124,0,0,0,5.306,3.081H372.559a6.124,6.124,0,0,0,5.306-3.081l32.951-57.667a2.058,2.058,0,0,0-1.786-3.08" transform="translate(-97.959 -517.885)" fill="#4e68b0"/>
                      </g>
                    </g>
                  </g>
                  <g id="Grupo_990911" data-name="Grupo 990911" transform="translate(0 0)" style="mix-blend-mode: multiply;isolation: isolate">
                    <g id="Grupo_990910" data-name="Grupo 990910">
                      <g id="Grupo_990909" data-name="Grupo 990909" clip-path="url(#clip-path-7)">
                        <path id="Trazado_677925" data-name="Trazado 677925" d="M392.124,689.314H2.061a2.059,2.059,0,0,0-1.786,3.081L33.23,750.062a6.124,6.124,0,0,0,5.306,3.081H355.648a6.124,6.124,0,0,0,5.306-3.081l32.956-57.667a2.058,2.058,0,0,0-1.786-3.081" transform="translate(0 -689.314)" fill="#14b0bf"/>
                      </g>
                    </g>
                  </g>
                  <path id="Trazado_677926" data-name="Trazado 677926" d="M459.751,0H393.892a2.058,2.058,0,0,0-1.786,3.08l32.956,57.667a2.024,2.024,0,0,0,3.519,0L461.537,3.08A2.058,2.058,0,0,0,459.751,0" transform="translate(-229.729 287.228)" fill="#a5a5a5"/>
                  <path id="Trazado_677927" data-name="Trazado 677927" d="M442.845,166.457h-146.9a2.058,2.058,0,0,0-1.786,3.081L327.107,227.2a6.124,6.124,0,0,0,5.306,3.081h73.961a6.124,6.124,0,0,0,5.306-3.081l32.951-57.667a2.058,2.058,0,0,0-1.786-3.081" transform="translate(-172.301 49.851)" fill="#b4b4b4"/>
                  <path id="Trazado_677928" data-name="Trazado 677928" d="M425.937,337.885H197.981a2.058,2.058,0,0,0-1.786,3.08l32.951,57.667a6.124,6.124,0,0,0,5.306,3.081H389.466a6.124,6.124,0,0,0,5.306-3.081l32.951-57.667a2.058,2.058,0,0,0-1.786-3.08" transform="translate(-114.867 -192.498)" fill="#4e68b0"/>
                  <path id="Trazado_677929" data-name="Trazado 677929" d="M409.03,509.314H100.02a2.058,2.058,0,0,0-1.786,3.081l32.951,57.667a6.124,6.124,0,0,0,5.306,3.081H372.559a6.124,6.124,0,0,0,5.306-3.081l32.951-57.667a2.058,2.058,0,0,0-1.786-3.081" transform="translate(-57.433 -434.847)" fill="#5d7cd1"/>
                  <path id="Trazado_677930" data-name="Trazado 677930" d="M392.124,680.743H2.061a2.059,2.059,0,0,0-1.786,3.081L33.23,741.491a6.124,6.124,0,0,0,5.306,3.081H355.648a6.124,6.124,0,0,0,5.306-3.081l32.956-57.667a2.058,2.058,0,0,0-1.786-3.081" transform="translate(0 -677.197)" fill="#14b0bf"/>
                  <g id="Grupo_990914" data-name="Grupo 990914" transform="translate(162.102 287.228)" opacity="0.5" style="mix-blend-mode: screen;isolation: isolate">
                    <g id="Grupo_990913" data-name="Grupo 990913">
                      <g id="Grupo_990912" data-name="Grupo 990912" clip-path="url(#clip-path-8)">
                        <path id="Trazado_677931" data-name="Trazado 677931" d="M426.821,61.772V0H393.892a2.057,2.057,0,0,0-1.786,3.08l32.956,57.667a2.011,2.011,0,0,0,1.76,1.024" transform="translate(-391.831 0)" fill="#636363"/>
                      </g>
                    </g>
                  </g>
                  <g id="Grupo_990917" data-name="Grupo 990917" transform="translate(121.579 216.308)" opacity="0.5" style="mix-blend-mode: screen;isolation: isolate">
                    <g id="Grupo_990916" data-name="Grupo 990916">
                      <g id="Grupo_990915" data-name="Grupo 990915" clip-path="url(#clip-path-9)">
                        <path id="Trazado_677932" data-name="Trazado 677932" d="M332.413,230.286h36.98V166.457H295.942a2.058,2.058,0,0,0-1.786,3.081L327.107,227.2a6.124,6.124,0,0,0,5.306,3.081" transform="translate(-293.881 -166.457)" fill="#9d9d9d"/>
                      </g>
                    </g>
                  </g>
                  <g id="Grupo_990920" data-name="Grupo 990920" transform="translate(81.053 145.387)" opacity="0.59" style="mix-blend-mode: screen;isolation: isolate">
                    <g id="Grupo_990919" data-name="Grupo 990919">
                      <g id="Grupo_990918" data-name="Grupo 990918" clip-path="url(#clip-path-10)">
                        <path id="Trazado_677933" data-name="Trazado 677933" d="M234.452,401.715h77.507V337.886H197.981a2.058,2.058,0,0,0-1.786,3.081l32.951,57.667a6.125,6.125,0,0,0,5.306,3.08" transform="translate(-195.92 -337.886)" fill="#4e68b0"/>
                      </g>
                    </g>
                  </g>
                  <g id="Grupo_990923" data-name="Grupo 990923" transform="translate(40.526 74.467)" opacity="0.5" style="mix-blend-mode: screen;isolation: isolate">
                    <g id="Grupo_990922" data-name="Grupo 990922" opacity="0.59">
                      <g id="Grupo_990921" data-name="Grupo 990921" clip-path="url(#clip-path-11)">
                        <path id="Trazado_677934" data-name="Trazado 677934" d="M136.492,573.143H254.526V509.314h-154.5a2.058,2.058,0,0,0-1.786,3.081l32.951,57.667a6.124,6.124,0,0,0,5.306,3.08" transform="translate(-97.96 -509.314)" fill="#5d7cd1"/>
                      </g>
                    </g>
                  </g>
                  <g id="Grupo_990926" data-name="Grupo 990926" transform="translate(0 3.546)" opacity="0.5" style="mix-blend-mode: screen;isolation: isolate">
                    <g id="Grupo_990925" data-name="Grupo 990925">
                      <g id="Grupo_990924" data-name="Grupo 990924" clip-path="url(#clip-path-12)">
                        <path id="Trazado_677935" data-name="Trazado 677935" d="M38.536,744.572H197.092V680.743H2.061a2.059,2.059,0,0,0-1.786,3.081l32.956,57.667a6.125,6.125,0,0,0,5.306,3.081" transform="translate(0 -680.743)" fill="#14b0bf"/>
                      </g>
                    </g>
                  </g>
                </g>
              </g>
            </g>
          </g>
          <path id="Trazado_679402" data-name="Trazado 679402" d="M6.877-4.327H2.939v2.68H7.561V0H.889V-9.953H7.547v1.661H2.939V-5.92H6.877ZM10.719,0H8.736V-10.5h1.982Zm3.712,0H12.448V-7.4h1.982Zm-2.1-9.311a.973.973,0,0,1,.3-.731,1.117,1.117,0,0,1,.81-.287,1.12,1.12,0,0,1,.807.287.967.967,0,0,1,.3.731.97.97,0,0,1-.3.738,1.122,1.122,0,0,1-.8.287,1.122,1.122,0,0,1-.8-.287A.97.97,0,0,1,12.332-9.311ZM17.91-7.4l.062.827A2.6,2.6,0,0,1,20.1-7.533,1.973,1.973,0,0,1,22.06-6.405a2.54,2.54,0,0,1,2.222-1.128,2.206,2.206,0,0,1,1.791.7,3.221,3.221,0,0,1,.588,2.109V0H24.678V-4.728a1.414,1.414,0,0,0-.246-.922,1.089,1.089,0,0,0-.868-.291,1.233,1.233,0,0,0-1.23.85L22.34,0H20.364V-4.721a1.4,1.4,0,0,0-.253-.932,1.1,1.1,0,0,0-.861-.288,1.28,1.28,0,0,0-1.217.7V0H16.058V-7.4ZM30.263,0H28.28V-7.4h1.982Zm-2.1-9.311a.973.973,0,0,1,.3-.731,1.117,1.117,0,0,1,.81-.287,1.12,1.12,0,0,1,.807.287.967.967,0,0,1,.3.731.97.97,0,0,1-.3.738,1.122,1.122,0,0,1-.8.287,1.122,1.122,0,0,1-.8-.287A.97.97,0,0,1,28.164-9.311ZM33.708-7.4l.062.854A2.582,2.582,0,0,1,35.9-7.533a2.146,2.146,0,0,1,1.75.69,3.221,3.221,0,0,1,.588,2.064V0H36.258V-4.741a1.287,1.287,0,0,0-.273-.915,1.222,1.222,0,0,0-.909-.284,1.359,1.359,0,0,0-1.251.713V0H31.849V-7.4ZM44.017,0a2.194,2.194,0,0,1-.2-.663,2.39,2.39,0,0,1-1.866.8,2.626,2.626,0,0,1-1.8-.629,2.023,2.023,0,0,1-.714-1.586,2.09,2.09,0,0,1,.872-1.8,4.3,4.3,0,0,1,2.519-.636h.909v-.424a1.219,1.219,0,0,0-.263-.82,1.035,1.035,0,0,0-.831-.308,1.177,1.177,0,0,0-.783.239.813.813,0,0,0-.284.656H39.6A1.984,1.984,0,0,1,40-6.364a2.621,2.621,0,0,1,1.121-.858,4.086,4.086,0,0,1,1.627-.311,3.228,3.228,0,0,1,2.17.687,2.4,2.4,0,0,1,.8,1.931v3.206a3.536,3.536,0,0,0,.294,1.593V0ZM42.383-1.374a1.7,1.7,0,0,0,.807-.195,1.28,1.28,0,0,0,.547-.523V-3.363H43q-1.483,0-1.579,1.025l-.007.116a.791.791,0,0,0,.26.608A1.009,1.009,0,0,0,42.383-1.374Zm7.93-.082a1.3,1.3,0,0,0,.889-.3,1.054,1.054,0,0,0,.355-.8h1.853A2.534,2.534,0,0,1,53-1.179a2.706,2.706,0,0,1-1.1.971,3.455,3.455,0,0,1-1.548.345,3.211,3.211,0,0,1-2.5-1.008,3.99,3.99,0,0,1-.916-2.786v-.13a3.944,3.944,0,0,1,.909-2.728,3.174,3.174,0,0,1,2.5-1.019,3.111,3.111,0,0,1,2.225.79,2.8,2.8,0,0,1,.851,2.1H51.557A1.358,1.358,0,0,0,51.2-5.58a1.185,1.185,0,0,0-.9-.361,1.19,1.19,0,0,0-1.042.5A2.916,2.916,0,0,0,48.9-3.8V-3.6a2.953,2.953,0,0,0,.349,1.643A1.2,1.2,0,0,0,50.313-1.456ZM56.622,0H54.64V-7.4h1.982Zm-2.1-9.311a.973.973,0,0,1,.3-.731,1.117,1.117,0,0,1,.81-.287,1.12,1.12,0,0,1,.807.287.967.967,0,0,1,.3.731.97.97,0,0,1-.3.738,1.122,1.122,0,0,1-.8.287,1.122,1.122,0,0,1-.8-.287A.97.97,0,0,1,54.523-9.311Zm3.418,5.544a4.387,4.387,0,0,1,.424-1.962,3.1,3.1,0,0,1,1.22-1.333,3.56,3.56,0,0,1,1.849-.472,3.368,3.368,0,0,1,2.444.916,3.676,3.676,0,0,1,1.056,2.488l.014.506A3.866,3.866,0,0,1,64-.892,3.3,3.3,0,0,1,61.448.137,3.319,3.319,0,0,1,58.9-.889a3.934,3.934,0,0,1-.954-2.789Zm1.976.14a2.765,2.765,0,0,0,.4,1.612,1.308,1.308,0,0,0,1.135.558,1.311,1.311,0,0,0,1.121-.551,3.025,3.025,0,0,0,.4-1.763,2.737,2.737,0,0,0-.4-1.6,1.311,1.311,0,0,0-1.135-.568,1.29,1.29,0,0,0-1.121.565A3.076,3.076,0,0,0,59.917-3.626ZM61.824-10.5h2.153L62.084-8.381H60.478Zm6.159,3.1.062.854a2.582,2.582,0,0,1,2.126-.991,2.146,2.146,0,0,1,1.75.69,3.221,3.221,0,0,1,.588,2.064V0H70.533V-4.741a1.287,1.287,0,0,0-.273-.915,1.222,1.222,0,0,0-.909-.284,1.359,1.359,0,0,0-1.251.713V0H66.124V-7.4Z" transform="translate(164.912 41.312)" fill="#12263f"/>
          <path id="Trazado_679403" data-name="Trazado 679403" d="M6.05-2.611A1.052,1.052,0,0,0,5.64-3.5,5.38,5.38,0,0,0,4.163-4.16a10.467,10.467,0,0,1-1.688-.68,2.759,2.759,0,0,1-1.7-2.468,2.4,2.4,0,0,1,.455-1.439A2.965,2.965,0,0,1,2.54-9.734,4.914,4.914,0,0,1,4.45-10.09a4.473,4.473,0,0,1,1.9.386,3.026,3.026,0,0,1,1.3,1.09,2.853,2.853,0,0,1,.461,1.6H6.057a1.342,1.342,0,0,0-.431-1.063,1.77,1.77,0,0,0-1.21-.379,1.891,1.891,0,0,0-1.169.318A1,1,0,0,0,2.83-7.3a.96.96,0,0,0,.489.813,5.522,5.522,0,0,0,1.439.615,6.217,6.217,0,0,1,2.55,1.306,2.6,2.6,0,0,1,.8,1.941A2.4,2.4,0,0,1,7.13-.6,4.279,4.279,0,0,1,4.5.137a5.082,5.082,0,0,1-2.092-.42A3.31,3.31,0,0,1,.967-1.436a2.95,2.95,0,0,1-.5-1.7H2.529q0,1.647,1.969,1.647a1.915,1.915,0,0,0,1.142-.3A.967.967,0,0,0,6.05-2.611ZM13.795-.752a2.477,2.477,0,0,1-2.023.889A2.337,2.337,0,0,1,9.957-.547a2.918,2.918,0,0,1-.639-2V-7.4h1.976v4.784q0,1.157,1.053,1.157a1.426,1.426,0,0,0,1.381-.7V-7.4h1.982V0H13.85Zm7.41-1.292a.637.637,0,0,0-.359-.571,4.077,4.077,0,0,0-1.152-.373q-2.639-.554-2.639-2.242a2.032,2.032,0,0,1,.817-1.644,3.3,3.3,0,0,1,2.136-.66,3.547,3.547,0,0,1,2.252.663,2.09,2.09,0,0,1,.844,1.723H21.13a.956.956,0,0,0-.273-.7A1.157,1.157,0,0,0,20-6.125a1.182,1.182,0,0,0-.772.226.712.712,0,0,0-.273.574.609.609,0,0,0,.311.53,3.2,3.2,0,0,0,1.049.349,8.571,8.571,0,0,1,1.244.332,2.044,2.044,0,0,1,1.565,1.989,1.929,1.929,0,0,1-.868,1.637,3.745,3.745,0,0,1-2.242.625,3.912,3.912,0,0,1-1.651-.332A2.77,2.77,0,0,1,17.233-1.1a2.113,2.113,0,0,1-.41-1.248H18.7a1.031,1.031,0,0,0,.39.807,1.546,1.546,0,0,0,.971.28,1.43,1.43,0,0,0,.858-.215A.67.67,0,0,0,21.205-2.044Zm5.558-7.171V-7.4h1.265v1.449H26.763v3.691a.881.881,0,0,0,.157.588.79.79,0,0,0,.6.178,3.151,3.151,0,0,0,.581-.048v1.5a4.067,4.067,0,0,1-1.2.178,1.886,1.886,0,0,1-2.119-2.1V-5.947h-1.08V-7.4h1.08V-9.215ZM31.213,0H29.23V-7.4h1.982Zm-2.1-9.311a.973.973,0,0,1,.3-.731,1.117,1.117,0,0,1,.81-.287,1.12,1.12,0,0,1,.807.287.967.967,0,0,1,.3.731.97.97,0,0,1-.3.738,1.122,1.122,0,0,1-.8.287,1.122,1.122,0,0,1-.8-.287A.97.97,0,0,1,29.114-9.311Zm6.091.1V-7.4H36.47v1.449H35.205v3.691a.881.881,0,0,0,.157.588.79.79,0,0,0,.6.178,3.151,3.151,0,0,0,.581-.048v1.5a4.067,4.067,0,0,1-1.2.178,1.886,1.886,0,0,1-2.119-2.1V-5.947h-1.08V-7.4h1.08V-9.215ZM42-.752a2.477,2.477,0,0,1-2.023.889,2.337,2.337,0,0,1-1.815-.684,2.918,2.918,0,0,1-.639-2V-7.4H39.5v4.784q0,1.157,1.053,1.157a1.426,1.426,0,0,0,1.381-.7V-7.4h1.982V0H42.055Zm6.48-.7a1.3,1.3,0,0,0,.889-.3,1.054,1.054,0,0,0,.355-.8h1.853a2.534,2.534,0,0,1-.41,1.377,2.706,2.706,0,0,1-1.1.971,3.455,3.455,0,0,1-1.548.345,3.211,3.211,0,0,1-2.5-1.008A3.99,3.99,0,0,1,45.1-3.657v-.13a3.944,3.944,0,0,1,.909-2.728,3.174,3.174,0,0,1,2.5-1.019,3.111,3.111,0,0,1,2.225.79,2.8,2.8,0,0,1,.851,2.1H49.725a1.358,1.358,0,0,0-.355-.938,1.185,1.185,0,0,0-.9-.361,1.19,1.19,0,0,0-1.042.5A2.916,2.916,0,0,0,47.072-3.8V-3.6a2.953,2.953,0,0,0,.349,1.643A1.2,1.2,0,0,0,48.48-1.456ZM54.79,0H52.808V-7.4H54.79Zm-2.1-9.311a.973.973,0,0,1,.3-.731,1.117,1.117,0,0,1,.81-.287,1.12,1.12,0,0,1,.807.287.967.967,0,0,1,.3.731.97.97,0,0,1-.3.738,1.122,1.122,0,0,1-.8.287,1.122,1.122,0,0,1-.8-.287A.97.97,0,0,1,52.691-9.311Zm3.418,5.544a4.387,4.387,0,0,1,.424-1.962,3.1,3.1,0,0,1,1.22-1.333A3.56,3.56,0,0,1,59.6-7.533a3.368,3.368,0,0,1,2.444.916A3.676,3.676,0,0,1,63.1-4.129l.014.506a3.866,3.866,0,0,1-.95,2.731A3.3,3.3,0,0,1,59.616.137,3.319,3.319,0,0,1,57.063-.889a3.934,3.934,0,0,1-.954-2.789Zm1.976.14a2.765,2.765,0,0,0,.4,1.612,1.308,1.308,0,0,0,1.135.558,1.311,1.311,0,0,0,1.121-.551,3.025,3.025,0,0,0,.4-1.763,2.737,2.737,0,0,0-.4-1.6A1.311,1.311,0,0,0,59.6-5.94a1.29,1.29,0,0,0-1.121.565A3.076,3.076,0,0,0,58.085-3.626ZM59.992-10.5h2.153L60.252-8.381H58.646Zm6.159,3.1.062.854a2.582,2.582,0,0,1,2.126-.991,2.146,2.146,0,0,1,1.75.69,3.221,3.221,0,0,1,.588,2.064V0H68.7V-4.741a1.287,1.287,0,0,0-.273-.915,1.222,1.222,0,0,0-.909-.284,1.359,1.359,0,0,0-1.251.713V0H64.292V-7.4Z" transform="translate(163.912 110.496)" fill="#fff"/>
          <path id="Trazado_679406" data-name="Trazado 679406" d="M6.877-4.327H2.939v2.68H7.561V0H.889V-9.953H7.547v1.661H2.939V-5.92H6.877Zm3.938.82V0H8.764V-9.953h3.883a4.492,4.492,0,0,1,1.972.41,3.022,3.022,0,0,1,1.309,1.166,3.25,3.25,0,0,1,.458,1.719,2.858,2.858,0,0,1-1,2.307,4.171,4.171,0,0,1-2.772.844Zm0-1.661h1.832a1.8,1.8,0,0,0,1.241-.383,1.392,1.392,0,0,0,.427-1.094,1.642,1.642,0,0,0-.431-1.183,1.609,1.609,0,0,0-1.189-.465h-1.88Zm9.03,1.661V0H17.794V-9.953h3.883a4.492,4.492,0,0,1,1.972.41,3.022,3.022,0,0,1,1.309,1.166,3.25,3.25,0,0,1,.458,1.719,2.858,2.858,0,0,1-1,2.307,4.171,4.171,0,0,1-2.772.844Zm0-1.661h1.832a1.8,1.8,0,0,0,1.241-.383,1.392,1.392,0,0,0,.427-1.094,1.642,1.642,0,0,0-.431-1.183,1.609,1.609,0,0,0-1.189-.465h-1.88Z" transform="translate(185.911 310.467)" fill="#12263f"/>
          <path id="Trazado_679405" data-name="Trazado 679405" d="M-23.492-3.315A3.522,3.522,0,0,1-24.678-.786,4.165,4.165,0,0,1-27.5.137a3.745,3.745,0,0,1-3.011-1.289,5.284,5.284,0,0,1-1.1-3.538V-5.3A5.966,5.966,0,0,1-31.1-7.827a3.791,3.791,0,0,1,1.446-1.678,4.05,4.05,0,0,1,2.184-.584,4.058,4.058,0,0,1,2.775.923,3.785,3.785,0,0,1,1.217,2.591h-2.051a2.079,2.079,0,0,0-.537-1.4,1.987,1.987,0,0,0-1.4-.434A1.742,1.742,0,0,0-29-7.673a4.118,4.118,0,0,0-.523,2.28v.752a4.408,4.408,0,0,0,.489,2.358,1.71,1.71,0,0,0,1.542.745,2.025,2.025,0,0,0,1.418-.434,1.961,1.961,0,0,0,.537-1.343Zm.909-.451a4.387,4.387,0,0,1,.424-1.962,3.1,3.1,0,0,1,1.22-1.333,3.56,3.56,0,0,1,1.849-.472,3.368,3.368,0,0,1,2.444.916,3.676,3.676,0,0,1,1.056,2.488l.014.506a3.866,3.866,0,0,1-.95,2.731A3.3,3.3,0,0,1-19.076.137,3.319,3.319,0,0,1-21.629-.889a3.934,3.934,0,0,1-.954-2.789Zm1.976.14a2.765,2.765,0,0,0,.4,1.612,1.308,1.308,0,0,0,1.135.558,1.311,1.311,0,0,0,1.121-.551,3.025,3.025,0,0,0,.4-1.763,2.737,2.737,0,0,0-.4-1.6,1.311,1.311,0,0,0-1.135-.568,1.29,1.29,0,0,0-1.121.565A3.076,3.076,0,0,0-20.607-3.626Zm8.066-3.77.062.854a2.582,2.582,0,0,1,2.126-.991,2.146,2.146,0,0,1,1.75.69,3.221,3.221,0,0,1,.588,2.064V0H-9.991V-4.741a1.287,1.287,0,0,0-.273-.915,1.222,1.222,0,0,0-.909-.284,1.359,1.359,0,0,0-1.251.713V0H-14.4V-7.4Zm8.388-1.818V-7.4h1.265v1.449H-4.153v3.691A.881.881,0,0,0-4-1.668a.79.79,0,0,0,.6.178,3.151,3.151,0,0,0,.581-.048v1.5a4.067,4.067,0,0,1-1.2.178,1.886,1.886,0,0,1-2.119-2.1V-5.947h-1.08V-7.4h1.08V-9.215ZM2.369-5.544A5.367,5.367,0,0,0,1.658-5.6a1.447,1.447,0,0,0-1.47.759V0H-1.788V-7.4H.079l.055.882A1.831,1.831,0,0,1,1.781-7.533a2.07,2.07,0,0,1,.615.089Zm.4,1.777a4.387,4.387,0,0,1,.424-1.962,3.1,3.1,0,0,1,1.22-1.333,3.56,3.56,0,0,1,1.849-.472A3.368,3.368,0,0,1,8.7-6.617,3.676,3.676,0,0,1,9.758-4.129l.014.506a3.866,3.866,0,0,1-.95,2.731A3.3,3.3,0,0,1,6.272.137,3.319,3.319,0,0,1,3.719-.889a3.934,3.934,0,0,1-.954-2.789Zm1.976.14a2.765,2.765,0,0,0,.4,1.612,1.308,1.308,0,0,0,1.135.558,1.311,1.311,0,0,0,1.121-.551A3.025,3.025,0,0,0,7.8-3.77a2.737,2.737,0,0,0-.4-1.6A1.311,1.311,0,0,0,6.258-5.94a1.29,1.29,0,0,0-1.121.565A3.076,3.076,0,0,0,4.741-3.626ZM13.074,0H11.091V-10.5h1.982ZM18.1.137a3.631,3.631,0,0,1-2.649-1,3.548,3.548,0,0,1-1.022-2.659v-.191A4.468,4.468,0,0,1,14.865-5.7a3.161,3.161,0,0,1,1.22-1.354,3.425,3.425,0,0,1,1.8-.475,3.07,3.07,0,0,1,2.389.957,3.889,3.889,0,0,1,.872,2.714v.807h-4.71a1.835,1.835,0,0,0,.578,1.162,1.746,1.746,0,0,0,1.22.438,2.132,2.132,0,0,0,1.784-.827L20.99-1.2a2.966,2.966,0,0,1-1.2.981A3.947,3.947,0,0,1,18.1.137ZM17.879-5.94a1.234,1.234,0,0,0-.954.4,2.062,2.062,0,0,0-.468,1.14h2.748V-4.56a1.471,1.471,0,0,0-.355-1.02A1.274,1.274,0,0,0,17.879-5.94Zm8.395,3.9a.637.637,0,0,0-.359-.571,4.077,4.077,0,0,0-1.152-.373q-2.639-.554-2.639-2.242a2.032,2.032,0,0,1,.817-1.644,3.3,3.3,0,0,1,2.136-.66,3.547,3.547,0,0,1,2.252.663,2.09,2.09,0,0,1,.844,1.723H26.2a.956.956,0,0,0-.273-.7,1.157,1.157,0,0,0-.854-.277A1.182,1.182,0,0,0,24.3-5.9a.712.712,0,0,0-.273.574.609.609,0,0,0,.311.53,3.2,3.2,0,0,0,1.049.349,8.571,8.571,0,0,1,1.244.332,2.044,2.044,0,0,1,1.565,1.989,1.929,1.929,0,0,1-.868,1.637,3.745,3.745,0,0,1-2.242.625,3.912,3.912,0,0,1-1.651-.332A2.77,2.77,0,0,1,22.3-1.1a2.113,2.113,0,0,1-.41-1.248h1.873a1.031,1.031,0,0,0,.39.807,1.546,1.546,0,0,0,.971.28,1.43,1.43,0,0,0,.858-.215A.67.67,0,0,0,26.274-2.044ZM-45.015,12.949h-3.6L-49.294,15h-2.181l3.705-9.953h1.9L-42.144,15h-2.181Zm-3.042-1.661h2.488l-1.251-3.726Zm6.405-.041a4.457,4.457,0,0,1,.776-2.755,2.517,2.517,0,0,1,2.123-1.025,2.265,2.265,0,0,1,1.784.807V4.5h1.982V15h-1.784l-.1-.786a2.325,2.325,0,0,1-1.9.923,2.511,2.511,0,0,1-2.1-1.029A4.6,4.6,0,0,1-41.651,11.247Zm1.976.141a2.936,2.936,0,0,0,.362,1.6,1.179,1.179,0,0,0,1.053.556,1.321,1.321,0,0,0,1.292-.776V9.836a1.3,1.3,0,0,0-1.278-.776Q-39.676,9.06-39.676,11.388ZM-31.6,7.6l.062.827a2.6,2.6,0,0,1,2.126-.964,1.973,1.973,0,0,1,1.962,1.128,2.54,2.54,0,0,1,2.222-1.128,2.206,2.206,0,0,1,1.791.7,3.221,3.221,0,0,1,.588,2.109V15h-1.982V10.272a1.414,1.414,0,0,0-.246-.922,1.089,1.089,0,0,0-.868-.291,1.233,1.233,0,0,0-1.23.85L-27.173,15h-1.976V10.279a1.4,1.4,0,0,0-.253-.932,1.1,1.1,0,0,0-.861-.288,1.28,1.28,0,0,0-1.217.7V15h-1.976V7.6ZM-19.25,15h-1.982V7.6h1.982Zm-2.1-9.311a.973.973,0,0,1,.3-.731,1.117,1.117,0,0,1,.81-.287,1.12,1.12,0,0,1,.807.287.967.967,0,0,1,.3.731.97.97,0,0,1-.3.738,1.122,1.122,0,0,1-.8.287,1.122,1.122,0,0,1-.8-.287A.97.97,0,0,1-21.349,5.689ZM-15.8,7.6l.062.854a2.582,2.582,0,0,1,2.126-.991,2.146,2.146,0,0,1,1.75.69,3.221,3.221,0,0,1,.588,2.064V15h-1.976V10.259a1.287,1.287,0,0,0-.273-.915,1.222,1.222,0,0,0-.909-.284,1.359,1.359,0,0,0-1.251.713V15h-1.976V7.6ZM-7.7,15H-9.68V7.6H-7.7ZM-9.8,5.689a.973.973,0,0,1,.3-.731,1.117,1.117,0,0,1,.81-.287,1.12,1.12,0,0,1,.807.287.967.967,0,0,1,.3.731.97.97,0,0,1-.3.738,1.122,1.122,0,0,1-.8.287,1.122,1.122,0,0,1-.8-.287A.97.97,0,0,1-9.8,5.689Zm7.731,7.267a.637.637,0,0,0-.359-.571,4.077,4.077,0,0,0-1.152-.373q-2.639-.554-2.639-2.242A2.032,2.032,0,0,1-5.4,8.126a3.3,3.3,0,0,1,2.136-.66,3.547,3.547,0,0,1,2.252.663A2.09,2.09,0,0,1-.164,9.853H-2.14a.956.956,0,0,0-.273-.7,1.157,1.157,0,0,0-.854-.277A1.182,1.182,0,0,0-4.04,9.1a.712.712,0,0,0-.273.574A.609.609,0,0,0-4,10.2a3.2,3.2,0,0,0,1.049.349,8.571,8.571,0,0,1,1.244.332A2.044,2.044,0,0,1-.144,12.874a1.929,1.929,0,0,1-.868,1.637,3.745,3.745,0,0,1-2.242.625A3.912,3.912,0,0,1-4.9,14.805,2.77,2.77,0,0,1-6.036,13.9a2.113,2.113,0,0,1-.41-1.248h1.873a1.031,1.031,0,0,0,.39.807,1.546,1.546,0,0,0,.971.28,1.43,1.43,0,0,0,.858-.215A.67.67,0,0,0-2.064,12.956ZM3.493,5.785V7.6H4.758V9.053H3.493v3.691a.881.881,0,0,0,.157.588.79.79,0,0,0,.6.178,3.15,3.15,0,0,0,.581-.048v1.5a4.067,4.067,0,0,1-1.2.178,1.886,1.886,0,0,1-2.119-2.1V9.053H.438V7.6h1.08V5.785Zm6.521,3.671A5.367,5.367,0,0,0,9.3,9.4a1.447,1.447,0,0,0-1.47.759V15H5.858V7.6H7.725l.055.882A1.831,1.831,0,0,1,9.427,7.467a2.07,2.07,0,0,1,.615.089ZM15.046,15a2.194,2.194,0,0,1-.2-.663,2.39,2.39,0,0,1-1.866.8,2.626,2.626,0,0,1-1.8-.629,2.023,2.023,0,0,1-.714-1.586,2.09,2.09,0,0,1,.872-1.8,4.3,4.3,0,0,1,2.519-.636h.909v-.424a1.219,1.219,0,0,0-.263-.82,1.035,1.035,0,0,0-.831-.308,1.177,1.177,0,0,0-.783.239.813.813,0,0,0-.284.656H10.63a1.984,1.984,0,0,1,.4-1.189,2.621,2.621,0,0,1,1.121-.858,4.086,4.086,0,0,1,1.627-.311,3.228,3.228,0,0,1,2.17.687,2.4,2.4,0,0,1,.8,1.931v3.206a3.536,3.536,0,0,0,.294,1.593V15Zm-1.634-1.374a1.7,1.7,0,0,0,.807-.195,1.28,1.28,0,0,0,.547-.523V11.637h-.738q-1.483,0-1.579,1.025l-.007.116a.791.791,0,0,0,.26.608A1.009,1.009,0,0,0,13.412,13.626Zm7.219-7.841V7.6H21.9V9.053H20.631v3.691a.881.881,0,0,0,.157.588.79.79,0,0,0,.6.178,3.15,3.15,0,0,0,.581-.048v1.5a4.067,4.067,0,0,1-1.2.178,1.886,1.886,0,0,1-2.119-2.1V9.053h-1.08V7.6h1.08V5.785ZM25.081,15H23.1V7.6h1.982Zm-2.1-9.311a.973.973,0,0,1,.3-.731,1.281,1.281,0,0,1,1.617,0,.967.967,0,0,1,.3.731.97.97,0,0,1-.3.738,1.267,1.267,0,0,1-1.606,0A.97.97,0,0,1,22.982,5.689Zm6.494,6.9L30.851,7.6h2.064L30.42,15H28.533l-2.5-7.4H28.1Zm3.9-1.354A4.387,4.387,0,0,1,33.8,9.271a3.1,3.1,0,0,1,1.22-1.333,3.56,3.56,0,0,1,1.849-.472,3.368,3.368,0,0,1,2.444.916,3.676,3.676,0,0,1,1.056,2.488l.014.506a3.866,3.866,0,0,1-.95,2.731,3.683,3.683,0,0,1-5.1,0,3.934,3.934,0,0,1-.954-2.789Zm1.976.14a2.765,2.765,0,0,0,.4,1.612A1.424,1.424,0,0,0,38,12.993a3.025,3.025,0,0,0,.4-1.763,2.737,2.737,0,0,0-.4-1.6,1.311,1.311,0,0,0-1.135-.568,1.29,1.29,0,0,0-1.121.565A3.076,3.076,0,0,0,35.349,11.374ZM45.6,12.956a.637.637,0,0,0-.359-.571,4.077,4.077,0,0,0-1.152-.373q-2.639-.554-2.639-2.242a2.032,2.032,0,0,1,.817-1.644,3.3,3.3,0,0,1,2.136-.66,3.547,3.547,0,0,1,2.252.663A2.09,2.09,0,0,1,47.5,9.853H45.527a.956.956,0,0,0-.273-.7,1.157,1.157,0,0,0-.854-.277,1.182,1.182,0,0,0-.772.226.712.712,0,0,0-.273.574.609.609,0,0,0,.311.53,3.2,3.2,0,0,0,1.049.349,8.571,8.571,0,0,1,1.244.332,2.044,2.044,0,0,1,1.565,1.989,1.929,1.929,0,0,1-.868,1.637,3.745,3.745,0,0,1-2.242.625,3.912,3.912,0,0,1-1.651-.332,2.77,2.77,0,0,1-1.131-.909,2.113,2.113,0,0,1-.41-1.248h1.873a1.031,1.031,0,0,0,.39.807,1.546,1.546,0,0,0,.971.28,1.43,1.43,0,0,0,.858-.215A.67.67,0,0,0,45.6,12.956Z" transform="translate(197.092 236.597)" fill="#12263f"/>
          <path id="Trazado_679404" data-name="Trazado 679404" d="M8.7-3.315A3.522,3.522,0,0,1,7.516-.786,4.165,4.165,0,0,1,4.7.137,3.745,3.745,0,0,1,1.685-1.152a5.284,5.284,0,0,1-1.1-3.538V-5.3a5.966,5.966,0,0,1,.506-2.529A3.791,3.791,0,0,1,2.54-9.505a4.05,4.05,0,0,1,2.184-.584A4.058,4.058,0,0,1,7.5-9.167,3.785,3.785,0,0,1,8.716-6.576H6.665a2.079,2.079,0,0,0-.537-1.4,1.987,1.987,0,0,0-1.4-.434,1.742,1.742,0,0,0-1.535.735,4.118,4.118,0,0,0-.523,2.28v.752a4.408,4.408,0,0,0,.489,2.358A1.71,1.71,0,0,0,4.7-1.538a2.025,2.025,0,0,0,1.418-.434,1.961,1.961,0,0,0,.537-1.343Zm.909-.451a4.387,4.387,0,0,1,.424-1.962,3.1,3.1,0,0,1,1.22-1.333A3.56,3.56,0,0,1,13.1-7.533a3.368,3.368,0,0,1,2.444.916A3.676,3.676,0,0,1,16.6-4.129l.014.506a3.866,3.866,0,0,1-.95,2.731A3.3,3.3,0,0,1,13.118.137,3.319,3.319,0,0,1,10.565-.889a3.934,3.934,0,0,1-.954-2.789Zm1.976.14a2.765,2.765,0,0,0,.4,1.612,1.308,1.308,0,0,0,1.135.558,1.311,1.311,0,0,0,1.121-.551,3.025,3.025,0,0,0,.4-1.763,2.737,2.737,0,0,0-.4-1.6A1.311,1.311,0,0,0,13.1-5.94a1.29,1.29,0,0,0-1.121.565A3.076,3.076,0,0,0,11.587-3.626ZM19.653-7.4l.062.854a2.582,2.582,0,0,1,2.126-.991,2.146,2.146,0,0,1,1.75.69,3.221,3.221,0,0,1,.588,2.064V0H22.2V-4.741a1.287,1.287,0,0,0-.273-.915,1.222,1.222,0,0,0-.909-.284,1.359,1.359,0,0,0-1.251.713V0H17.794V-7.4Zm8.388-1.818V-7.4h1.265v1.449H28.041v3.691a.881.881,0,0,0,.157.588.79.79,0,0,0,.6.178,3.151,3.151,0,0,0,.581-.048v1.5a4.067,4.067,0,0,1-1.2.178,1.886,1.886,0,0,1-2.119-2.1V-5.947h-1.08V-7.4h1.08V-9.215Zm6.521,3.671a5.367,5.367,0,0,0-.711-.055,1.447,1.447,0,0,0-1.47.759V0H30.406V-7.4h1.866l.055.882a1.831,1.831,0,0,1,1.647-1.019,2.07,2.07,0,0,1,.615.089Zm.4,1.777a4.387,4.387,0,0,1,.424-1.962A3.1,3.1,0,0,1,36.6-7.062a3.56,3.56,0,0,1,1.849-.472,3.368,3.368,0,0,1,2.444.916,3.676,3.676,0,0,1,1.056,2.488l.014.506a3.866,3.866,0,0,1-.95,2.731A3.3,3.3,0,0,1,38.466.137,3.319,3.319,0,0,1,35.913-.889a3.934,3.934,0,0,1-.954-2.789Zm1.976.14a2.765,2.765,0,0,0,.4,1.612,1.308,1.308,0,0,0,1.135.558,1.311,1.311,0,0,0,1.121-.551,3.025,3.025,0,0,0,.4-1.763,2.737,2.737,0,0,0-.4-1.6,1.311,1.311,0,0,0-1.135-.568,1.29,1.29,0,0,0-1.121.565A3.076,3.076,0,0,0,36.935-3.626ZM45.268,0H43.285V-10.5h1.982ZM50.3.137a3.631,3.631,0,0,1-2.649-1,3.548,3.548,0,0,1-1.022-2.659v-.191A4.468,4.468,0,0,1,47.059-5.7a3.161,3.161,0,0,1,1.22-1.354,3.425,3.425,0,0,1,1.8-.475,3.07,3.07,0,0,1,2.389.957,3.889,3.889,0,0,1,.872,2.714v.807h-4.71a1.835,1.835,0,0,0,.578,1.162,1.746,1.746,0,0,0,1.22.438,2.132,2.132,0,0,0,1.784-.827L53.184-1.2a2.966,2.966,0,0,1-1.2.981A3.947,3.947,0,0,1,50.3.137ZM50.073-5.94a1.234,1.234,0,0,0-.954.4,2.062,2.062,0,0,0-.468,1.14H51.4V-4.56a1.471,1.471,0,0,0-.355-1.02A1.274,1.274,0,0,0,50.073-5.94Zm8.395,3.9a.637.637,0,0,0-.359-.571,4.077,4.077,0,0,0-1.152-.373q-2.639-.554-2.639-2.242a2.032,2.032,0,0,1,.817-1.644,3.3,3.3,0,0,1,2.136-.66,3.547,3.547,0,0,1,2.252.663,2.09,2.09,0,0,1,.844,1.723H58.393a.956.956,0,0,0-.273-.7,1.157,1.157,0,0,0-.854-.277,1.182,1.182,0,0,0-.772.226.712.712,0,0,0-.273.574.609.609,0,0,0,.311.53,3.2,3.2,0,0,0,1.049.349,8.571,8.571,0,0,1,1.244.332,2.044,2.044,0,0,1,1.565,1.989,1.929,1.929,0,0,1-.868,1.637,3.745,3.745,0,0,1-2.242.625,3.912,3.912,0,0,1-1.651-.332A2.77,2.77,0,0,1,54.5-1.1a2.113,2.113,0,0,1-.41-1.248h1.873a1.031,1.031,0,0,0,.39.807,1.546,1.546,0,0,0,.971.28,1.43,1.43,0,0,0,.858-.215A.67.67,0,0,0,58.468-2.044Zm6.371-1.709a4.457,4.457,0,0,1,.776-2.755,2.517,2.517,0,0,1,2.123-1.025,2.265,2.265,0,0,1,1.784.807V-10.5H71.5V0H69.72l-.1-.786a2.325,2.325,0,0,1-1.9.923,2.511,2.511,0,0,1-2.1-1.029A4.6,4.6,0,0,1,64.839-3.753Zm1.976.141a2.936,2.936,0,0,0,.362,1.6,1.179,1.179,0,0,0,1.053.556,1.321,1.321,0,0,0,1.292-.776V-5.164a1.3,1.3,0,0,0-1.278-.776Q66.814-5.94,66.814-3.612ZM76.439.137a3.631,3.631,0,0,1-2.649-1,3.548,3.548,0,0,1-1.022-2.659v-.191A4.468,4.468,0,0,1,73.2-5.7a3.161,3.161,0,0,1,1.22-1.354,3.425,3.425,0,0,1,1.8-.475,3.07,3.07,0,0,1,2.389.957,3.889,3.889,0,0,1,.872,2.714v.807h-4.71a1.835,1.835,0,0,0,.578,1.162,1.746,1.746,0,0,0,1.22.438,2.132,2.132,0,0,0,1.784-.827L79.324-1.2a2.966,2.966,0,0,1-1.2.981A3.947,3.947,0,0,1,76.439.137ZM76.214-5.94a1.234,1.234,0,0,0-.954.4,2.062,2.062,0,0,0-.468,1.14H77.54V-4.56a1.471,1.471,0,0,0-.355-1.02A1.274,1.274,0,0,0,76.214-5.94ZM86.4,0H84.349V-9.953H86.4Zm3.589-7.4.062.854a2.582,2.582,0,0,1,2.126-.991,2.146,2.146,0,0,1,1.75.69,3.221,3.221,0,0,1,.588,2.064V0H92.538V-4.741a1.287,1.287,0,0,0-.273-.915,1.222,1.222,0,0,0-.909-.284,1.359,1.359,0,0,0-1.251.713V0H88.129V-7.4Zm5.735,3.644a4.335,4.335,0,0,1,.81-2.741,2.625,2.625,0,0,1,2.184-1.039,2.3,2.3,0,0,1,1.894.834l.082-.7h1.791v7.15a3.161,3.161,0,0,1-.441,1.688A2.832,2.832,0,0,1,100.8,2.536a4.362,4.362,0,0,1-1.873.376,4.056,4.056,0,0,1-1.586-.325,2.815,2.815,0,0,1-1.169-.837l.875-1.2a2.314,2.314,0,0,0,1.791.827,1.694,1.694,0,0,0,1.224-.42A1.577,1.577,0,0,0,100.5-.239v-.4a2.285,2.285,0,0,1-1.8.772A2.618,2.618,0,0,1,96.547-.906a4.334,4.334,0,0,1-.824-2.765Zm1.976.141a2.714,2.714,0,0,0,.4,1.583,1.282,1.282,0,0,0,1.107.573,1.371,1.371,0,0,0,1.292-.68V-5.261a1.368,1.368,0,0,0-1.278-.68,1.29,1.29,0,0,0-1.118.584A3.059,3.059,0,0,0,97.7-3.612ZM107.406.137a3.631,3.631,0,0,1-2.649-1,3.548,3.548,0,0,1-1.022-2.659v-.191a4.468,4.468,0,0,1,.431-1.993,3.161,3.161,0,0,1,1.22-1.354,3.425,3.425,0,0,1,1.8-.475,3.07,3.07,0,0,1,2.389.957,3.889,3.889,0,0,1,.872,2.714v.807h-4.71a1.835,1.835,0,0,0,.578,1.162,1.746,1.746,0,0,0,1.22.438,2.132,2.132,0,0,0,1.784-.827l.971,1.087a2.966,2.966,0,0,1-1.2.981A3.947,3.947,0,0,1,107.406.137Zm-.226-6.077a1.234,1.234,0,0,0-.954.4,2.062,2.062,0,0,0-.468,1.14h2.748V-4.56a1.471,1.471,0,0,0-.355-1.02A1.274,1.274,0,0,0,107.181-5.94ZM113.388-7.4l.062.854a2.582,2.582,0,0,1,2.126-.991,2.146,2.146,0,0,1,1.75.69,3.221,3.221,0,0,1,.588,2.064V0h-1.976V-4.741a1.287,1.287,0,0,0-.273-.915,1.222,1.222,0,0,0-.909-.284,1.359,1.359,0,0,0-1.251.713V0h-1.976V-7.4ZM121.5,0h-1.982V-7.4H121.5Zm-2.1-9.311a.973.973,0,0,1,.3-.731,1.117,1.117,0,0,1,.81-.287,1.12,1.12,0,0,1,.807.287.967.967,0,0,1,.3.731.97.97,0,0,1-.3.738,1.122,1.122,0,0,1-.8.287,1.122,1.122,0,0,1-.8-.287A.97.97,0,0,1,119.4-9.311Zm7.13,9.447a3.631,3.631,0,0,1-2.649-1,3.548,3.548,0,0,1-1.022-2.659v-.191a4.468,4.468,0,0,1,.431-1.993,3.161,3.161,0,0,1,1.22-1.354,3.425,3.425,0,0,1,1.8-.475,3.07,3.07,0,0,1,2.389.957,3.889,3.889,0,0,1,.872,2.714v.807h-4.71a1.835,1.835,0,0,0,.578,1.162,1.746,1.746,0,0,0,1.22.438,2.132,2.132,0,0,0,1.784-.827l.971,1.087a2.966,2.966,0,0,1-1.2.981A3.947,3.947,0,0,1,126.526.137ZM126.3-5.94a1.234,1.234,0,0,0-.954.4,2.062,2.062,0,0,0-.468,1.14h2.748V-4.56a1.471,1.471,0,0,0-.355-1.02A1.274,1.274,0,0,0,126.3-5.94Zm8.545.4a5.367,5.367,0,0,0-.711-.055,1.447,1.447,0,0,0-1.47.759V0h-1.976V-7.4h1.866l.055.882a1.831,1.831,0,0,1,1.647-1.019,2.07,2.07,0,0,1,.615.089ZM137.929,0h-1.976V-7.4h1.976Zm-.581-10.4H139.5l-1.894,2.119H136ZM143.917,0a2.194,2.194,0,0,1-.2-.663,2.39,2.39,0,0,1-1.866.8,2.626,2.626,0,0,1-1.8-.629,2.023,2.023,0,0,1-.714-1.586,2.09,2.09,0,0,1,.872-1.8,4.3,4.3,0,0,1,2.519-.636h.909v-.424a1.219,1.219,0,0,0-.263-.82,1.035,1.035,0,0,0-.831-.308,1.177,1.177,0,0,0-.783.239.813.813,0,0,0-.284.656H139.5a1.984,1.984,0,0,1,.4-1.189,2.621,2.621,0,0,1,1.121-.858,4.086,4.086,0,0,1,1.627-.311,3.228,3.228,0,0,1,2.17.687,2.4,2.4,0,0,1,.8,1.931v3.206a3.536,3.536,0,0,0,.294,1.593V0Zm-1.634-1.374a1.7,1.7,0,0,0,.807-.195,1.28,1.28,0,0,0,.547-.523V-3.363H142.9q-1.483,0-1.579,1.025l-.007.116a.791.791,0,0,0,.26.608A1.009,1.009,0,0,0,142.283-1.374Z" transform="translate(132.911 180.629)" fill="#fff"/>
        </g>
      </g>
      <path id="Rectángulo_344893" data-name="Rectángulo 344893" d="M4,0H108.811a10,10,0,0,1,10,10V24.641a0,0,0,0,1,0,0H4a4,4,0,0,1-4-4V4A4,4,0,0,1,4,0Z" transform="translate(414.014 16098.623)" fill="#12263f"/>
      <path id="Rectángulo_344894" data-name="Rectángulo 344894" d="M4,0H108.811a10,10,0,0,1,10,10V25.589a0,0,0,0,1,0,0H4a4,4,0,0,1-4-4V4A4,4,0,0,1,4,0Z" transform="translate(414.014 16420.623)" fill="#12263f"/>
      <path id="Trazado_679399" data-name="Trazado 679399" d="M3.346-8.531,5.25-2.6l1.9-5.936H9.855V0H7.793V-1.992l.2-4.078L5.93,0H4.57L2.5-6.076l.2,4.084V0H.645V-8.531ZM14.643,0a2.23,2.23,0,0,1-.187-.568,1.836,1.836,0,0,1-1.523.686,2.249,2.249,0,0,1-1.523-.542,1.725,1.725,0,0,1-.627-1.362,1.773,1.773,0,0,1,.762-1.559,3.881,3.881,0,0,1,2.215-.527h.609v-.336q0-.877-.756-.877a.618.618,0,0,0-.7.695H10.934a1.77,1.77,0,0,1,.782-1.492,3.287,3.287,0,0,1,2-.574,2.882,2.882,0,0,1,1.916.592,2.058,2.058,0,0,1,.721,1.623v2.807A2.874,2.874,0,0,0,16.617-.1V0ZM13.406-1.289a1.1,1.1,0,0,0,.612-.158.992.992,0,0,0,.349-.357V-2.818h-.574q-1.031,0-1.031.926a.565.565,0,0,0,.182.437A.657.657,0,0,0,13.406-1.289ZM13.9-9h2.086L14.355-7.16l-1.611,0ZM20.76-1.781a.456.456,0,0,0-.264-.4,4.011,4.011,0,0,0-1-.316,4.569,4.569,0,0,1-1.219-.431,2.041,2.041,0,0,1-.732-.647,1.546,1.546,0,0,1-.252-.873,1.752,1.752,0,0,1,.721-1.438A2.969,2.969,0,0,1,19.9-6.457a3.289,3.289,0,0,1,2.016.568,1.777,1.777,0,0,1,.762,1.494H20.7q0-.762-.8-.762a.8.8,0,0,0-.521.173.535.535,0,0,0-.211.431.491.491,0,0,0,.258.428,2.436,2.436,0,0,0,.823.27,7.114,7.114,0,0,1,.993.252,1.8,1.8,0,0,1,1.43,1.764,1.66,1.66,0,0,1-.771,1.412,3.379,3.379,0,0,1-2,.545,3.448,3.448,0,0,1-1.453-.293,2.43,2.43,0,0,1-1-.8,1.8,1.8,0,0,1-.357-1.061h1.846a.763.763,0,0,0,.293.642,1.205,1.205,0,0,0,.721.2.948.948,0,0,0,.606-.164A.525.525,0,0,0,20.76-1.781Zm8.883,1.9a3.259,3.259,0,0,1-2.361-.87,3,3,0,0,1-.9-2.265v-.164a3.893,3.893,0,0,1,.36-1.717A2.637,2.637,0,0,1,27.791-6.05a3.175,3.175,0,0,1,1.641-.407,2.744,2.744,0,0,1,2.109.829,3.258,3.258,0,0,1,.773,2.312v.768H28.389a1.423,1.423,0,0,0,.463.838,1.377,1.377,0,0,0,.926.3,1.775,1.775,0,0,0,1.465-.656L32.145-1A2.522,2.522,0,0,1,31.1-.185,3.534,3.534,0,0,1,29.643.117ZM29.42-4.934q-.867,0-1.031,1.148h1.992v-.152a.978.978,0,0,0-.24-.735A.956.956,0,0,0,29.42-4.934ZM33.545,0V-4.969h-.92V-6.34h.92v-.5a2.19,2.19,0,0,1,.639-1.682,2.523,2.523,0,0,1,1.793-.6A3.926,3.926,0,0,1,36.9-9l.006,1.453a1.8,1.8,0,0,0-.486-.053q-.9,0-.9.773v.486h1.236v1.371H35.525V0Zm6.838.117a3.259,3.259,0,0,1-2.361-.87,3,3,0,0,1-.9-2.265v-.164a3.893,3.893,0,0,1,.36-1.717A2.637,2.637,0,0,1,38.531-6.05a3.175,3.175,0,0,1,1.641-.407,2.744,2.744,0,0,1,2.109.829,3.258,3.258,0,0,1,.773,2.312v.768H39.129a1.423,1.423,0,0,0,.463.838,1.377,1.377,0,0,0,.926.3,1.775,1.775,0,0,0,1.465-.656L42.885-1a2.522,2.522,0,0,1-1.046.812A3.534,3.534,0,0,1,40.383.117ZM40.16-4.934q-.867,0-1.031,1.148h1.992v-.152a.978.978,0,0,0-.24-.735A.956.956,0,0,0,40.16-4.934Zm6.369,3.527a.878.878,0,0,0,.645-.226.827.827,0,0,0,.223-.63h1.852A2.192,2.192,0,0,1,48.5-.551a2.779,2.779,0,0,1-1.925.668A2.814,2.814,0,0,1,44.4-.75a3.417,3.417,0,0,1-.8-2.4v-.082a3.862,3.862,0,0,1,.354-1.7,2.581,2.581,0,0,1,1.022-1.131,3.049,3.049,0,0,1,1.582-.4,2.744,2.744,0,0,1,1.963.686,2.432,2.432,0,0,1,.727,1.857H47.4a1.084,1.084,0,0,0-.24-.756.829.829,0,0,0-.645-.264q-.768,0-.9.979a6.9,6.9,0,0,0-.041.855A2.712,2.712,0,0,0,45.8-1.775.791.791,0,0,0,46.529-1.406Zm5.854-6.51V-6.34h1.043v1.371H52.383v2.9a.741.741,0,0,0,.129.5.691.691,0,0,0,.51.141,2.9,2.9,0,0,0,.492-.035V-.053A3.644,3.644,0,0,1,52.4.117a2.069,2.069,0,0,1-1.506-.48,1.969,1.969,0,0,1-.486-1.459V-4.969H49.6V-6.34h.809V-7.916ZM56.285,0H54.3V-6.34h1.98Zm-2.1-7.98a.889.889,0,0,1,.3-.7,1.145,1.145,0,0,1,.791-.271,1.145,1.145,0,0,1,.791.271.889.889,0,0,1,.3.7.889.889,0,0,1-.3.7,1.145,1.145,0,0,1-.791.271,1.145,1.145,0,0,1-.791-.271A.889.889,0,0,1,54.188-7.98ZM60.029-2.35l1-3.99h2.08L61.043,0H59.027L56.959-6.34h2.086Zm3.334-.879a3.742,3.742,0,0,1,.369-1.69,2.64,2.64,0,0,1,1.061-1.14,3.194,3.194,0,0,1,1.623-.4,2.915,2.915,0,0,1,2.244.882,3.384,3.384,0,0,1,.82,2.4v.07a3.283,3.283,0,0,1-.823,2.353,2.923,2.923,0,0,1-2.229.87,2.956,2.956,0,0,1-2.174-.812,3.174,3.174,0,0,1-.885-2.2Zm1.975.123a2.359,2.359,0,0,0,.275,1.289.917.917,0,0,0,.814.41q1.055,0,1.078-1.623v-.2q0-1.705-1.09-1.705-.99,0-1.072,1.471Z" transform="translate(439.014 16115.623)" fill="#f3f9ff"/>
      <path id="Trazado_679400" data-name="Trazado 679400" d="M3.346-8.531,5.25-2.6l1.9-5.936H9.855V0H7.793V-1.992l.2-4.078L5.93,0H4.57L2.5-6.076l.2,4.084V0H.645V-8.531ZM14.139.117a3.259,3.259,0,0,1-2.361-.87,3,3,0,0,1-.9-2.265v-.164a3.893,3.893,0,0,1,.36-1.717A2.637,2.637,0,0,1,12.287-6.05a3.175,3.175,0,0,1,1.641-.407,2.744,2.744,0,0,1,2.109.829,3.258,3.258,0,0,1,.773,2.312v.768H12.885a1.423,1.423,0,0,0,.463.838,1.377,1.377,0,0,0,.926.3,1.775,1.775,0,0,0,1.465-.656L16.641-1a2.522,2.522,0,0,1-1.046.812A3.534,3.534,0,0,1,14.139.117Zm-.223-5.051q-.867,0-1.031,1.148h1.992v-.152a.978.978,0,0,0-.24-.735A.956.956,0,0,0,13.916-4.934Zm5.5-1.406.064.744a2.15,2.15,0,0,1,1.811-.861,1.809,1.809,0,0,1,1.479.592,2.817,2.817,0,0,1,.507,1.781V0H21.3V-4a1.07,1.07,0,0,0-.193-.706.9.9,0,0,0-.7-.226.942.942,0,0,0-.861.457V0H17.566V-6.34Zm4.705,3.111a3.742,3.742,0,0,1,.369-1.69,2.64,2.64,0,0,1,1.061-1.14,3.194,3.194,0,0,1,1.623-.4,2.915,2.915,0,0,1,2.244.882,3.384,3.384,0,0,1,.82,2.4v.07a3.283,3.283,0,0,1-.823,2.353,2.923,2.923,0,0,1-2.229.87,2.956,2.956,0,0,1-2.174-.812,3.174,3.174,0,0,1-.885-2.2Zm1.975.123a2.359,2.359,0,0,0,.275,1.289.917.917,0,0,0,.814.41q1.055,0,1.078-1.623v-.2q0-1.705-1.09-1.705-.99,0-1.072,1.471ZM34.43-1.781a.456.456,0,0,0-.264-.4,4.011,4.011,0,0,0-1-.316,4.569,4.569,0,0,1-1.219-.431,2.041,2.041,0,0,1-.732-.647,1.546,1.546,0,0,1-.252-.873,1.752,1.752,0,0,1,.721-1.438,2.969,2.969,0,0,1,1.887-.565,3.289,3.289,0,0,1,2.016.568,1.777,1.777,0,0,1,.762,1.494h-1.98q0-.762-.8-.762a.8.8,0,0,0-.521.173.535.535,0,0,0-.211.431.491.491,0,0,0,.258.428,2.436,2.436,0,0,0,.823.27A7.114,7.114,0,0,1,34.9-3.6a1.8,1.8,0,0,1,1.43,1.764,1.66,1.66,0,0,1-.771,1.412,3.379,3.379,0,0,1-2,.545,3.448,3.448,0,0,1-1.453-.293,2.43,2.43,0,0,1-1-.8,1.8,1.8,0,0,1-.357-1.061h1.846a.763.763,0,0,0,.293.642,1.205,1.205,0,0,0,.721.2.948.948,0,0,0,.606-.164A.525.525,0,0,0,34.43-1.781Zm8.883,1.9a3.259,3.259,0,0,1-2.361-.87,3,3,0,0,1-.9-2.265v-.164a3.893,3.893,0,0,1,.36-1.717A2.637,2.637,0,0,1,41.461-6.05,3.175,3.175,0,0,1,43.1-6.457a2.744,2.744,0,0,1,2.109.829,3.258,3.258,0,0,1,.773,2.312v.768H42.059a1.423,1.423,0,0,0,.463.838,1.377,1.377,0,0,0,.926.3,1.775,1.775,0,0,0,1.465-.656L45.814-1a2.522,2.522,0,0,1-1.046.812A3.534,3.534,0,0,1,43.313.117ZM43.09-4.934q-.867,0-1.031,1.148h1.992v-.152a.978.978,0,0,0-.24-.735A.956.956,0,0,0,43.09-4.934ZM47.215,0V-4.969h-.92V-6.34h.92v-.5a2.19,2.19,0,0,1,.639-1.682,2.523,2.523,0,0,1,1.793-.6A3.926,3.926,0,0,1,50.572-9l.006,1.453a1.8,1.8,0,0,0-.486-.053q-.9,0-.9.773v.486h1.236v1.371H49.2V0Zm6.838.117a3.259,3.259,0,0,1-2.361-.87,3,3,0,0,1-.9-2.265v-.164a3.893,3.893,0,0,1,.36-1.717A2.637,2.637,0,0,1,52.2-6.05a3.175,3.175,0,0,1,1.641-.407,2.744,2.744,0,0,1,2.109.829,3.258,3.258,0,0,1,.773,2.312v.768H52.8a1.423,1.423,0,0,0,.463.838,1.377,1.377,0,0,0,.926.3,1.775,1.775,0,0,0,1.465-.656L56.555-1a2.522,2.522,0,0,1-1.046.812A3.534,3.534,0,0,1,54.053.117ZM53.83-4.934q-.867,0-1.031,1.148h1.992v-.152a.978.978,0,0,0-.24-.735A.956.956,0,0,0,53.83-4.934ZM60.2-1.406a.878.878,0,0,0,.645-.226.827.827,0,0,0,.223-.63h1.852a2.192,2.192,0,0,1-.747,1.711,2.779,2.779,0,0,1-1.925.668,2.814,2.814,0,0,1-2.18-.867,3.417,3.417,0,0,1-.8-2.4v-.082a3.862,3.862,0,0,1,.354-1.7,2.581,2.581,0,0,1,1.022-1.131,3.049,3.049,0,0,1,1.582-.4,2.744,2.744,0,0,1,1.963.686,2.432,2.432,0,0,1,.727,1.857H61.066a1.084,1.084,0,0,0-.24-.756.829.829,0,0,0-.645-.264q-.768,0-.9.979a6.9,6.9,0,0,0-.041.855,2.712,2.712,0,0,0,.229,1.324A.791.791,0,0,0,60.2-1.406Zm5.854-6.51V-6.34H67.1v1.371H66.053v2.9a.741.741,0,0,0,.129.5.691.691,0,0,0,.51.141,2.9,2.9,0,0,0,.492-.035V-.053a3.644,3.644,0,0,1-1.113.17,2.069,2.069,0,0,1-1.506-.48,1.969,1.969,0,0,1-.486-1.459V-4.969H63.27V-6.34h.809V-7.916ZM69.955,0h-1.98V-6.34h1.98Zm-2.1-7.98a.889.889,0,0,1,.3-.7,1.145,1.145,0,0,1,.791-.271,1.145,1.145,0,0,1,.791.271.889.889,0,0,1,.3.7.889.889,0,0,1-.3.7,1.145,1.145,0,0,1-.791.271,1.145,1.145,0,0,1-.791-.271A.889.889,0,0,1,67.857-7.98ZM73.7-2.35l1-3.99h2.08L74.713,0H72.7L70.629-6.34h2.086Zm3.334-.879a3.742,3.742,0,0,1,.369-1.69,2.64,2.64,0,0,1,1.061-1.14,3.194,3.194,0,0,1,1.623-.4,2.915,2.915,0,0,1,2.244.882,3.384,3.384,0,0,1,.82,2.4v.07a3.283,3.283,0,0,1-.823,2.353A2.923,2.923,0,0,1,80.1.117a2.956,2.956,0,0,1-2.174-.812,3.174,3.174,0,0,1-.885-2.2Zm1.975.123a2.359,2.359,0,0,0,.275,1.289.917.917,0,0,0,.814.41q1.055,0,1.078-1.623v-.2q0-1.705-1.09-1.705-.99,0-1.072,1.471Z" transform="translate(432.014 16438.623)" fill="#f3f9ff"/>
      <path id="Trazado_677936" data-name="Trazado 677936" d="M-7884.5,4491v297.887" transform="translate(8358.015 11632.181)" fill="none" stroke="#12263f" stroke-width="7"/>
    </g>
  </g>
</svg>
