<svg xmlns="http://www.w3.org/2000/svg" xmlns:xlink="http://www.w3.org/1999/xlink" width="295" height="251.883" viewBox="0 0 295 251.883">
  <defs>
    <clipPath id="clip-path">
      <rect id="Imagen_14" data-name="Imagen 14" width="295" height="220.978" rx="19" fill="#ffdd7a"/>
    </clipPath>
  </defs>
  <g id="Grupo_81662" data-name="Grupo 81662" transform="translate(-915 -3266.309)">
    <rect id="Imagen_6" data-name="Imagen 6" width="295" height="157.764" rx="19" transform="translate(915 3360.428)" fill="#465fc4"/>
    <g id="City" transform="translate(915 3266.309)">
      <path id="City-2" data-name="City" d="M312.462,210.276V52.306l-6.52-3.764L292.9,56.071V83.713l-8.694-5.019V68.656l-6.52-3.764V49.835l-13.04-7.529L253.783,48.58V83.713l-8.693-5.019V58.618l-6.52-3.764V34.778l-15.213-8.783-13.039,7.529V73.675L199.45,79.949V54.854L188.583,48.58,179.89,53.6V66.147L171.2,71.166V41.051L162.5,36.032l-8.693,5.019V31.027l-8.693-5.019L125.789,37.167V80.592l-6.639,3.833V52.306l-6.52-3.764L99.59,56.071V83.714L90.9,78.694V68.656l-6.52-3.764V49.835l-13.04-7.529L60.471,48.58V83.713l-8.693-5.019V71.108l-6.52-3.764V47.267L30.044,38.484,17.463,45.748V210.276Z" transform="translate(-17.463 -25.994)" fill="#465fc4"/>
    </g>
    <g id="Grupo_63" data-name="Grupo 63" transform="translate(915 3297.213)" clip-path="url(#clip-path)">
      <g id="Chartacter" transform="translate(68.599 12.919)">
        <g id="Bottom" transform="translate(19.087 159.384)">
          <g id="Grupo_81704" data-name="Grupo 81704" transform="translate(0 170.322)">
            <path id="Trazado_114315" data-name="Trazado 114315" d="M404.767,336.791,406.9,317.14l-22.75,1.481s.346,10.668.664,16.7c.189,3.57-4.676,10.2-4.676,10.2s10.686,5.664,16.413,3.682,8.754-9.026,8.675-10.561S404.767,336.791,404.767,336.791Z" transform="translate(-348.883 -317.14)" fill="#ffbda7"/>
            <path id="Trazado_114316" data-name="Trazado 114316" d="M357.109,358.7c-.359-.005-.962,3.645.963,5.234,2.221,1.833,8.779,4.894,17.526,4s13.514-3.316,17.052-5.961,8.495-6.377,12.457-7.117c3.679-.686,7.688-2.157,8.88-3.186s1.1-5.695,1.1-5.695Z" transform="translate(-356.016 -308.355)" fill="#263238"/>
            <path id="Trazado_114317" data-name="Trazado 114317" d="M412.071,332.174a1.386,1.386,0,0,1,1.3,1.114c.248,1.289.477,5.031,1.02,7.15.753,2.945,1.191,8.963.672,11.343S408.538,355.722,404.7,357a49.391,49.391,0,0,0-12.5,7.023c-4.153,3.061-12.835,6.17-18.525,6.035-6.731-.159-14.276-2.3-15.965-5.22-2.091-3.609-3.588-7.786,6.462-11.9,1.9-.779,8.6-4.3,10.882-5.579,6.179-3.46,10.538-6.658,13.456-12.916a3.536,3.536,0,0,1,1.466-1.9,3.441,3.441,0,0,1,1.944-.129c1.658.244,8.278,1.2,9.782,1.9,1.329.613,3.219,1.332,3.164,2.919a4.98,4.98,0,0,1-.4,1.607c-.124.321-.226.752.078.947.286.187.673-.013.937-.224a24.439,24.439,0,0,0,2.74-2.942,9.41,9.41,0,0,1,1.6-1.462,17.346,17.346,0,0,0,1.726-1C412.164,333.614,412.03,332.918,412.071,332.174Z" transform="translate(-356.182 -312.56)" fill="#455a64"/>
            <path id="Trazado_114318" data-name="Trazado 114318" d="M392.2,359.39c1.763-1.3,3.632-2.551,5.506-3.666v-.009s-11.846,6.4-16.539,3.327c-3.024-1.982-1.533-4.3-1.447-5.052s-10.615-6.221-13.578-6.6h0c-.834.408-1.532.737-1.97.917-10.051,4.11-8.553,8.287-6.462,11.9,1.69,2.916,7.143,5.262,15.843,5.409C379.241,365.711,388.046,362.451,392.2,359.39Z" transform="translate(-356.182 -307.923)" fill="#37474f"/>
            <path id="Trazado_114319" data-name="Trazado 114319" d="M375.8,356.455c-6.244,2.191-3.614,3.307-1.879,3.567s12.273-5.208,18.721-9.764c6.726-4.752,11-10,13.5-11.743.93-.65,1.935-1.452,2.828-2.2-.142-1.267-.256-2.42-.372-3.027a1.388,1.388,0,0,0-1.3-1.113c-.042.744.093,1.44-.523,1.988a17.356,17.356,0,0,1-1.726,1,9.408,9.408,0,0,0-1.6,1.462,24.434,24.434,0,0,1-2.74,2.942C395.177,345.834,382.042,354.263,375.8,356.455Z" transform="translate(-351.406 -312.56)" fill="#37474f"/>
            <g id="Grupo_81703" data-name="Grupo 81703" transform="translate(8.382 26.819)">
              <g id="Grupo_81698" data-name="Grupo 81698" transform="translate(0 12.389)">
                <path id="Trazado_114320" data-name="Trazado 114320" d="M377.192,354.61a.642.642,0,0,0,.391-.123.538.538,0,0,0,.1-.8c-1.72-2.013-9.944-6.861-14.518-6.475a.579.579,0,0,0-.555.616.592.592,0,0,0,.668.515c4.271-.351,12.081,4.452,13.443,6.048A.63.63,0,0,0,377.192,354.61Z" transform="translate(-362.607 -347.192)" fill="#263238"/>
              </g>
              <g id="Grupo_81699" data-name="Grupo 81699" transform="translate(5.464 9.4)">
                <path id="Trazado_114321" data-name="Trazado 114321" d="M381.381,352.317a.637.637,0,0,0,.39-.121.54.54,0,0,0,.1-.8c-1.72-2.012-9.942-6.857-14.518-6.474a.579.579,0,0,0-.556.616.6.6,0,0,0,.668.515c4.273-.346,12.081,4.45,13.443,6.046A.628.628,0,0,0,381.381,352.317Z" transform="translate(-366.795 -344.901)" fill="#263238"/>
              </g>
              <g id="Grupo_81700" data-name="Grupo 81700" transform="translate(10.928 6.572)">
                <path id="Trazado_114322" data-name="Trazado 114322" d="M385.568,350.15a.641.641,0,0,0,.391-.121.54.54,0,0,0,.1-.8c-1.72-2.014-9.944-6.866-14.518-6.474a.578.578,0,0,0-.555.616.6.6,0,0,0,.668.515c4.273-.351,12.08,4.45,13.442,6.046A.63.63,0,0,0,385.568,350.15Z" transform="translate(-370.983 -342.734)" fill="#263238"/>
              </g>
              <g id="Grupo_81701" data-name="Grupo 81701" transform="translate(15.999 3.323)">
                <path id="Trazado_114323" data-name="Trazado 114323" d="M389.456,347.659a.635.635,0,0,0,.39-.121.539.539,0,0,0,.1-.8c-1.718-2.013-9.961-6.861-14.518-6.474a.58.58,0,0,0-.556.616.6.6,0,0,0,.669.517c4.266-.35,12.08,4.449,13.442,6.045A.63.63,0,0,0,389.456,347.659Z" transform="translate(-374.87 -340.243)" fill="#263238"/>
              </g>
              <g id="Grupo_81702" data-name="Grupo 81702" transform="translate(19.93)">
                <path id="Trazado_114324" data-name="Trazado 114324" d="M393.509,345.183a.638.638,0,0,0,.382-.116.539.539,0,0,0,.113-.8c-2.361-2.855-10.992-6.934-15.563-6.549a.58.58,0,0,0-.556.616.607.607,0,0,0,.668.515c4.118-.343,12.381,3.577,14.478,6.107A.623.623,0,0,0,393.509,345.183Z" transform="translate(-377.883 -337.697)" fill="#263238"/>
              </g>
            </g>
          </g>
          <g id="Grupo_81711" data-name="Grupo 81711" transform="translate(95.675 178.527)">
            <path id="Trazado_114325" data-name="Trazado 114325" d="M434.711,345.59l-5.2-18.615,23.159-3.546,1.039,18.018s2.463,6.431,1.05,8.8-16.807,5.054-18.243,3.508S434.711,345.59,434.711,345.59Z" transform="translate(-429.515 -323.429)" fill="#ffbda7"/>
            <path id="Trazado_114326" data-name="Trazado 114326" d="M435.32,373.768c.757,5.768,2.033,9.488,4.6,12.584s7.079,3.567,11.512,1.961,10.022-5.056,10.992-10.251.491-8.6-.873-13.859Z" transform="translate(-427.746 -311.007)" fill="#263238"/>
            <path id="Trazado_114327" data-name="Trazado 114327" d="M452.643,337.24c1.86-.123,1.5,7.8,3.061,15.48,1.678,8.232,4.752,11.317,6.212,18.054,1.669,7.7,1.421,11.272-1.414,16.447s-13.645,11.332-19.552,5.268c-4.814-4.945-5.39-11.07-5.481-18.97-.1-8.166-.089-13.919-.857-20.024-.734-5.833-2.528-11.009-.96-11.88.179.847.369,1.927.554,2.758.142.637.53,3.8,1.57,3.687a10.7,10.7,0,0,0-.12-2.218,2.5,2.5,0,0,1,.386-1.966,8.673,8.673,0,0,1,2.975-1.547c1.8-.562,5.028-1.276,6.872-1.673.917-.2,1.841-.361,2.769-.478a8.232,8.232,0,0,1,2.367-.023,1.449,1.449,0,0,1,1.053.663,2.207,2.207,0,0,1,.154.885,5.58,5.58,0,0,0,.335,1.581c.082.222.282.481.544.389a.492.492,0,0,0,.271-.515c-.054-.949-.234-1.62-.355-2.716-.055-.506-.193-1.189-.235-1.7S452.713,337.737,452.643,337.24Z" transform="translate(-428.445 -319.222)" fill="#455a64"/>
            <path id="Trazado_114328" data-name="Trazado 114328" d="M460.78,361.274c.252,1.109,1.823,8.465-.42,10.131-2.428,1.8-4.185-3.907-4.185-3.907s-6.013-.791-14.409,3.675c.518,1.157-.554,5.352-2.969,4.822-2.4-.524-3.871-9.006-3.89-9.117.12,7.57.8,13.489,5.47,18.289,5.906,6.064,16.717-.094,19.552-5.268s3.083-8.748,1.414-16.447C461.175,362.68,460.985,361.962,460.78,361.274Z" transform="translate(-427.873 -311.899)" fill="#37474f"/>
            <path id="Trazado_114329" data-name="Trazado 114329" d="M451.523,375.415c.218,2.835,3.353,1.444,3.237-2.584s-3.224-13.207-3.639-20.11c-.671-9.472-1.2-15.6-3.059-15.481.013.1.017.193.029.288l.5,3.941a15.838,15.838,0,0,1,.213,1.688c.415,5.786.647,17.036,1.552,22.256A80.683,80.683,0,0,1,451.523,375.415Z" transform="translate(-423.864 -319.222)" fill="#37474f"/>
            <path id="Trazado_114330" data-name="Trazado 114330" d="M443.349,377.259a79.19,79.19,0,0,1-2.4-9.726c-.973-5.164-4.249-15.485-5.878-21.036a12.456,12.456,0,0,1-.851-3.147c-.174-.776-.35-1.761-.518-2.579-.017-.056-.033-.114-.046-.171-1.13.647-.676,5.13-.04,7.446s1.406,4.795,2.206,8.119c2.02,6.542,2.339,16.4,3.635,20.166S444.133,379.966,443.349,377.259Z" transform="translate(-428.463 -318.198)" fill="#37474f"/>
            <g id="Grupo_81710" data-name="Grupo 81710" transform="translate(7.856 30.995)">
              <g id="Grupo_81705" data-name="Grupo 81705" transform="translate(5.075 23.895)">
                <path id="Trazado_114331" data-name="Trazado 114331" d="M440.22,370.139a.833.833,0,0,0,.247-.1,25.661,25.661,0,0,1,14.19-3.225.763.763,0,0,0,.813-.541.557.557,0,0,0-.534-.672,26.873,26.873,0,0,0-15.175,3.456.6.6,0,0,0-.237.852A.674.674,0,0,0,440.22,370.139Z" transform="translate(-439.426 -365.501)" fill="#263238"/>
              </g>
              <g id="Grupo_81706" data-name="Grupo 81706" transform="translate(3.136 17.612)">
                <path id="Trazado_114332" data-name="Trazado 114332" d="M438.736,365.651a.8.8,0,0,0,.224-.086,31.794,31.794,0,0,1,15.888-3.6.766.766,0,0,0,.8-.565.563.563,0,0,0-.562-.654,32.942,32.942,0,0,0-16.786,3.814.607.607,0,0,0-.271.848A.667.667,0,0,0,438.736,365.651Z" transform="translate(-437.94 -360.685)" fill="#263238"/>
              </g>
              <g id="Grupo_81707" data-name="Grupo 81707" transform="translate(2.194 11.663)">
                <path id="Trazado_114333" data-name="Trazado 114333" d="M454.247,357.555a.746.746,0,0,0,.557-.484.553.553,0,0,0-.479-.708c-8.463-1.346-16.435,3.467-16.771,3.674a.594.594,0,0,0-.237.851.724.724,0,0,0,.943.129c.076-.044,7.82-4.714,15.7-3.451A.786.786,0,0,0,454.247,357.555Z" transform="translate(-437.218 -356.125)" fill="#263238"/>
              </g>
              <g id="Grupo_81708" data-name="Grupo 81708" transform="translate(1.073 6.122)">
                <path id="Trazado_114334" data-name="Trazado 114334" d="M453.681,353.391a.749.749,0,0,0,.552-.472.547.547,0,0,0-.462-.716c-9.319-1.639-16.8,3.456-17.113,3.673a.587.587,0,0,0-.179.86.731.731,0,0,0,.958.074c.069-.05,7.268-4.932,15.94-3.409A.792.792,0,0,0,453.681,353.391Z" transform="translate(-436.359 -351.878)" fill="#263238"/>
              </g>
              <g id="Grupo_81709" data-name="Grupo 81709">
                <path id="Trazado_114335" data-name="Trazado 114335" d="M452.974,348.694a.755.755,0,0,0,.551-.466.548.548,0,0,0-.451-.721c-8.74-1.657-16.884,3.628-17.226,3.858a.588.588,0,0,0-.2.856.713.713,0,0,0,.951.1c.079-.052,7.948-5.155,16.063-3.615A.76.76,0,0,0,452.974,348.694Z" transform="translate(-435.536 -347.186)" fill="#263238"/>
              </g>
            </g>
          </g>
          <g id="Grupo_81712" data-name="Grupo 81712" transform="translate(27.597)">
            <path id="Trazado_114336" data-name="Trazado 114336" d="M455.446,190.663c5.271,44.074,9.681,107.318,9.681,107.318.38,3.467,2.9,9.373,4.856,26.47,2.061,18.037,2.979,65.064,2.979,65.064-2.155,6.92-19.025,10.279-24.221,3.618,0,0-15.522-56.372-20.325-77.754-4.934-21.963-10.218-54.522-10.218-54.522l-2.851,32.64s.99,11.189.77,20.312c-.257,10.612-8.166,70.983-8.166,70.983s-16.334,4.022-26.956-3.934c0,0-2.959-72.76-3.477-85.512-1.018-25.013,2.545-76.431,2.877-108.755Z" transform="translate(-377.334 -186.592)" fill="#37474f"/>
            <path id="Trazado_114337" data-name="Trazado 114337" d="M414.35,252.767l-5.764-32.439s-12.26-1.585-18.628-7.183c0,0,4.176,7.477,15.76,10.227l5.686,29.522.1,32.514Z" transform="translate(-373.488 -178.502)" opacity="0.2"/>
          </g>
        </g>
        <g id="Top" transform="translate(0 0)">
          <path id="Trazado_114338" data-name="Trazado 114338" d="M407.8,119.5c-10.33.508-15.338,3.93-29.63,13.292-12.413,8.131-36.343,22.927-36.343,22.927s-2.791,20.491,9.377,20.491c4.878,0,11.578-1.228,19.727-5.387,11.4-5.817,21.746-11.719,21.746-11.719Z" transform="translate(-341.552 -47.65)" fill="#f6f6f6"/>
          <g id="Grupo_81723" data-name="Grupo 81723" transform="translate(0.245 18.094)">
            <path id="Trazado_114339" data-name="Trazado 114339" d="M354.889,116.975c-1.121-2.646-1.975-4.637-2.852-6.765a11.928,11.928,0,0,1-.583-5.108c.029-2.1-.348-4.8.585-5.246s2.9.352,3.935,2.669.663,4.334,1.8,5.931,1.72,2.372,1.72,2.372Z" transform="translate(-338.796 -71.763)" fill="#f0997a"/>
            <g id="Grupo_81722" data-name="Grupo 81722" transform="translate(7.564)">
              <g id="Grupo_81716" data-name="Grupo 81716" transform="translate(0.445 19.171)">
                <g id="Grupo_81713" data-name="Grupo 81713" transform="translate(2.847)">
                  <path id="Trazado_114340" data-name="Trazado 114340" d="M350.2,99.063a1.964,1.964,0,0,1,.151-1.727c.175-.318.879-1.59,1.066-1.927.673-1.216,2.555-2.354,5.951-2.416,5.069-.094,9.694,2.278,10.918,3.836s5.958,9.572,6.7,11.129c1.759,3.679,3.219,6.956,5.281,11.139,1.94,3.932,2.71,6.51,2.326,7.208-.025.044-.929,1.679-1.062,1.922a.4.4,0,0,1-.086.107c-.564.487-2.65.815-4.5.849a17.249,17.249,0,0,1-5.412-.665c-1.13-.454-3.563-3.072-6.529-7.24s-5.442-7.424-8.1-11.086C355.774,108.643,350.857,100.633,350.2,99.063Z" transform="translate(-350.061 -92.99)" fill="#9aeccd"/>
                  <path id="Trazado_114341" data-name="Trazado 114341" d="M377.547,127.286c.192-.346,1.015-1.834,1.039-1.879.384-.7-.388-3.275-2.326-7.207-2.063-4.183-3.521-7.46-5.281-11.139-.744-1.556-5.48-9.57-6.7-11.129l-1.062,1.919c1.224,1.559,5.958,9.572,6.7,11.129,1.76,3.68,3.22,6.956,5.283,11.139C377.1,123.975,377.876,126.528,377.547,127.286Z" transform="translate(-346.054 -92.094)" opacity="0.3"/>
                  <path id="Trazado_114342" data-name="Trazado 114342" d="M356.3,94.464c-5.069.094-6.766,2.583-6.107,4.151s5.577,9.58,6.7,11.129c2.663,3.662,5.139,6.92,8.1,11.086s5.4,6.786,6.529,7.24a17.249,17.249,0,0,0,5.412.665c1.85-.034,3.936-.363,4.5-.849s-.176-3.135-2.239-7.318-3.523-7.46-5.283-11.138c-.744-1.558-5.478-9.571-6.7-11.129S361.371,94.37,356.3,94.464Z" transform="translate(-350.061 -92.542)" fill="#ba68c8"/>
                  <path id="Trazado_114343" data-name="Trazado 114343" d="M356.3,94.464c-5.069.094-6.766,2.583-6.107,4.151s5.577,9.58,6.7,11.129c2.663,3.662,5.139,6.92,8.1,11.086s5.4,6.786,6.529,7.24a17.249,17.249,0,0,0,5.412.665c1.85-.034,3.936-.363,4.5-.849s-.176-3.135-2.239-7.318-3.523-7.46-5.283-11.138c-.744-1.558-5.478-9.571-6.7-11.129S361.371,94.37,356.3,94.464Z" transform="translate(-350.061 -92.542)" fill="#fff" opacity="0.2"/>
                </g>
                <g id="Grupo_81714" data-name="Grupo 81714" transform="translate(0 0.994)">
                  <path id="Trazado_114344" data-name="Trazado 114344" d="M348.075,101.885a2.578,2.578,0,0,1,.162-2.287c.294-.527,1.448-2.617,1.763-3.19.762-1.383,2.8-2.587,6.412-2.654,5.594-.1,10.736,2.595,12.3,4.582,1.276,1.624,6.09,9.759,6.877,11.4.675,1.413,1.32,2.795,1.943,4.131,1.015,2.176,2.064,4.424,3.332,6.994,1.467,2.973,3.007,6.645,2.359,7.828-.044.082-1.515,2.745-1.773,3.207a.738.738,0,0,1-.162.2c-.721.622-3.039.942-4.885.977a18.165,18.165,0,0,1-5.941-.776c-2.056-.827-5.174-4.774-7.427-7.939-1.821-2.558-3.474-4.795-5.071-6.958-.984-1.331-2-2.707-3.023-4.115C353.746,111.652,348.762,103.52,348.075,101.885Z" transform="translate(-347.879 -93.752)" fill="#37474f"/>
                  <path id="Trazado_114345" data-name="Trazado 114345" d="M376.993,130.829c.26-.462,1.73-3.125,1.774-3.207.648-1.183-.892-4.853-2.359-7.828-1.268-2.57-2.317-4.818-3.332-6.994-.622-1.335-1.268-2.718-1.944-4.129-.784-1.645-5.6-9.781-6.876-11.4l-1.769,3.2c1.276,1.624,6.09,9.76,6.876,11.4.677,1.414,1.322,2.795,1.944,4.131,1.015,2.175,2.065,4.425,3.332,7C376.109,125.973,377.652,129.65,376.993,130.829Z" transform="translate(-343.429 -92.681)" fill="#263238"/>
                  <path id="Trazado_114346" data-name="Trazado 114346" d="M376.4,132.329c1.846-.035,4.163-.355,4.885-.977,1.027-.883-.626-4.857-2.193-8.035-1.267-2.57-2.317-4.819-3.331-6.994-.624-1.336-1.268-2.718-1.944-4.131-.787-1.644-5.6-9.778-6.876-11.4-1.562-1.988-6.7-4.686-12.3-4.582s-7.408,2.93-6.568,4.932c.688,1.635,5.671,9.767,6.861,11.4,1.023,1.408,2.039,2.784,3.023,4.115,1.6,2.163,3.25,4.4,5.071,6.958,2.253,3.165,5.371,7.112,7.427,7.939A18.165,18.165,0,0,0,376.4,132.329Z" transform="translate(-347.879 -93.005)" fill="#455a64"/>
                </g>
                <g id="Grupo_81715" data-name="Grupo 81715" transform="translate(0.017 5.118)">
                  <path id="Trazado_114347" data-name="Trazado 114347" d="M348.028,102.986a1.965,1.965,0,0,1,.151-1.727c.175-.317.879-1.59,1.066-1.927.673-1.216,2.555-2.354,5.951-2.416,5.069-.094,9.694,2.278,10.917,3.837s5.958,9.572,6.7,11.129c1.759,3.679,3.219,6.955,5.281,11.138,1.94,3.932,2.71,6.51,2.326,7.208-.025.044-.929,1.679-1.062,1.922a.426.426,0,0,1-.086.108c-.564.485-2.65.814-4.5.849a17.252,17.252,0,0,1-5.412-.667c-1.13-.454-3.563-3.072-6.529-7.238s-5.442-7.425-8.1-11.087C353.605,112.566,348.688,104.556,348.028,102.986Z" transform="translate(-347.892 -96.913)" fill="#9aeccd"/>
                  <path id="Trazado_114348" data-name="Trazado 114348" d="M375.378,131.208c.192-.346,1.014-1.834,1.039-1.877.384-.7-.387-3.275-2.326-7.208-2.063-4.183-3.521-7.46-5.281-11.138-.744-1.556-5.48-9.571-6.7-11.129l-1.062,1.919c1.224,1.558,5.957,9.571,6.7,11.128,1.76,3.68,3.22,6.956,5.283,11.139C374.932,127.9,375.707,130.45,375.378,131.208Z" transform="translate(-343.885 -96.016)" opacity="0.2"/>
                  <path id="Trazado_114349" data-name="Trazado 114349" d="M354.133,98.387c-5.067.094-6.765,2.583-6.106,4.151s5.577,9.58,6.7,11.129c2.663,3.662,5.139,6.921,8.1,11.087s5.4,6.784,6.529,7.238a17.251,17.251,0,0,0,5.412.667c1.85-.035,3.936-.364,4.5-.849s-.176-3.136-2.239-7.319-3.523-7.459-5.283-11.138c-.744-1.556-5.478-9.571-6.7-11.129S359.2,98.293,354.133,98.387Z" transform="translate(-347.892 -96.465)" fill="#9aeccd"/>
                  <path id="Trazado_114350" data-name="Trazado 114350" d="M354.133,98.387c-5.067.094-6.765,2.583-6.106,4.151s5.577,9.58,6.7,11.129c2.663,3.662,5.139,6.921,8.1,11.087s5.4,6.784,6.529,7.238a17.251,17.251,0,0,0,5.412.667c1.85-.035,3.936-.364,4.5-.849s-.176-3.136-2.239-7.319-3.523-7.459-5.283-11.138c-.744-1.556-5.478-9.571-6.7-11.129S359.2,98.293,354.133,98.387Z" transform="translate(-347.892 -96.464)" fill="#fff" opacity="0.39"/>
                </g>
              </g>
              <g id="Grupo_81717" data-name="Grupo 81717" transform="translate(20.238 25.79)">
                <path id="Trazado_114351" data-name="Trazado 114351" d="M363.107,100.1l1.057-1.91a.2.2,0,0,1,.155-.116l.733-.013a.2.2,0,0,1,.162.106l1.98,3.078a.575.575,0,0,1,.017.535l-1.056,1.909a.191.191,0,0,1-.159.116l-.729.014a.2.2,0,0,1-.162-.106l-1.98-3.078A.575.575,0,0,1,363.107,100.1Z" transform="translate(-363.05 -98.063)" fill="#9aeccd"/>
                <path id="Trazado_114352" data-name="Trazado 114352" d="M365.044,98.169l1.98,3.078a.575.575,0,0,1,.017.535l-1.055,1.909a.171.171,0,0,1-.32.012l-1.98-3.079a.575.575,0,0,1-.017-.535l1.055-1.909A.171.171,0,0,1,365.044,98.169Z" transform="translate(-362.879 -98.049)" opacity="0.2"/>
                <path id="Trazado_114353" data-name="Trazado 114353" d="M363.125,100.1l1.98,3.079a.2.2,0,0,0,.16.1l.715-.014a.208.208,0,0,1-.145-.106l-1.98-3.078a.519.519,0,0,1-.073-.264l-.732.014A.515.515,0,0,0,363.125,100.1Z" transform="translate(-363.05 -97.527)" fill="#fff" opacity="0.2"/>
              </g>
              <g id="Grupo_81718" data-name="Grupo 81718" transform="translate(23.393 30.564)">
                <path id="Trazado_114354" data-name="Trazado 114354" d="M365.528,103.744l1.057-1.909a.185.185,0,0,1,.154-.114l.716.017a.2.2,0,0,1,.157.114l1.725,2.937a.611.611,0,0,1,.01.547l-1.056,1.91a.185.185,0,0,1-.157.112l-.715-.016a.2.2,0,0,1-.157-.115l-1.723-2.936A.61.61,0,0,1,365.528,103.744Z" transform="translate(-365.469 -101.722)" fill="#9aeccd"/>
                <path id="Trazado_114355" data-name="Trazado 114355" d="M367.444,101.849l1.725,2.937a.611.611,0,0,1,.01.547l-1.055,1.91c-.083.15-.223.149-.313,0l-1.723-2.936a.609.609,0,0,1-.012-.548l1.057-1.909C367.215,101.7,367.356,101.7,367.444,101.849Z" transform="translate(-365.302 -101.718)" opacity="0.2"/>
                <path id="Trazado_114356" data-name="Trazado 114356" d="M365.539,103.756l1.723,2.937a.2.2,0,0,0,.157.114l.7.014a.214.214,0,0,1-.14-.113l-1.725-2.936a.593.593,0,0,1-.068-.273l-.716-.016A.561.561,0,0,0,365.539,103.756Z" transform="translate(-365.468 -101.185)" fill="#fff" opacity="0.2"/>
              </g>
              <g id="Grupo_81719" data-name="Grupo 81719" transform="translate(0 18.973)">
                <path id="Trazado_114357" data-name="Trazado 114357" d="M348.216,96.6a1.073,1.073,0,0,1,.086-1.08,3.373,3.373,0,0,1,2.615-1.575,1.071,1.071,0,0,1,1,.428c.166.273.227.376.391.648a1.072,1.072,0,0,1-.086,1.082,3.125,3.125,0,0,1-1.119,1.1,12.907,12.907,0,0,0-1.91,1.011Z" transform="translate(-347.365 -92.502)" fill="#263238"/>
                <path id="Trazado_114358" data-name="Trazado 114358" d="M351.827,95.45a3.373,3.373,0,0,1-2.615,1.575.931.931,0,0,1-.909-1.51,3.373,3.373,0,0,1,2.615-1.575.93.93,0,0,1,.909,1.509Z" transform="translate(-347.365 -92.502)" fill="#455a64"/>
                <path id="Trazado_114359" data-name="Trazado 114359" d="M347.634,95.175a.943.943,0,0,1,.076-.951,2.972,2.972,0,0,1,2.3-1.386.943.943,0,0,1,.875.377c.146.24.775,1.286.92,1.526a.942.942,0,0,1-.076.951,2.966,2.966,0,0,1-2.3,1.386.942.942,0,0,1-.877-.377Z" transform="translate(-347.538 -92.838)" fill="#37474f"/>
                <path id="Trazado_114360" data-name="Trazado 114360" d="M350.811,94.166a2.966,2.966,0,0,1-2.3,1.386.819.819,0,0,1-.8-1.328,2.972,2.972,0,0,1,2.3-1.386.819.819,0,0,1,.8,1.328Z" transform="translate(-347.538 -92.838)" fill="#455a64"/>
              </g>
              <g id="Grupo_81720" data-name="Grupo 81720" transform="translate(13.304 20.605)">
                <path id="Trazado_114361" data-name="Trazado 114361" d="M361.542,94.518a1.072,1.072,0,0,0-1-.429,3.375,3.375,0,0,0-2.615,1.575,1.077,1.077,0,0,0-.087,1.08c.164.274.227.376.391.65s.442.371,1.062.6a26,26,0,0,1,2.6,1.288c1.373.737,2.6.133,1.412-1.841C363.14,97.171,361.706,94.791,361.542,94.518Z" transform="translate(-357.735 -94.089)" fill="#263238"/>
                <path id="Trazado_114362" data-name="Trazado 114362" d="M358.84,97.173a3.373,3.373,0,0,0,2.615-1.575.93.93,0,0,0-.909-1.51,3.371,3.371,0,0,0-2.613,1.575.929.929,0,0,0,.908,1.51Z" transform="translate(-357.735 -94.089)" fill="#455a64"/>
              </g>
              <g id="Grupo_81721" data-name="Grupo 81721" transform="translate(1.46)">
                <path id="Trazado_114363" data-name="Trazado 114363" d="M349.159,80.579h0a.575.575,0,0,1,.047-.582,1.815,1.815,0,0,1,1.409-.849.58.58,0,0,1,.538.231l0,.005c.993,1.5,11.173,17.129,12.732,19.715l.007.008a.943.943,0,0,1-.077.951,2.968,2.968,0,0,1-2.3,1.387.946.946,0,0,1-.877-.378h0C359.093,98.5,350.006,82.131,349.159,80.579Z" transform="translate(-348.522 -78.036)" fill="#37474f"/>
                <path id="Trazado_114364" data-name="Trazado 114364" d="M348.824,80.06a1.164,1.164,0,0,1,1.993-1.2v0l.47.778a.583.583,0,0,1-.047.583,1.818,1.818,0,0,1-1.41.848.574.574,0,0,1-.536-.231C349.209,80.7,348.907,80.2,348.824,80.06Z" transform="translate(-348.657 -78.296)" fill="#9aeccd"/>
              </g>
            </g>
            <path id="Trazado_114365" data-name="Trazado 114365" d="M356.686,130.587c.765-2.057.932-3.891.779-9.344-.15-5.431-1.2-8.983-.338-10.518s3.6-6.071,4.706-7.671a14.851,14.851,0,0,1,3.913-3.023,13.715,13.715,0,0,1,3.93-2.022,23.118,23.118,0,0,1,5.1.251c1.438.15,1.358,2.448-.722,3.422s-3.26,1.071-4.7,2.317a46.043,46.043,0,0,0-4.487,5.8s4.352-3.5,5.893-4.449a20.338,20.338,0,0,1,5.057-1.763,3.513,3.513,0,0,1,3.165.38c1.127.641,2.1,1.887,1.572,2.8a5.328,5.328,0,0,1-1.449,1.53,3.946,3.946,0,0,1,1.926-.081,2.95,2.95,0,0,1,1.584,2.367c.157,1.009.009,1.466-.338,1.683a4.691,4.691,0,0,1,1.75.763,2.5,2.5,0,0,1,.494,3.187c-.9,1.226-3.112,2.386-4.937,3.594a6.974,6.974,0,0,0-1.3,1.054,9.036,9.036,0,0,0-1.076,1.173,3.245,3.245,0,0,0-.346,1.585c-.034.75-.077,1.5-.1,2.249a7.718,7.718,0,0,1-.094,1.789c-.472,1.868-1.459,3.144-3.143,4.874s-2.3,3.738-3.267,8.522c-.9,4.461-3.16,17.516-3.964,22.864s-1.579,10.526-7.9,13.953S344.9,183.126,343,175.121s-1.581-17.573.425-21.474,5.862-9.48,8.392-13.516A55.055,55.055,0,0,0,356.686,130.587Z" transform="translate(-341.74 -72.315)" fill="#ffbda7"/>
            <path id="Trazado_114366" data-name="Trazado 114366" d="M360.4,107.449a6.4,6.4,0,0,1-3.995,1.636,12.827,12.827,0,0,0,5.257-3.455Z" transform="translate(-337.273 -69.968)" fill="#f0997a"/>
            <path id="Trazado_114367" data-name="Trazado 114367" d="M360.433,112.475a8.578,8.578,0,0,0,3.319-1.409c.929-.749,1.9-1.559,2.911-2.247a13.059,13.059,0,0,1,3.271-1.717c1.153-.429,2.309-.851,3.476-1.228-1.106.539-2.223,1.032-3.341,1.517a14.116,14.116,0,0,0-3.172,1.77c-1.035.661-1.943,1.433-2.964,2.166A7.337,7.337,0,0,1,360.433,112.475Z" transform="translate(-336.045 -69.893)" fill="#f0997a"/>
            <path id="Trazado_114368" data-name="Trazado 114368" d="M375.641,108.917c-1.893,1.281-3.872,2.419-5.838,3.577a23.67,23.67,0,0,1-2.981,1.729,10.417,10.417,0,0,1-3.3.959,14.219,14.219,0,0,0,3.163-1.245,29.5,29.5,0,0,0,2.9-1.791C371.572,111.027,373.568,109.906,375.641,108.917Z" transform="translate(-335.105 -68.966)" fill="#f0997a"/>
          </g>
          <path id="Chest" d="M432.8,118.009c4.557.942,10.336,2.119,16.145,3.726,5.846,1.616,9.665,2.646,14.912,5.558,0,0-.085,22.117-4.415,42.2-1,4.621-4.352,17.38-4.936,27.17-.785,13.207-.341,19.111.819,30.521,0,0-15.074,11.185-47.283,8.758-25.29-1.9-28.572-11.215-28.572-11.215s.461-42.154,1.118-60.8c.864-24.494,8.281-38.629,13.739-42.908l16.6-2.765Z" transform="translate(-330.001 -48.103)" fill="#f6f6f6"/>
          <g id="Grupo_81726" data-name="Grupo 81726" transform="translate(49.026 172.26)">
            <path id="Trazado_114369" data-name="Trazado 114369" d="M455.421,197.6c-9.259,5.695-24.469,9.245-37.474,9.784s-24.722-1.75-30.454-4.793-7.922-6.129-7.922-6.129l-.441,10.7s9.233,8.758,34.233,9.572c23.382.762,42.939-9.613,42.939-9.613Z" transform="translate(-379.13 -196.461)" fill="#263238"/>
            <g id="Grupo_81725" data-name="Grupo 81725" transform="translate(46.979 8.95)">
              <path id="Trazado_114370" data-name="Trazado 114370" d="M439.99,203.321c4.058,1.9,7.721,4.5,8.533,6.94,1.189,3.571,3.21,21.111,1.327,24.166s-17.733,11.223-21.84,11.592-9.476-4.487-10.548-5.951-2.527-23.883-2.3-25.626S439.99,203.321,439.99,203.321Z" transform="translate(-415.139 -203.321)" fill="#455a64"/>
              <g id="Grupo_81724" data-name="Grupo 81724" transform="translate(1.374 9.516)" opacity="0.2">
                <path id="Trazado_114371" data-name="Trazado 114371" d="M448.8,210.615a23.073,23.073,0,0,1-.067,6.517,9.254,9.254,0,0,1-3.127,5.353,20.789,20.789,0,0,1-5.489,3.254A26.065,26.065,0,0,1,434,227.624a8.162,8.162,0,0,1-5.865-1,9.137,9.137,0,0,1-3.354-5.037,30.776,30.776,0,0,1-.766-3.185,6.389,6.389,0,0,0-1.853-2.941,13.534,13.534,0,0,0-5.972-2.913,14.306,14.306,0,0,1,5.48,3.405,5.609,5.609,0,0,1,1.478,2.663,30.486,30.486,0,0,0,.586,3.271,9.914,9.914,0,0,0,3.645,5.84A9.393,9.393,0,0,0,434.2,229a25.621,25.621,0,0,0,6.44-2.072,19.611,19.611,0,0,0,5.675-3.678,9.99,9.99,0,0,0,3.067-6.015A20.667,20.667,0,0,0,448.8,210.615Z" transform="translate(-416.192 -210.615)"/>
              </g>
            </g>
          </g>
          <g id="Grupo_81727" data-name="Grupo 81727" transform="translate(113.372 34.434)">
            <path id="Trazado_114372" data-name="Trazado 114372" d="M431.78,93.646c-.005.878-3.33,2.313-3.33,2.313l1.489-5.139Z" transform="translate(-428.45 -90.82)" fill="#ba68c8"/>
            <path id="Trazado_114373" data-name="Trazado 114373" d="M431.78,93.646c-.005.878-3.33,2.313-3.33,2.313l1.489-5.139Z" transform="translate(-428.45 -90.82)" opacity="0.3"/>
          </g>
          <g id="Head" transform="translate(65.493 4.93)">
            <g id="Grupo_81731" data-name="Grupo 81731">
              <g id="Grupo_81730" data-name="Grupo 81730">
                <g id="Grupo_81728" data-name="Grupo 81728">
                  <path id="Trazado_114374" data-name="Trazado 114374" d="M427.789,77.9s3.9.3,6.455,5.212c1.284,2.47,2.2,6.975-1.311,19.854a51.892,51.892,0,0,1-6.195,14.21,6.372,6.372,0,0,1-3.7,2.952l.257-9.9.368-6.9s-5.562-5.048-6.041-10c-.616-6.379,1.873-9.991,1.873-9.991Z" transform="translate(-383.899 -65.254)" fill="#37474f"/>
                  <path id="Trazado_114375" data-name="Trazado 114375" d="M436.906,81.18c-.964-5.564-8.021-12.205-21.637-12.932-11.155-.6-17.446,5.26-21.33,11.764a13.014,13.014,0,0,0-.65,12.384l34.141-1.764Z" transform="translate(-391.668 -68.206)" fill="#37474f"/>
                  <path id="Trazado_114376" data-name="Trazado 114376" d="M440.2,113.127c-5.13,2.493-7.471-1.564-7.471-1.564l.043,20.884c-9.846,13.178-36.939,7.947-26.161-1.924l.021-4.656a30.75,30.75,0,0,1-4.442-.434c-4.54-.718-7.36-2.84-8.713-7.758a63.748,63.748,0,0,1-1.543-10.313c-.309-5.16-.354-9.914.933-13.493.908-2.528-.154-5.855.54-8.988.528-2.391,1.56-5,3.757-6.086,5.451-2.694,10.491,1.19,18.084,4.15,3.144,1.226,10.77,1.765,12.782.822-2.65,2.924-2.626,12.163,1.276,15.914a8.546,8.546,0,0,0,1.956,2.547c1.661,1.446,3.022-2.283,4.418-3.743s6.643-2.754,8.9,2.047A9.317,9.317,0,0,1,440.2,113.127Z" transform="translate(-391.752 -65.256)" fill="#ffbda7"/>
                  <path id="Trazado_114377" data-name="Trazado 114377" d="M403.16,117.747c5.958-.035,11.246-.771,14.762-2.253s6.634-6.239,7.656-10.957c0,3.8-1.666,10.531-7,13.327s-11.538,2.947-15.437,3.031Z" transform="translate(-388.28 -57.137)" fill="#f0997a"/>
                  <path id="Trazado_114378" data-name="Trazado 114378" d="M426.993,91.673c1.391,2.771-.2,11.5-2.809,12.6s-5.581-.651-11.289-2.3c-3.657-1.054-7.411-1.9-12.26-.573-2.678.733-7.768,3.125-8.744,1.756.334,6.491.322,15.847,7.519,18.173,5.112,1.652,16.006,1.935,22.414-1.408s7.588-7.168,8.767-12.38a95.741,95.741,0,0,1,3.28-10.782Z" transform="translate(-391.709 -61.056)" fill="#37474f"/>
                  <path id="Trazado_114379" data-name="Trazado 114379" d="M398.944,105.028a5.994,5.994,0,0,1,1.737-2.869,7.138,7.138,0,0,1,9.482-.022,6.6,6.6,0,0,1,1.973,4c.32,2.839-3.613,4.1-5.422,2.176a2.407,2.407,0,0,0-2.437-.442,5.168,5.168,0,0,0-.775.5,3.135,3.135,0,0,1-3.679-.271A2.964,2.964,0,0,1,398.944,105.028Z" transform="translate(-389.594 -58.414)" fill="#ffbda7"/>
                </g>
                <g id="Grupo_81729" data-name="Grupo 81729" transform="translate(3.905 21.581)">
                  <path id="Trazado_114380" data-name="Trazado 114380" d="M409.5,86.727l5.036,2.121a2.867,2.867,0,0,0-1.511-3.67A2.665,2.665,0,0,0,409.5,86.727Z" transform="translate(-390.248 -84.679)" fill="#37474f"/>
                  <path id="Trazado_114381" data-name="Trazado 114381" d="M394.908,88.572l5.118-2.033a2.642,2.642,0,0,0-3.486-1.6A2.894,2.894,0,0,0,394.908,88.572Z" transform="translate(-394.745 -84.747)" fill="#37474f"/>
                  <path id="Trazado_114382" data-name="Trazado 114382" d="M412.9,91.419a2.227,2.227,0,1,1-2.145-2.3A2.228,2.228,0,0,1,412.9,91.419Z" transform="translate(-390.569 -83.417)" fill="#263238"/>
                  <path id="Trazado_114383" data-name="Trazado 114383" d="M399.832,91.071a2.227,2.227,0,1,1-2.145-2.3A2.227,2.227,0,0,1,399.832,91.071Z" transform="translate(-394.551 -83.523)" fill="#263238"/>
                  <path id="Trazado_114384" data-name="Trazado 114384" d="M407.727,86.747l-1.837,14.174L398.4,98.155A33.216,33.216,0,0,1,407.727,86.747Z" transform="translate(-393.63 -84.138)" fill="#f0997a"/>
                </g>
              </g>
            </g>
            <path id="Trazado_114385" data-name="Trazado 114385" d="M407.5,101.82l-5.791,1.914a3,3,0,0,0,3.8,2.046A3.193,3.193,0,0,0,407.5,101.82Z" transform="translate(-388.718 -57.965)" fill="#b16668"/>
            <path id="Trazado_114386" data-name="Trazado 114386" d="M406.235,102.636a3.378,3.378,0,0,1,.736-.069,3.154,3.154,0,0,1-2.115,2.985,2.9,2.9,0,0,1-.968.134A2.792,2.792,0,0,1,406.235,102.636Z" transform="translate(-388.065 -57.737)" fill="#f28f8f"/>
          </g>
          <g id="Grupo_81732" data-name="Grupo 81732" transform="translate(57.418)">
            <path id="Trazado_114387" data-name="Trazado 114387" d="M444.828,94.23a25.816,25.816,0,0,1-1.975,7.317,27.316,27.316,0,0,0-1.817-2.08,45.493,45.493,0,0,0-12.914-9.141l-.022,0c-11.151-5.425-24.9-7.491-35.994-4.759a24.892,24.892,0,0,1,2.176-6.138A26.664,26.664,0,0,1,421.33,65.078C436.023,66.812,446.524,79.865,444.828,94.23Z" transform="translate(-383.569 -64.287)" fill="#f9931f"/>
            <path id="Trazado_114388" data-name="Trazado 114388" d="M431.726,68.045c-1.327-.668-8.021-2.8-8.556-2.976-3.47-1.123-9.077-1.191-14.932,3.311a26.343,26.343,0,0,0-9.3,14.047l7.113,2.371,2.281.27c.946-5.129,8.111-16.075,17.861-16.256a9.617,9.617,0,0,1,1.378.052,12.943,12.943,0,0,1,3.755.843,36.5,36.5,0,0,1,3.721,3.059A5.874,5.874,0,0,0,431.726,68.045Z" transform="translate(-381.487 -64.427)" fill="#f9931f"/>
            <path id="Trazado_114389" data-name="Trazado 114389" d="M431.726,68.045c-1.327-.668-8.021-2.8-8.556-2.976-3.47-1.123-9.077-1.191-14.932,3.311a26.343,26.343,0,0,0-9.3,14.047l7.113,2.371,2.281.27c.946-5.129,8.111-16.075,17.861-16.256a9.617,9.617,0,0,1,1.378.052,12.943,12.943,0,0,1,3.755.843,36.5,36.5,0,0,1,3.721,3.059A5.874,5.874,0,0,0,431.726,68.045Z" transform="translate(-381.487 -64.427)" fill="#fff" opacity="0.45"/>
            <path id="Trazado_114390" data-name="Trazado 114390" d="M406.665,84.517c1.115-5.97,10.735-19.95,22.991-15.375a36.872,36.872,0,0,1,3.737,3.059,5.926,5.926,0,0,0-3.331-4.716c-3.185-1.584-9.608-2.485-16.38,2.723a26.284,26.284,0,0,0-9.288,14.041Z" transform="translate(-379.825 -63.871)" fill="#f9931f"/>
            <path id="Trazado_114391" data-name="Trazado 114391" d="M406.665,84.517c1.115-5.97,10.735-19.95,22.991-15.375a36.872,36.872,0,0,1,3.737,3.059,5.926,5.926,0,0,0-3.331-4.716c-3.185-1.584-9.608-2.485-16.38,2.723a26.284,26.284,0,0,0-9.288,14.041Z" transform="translate(-379.825 -63.871)" opacity="0.3"/>
            <path id="Trazado_114392" data-name="Trazado 114392" d="M430.334,86.1c-.513-.459-2.9-5.781-11.694-10.642-5.43-3-16.671-3.414-21.715-3.453-8.833-.072-10.979,1.718-11.114,2.989-.033.3-.184,1.7-.231,2.016a1.214,1.214,0,0,0,.168.823c1.284,1.995,8.349,5.563,8.349,5.563,11.095-2.732,24.843-.665,35.994,4.759Z" transform="translate(-385.561 -62.119)" fill="#f9931f"/>
            <path id="Trazado_114393" data-name="Trazado 114393" d="M430.334,86.1c-.513-.459-2.9-5.781-11.694-10.642-5.43-3-16.671-3.414-21.715-3.453-8.833-.072-10.979,1.718-11.114,2.989-.033.3-.184,1.7-.231,2.016a1.214,1.214,0,0,0,.168.823c1.284,1.995,8.349,5.563,8.349,5.563,11.095-2.732,24.843-.665,35.994,4.759Z" transform="translate(-385.561 -62.119)" opacity="0.15"/>
            <path id="Trazado_114394" data-name="Trazado 114394" d="M430.093,87.676c-11.151-5.425-24.9-7.491-35.995-4.759,0,0-7.065-3.568-8.349-5.563-.686-1.1.008-3.862,10.934-3.774,5.044.04,16.286.454,21.715,3.453C427.2,81.9,429.58,87.216,430.093,87.676Z" transform="translate(-385.563 -61.639)" fill="#f9931f"/>
            <path id="Trazado_114395" data-name="Trazado 114395" d="M430.093,87.676c-11.151-5.425-24.9-7.491-35.995-4.759,0,0-7.065-3.568-8.349-5.563-.686-1.1.008-3.862,10.934-3.774,5.044.04,16.286.454,21.715,3.453C427.2,81.9,429.58,87.216,430.093,87.676Z" transform="translate(-385.563 -61.639)" opacity="0.3"/>
          </g>
          <g id="Grupo_81737" data-name="Grupo 81737" transform="translate(48.19 70.196)">
            <g id="Grupo_81734" data-name="Grupo 81734" transform="translate(47.162 0.461)">
              <path id="Trazado_114396" data-name="Trazado 114396" d="M425.8,118.606l.082.014C425.849,118.549,425.8,118.606,425.8,118.606Zm-11.159,70.427c0,18.687,1.5,52.737,1.5,52.737s10.938,1.632,20.769-2.037c9.934-3.708,11-8.476,11-8.476s-2-17.982-2-28.3a158.42,158.42,0,0,1,4.358-35.355c3-12.82,3.5-40.481,3.5-40.481a64.37,64.37,0,0,0-11.154-4.715c-5.743-1.755-15.888-3.628-16.728-3.782.111.266-.09,2.313-4.415,15.682C415.97,151.283,414.638,170.345,414.638,189.033Z" transform="translate(-414.638 -118.584)" fill="#f9931f"/>
              <g id="Grupo_81733" data-name="Grupo 81733" transform="translate(0.234 80.229)">
                <path id="Trazado_114397" data-name="Trazado 114397" d="M445.992,180.078c-.086,1.4-.138,2.787-.138,4.141,0,.209,0,.427,0,.643-9.117,4.352-20.866,5.915-30.932,5.731-.038-1.4-.074-2.809-.108-4.2C425.068,186.577,436.929,184.866,445.992,180.078Z" transform="translate(-414.817 -180.078)" fill="#fff"/>
                <path id="Trazado_114398" data-name="Trazado 114398" d="M415.138,197.475c10.218.123,22.018-1.632,31.016-6.452.1,1.54.211,3.083.33,4.586-9.148,4.53-21.01,6.188-31.2,6.068C415.233,200.314,415.186,198.91,415.138,197.475Z" transform="translate(-414.719 -176.743)" fill="#fff"/>
              </g>
            </g>
            <g id="Grupo_81736" data-name="Grupo 81736">
              <path id="Trazado_114399" data-name="Trazado 114399" d="M410.652,118.231s-10.9,8.767-15.372,27.321c-3.554,14.732-3.695,33.066-4.433,55.6s-.076,35.577-.076,35.577-9.429-1.626-12.282-6.206c.9-27.709,1.444-54.493,1.452-64.838a111.6,111.6,0,0,1,5.363-32,31.835,31.835,0,0,1,8.867-13.629Z" transform="translate(-378.489 -118.231)" fill="#f9931f"/>
              <g id="Grupo_81735" data-name="Grupo 81735" transform="translate(0.384 81.299)">
                <path id="Trazado_114400" data-name="Trazado 114400" d="M390.593,184.61q-.063,2.161-.107,4.213a43.5,43.5,0,0,1-6.677-1.607,38.611,38.611,0,0,1-4.736-1.944q.063-2.4.117-4.727a28.288,28.288,0,0,0,3.118,1.639A36.911,36.911,0,0,0,390.593,184.61Z" transform="translate(-378.695 -180.545)" fill="#fff"/>
                <path id="Trazado_114401" data-name="Trazado 114401" d="M383.9,198.026a38.935,38.935,0,0,1-5.114-2.117q.068-2.407.136-4.775a29.05,29.05,0,0,0,3.478,1.859,36.669,36.669,0,0,0,8.042,2.38q-.014,2.219-.009,4.236A43.534,43.534,0,0,1,383.9,198.026Z" transform="translate(-378.783 -177.319)" fill="#fff"/>
              </g>
            </g>
          </g>
          <g id="Grupo_81746" data-name="Grupo 81746" transform="translate(19.087 76.34)">
            <g id="Grupo_81742" data-name="Grupo 81742" transform="translate(0 49.285)">
              <path id="Trazado_114402" data-name="Trazado 114402" d="M357.18,160.716l50.913,13.042,18.8,57.543-1,1.271L377.4,219.2l-21.219-57.215Z" transform="translate(-356.182 -160.716)" fill="#9aeccd"/>
              <path id="Trazado_114403" data-name="Trazado 114403" d="M395.207,171.983,414,229.526l1-1.271-18.8-57.543Z" transform="translate(-344.293 -157.67)" opacity="0.35"/>
              <path id="Trazado_114404" data-name="Trazado 114404" d="M356.182,161.69,407.1,174.732l18.8,57.543L377.4,218.905Z" transform="translate(-356.182 -160.419)" opacity="0.25"/>
              <g id="Grupo_81738" data-name="Grupo 81738" transform="translate(15.333 9.42)" opacity="0.1">
                <path id="Trazado_114405" data-name="Trazado 114405" d="M368.54,170.5s-.261-.865-.582-1.934,2.626-.753,6.585.7l9.15,1.909c3.957,1.456,7.666,2.474,7.987,3.541l.582,1.934Z" transform="translate(-367.935 -167.936)"/>
              </g>
              <g id="Grupo_81739" data-name="Grupo 81739" transform="translate(12.192 1.863)">
                <path id="Trazado_114406" data-name="Trazado 114406" d="M365.551,163.618c-.2-.668.935-.628,2.549-.35l2.929.716s-1.412-2.753,5.478-1.526c7.581,1.349,8.068,5.031,8.068,5.031a32.408,32.408,0,0,0,3.673.981c2.527.581,2.843,1.039,3.105,1.71l.474,1.216-25.95-6.632S365.754,164.286,365.551,163.618Z" transform="translate(-365.527 -162.144)" fill="#37474f"/>
              </g>
              <g id="Grupo_81740" data-name="Grupo 81740" transform="translate(14.236 4.492)">
                <path id="Trazado_114407" data-name="Trazado 114407" d="M368.052,166.548c2.425.851,3.439,1.28,3.935,2.926.568,1.881.721,2.672.721,2.672l13.563,4.008s-.959-2.757-1.216-3.682,1.474-1.087,3.838-.237l-.749-2.3-21.051-5.772Z" transform="translate(-367.094 -164.159)" fill="#37474f"/>
              </g>
              <g id="Grupo_81741" data-name="Grupo 81741" transform="translate(14.659 9.513)">
                <path id="Trazado_114408" data-name="Trazado 114408" d="M368.023,170.575s-.26-.866-.582-1.934,2.628-.754,6.585.7l9.151,1.909c3.957,1.456,7.665,2.472,7.987,3.541l.582,1.934Z" transform="translate(-367.418 -168.007)" fill="#37474f"/>
              </g>
            </g>
            <g id="Grupo_81745" data-name="Grupo 81745" transform="translate(38.182)">
              <path id="Trazado_114409" data-name="Trazado 114409" d="M476.219,148.65c-4.634-18.568-9.857-22.8-20.422-24.744-9.4,15.009-4.022,38.387-4.022,38.387l6.376,28.465c-1.735,1.519-27.789,18.242-32.4,19.857-1.673.586-4.848-.007-6.538-.539-4.534-1.429-7.677-.909-12.029-.608l2.016,6.17c-.937.591-5.226,1.337-5.623,1.409a33.548,33.548,0,0,1-9.126.1c-2.752-.267-5.769-.783-8.082.729-.548.359-1.075.979-.873,1.6.141.433.579.682.955.941a5.569,5.569,0,0,1,2.06,2.648,9.438,9.438,0,0,0,3.687,4.989,24.3,24.3,0,0,0,13.905,5.683,16.3,16.3,0,0,0,3.452.356c4.517-.176,8.757-1.632,13.027-2.929,5.251-1.6,8.255-2.977,12.512-4.376,2.843-.933,8.306-2.945,11.108-4,16.316-6.125,38.494-14.113,39.64-21.941S481,167.825,476.219,148.65Z" transform="translate(-385.448 -122.646)" fill="#ffbda7"/>
              <g id="Grupo_81744" data-name="Grupo 81744" transform="translate(63.173)">
                <g id="Grupo_81743" data-name="Grupo 81743">
                  <path id="Trazado_114410" data-name="Trazado 114410" d="M441.225,122.94c12,3.677,14.376,5.37,17.823,14.91,3.339,9.238,10.139,38.06,11.128,45.007-5.508,5.429-22.354,8.88-28.345,4.951L436.164,163.1C434.213,154.783,430.336,136.01,441.225,122.94Z" transform="translate(-433.869 -122.94)" fill="#f6f6f6"/>
                </g>
              </g>
            </g>
          </g>
        </g>
      </g>
    </g>
    <g id="Grupo_81659" data-name="Grupo 81659" transform="translate(926.238 3441.938)">
      <g id="Grupo_80111" data-name="Grupo 80111" transform="translate(35.633)">
        <path id="Trazado_113526" data-name="Trazado 113526" d="M297.471,1045.792l-24.963-24.963a1.247,1.247,0,0,1,0-1.763h0a1.247,1.247,0,0,1,1.764,0l24.962,24.962a1.247,1.247,0,0,1,0,1.764h0A1.247,1.247,0,0,1,297.471,1045.792Z" transform="translate(-272.143 -1018.7)" fill="#f9931f"/>
      </g>
      <g id="Grupo_80112" data-name="Grupo 80112" transform="translate(47.883 3.342)">
        <path id="Trazado_113527" data-name="Trazado 113527" d="M346.73,1047.891l-9.372-9.372a1.247,1.247,0,0,1,0-1.763h0a1.246,1.246,0,0,1,1.764,0l9.371,9.371a1.247,1.247,0,0,1,0,1.764h0A1.247,1.247,0,0,1,346.73,1047.891Z" transform="translate(-336.993 -1036.39)" fill="#f9931f"/>
      </g>
      <g id="Grupo_80113" data-name="Grupo 80113" transform="translate(26.726)">
        <path id="Trazado_113528" data-name="Trazado 113528" d="M259.224,1054.7l-33.869-33.869a1.246,1.246,0,0,1,0-1.763h0a1.246,1.246,0,0,1,1.763,0l33.87,33.869a1.246,1.246,0,0,1,0,1.763h0A1.246,1.246,0,0,1,259.224,1054.7Z" transform="translate(-224.989 -1018.7)" fill="#f9931f"/>
      </g>
      <g id="Grupo_80114" data-name="Grupo 80114" transform="translate(19.678 1.858)">
        <path id="Trazado_113529" data-name="Trazado 113529" d="M227.1,1069.725l-39.059-39.059a1.247,1.247,0,0,1,0-1.764h0a1.246,1.246,0,0,1,1.763,0l39.06,39.06a1.247,1.247,0,0,1,0,1.763h0A1.246,1.246,0,0,1,227.1,1069.725Z" transform="translate(-187.675 -1028.537)" fill="#f9931f"/>
      </g>
      <g id="Grupo_80115" data-name="Grupo 80115" transform="translate(13.82 4.907)">
        <path id="Trazado_113530" data-name="Trazado 113530" d="M198.9,1088.675l-41.868-41.869a1.247,1.247,0,0,1,0-1.764h0a1.247,1.247,0,0,1,1.763,0l41.869,41.869a1.247,1.247,0,0,1,0,1.764h0A1.247,1.247,0,0,1,198.9,1088.675Z" transform="translate(-156.663 -1044.677)" fill="#f9931f"/>
      </g>
      <g id="Grupo_80116" data-name="Grupo 80116" transform="translate(8.913 8.913)">
        <path id="Trazado_113531" data-name="Trazado 113531" d="M173.821,1110.784l-42.77-42.77a1.248,1.248,0,0,1,0-1.764h0a1.248,1.248,0,0,1,1.764,0l42.77,42.77a1.248,1.248,0,0,1,0,1.764h0A1.249,1.249,0,0,1,173.821,1110.784Z" transform="translate(-130.686 -1065.885)" fill="#f9931f"/>
      </g>
      <g id="Grupo_80117" data-name="Grupo 80117" transform="translate(4.907 13.82)">
        <path id="Trazado_113532" data-name="Trazado 113532" d="M151.712,1135.861l-41.869-41.869a1.247,1.247,0,0,1,0-1.763h0a1.247,1.247,0,0,1,1.764,0l41.868,41.869a1.246,1.246,0,0,1,0,1.764h0A1.247,1.247,0,0,1,151.712,1135.861Z" transform="translate(-109.478 -1091.863)" fill="#f9931f"/>
      </g>
      <g id="Grupo_80118" data-name="Grupo 80118" transform="translate(1.858 19.678)">
        <path id="Trazado_113533" data-name="Trazado 113533" d="M132.761,1164.064,93.7,1125a1.246,1.246,0,0,1,0-1.763h0a1.246,1.246,0,0,1,1.763,0l39.06,39.059a1.247,1.247,0,0,1,0,1.764h0A1.246,1.246,0,0,1,132.761,1164.064Z" transform="translate(-93.336 -1122.875)" fill="#f9931f"/>
      </g>
      <g id="Grupo_80119" data-name="Grupo 80119" transform="translate(0 26.726)">
        <path id="Trazado_113534" data-name="Trazado 113534" d="M117.734,1196.187l-33.87-33.87a1.246,1.246,0,0,1,0-1.763h0a1.246,1.246,0,0,1,1.763,0l33.87,33.87a1.246,1.246,0,0,1,0,1.763h0A1.246,1.246,0,0,1,117.734,1196.187Z" transform="translate(-83.499 -1160.189)" fill="#f9931f"/>
      </g>
      <g id="Grupo_80120" data-name="Grupo 80120" transform="translate(0 35.633)">
        <path id="Trazado_113535" data-name="Trazado 113535" d="M108.827,1234.434l-24.962-24.963a1.247,1.247,0,0,1,0-1.764h0a1.247,1.247,0,0,1,1.763,0l24.963,24.963a1.247,1.247,0,0,1,0,1.763h0A1.247,1.247,0,0,1,108.827,1234.434Z" transform="translate(-83.499 -1207.343)" fill="#f9931f"/>
      </g>
      <g id="Grupo_80121" data-name="Grupo 80121" transform="translate(3.342 47.883)">
        <path id="Trazado_113536" data-name="Trazado 113536" d="M110.927,1283.693l-9.371-9.371a1.247,1.247,0,0,1,0-1.764h0a1.247,1.247,0,0,1,1.763,0l9.372,9.372a1.247,1.247,0,0,1,0,1.763h0A1.247,1.247,0,0,1,110.927,1283.693Z" transform="translate(-101.191 -1272.193)" fill="#f9931f"/>
      </g>
    </g>
    <g id="Elipse_4746" data-name="Elipse 4746" transform="translate(966.976 3473.78)" fill="none" stroke="#dde2f1" stroke-width="6">
      <ellipse cx="18.262" cy="18.964" rx="18.262" ry="18.964" stroke="none"/>
      <ellipse cx="18.262" cy="18.964" rx="15.262" ry="15.964" fill="none"/>
    </g>
    <g id="Elipse_4747" data-name="Elipse 4747" transform="translate(1156.619 3329.089)" fill="none" stroke="#dadff3" stroke-width="6">
      <ellipse cx="18.262" cy="18.964" rx="18.262" ry="18.964" stroke="none"/>
      <ellipse cx="18.262" cy="18.964" rx="15.262" ry="15.964" fill="none"/>
    </g>
  </g>
</svg>
