<svg xmlns="http://www.w3.org/2000/svg" xmlns:xlink="http://www.w3.org/1999/xlink" width="295" height="274" viewBox="0 0 295 274">
  <defs>
    <clipPath id="clip-path">
      <rect id="Rect치ngulo_34096" data-name="Rect치ngulo 34096" width="137.912" height="121.943" fill="none"/>
    </clipPath>
  </defs>
  <g id="Grupo_84391" data-name="Grupo 84391" transform="translate(-1125 -1401)">
    <rect id="Rect치ngulo_34237" data-name="Rect치ngulo 34237" width="295" height="274" rx="10" transform="translate(1125 1401)" fill="#ffe9a6"/>
    <g id="Grupo_84390" data-name="Grupo 84390" transform="translate(-55.758 -32.577)">
      <g id="Grupo_84386" data-name="Grupo 84386" transform="translate(1232 1472.708)">
        <g id="Elipse_4786" data-name="Elipse 4786" transform="translate(156.445 127.918)" fill="none" stroke="#ffc721" stroke-width="4">
          <ellipse cx="18.036" cy="18.036" rx="18.036" ry="18.036" stroke="none"/>
          <ellipse cx="18.036" cy="18.036" rx="16.036" ry="16.036" fill="none"/>
        </g>
        <g id="Grupo_84385" data-name="Grupo 84385" transform="translate(0 0)">
          <g id="Grupo_84219" data-name="Grupo 84219">
            <g id="Grupo_80147" data-name="Grupo 80147" transform="translate(75.281 91.276) rotate(90)">
              <g id="Grupo_80123" data-name="Grupo 80123" transform="translate(48.592 37.838)">
                <path id="Trazado_113537" data-name="Trazado 113537" d="M34.54.5.5,34.539a1.7,1.7,0,0,0,0,2.4h0a1.7,1.7,0,0,0,2.406,0L36.945,2.9a1.7,1.7,0,0,0,0-2.405h0A1.7,1.7,0,0,0,34.54.5Z" transform="translate(0 0)" fill="#ffc721"/>
              </g>
              <g id="Grupo_80124" data-name="Grupo 80124" transform="translate(65.296 54.543)">
                <path id="Trazado_113538" data-name="Trazado 113538" d="M13.278.5.5,13.278a1.7,1.7,0,0,0,0,2.4h0a1.7,1.7,0,0,0,2.4,0L15.684,2.9a1.7,1.7,0,0,0,0-2.405h0A1.7,1.7,0,0,0,13.278.5Z" fill="#ffc721"/>
              </g>
              <g id="Grupo_80125" data-name="Grupo 80125" transform="translate(36.445 25.692)">
                <path id="Trazado_113539" data-name="Trazado 113539" d="M46.686.5.5,46.686a1.7,1.7,0,0,0,0,2.4h0a1.7,1.7,0,0,0,2.4,0L49.092,2.9a1.7,1.7,0,0,0,0-2.4h0A1.7,1.7,0,0,0,46.686.5Z" transform="translate(0 0)" fill="#ffc721"/>
              </g>
              <g id="Grupo_80126" data-name="Grupo 80126" transform="translate(26.833 16.08)">
                <path id="Trazado_113540" data-name="Trazado 113540" d="M53.764.5.5,53.763a1.7,1.7,0,0,0,0,2.4h0a1.7,1.7,0,0,0,2.4,0L56.169,2.9a1.7,1.7,0,0,0,0-2.4h0A1.7,1.7,0,0,0,53.764.5Z" transform="translate(0)" fill="#ffc721"/>
              </g>
              <g id="Grupo_80127" data-name="Grupo 80127" transform="translate(18.844 8.092)">
                <path id="Trazado_113541" data-name="Trazado 113541" d="M57.6.5.5,57.594A1.7,1.7,0,0,0,.5,60h0a1.7,1.7,0,0,0,2.4,0L60,2.9A1.7,1.7,0,0,0,60,.5h0A1.7,1.7,0,0,0,57.6.5Z" transform="translate(0 0)" fill="#ffc721"/>
              </g>
              <g id="Grupo_80128" data-name="Grupo 80128" transform="translate(12.153 1.4)">
                <path id="Trazado_113542" data-name="Trazado 113542" d="M58.824.5.5,58.823a1.7,1.7,0,0,0,0,2.406h0a1.7,1.7,0,0,0,2.406,0L61.229,2.9a1.7,1.7,0,0,0,0-2.405h0A1.7,1.7,0,0,0,58.824.5Z" transform="translate(0 0)" fill="#ffc721"/>
              </g>
              <g id="Grupo_80129" data-name="Grupo 80129" transform="translate(6.687 0)">
                <path id="Trazado_113543" data-name="Trazado 113543" d="M58.845,0h-4.81L.5,53.531a1.7,1.7,0,0,0,1.2,2.908,1.714,1.714,0,0,0,1.2-.5Z" fill="#ffc721"/>
              </g>
              <g id="Grupo_80130" data-name="Grupo 80130" transform="translate(2.53 0)">
                <path id="Trazado_113544" data-name="Trazado 113544" d="M50.854,0H46.045L.5,45.547a1.7,1.7,0,0,0,1.2,2.9,1.672,1.672,0,0,0,1.2-.5Z" fill="#ffc721"/>
              </g>
              <g id="Grupo_80131" data-name="Grupo 80131" transform="translate(0 0)">
                <path id="Trazado_113545" data-name="Trazado 113545" d="M41.235,0H36.426L.5,35.928a1.7,1.7,0,0,0,1.2,2.908,1.716,1.716,0,0,0,1.2-.5Z" fill="#ffc721"/>
              </g>
              <g id="Grupo_80132" data-name="Grupo 80132">
                <path id="Trazado_113546" data-name="Trazado 113546" d="M29.087,0h-4.8L.5,23.789a1.7,1.7,0,0,0,1.2,2.9,1.716,1.716,0,0,0,1.2-.5Z" fill="#ffc721"/>
              </g>
              <g id="Grupo_80133" data-name="Grupo 80133" transform="translate(4.553 0)">
                <path id="Trazado_113547" data-name="Trazado 113547" d="M12.385,0h-4.8L.5,7.081a1.7,1.7,0,0,0,1.2,2.9,1.681,1.681,0,0,0,1.2-.5Z" transform="translate(0)" fill="#ffc721"/>
              </g>
            </g>
            <g id="Elipse_4718" data-name="Elipse 4718" transform="translate(121.21)" fill="none" stroke="#9aeccd" stroke-width="10">
              <ellipse cx="29.47" cy="29.47" rx="29.47" ry="29.47" stroke="none"/>
              <ellipse cx="29.47" cy="29.47" rx="24.47" ry="24.47" fill="none"/>
            </g>
            <g id="Grupo_84218" data-name="Grupo 84218" transform="translate(12.767 29.469)">
              <g id="Grupo_84217" data-name="Grupo 84217" clip-path="url(#clip-path)">
                <path id="Trazado_115304" data-name="Trazado 115304" d="M60.769,4.726,1.28,107.764a9.453,9.453,0,0,0,8.187,14.18H128.445a9.45,9.45,0,0,0,8.187-14.18L77.142,4.726a9.453,9.453,0,0,0-16.373,0" transform="translate(0 0)" fill="#ffc207"/>
                <path id="Trazado_115305" data-name="Trazado 115305" d="M72.171,8.132a3.32,3.32,0,0,0-5.75,0L6.931,111.17a3.321,3.321,0,0,0,2.875,4.981H128.785a3.242,3.242,0,0,0,2.554-1.194,3.28,3.28,0,0,0,.322-3.787Z" transform="translate(-0.339 -0.34)" fill="#f2d820"/>
                <path id="Trazado_115306" data-name="Trazado 115306" d="M7.009,114.613,66.42,11.711a3.32,3.32,0,0,1,5.75,0l59.413,102.906a3.246,3.246,0,0,0,.076-3.446L72.171,8.132a3.32,3.32,0,0,0-5.75,0L6.931,111.17a3.213,3.213,0,0,0,0,3.321c.022.038.052.081.078.122" transform="translate(-0.339 -0.34)" fill="#ef8f1d"/>
                <path id="Trazado_115307" data-name="Trazado 115307" d="M128.559,120.012H9.58A7.409,7.409,0,0,1,3.164,108.9L62.652,5.862a7.41,7.41,0,0,1,12.834,0L134.976,108.9a7.374,7.374,0,0,1-.7,8.422,7.26,7.26,0,0,1-5.716,2.691M69.07,4.2a5.311,5.311,0,0,0-4.647,2.682L4.935,109.921a5.365,5.365,0,0,0,4.645,8.047H128.559a5.252,5.252,0,0,0,4.135-1.942,5.345,5.345,0,0,0,.511-6.1L73.716,6.883A5.311,5.311,0,0,0,69.07,4.2" transform="translate(-0.113 -0.113)" fill="#2a3035"/>
                <path id="Trazado_115308" data-name="Trazado 115308" d="M76.9,99.906H67.682a4.141,4.141,0,0,0-4.143,4.143v9.219a4.144,4.144,0,0,0,4.143,4.142H76.9a4.144,4.144,0,0,0,4.143-4.142v-9.219A4.143,4.143,0,0,0,76.9,99.906" transform="translate(-3.335 -5.243)" fill="#f2d820"/>
                <path id="Trazado_115309" data-name="Trazado 115309" d="M65.179,92.1h0a4.138,4.138,0,0,0,2.749,1.044h8.549a4.125,4.125,0,0,0,4.14-4L82.53,33.8a4.14,4.14,0,0,0-4.14-4.284H66.017A4.14,4.14,0,0,0,61.878,33.8l1.913,55.341A4.153,4.153,0,0,0,65.179,92.1" transform="translate(-3.247 -1.549)" fill="#f2d820"/>
                <path id="Trazado_115310" data-name="Trazado 115310" d="M65.946,89.189,64.033,33.847a2.1,2.1,0,0,1,2.1-2.171H78.5a2.1,2.1,0,0,1,2.1,2.171L78.688,89.189a2.1,2.1,0,0,1-2.1,2.025H68.043a2.1,2.1,0,0,1-2.1-2.025m1.761,22.6h9.219a2.1,2.1,0,0,0,2.1-2.1v-9.219a2.1,2.1,0,0,0-2.1-2.1H67.707a2.1,2.1,0,0,0-2.1,2.1v9.219a2.1,2.1,0,0,0,2.1,2.1" transform="translate(-3.361 -1.662)"/>
              </g>
            </g>
          </g>
          <g id="Patient_Accident" data-name="Patient Accident" transform="translate(76.116 21.629)">
            <path id="Trazado_113670" data-name="Trazado 113670" d="M120.527,100.868c-5.984-32.856-5.73-32.874-7.779-37.57L111.5,60.415A36.754,36.754,0,0,0,77.772,38.294H52.042A36.808,36.808,0,0,0,18.316,60.415c-4.279,9.846-3.282,7.253-7.561,40.507Z" transform="translate(-8.912 71.04)" fill="#58b3ff"/>
            <path id="Trazado_113671" data-name="Trazado 113671" d="M22.082,53.007V73.623l77.443-.036-3.735-20.58Z" transform="translate(12.091 98.322)" fill="#447ce1"/>
            <path id="Trazado_113672" data-name="Trazado 113672" d="M96.586,87.981H21.319a7.253,7.253,0,0,1-7.144-8.123c1.378-10.879,1.469-14.034,3.626-18.912a32.8,32.8,0,0,1,8.885-13.291,29.574,29.574,0,0,1,10.77-5.929,14.977,14.977,0,0,1,11.514,1.432,18.857,18.857,0,0,0,19.6,0A14.923,14.923,0,0,1,79.941,41.8a29.3,29.3,0,0,1,18.676,16.99c2.811,6.383,2.448,6.183,5.1,20.743a7.253,7.253,0,0,1-7.126,8.45Z" transform="translate(-2.668 76.367)" fill="#94e0ff"/>
            <path id="Trazado_113673" data-name="Trazado 113673" d="M11.952,104.034a1.813,1.813,0,0,1-1.813-2.14c4.334-33.617,3.373-31.06,7.706-41.015A38.64,38.64,0,0,1,53.239,37.633h25.73a38.64,38.64,0,0,1,35.467,23.245c4.207,9.683,3.3,7.253,7.706,38.948a1.9,1.9,0,0,1-3.753.526c-4.406-31.623-3.463-28.848-7.416-37.969a34.886,34.886,0,0,0-32-20.961H53.239A34.868,34.868,0,0,0,21.254,62.384c-4.062,9.266-3.046,6.02-7.362,40.09a1.813,1.813,0,0,1-1.94,1.559Z" transform="translate(-10.109 69.815)"/>
            <path id="Trazado_113674" data-name="Trazado 113674" d="M20.016,50.542l-2.267,27.67" transform="translate(4.057 93.751)" fill="#fff"/>
            <path id="Trazado_113675" data-name="Trazado 113675" d="M18.976,81.378a1.813,1.813,0,0,1-1.813-2.049l2.248-27.652a1.813,1.813,0,0,1,2.031-1.813,1.922,1.922,0,0,1,1.813,2.049L20.789,79.638A1.9,1.9,0,0,1,18.976,81.378Z" transform="translate(2.94 92.471)"/>
            <path id="Trazado_113676" data-name="Trazado 113676" d="M41.881,81.468l-2.665-32.71" transform="translate(43.86 90.441)" fill="#fff"/>
            <path id="Trazado_113677" data-name="Trazado 113677" d="M43.067,84.588a1.813,1.813,0,0,1-1.813-1.813L38.589,50.137a1.935,1.935,0,1,1,3.862-.218l2.665,32.638a1.813,1.813,0,0,1-2.049,2.031Z" transform="translate(42.673 89.206)"/>
            <path id="Trazado_113678" data-name="Trazado 113678" d="M16.4,16.492H92.467V37.108H16.4Z" transform="translate(1.56 30.613)" fill="#52527b"/>
            <path id="Trazado_113679" data-name="Trazado 113679" d="M93.645,40.125H17.581a1.813,1.813,0,0,1-1.813-1.813V17.7a1.813,1.813,0,0,1,1.813-1.813H93.645A1.813,1.813,0,0,1,95.458,17.7V38.239a1.813,1.813,0,0,1-1.813,1.886ZM19.485,36.353H91.759V19.508H19.485Z" transform="translate(0.382 29.482)"/>
            <path id="Trazado_113680" data-name="Trazado 113680" d="M88.669,33.9H22.251a6.4,6.4,0,0,1,0-12.8H88.669a6.4,6.4,0,0,1,0,12.8Z" transform="translate(0.535 39.153)" fill="#fb9c88"/>
            <path id="Trazado_113681" data-name="Trazado 113681" d="M89.894,37.01H23.476a8.286,8.286,0,0,1,0-16.573H89.894a8.286,8.286,0,1,1,0,16.573ZM23.476,24.226a4.533,4.533,0,0,0,0,9.066H89.894a4.533,4.533,0,1,0,0-9.066Z" transform="translate(-0.69 37.928)"/>
            <path id="Trazado_113682" data-name="Trazado 113682" d="M48.311,48.9l-3.626,2.738a12.692,12.692,0,0,1-15.285,0L25.773,48.9V32.577H48.311Z" transform="translate(18.934 60.439)" fill="#fb9c88"/>
            <path id="Trazado_113683" data-name="Trazado 113683" d="M38.295,57.236c-5.657,0-8.522-2.72-12.421-5.639a1.813,1.813,0,0,1-.762-1.523V33.755a1.813,1.813,0,0,1,1.813-1.813H49.537a1.813,1.813,0,0,1,1.813,1.813V50.074a1.94,1.94,0,0,1-.762,1.523c-3.9,3.01-6.636,5.639-12.294,5.639Zm-9.411-8.105,2.9,2.176a10.879,10.879,0,0,0,13.019,0l2.919-2.176V35.677H28.884Z" transform="translate(17.709 59.261)"/>
            <path id="Trazado_113684" data-name="Trazado 113684" d="M49.037,84.205A29.719,29.719,0,0,1,19.319,54.486v-20.2A24.5,24.5,0,0,1,43.8,9.809h10.48a24.478,24.478,0,0,1,24.46,24.478v20.2a29.7,29.7,0,0,1-29.7,29.719Z" transform="translate(6.966 18.221)" fill="#fbc4ab"/>
            <path id="Trazado_113685" data-name="Trazado 113685" d="M78.738,37.569V34.287A24.478,24.478,0,0,0,54.277,9.809H43.8A24.478,24.478,0,0,0,19.319,34.287v3.282Z" transform="translate(6.966 18.221)" fill="#fb9c88"/>
            <path id="Trazado_113686" data-name="Trazado 113686" d="M50.262,87.316a31.641,31.641,0,0,1-31.6-31.6v-20.2A26.382,26.382,0,0,1,45.022,9.148H55.5A26.4,26.4,0,0,1,81.867,35.512v20.2a31.641,31.641,0,0,1-31.6,31.6Zm-5.24-74.342A22.593,22.593,0,0,0,22.448,35.512v20.2a27.815,27.815,0,1,0,55.63,0v-20.2A22.593,22.593,0,0,0,55.5,12.938Z" transform="translate(5.741 16.996)"/>
            <path id="Trazado_113687" data-name="Trazado 113687" d="M40.553,25.282h-6a1.886,1.886,0,1,1,0-3.772h6a1.886,1.886,0,0,1,0,3.772Z" transform="translate(31.715 39.919)"/>
            <path id="Trazado_113688" data-name="Trazado 113688" d="M31.259,25.282h-6a1.886,1.886,0,0,1,0-3.772h6a1.886,1.886,0,0,1,0,3.772Z" transform="translate(14.482 39.919)"/>
            <path id="Trazado_113689" data-name="Trazado 113689" d="M35.155,14.719l-9.846,9.828a10.716,10.716,0,0,0,9.7,2.956v6.655A11.169,11.169,0,0,0,46.179,22.988V14.719Z" transform="translate(18.075 27.327)" fill="#52527b"/>
            <path id="Trazado_113690" data-name="Trazado 113690" d="M36.155,37.233a1.813,1.813,0,0,1-1.813-1.813V30.778a12.421,12.421,0,0,1-9.066-3.626,1.813,1.813,0,0,1,0-2.665l9.846-9.846a1.813,1.813,0,0,1,1.342-.562H47.487a1.813,1.813,0,0,1,1.813,1.9V24.25A13.073,13.073,0,0,1,36.155,37.233Zm0-10.444A1.813,1.813,0,0,1,37.968,28.6v4.569a9.3,9.3,0,0,0,7.4-9.066v-6.31H37.08l-7.815,7.8a9.284,9.284,0,0,0,6.89,1.2Z" transform="translate(16.93 26.137)"/>
            <path id="Trazado_113691" data-name="Trazado 113691" d="M30.038,23.639a1.876,1.876,0,0,1-.345-3.735,8.867,8.867,0,0,0,3.626-1.686,1.893,1.893,0,0,1,2.321,2.992A12.094,12.094,0,0,1,30.038,23.639Z" transform="translate(23.046 33.076)"/>
            <path id="Trazado_113692" data-name="Trazado 113692" d="M92.455,39.932H16.409a38.078,38.078,0,0,1,76.046,0Z" transform="translate(1.571 7.245)" fill="#fbecd8"/>
            <path id="Trazado_113693" data-name="Trazado 113693" d="M34.87,15.291l11.8-4.225c1.995,2.248,3.282,4.225,6.4,4.225H56.52a34.977,34.977,0,0,1,1.469,7.072Z" transform="translate(35.803 20.554)" fill="#ddc4a6"/>
            <path id="Trazado_113694" data-name="Trazado 113694" d="M64.125,8.838,34.5,19.445,25.068,17l34.8-11.5A41.956,41.956,0,0,1,64.125,8.838Z" transform="translate(17.627 10.235)" fill="#ddc4a6"/>
            <path id="Trazado_113695" data-name="Trazado 113695" d="M46.146,22.265H16.409a37.625,37.625,0,0,1,1.034-8.849Z" transform="translate(1.571 24.912)" fill="#ddc4a6"/>
            <path id="Trazado_113696" data-name="Trazado 113696" d="M93.633,44.245H17.587a1.813,1.813,0,0,1-1.813-1.813,39.891,39.891,0,1,1,79.782,0,1.813,1.813,0,0,1-1.922,1.813ZM19.527,40.474H91.693a36.137,36.137,0,0,0-72.166,0Z" transform="translate(0.394 4.745)"/>
            <path id="Trazado_113697" data-name="Trazado 113697" d="M36.675,33.254H29.748a1.895,1.895,0,0,1,0-3.79h6.926a1.895,1.895,0,0,1,0,3.79Z" transform="translate(22.792 54.667)"/>
            <path id="Trazado_113698" data-name="Trazado 113698" d="M65.76,16.643,32.433,28.628,28.371,17.278,58,6.67a38.676,38.676,0,0,1,7.761,9.973Z" transform="translate(23.752 12.402)" fill="#fbecd8"/>
            <path id="Trazado_113699" data-name="Trazado 113699" d="M52.378,18.7l13.853-5A37.968,37.968,0,0,0,62.6,8.259L48.679,14.242a6.111,6.111,0,0,1-5.24-.2l-5.657-2.937L28.117,14.55l11.568,3.626,7.67,2.357,4.986-1.813Z" transform="translate(23.281 15.347)" fill="#ddc4a6"/>
            <path id="Trazado_113700" data-name="Trazado 113700" d="M33.705,31.747A1.922,1.922,0,0,1,31.892,30.5L27.831,19.182a1.813,1.813,0,0,1,1.142-2.448L58.583,6.127a1.813,1.813,0,0,1,1.9.381A39.347,39.347,0,0,1,68.7,17.042a1.813,1.813,0,0,1-1.034,2.647C32.074,32.382,34.2,31.747,33.705,31.747ZM32.074,19.689l2.792,7.779c65.475-23.427-4.007,1.469,29.41-10.517a35.54,35.54,0,0,0-5.44-6.836Z" transform="translate(22.48 11.169)"/>
            <path id="Trazado_113701" data-name="Trazado 113701" d="M37.618,9.574,32.94.635a10.879,10.879,0,0,0-4.95,13.472,38.531,38.531,0,0,0-8.595,7.833l.653,2.339L65.813,11.859a37.86,37.86,0,0,0-28.2-2.285Z" transform="translate(7.108 1.212)" fill="#52527b"/>
            <path id="Trazado_113702" data-name="Trazado 113702" d="M21.225,27.438a1.813,1.813,0,0,1-1.813-1.4c-.888-3.282-1.106-3.046.381-4.823a41.287,41.287,0,0,1,7.253-6.6A12.783,12.783,0,0,1,33.229.239a1.813,1.813,0,0,1,2.557.78l4.043,7.507a39.782,39.782,0,0,1,28.087,2.829,1.813,1.813,0,0,1-.345,3.518C18.506,28.254,21.606,27.438,21.225,27.438ZM33.446,4.646a9.066,9.066,0,0,0-2.5,10.063,1.813,1.813,0,0,1-.725,2.248,37.117,37.117,0,0,0-7.035,6.092L61.225,12.714a36.409,36.409,0,0,0-21.759-.091,1.813,1.813,0,0,1-2.212-.925Z" transform="translate(5.839 0.012)"/>
            <path id="Trazado_113703" data-name="Trazado 113703" d="M67.259,81.006,33.841,38.939A3.264,3.264,0,0,0,30.5,37.761L22.8,39.574a3.3,3.3,0,0,0-1.813,5.2l32.438,42.9Z" transform="translate(8.799 69.887)" fill="#fbecd8"/>
            <path id="Trazado_113704" data-name="Trazado 113704" d="M27.209,48.979,40.626,66.713,54.461,60.04,45.685,48.979Z" transform="translate(21.597 90.853)" fill="#ddc4a6"/>
            <path id="Trazado_113705" data-name="Trazado 113705" d="M54.7,90.876a1.813,1.813,0,0,1-1.5-.762L20.665,47.123a5.2,5.2,0,0,1,2.974-8.2l7.706-1.813A5.2,5.2,0,0,1,36.6,38.927L70.021,81.121A1.9,1.9,0,0,1,69.35,84C54.282,91.293,55.315,90.876,54.7,90.876Zm-22.176-50.1c-.254,0,.236,0-8.033,1.813a1.432,1.432,0,0,0-.8,2.248l31.568,41.7,10.317-4.986L33.647,41.3A1.469,1.469,0,0,0,32.523,40.777Z" transform="translate(7.524 68.594)"/>
            <path id="Trazado_113706" data-name="Trazado 113706" d="M90.712,32.573H62.97L17.349,18.466a36.573,36.573,0,0,1,6.4-10.607L90.476,28.311a39.619,39.619,0,0,1,.236,4.261Z" transform="translate(3.315 14.605)" fill="#fbecd8"/>
            <path id="Trazado_113707" data-name="Trazado 113707" d="M90.712,29.592H62.97L17.349,15.485a37.316,37.316,0,0,1,3.064-6.02L63.7,23.119c5.131,1.614,7.924,1.215,23.572,1.215l3.264,1A39.62,39.62,0,0,1,90.712,29.592Z" transform="translate(3.315 17.585)" fill="#ddc4a6"/>
            <path id="Trazado_113708" data-name="Trazado 113708" d="M91.959,35.635h-28.3L18.034,21.528a1.813,1.813,0,0,1-1.2-2.5A38.4,38.4,0,0,1,23.565,7.856a1.813,1.813,0,0,1,1.976-.58L92.376,27.765a1.922,1.922,0,0,1,1.324,1.6,40.25,40.25,0,0,1,.145,4.461,1.813,1.813,0,0,1-1.886,1.813Zm-27.47-3.771h25.53v-.852L25.65,11.265a34.651,34.651,0,0,0-4.5,7.253Z" transform="translate(2.068 13.356)"/>
            <path id="Trazado_113709" data-name="Trazado 113709" d="M30.667,13.686a1.813,1.813,0,0,1-1.668-1L24.538,4.4a1.9,1.9,0,1,1,3.336-1.813l4.461,8.286a1.813,1.813,0,0,1-1.668,2.81Z" transform="translate(16.217 2.993)"/>
            <path id="Trazado_113710" data-name="Trazado 113710" d="M31.344,51.457H86.285a4.08,4.08,0,0,1,4.08,4.08V66.416A10.335,10.335,0,0,1,80.029,76.751H28.588V54.376a2.829,2.829,0,0,1,2.756-2.919Z" transform="translate(24.152 95.447)" fill="#fbecd8"/>
            <path id="Trazado_113711" data-name="Trazado 113711" d="M49.126,51.489l4.7,20.417H49.507L42.671,51.489Z" transform="translate(50.268 95.506)" fill="#ddc4a6"/>
            <path id="Trazado_113712" data-name="Trazado 113712" d="M36.28,51.489l6.745,12.6-1.741,5.548L29.553,51.489Z" transform="translate(25.943 95.506)" fill="#ddc4a6"/>
            <path id="Trazado_113713" data-name="Trazado 113713" d="M90.345,55.55V66.43A10.3,10.3,0,0,1,80.028,76.783H28.587V71.906h51.35a5.621,5.621,0,0,0,5.639-5.621v-14.8h.707a4.062,4.062,0,0,1,4.062,4.062Z" transform="translate(24.153 95.506)" fill="#ddc4a6"/>
            <path id="Trazado_113714" data-name="Trazado 113714" d="M44.343,51.336l7.616,25.421-4.479.236-8.087-15.63,2.756-10.027Z" transform="translate(44.19 95.224)" fill="#ddc4a6"/>
            <path id="Trazado_113715" data-name="Trazado 113715" d="M35.651,76.4l8.377-24.914h5.059L41.073,76.4Z" transform="translate(37.251 95.506)" fill="#ddc4a6"/>
            <path id="Trazado_113716" data-name="Trazado 113716" d="M81.206,79.833H29.765a1.813,1.813,0,0,1-1.813-1.813V55.554a4.732,4.732,0,0,1,4.569-4.733H87.462a5.984,5.984,0,0,1,5.965,5.966V67.667A12.257,12.257,0,0,1,81.206,79.833Zm-49.628-3.79H81.206a8.468,8.468,0,0,0,8.4-8.45V56.715a2.194,2.194,0,0,0-2.194-2.176H32.521a.943.943,0,0,0-.961.943Z" transform="translate(22.975 94.27)"/>
            <path id="Trazado_113717" data-name="Trazado 113717" d="M30.951,54.259h6.364V68.565H28.05a4.17,4.17,0,0,1-4.17-4.17V61.348a7.09,7.09,0,0,1,7.072-7.09Z" transform="translate(15.424 100.642)" fill="#fbc4ab"/>
            <g id="Grupo_80312" data-name="Grupo 80312" transform="translate(37.4 145.073)">
              <path id="Trazado_113718" data-name="Trazado 113718" d="M38.553,71.735H29.287a6.074,6.074,0,0,1-6.074-6.056V62.632a9.066,9.066,0,0,1,9.066-9.066h6.274a1.813,1.813,0,0,1,1.813,1.813V69.849a1.813,1.813,0,0,1-1.813,1.886ZM32.279,57.428a5.222,5.222,0,0,0-5.2,5.2v3.046a2.3,2.3,0,0,0,2.3,2.285h7.253V57.428Z" transform="translate(-23.213 -45.715)"/>
              <path id="Trazado_113719" data-name="Trazado 113719" d="M34.173,79.534a1.813,1.813,0,0,1-1.813-2.448l7.815-24.932a1.813,1.813,0,0,1,2.357-1.233A1.9,1.9,0,0,1,43.783,53.3l-7.8,24.914a1.813,1.813,0,0,1-1.813,1.324Z" transform="translate(-6.467 -50.813)"/>
              <path id="Trazado_113720" data-name="Trazado 113720" d="M38.809,79.529A1.813,1.813,0,0,1,37,77.063L45.01,52.15a1.9,1.9,0,0,1,3.626,1.142L40.6,78.224a1.813,1.813,0,0,1-1.8,1.306Z" transform="translate(2.115 -50.808)"/>
              <path id="Trazado_113721" data-name="Trazado 113721" d="M48.185,72.683A1.813,1.813,0,0,1,46.5,71.667L38.937,56.944a1.894,1.894,0,1,1,3.373-1.723l7.561,14.741a1.813,1.813,0,0,1-1.686,2.72Z" transform="translate(5.559 -44.56)"/>
              <path id="Trazado_113722" data-name="Trazado 113722" d="M52.334,79.845a1.922,1.922,0,0,1-1.813-1.287L42.107,53.336a1.912,1.912,0,1,1,3.626-1.215l8.431,25.24a1.813,1.813,0,0,1-1.831,2.484Z" transform="translate(11.637 -50.815)"/>
              <path id="Trazado_113723" data-name="Trazado 113723" d="M42.035,72.767a1.922,1.922,0,0,1-1.632-.907L29.434,53.729a1.9,1.9,0,0,1,.635-2.611,1.813,1.813,0,0,1,2.593.653L43.649,69.9a1.813,1.813,0,0,1-1.614,2.865Z" transform="translate(-12.19 -50.81)"/>
            </g>
          </g>
        </g>
      </g>
    </g>
  </g>
</svg>
